<svg width="342" height="342" viewBox="0 0 342 342" fill="none" xmlns="http://www.w3.org/2000/svg">
<path d="M171 291.523C225.981 291.523 270.552 286.916 270.552 281.232C270.552 275.548 225.981 270.94 171 270.94C116.019 270.94 71.4485 275.548 71.4485 281.232C71.4485 286.916 116.019 291.523 171 291.523Z" fill="#EBEBEB"/>
<path d="M222.123 314.022C270.056 314.022 308.914 307.076 308.914 298.507C308.914 289.938 270.056 282.991 222.123 282.991C174.189 282.991 135.332 289.938 135.332 298.507C135.332 307.076 174.189 314.022 222.123 314.022Z" fill="#EBEBEB"/>
<path d="M24.2678 266.228L60.9526 266.057L97.6374 265.996L171 265.887L244.363 265.996L281.048 266.057L317.732 266.228L281.048 266.391L244.363 266.453L171 266.562L97.6374 266.453L60.9526 266.391L24.2678 266.228Z" fill="#263238"/>
<path d="M58.1223 214.498C62.453 205.632 70.03 201.028 78.5823 203.586C87.1346 206.143 88.444 218.017 82.0742 221.025C75.7043 224.032 69.3208 215.255 65.9517 213.448C62.5826 211.64 58.1223 214.498 58.1223 214.498Z" fill="#00CA00"/>
<path d="M53.9278 238.19C53.9278 237.12 53.996 236.042 54.0301 234.971C54.1074 232.83 54.1847 230.688 54.262 228.547C54.378 224.626 54.8281 220.786 56.424 217.171C57.8568 213.896 60.2521 211.135 63.2917 209.253C64.4173 208.57 65.6312 208.045 66.8995 207.691C68.0519 206.53 69.5157 205.727 71.1142 205.379C73.0929 204.979 75.1265 204.928 77.1227 205.229C77.1977 205.229 77.1909 205.352 77.1227 205.339C75.2184 205.095 73.2846 205.234 71.4348 205.748C70.6458 205.967 69.8805 206.264 69.1501 206.634C68.6888 206.883 68.2466 207.166 67.827 207.48C69.5494 207.122 71.3287 207.138 73.0443 207.528C73.6626 207.676 74.2672 207.877 74.8516 208.128C75.3185 208.02 75.7984 207.978 76.277 208.005C76.9007 208.023 77.5206 208.11 78.1252 208.264C79.3607 208.613 80.5425 209.129 81.6375 209.799C81.6462 209.808 81.6517 209.82 81.6533 209.833C81.6549 209.845 81.6526 209.858 81.6466 209.869C81.6406 209.881 81.6312 209.89 81.6198 209.895C81.6084 209.901 81.5955 209.903 81.5829 209.901C80.5122 209.313 79.3644 208.876 78.1729 208.605C77.5916 208.474 77.0011 208.388 76.4066 208.346C76.0794 208.329 75.7516 208.329 75.4245 208.346C77.8595 209.469 79.8171 211.419 80.9487 213.85C80.9487 213.918 80.8805 213.973 80.8532 213.904C80.1786 212.496 79.1957 211.258 77.9773 210.282C76.7589 209.305 75.3362 208.616 73.815 208.264C73.624 208.217 73.433 208.189 73.2421 208.155C73.3103 208.428 73.2966 208.749 73.3376 209.015C73.3921 209.451 73.4671 209.881 73.549 210.31C73.725 211.191 73.9528 212.061 74.231 212.916C74.5223 213.778 74.8686 214.621 75.2676 215.439C75.6503 216.306 76.1357 217.123 76.7135 217.874C76.7211 217.88 76.7273 217.887 76.7314 217.896C76.7356 217.904 76.7377 217.914 76.7376 217.923C76.7374 217.933 76.735 217.943 76.7306 217.951C76.7261 217.96 76.7197 217.967 76.7119 217.972C76.7041 217.978 76.6951 217.982 76.6856 217.983C76.6761 217.985 76.6664 217.984 76.6572 217.981C76.6481 217.978 76.6398 217.973 76.633 217.966C76.6262 217.959 76.621 217.951 76.618 217.942C76.1065 217.137 75.5131 216.401 75.0426 215.562C74.1321 213.959 73.485 212.221 73.1261 210.413C73.0307 209.928 72.9556 209.451 72.9011 208.96C72.842 208.671 72.8237 208.375 72.8465 208.08C71.8419 207.927 70.8216 207.906 69.8116 208.019C70.1935 210.14 70.5959 212.356 71.7894 214.198C71.8303 214.259 71.7212 214.314 71.6871 214.252C71.1316 213.274 70.6417 212.26 70.2208 211.217C69.832 210.201 69.5864 209.136 69.4911 208.053C67.7291 208.29 66.0281 208.859 64.4784 209.731C61.5603 211.428 59.2306 213.976 57.8016 217.035C56.2947 220.327 55.4534 223.885 55.3259 227.504C55.0395 232.052 54.9849 236.629 54.528 241.144C54.528 241.444 54.0301 241.539 53.9688 241.205C53.8614 240.204 53.8477 239.194 53.9278 238.19Z" fill="#263238"/>
<path d="M63.926 208.51C64.2111 208.165 64.5415 207.86 64.9081 207.603C65.2627 207.31 65.6242 207.023 66.0061 206.764C66.7577 206.25 67.5898 205.865 68.4681 205.625C68.5363 205.625 68.5636 205.72 68.4681 205.734C67.5843 205.958 66.7572 206.364 66.0402 206.928C65.6788 207.194 65.3582 207.48 64.9899 207.773C64.6898 208.088 64.3585 208.371 64.001 208.619C63.9738 208.68 63.926 208.605 63.926 208.51Z" fill="#263238"/>
<path d="M77.7569 211.763C78.476 212.595 79.139 213.475 79.7416 214.395C80.3357 215.316 80.8317 216.297 81.2215 217.321C81.2215 217.321 81.2215 217.369 81.1669 217.321C80.178 215.383 79.0089 213.543 77.6751 211.824C77.6274 211.783 77.7092 211.708 77.7569 211.763Z" fill="#263238"/>
<path d="M68.4408 210.883C68.5315 211.439 68.6967 211.98 68.9318 212.492C69.1653 212.99 69.4414 213.467 69.757 213.918C69.757 213.952 69.757 213.979 69.7025 213.959C68.9613 213.096 68.4873 212.037 68.3385 210.91C68.318 210.842 68.4271 210.808 68.4408 210.883Z" fill="#263238"/>
<path d="M55.5349 214.716C55.5349 214.716 49.3969 207.01 37.5711 209.744C26.3181 212.336 21.128 232.966 32.497 235.428C43.8659 237.891 41.8608 218.815 46.0006 215.575C49.0423 213.195 53.4071 213.707 55.5349 214.716Z" fill="#00CA00"/>
<path d="M27.4254 221.004C28.1969 220.328 29.0126 219.703 29.867 219.135C30.6715 218.589 31.5454 218.154 32.4654 217.839C32.9262 217.138 33.4416 216.475 34.0067 215.855C35.0501 214.73 36.2572 213.769 37.5872 213.004H37.2326C36.6056 212.97 35.9772 212.97 35.3503 213.004C34.0896 213.086 32.8537 213.393 31.7016 213.911C31.6334 213.911 31.5856 213.836 31.6538 213.809C32.8174 213.306 34.0347 212.937 35.2821 212.711C35.8919 212.601 36.5107 212.548 37.1303 212.554C37.4629 212.555 37.7953 212.573 38.126 212.608H38.317C39.4031 212.064 40.5469 211.643 41.727 211.354L41.3996 211.265C40.8207 211.139 40.2357 211.043 39.6469 210.978C38.4672 210.847 37.2755 210.865 36.1005 211.033C36.0323 211.033 36.0118 210.931 36.1005 210.924C37.2881 210.779 38.4854 210.729 39.681 210.774C40.6848 210.806 41.683 210.936 42.6613 211.163C43.3729 211.029 44.0931 210.947 44.8164 210.917C48.9084 210.74 53.4437 212.281 55.9808 215.691C58.5178 219.101 59.0225 223.616 59.4658 227.708C60.1597 233.414 60.3127 239.173 59.9227 244.908C59.9227 245.249 59.418 245.188 59.4112 244.867C59.2544 240.004 59.0839 235.135 58.6201 230.293C58.4019 228.049 58.1632 225.792 57.7881 223.568C57.5138 221.661 56.9623 219.805 56.1513 218.058C55.2743 216.261 53.8833 214.766 52.1548 213.761C50.4229 212.768 48.4914 212.174 46.501 212.022C44.7145 211.872 42.9156 212.04 41.1882 212.52C41.2507 212.864 41.2622 213.216 41.2223 213.563C41.1807 214.003 41.0939 214.437 40.9631 214.859C40.833 215.258 40.6663 215.644 40.4653 216.012C40.247 216.421 39.9742 216.782 39.7287 217.171C39.6878 217.232 39.5923 217.171 39.6332 217.11C40.118 216.412 40.4333 215.611 40.5539 214.77C40.6222 214.373 40.67 213.972 40.6972 213.57C40.6972 213.263 40.6972 212.956 40.6972 212.649C38.819 213.229 37.0657 214.154 35.5276 215.377C35.2412 215.609 34.9684 215.855 34.6956 216.107C35.0853 216.468 35.4228 216.881 35.6981 217.335C36.1007 217.929 36.4521 218.556 36.7484 219.21C37.295 220.519 37.6643 221.895 37.8464 223.302C37.8464 223.37 37.7441 223.391 37.7305 223.302C37.507 221.932 37.0454 220.612 36.3665 219.401C36.0563 218.8 35.7054 218.222 35.3162 217.669C35.1184 217.382 34.9138 217.103 34.6956 216.83C34.5796 216.68 34.45 216.53 34.3409 216.373C32.9502 217.736 31.8139 219.337 30.9855 221.099C31.54 221.689 32.0001 222.361 32.3495 223.091C32.7726 223.853 33.1417 224.644 33.4543 225.457C34.0529 227.049 34.5473 228.678 34.9343 230.334C34.9343 230.402 34.8388 230.422 34.8251 230.334C34.4681 228.678 33.9044 227.074 33.1474 225.56C32.7928 224.816 32.4177 224.087 32.0289 223.364C31.6166 222.705 31.2453 222.022 30.9173 221.318C30.1228 223.034 29.66 224.885 29.5533 226.774C29.5491 226.786 29.5413 226.796 29.5309 226.803C29.5205 226.811 29.508 226.815 29.4953 226.815C29.4826 226.815 29.4701 226.811 29.4597 226.803C29.4494 226.796 29.4415 226.786 29.4373 226.774C29.6556 223.801 30.5665 220.922 32.0971 218.365C31.3674 218.671 30.6445 218.965 29.9488 219.34C29.061 219.815 28.2342 220.397 27.4868 221.072C27.4459 221.14 27.3709 221.052 27.4254 221.004Z" fill="#263238"/>
<path d="M36.1074 221.468C36.4621 222.641 36.9122 223.773 37.2327 224.953C37.5583 226.084 37.7326 227.254 37.751 228.431H37.6965C37.3797 226.056 36.8104 223.722 35.9983 221.468C35.9983 221.453 36.004 221.439 36.0143 221.429C36.0245 221.419 36.0384 221.413 36.0529 221.413C36.0673 221.413 36.0812 221.419 36.0914 221.429C36.1017 221.439 36.1074 221.453 36.1074 221.468Z" fill="#263238"/>
<path d="M28.6121 218.542C29.0772 218.094 29.6057 217.717 30.1807 217.424C30.7655 217.158 31.3726 216.943 31.9948 216.783C32.063 216.783 32.0835 216.878 31.9948 216.892C31.3838 217.056 30.7969 217.299 30.2489 217.615C29.6875 217.902 29.1494 218.233 28.6394 218.604C28.6329 218.602 28.6268 218.6 28.6217 218.596C28.6165 218.591 28.6124 218.586 28.6097 218.58C28.607 218.574 28.6059 218.567 28.6063 218.561C28.6067 218.554 28.6087 218.548 28.6121 218.542Z" fill="#263238"/>
<path d="M48.7039 204.418C48.7039 204.418 47.5581 190.58 37.2804 186.092C28.6872 182.348 23.77 192.005 29.8466 197.918C34.757 202.699 42.6409 200.537 48.7039 204.418Z" fill="#00CA00"/>
<path d="M31.7493 188.773C33.3152 189.407 34.8432 190.131 36.3255 190.942C37.5564 191.656 38.743 192.444 39.8787 193.301C39.7082 192.954 39.5582 192.585 39.3877 192.244C39.1149 191.706 38.8284 191.187 38.5147 190.676C37.8805 189.628 37.1176 188.663 36.2436 187.805C36.1891 187.757 36.2777 187.675 36.3255 187.73C37.1881 188.589 37.9796 189.517 38.692 190.505C39.0465 191.011 39.3743 191.534 39.6741 192.074C39.973 192.572 40.2025 193.109 40.3561 193.67L40.472 193.752C42.2666 195.185 43.9117 196.796 45.3824 198.56C45.3824 198.423 45.3279 198.287 45.2938 198.164C45.1028 197.482 44.8914 196.8 44.6663 196.152C44.2316 194.743 43.6173 193.395 42.8386 192.142C42.7977 192.081 42.9 192.026 42.9341 192.087C43.7425 193.348 44.4626 194.663 45.0892 196.023C45.3669 196.687 45.5949 197.371 45.7712 198.069C45.9224 198.513 46.0343 198.969 46.1054 199.433C46.5555 199.999 46.9988 200.578 47.4148 201.165C51.8342 207.46 54.0507 215.064 54.5826 222.675C54.7371 224.945 54.7758 227.221 54.6986 229.495C54.6762 231.781 54.4733 234.061 54.0916 236.315C54.0916 236.458 53.8392 236.417 53.8461 236.274C53.8938 234.276 54.1052 232.285 54.1393 230.279C54.178 228.275 54.1143 226.269 53.9484 224.271C53.6257 220.276 52.8734 216.327 51.7046 212.493C50.5072 208.566 48.7427 204.834 46.4668 201.417C46.0372 201.329 45.6075 201.213 45.1778 201.104C44.7482 200.994 44.1548 200.838 43.6433 200.694C42.6624 200.441 41.7096 200.089 40.7994 199.644C40.7312 199.61 40.7994 199.508 40.8608 199.549C41.7669 200.042 42.7488 200.38 43.7661 200.551C44.5709 200.715 45.4097 200.817 46.2145 201.001C45.4713 199.913 44.6723 198.863 43.8207 197.857C41.8594 198.033 39.8826 197.885 37.9691 197.421C36.9497 197.174 35.9473 196.862 34.9683 196.486C33.9385 196.091 32.9632 195.579 31.947 195.122C31.872 195.122 31.947 194.972 31.9948 195.02C33.837 196.024 35.8483 196.681 37.9282 196.957C39.7644 197.251 41.6201 197.406 43.4797 197.421C42.7499 196.582 41.9929 195.763 41.1881 194.993C38.4601 192.422 35.2752 190.055 31.7152 188.855C31.647 188.862 31.6811 188.732 31.7493 188.773Z" fill="#263238"/>
<path d="M40.1242 188.814C40.5966 189.401 41.0295 190.018 41.42 190.662C41.7934 191.347 42.0863 192.072 42.2929 192.824C42.2929 192.824 42.2588 192.865 42.252 192.824C41.911 192.142 41.6178 191.46 41.2699 190.778C40.9275 190.114 40.516 189.487 40.0423 188.909C39.9946 188.841 40.056 188.732 40.1242 188.814Z" fill="#263238"/>
<path d="M56.7106 201.935C56.772 202.529 58.2655 196.909 66.9406 191.917C74.845 187.381 84.277 175.583 76.5295 168.135C70.296 162.134 53.8189 175.228 56.7106 201.935Z" fill="#00CA00"/>
<path d="M50.7158 234.18C50.8359 228.326 51.2913 222.483 52.0798 216.68C52.7651 211.339 53.9969 206.083 55.7558 200.994C56.4378 199.166 57.1198 197.366 57.9451 195.593C57.8914 194.912 57.8914 194.228 57.9451 193.547C57.986 192.66 58.0678 191.773 58.1496 190.887C58.2315 190 58.3202 189.121 58.4293 188.241C58.5384 187.361 58.7157 186.481 58.7566 185.601C58.7566 185.52 58.8862 185.54 58.8658 185.601C58.6924 186.527 58.5876 187.464 58.552 188.404C58.4975 189.273 58.4702 190.132 58.4702 190.982C58.4702 191.842 58.4702 192.701 58.4702 193.554C58.4702 193.86 58.4702 194.195 58.4702 194.522C59.2886 192.79 60.1706 191.094 61.1163 189.434C60.5298 185.826 61.2937 182.055 62.0302 178.522C62.0302 178.454 62.153 178.522 62.1393 178.556C61.7783 180.399 61.5866 182.271 61.5665 184.149C61.5324 185.629 61.5665 187.115 61.6074 188.595C61.812 188.241 62.0234 187.913 62.2348 187.531C63.3669 185.69 64.5741 183.883 65.8494 182.13C65.7494 181.273 65.7793 180.407 65.9381 179.559C66.0791 178.608 66.2888 177.669 66.5655 176.749C66.8452 175.828 67.1657 174.921 67.5271 174.021C67.8886 173.121 68.4069 172.241 68.7752 171.293C68.7752 171.218 68.9184 171.293 68.8775 171.341C68.4115 172.206 68.0454 173.121 67.7863 174.069C67.5041 174.964 67.2764 175.875 67.1043 176.797C66.9202 177.717 66.7633 178.631 66.6406 179.559C66.5519 180.173 66.4973 180.807 66.395 181.421C68.256 178.918 70.2911 176.551 72.4853 174.335C72.5399 174.28 72.6149 174.335 72.5671 174.417C69.2429 178.141 66.2746 182.169 63.7011 186.447C63.6056 186.611 63.517 186.774 63.4215 186.931C63.9057 186.631 64.4513 186.393 64.9015 186.147L67.4453 184.749L69.9073 183.385C70.3302 183.146 70.7462 182.901 71.1758 182.703C71.6904 182.475 72.1834 182.201 72.649 181.884C72.7172 181.837 72.7854 181.939 72.7172 181.98C71.8783 182.437 71.1349 183.119 70.3302 183.637C69.5254 184.156 68.6866 184.66 67.8477 185.131C66.2996 185.99 64.615 186.611 63.0737 187.504C62.0143 189.35 61.0391 191.244 60.1479 193.185C61.0686 192.592 62.0166 192.026 62.9714 191.494C63.592 191.146 64.2058 190.812 64.8333 190.478C65.4565 190.188 66.0465 189.831 66.5928 189.414C66.6037 189.404 66.618 189.399 66.6327 189.399C66.6474 189.4 66.6613 189.406 66.6712 189.417C66.6812 189.428 66.6864 189.442 66.6858 189.457C66.6851 189.472 66.6787 189.486 66.6678 189.496C65.6526 190.404 64.5304 191.185 63.326 191.821C62.2076 192.469 61.0823 193.103 59.916 193.669C58.9885 195.715 58.1428 197.761 57.3995 199.903C53.7371 210.269 52.3867 221.284 51.7457 232.216C51.5547 235.476 51.4524 238.736 51.4183 242.003C51.3842 245.27 51.5479 248.516 51.5411 251.776C51.5411 251.871 51.3842 251.892 51.3706 251.776C50.975 248.884 50.9068 245.945 50.7841 243.033C50.6613 240.12 50.6545 237.154 50.7158 234.18Z" fill="#263238"/>
<path d="M66.5246 187.225C68.1171 186.525 69.6638 185.726 71.1554 184.831C72.6669 183.982 74.1308 183.05 75.5407 182.042C75.5407 182.042 75.5952 182.042 75.5407 182.082C74.2063 183.164 72.798 184.151 71.3259 185.035C69.7834 185.895 68.189 186.658 66.5519 187.32C66.5178 187.368 66.4632 187.252 66.5246 187.225Z" fill="#263238"/>
<path d="M64.0079 175.501C64.1375 174.996 64.2943 174.499 64.4648 174.001C64.4606 173.998 64.4572 173.993 64.4548 173.989C64.4524 173.984 64.4512 173.979 64.4512 173.973C64.4512 173.968 64.4524 173.963 64.4548 173.958C64.4572 173.953 64.4606 173.949 64.4648 173.946C64.574 173.667 64.6899 173.387 64.8058 173.107C64.8058 173.073 64.8058 173.032 64.8468 173.005L64.9081 172.848L64.8263 173.141C64.8136 173.195 64.7976 173.247 64.7786 173.298C64.2064 175.226 63.7779 177.193 63.4964 179.184C63.4964 179.252 63.3873 179.252 63.3941 179.184C63.4805 177.94 63.6861 176.706 64.0079 175.501Z" fill="#263238"/>
<path d="M41.5222 236.281L42.1428 243.64L44.0456 266.091H64.4033L66.3061 243.64L66.9267 236.281H41.5222Z" fill="#455A64"/>
<path d="M41.5222 236.281L42.1428 243.64H66.3061L66.9267 236.281H41.5222Z" fill="#263238"/>
<path d="M39.524 240.386H68.925V233.328H39.524V240.386Z" fill="#455A64"/>
<path d="M222.689 43.207H119.298C116.499 43.234 113.825 44.3714 111.865 46.369C109.904 48.3666 108.817 51.061 108.842 53.8599V266.698C108.819 269.497 109.906 272.19 111.867 274.187C113.827 276.185 116.499 277.322 119.298 277.351H222.689C225.489 277.324 228.164 276.187 230.126 274.19C232.089 272.193 233.179 269.499 233.157 266.698V53.8599C233.181 51.0592 232.092 48.3638 230.128 46.3662C228.165 44.3686 225.489 43.2322 222.689 43.207ZM226.617 260.117C226.617 265.723 222.423 270.252 217.253 270.252H124.754C119.57 270.252 115.376 265.723 115.376 260.117V61.9279C115.376 50.5181 119.57 49.9588 124.754 49.9588H143.283C144.354 49.9588 145.234 51.1864 145.234 52.6868V53.3688C145.234 56.922 147.185 56.9357 149.572 56.9357H192.422C194.829 56.9357 196.759 56.9357 196.759 53.3688V52.6868C196.759 51.1728 197.625 49.9588 198.716 49.9588H217.253C222.423 49.9588 226.617 51.4797 226.617 61.9279V260.117Z" fill="#263238"/>
<path d="M176.838 52.4825H165.155C165.06 52.4834 164.966 52.4653 164.878 52.4293C164.789 52.3933 164.709 52.3401 164.642 52.2728C164.575 52.2054 164.522 52.1254 164.486 52.0373C164.45 51.9491 164.431 51.8547 164.432 51.7595C164.432 51.5678 164.509 51.3839 164.644 51.2484C164.78 51.1128 164.964 51.0366 165.155 51.0366H176.838C177.03 51.0366 177.214 51.1128 177.349 51.2484C177.485 51.3839 177.561 51.5678 177.561 51.7595C177.562 51.8547 177.544 51.9491 177.508 52.0373C177.472 52.1254 177.419 52.2054 177.351 52.2728C177.284 52.3401 177.204 52.3933 177.116 52.4293C177.028 52.4653 176.933 52.4834 176.838 52.4825Z" fill="white"/>
<path d="M226.617 61.9281V260.117C226.617 265.723 222.423 270.252 217.253 270.252H124.753C119.57 270.252 115.376 265.723 115.376 260.117V61.9281C115.376 50.5182 119.57 49.959 124.753 49.959H143.283C144.354 49.959 145.234 51.1866 145.234 52.687V53.369C145.234 56.9222 147.184 56.9358 149.571 56.9358H192.422C194.829 56.9358 196.759 56.9358 196.759 53.369V52.687C196.759 51.1729 197.625 49.959 198.716 49.959H217.253C222.423 49.959 226.617 51.4798 226.617 61.9281Z" fill="white"/>
<path d="M140.085 54.4122L139.908 54.5895L139.805 54.6918C139.343 54.245 138.723 53.9997 138.08 54.0098C137.761 54.0033 137.445 54.0603 137.149 54.1774C136.852 54.2945 136.582 54.4693 136.354 54.6918L136.252 54.5963L136.082 54.419L136.307 54.2144C136.467 54.0833 136.643 53.9733 136.832 53.887C137.047 53.7776 137.277 53.6973 137.514 53.6483C137.63 53.6483 137.746 53.6483 137.862 53.6074H138.168H138.4C138.619 53.6362 138.834 53.6888 139.041 53.7643C139.19 53.8191 139.333 53.8852 139.471 53.9621C139.613 54.0497 139.749 54.1453 139.88 54.2485L140.071 54.419L140.085 54.4122Z" fill="#A6A6A6"/>
<path d="M136.9 55.2581L136.614 54.9717C136.929 54.6503 137.341 54.4417 137.787 54.3784C138.1 54.3295 138.421 54.3559 138.722 54.4555C139.023 54.5552 139.296 54.7251 139.519 54.9512L139.232 55.2309C139.081 55.0785 138.901 54.9575 138.702 54.875C138.504 54.7925 138.291 54.75 138.076 54.75C137.862 54.75 137.649 54.7925 137.45 54.875C137.252 54.9575 137.072 55.0785 136.92 55.2309L136.9 55.2581Z" fill="#A6A6A6"/>
<path d="M138.946 55.5373L138.666 55.817C138.588 55.739 138.496 55.6772 138.394 55.635C138.292 55.5928 138.183 55.5711 138.073 55.5711C137.963 55.5711 137.854 55.5928 137.752 55.635C137.65 55.6772 137.557 55.739 137.48 55.817L137.2 55.5373C137.314 55.4219 137.45 55.3302 137.6 55.2676C137.75 55.2051 137.911 55.1729 138.073 55.1729C138.235 55.1729 138.396 55.2051 138.546 55.2676C138.696 55.3302 138.832 55.4219 138.946 55.5373Z" fill="#A6A6A6"/>
<path d="M138.332 56.0765C138.322 56.1371 138.291 56.1923 138.244 56.2321C138.197 56.2719 138.138 56.2937 138.076 56.2937C138.015 56.2937 137.955 56.2719 137.909 56.2321C137.862 56.1923 137.83 56.1371 137.821 56.0765C137.814 56.0394 137.817 56.0014 137.827 55.9652C137.837 55.929 137.854 55.8954 137.879 55.8668C137.903 55.8381 137.933 55.8151 137.967 55.7993C138.002 55.7836 138.039 55.7754 138.076 55.7754C138.114 55.7754 138.151 55.7836 138.185 55.7993C138.219 55.8151 138.249 55.8381 138.274 55.8668C138.298 55.8954 138.316 55.929 138.326 55.9652C138.336 56.0014 138.338 56.0394 138.332 56.0765Z" fill="#A6A6A6"/>
<path d="M123.362 55.688C123.769 55.688 124.099 55.3582 124.099 54.9514C124.099 54.5446 123.769 54.2148 123.362 54.2148C122.955 54.2148 122.626 54.5446 122.626 54.9514C122.626 55.3582 122.955 55.688 123.362 55.688Z" fill="#A6A6A6"/>
<path d="M124.951 54.9514C124.951 54.8057 124.995 54.6633 125.076 54.5422C125.156 54.4211 125.272 54.3267 125.406 54.2709C125.541 54.2152 125.689 54.2006 125.832 54.229C125.975 54.2574 126.106 54.3276 126.209 54.4306C126.312 54.5336 126.382 54.6648 126.41 54.8077C126.439 54.9506 126.424 55.0987 126.368 55.2333C126.313 55.3679 126.218 55.4829 126.097 55.5638C125.976 55.6448 125.834 55.688 125.688 55.688C125.493 55.688 125.305 55.6104 125.167 55.4722C125.029 55.3341 124.951 55.1467 124.951 54.9514Z" fill="#A6A6A6"/>
<path d="M128.007 55.688C128.414 55.688 128.743 55.3582 128.743 54.9514C128.743 54.5446 128.414 54.2148 128.007 54.2148C127.6 54.2148 127.27 54.5446 127.27 54.9514C127.27 55.3582 127.6 55.688 128.007 55.688Z" fill="#A6A6A6"/>
<path d="M129.596 54.9514C129.596 54.8057 129.639 54.6633 129.72 54.5422C129.801 54.4211 129.916 54.3267 130.05 54.2709C130.185 54.2152 130.333 54.2006 130.476 54.229C130.619 54.2574 130.75 54.3276 130.853 54.4306C130.956 54.5336 131.026 54.6648 131.055 54.8077C131.083 54.9506 131.069 55.0987 131.013 55.2333C130.957 55.3679 130.863 55.4829 130.741 55.5638C130.62 55.6448 130.478 55.688 130.332 55.688C130.137 55.688 129.95 55.6104 129.811 55.4722C129.673 55.3341 129.596 55.1467 129.596 54.9514Z" fill="#A6A6A6"/>
<path d="M131.915 54.9514C131.915 54.8547 131.934 54.7589 131.971 54.6695C132.008 54.5802 132.062 54.499 132.13 54.4306C132.199 54.3622 132.28 54.3079 132.369 54.2709C132.459 54.2339 132.554 54.2148 132.651 54.2148C132.748 54.2148 132.844 54.2339 132.933 54.2709C133.022 54.3079 133.104 54.3622 133.172 54.4306C133.24 54.499 133.295 54.5802 133.332 54.6695C133.369 54.7589 133.388 54.8547 133.388 54.9514C133.388 55.0481 133.369 55.1439 133.332 55.2333C133.295 55.3226 133.24 55.4038 133.172 55.4722C133.104 55.5406 133.022 55.5949 132.933 55.6319C132.844 55.6689 132.748 55.688 132.651 55.688C132.554 55.688 132.459 55.6689 132.369 55.6319C132.28 55.5949 132.199 55.5406 132.13 55.4722C132.062 55.4038 132.008 55.3226 131.971 55.2333C131.934 55.1439 131.915 55.0481 131.915 54.9514Z" fill="#A6A6A6"/>
<path d="M218.119 53.9351H212.425V56.4107H218.119V53.9351Z" fill="#A6A6A6"/>
<path d="M218.29 56.5808H212.254V53.7642H218.29V56.5808ZM212.595 56.2398H217.949V54.1052H212.602L212.595 56.2398Z" fill="white"/>
<path d="M216.639 54.2559H212.772V56.0904H216.639V54.2559Z" fill="#A6A6A6"/>
<path d="M218.808 54.4263H218.276V55.913H218.808V54.4263Z" fill="#A6A6A6"/>
<path d="M194.27 264.121H147.723C147.458 264.142 147.211 264.262 147.031 264.457C146.851 264.653 146.751 264.909 146.751 265.174C146.751 265.44 146.851 265.696 147.031 265.891C147.211 266.086 147.458 266.207 147.723 266.228H194.27C194.415 266.24 194.562 266.221 194.7 266.174C194.838 266.126 194.964 266.05 195.071 265.951C195.179 265.852 195.264 265.732 195.323 265.598C195.381 265.465 195.412 265.32 195.412 265.174C195.412 265.028 195.381 264.884 195.323 264.75C195.264 264.617 195.179 264.496 195.071 264.397C194.964 264.298 194.838 264.223 194.7 264.175C194.562 264.127 194.415 264.109 194.27 264.121Z" fill="#A6A6A6"/>
<path d="M178.391 155.235C182.474 151.152 182.474 144.532 178.391 140.449C174.308 136.366 167.688 136.366 163.605 140.449C159.522 144.532 159.522 151.152 163.605 155.235C167.688 159.318 174.308 159.318 178.391 155.235Z" fill="#455A64"/>
<path d="M168.095 142.622C167.897 142.623 167.703 142.683 167.539 142.794C167.376 142.905 167.248 143.062 167.173 143.246C167.098 143.429 167.08 143.63 167.119 143.824C167.158 144.018 167.254 144.196 167.395 144.336C167.535 144.475 167.714 144.57 167.908 144.608C168.103 144.647 168.304 144.626 168.487 144.55C168.669 144.474 168.826 144.346 168.935 144.181C169.045 144.016 169.104 143.823 169.104 143.625C169.104 143.492 169.078 143.361 169.027 143.239C168.976 143.117 168.902 143.006 168.808 142.913C168.714 142.82 168.603 142.746 168.48 142.696C168.358 142.646 168.227 142.621 168.095 142.622Z" fill="white"/>
<path d="M171 142.622C170.802 142.622 170.608 142.681 170.443 142.791C170.278 142.901 170.15 143.058 170.074 143.241C169.998 143.424 169.978 143.626 170.017 143.82C170.055 144.015 170.151 144.193 170.291 144.334C170.431 144.474 170.61 144.569 170.804 144.608C170.999 144.647 171.2 144.627 171.384 144.551C171.567 144.475 171.723 144.346 171.833 144.182C171.944 144.017 172.002 143.823 172.002 143.625C172.002 143.359 171.897 143.104 171.709 142.916C171.521 142.728 171.266 142.622 171 142.622Z" fill="white"/>
<path d="M173.899 144.627C174.097 144.626 174.29 144.566 174.454 144.455C174.618 144.344 174.745 144.187 174.82 144.004C174.895 143.82 174.914 143.619 174.874 143.425C174.835 143.231 174.739 143.053 174.598 142.913C174.458 142.774 174.279 142.679 174.085 142.641C173.891 142.603 173.689 142.623 173.506 142.699C173.324 142.775 173.168 142.904 173.058 143.068C172.948 143.233 172.889 143.427 172.889 143.625C172.889 143.757 172.915 143.888 172.966 144.01C173.017 144.132 173.091 144.243 173.185 144.336C173.279 144.429 173.39 144.503 173.513 144.553C173.635 144.603 173.766 144.628 173.899 144.627Z" fill="white"/>
<path d="M168.095 145.432C167.895 145.432 167.7 145.491 167.534 145.602C167.368 145.713 167.238 145.871 167.162 146.055C167.086 146.24 167.066 146.443 167.105 146.638C167.144 146.834 167.24 147.014 167.381 147.155C167.522 147.296 167.702 147.393 167.898 147.431C168.093 147.47 168.296 147.45 168.481 147.374C168.665 147.298 168.823 147.168 168.934 147.002C169.045 146.836 169.104 146.641 169.104 146.442C169.105 146.309 169.079 146.177 169.029 146.054C168.979 145.931 168.904 145.82 168.81 145.726C168.716 145.632 168.605 145.558 168.482 145.507C168.359 145.457 168.227 145.431 168.095 145.432Z" fill="white"/>
<path d="M171 145.432C170.8 145.431 170.604 145.489 170.437 145.599C170.271 145.709 170.14 145.866 170.063 146.051C169.985 146.235 169.964 146.438 170.002 146.634C170.041 146.83 170.136 147.011 170.277 147.153C170.418 147.295 170.598 147.391 170.794 147.431C170.99 147.47 171.193 147.451 171.378 147.375C171.563 147.298 171.721 147.169 171.832 147.003C171.943 146.837 172.003 146.641 172.003 146.442C172.003 146.175 171.897 145.919 171.709 145.73C171.522 145.541 171.267 145.434 171 145.432Z" fill="white"/>
<path d="M173.899 145.432C173.699 145.431 173.503 145.489 173.336 145.599C173.169 145.709 173.039 145.866 172.961 146.051C172.884 146.235 172.863 146.438 172.901 146.634C172.939 146.83 173.035 147.011 173.176 147.153C173.316 147.295 173.496 147.391 173.692 147.431C173.888 147.47 174.092 147.451 174.276 147.375C174.461 147.298 174.619 147.169 174.73 147.003C174.842 146.837 174.901 146.641 174.901 146.442C174.901 146.175 174.796 145.919 174.608 145.73C174.42 145.541 174.165 145.434 173.899 145.432Z" fill="white"/>
<path d="M168.095 148.249C167.895 148.249 167.7 148.308 167.534 148.419C167.368 148.53 167.238 148.687 167.162 148.872C167.086 149.056 167.066 149.259 167.105 149.455C167.144 149.651 167.24 149.83 167.381 149.972C167.522 150.113 167.702 150.209 167.898 150.248C168.093 150.287 168.296 150.267 168.481 150.19C168.665 150.114 168.823 149.985 168.934 149.819C169.045 149.653 169.104 149.458 169.104 149.258C169.105 149.125 169.079 148.993 169.029 148.871C168.979 148.748 168.904 148.636 168.81 148.542C168.716 148.448 168.605 148.374 168.482 148.324C168.359 148.273 168.227 148.248 168.095 148.249Z" fill="white"/>
<path d="M171 148.249C170.8 148.247 170.604 148.305 170.437 148.415C170.271 148.525 170.14 148.683 170.063 148.867C169.985 149.051 169.964 149.254 170.002 149.451C170.041 149.647 170.136 149.827 170.277 149.969C170.418 150.111 170.598 150.208 170.794 150.247C170.99 150.287 171.193 150.267 171.378 150.191C171.563 150.115 171.721 149.986 171.832 149.819C171.943 149.653 172.003 149.458 172.003 149.258C172.003 148.991 171.897 148.736 171.709 148.547C171.522 148.357 171.267 148.25 171 148.249Z" fill="white"/>
<path d="M173.899 148.249C173.699 148.247 173.503 148.305 173.336 148.415C173.169 148.525 173.039 148.683 172.961 148.867C172.884 149.051 172.863 149.254 172.901 149.451C172.939 149.647 173.035 149.827 173.176 149.969C173.316 150.111 173.496 150.208 173.692 150.247C173.888 150.287 174.092 150.267 174.276 150.191C174.461 150.115 174.619 149.986 174.73 149.819C174.842 149.653 174.901 149.458 174.901 149.258C174.901 148.991 174.796 148.736 174.608 148.547C174.42 148.357 174.165 148.25 173.899 148.249Z" fill="white"/>
<path d="M171 151.065C170.8 151.064 170.604 151.122 170.437 151.233C170.27 151.343 170.139 151.501 170.062 151.685C169.985 151.87 169.964 152.074 170.003 152.27C170.042 152.466 170.138 152.647 170.28 152.789C170.421 152.93 170.602 153.026 170.798 153.065C170.994 153.104 171.198 153.083 171.383 153.006C171.567 152.929 171.725 152.798 171.835 152.631C171.946 152.464 172.004 152.268 172.003 152.068C172.003 151.802 171.897 151.547 171.709 151.359C171.521 151.171 171.266 151.065 171 151.065Z" fill="white"/>
<path d="M200.592 188.739C206.366 188.739 211.047 184.058 211.047 178.284C211.047 172.51 206.366 167.829 200.592 167.829C194.818 167.829 190.137 172.51 190.137 178.284C190.137 184.058 194.818 188.739 200.592 188.739Z" fill="#455A64"/>
<path d="M202.836 175.297C202.836 175.741 202.704 176.175 202.458 176.544C202.211 176.913 201.861 177.2 201.451 177.37C201.041 177.54 200.589 177.584 200.154 177.498C199.719 177.411 199.319 177.197 199.005 176.884C198.692 176.57 198.478 176.17 198.391 175.735C198.305 175.299 198.349 174.848 198.519 174.438C198.689 174.028 198.976 173.678 199.345 173.431C199.714 173.185 200.148 173.053 200.592 173.053C201.187 173.053 201.758 173.29 202.179 173.71C202.599 174.131 202.836 174.702 202.836 175.297Z" fill="white"/>
<path d="M204.473 181.489V182.417C203.814 182.823 203.096 183.124 202.345 183.31C201.393 183.543 200.405 183.583 199.438 183.43C198.471 183.277 197.544 182.932 196.711 182.417V181.489C196.711 180.46 197.12 179.473 197.848 178.745C198.576 178.018 199.563 177.609 200.592 177.609C201.621 177.609 202.608 178.018 203.336 178.745C204.064 179.473 204.473 180.46 204.473 181.489Z" fill="white"/>
<path d="M148.793 155.241C152.876 151.158 152.876 144.538 148.793 140.455C144.71 136.372 138.09 136.372 134.007 140.455C129.924 144.538 129.924 151.158 134.007 155.241C138.09 159.323 144.71 159.323 148.793 155.241Z" fill="#455A64"/>
<path d="M141.408 153.691C141.345 153.691 141.284 153.666 141.239 153.621C141.194 153.576 141.169 153.516 141.169 153.452V150.67C141.169 150.607 141.194 150.546 141.239 150.501C141.284 150.456 141.345 150.431 141.408 150.431C141.471 150.431 141.532 150.456 141.577 150.501C141.621 150.546 141.647 150.607 141.647 150.67V153.452C141.647 153.516 141.621 153.576 141.577 153.621C141.532 153.666 141.471 153.691 141.408 153.691Z" fill="white"/>
<path d="M142.929 153.691H139.88C139.817 153.691 139.756 153.666 139.712 153.621C139.667 153.577 139.642 153.516 139.642 153.453C139.642 153.389 139.667 153.329 139.712 153.284C139.756 153.239 139.817 153.214 139.88 153.214H142.929C142.992 153.214 143.053 153.239 143.098 153.284C143.142 153.329 143.168 153.389 143.168 153.453C143.168 153.516 143.142 153.577 143.098 153.621C143.053 153.666 142.992 153.691 142.929 153.691Z" fill="white"/>
<path d="M143.365 143.966V148.01C143.381 148.278 143.342 148.545 143.251 148.797C143.159 149.048 143.017 149.279 142.834 149.473C142.65 149.668 142.429 149.823 142.183 149.929C141.937 150.036 141.672 150.09 141.405 150.09C141.137 150.09 140.872 150.036 140.626 149.929C140.381 149.823 140.159 149.668 139.975 149.473C139.792 149.279 139.65 149.048 139.559 148.797C139.467 148.545 139.428 148.278 139.444 148.01V143.966C139.431 143.447 139.625 142.944 139.983 142.568C140.341 142.192 140.834 141.974 141.353 141.961C141.873 141.948 142.375 142.142 142.751 142.501C143.127 142.859 143.346 143.352 143.359 143.871C143.364 143.902 143.367 143.934 143.365 143.966Z" fill="white"/>
<path d="M141.401 150.902C141.027 150.902 140.657 150.83 140.312 150.687C139.966 150.544 139.652 150.335 139.388 150.071C139.124 149.806 138.914 149.492 138.772 149.147C138.629 148.802 138.556 148.431 138.557 148.058V146.353C138.551 146.318 138.553 146.283 138.562 146.25C138.571 146.216 138.588 146.185 138.61 146.159C138.632 146.132 138.66 146.111 138.692 146.096C138.723 146.081 138.758 146.074 138.792 146.074C138.827 146.074 138.861 146.081 138.893 146.096C138.925 146.111 138.952 146.132 138.975 146.159C138.997 146.185 139.014 146.216 139.023 146.25C139.032 146.283 139.034 146.318 139.028 146.353V148.058C139.029 148.378 139.095 148.694 139.222 148.989C139.349 149.283 139.534 149.548 139.766 149.769C139.997 149.99 140.271 150.162 140.571 150.274C140.871 150.387 141.19 150.438 141.51 150.424C142.128 150.381 142.707 150.103 143.127 149.648C143.548 149.194 143.779 148.595 143.774 147.976V146.353C143.774 146.289 143.8 146.229 143.844 146.184C143.889 146.139 143.95 146.114 144.013 146.114C144.076 146.114 144.137 146.139 144.182 146.184C144.227 146.229 144.252 146.289 144.252 146.353V147.976C144.264 148.722 143.986 149.443 143.477 149.988C142.969 150.534 142.269 150.861 141.524 150.902H141.401Z" fill="white"/>
<path d="M171 188.739C176.774 188.739 181.455 184.058 181.455 178.284C181.455 172.51 176.774 167.829 171 167.829C165.226 167.829 160.545 172.51 160.545 178.284C160.545 184.058 165.226 188.739 171 188.739Z" fill="#455A64"/>
<path d="M177.09 176.961V179.621C177.085 179.73 177.056 179.836 177.005 179.933C176.954 180.029 176.882 180.113 176.795 180.178C176.707 180.244 176.607 180.289 176.5 180.31C176.393 180.332 176.282 180.329 176.176 180.303L174.99 180.003L174.41 179.866V176.695L175.992 176.293L176.204 176.238C176.311 176.216 176.422 176.218 176.528 176.244C176.635 176.27 176.734 176.319 176.819 176.388C176.904 176.458 176.972 176.545 177.019 176.644C177.066 176.743 177.09 176.851 177.09 176.961Z" fill="white"/>
<path d="M172.425 175.024H167.829C167.087 175.024 166.485 175.625 166.485 176.367V180.207C166.485 180.949 167.087 181.551 167.829 181.551H172.425C173.167 181.551 173.769 180.949 173.769 180.207V176.367C173.769 175.625 173.167 175.024 172.425 175.024Z" fill="white"/>
<path d="M141.401 188.739C147.175 188.739 151.856 184.058 151.856 178.284C151.856 172.51 147.175 167.829 141.401 167.829C135.627 167.829 130.946 172.51 130.946 178.284C130.946 184.058 135.627 188.739 141.401 188.739Z" fill="#455A64"/>
<path d="M145.391 177.65H142.035V174.301C142.035 174.133 141.969 173.972 141.85 173.853C141.731 173.734 141.569 173.667 141.401 173.667C141.233 173.667 141.072 173.734 140.953 173.853C140.834 173.972 140.767 174.133 140.767 174.301V177.65H137.418C137.329 177.641 137.239 177.65 137.153 177.678C137.068 177.706 136.99 177.751 136.923 177.811C136.856 177.872 136.803 177.945 136.767 178.027C136.73 178.109 136.711 178.198 136.711 178.288C136.711 178.377 136.73 178.466 136.767 178.548C136.803 178.63 136.856 178.704 136.923 178.764C136.99 178.824 137.068 178.869 137.153 178.897C137.239 178.925 137.329 178.934 137.418 178.925H140.767V182.274C140.767 182.442 140.834 182.603 140.953 182.722C141.072 182.841 141.233 182.908 141.401 182.908C141.569 182.908 141.731 182.841 141.85 182.722C141.969 182.603 142.035 182.442 142.035 182.274V178.925H145.391C145.549 178.909 145.695 178.835 145.801 178.717C145.907 178.599 145.966 178.446 145.966 178.288C145.966 178.129 145.907 177.976 145.801 177.858C145.695 177.74 145.549 177.666 145.391 177.65Z" fill="white"/>
<path d="M207.984 155.241C212.067 151.158 212.067 144.538 207.984 140.455C203.901 136.372 197.281 136.372 193.198 140.455C189.115 144.538 189.115 151.158 193.198 155.241C197.281 159.324 203.901 159.324 207.984 155.241Z" fill="#455A64"/>
<path d="M205.782 147.396C205.782 147.157 205.727 146.912 205.687 146.673C205.591 146.168 205.426 145.68 205.196 145.22C205.011 144.829 204.782 144.461 204.514 144.122L204.098 143.652L203.729 144.02L203.518 144.218C203.994 144.691 204.371 145.254 204.629 145.874C204.886 146.493 205.019 147.158 205.019 147.829C205.019 148.5 204.886 149.165 204.629 149.784C204.371 150.404 203.994 150.967 203.518 151.44L203.729 151.652L204.104 152.027C204.227 151.897 204.35 151.768 204.466 151.631C204.691 151.363 204.892 151.076 205.066 150.772C205.231 150.484 205.373 150.183 205.489 149.872C205.648 149.443 205.753 148.996 205.803 148.542C205.803 148.378 205.803 148.208 205.843 148.044C205.782 148.017 205.782 147.478 205.782 147.396Z" fill="white"/>
<path d="M204.063 147.212C203.937 146.299 203.512 145.453 202.856 144.805L202.27 145.398C202.588 145.716 202.841 146.093 203.013 146.508C203.185 146.924 203.273 147.369 203.272 147.819C203.276 148.269 203.189 148.715 203.017 149.131C202.844 149.547 202.59 149.924 202.27 150.24L202.863 150.834C203.333 150.366 203.686 149.795 203.895 149.166C204.103 148.537 204.161 147.868 204.063 147.212Z" fill="white"/>
<path d="M201.69 145.991L201.104 146.578C201.269 146.739 201.4 146.933 201.489 147.146C201.578 147.359 201.623 147.588 201.622 147.819C201.623 148.049 201.578 148.278 201.49 148.491C201.402 148.704 201.273 148.897 201.11 149.06L201.697 149.647C201.939 149.408 202.131 149.123 202.262 148.809C202.393 148.495 202.46 148.158 202.459 147.818C202.459 147.477 202.39 147.141 202.258 146.827C202.126 146.514 201.933 146.229 201.69 145.991Z" fill="white"/>
<path d="M197.148 146.142H195.416V149.497H197.148V146.142Z" fill="white"/>
<path d="M197.148 146.141L200.34 144.798V150.84L197.148 149.497V146.141Z" fill="white"/>
<path d="M171 241.062C177.814 241.062 183.337 235.539 183.337 228.725C183.337 221.911 177.814 216.388 171 216.388C164.186 216.388 158.663 221.911 158.663 228.725C158.663 235.539 164.186 241.062 171 241.062Z" fill="#3398DB"/>
<path d="M178.004 228.8C177.951 228.603 177.887 228.41 177.813 228.22C177.715 228.033 177.603 227.853 177.479 227.681L177.029 227.231C176.838 227.095 176.661 226.952 176.463 226.829C175.727 226.357 174.903 226.037 174.042 225.888C172.029 225.485 169.957 225.485 167.945 225.888C167.074 226.039 166.242 226.362 165.496 226.836C165.305 226.965 165.128 227.102 164.951 227.231L164.48 227.695L164.269 228.016C164.106 228.256 164.014 228.537 164.003 228.827H167.972C168 228.829 168.028 228.821 168.052 228.805C168.075 228.789 168.093 228.765 168.102 228.738C168.211 228.528 168.374 228.35 168.574 228.222C168.774 228.094 169.004 228.021 169.24 228.009C170.399 227.934 171.56 227.934 172.719 228.009C172.956 228.015 173.188 228.085 173.388 228.212C173.589 228.34 173.751 228.519 173.858 228.732C173.871 228.761 173.893 228.786 173.921 228.803C173.949 228.82 173.982 228.829 174.014 228.827H177.868L178.004 228.8Z" fill="white"/>
<path d="M163.996 229.652V231.105C163.987 231.172 163.993 231.239 164.015 231.303C164.036 231.367 164.072 231.425 164.12 231.472C164.167 231.52 164.225 231.556 164.289 231.577C164.352 231.599 164.42 231.605 164.487 231.596H167.433C167.501 231.605 167.57 231.598 167.636 231.576C167.701 231.554 167.76 231.517 167.808 231.468C167.856 231.419 167.892 231.36 167.914 231.294C167.935 231.229 167.941 231.159 167.931 231.091V229.939C167.931 229.836 167.931 229.734 167.931 229.646L163.996 229.652Z" fill="white"/>
<path d="M177.97 229.604H174.076C174.076 230.096 174.076 230.587 174.076 231.084C174.07 231.148 174.079 231.212 174.101 231.271C174.124 231.331 174.159 231.385 174.204 231.43C174.25 231.474 174.305 231.508 174.365 231.528C174.426 231.549 174.49 231.556 174.553 231.548H177.527C177.592 231.556 177.657 231.549 177.719 231.527C177.781 231.506 177.837 231.471 177.883 231.425C177.93 231.38 177.965 231.324 177.987 231.263C178.009 231.201 178.017 231.136 178.011 231.071C178.011 230.607 178.011 230.15 178.011 229.707L177.97 229.604Z" fill="white"/>
<path d="M161.07 77.5662C161.079 77.091 161.274 76.6382 161.613 76.3054C161.953 75.9725 162.409 75.7861 162.884 75.7861C163.295 75.7851 163.696 75.9193 164.023 76.1681C164.079 76.2159 164.116 76.2832 164.124 76.3565C164.133 76.4298 164.114 76.5038 164.071 76.5636C164.025 76.6224 163.958 76.661 163.884 76.6712C163.81 76.6814 163.735 76.6624 163.675 76.6182C163.451 76.4393 163.171 76.3452 162.884 76.3522C162.552 76.3529 162.233 76.4796 161.991 76.7068C161.876 76.8187 161.785 76.9523 161.723 77.0999C161.661 77.2475 161.629 77.406 161.629 77.5662C161.629 77.7263 161.661 77.8849 161.723 78.0324C161.785 78.18 161.876 78.3137 161.991 78.4255C162.233 78.6527 162.552 78.7794 162.884 78.7801C163.172 78.7852 163.452 78.6886 163.675 78.5073C163.737 78.4677 163.811 78.4515 163.883 78.4615C163.956 78.4715 164.022 78.5071 164.071 78.5619C164.114 78.6217 164.133 78.6957 164.124 78.769C164.116 78.8423 164.079 78.9096 164.023 78.9574C163.696 79.2062 163.295 79.3404 162.884 79.3394C162.41 79.3412 161.953 79.1563 161.614 78.8245C161.274 78.4927 161.079 78.0407 161.07 77.5662Z" fill="#C7C7C7"/>
<path d="M167.065 78.1392V79.1077C167.065 79.1764 167.037 79.2423 166.989 79.2909C166.94 79.3395 166.874 79.3668 166.806 79.3668C166.745 79.3665 166.686 79.3454 166.639 79.3069C166.591 79.2685 166.559 79.215 166.546 79.1554C166.349 79.2994 166.109 79.3738 165.864 79.3668C165.708 79.3682 165.553 79.3374 165.408 79.2764C165.264 79.2154 165.134 79.1255 165.026 79.0122C164.804 78.7758 164.682 78.4632 164.685 78.1392C164.681 77.9795 164.71 77.8206 164.768 77.6719C164.827 77.5233 164.914 77.3877 165.026 77.2731C165.131 77.1544 165.26 77.0595 165.404 76.9948C165.549 76.9301 165.706 76.8971 165.864 76.898C166.109 76.8969 166.348 76.9733 166.546 77.1162C166.559 77.0559 166.591 77.0016 166.638 76.962C166.685 76.9224 166.744 76.8998 166.806 76.898C166.875 76.8997 166.941 76.9286 166.989 76.9782C167.038 77.0279 167.065 77.0946 167.065 77.164V78.1392ZM166.54 78.1392C166.541 77.951 166.473 77.7689 166.349 77.6277C166.289 77.5652 166.218 77.5154 166.139 77.4813C166.06 77.4473 165.974 77.4298 165.888 77.4298C165.802 77.4298 165.717 77.4473 165.638 77.4813C165.559 77.5154 165.487 77.5652 165.428 77.6277C165.309 77.7718 165.244 77.9526 165.244 78.1392C165.244 78.3258 165.309 78.5066 165.428 78.6507C165.554 78.7657 165.718 78.8295 165.888 78.8295C166.059 78.8295 166.223 78.7657 166.349 78.6507C166.473 78.5096 166.541 78.3274 166.54 78.1392Z" fill="#C7C7C7"/>
<path d="M168.408 75.9092C168.48 75.9109 168.549 75.9402 168.599 75.991C168.65 76.0418 168.679 76.1102 168.681 76.182V79.1009C168.681 79.1733 168.652 79.2427 168.601 79.2938C168.55 79.345 168.481 79.3737 168.408 79.3737C168.336 79.3737 168.267 79.345 168.215 79.2938C168.164 79.2427 168.136 79.1733 168.136 79.1009V76.2024C168.134 76.1652 168.139 76.1279 168.152 76.0928C168.165 76.0578 168.185 76.0256 168.21 75.9983C168.236 75.9709 168.266 75.949 168.3 75.9337C168.334 75.9184 168.371 75.91 168.408 75.9092Z" fill="#C7C7C7"/>
<path d="M169.636 75.9092C169.709 75.9092 169.779 75.9377 169.831 75.9887C169.884 76.0396 169.914 76.109 169.916 76.182V79.1009C169.905 79.1667 169.872 79.2267 169.821 79.27C169.77 79.3132 169.706 79.337 169.639 79.337C169.573 79.337 169.508 79.3132 169.458 79.27C169.407 79.2267 169.374 79.1667 169.363 79.1009V76.2024C169.361 76.1652 169.367 76.1279 169.38 76.0928C169.393 76.0578 169.412 76.0256 169.438 75.9983C169.463 75.9709 169.494 75.949 169.528 75.9337C169.562 75.9184 169.599 75.91 169.636 75.9092Z" fill="#C7C7C7"/>
<path d="M171.102 76.2839C171.103 76.32 171.097 76.3559 171.083 76.3894C171.07 76.4229 171.05 76.4534 171.024 76.4789C170.999 76.5044 170.968 76.5245 170.935 76.5379C170.901 76.5513 170.866 76.5577 170.829 76.5567C170.758 76.5549 170.691 76.5254 170.641 76.4745C170.591 76.4235 170.563 76.3551 170.563 76.2839V76.2021C170.563 76.1309 170.591 76.0625 170.641 76.0116C170.691 75.9606 170.758 75.9311 170.829 75.9293C170.866 75.9284 170.901 75.9348 170.935 75.9481C170.968 75.9615 170.999 75.9816 171.024 76.0071C171.05 76.0326 171.07 76.0631 171.083 76.0966C171.097 76.1301 171.103 76.166 171.102 76.2021V76.2839ZM171.102 77.1774V79.1006C171.092 79.1647 171.059 79.223 171.01 79.2651C170.961 79.3073 170.898 79.3304 170.833 79.3304C170.768 79.3304 170.705 79.3073 170.656 79.2651C170.606 79.223 170.574 79.1647 170.563 79.1006V77.1774C170.557 77.1384 170.56 77.0985 170.57 77.0605C170.581 77.0225 170.6 76.9873 170.625 76.9573C170.651 76.9273 170.683 76.9032 170.719 76.8866C170.754 76.8701 170.793 76.8615 170.833 76.8615C170.872 76.8615 170.911 76.8701 170.947 76.8866C170.983 76.9032 171.015 76.9273 171.04 76.9573C171.066 76.9873 171.085 77.0225 171.095 77.0605C171.106 77.0985 171.108 77.1384 171.102 77.1774Z" fill="#C7C7C7"/>
<path d="M174.008 77.9278V79.1076C174.008 79.1764 173.98 79.2423 173.932 79.2909C173.883 79.3395 173.817 79.3668 173.748 79.3668C173.68 79.3651 173.615 79.3372 173.567 79.289C173.519 79.2407 173.491 79.1758 173.489 79.1076V77.9278C173.488 77.8615 173.475 77.796 173.448 77.7352C173.422 77.6743 173.384 77.6191 173.337 77.5729C173.289 77.5267 173.233 77.4902 173.171 77.4657C173.11 77.4412 173.044 77.429 172.978 77.4299C172.912 77.429 172.847 77.4412 172.786 77.4659C172.725 77.4906 172.67 77.5273 172.624 77.5737C172.577 77.6201 172.541 77.6753 172.516 77.7362C172.491 77.797 172.479 77.8621 172.48 77.9278V79.1076C172.483 79.1234 172.483 79.1396 172.48 79.1554C172.466 79.2155 172.432 79.2691 172.384 79.3075C172.336 79.3459 172.276 79.3668 172.214 79.3668C172.145 79.3668 172.079 79.3395 172.031 79.2909C171.982 79.2423 171.955 79.1764 171.955 79.1076V77.1639C171.955 77.0946 171.982 77.0279 172.03 76.9782C172.079 76.9285 172.145 76.8997 172.214 76.8979C172.266 76.8982 172.316 76.9131 172.359 76.9409C172.403 76.9686 172.438 77.0081 172.46 77.0548C172.616 76.9531 172.798 76.8986 172.985 76.8979C173.256 76.9015 173.515 77.0114 173.706 77.2039C173.898 77.3965 174.006 77.6564 174.008 77.9278Z" fill="#C7C7C7"/>
<path d="M177.186 78.1526V79.0665C177.184 79.3807 177.058 79.6815 176.836 79.9036C176.614 80.1258 176.313 80.2514 175.999 80.2532C175.819 80.2554 175.641 80.2133 175.481 80.1304C175.417 80.0995 175.369 80.0449 175.346 79.9784C175.323 79.912 175.327 79.8391 175.358 79.7758C175.373 79.7436 175.395 79.7149 175.421 79.6912C175.448 79.6675 175.479 79.6494 175.513 79.638C175.546 79.6265 175.582 79.6219 175.617 79.6245C175.653 79.6271 175.688 79.6368 175.719 79.653C175.806 79.6971 175.902 79.7205 175.999 79.7212C176.151 79.7173 176.297 79.6629 176.414 79.5665C176.532 79.4702 176.613 79.3374 176.647 79.1893C176.456 79.3186 176.23 79.3875 175.999 79.387C175.841 79.3866 175.684 79.353 175.54 79.2884C175.395 79.2238 175.266 79.1296 175.16 79.0119C174.936 78.7791 174.812 78.4686 174.812 78.1458C174.814 77.8193 174.938 77.5053 175.16 77.266C175.267 77.1506 175.397 77.0583 175.541 76.995C175.686 76.9316 175.841 76.8985 175.999 76.8977C176.243 76.8923 176.483 76.9665 176.681 77.1092C176.692 77.049 176.724 76.9947 176.772 76.9561C176.819 76.9174 176.879 76.8967 176.94 76.8977C177.011 76.8977 177.078 76.9258 177.128 76.9756C177.178 77.0255 177.206 77.0932 177.206 77.1637V78.1458L177.186 78.1526ZM176.654 78.1526C176.656 77.9675 176.591 77.788 176.47 77.6479C176.41 77.5817 176.338 77.5286 176.257 77.4922C176.176 77.4558 176.088 77.4368 175.999 77.4365C175.912 77.4366 175.826 77.4555 175.747 77.492C175.668 77.5285 175.598 77.5817 175.542 77.6479C175.414 77.7849 175.344 77.9654 175.344 78.1526C175.341 78.2458 175.357 78.3387 175.391 78.4255C175.425 78.5123 175.476 78.5912 175.542 78.6573C175.599 78.7226 175.669 78.7748 175.748 78.8102C175.827 78.8455 175.912 78.8632 175.999 78.8619C176.087 78.8629 176.175 78.8452 176.256 78.8099C176.337 78.7746 176.41 78.7226 176.47 78.6573C176.594 78.5165 176.66 78.3335 176.654 78.1458V78.1526Z" fill="#C7C7C7"/>
<path d="M178.543 78.6709C178.641 78.6709 178.736 78.7095 178.806 78.7783C178.876 78.8472 178.916 78.9409 178.918 79.0392C178.917 79.0875 178.907 79.1353 178.887 79.1796C178.868 79.2239 178.84 79.264 178.805 79.2976C178.77 79.3312 178.729 79.3576 178.684 79.3752C178.639 79.3929 178.591 79.4015 178.543 79.4006C178.447 79.4006 178.355 79.3626 178.287 79.2948C178.219 79.227 178.181 79.135 178.181 79.0392C178.181 78.9427 178.219 78.85 178.287 78.7811C178.354 78.7123 178.446 78.6727 178.543 78.6709Z" fill="#C7C7C7"/>
<path d="M179.682 78.6709C179.73 78.6709 179.778 78.6804 179.823 78.6989C179.867 78.7174 179.908 78.7446 179.942 78.7788C179.976 78.813 180.003 78.8536 180.022 78.8982C180.041 78.9429 180.05 78.9908 180.05 79.0392C180.05 79.1369 180.011 79.2305 179.942 79.2996C179.873 79.3687 179.779 79.4075 179.682 79.4075C179.584 79.4075 179.49 79.3687 179.421 79.2996C179.352 79.2305 179.313 79.1369 179.313 79.0392C179.313 78.9415 179.352 78.8478 179.421 78.7788C179.49 78.7097 179.584 78.6709 179.682 78.6709Z" fill="#C7C7C7"/>
<path d="M180.814 78.6709C180.912 78.6709 181.007 78.7095 181.077 78.7783C181.147 78.8472 181.187 78.9409 181.189 79.0392C181.188 79.0875 181.178 79.1353 181.158 79.1796C181.139 79.2239 181.111 79.264 181.076 79.2976C181.041 79.3312 181 79.3576 180.955 79.3752C180.91 79.3929 180.862 79.4015 180.814 79.4006C180.718 79.4006 180.626 79.3626 180.558 79.2948C180.49 79.227 180.452 79.135 180.452 79.0392C180.452 78.9427 180.49 78.85 180.558 78.7811C180.625 78.7123 180.717 78.6727 180.814 78.6709Z" fill="#C7C7C7"/>
<path d="M178.563 109.797C177.28 110.595 175.878 111.182 174.41 111.536C170.889 112.397 167.173 111.898 164.003 110.139C160.834 108.38 158.444 105.491 157.31 102.048C156.177 98.6056 156.383 94.8619 157.888 91.5644C159.392 88.2668 162.085 85.6578 165.429 84.2578C168.772 82.8579 172.52 82.7699 175.926 84.0115C179.331 85.2531 182.143 87.733 183.801 90.9564C185.459 94.1797 185.84 97.9096 184.869 101.402C183.898 104.894 181.647 107.892 178.563 109.797Z" fill="#C7C7C7"/>
<path d="M175.378 95.9053C175.378 96.7726 175.121 97.6204 174.639 98.3416C174.158 99.0627 173.473 99.6248 172.671 99.9567C171.87 100.289 170.988 100.375 170.138 100.206C169.287 100.037 168.506 99.6194 167.892 99.0061C167.279 98.3928 166.861 97.6115 166.692 96.7608C166.523 95.9101 166.61 95.0284 166.942 94.2271C167.274 93.4258 167.836 92.7409 168.557 92.2591C169.278 91.7772 170.126 91.52 170.993 91.52C171.569 91.5191 172.14 91.6319 172.672 91.852C173.205 92.0721 173.689 92.395 174.096 92.8024C174.503 93.2098 174.826 93.6936 175.046 94.2261C175.267 94.7585 175.379 95.3291 175.378 95.9053Z" fill="white"/>
<path d="M178.563 107.991V109.798C177.281 110.595 175.878 111.182 174.41 111.537C172.555 111.994 170.627 112.074 168.74 111.774C166.853 111.475 165.045 110.8 163.423 109.791V107.991C163.423 105.983 164.221 104.057 165.64 102.638C167.06 101.218 168.986 100.42 170.993 100.42C173.001 100.42 174.927 101.218 176.346 102.638C177.766 104.057 178.563 105.983 178.563 107.991Z" fill="white"/>
<path d="M298.159 287.411C298.159 287.411 274.664 298.534 243.803 298.534C211.033 298.534 195.143 287.861 195.143 287.861C171.211 269.072 168.743 241.232 185.813 224.353C196.145 214.123 203.702 216.203 216.196 214.58H216.23C220.644 214.111 224.936 212.85 228.902 210.856C241.764 204.07 249.021 188.064 259.844 174.594C261.208 172.903 262.62 171.266 264.079 169.684C272.945 160.177 290.677 159.87 299.959 173.23C323.502 207.146 322.84 257.675 298.159 287.411Z" fill="#3398DB"/>
<g opacity="0.1">
<path d="M298.159 287.411C298.159 287.411 274.664 298.534 243.803 298.534C211.033 298.534 195.143 287.861 195.143 287.861C171.211 269.072 168.743 241.232 185.813 224.353C196.145 214.123 203.702 216.203 216.196 214.58H216.23C220.644 214.111 224.936 212.85 228.902 210.856C241.764 204.07 249.021 188.064 259.844 174.594C261.208 172.903 262.62 171.266 264.079 169.684C272.945 160.177 290.677 159.87 299.959 173.23C323.502 207.146 322.84 257.675 298.159 287.411Z" fill="#F39C12"/>
</g>
<path opacity="0.1" d="M232.38 260.035C263.752 267.755 292.512 250.132 295.09 209.738C296.979 180.159 275.939 166.192 259.817 174.567C249.021 188.05 241.771 204.043 228.902 210.829C224.936 212.822 220.644 214.084 216.23 214.552H216.189L214.859 214.716C200.544 223.678 208.019 254.04 232.38 260.035Z" fill="black"/>
<path d="M203.879 313.265C205.42 313.013 242.951 293.214 243.906 291.557C244.267 290.93 241.703 285.296 238.409 278.599C237.727 277.147 236.956 275.653 236.192 274.139C231.255 264.311 225.778 253.993 225.778 253.993L200.64 267.162L211.743 286.94L214.177 291.284C214.177 291.284 203.204 305.279 202.372 307.209C201.54 309.139 202.372 313.538 203.879 313.265Z" fill="#F7A9A0"/>
<path d="M203.879 313.265C205.42 313.013 242.944 293.221 243.899 291.557C244.226 291.005 242.269 286.558 239.548 280.904C238.027 283.012 215.964 300.369 208.858 301.787C205.946 302.367 210.72 295.758 210.904 295.479C207.596 299.775 202.897 305.961 202.352 307.202C201.506 309.139 202.331 313.538 203.879 313.265Z" fill="#263238"/>
<path d="M210.474 296.017C210.474 296.017 213.795 293.351 219.804 296.113L210.474 296.017Z" fill="#263238"/>
<path d="M185.895 236.09C187.661 247.602 209.697 286.79 209.697 286.79L236.561 272.222L220.288 244.049C220.288 244.049 255.875 250.023 269.788 244.929C284.635 239.473 283.332 221.938 283.332 221.938L248.066 216.066C247.684 217.052 246.968 217.871 246.043 218.383C245.118 218.894 244.043 219.064 243.006 218.863C229.318 217.151 210.57 216.817 203.327 217.239C193.983 217.819 184.279 225.56 185.895 236.09Z" fill="#37474F"/>
<path d="M212.602 234.119C213.391 234.968 214.125 235.868 214.798 236.813C215.555 237.761 216.319 238.695 217.069 239.643C216.933 239.363 216.803 239.084 216.66 238.811C216.176 237.863 215.787 236.881 215.221 235.981C215.187 235.926 215.275 235.872 215.31 235.926C215.889 236.82 216.558 237.672 217.055 238.613C217.294 239.057 217.519 239.507 217.737 239.977C217.853 240.223 217.969 240.475 218.072 240.734C218.128 240.854 218.175 240.977 218.215 241.103C218.556 241.539 218.897 241.982 219.211 242.426C219.927 243.428 220.575 244.472 221.297 245.467C221.332 245.522 221.25 245.57 221.209 245.522C220.479 244.594 219.654 243.735 218.91 242.794C218.167 241.853 217.431 240.891 216.714 239.916C215.998 238.941 215.35 238.013 214.668 237.065C213.907 236.131 213.205 235.149 212.568 234.126C212.554 234.133 212.602 234.092 212.602 234.119Z" fill="#263238"/>
<path d="M208.312 280.584C208.994 280.099 209.765 279.656 210.501 279.22C211.238 278.783 211.947 278.333 212.677 277.897C214.171 277.003 215.678 276.137 217.185 275.264C220.206 273.518 223.262 271.813 226.303 270.101C228.015 269.147 229.713 268.219 231.453 267.278C231.487 267.278 231.528 267.278 231.493 267.332C228.568 269.147 225.628 270.947 222.662 272.707C219.695 274.466 216.633 276.232 213.57 277.924C212.718 278.394 211.859 278.851 210.999 279.288C210.14 279.724 209.26 280.229 208.36 280.652C208.319 280.672 208.271 280.611 208.312 280.584Z" fill="#263238"/>
<path d="M278.408 222.832C278.539 227.491 276.89 232.024 273.798 235.51C272.239 237.202 270.368 238.575 268.287 239.555C266.193 240.5 263.963 241.108 261.679 241.355C257.103 241.917 252.489 242.111 247.882 241.935C243.272 241.798 238.661 241.444 234.085 240.878C229.503 240.354 224.959 239.541 220.479 238.443C219.367 238.157 218.256 237.843 217.165 237.481C216.619 237.297 216.08 237.106 215.548 236.902C215.009 236.654 214.448 236.459 213.871 236.322C213.558 236.257 213.235 236.257 212.923 236.322C212.748 236.362 212.586 236.445 212.453 236.564C212.319 236.684 212.218 236.835 212.159 237.004C212.104 237.162 212.078 237.328 212.084 237.495C212.083 237.663 212.113 237.829 212.172 237.986C212.268 238.279 212.391 238.545 212.507 238.811C212.998 239.868 213.536 240.857 214.082 241.914C218.522 250.03 223.303 257.941 228.097 265.839C225.765 261.856 223.455 257.855 221.168 253.836C218.87 249.826 216.578 245.815 214.423 241.73C213.891 240.714 213.352 239.684 212.888 238.641C212.778 238.378 212.682 238.11 212.602 237.836C212.557 237.725 212.532 237.608 212.527 237.488C212.529 237.365 212.55 237.243 212.588 237.127C212.711 236.663 213.27 236.608 213.823 236.711C214.371 236.841 214.903 237.029 215.412 237.27C215.957 237.481 216.503 237.679 217.055 237.863C218.153 238.232 219.272 238.545 220.39 238.845C224.879 239.966 229.435 240.797 234.03 241.335C238.627 241.887 243.251 242.228 247.875 242.351C252.508 242.513 257.146 242.285 261.74 241.669C264.056 241.392 266.314 240.752 268.431 239.773C270.535 238.759 272.421 237.344 273.982 235.606C275.505 233.869 276.664 231.844 277.392 229.652C278.146 227.46 278.49 225.148 278.408 222.832Z" fill="#263238"/>
<path d="M237.611 317.405C239.07 316.839 271.649 289.661 272.236 287.84C272.461 287.158 268.785 282.173 264.161 276.287C263.165 275.012 262.115 273.709 261.065 272.386C254.204 263.799 246.702 254.886 246.702 254.886L224.878 273.006L239.882 290.056L243.169 293.801C243.169 293.801 235.347 309.787 234.917 311.853C234.487 313.92 236.158 317.978 237.611 317.405Z" fill="#F7A9A0"/>
<path d="M237.611 317.405C239.07 316.839 271.65 289.661 272.236 287.84C272.434 287.233 269.597 283.291 265.757 278.326C264.7 280.706 246.736 302.271 240.08 305.142C237.352 306.315 240.646 298.854 240.762 298.541C238.429 303.424 235.115 310.462 234.842 311.785C234.426 313.858 236.152 317.978 237.611 317.405Z" fill="#263238"/>
<path d="M240.469 299.161C240.469 299.161 243.162 295.86 249.614 297.313L240.469 299.161Z" fill="#263238"/>
<path d="M201.69 239.5C203.45 251.012 232.598 283.735 235.967 287.492L236.731 288.345L259.885 269.767L259.605 269.426L243.613 250.064C243.613 250.064 269.167 260.069 281.041 244.54C285.767 238.361 283.332 221.939 283.332 221.939L255.002 217.376C255.002 217.376 254.286 222.225 250.317 221.734C236.636 220.022 225.887 218.501 218.645 218.945C209.294 219.49 200.067 228.97 201.69 239.5Z" fill="#37474F"/>
<path d="M249.546 221.598C240.755 220.343 231.93 219.197 223.043 218.795C221.932 218.754 220.813 218.733 219.702 218.747C218.578 218.747 217.456 218.836 216.346 219.013C215.79 219.123 215.245 219.28 214.716 219.483C214.184 219.668 213.666 219.872 213.154 220.104C212.127 220.553 211.135 221.08 210.188 221.679C208.275 222.866 206.57 224.359 205.141 226.099C202.978 228.728 201.659 231.949 201.356 235.34C201.315 235.62 201.308 235.899 201.294 236.179C201.281 236.458 201.294 236.745 201.294 237.031C201.313 237.598 201.37 238.163 201.465 238.723C201.927 240.92 202.667 243.049 203.668 245.058C205.642 249.054 207.937 252.883 210.529 256.509C213.073 260.158 215.773 263.691 218.556 267.155C221.338 270.62 224.237 273.975 227.163 277.331C224.298 273.921 221.475 270.511 218.747 267.005C216.019 263.5 213.339 259.953 210.842 256.291C208.301 252.66 206.039 248.842 204.077 244.867C203.102 242.891 202.382 240.799 201.935 238.641C201.844 238.106 201.789 237.566 201.772 237.024C201.772 236.486 201.806 235.926 201.854 235.388C201.96 234.297 202.17 233.219 202.481 232.169C203.107 230.063 204.143 228.102 205.53 226.399C206.916 224.69 208.578 223.224 210.447 222.061C211.374 221.47 212.346 220.95 213.352 220.506C213.85 220.281 214.361 220.077 214.88 219.893C215.39 219.697 215.914 219.542 216.448 219.429C217.534 219.259 218.63 219.168 219.729 219.156C220.834 219.156 221.939 219.156 223.05 219.156C227.483 219.286 231.916 219.668 236.329 220.097C240.741 220.527 245.14 221.038 249.546 221.598Z" fill="#263238"/>
<path d="M234.958 238.654C235.745 239.504 236.476 240.404 237.147 241.348C237.904 242.289 238.668 243.224 239.418 244.172C239.282 243.892 239.152 243.612 239.009 243.34C238.532 242.392 238.136 241.41 237.577 240.509C237.577 240.455 237.625 240.4 237.659 240.455C238.238 241.348 238.907 242.201 239.411 243.142C239.643 243.592 239.868 244.042 240.093 244.506C240.202 244.758 240.325 245.004 240.428 245.263C240.475 245.379 240.53 245.502 240.571 245.631C240.905 246.068 241.253 246.511 241.56 246.995C242.283 247.991 242.924 249.041 243.647 250.03C243.688 250.085 243.599 250.139 243.558 250.085C242.828 249.157 242.003 248.298 241.26 247.357C240.516 246.415 239.78 245.454 239.064 244.485C238.347 243.517 237.7 242.576 237.018 241.628C236.258 240.694 235.557 239.715 234.917 238.695C234.917 238.69 234.918 238.685 234.92 238.68C234.922 238.675 234.925 238.67 234.929 238.666C234.933 238.662 234.937 238.659 234.942 238.657C234.947 238.655 234.953 238.654 234.958 238.654Z" fill="#263238"/>
<path d="M234.133 283.039C234.747 282.446 235.415 281.886 236.063 281.32L237.986 279.649C239.309 278.517 240.653 277.412 241.989 276.301C244.677 274.071 247.391 271.875 250.112 269.678C251.633 268.444 253.181 267.244 254.709 266.023C254.709 266.023 254.784 266.023 254.756 266.071C252.179 268.344 249.578 270.617 246.954 272.891C244.331 275.164 241.637 277.39 238.873 279.567C238.109 280.168 237.345 280.768 236.574 281.354C235.804 281.941 235.013 282.582 234.194 283.134C234.16 283.128 234.099 283.073 234.133 283.039Z" fill="#263238"/>
<path d="M279.39 223.33C279.791 225.842 279.855 228.397 279.581 230.927C279.342 233.454 278.629 235.913 277.481 238.177C276.308 240.421 274.526 242.289 272.338 243.565C270.118 244.781 267.646 245.467 265.116 245.57C262.587 245.723 260.049 245.627 257.539 245.283C255.016 244.962 252.512 244.507 250.037 243.919C245.092 242.752 240.233 241.243 235.497 239.404L235.319 239.329L235.231 239.486C234.899 240.081 234.684 240.734 234.596 241.409C234.491 242.074 234.491 242.75 234.596 243.414C234.713 244.072 234.915 244.712 235.197 245.317C235.51 245.898 235.863 246.456 236.254 246.988C237.775 249.102 239.425 251.08 241.082 253.126C242.739 255.172 244.424 257.095 246.129 259.046C247.834 260.996 249.539 262.94 251.285 264.87C249.594 262.906 247.923 260.921 246.259 258.937C244.595 256.952 242.944 254.954 241.307 252.942C239.67 250.93 238.054 248.905 236.567 246.804C236.198 246.287 235.865 245.745 235.572 245.181C235.312 244.608 235.124 244.006 235.012 243.387C234.794 242.151 234.991 240.878 235.572 239.766L235.306 239.848C240.054 241.719 244.929 243.253 249.894 244.437C252.369 245.024 254.873 245.479 257.396 245.801C259.937 246.134 262.504 246.219 265.061 246.054C267.647 245.941 270.169 245.216 272.42 243.94C274.644 242.606 276.448 240.672 277.624 238.361C278.765 236.062 279.447 233.562 279.629 231.002C279.892 228.445 279.812 225.865 279.39 223.33Z" fill="#F39C12"/>
<path d="M267.203 222.402C267.401 223.766 267.68 225.089 267.994 226.419C268.205 227.631 268.652 228.79 269.31 229.829C270.021 230.747 270.934 231.489 271.977 231.998C272.571 232.315 273.183 232.595 273.812 232.837C274.46 233.052 275.091 233.314 275.701 233.621C275.725 233.636 275.745 233.659 275.756 233.685C275.767 233.712 275.769 233.742 275.762 233.77C275.755 233.798 275.74 233.823 275.718 233.841C275.696 233.86 275.668 233.871 275.639 233.873C274.916 233.828 274.201 233.693 273.511 233.471C272.84 233.295 272.184 233.067 271.547 232.789C270.393 232.255 269.393 231.436 268.642 230.409C267.942 229.288 267.502 228.025 267.353 226.712C267.101 225.299 266.991 223.864 267.026 222.429C267.026 222.286 267.162 222.286 267.203 222.402Z" fill="#263238"/>
<path d="M265.116 150.178C265.116 150.178 271.193 147.45 276.096 151.085C281 154.72 282.807 162.857 281.375 169.431C279.943 176.006 285.003 180.841 285.181 185.833C285.358 190.826 281.927 192.837 280.625 195.34C279.131 198.205 283.257 209.158 270.354 210.556C254.211 212.302 248.939 202.031 251.224 194.086C252.342 190.191 254.804 187.566 255.029 184.36C255.254 181.155 253.195 178.413 254.709 174.451C256.223 170.488 257.744 171.17 258.917 164.848C260.09 158.526 259.387 150.799 265.116 150.178Z" fill="#263238"/>
<path d="M274.998 150.847C278.186 153.299 280.547 156.669 281.763 160.504C282.379 162.406 282.674 164.397 282.636 166.396C282.582 169.008 281.989 171.409 282.746 174.007C283.96 178.174 286.783 181.796 286.265 186.283C286.02 188.373 285.19 190.352 283.871 191.992C282.33 193.908 280.243 195.354 278.913 197.448C278.858 197.536 278.722 197.448 278.776 197.359C279.895 195.504 281.566 194.154 283.005 192.53C284.726 190.634 285.757 188.211 285.93 185.656C286.162 181.366 283.38 177.826 282.275 173.816C281.857 172.055 281.792 170.229 282.084 168.442C282.351 166.275 282.252 164.077 281.791 161.943C280.747 157.633 278.359 153.768 274.971 150.908C274.971 150.908 274.964 150.819 274.998 150.847Z" fill="#263238"/>
<path d="M251.36 192.947C251.919 191.064 253.065 189.414 253.617 187.545C254.299 185.288 253.897 182.955 253.617 180.671C253.256 177.411 253.576 174.383 255.247 171.471C256.325 169.588 257.593 167.856 258.439 165.851C259.362 163.676 259.964 161.379 260.226 159.031C260.226 158.983 260.308 158.99 260.308 159.031C260.09 162.439 259.084 165.749 257.368 168.702C256.359 170.434 255.138 172.043 254.477 173.953C253.798 176.208 253.619 178.585 253.952 180.916C254.159 182.499 254.226 184.096 254.149 185.69C253.926 187.298 253.415 188.853 252.642 190.28C250.797 194.055 250.463 198.393 251.708 202.406C251.708 202.474 251.605 202.515 251.578 202.44C250.529 199.374 250.452 196.058 251.36 192.947Z" fill="#263238"/>
<path d="M285.637 185.322C285.787 181.789 283.53 179.184 282.296 176.019C281.361 173.619 280.795 171.095 281.382 168.586C281.382 168.545 281.464 168.586 281.457 168.586C280.966 172.248 282.234 175.712 284.014 178.959C285.201 181.121 286.156 183.18 285.965 185.649C285.774 188.118 284.648 190.014 283.107 191.903C282.009 193.267 280.938 194.495 280.379 196.145C279.91 197.807 279.681 199.527 279.697 201.253C279.697 201.342 279.554 201.328 279.554 201.253C279.554 198.594 279.711 196.036 281.232 193.751C283.128 190.887 285.487 188.882 285.637 185.322Z" fill="#263238"/>
<path d="M250.958 190.396C251.626 189.246 252.398 188.16 253.263 187.15C254.777 185.281 255.132 183.692 254.879 181.305C254.883 181.296 254.889 181.288 254.897 181.283C254.905 181.278 254.914 181.275 254.924 181.275C254.933 181.275 254.942 181.278 254.95 181.283C254.958 181.288 254.964 181.296 254.968 181.305C255.452 183.296 255.473 184.92 254.177 186.604C252.369 188.964 250.617 191.098 250.044 194.045C249.021 199.269 251.599 204.432 256.182 207.501C256.25 207.541 256.182 207.637 256.114 207.596C254.228 206.53 252.633 205.016 251.469 203.188C250.306 201.36 249.611 199.274 249.444 197.114C249.318 194.778 249.842 192.452 250.958 190.396Z" fill="#263238"/>
<path d="M262.62 184.715C259.742 198.205 255.329 209.574 251.612 212.213C248.612 214.348 223.446 219.292 222.566 219.388C220.397 219.606 216.305 205.366 217.792 203.558C218.133 203.142 242.344 200.878 243.108 200.094C243.872 199.309 251.067 189.7 256.836 182.314C260.86 177.138 264.216 177.233 262.62 184.715Z" fill="#F7A9A0"/>
<path d="M226.883 217.778C224.812 218.79 222.677 219.667 220.493 220.404C218.747 220.909 213.673 222.225 212.943 220.363C212.432 219.088 215.316 217.962 217.335 217.124C218.406 216.68 219.715 215.562 219.381 214.88C218.836 213.679 216.094 214.88 214.287 215.93C210.802 217.976 206.157 221.604 204.023 219.831C203.225 219.149 204.159 217.949 205.523 216.755C203.306 218.119 200.94 219.285 200.012 218.576C199.776 218.393 199.618 218.128 199.57 217.833C199.522 217.538 199.587 217.236 199.753 216.987C199.474 217.118 199.162 217.162 198.857 217.115C198.552 217.067 198.268 216.93 198.041 216.721C197.318 215.964 197.673 214.852 198.464 213.714C198.323 213.703 198.187 213.658 198.068 213.581C197.949 213.505 197.851 213.401 197.782 213.277C196.255 210.951 203.92 204.268 206.546 203.64C211.818 202.516 217.22 202.121 222.6 202.467C225.703 204.909 226.883 217.771 226.883 217.778Z" fill="#F7A9A0"/>
<path d="M215.439 210.556C213.585 210.832 211.815 211.514 210.256 212.554C208.435 213.802 206.996 215.507 205.318 216.912C205.311 216.915 205.306 216.92 205.301 216.926C205.297 216.932 205.294 216.938 205.292 216.946C205.291 216.953 205.291 216.96 205.293 216.968C205.295 216.975 205.299 216.981 205.304 216.987C205.308 216.992 205.315 216.997 205.322 216.999C205.328 217.002 205.336 217.003 205.343 217.002C205.351 217.002 205.358 216.999 205.364 216.996C205.37 216.992 205.376 216.986 205.38 216.98C206.171 216.25 207.037 215.616 207.855 214.934C208.674 214.252 209.437 213.57 210.276 212.888C211.804 211.741 213.571 210.955 215.446 210.59C215.446 210.59 215.459 210.556 215.439 210.556Z" fill="#263238"/>
<path d="M213.966 207.221C211.888 207.711 209.866 208.413 207.93 209.314C205.85 210.372 204.227 212.097 202.631 213.754C201.667 214.759 200.728 215.778 199.815 216.81C199.78 216.851 199.815 216.926 199.876 216.878C201.499 215.166 203.17 213.468 204.895 211.886C206.483 210.377 208.354 209.197 210.399 208.414C211.572 207.971 212.773 207.616 213.973 207.262L213.966 207.221Z" fill="#263238"/>
<path d="M211.811 204.336C209.826 204.745 208.087 205.093 206.355 206.157C204.379 207.468 202.576 209.021 200.987 210.781C200.114 211.708 199.276 212.67 198.45 213.638C198.416 213.679 198.45 213.741 198.519 213.7C200.407 211.569 202.432 209.565 204.582 207.698C205.597 206.791 206.747 206.048 207.992 205.495C209.243 205.004 210.535 204.621 211.852 204.35C211.852 204.35 211.818 204.336 211.811 204.336Z" fill="#263238"/>
<path d="M222.205 201.983L226.979 220.049C226.979 220.049 246.702 216.053 252.158 212.138C257.614 208.224 261.672 190.962 263.07 183.494C264.468 176.026 259.415 178.345 256.325 182.198C253.236 186.052 243.101 199.248 242.76 199.548C242.419 199.849 222.205 201.983 222.205 201.983Z" fill="#DBDBDB"/>
<path d="M231.548 218.372C231.296 217.008 230.866 215.678 230.477 214.348C230.088 213.018 229.72 211.729 229.331 210.426C228.54 207.794 227.804 205.12 226.842 202.542C226.842 202.53 226.837 202.518 226.828 202.509C226.819 202.5 226.807 202.495 226.794 202.495C226.782 202.495 226.77 202.5 226.761 202.509C226.752 202.518 226.747 202.53 226.747 202.542C227.279 205.27 228.111 207.937 228.874 210.597C229.27 211.934 229.679 213.263 230.102 214.586C230.488 215.876 230.944 217.144 231.466 218.385C231.473 218.474 231.555 218.433 231.548 218.372Z" fill="#263238"/>
<path d="M263.07 183.48C261.638 190.982 257.553 208.223 252.158 212.124C249.43 214.082 243.176 216.06 237.563 217.546L260.663 178.741C262.524 178.1 263.888 179.136 263.07 183.48Z" fill="#C7C7C7"/>
<path d="M285.255 225.376L264.639 222.361L249.716 220.179L245.242 219.497L248.652 207.323L250.057 202.269C250.057 202.269 247.595 198.021 248.789 194.358C250.153 190.212 261.242 178.938 262.101 178.393C265.511 176.217 269.276 176.074 272.516 180.555C274.191 183.116 275.53 185.883 276.499 188.786C277.181 190.566 277.787 192.496 278.388 194.495C282.473 208.189 285.255 225.376 285.255 225.376Z" fill="#DBDBDB"/>
<path d="M264.925 206.464C263.656 205.924 262.358 205.455 261.038 205.059C260.356 204.868 259.708 204.711 259.033 204.575C258.705 204.507 258.385 204.445 258.057 204.391C257.73 204.336 257.334 204.316 256.98 204.248C256.946 204.248 256.925 204.302 256.98 204.309C257.307 204.377 257.662 204.507 257.962 204.602L258.958 204.875C259.64 205.066 260.274 205.257 260.942 205.434C262.272 205.796 263.588 206.164 264.905 206.573C264.966 206.58 264.986 206.464 264.925 206.464Z" fill="#263238"/>
<path d="M250.03 202.297C248.977 200.764 248.358 198.976 248.236 197.121C248.176 196.183 248.277 195.241 248.537 194.338C248.832 193.45 249.228 192.599 249.716 191.801C250.714 190.253 251.836 188.788 253.072 187.423C254.295 186.058 255.597 184.766 256.973 183.556C255.745 184.92 254.531 186.284 253.372 187.648C252.195 189.03 251.119 190.496 250.153 192.033C249.673 192.789 249.279 193.596 248.98 194.44C248.732 195.295 248.612 196.183 248.625 197.073C248.678 198.9 249.16 200.69 250.03 202.297Z" fill="#263238"/>
<path d="M255.936 183.883C255.599 184.633 255.161 185.332 254.634 185.963C254.802 185.589 254.996 185.227 255.213 184.879C255.428 184.528 255.67 184.195 255.936 183.883Z" fill="#263238"/>
<path d="M269.208 179.102C268.962 179.784 265.068 183.971 261.863 183.446C260.819 183.276 261.508 177.533 261.508 177.533L261.46 177.104L260.819 171.006L268.321 167.337L269.399 166.867C269.399 166.867 269.467 168.544 269.528 170.631C269.528 170.734 269.528 170.829 269.528 170.931C269.528 171.034 269.528 171.163 269.528 171.272C269.528 171.586 269.528 171.907 269.563 172.22C269.597 172.534 269.563 172.698 269.563 172.95C269.563 173.202 269.563 173.455 269.563 173.714C269.567 175.516 269.448 177.316 269.208 179.102Z" fill="#F7A9A0"/>
<path d="M269.542 170.631C268.754 172.238 267.624 173.653 266.231 174.777C264.839 175.9 263.218 176.706 261.481 177.138L260.84 171.041L268.342 167.371L269.419 166.901C269.419 166.901 269.481 168.544 269.542 170.631Z" fill="#263238"/>
<path d="M261.522 177.554L262.388 182.594L269.426 177.956L270.654 180.193C270.654 180.193 263.002 188.322 263.07 187.893L262.02 183.48L258.657 185.67L260.342 178.727L261.522 177.554Z" fill="white"/>
<path d="M259.305 182.191C259.626 181.052 259.919 179.9 260.294 178.781C260.294 178.74 260.376 178.734 260.376 178.781C260.376 179.941 259.108 184.285 258.889 185.342C259.026 185.247 261.972 183.446 261.992 183.487C262.272 184.21 263.05 187.429 263.09 187.716C264.298 186.42 269.344 181.393 270.702 180.214C270.743 180.179 270.797 180.214 270.763 180.268C269.651 181.659 263.07 188.323 263.07 188.288C262.623 186.754 262.256 185.197 261.972 183.624C260.852 184.486 259.674 185.27 258.446 185.97C258.665 184.696 258.952 183.435 259.305 182.191Z" fill="#263238"/>
<path d="M255.111 158.724C250.337 168.367 255.602 172.303 257.682 173.326C259.571 174.253 266.119 177.172 271.847 168.074C277.576 158.976 274.575 153.711 270.381 151.358C266.187 149.005 259.865 149.046 255.111 158.724Z" fill="#F7A9A0"/>
<path d="M257.294 157.701C257.532 157.776 257.771 157.81 258.016 157.864C258.266 157.949 258.537 157.949 258.787 157.864C258.862 157.826 258.922 157.763 258.958 157.687C258.994 157.61 259.003 157.524 258.985 157.441C258.923 157.284 258.82 157.145 258.687 157.039C258.554 156.934 258.396 156.866 258.228 156.841C257.898 156.742 257.542 156.771 257.232 156.923C257.152 156.956 257.084 157.013 257.038 157.087C256.993 157.161 256.972 157.248 256.979 157.334C256.985 157.421 257.02 157.503 257.076 157.569C257.133 157.635 257.209 157.681 257.294 157.701Z" fill="#263238"/>
<path d="M263.991 160.77C263.784 160.634 263.586 160.486 263.397 160.327C263.165 160.149 262.968 160.033 262.872 159.754C262.856 159.671 262.866 159.586 262.902 159.51C262.938 159.434 262.996 159.371 263.07 159.331C263.23 159.276 263.402 159.266 263.568 159.3C263.733 159.335 263.886 159.414 264.011 159.529C264.302 159.715 264.512 160.005 264.598 160.34C264.612 160.417 264.604 160.497 264.575 160.569C264.545 160.642 264.496 160.704 264.432 160.75C264.368 160.795 264.292 160.821 264.214 160.824C264.136 160.828 264.058 160.809 263.991 160.77Z" fill="#263238"/>
<path d="M261.331 162.461C261.331 162.461 261.365 162.523 261.331 162.55C260.983 163.191 260.697 163.989 261.188 164.501C261.188 164.501 261.188 164.548 261.188 164.535C260.506 164.078 260.901 163.021 261.331 162.461Z" fill="#263238"/>
<path d="M262.252 162.066C263.35 162.509 262.388 164.671 261.372 164.262C260.356 163.852 261.338 161.697 262.252 162.066Z" fill="#263238"/>
<path d="M262.627 162.373C262.763 162.577 262.852 162.877 263.063 163C263.275 163.123 263.616 163 263.888 162.864C263.888 162.864 263.923 162.864 263.888 162.905C263.711 163.321 263.363 163.675 262.893 163.539C262.422 163.402 262.34 162.918 262.422 162.461C262.456 162.373 262.572 162.291 262.627 162.373Z" fill="#263238"/>
<path d="M257.675 160.661C257.675 160.661 257.607 160.661 257.6 160.702C257.327 161.384 256.918 162.113 256.195 162.066C256.195 162.066 256.161 162.1 256.195 162.1C256.973 162.332 257.525 161.349 257.675 160.661Z" fill="#263238"/>
<path d="M257.382 159.699C256.339 159.147 255.336 161.275 256.277 161.786C257.218 162.298 258.296 160.163 257.382 159.699Z" fill="#263238"/>
<path d="M256.871 159.624C256.652 159.658 256.386 159.781 256.189 159.699C255.991 159.617 255.889 159.283 255.848 159.017C255.848 159.017 255.848 159.017 255.807 159.017C255.679 159.186 255.615 159.395 255.628 159.606C255.64 159.817 255.728 160.017 255.875 160.17C256.202 160.415 256.632 160.17 256.925 159.835C256.966 159.754 256.932 159.61 256.871 159.624Z" fill="#263238"/>
<path d="M257.28 164.302C257.28 164.302 256.686 165.23 256.468 165.666C256.468 165.707 256.557 165.782 256.707 165.864C257.074 166.124 257.506 166.277 257.955 166.307C258.404 166.337 258.852 166.243 259.251 166.035C259.262 166.029 259.271 166.019 259.276 166.007C259.281 165.995 259.282 165.981 259.277 165.969C259.273 165.957 259.265 165.946 259.254 165.939C259.243 165.933 259.229 165.93 259.217 165.932C258.43 166.068 257.621 165.943 256.911 165.578C256.911 165.435 257.982 164.023 257.914 163.982C257.534 163.845 257.137 163.76 256.734 163.73C257.921 161.759 259.408 159.992 260.56 158.008C260.571 157.993 260.576 157.975 260.573 157.957C260.57 157.939 260.561 157.923 260.546 157.912C260.532 157.901 260.514 157.897 260.496 157.899C260.478 157.902 260.462 157.911 260.451 157.926C258.796 159.771 257.329 161.777 256.073 163.914C255.929 164.18 257.061 164.296 257.28 164.302Z" fill="#263238"/>
<path d="M271.295 167.521C269.317 167.201 270.108 162.7 270.108 162.7C270.108 162.7 262.402 158.949 263.656 152.142C261.844 154.529 259.182 156.126 256.223 156.603C256.223 156.603 258.63 149.448 264.782 149.721C264.782 149.721 272.666 149.217 275.012 156.043C277.358 162.87 272.618 167.733 271.295 167.521Z" fill="#263238"/>
<path d="M263.752 151.645C263.358 152.637 263.181 153.702 263.234 154.768C263.264 155.846 263.519 156.905 263.984 157.878C264.097 158.113 264.225 158.341 264.366 158.56L264.57 158.908C264.645 159.024 264.727 159.126 264.809 159.235C264.98 159.447 265.136 159.665 265.314 159.863C265.491 160.06 265.689 160.245 265.88 160.429C266.071 160.613 266.071 160.62 266.173 160.701L266.487 160.947L267.121 161.431C267.571 161.711 268.035 161.97 268.485 162.216C268.083 161.875 267.653 161.581 267.258 161.24L266.678 160.722L266.391 160.456C266.303 160.367 266.221 160.265 266.139 160.17C266.057 160.074 265.798 159.781 265.621 159.59C265.443 159.399 265.327 159.174 265.177 158.969L264.952 158.662L264.761 158.328C264.631 158.107 264.513 157.88 264.407 157.646C263.968 156.72 263.691 155.726 263.588 154.707C263.536 154.192 263.525 153.675 263.554 153.159C263.578 152.649 263.644 152.143 263.752 151.645Z" fill="#263238"/>
<path d="M269.89 171.109C269.72 171.111 269.55 171.09 269.385 171.047C269.218 171.017 269.057 170.959 268.908 170.877C268.711 170.78 268.539 170.64 268.403 170.468C268.292 170.335 268.202 170.185 268.137 170.024C268.042 169.809 267.987 169.578 267.974 169.342L269.57 166.88C269.57 166.88 272.98 164.609 274.091 165.939C275.203 167.269 271.786 171.143 269.89 171.109Z" fill="#F7A9A0"/>
<path d="M273.075 167.003V167.051C271.711 167.051 270.688 167.917 269.815 168.872C269.928 168.781 270.06 168.716 270.201 168.68C270.342 168.645 270.489 168.641 270.631 168.668C270.774 168.696 270.909 168.754 271.027 168.838C271.145 168.923 271.244 169.032 271.315 169.158C271.315 169.158 271.315 169.227 271.261 169.213C271.082 169.067 270.861 168.98 270.631 168.964C270.4 168.948 270.17 169.004 269.972 169.124C269.643 169.33 269.336 169.57 269.058 169.84C268.963 169.922 268.799 169.793 268.888 169.69C269.447 168.163 271.418 166.533 273.075 167.003Z" fill="#263238"/>
<path d="M269.89 170.639C269.818 170.747 269.706 170.823 269.579 170.851C269.452 170.879 269.319 170.856 269.208 170.789C269.124 170.736 269.058 170.66 269.018 170.57C268.978 170.479 268.965 170.379 268.982 170.282C268.999 170.184 269.045 170.094 269.113 170.023C269.181 169.951 269.269 169.902 269.366 169.881C269.462 169.86 269.563 169.868 269.655 169.904C269.747 169.94 269.826 170.003 269.882 170.084C269.938 170.165 269.969 170.261 269.971 170.36C269.972 170.459 269.944 170.556 269.89 170.639Z" fill="white"/>
<path d="M271.131 170.318C271.094 170.375 271.041 170.421 270.978 170.448C270.915 170.475 270.846 170.484 270.778 170.472C270.711 170.46 270.648 170.428 270.599 170.381C270.549 170.333 270.515 170.272 270.5 170.206C270.485 170.139 270.49 170.069 270.514 170.005C270.539 169.941 270.581 169.886 270.637 169.846C270.693 169.806 270.759 169.784 270.828 169.781C270.896 169.779 270.964 169.797 271.022 169.833C271.1 169.884 271.155 169.963 271.176 170.053C271.196 170.144 271.18 170.239 271.131 170.318Z" fill="white"/>
<path d="M257.116 198.491C257.116 198.491 262.947 187.92 266.262 182.498C269.576 177.077 272.741 178.031 272.986 184.374C273.232 190.717 275.101 198.86 269.174 209.253C253.815 236.179 257.116 198.491 257.116 198.491Z" fill="#DBDBDB"/>
<path d="M269.733 162.68L254.886 173.142C254.779 173.179 254.685 173.245 254.612 173.332C254.54 173.419 254.493 173.524 254.475 173.636C254.458 173.748 254.471 173.863 254.513 173.968C254.555 174.073 254.625 174.164 254.715 174.233L259.551 180.691C259.775 180.856 260.042 180.953 260.319 180.973C260.597 180.992 260.874 180.932 261.119 180.8L275.967 170.318C276.072 170.28 276.165 170.214 276.236 170.127C276.307 170.041 276.354 169.937 276.371 169.826C276.389 169.715 276.376 169.602 276.335 169.498C276.294 169.394 276.225 169.302 276.137 169.234L271.302 162.816C271.08 162.647 270.815 162.545 270.537 162.521C270.259 162.497 269.981 162.552 269.733 162.68Z" fill="#A6A6A6"/>
<path d="M270.17 163.205L255.322 173.667C255.217 173.706 255.124 173.773 255.054 173.86C254.983 173.947 254.936 174.051 254.919 174.162C254.901 174.273 254.914 174.387 254.955 174.492C254.996 174.596 255.064 174.688 255.152 174.758L259.994 181.216C260.217 181.381 260.483 181.479 260.759 181.498C261.036 181.517 261.312 181.457 261.556 181.325L276.403 170.864C276.509 170.826 276.602 170.761 276.674 170.674C276.746 170.588 276.794 170.484 276.812 170.374C276.83 170.263 276.818 170.149 276.777 170.045C276.737 169.94 276.669 169.848 276.58 169.779L271.738 163.321C271.514 163.155 271.248 163.056 270.971 163.036C270.693 163.015 270.415 163.074 270.17 163.205Z" fill="#DBDBDB"/>
<path d="M271.534 165.441C271.431 165.554 271.298 165.634 271.15 165.671C271.002 165.708 270.847 165.7 270.704 165.649C270.56 165.597 270.435 165.505 270.345 165.382C270.254 165.26 270.201 165.114 270.194 164.961C270.186 164.809 270.224 164.659 270.302 164.528C270.38 164.397 270.495 164.292 270.633 164.227C270.77 164.162 270.924 164.138 271.075 164.16C271.225 164.182 271.366 164.248 271.479 164.35C271.63 164.488 271.72 164.68 271.73 164.885C271.741 165.089 271.67 165.289 271.534 165.441Z" fill="#263238"/>
<path d="M253.283 214.491C253.331 220.138 260.929 220.943 263.513 218.351C269.57 212.281 274.548 199.507 276.765 192.08C277.481 189.693 261.645 184.074 260.492 186.474C259.094 189.359 253.188 203.429 253.283 214.491Z" fill="#F7A9A0"/>
<path d="M273.095 196.159C275.791 193.83 277.954 190.948 279.438 187.709C280.993 184.135 283.53 175.992 276.71 166.567C275.087 164.33 271.199 162.298 272.516 166.901C273.457 170.175 275.032 171.968 275.244 173.967C275.244 173.967 269.992 171.968 267.824 173.673C265.922 175.168 264.128 176.795 262.456 178.543C262.709 178.921 262.985 179.283 263.281 179.627C261.754 181.602 260.809 183.964 260.553 186.447L273.095 196.159Z" fill="#F7A9A0"/>
<path d="M280.352 184.06C279.731 182.116 278.36 178.011 276.069 175.051C273.518 171.757 267.728 166.103 265.32 168.006C263.547 169.37 265.573 171.757 265.573 171.757C265.573 171.757 262.688 169.922 261.365 171.532C260.158 172.998 261.835 174.73 261.835 174.73C261.835 174.73 259.892 173.919 259.005 175.555C257.934 177.52 262.183 178.897 262.824 181.83C262.968 182.484 280.352 184.06 280.352 184.06Z" fill="#F7A9A0"/>
<path d="M273.034 178.318C271.301 175.426 268.726 173.133 265.655 171.743C265.58 171.709 265.512 171.743 265.58 171.798C268.312 173.671 270.806 175.869 273.007 178.345C273.007 178.345 273.048 178.338 273.034 178.318Z" fill="#263238"/>
<path d="M269.638 180.793C268.724 179.375 265.464 175.978 261.877 174.655C261.802 174.655 261.733 174.655 261.802 174.71C264.626 176.441 267.246 178.487 269.61 180.807C269.61 180.807 269.651 180.814 269.638 180.793Z" fill="#263238"/>
<path d="M252.506 215.439C252.813 221.12 260.69 222.034 263.418 219.463C269.767 213.427 274.882 200.626 277.146 193.178L258.978 187.572C257.525 190.457 251.919 204.656 252.506 215.439Z" fill="#DBDBDB"/>
<path d="M259.858 187.845L258.958 187.586C257.901 190.416 256.953 193.301 256.08 196.193C255.207 199.084 254.409 202.017 253.774 204.97C253.14 207.923 252.56 210.917 252.642 213.911C252.629 215.391 253.003 216.849 253.727 218.139C254.113 218.748 254.636 219.257 255.254 219.626C255.889 219.984 256.582 220.228 257.3 220.349C258.747 220.651 260.25 220.533 261.631 220.008C262.998 219.428 264.223 218.56 265.225 217.464C267.21 215.208 268.865 212.682 270.142 209.962C271.506 207.234 272.652 204.459 273.853 201.676C275.053 198.893 276.233 196.104 277.119 193.206L276.546 193.008L277.126 193.192C276.744 194.665 276.226 196.09 275.708 197.516C275.189 198.941 274.644 200.353 274.084 201.758C272.925 204.561 271.8 207.378 270.49 210.119C269.84 211.496 269.111 212.835 268.308 214.129C267.524 215.438 266.61 216.665 265.58 217.792C264.539 218.947 263.259 219.862 261.829 220.472C260.362 221.036 258.765 221.169 257.225 220.854C256.447 220.725 255.699 220.457 255.016 220.063C254.328 219.652 253.748 219.084 253.324 218.405C252.565 217.038 252.174 215.496 252.192 213.932C252.17 212.402 252.282 210.873 252.526 209.362C252.751 207.855 253.065 206.375 253.399 204.888C254.811 198.979 256.676 193.188 258.978 187.565L259.858 187.845Z" fill="#263238"/>
<path d="M266.078 195.245C264.714 194.856 259.319 193.397 257.941 193.199C257.9 193.199 257.887 193.274 257.941 193.287C259.217 193.86 264.604 195.483 265.955 195.872C268.646 196.695 271.377 197.377 274.139 197.918C274.2 197.918 274.234 197.823 274.18 197.802C271.525 196.809 268.821 195.956 266.078 195.245Z" fill="#263238"/>
</svg>
