<svg width="341" height="342" viewBox="0 0 341 342" fill="none" xmlns="http://www.w3.org/2000/svg">
<path d="M54.6828 213.652C55.1572 216.952 54.9858 220.313 54.1781 223.548C53.7997 225.046 53.2931 226.509 52.664 227.92C51.8797 229.727 51.0545 231.493 51.2523 233.478C51.4433 233.601 50.7885 233.58 50.7681 233.389C45.4758 230.375 38.6899 229.822 34.6183 224.898C32.7795 222.501 31.6183 219.653 31.2561 216.653C30.6504 213.355 30.7154 209.968 31.447 206.696C32.129 204.009 33.7181 201.424 36.221 200.108C38.724 198.791 42.284 198.866 45.012 199.712C50.9045 201.554 53.878 207.93 54.6828 213.652Z" fill="#00CA00"/>
<path d="M57.3973 252.84C56.6744 250.43 55.9469 248.025 55.2149 245.624C53.7622 240.919 52.2482 236.233 50.5841 231.602C49.5838 228.833 48.5267 226.087 47.4128 223.364C47.5363 221.649 47.748 219.942 48.047 218.249C48.4903 216.203 49.1314 214.218 49.7316 212.206C49.7316 212.084 49.5679 212.022 49.5133 212.138C48.3267 214.9 46.7853 218.44 46.7376 221.72C45.4464 218.638 44.0596 215.603 42.5774 212.615C42.4094 210.086 42.4871 207.546 42.8093 205.032C42.8115 205.02 42.8115 205.008 42.8091 204.996C42.8067 204.985 42.802 204.974 42.7954 204.964C42.7887 204.954 42.7802 204.946 42.7703 204.939C42.7604 204.933 42.7493 204.928 42.7377 204.926C42.726 204.924 42.7141 204.924 42.7025 204.926C42.6908 204.929 42.6798 204.933 42.67 204.94C42.6602 204.947 42.6518 204.955 42.6452 204.965C42.6387 204.975 42.6342 204.986 42.632 204.998C42.1824 207.198 42.0083 209.445 42.1136 211.688C40.9747 209.444 39.7812 207.228 38.5059 205.045C38.3899 204.848 38.1171 205.045 38.2194 205.243C40.2063 209.071 42.0614 212.97 43.7845 216.939C41.3467 214.835 38.5297 213.214 35.4846 212.165C35.355 212.118 35.2527 212.309 35.3891 212.363C38.7127 213.789 41.7527 215.801 44.3643 218.303C45.6055 221.204 46.7899 224.128 47.9175 227.074C44.6098 223.828 40.0745 221.693 35.696 220.547C35.546 220.547 35.5051 220.738 35.6483 220.779C40.7224 222.307 44.6643 225.185 48.5176 228.636C48.9677 229.829 49.4042 231.023 49.8407 232.223C51.4684 236.77 53.0234 241.33 54.5056 245.904C55.224 248.109 55.9241 250.312 56.6061 252.512C57.3495 254.886 57.9292 257.389 58.8908 259.68C58.9795 259.899 59.3751 259.851 59.3273 259.592C58.8006 257.309 58.1563 255.056 57.3973 252.84Z" fill="#263238"/>
<path d="M48.6198 209.021C47.6753 210.471 47.0285 212.094 46.717 213.795C46.717 213.836 46.7716 213.864 46.7921 213.795C47.3757 212.201 48.0591 210.646 48.8381 209.137C48.9335 208.981 48.7085 208.885 48.6198 209.021Z" fill="#263238"/>
<path d="M39.1809 220.049C37.7012 219.227 36.083 218.684 34.4069 218.447C34.3592 218.447 34.3319 218.508 34.4069 218.522C35.1708 218.842 35.9687 219.061 36.7462 219.361C37.5237 219.661 38.2739 220.043 39.0582 220.295C39.0907 220.311 39.1284 220.314 39.163 220.302C39.1975 220.291 39.226 220.266 39.2423 220.234C39.2586 220.201 39.2613 220.163 39.2498 220.129C39.2383 220.094 39.2135 220.066 39.1809 220.049Z" fill="#263238"/>
<path d="M36.521 206.785C36.0439 206.421 35.5322 206.106 34.9933 205.843C34.9765 205.838 34.9584 205.838 34.9417 205.844C34.9249 205.849 34.9105 205.86 34.9005 205.875C34.8905 205.89 34.8856 205.907 34.8863 205.925C34.887 205.942 34.8935 205.959 34.9047 205.973C35.3738 206.349 35.8787 206.678 36.4119 206.955C36.5074 207.01 36.6165 206.846 36.521 206.785Z" fill="#263238"/>
<path d="M72.5238 231.63C68.7115 232.755 64.8786 233.805 61.0663 234.924C60.7389 235.019 54.294 222.648 56.6264 216.319C57.7361 213.437 59.4754 210.839 61.7172 208.715C63.959 206.592 66.6468 204.995 69.5844 204.043C72.3124 203.122 75.6474 202.345 78.5255 202.979C81.083 203.545 82.8903 205.632 83.7155 208.039C84.8476 211.306 84.4725 215.2 83.8587 218.542C83.369 221.673 82.0767 224.625 80.1077 227.108C78.0753 229.495 75.4905 230.743 72.5238 231.63Z" fill="#00CA00"/>
<path d="M78.048 219.893C75.6307 221.073 73.1219 222.056 70.546 222.832C68.8372 223.296 67.1697 223.9 65.5606 224.639C67.1701 221.052 68.9706 217.54 70.8052 214.062C73.3629 213.422 75.7387 212.202 77.748 210.495C77.7631 210.475 77.7712 210.451 77.7707 210.426C77.7703 210.401 77.7613 210.377 77.7454 210.358C77.7295 210.339 77.7076 210.326 77.6833 210.321C77.6589 210.316 77.6336 210.32 77.6116 210.331C75.5606 211.649 73.3749 212.744 71.0916 213.598C71.6054 212.661 72.1192 211.727 72.633 210.795C72.783 210.536 72.4215 210.276 72.251 210.529C70.2342 213.436 68.4115 216.473 66.795 219.62C66.3891 216.864 66.2589 214.074 66.4063 211.293C66.4063 211.278 66.4006 211.264 66.3903 211.254C66.3801 211.244 66.3662 211.238 66.3517 211.238C66.3373 211.238 66.3234 211.244 66.3132 211.254C66.3029 211.264 66.2972 211.278 66.2972 211.293C65.8207 214.33 65.8529 217.425 66.3927 220.452C65.0287 223.119 63.8352 225.853 62.744 228.636C62.3075 226.972 61.7414 225.335 61.38 223.657C60.8005 221.257 60.6162 218.778 60.8344 216.319C60.8344 216.251 60.7321 216.244 60.7184 216.319C60.0473 220.871 60.6005 225.521 62.3211 229.788C61.68 231.453 61.0731 233.123 60.5206 234.801C57.6455 243.345 55.9431 252.24 55.4602 261.242C55.4678 261.279 55.488 261.312 55.5172 261.336C55.5463 261.36 55.5828 261.373 55.6205 261.373C55.6581 261.373 55.6946 261.36 55.7238 261.336C55.753 261.312 55.7731 261.279 55.7807 261.242C56.783 252.36 58.6912 243.603 61.4754 235.108C62.5803 231.787 63.8556 228.561 65.2469 225.396C67.4975 224.714 69.7413 223.828 71.951 223.057C74.1641 222.397 76.2522 221.374 78.1299 220.029C78.2049 219.968 78.1231 219.852 78.048 219.893Z" fill="#263238"/>
<path d="M81.6013 216.305C79.2689 217.137 77.0592 218.297 74.7336 219.136C74.6245 219.177 74.6858 219.347 74.795 219.327C77.257 218.815 79.7054 218.058 81.69 216.442C81.765 216.38 81.6832 216.278 81.6013 216.305Z" fill="#263238"/>
<path d="M62.5666 211.279C62.5666 211.156 62.4166 211.081 62.3757 211.211C61.7414 213.359 61.2981 215.637 61.9187 217.833C61.9187 217.855 61.9274 217.876 61.9427 217.891C61.9581 217.906 61.9789 217.915 62.0006 217.915C62.0223 217.915 62.0431 217.906 62.0584 217.891C62.0738 217.876 62.0824 217.855 62.0824 217.833C62.1984 215.61 62.062 213.461 62.5666 211.279Z" fill="#263238"/>
<path d="M72.1967 206.314C71.455 207.382 71.099 208.671 71.1873 209.969C71.1873 210.051 71.3237 210.099 71.3442 210.003C71.6306 208.769 72.1012 207.65 72.4831 206.457C72.4926 206.421 72.4893 206.382 72.4737 206.348C72.4582 206.314 72.4315 206.286 72.3979 206.269C72.3643 206.252 72.326 206.248 72.2894 206.256C72.2528 206.264 72.22 206.284 72.1967 206.314Z" fill="#263238"/>
<path d="M27.1846 237.072C28.303 240.618 30.9628 245.522 35.164 245.556C37.892 245.556 40.62 245.263 43.348 245.222C46.2737 245.181 49.2063 245.188 52.1253 245.358C52.364 245.358 51.7707 236.594 44.7392 232.325C42.7751 231.125 40.3608 230.75 38.1307 230.279C35.5719 229.669 32.9444 229.396 30.3149 229.468C28.6986 229.529 27.3551 229.87 26.7822 231.514C26.2093 233.157 26.6526 235.387 27.1846 237.072Z" fill="#00CA00"/>
<path d="M30.2124 232.632C31.9242 233.076 33.6224 233.58 35.3615 234.126C34.9154 233.644 34.4418 233.189 33.9429 232.762C33.1919 232.176 32.4111 231.63 31.6037 231.125C31.5423 231.077 31.6037 230.955 31.6651 230.989C33.3291 231.676 34.7661 232.817 35.8116 234.283C37.9463 234.965 40.0673 235.736 42.1065 236.574C43.5126 237.151 44.86 237.861 46.1303 238.695C45.7253 237.807 45.239 236.957 44.6776 236.158C43.7433 234.951 42.4816 234.276 41.2676 233.43C41.2423 233.415 41.2241 233.39 41.2171 233.361C41.2101 233.333 41.2147 233.302 41.2301 233.277C41.2455 233.252 41.2703 233.233 41.2991 233.226C41.3279 233.219 41.3582 233.224 41.3836 233.239C42.6552 233.799 43.7968 234.616 44.736 235.64C45.6752 236.664 46.3915 237.871 46.8396 239.186C48.3029 240.238 49.6414 241.453 50.8293 242.808C55.4805 248.093 59.1428 255.125 59.1565 262.299C59.1565 262.47 58.8837 262.518 58.8496 262.34C57.6568 255.308 54.5945 248.727 49.9836 243.285C49.6494 242.897 49.3016 242.528 48.9606 242.167C47.6855 241.993 46.4009 241.897 45.1141 241.88C43.6205 241.88 42.1338 242.105 40.6402 242.221C38.1918 242.426 35.4774 242.453 33.2609 241.219C33.1655 241.164 33.2268 240.994 33.336 241.035C38.2736 242.828 43.45 240.55 48.4014 241.621C46.2888 239.605 43.8125 238.008 41.1039 236.915L40.647 236.731C37.4825 237.113 34.1339 237.938 31.0513 236.909C31.0344 236.901 31.0207 236.888 31.0127 236.872C31.0048 236.855 31.0032 236.836 31.0083 236.819C31.0133 236.801 31.0246 236.786 31.0401 236.776C31.0555 236.766 31.0741 236.762 31.0922 236.765C34.0725 237.509 36.9301 236.574 39.8695 236.424C36.6709 235.176 33.4042 234.181 30.1919 232.946C29.926 232.81 29.9191 232.557 30.2124 232.632Z" fill="#263238"/>
<path d="M28.8146 235.79C30.3441 235.987 31.883 236.103 33.4249 236.137C33.459 236.137 33.4726 236.192 33.4249 236.199C31.8718 236.488 30.2713 236.387 28.7668 235.906C28.7054 235.851 28.7395 235.742 28.8146 235.79Z" fill="#263238"/>
<path d="M39.2287 232.714C40.0822 233.095 40.8571 233.631 41.5134 234.297C41.5953 234.372 41.5134 234.515 41.3975 234.447C41.0088 234.167 40.6132 233.901 40.2108 233.642C39.827 233.437 39.4558 233.209 39.0992 232.96C39.0666 232.943 39.0422 232.913 39.0313 232.878C39.0205 232.843 39.024 232.805 39.0412 232.772C39.0584 232.74 39.0878 232.715 39.123 232.704C39.1581 232.694 39.1962 232.697 39.2287 232.714Z" fill="#263238"/>
<path d="M64.0604 244.131C64.0059 244.247 64.1764 244.356 64.2377 244.233C64.2493 244.252 64.2653 244.269 64.2842 244.28C64.3032 244.292 64.3246 244.299 64.3469 244.302C67.1778 244.977 70.0476 245.478 72.9401 245.802C75.2657 246.007 77.9459 246.136 79.9783 244.786C82.7063 242.958 84.5545 238.075 83.0609 234.965C81.2946 231.275 75.9818 233.28 73.3152 234.59C69.2131 236.595 65.9399 239.97 64.0604 244.131Z" fill="#00CA00"/>
<path d="M61.9937 245.836C63.5474 244.338 65.2709 243.026 67.1292 241.928C68.4628 239.811 70.2349 238.004 72.326 236.629C72.4283 236.561 72.517 236.718 72.4215 236.793C70.7598 238.126 69.2849 239.677 68.0362 241.403C70.1082 240.272 72.2599 239.295 74.4743 238.477C75.2625 237.009 76.4648 235.804 77.932 235.013C77.932 235.013 77.9934 235.013 77.932 235.06C76.7227 235.978 75.6682 237.083 74.8085 238.334C76.1179 237.843 77.441 237.393 78.7573 236.97C78.88 236.929 78.9209 237.106 78.8118 237.154C76.4589 238.068 74.0378 239.037 71.7327 240.155C74.5723 240.608 77.4658 240.608 80.3054 240.155C80.3804 240.155 80.4145 240.257 80.3054 240.278C77.3423 241.154 74.1956 241.202 71.2075 240.414C69.7226 241.136 68.2811 241.945 66.8905 242.835C68.0619 242.735 69.2417 242.83 70.3823 243.115C72.3941 243.584 74.4545 243.813 76.5203 243.797C76.6021 243.797 76.6226 243.92 76.5203 243.933C72.9671 244.547 69.6048 242.931 66.0789 243.354C62.1714 245.989 59.0529 249.635 57.056 253.904C55.5761 256.919 54.7713 260.117 53.571 263.241C53.5586 263.264 53.5386 263.283 53.5142 263.293C53.4898 263.304 53.4626 263.305 53.4371 263.298C53.4116 263.291 53.3893 263.275 53.3739 263.254C53.3586 263.232 53.3511 263.206 53.3528 263.179C54.4576 257 57.513 250.221 61.9937 245.836Z" fill="#263238"/>
<path d="M72.7218 237.399C72.9559 236.98 73.2631 236.606 73.6288 236.295C73.9274 235.97 74.2835 235.704 74.6791 235.51C74.6791 235.51 74.7337 235.544 74.6791 235.572C74.3858 235.899 73.9971 236.145 73.6697 236.458C73.3424 236.772 73.09 237.14 72.7695 237.468C72.7616 237.467 72.754 237.464 72.7471 237.46C72.7403 237.456 72.7344 237.451 72.7298 237.445C72.7253 237.438 72.7222 237.431 72.7208 237.423C72.7194 237.415 72.7197 237.407 72.7218 237.399Z" fill="#263238"/>
<path d="M78.5801 239.309C79.1121 239.18 79.6713 239.186 80.2032 239.077C80.7363 238.948 81.2622 238.791 81.7787 238.607C81.794 238.6 81.8113 238.6 81.8267 238.607C81.842 238.613 81.8542 238.625 81.8605 238.641C81.8668 238.656 81.8668 238.674 81.8604 238.689C81.854 238.704 81.8418 238.716 81.8264 238.723C80.8548 239.319 79.715 239.583 78.5801 239.473C78.4983 239.459 78.5051 239.33 78.5801 239.309Z" fill="#263238"/>
<path d="M47.3445 255.575L47.8151 260.874L49.3973 278.763H63.4124L65.3902 260.874L65.9767 255.575H47.3445Z" fill="#455A64"/>
<path d="M47.3445 255.575L47.8151 260.874H65.3902L65.9767 255.575H47.3445Z" fill="#263238"/>
<path d="M45.9599 258.426H67.3611V254.129H45.9599V258.426Z" fill="#455A64"/>
<path d="M177.777 316.921C215.616 316.921 246.291 314.469 246.291 311.445C246.291 308.42 215.616 305.968 177.777 305.968C139.938 305.968 109.263 308.42 109.263 311.445C109.263 314.469 139.938 316.921 177.777 316.921Z" fill="#EBEBEB"/>
<path d="M310.59 147.641H103.828V278.762H310.59V147.641Z" fill="#3398DB"/>
<g opacity="0.1">
<path d="M310.59 147.642H103.828V278.763H310.59V147.642Z" fill="black"/>
</g>
<path d="M103.828 147.641H310.583V175.821L226.24 230.681C220.579 234.363 213.972 236.323 207.219 236.323C200.466 236.323 193.859 234.363 188.198 230.681L103.828 175.821V147.641Z" fill="#3398DB"/>
<path opacity="0.2" d="M103.828 147.641H310.583V175.821L226.24 230.681C220.579 234.363 213.972 236.323 207.219 236.323C200.466 236.323 193.859 234.363 188.198 230.681L103.828 175.821V147.641Z" fill="black"/>
<g opacity="0.1">
<path d="M285.308 261.501C293.724 267.278 302.235 272.898 310.583 278.763C301.717 273.737 292.981 268.458 284.19 263.302C275.399 258.146 266.662 252.84 257.987 247.466C248.967 241.969 239.948 236.399 230.932 230.757L229.78 231.514C227.608 233.018 225.328 234.36 222.96 235.531C215.535 239.036 207.152 239.955 199.144 238.143C196.507 237.522 193.938 236.645 191.472 235.524C189.102 234.355 186.823 233.012 184.652 231.507L183.52 230.764C174.504 236.388 165.472 241.967 156.424 247.5C147.731 252.806 139.01 258.073 130.262 263.302C121.444 268.458 112.721 273.737 103.842 278.763C112.189 272.898 120.701 267.278 129.116 261.501C137.591 255.854 146.098 250.223 154.637 244.608C163.007 239.152 171.389 233.721 179.782 228.315L178.35 227.354L165.801 218.965L159.534 214.764L153.293 210.515C136.639 199.208 120.094 187.743 103.842 175.822C121.328 185.84 138.521 196.282 155.612 206.948L162.023 210.924L168.406 214.955L181.167 223.023C182.312 223.739 183.445 224.469 184.577 225.199L187.516 227.095C187.823 227.299 188.13 227.497 188.43 227.681C190.116 228.806 191.88 229.808 193.709 230.682C195.83 231.625 198.039 232.358 200.304 232.871C202.578 233.333 204.892 233.575 207.212 233.594C211.875 233.617 216.486 232.628 220.73 230.695C222.559 229.817 224.325 228.812 226.015 227.688C226.315 227.504 226.615 227.306 226.922 227.108L229.827 225.233C230.973 224.496 232.119 223.76 233.278 223.037C241.79 217.676 250.253 212.234 258.826 206.962C275.917 196.323 293.11 185.82 310.59 175.822C294.338 187.736 277.792 199.208 261.138 210.515C252.845 216.21 244.436 221.748 236.088 227.354C235.611 227.674 235.133 227.995 234.649 228.308C243.07 233.71 251.463 239.166 259.829 244.676C268.326 250.201 276.831 255.854 285.308 261.501Z" fill="black"/>
</g>
<path d="M273.878 278.763H67.1226V103.864L170.486 38.2212L273.878 103.864V278.763Z" fill="#F39C12"/>
<path opacity="0.1" d="M263.143 278.442H77.8572V109.538L170.486 50.7153L263.143 109.538V278.442Z" fill="black"/>
<path d="M266.989 108.515H74.0176V278.34H266.989V108.515Z" fill="#EBEBEB"/>
<path d="M103.507 154.114H201.497V148.617H103.507V154.114Z" fill="#DBDBDB"/>
<path d="M209.238 135.604H239.368V130.107H209.238V135.604Z" fill="#DBDBDB"/>
<path d="M103.514 167.992H196.239V162.495H103.514V167.992Z" fill="#DBDBDB"/>
<path d="M103.507 195.75L239.368 195.75V190.253L103.507 190.253V195.75Z" fill="#DBDBDB"/>
<path d="M103.507 209.622L239.368 209.622V204.125L103.507 204.125V209.622Z" fill="#DBDBDB"/>
<path d="M103.507 223.5L239.368 223.5V218.003L103.507 218.003V223.5Z" fill="#DBDBDB"/>
<path d="M103.507 237.372L239.368 237.372V231.875L103.507 231.875V237.372Z" fill="#DBDBDB"/>
<path d="M273.878 147.641V278.756H67.1226V147.641C75.9886 152.674 84.725 157.953 93.516 163.109C102.307 168.265 111.023 173.598 119.718 178.938C129.403 184.849 139.08 190.832 148.751 196.888C148.847 196.827 148.969 196.766 149.058 196.704C148.969 196.766 148.908 196.854 148.813 196.916C156.051 201.426 163.285 205.95 170.514 210.487C177.723 205.952 184.952 201.39 192.188 196.916C192.092 196.854 192.031 196.766 191.942 196.704C192.037 196.768 192.141 196.818 192.249 196.854C201.906 190.83 211.584 184.849 221.282 178.911C229.98 173.596 238.705 168.328 247.457 163.109C256.275 157.953 264.998 152.674 273.878 147.641Z" fill="#F39C12"/>
<g opacity="0.1">
<path d="M273.877 147.642C265.53 153.514 257.018 159.133 248.603 164.91C240.125 170.557 231.621 176.211 223.082 181.796C214.166 187.634 205.234 193.42 196.286 199.153C196.007 199.344 195.761 199.528 195.482 199.712C187.561 204.773 179.623 209.833 171.666 214.894L170.5 215.61L169.347 214.894C161.404 209.833 153.477 204.764 145.566 199.685C145.286 199.528 145.007 199.344 144.727 199.153C135.752 193.411 126.809 187.616 117.897 181.769C109.393 176.211 100.888 170.557 92.4109 164.91C83.995 159.133 75.4837 153.514 67.136 147.642C76.002 152.675 84.7384 157.953 93.5294 163.109C102.32 168.265 111.036 173.599 119.732 178.939C129.416 184.849 139.094 190.833 148.765 196.889C148.765 196.889 148.765 196.889 148.826 196.889C156.064 201.399 163.298 205.923 170.527 210.461C177.736 205.925 184.965 201.363 192.201 196.889C192.235 196.827 192.235 196.827 192.263 196.827C201.92 190.803 211.597 184.822 221.295 178.884C229.993 173.569 238.718 168.302 247.47 163.082C256.275 157.953 264.998 152.675 273.877 147.642Z" fill="black"/>
<path d="M149.058 196.705C148.969 196.766 148.908 196.855 148.812 196.916C147.728 197.85 146.637 198.785 145.552 199.685C140.369 204.063 135.056 208.251 129.655 212.322C123.074 217.376 116.335 222.15 109.563 226.924C102.791 231.698 95.9231 236.267 88.9463 240.741C81.9694 245.215 74.9107 249.607 67.6201 253.597C73.8877 248.1 80.4076 242.978 86.9889 237.979C93.5702 232.98 100.342 228.152 107.074 223.371C113.805 218.59 120.714 213.993 127.725 209.526C133.283 205.953 138.93 202.447 144.707 199.153C146.071 198.375 147.373 197.632 148.744 196.889C148.846 196.827 148.969 196.766 149.058 196.705Z" fill="black"/>
<path d="M273.38 253.617C266.089 249.607 259.01 245.229 252.053 240.762C245.097 236.295 238.236 231.63 231.402 226.924C224.569 222.218 217.899 217.376 211.318 212.322C205.943 208.23 200.631 204.091 195.481 199.712C194.363 198.785 193.272 197.85 192.187 196.916C192.092 196.855 192.031 196.766 191.942 196.705C192.037 196.768 192.14 196.819 192.249 196.855C193.613 197.632 194.977 198.375 196.286 199.153C202.063 202.447 207.682 205.973 213.268 209.526C220.286 213.966 227.106 218.651 233.885 223.371C240.664 228.09 247.395 232.967 253.977 238C260.558 243.033 267.112 248.121 273.38 253.617Z" fill="black"/>
</g>
<path d="M273.878 278.756H67.1226V250.589L151.465 195.729C157.127 192.049 163.734 190.09 170.486 190.09C177.239 190.09 183.846 192.049 189.507 195.729L273.878 250.589V278.756Z" fill="#F39C12"/>
<path d="M26.1685 278.804L62.2531 278.64L98.3309 278.579L170.5 278.463L242.669 278.579L278.754 278.64L314.832 278.804L278.754 278.974L242.669 279.029L170.5 279.145L98.3309 279.029L62.2531 278.968L26.1685 278.804Z" fill="#263238"/>
<path d="M133.604 305.116C133.481 306.705 138.023 307.162 139.919 306.132C141.45 305.03 142.908 303.829 144.284 302.538C148.84 298.514 155.128 292.628 155.128 292.628L159.793 294.722L182.565 302.306L192.167 277.454C192.167 277.454 181.153 272.796 170.67 268.622L165.931 266.753L165.644 266.644C158.613 263.916 152.788 261.87 152.188 262.313C150.579 263.432 133.727 303.513 133.604 305.116Z" fill="#F7A9A0"/>
<path d="M133.604 305.109C133.481 306.705 138.023 307.155 139.919 306.132C141.45 305.03 142.908 303.829 144.284 302.538C148.84 298.521 155.135 292.628 155.135 292.628L159.793 294.722L160.55 294.974L171.011 268.752L170.677 268.615L165.903 266.76C165.808 266.712 165.705 266.678 165.617 266.644C158.585 263.916 152.761 261.87 152.161 262.313C150.579 263.432 133.727 303.513 133.604 305.109Z" fill="#EBEBEB"/>
<path d="M133.201 305.695C133.297 304.065 149.951 263.043 151.581 261.883C152.188 261.433 158.306 263.513 165.63 266.234L165.856 266.323L155.407 292.921L154.964 292.723C154.964 292.723 141.569 305.579 139.646 306.663C137.723 307.748 133.092 307.325 133.201 305.695Z" fill="#C7C7C7"/>
<path d="M134.981 305.88C137.955 299.06 149.303 271.139 151.738 264.141C151.738 264.087 151.738 264.073 151.697 264.141C148.601 270.859 137.464 298.848 134.866 305.846C134.811 305.982 134.913 306.037 134.981 305.88Z" fill="#263238"/>
<path d="M154.132 295.806C155.742 293.289 156.676 289.791 155.585 286.94C155.544 286.831 155.38 286.892 155.373 286.988C155.161 289.93 154.63 292.841 153.791 295.669C153.787 295.711 153.796 295.752 153.818 295.788C153.839 295.823 153.872 295.851 153.91 295.866C153.949 295.882 153.991 295.884 154.031 295.873C154.071 295.862 154.107 295.839 154.132 295.806Z" fill="#263238"/>
<path d="M152.154 297.314C153.77 294.797 154.705 291.298 153.607 288.448C153.566 288.332 153.409 288.393 153.402 288.495C153.182 291.435 152.651 294.343 151.82 297.17C151.809 297.213 151.814 297.258 151.834 297.297C151.853 297.336 151.886 297.367 151.926 297.384C151.966 297.402 152.011 297.404 152.053 297.391C152.095 297.378 152.131 297.351 152.154 297.314Z" fill="#263238"/>
<path d="M150.176 298.794C151.786 296.277 152.72 292.785 151.629 289.928C151.588 289.819 151.424 289.88 151.417 289.982C151.205 292.923 150.674 295.831 149.835 298.657C149.831 298.699 149.84 298.74 149.862 298.776C149.883 298.811 149.916 298.839 149.954 298.854C149.993 298.87 150.035 298.872 150.075 298.861C150.115 298.85 150.151 298.827 150.176 298.794Z" fill="#263238"/>
<path d="M158.64 301.774C160.543 301.303 160.686 299.046 160.195 297.518C159.3 294.921 157.738 292.605 155.666 290.8C155.659 290.791 155.649 290.783 155.638 290.777C155.626 290.772 155.614 290.769 155.602 290.769C155.589 290.769 155.577 290.772 155.565 290.777C155.554 290.783 155.544 290.791 155.537 290.8C155.484 290.776 155.427 290.765 155.369 290.767C155.312 290.77 155.255 290.786 155.205 290.815C155.155 290.844 155.113 290.884 155.081 290.932C155.05 290.981 155.031 291.036 155.025 291.094C154.95 293.679 154.541 296.427 155.257 298.964C155.673 300.464 156.86 302.224 158.64 301.774ZM155.707 295.056C155.707 293.781 155.789 292.519 155.748 291.244C156.669 292.529 157.522 293.861 158.306 295.233C158.68 295.891 159.006 296.575 159.281 297.279C159.69 298.384 159.963 302.231 157.167 300.539C155.625 299.632 155.7 296.57 155.707 295.056Z" fill="#263238"/>
<path d="M159.186 284.172C157.317 286.027 156.321 288.625 155.094 290.917C155.071 290.969 155.061 291.026 155.064 291.084C155.068 291.141 155.085 291.197 155.114 291.246C155.144 291.295 155.184 291.337 155.233 291.367C155.281 291.398 155.337 291.416 155.394 291.421C155.395 291.434 155.398 291.446 155.404 291.456C155.409 291.467 155.417 291.477 155.427 291.485C155.436 291.492 155.448 291.498 155.459 291.501C155.471 291.504 155.484 291.505 155.496 291.503C158.187 290.947 160.685 289.693 162.739 287.868C163.919 286.784 164.901 284.744 163.469 283.394C162.036 282.044 160.27 283.087 159.186 284.172ZM161.62 283.728C164.887 283.626 162.766 286.845 161.866 287.609C161.273 288.093 160.649 288.538 159.997 288.939C158.641 289.748 157.243 290.485 155.81 291.148C156.492 290.064 157.031 288.925 157.644 287.813C158.381 286.49 159.827 283.79 161.634 283.728H161.62Z" fill="#263238"/>
<path opacity="0.1" d="M133.201 305.695C133.092 307.325 137.73 307.741 139.646 306.657C141.563 305.572 154.964 292.716 154.964 292.716L155.407 292.914L163.68 271.895L147.414 270.436C141.951 282.848 133.27 304.522 133.201 305.695Z" fill="black"/>
<path d="M163.932 299.318C163.932 299.318 213.466 310.681 231.648 307.4C240.364 305.832 246.652 294.62 242.465 286.026C238.557 278.013 214.66 269.877 207.908 265.164C205.78 263.684 206.012 257.826 206.012 257.826L188.28 257.587C188.28 257.587 181.964 267.633 184.638 272.523C184.683 272.607 184.735 272.687 184.795 272.761L176.795 269.72L163.932 299.318Z" fill="#263238"/>
<path d="M174.892 285.931C176.863 281.641 179.032 277.454 181.03 273.184C181.071 273.103 181.2 273.143 181.166 273.232C179.27 277.536 177.524 281.894 175.554 286.19C173.583 290.487 171.462 294.674 169.368 298.916C169.32 299.025 169.143 298.964 169.19 298.855C171.107 294.538 172.928 290.2 174.892 285.931Z" fill="#455A64"/>
<path d="M184.665 272.966C185.893 273.682 187.059 274.507 188.246 275.271C189.432 276.035 190.592 276.778 191.792 277.488C194.213 278.927 196.689 280.277 199.199 281.58C204.252 284.171 209.474 286.418 214.83 288.304C217.81 289.355 220.832 290.35 223.901 291.141C223.969 291.141 223.901 291.257 223.901 291.244C221.664 290.705 219.427 290.18 217.217 289.559C218.39 290.296 219.543 291.066 220.702 291.817C220.71 291.819 220.718 291.823 220.725 291.828C220.731 291.834 220.736 291.841 220.739 291.849C220.743 291.857 220.744 291.865 220.743 291.874C220.742 291.882 220.74 291.891 220.735 291.898C220.731 291.905 220.725 291.911 220.717 291.916C220.71 291.92 220.702 291.923 220.693 291.924C220.685 291.925 220.676 291.923 220.668 291.92C220.66 291.917 220.653 291.912 220.648 291.905C219.372 291.135 218.083 290.398 216.815 289.607C216.8 289.598 216.788 289.586 216.778 289.572C216.769 289.558 216.762 289.542 216.759 289.526C216.756 289.509 216.756 289.492 216.76 289.475C216.763 289.459 216.771 289.443 216.781 289.43C216.406 289.32 216.024 289.218 215.649 289.102C212.921 288.257 210.193 287.302 207.553 286.231C202.3 284.115 197.238 281.555 192.42 278.579C191.056 277.733 189.714 276.865 188.396 275.974C187.063 275.116 185.788 274.173 184.577 273.15C184.447 273.048 184.57 272.912 184.665 272.966Z" fill="#455A64"/>
<path d="M114.576 311.192C114.453 312.781 118.996 313.238 120.891 312.209C122.425 311.108 123.885 309.91 125.263 308.621C129.812 304.597 136.1 298.705 136.1 298.705L140.765 300.806L162.855 308.362L173.167 283.53C173.167 283.53 162.152 278.866 151.67 274.664C150.061 274.023 148.472 273.403 146.93 272.803L146.644 272.693C139.612 269.965 133.788 267.919 133.188 268.363C131.578 269.515 114.726 309.597 114.576 311.192Z" fill="#F7A9A0"/>
<path d="M114.576 311.192C114.453 312.781 118.995 313.238 120.891 312.208C122.424 311.108 123.884 309.91 125.263 308.621C129.805 304.597 136.107 298.705 136.107 298.705L140.765 300.805L141.385 301.024L152.243 274.937L151.643 274.698C150.033 274.057 148.453 273.437 146.903 272.837C146.8 272.802 146.712 272.762 146.616 272.721C139.585 269.993 133.761 267.947 133.16 268.397C131.578 269.508 114.726 309.596 114.576 311.192Z" fill="#EBEBEB"/>
<path d="M114.187 311.554C114.31 309.924 131.53 269.133 133.174 268.001C133.788 267.558 139.878 269.72 147.162 272.543L147.387 272.632L136.577 299.073L136.134 298.875C136.134 298.875 122.555 311.54 120.618 312.597C118.682 313.654 114.064 313.177 114.187 311.554Z" fill="#C7C7C7"/>
<path d="M115.94 311.758C119.009 304.938 130.753 277.215 133.277 270.258C133.277 270.197 133.277 270.183 133.229 270.258C130.037 276.935 118.518 304.768 115.824 311.731C115.797 311.86 115.899 311.901 115.94 311.758Z" fill="#263238"/>
<path d="M135.261 301.944C136.912 299.455 137.894 295.97 136.837 293.078C136.796 292.969 136.639 293.03 136.625 293.126C136.374 296.064 135.805 298.966 134.927 301.78C134.905 301.825 134.902 301.876 134.918 301.922C134.934 301.969 134.968 302.008 135.012 302.029C135.056 302.051 135.108 302.054 135.154 302.038C135.201 302.022 135.239 301.988 135.261 301.944Z" fill="#263238"/>
<path d="M133.263 303.431C134.906 300.935 135.888 297.45 134.838 294.565C134.797 294.449 134.634 294.51 134.627 294.613C134.372 297.564 133.8 300.479 132.922 303.308C132.921 303.348 132.932 303.388 132.955 303.421C132.978 303.454 133.01 303.479 133.048 303.492C133.086 303.506 133.127 303.507 133.165 303.496C133.204 303.485 133.238 303.462 133.263 303.431Z" fill="#263238"/>
<path d="M131.258 304.884C132.908 302.395 133.89 298.91 132.833 296.018C132.792 295.909 132.635 295.97 132.629 296.066C132.372 299.003 131.801 301.905 130.924 304.72C130.902 304.765 130.899 304.816 130.915 304.862C130.931 304.909 130.964 304.948 131.009 304.969C131.053 304.991 131.104 304.994 131.151 304.978C131.198 304.962 131.236 304.928 131.258 304.884Z" fill="#263238"/>
<path d="M139.68 307.98C141.59 307.537 141.767 305.252 141.297 303.751C140.439 301.138 138.908 298.798 136.857 296.966C136.85 296.956 136.841 296.948 136.83 296.942C136.819 296.937 136.808 296.934 136.795 296.934C136.783 296.934 136.772 296.937 136.761 296.942C136.75 296.948 136.741 296.956 136.734 296.966C136.682 296.942 136.624 296.93 136.567 296.932C136.509 296.935 136.453 296.95 136.403 296.978C136.352 297.006 136.309 297.045 136.277 297.093C136.244 297.14 136.223 297.195 136.216 297.252C136.1 299.83 135.657 302.578 136.339 305.122C136.734 306.629 137.873 308.403 139.68 307.98ZM136.843 301.221C136.843 299.953 136.959 298.684 136.939 297.416C137.798 298.739 138.712 300.021 139.442 301.433C139.802 302.106 140.117 302.803 140.383 303.52C140.778 304.638 140.99 308.478 138.221 306.752C136.7 305.797 136.809 302.735 136.843 301.221Z" fill="#263238"/>
<path d="M140.492 290.384C138.603 292.212 137.566 294.797 136.339 297.075C136.316 297.127 136.305 297.185 136.309 297.242C136.313 297.299 136.33 297.355 136.359 297.404C136.388 297.453 136.429 297.495 136.478 297.526C136.526 297.556 136.581 297.575 136.639 297.58C136.637 297.592 136.638 297.604 136.643 297.616C136.647 297.628 136.655 297.638 136.664 297.646C136.674 297.654 136.685 297.66 136.697 297.663C136.709 297.665 136.722 297.665 136.734 297.661C139.433 297.146 141.95 295.93 144.031 294.135C145.225 293.065 146.234 291.039 144.823 289.675C143.411 288.311 141.569 289.32 140.492 290.384ZM142.94 289.982C146.2 289.921 144.038 293.106 143.131 293.863C142.531 294.335 141.902 294.77 141.249 295.165C139.885 295.997 138.453 296.625 137.027 297.32C137.709 296.236 138.275 295.111 138.91 294.006C139.633 292.69 141.113 290.009 142.913 289.982H142.94Z" fill="#263238"/>
<path d="M199.915 257.71L169.422 257.253C169.422 257.253 162.95 273.71 165.63 278.606C168.311 283.503 196.416 290.494 196.416 290.494L157.801 275.81L144.952 305.395C144.952 305.395 191.901 315.625 216.801 313.088C226.144 312.133 232.009 299.932 226.533 290.582C220.756 280.686 199.86 267.162 199.86 267.162L199.915 257.71Z" fill="#263238"/>
<path d="M158.79 275.728C170.609 281.129 182.53 286.292 194.725 290.793C196.416 291.421 198.112 292.039 199.812 292.648C201.572 293.283 203.325 294.012 205.125 294.517C205.214 294.517 205.166 294.681 205.084 294.653C203.529 294.067 201.913 293.651 200.31 293.133C198.707 292.614 197.227 292.116 195.693 291.584L193.708 290.902L194.111 291.175C194.718 291.578 195.325 291.987 195.925 292.41C197.159 293.276 198.305 294.306 199.601 295.076C199.676 295.124 199.601 295.254 199.526 295.199C198.291 294.326 196.907 293.671 195.638 292.846C195.025 292.444 194.431 292.028 193.831 291.605C193.268 291.241 192.736 290.831 192.242 290.377C190.296 289.682 188.359 288.97 186.431 288.243C180.362 285.924 174.365 283.423 168.44 280.741C165.133 279.247 161.852 277.692 158.619 276.042C158.476 275.946 158.613 275.653 158.79 275.728Z" fill="#455A64"/>
<path d="M155.21 291.755C157.187 287.465 159.349 283.271 161.348 279.001C161.382 278.92 161.518 278.967 161.477 279.049C159.581 283.353 157.835 287.717 155.864 292.007C153.893 296.297 151.772 300.498 149.679 304.74C149.631 304.849 149.454 304.788 149.501 304.672C151.404 300.355 153.245 296.024 155.21 291.755Z" fill="#455A64"/>
<path d="M200.413 267.503C203.77 269.409 206.992 271.544 210.056 273.893C213.111 276.164 216.078 278.558 218.922 281.116C220.347 282.405 221.725 283.748 223.055 285.133C224.346 286.438 225.519 287.855 226.56 289.368C228.409 292.104 229.299 295.375 229.091 298.67C228.969 300.421 228.558 302.14 227.877 303.758C227.143 305.335 226.193 306.802 225.053 308.116C225.012 308.171 224.93 308.116 224.978 308.041C226.045 306.824 226.855 305.405 227.358 303.867C227.891 302.442 228.211 300.946 228.306 299.427C228.516 296.287 227.772 293.156 226.172 290.445C224.296 287.342 221.548 284.764 218.929 282.261C216.226 279.714 213.396 277.303 210.452 275.039C208.797 273.771 207.119 272.532 205.418 271.322C203.72 270.101 202.008 268.935 200.331 267.667C200.321 267.651 200.316 267.633 200.316 267.615C200.315 267.597 200.319 267.579 200.327 267.563C200.335 267.546 200.347 267.532 200.362 267.522C200.377 267.511 200.394 267.505 200.413 267.503Z" fill="#455A64"/>
<path d="M191.546 268.731C194.082 267.95 196.696 267.451 199.342 267.245C201.94 266.951 204.539 266.815 207.157 266.774C207.226 266.774 207.219 266.876 207.157 266.883C204.511 267.115 201.865 267.449 199.239 267.845C196.614 268.24 194.145 268.779 191.581 268.984C191.424 268.997 191.424 268.779 191.546 268.731Z" fill="#455A64"/>
<path d="M170.814 269.092C172.44 269.049 174.062 268.904 175.67 268.656C177.023 268.579 178.335 268.159 179.482 267.435C181.644 265.812 182.524 262.961 182.981 260.41C182.981 260.356 183.097 260.37 183.083 260.41C182.715 263.179 182.592 266.364 180.157 268.219C178.939 269.057 177.496 269.509 176.017 269.515C174.277 269.583 172.533 269.475 170.814 269.195C170.805 269.189 170.798 269.181 170.794 269.173C170.789 269.164 170.786 269.154 170.786 269.144C170.786 269.133 170.789 269.123 170.794 269.114C170.798 269.106 170.805 269.098 170.814 269.092Z" fill="#455A64"/>
<path d="M167.458 273.484C167.625 271.874 167.91 270.279 168.311 268.71C168.693 267.101 169.15 265.512 169.675 263.936C170.255 262.156 170.923 260.397 171.625 258.658C171.625 258.596 171.755 258.624 171.728 258.692C170.725 261.631 169.804 264.618 169.041 267.633C168.659 269.126 168.324 270.627 168.018 272.141C167.666 273.598 167.666 275.117 168.018 276.574C168.438 278.055 169.29 279.378 170.466 280.373C169.437 279.56 168.624 278.507 168.099 277.305C167.575 276.104 167.355 274.791 167.458 273.484Z" fill="#455A64"/>
<path d="M162.241 282.528C164.287 283.067 166.333 283.776 168.338 284.431C170.343 285.085 172.389 285.747 174.408 286.422C178.445 287.786 182.476 289.15 186.5 290.548C188.784 291.339 191.055 292.185 193.32 293.01C193.334 293.015 193.346 293.025 193.353 293.038C193.36 293.052 193.362 293.067 193.357 293.082C193.353 293.096 193.343 293.108 193.329 293.115C193.316 293.122 193.3 293.124 193.286 293.119C185.156 290.591 177.074 287.911 169.041 285.079C166.756 284.274 164.444 283.537 162.221 282.603C162.213 282.598 162.208 282.591 162.205 282.583C162.202 282.575 162.201 282.566 162.204 282.558C162.206 282.55 162.211 282.542 162.217 282.537C162.224 282.531 162.232 282.528 162.241 282.528Z" fill="#455A64"/>
<path d="M236.531 181.496C236.531 181.91 236.367 182.308 236.074 182.6C235.781 182.893 235.384 183.058 234.969 183.058V185.049C235.175 185.049 235.378 185.09 235.567 185.168C235.757 185.247 235.929 185.362 236.074 185.507C236.219 185.652 236.334 185.824 236.412 186.013C236.491 186.203 236.531 186.406 236.531 186.611C236.531 186.816 236.491 187.019 236.412 187.209C236.334 187.398 236.219 187.57 236.074 187.715C235.929 187.86 235.757 187.975 235.567 188.054C235.378 188.132 235.175 188.173 234.969 188.173V190.164C235.384 190.164 235.781 190.329 236.074 190.622C236.367 190.915 236.531 191.312 236.531 191.726C236.531 192.14 236.367 192.538 236.074 192.83C235.781 193.123 235.384 193.288 234.969 193.288V195.279C235.175 195.279 235.378 195.32 235.567 195.398C235.757 195.477 235.929 195.592 236.074 195.737C236.219 195.882 236.334 196.054 236.412 196.243C236.491 196.433 236.531 196.636 236.531 196.841C236.531 197.046 236.491 197.249 236.412 197.439C236.334 197.628 236.219 197.8 236.074 197.945C235.929 198.09 235.757 198.205 235.567 198.284C235.378 198.362 235.175 198.403 234.969 198.403V200.387C235.367 200.414 235.739 200.59 236.011 200.881C236.283 201.171 236.435 201.555 236.435 201.953C236.435 202.351 236.283 202.734 236.011 203.025C235.739 203.315 235.367 203.492 234.969 203.518V205.502C235.384 205.502 235.781 205.667 236.074 205.96C236.367 206.253 236.531 206.65 236.531 207.064C236.531 207.478 236.367 207.876 236.074 208.169C235.781 208.461 235.384 208.626 234.969 208.626V210.365H236.804C236.804 209.951 236.969 209.554 237.261 209.261C237.554 208.968 237.952 208.803 238.366 208.803C238.78 208.803 239.177 208.968 239.47 209.261C239.763 209.554 239.928 209.951 239.928 210.365H241.912C241.898 210.151 241.928 209.936 242 209.734C242.073 209.532 242.186 209.346 242.332 209.19C242.479 209.033 242.656 208.908 242.853 208.823C243.05 208.737 243.263 208.693 243.477 208.693C243.692 208.693 243.905 208.737 244.102 208.823C244.298 208.908 244.476 209.033 244.623 209.19C244.769 209.346 244.882 209.532 244.955 209.734C245.027 209.936 245.057 210.151 245.043 210.365H247.027C247.013 210.151 247.043 209.936 247.115 209.734C247.188 209.532 247.301 209.346 247.447 209.19C247.594 209.033 247.771 208.908 247.968 208.823C248.165 208.737 248.378 208.693 248.592 208.693C248.807 208.693 249.02 208.737 249.217 208.823C249.413 208.908 249.591 209.033 249.738 209.19C249.884 209.346 249.997 209.532 250.07 209.734C250.142 209.936 250.172 210.151 250.158 210.365H252.142C252.128 210.151 252.158 209.936 252.23 209.734C252.303 209.532 252.416 209.346 252.562 209.19C252.709 209.033 252.886 208.908 253.083 208.823C253.28 208.737 253.493 208.693 253.707 208.693C253.922 208.693 254.135 208.737 254.332 208.823C254.528 208.908 254.706 209.033 254.853 209.19C254.999 209.346 255.112 209.532 255.185 209.734C255.257 209.936 255.287 210.151 255.273 210.365H257.264C257.264 209.951 257.429 209.554 257.721 209.261C258.014 208.968 258.412 208.803 258.826 208.803C259.24 208.803 259.637 208.968 259.93 209.261C260.223 209.554 260.388 209.951 260.388 210.365H262.222V208.626C261.808 208.626 261.411 208.461 261.118 208.169C260.825 207.876 260.66 207.478 260.66 207.064C260.66 206.65 260.825 206.253 261.118 205.96C261.411 205.667 261.808 205.502 262.222 205.502V203.518C262.008 203.532 261.793 203.502 261.591 203.43C261.389 203.358 261.204 203.245 261.047 203.098C260.89 202.951 260.765 202.774 260.68 202.577C260.594 202.38 260.55 202.167 260.55 201.953C260.55 201.738 260.594 201.526 260.68 201.329C260.765 201.132 260.89 200.954 261.047 200.808C261.204 200.661 261.389 200.548 261.591 200.476C261.793 200.403 262.008 200.373 262.222 200.387V198.403C262.017 198.403 261.814 198.362 261.625 198.284C261.435 198.205 261.263 198.09 261.118 197.945C260.973 197.8 260.858 197.628 260.779 197.439C260.701 197.249 260.66 197.046 260.66 196.841C260.66 196.636 260.701 196.433 260.779 196.243C260.858 196.054 260.973 195.882 261.118 195.737C261.263 195.592 261.435 195.477 261.625 195.398C261.814 195.32 262.017 195.279 262.222 195.279V193.288C261.808 193.288 261.411 193.123 261.118 192.83C260.825 192.538 260.66 192.14 260.66 191.726C260.66 191.312 260.825 190.915 261.118 190.622C261.411 190.329 261.808 190.164 262.222 190.164V188.173C262.017 188.173 261.814 188.132 261.625 188.054C261.435 187.975 261.263 187.86 261.118 187.715C260.973 187.57 260.858 187.398 260.779 187.209C260.701 187.019 260.66 186.816 260.66 186.611C260.66 186.406 260.701 186.203 260.779 186.013C260.858 185.824 260.973 185.652 261.118 185.507C261.263 185.362 261.435 185.247 261.625 185.168C261.814 185.09 262.017 185.049 262.222 185.049V183.058C261.808 183.058 261.411 182.893 261.118 182.6C260.825 182.308 260.66 181.91 260.66 181.496C260.66 181.082 260.825 180.685 261.118 180.392C261.411 180.099 261.808 179.934 262.222 179.934V178.141H260.381C260.355 178.536 260.179 178.907 259.89 179.178C259.6 179.449 259.219 179.599 258.822 179.599C258.426 179.599 258.045 179.449 257.755 179.178C257.466 178.907 257.29 178.536 257.264 178.141H255.266C255.24 178.536 255.064 178.907 254.775 179.178C254.485 179.449 254.104 179.599 253.707 179.599C253.311 179.599 252.93 179.449 252.64 179.178C252.351 178.907 252.175 178.536 252.149 178.141H250.151C250.125 178.536 249.949 178.907 249.66 179.178C249.37 179.449 248.989 179.599 248.592 179.599C248.196 179.599 247.815 179.449 247.525 179.178C247.236 178.907 247.06 178.536 247.034 178.141H245.036C245.01 178.536 244.834 178.907 244.545 179.178C244.255 179.449 243.874 179.599 243.477 179.599C243.081 179.599 242.7 179.449 242.41 179.178C242.121 178.907 241.945 178.536 241.919 178.141H239.921C239.895 178.536 239.719 178.907 239.43 179.178C239.14 179.449 238.759 179.599 238.362 179.599C237.966 179.599 237.585 179.449 237.295 179.178C237.006 178.907 236.83 178.536 236.804 178.141H234.969V179.934C235.383 179.936 235.779 180.101 236.072 180.394C236.364 180.686 236.529 181.082 236.531 181.496Z" fill="white"/>
<path d="M239.955 204.834H257.23V183.658H239.955V204.834Z" fill="#3398DB"/>
<path d="M166.258 264.489L209.674 265.935C209.674 266.787 208.46 234.856 197.869 213.973C197.153 212.555 190.367 210.822 187.277 213.496C173.685 225.213 166.238 265.041 166.258 264.489Z" fill="#455A64"/>
<path d="M196.621 224.128C197.017 223.997 197.441 223.976 197.848 224.067C198.071 224.148 198.264 224.295 198.402 224.489C198.54 224.683 198.615 224.914 198.619 225.151C198.615 225.309 198.653 225.465 198.727 225.605C198.801 225.745 198.909 225.863 199.042 225.949C199.186 226.044 199.353 226.098 199.526 226.106C199.724 226.14 199.921 226.167 200.112 226.215C199.715 226.355 199.285 226.371 198.878 226.263C198.662 226.17 198.478 226.016 198.35 225.819C198.221 225.623 198.153 225.393 198.155 225.158C198.151 225.002 198.107 224.85 198.029 224.715C197.95 224.58 197.839 224.467 197.705 224.387C197.555 224.294 197.383 224.245 197.207 224.244C197.009 224.196 196.818 224.196 196.621 224.128ZM201.04 248.68C201.216 248.686 201.387 248.738 201.538 248.83C201.672 248.909 201.784 249.022 201.863 249.157C201.942 249.292 201.985 249.445 201.988 249.601C201.986 249.836 202.054 250.066 202.183 250.262C202.311 250.459 202.495 250.613 202.711 250.706C203.118 250.815 203.548 250.798 203.945 250.658C203.752 250.611 203.556 250.575 203.359 250.549C203.186 250.537 203.019 250.481 202.874 250.385C202.742 250.3 202.634 250.183 202.56 250.044C202.486 249.906 202.449 249.751 202.452 249.594C202.448 249.356 202.373 249.126 202.237 248.931C202.101 248.737 201.91 248.587 201.688 248.503C201.278 248.414 200.851 248.438 200.453 248.571C200.647 248.624 200.842 248.667 201.04 248.7V248.68ZM186.588 232.38C186.764 232.381 186.937 232.43 187.086 232.523C187.222 232.602 187.335 232.714 187.413 232.849C187.492 232.984 187.535 233.138 187.536 233.294C187.535 233.53 187.604 233.76 187.734 233.957C187.864 234.154 188.049 234.307 188.266 234.399C188.673 234.508 189.103 234.491 189.5 234.351C189.303 234.303 189.105 234.276 188.914 234.242C188.739 234.231 188.57 234.174 188.423 234.078C188.292 233.993 188.184 233.875 188.11 233.737C188.036 233.599 187.999 233.444 188 233.287C187.997 233.051 187.922 232.82 187.786 232.627C187.65 232.433 187.458 232.285 187.236 232.203C186.827 232.112 186.4 232.133 186.002 232.264C186.186 232.332 186.397 232.38 186.588 232.38ZM178.752 257.444C178.927 257.45 179.098 257.499 179.25 257.587C179.385 257.666 179.499 257.778 179.579 257.913C179.658 258.048 179.703 258.201 179.707 258.358C179.702 258.593 179.768 258.825 179.897 259.022C180.026 259.219 180.212 259.373 180.43 259.462C180.836 259.573 181.266 259.559 181.664 259.422C181.466 259.367 181.276 259.347 181.078 259.306C180.903 259.299 180.733 259.245 180.587 259.149C180.455 259.062 180.347 258.943 180.273 258.804C180.199 258.664 180.162 258.509 180.164 258.351C180.162 258.114 180.088 257.883 179.951 257.689C179.815 257.496 179.622 257.348 179.4 257.266C178.993 257.176 178.569 257.197 178.172 257.328C178.363 257.382 178.561 257.403 178.752 257.444ZM172.88 251.142C172.75 251.262 172.594 251.348 172.423 251.394C172.271 251.433 172.111 251.433 171.96 251.392C171.808 251.351 171.669 251.272 171.557 251.163C171.391 250.996 171.179 250.882 170.949 250.835C170.719 250.788 170.48 250.809 170.261 250.897C169.811 251.094 169.647 251.483 169.422 251.804C169.6 251.701 169.75 251.579 169.92 251.469C170.046 251.349 170.205 251.268 170.377 251.238C170.531 251.204 170.69 251.21 170.841 251.255C170.991 251.301 171.127 251.384 171.236 251.497C171.406 251.662 171.622 251.772 171.856 251.812C172.09 251.853 172.33 251.821 172.546 251.722C172.898 251.497 173.183 251.181 173.371 250.808C173.228 250.91 173.044 251.033 172.88 251.142ZM190.448 247.514C190.32 247.634 190.163 247.719 189.991 247.759C189.841 247.799 189.683 247.799 189.532 247.759C189.382 247.72 189.244 247.642 189.132 247.534C188.967 247.366 188.756 247.25 188.525 247.203C188.294 247.155 188.054 247.178 187.836 247.268C187.386 247.466 187.223 247.855 186.998 248.169C187.167 248.066 187.331 247.954 187.489 247.834C187.619 247.72 187.776 247.641 187.945 247.602C188.101 247.569 188.262 247.576 188.413 247.623C188.565 247.669 188.702 247.754 188.812 247.868C188.981 248.033 189.196 248.142 189.428 248.182C189.661 248.222 189.9 248.191 190.114 248.094C190.477 247.875 190.771 247.558 190.96 247.18C190.769 247.282 190.612 247.384 190.448 247.514ZM204.3 264.646C204.175 264.769 204.02 264.856 203.85 264.898C203.698 264.938 203.539 264.938 203.387 264.899C203.236 264.859 203.097 264.782 202.984 264.673C202.819 264.505 202.608 264.389 202.377 264.34C202.146 264.292 201.907 264.313 201.688 264.4C201.238 264.598 201.074 264.987 200.849 265.307C201.026 265.205 201.176 265.082 201.34 264.973C201.519 264.804 201.755 264.709 202.002 264.709C202.248 264.709 202.484 264.804 202.663 264.973C202.832 265.14 203.048 265.251 203.282 265.292C203.516 265.334 203.756 265.303 203.972 265.205C204.325 264.977 204.61 264.659 204.798 264.284C204.6 264.434 204.464 264.537 204.3 264.646ZM198.721 237.079C198.72 237.255 198.671 237.428 198.578 237.577C198.5 237.713 198.387 237.825 198.252 237.904C198.117 237.983 197.964 238.026 197.807 238.027C197.572 238.026 197.341 238.095 197.144 238.225C196.948 238.355 196.794 238.54 196.702 238.757C196.594 239.164 196.61 239.594 196.75 239.991C196.798 239.794 196.825 239.596 196.859 239.405C196.871 239.23 196.927 239.061 197.023 238.914C197.109 238.783 197.226 238.675 197.364 238.601C197.503 238.527 197.657 238.489 197.814 238.491C198.051 238.488 198.281 238.413 198.475 238.277C198.668 238.141 198.816 237.949 198.898 237.727C198.989 237.318 198.968 236.891 198.837 236.493C198.782 236.69 198.762 236.888 198.721 237.079ZM180.846 224.558C180.839 224.733 180.789 224.903 180.703 225.056C180.624 225.191 180.512 225.304 180.377 225.383C180.242 225.462 180.088 225.504 179.932 225.506C179.696 225.504 179.465 225.572 179.268 225.702C179.072 225.832 178.918 226.018 178.827 226.235C178.716 226.642 178.731 227.072 178.868 227.47C178.923 227.272 178.943 227.074 178.984 226.883C178.994 226.709 179.048 226.54 179.141 226.392C179.228 226.261 179.347 226.154 179.486 226.08C179.626 226.006 179.781 225.968 179.939 225.969C180.175 225.965 180.404 225.889 180.598 225.753C180.791 225.617 180.939 225.426 181.023 225.206C181.114 224.798 181.093 224.374 180.962 223.978C180.907 224.196 180.887 224.367 180.846 224.558ZM180.846 241.655C180.838 241.83 180.788 242.001 180.703 242.153C180.622 242.287 180.51 242.398 180.375 242.477C180.24 242.556 180.088 242.599 179.932 242.603C179.697 242.6 179.466 242.667 179.269 242.796C179.072 242.925 178.918 243.109 178.827 243.326C178.716 243.733 178.731 244.163 178.868 244.561C178.923 244.363 178.943 244.172 178.984 243.974C178.992 243.802 179.046 243.635 179.141 243.49C179.227 243.357 179.345 243.248 179.485 243.173C179.624 243.098 179.78 243.059 179.939 243.06C180.176 243.058 180.406 242.984 180.6 242.848C180.794 242.711 180.941 242.519 181.023 242.297C181.114 241.889 181.093 241.465 180.962 241.069C180.907 241.246 180.887 241.458 180.846 241.655ZM194.588 256.38C194.582 256.556 194.53 256.727 194.438 256.878C194.358 257.011 194.245 257.123 194.11 257.202C193.976 257.28 193.823 257.324 193.667 257.328C193.433 257.326 193.202 257.394 193.006 257.523C192.809 257.651 192.655 257.835 192.563 258.051C192.454 258.458 192.471 258.888 192.61 259.285C192.665 259.087 192.685 258.896 192.726 258.699C192.731 258.526 192.786 258.358 192.883 258.214C192.968 258.082 193.085 257.972 193.223 257.897C193.362 257.822 193.517 257.783 193.674 257.785C193.912 257.783 194.144 257.709 194.339 257.573C194.534 257.436 194.682 257.244 194.765 257.021C194.854 256.613 194.831 256.189 194.697 255.793C194.65 255.991 194.622 256.182 194.588 256.38ZM188.232 218.87C188.36 218.749 188.518 218.665 188.689 218.624C188.841 218.586 188.999 218.586 189.151 218.625C189.302 218.665 189.441 218.742 189.555 218.849C189.719 219.018 189.929 219.133 190.159 219.18C190.388 219.228 190.627 219.205 190.844 219.115C191.209 218.905 191.503 218.592 191.69 218.215C191.517 218.316 191.351 218.428 191.192 218.549C191.062 218.665 190.905 218.744 190.735 218.781C190.581 218.815 190.421 218.808 190.27 218.761C190.12 218.715 189.984 218.63 189.876 218.515C189.705 218.351 189.489 218.242 189.255 218.202C189.022 218.162 188.782 218.193 188.566 218.29C188.214 218.515 187.929 218.831 187.741 219.204C187.918 219.122 188.068 219.006 188.232 218.89V218.87Z" fill="white"/>
<path d="M196.573 219.552C194.472 219.872 190.38 217.083 189.153 214.014C189.071 213.803 189.623 211.763 190.182 209.24C190.517 207.712 190.864 206.007 191.042 204.425C191.083 204.098 200.658 208.04 200.658 208.04C199.851 209.947 199.283 211.947 198.967 213.994C198.945 214.22 198.945 214.449 198.967 214.676C198.97 214.712 198.97 214.748 198.967 214.785C199.008 216.012 198.823 219.218 196.573 219.552Z" fill="#F7A9A0"/>
<path d="M198.96 214.648C198.96 214.682 198.96 214.716 198.96 214.757C198.62 214.757 198.281 214.734 197.944 214.689C192.119 213.85 191.472 206.355 191.396 204.459C193.129 204.923 200.672 208.026 200.672 208.026C199.863 209.933 199.292 211.933 198.973 213.98C198.948 214.202 198.943 214.425 198.96 214.648Z" fill="#263238"/>
<path d="M201.34 187.491C201.34 187.491 204.682 188.712 205.432 192.012C206.182 195.313 205.568 198.832 205.289 199.023C205.009 199.214 201.34 187.491 201.34 187.491Z" fill="#263238"/>
<path d="M188.839 193.507C187.973 197.107 190.435 207.208 193.081 209.336C196.914 212.425 202.902 212.391 205.452 207.849C207.921 203.443 204.477 190.335 201.551 188.426C197.234 185.609 190.128 188.18 188.839 193.507Z" fill="#F7A9A0"/>
<path d="M199.144 199.024C199.144 199.024 199.103 199.072 199.144 199.099C199.328 199.781 199.424 200.579 198.865 200.954V200.988C199.581 200.702 199.444 199.645 199.144 199.024Z" fill="#263238"/>
<path d="M198.38 198.457C197.268 198.635 197.698 200.851 198.735 200.687C199.771 200.524 199.314 198.28 198.38 198.457Z" fill="#263238"/>
<path d="M203.161 198.348C203.161 198.348 203.222 198.348 203.222 198.403C203.338 199.085 203.584 199.862 204.252 199.971C203.475 200.053 203.154 199.023 203.161 198.348Z" fill="#263238"/>
<path d="M203.632 197.51C204.716 197.209 205.241 199.406 204.239 199.685C203.236 199.965 202.718 197.762 203.632 197.51Z" fill="#263238"/>
<path d="M197.303 197.598C197.579 197.456 197.848 197.299 198.107 197.128C198.407 196.937 198.673 196.828 198.83 196.487C198.864 196.387 198.864 196.278 198.829 196.178C198.795 196.078 198.728 195.992 198.639 195.934C198.448 195.846 198.237 195.809 198.028 195.828C197.818 195.847 197.617 195.922 197.446 196.043C197.059 196.239 196.76 196.572 196.607 196.978C196.578 197.072 196.576 197.172 196.602 197.267C196.628 197.362 196.681 197.447 196.754 197.513C196.828 197.578 196.919 197.621 197.016 197.636C197.113 197.651 197.213 197.638 197.303 197.598Z" fill="#263238"/>
<path d="M204.266 196.234C203.952 196.234 203.659 196.2 203.338 196.18C203.009 196.206 202.68 196.122 202.404 195.941C202.327 195.868 202.277 195.771 202.262 195.665C202.247 195.56 202.268 195.453 202.322 195.361C202.451 195.194 202.622 195.065 202.817 194.987C203.013 194.909 203.226 194.885 203.434 194.918C203.866 194.917 204.283 195.075 204.607 195.361C204.677 195.432 204.726 195.521 204.746 195.618C204.766 195.716 204.758 195.817 204.722 195.909C204.686 196.002 204.623 196.082 204.542 196.14C204.461 196.197 204.365 196.23 204.266 196.234Z" fill="#263238"/>
<path d="M199.785 205.53C199.983 205.653 200.187 205.844 200.467 205.817C200.714 205.758 200.946 205.649 201.149 205.496C201.149 205.496 201.197 205.496 201.183 205.496C201.112 205.651 201 205.783 200.86 205.879C200.719 205.975 200.555 206.031 200.385 206.042C200.234 206.038 200.088 205.988 199.967 205.899C199.845 205.81 199.753 205.686 199.703 205.544C199.701 205.533 199.704 205.522 199.71 205.513C199.717 205.504 199.726 205.498 199.737 205.496C199.748 205.494 199.759 205.497 199.768 205.503C199.777 205.51 199.783 205.519 199.785 205.53Z" fill="#263238"/>
<path d="M200.099 203.327C200.327 203.565 200.601 203.752 200.905 203.878C201.209 204.003 201.536 204.064 201.865 204.057C202.154 204.057 202.441 204.015 202.718 203.934L202.875 203.88C202.924 203.867 202.973 203.849 203.018 203.825C203.053 203.812 203.083 203.787 203.103 203.755C203.122 203.723 203.131 203.685 203.127 203.648C203.129 203.625 203.129 203.602 203.127 203.579V203.525C203.038 202.993 202.827 202.195 202.827 202.195C203.038 202.256 204.109 202.502 204.041 202.195C203.509 199.822 202.736 197.51 201.736 195.293C201.702 195.225 201.592 195.293 201.613 195.334C202.09 197.53 202.977 199.631 203.475 201.827C203.092 201.731 202.696 201.692 202.302 201.711C202.234 201.745 202.738 203.238 202.759 203.477C202.334 203.609 201.887 203.652 201.445 203.605C201.003 203.558 200.575 203.422 200.188 203.204C200.092 203.225 200.051 203.279 200.099 203.327Z" fill="#263238"/>
<path d="M202.349 203.736C202.135 204.173 201.811 204.547 201.408 204.82C201.186 204.959 200.927 205.028 200.665 205.018C200.085 204.984 199.983 204.479 199.983 204.029C199.993 203.798 200.032 203.569 200.099 203.347C200.788 203.716 201.577 203.852 202.349 203.736Z" fill="#263238"/>
<path d="M201.408 204.807C201.186 204.946 200.927 205.015 200.665 205.005C200.085 204.971 199.983 204.466 199.983 204.016C200.275 203.966 200.575 204.017 200.835 204.161C201.094 204.305 201.296 204.532 201.408 204.807Z" fill="#FF99BA"/>
<path d="M190.469 203.054C191.683 203.054 192.031 199.365 192.038 197.973C192.038 196.746 191.403 193.036 191.39 192.77C191.376 192.504 197.146 194.611 199.73 193.001C202.315 191.392 203.495 188.343 203.209 187.15C202.922 185.956 198.585 183.945 195.516 184.633C192.447 185.322 189.425 190.308 189.425 190.308C189.763 189.608 190.046 188.883 190.271 188.139C190.182 188.016 188.45 189.339 188.477 190.867C188.477 190.867 188.375 189.012 188.218 189.019C188.061 189.025 186.963 190.949 187.618 191.985C187.618 191.985 186.254 193.997 186.588 195.716C186.923 197.434 189.044 203.054 190.469 203.054Z" fill="#263238"/>
<path d="M201.572 191.87C200.862 192.549 200.055 193.119 199.178 193.561C198.167 193.942 197.077 194.067 196.007 193.922C194.934 193.814 193.886 193.533 192.904 193.09C192.037 192.709 191.219 192.183 190.319 191.876C190.101 191.795 189.957 192.129 190.121 192.272C191.866 193.685 194.017 194.502 196.259 194.604C197.305 194.651 198.346 194.424 199.277 193.945C200.209 193.467 201 192.754 201.572 191.876C201.572 191.876 201.579 191.856 201.572 191.87Z" fill="#263238"/>
<path d="M191.915 201.779C191.915 201.779 189.351 198.662 187.918 199.603C186.486 200.545 188.6 205.189 190.408 205.7C190.635 205.782 190.876 205.818 191.117 205.804C191.359 205.79 191.594 205.728 191.811 205.621C192.028 205.514 192.22 205.365 192.378 205.181C192.535 204.998 192.654 204.785 192.726 204.555L191.915 201.779Z" fill="#F7A9A0"/>
<path d="M188.559 200.919V200.967C189.828 201.37 190.571 202.461 191.117 203.607C191.035 203.489 190.928 203.391 190.805 203.319C190.681 203.247 190.543 203.202 190.401 203.188C190.259 203.174 190.115 203.19 189.979 203.237C189.844 203.283 189.72 203.358 189.616 203.456C189.612 203.463 189.611 203.471 189.611 203.478C189.611 203.486 189.613 203.494 189.618 203.5C189.622 203.506 189.628 203.512 189.635 203.515C189.642 203.518 189.65 203.519 189.657 203.518C189.868 203.432 190.101 203.413 190.323 203.464C190.546 203.515 190.747 203.634 190.899 203.804C191.158 204.091 191.387 204.404 191.581 204.739C191.649 204.848 191.84 204.739 191.792 204.65C191.642 203.054 190.278 200.947 188.559 200.919Z" fill="#263238"/>
<path d="M188.757 227.163C197.33 233.158 214.762 246.129 222.448 245.113C232.528 243.749 246.12 229.332 249.857 225.635C251.487 224.026 241.428 212.554 238.98 212.677C236.531 212.8 219.556 227.47 217.838 228.104C216.119 228.738 201.285 221.871 192.713 219.545C181.903 216.619 181.501 222.096 188.757 227.163Z" fill="#F7A9A0"/>
<path d="M246.127 209.622C244.995 209.929 244.831 209.342 246.072 207.671C247.314 206 253.642 200.469 251.528 198.43C249.414 196.391 240.616 204.323 238.741 207.255C236.865 210.188 234.908 215.576 234.908 215.576C236.927 214.375 242.11 211.92 246.127 209.622Z" fill="#F7A9A0"/>
<path d="M245.336 229.434C250.914 225.84 258.082 221.707 261.451 215.017C261.845 214.285 261.98 213.441 261.833 212.623C263.402 209.649 262.468 208.019 262.468 208.019C263.075 204.807 261.895 203.245 261.895 203.245C261.895 203.245 263.688 199.74 261.751 198.301C259.583 196.678 257.482 201.922 254.563 204.098C247.873 209.083 236.974 214.328 234.901 215.549L245.336 229.434Z" fill="#F7A9A0"/>
<path d="M251.228 214.273C253.2 212.837 255.073 211.269 256.834 209.581C258.643 207.609 260.303 205.505 261.799 203.286C261.81 203.274 261.824 203.265 261.84 203.263C261.856 203.26 261.872 203.263 261.886 203.271C261.9 203.279 261.911 203.292 261.916 203.307C261.921 203.323 261.921 203.339 261.915 203.354C259.449 207.925 255.776 211.733 251.296 214.362C251.194 214.423 251.133 214.355 251.228 214.273Z" fill="#263238"/>
<path d="M253.65 218.74C255.457 217.171 258.608 214.389 262.4 207.971H262.44C260.597 212.336 257.571 216.099 253.704 218.835C253.609 218.924 253.534 218.856 253.65 218.74Z" fill="#263238"/>
<path d="M255 221.127C257.966 218.338 259.487 216.21 261.82 212.623H261.861C259.637 216.967 258.341 218.29 255.088 221.216C254.966 221.345 254.884 221.236 255 221.127Z" fill="#263238"/>
<path d="M204.525 222.457L201.981 238.239C201.981 238.239 187.905 227.709 184.645 223.439C180.969 218.665 184.229 217.813 189.93 218.522C195.632 219.231 204.525 222.457 204.525 222.457Z" fill="#455A64"/>
<path d="M196.62 224.128C197.017 223.997 197.441 223.976 197.848 224.066C198.071 224.148 198.264 224.295 198.402 224.489C198.54 224.682 198.615 224.913 198.619 225.151C198.615 225.309 198.653 225.465 198.727 225.605C198.801 225.744 198.909 225.863 199.042 225.949C199.186 226.043 199.353 226.097 199.526 226.105C199.724 226.14 199.921 226.167 200.112 226.215C199.715 226.354 199.285 226.371 198.878 226.262C198.662 226.17 198.478 226.016 198.35 225.819C198.221 225.622 198.153 225.392 198.155 225.157C198.151 225.002 198.107 224.849 198.029 224.714C197.95 224.58 197.839 224.467 197.705 224.387C197.555 224.294 197.383 224.244 197.207 224.244C197.009 224.196 196.818 224.196 196.62 224.128ZM191.035 218.672C190.854 218.782 190.642 218.827 190.432 218.8C190.223 218.772 190.029 218.674 189.882 218.522C189.398 218.46 188.934 218.413 188.518 218.378C188.218 218.606 187.971 218.897 187.795 219.231C187.973 219.129 188.123 219.013 188.286 218.897C188.415 218.776 188.572 218.692 188.743 218.651C188.895 218.613 189.054 218.613 189.205 218.652C189.357 218.692 189.496 218.769 189.61 218.876C189.773 219.044 189.983 219.16 190.213 219.207C190.443 219.254 190.682 219.232 190.899 219.142C191.098 219.056 191.27 218.917 191.396 218.74L191.035 218.672Z" fill="white"/>
<path d="M201.586 222.553C200.985 224.517 200.031 230.662 199.86 231.678C199.771 232.217 199.512 234.365 199.417 234.897C199.417 234.965 199.512 234.972 199.526 234.897C199.703 233.881 199.983 232.851 200.174 231.862C200.365 230.873 201.538 224.626 201.661 222.559C201.661 222.525 201.592 222.512 201.586 222.553Z" fill="#263238"/>
<path d="M198.08 220.104C197.309 219.77 196.539 219.422 195.754 219.115C196.314 219.388 196.88 219.647 197.446 219.899C196.245 219.579 195.045 219.279 193.838 219.033C193.838 219.033 193.838 219.033 193.838 219.067C195.604 219.702 197.398 220.24 199.178 220.834C200.958 221.427 202.677 221.966 204.429 222.518C204.429 222.887 204.429 223.255 204.429 223.623C204.429 223.638 204.435 223.651 204.445 223.662C204.456 223.672 204.469 223.678 204.484 223.678C204.498 223.678 204.512 223.672 204.522 223.662C204.533 223.651 204.538 223.638 204.538 223.623C204.62 223.234 204.702 222.839 204.804 222.45C204.819 222.406 204.816 222.357 204.797 222.315C204.778 222.272 204.745 222.238 204.702 222.218C202.506 221.468 200.303 220.725 198.08 220.104Z" fill="#263238"/>
<path d="M193.551 232.257C192.869 231.793 192.14 231.33 191.451 230.845C191.983 231.166 192.508 231.493 193.033 231.834C192.106 231.002 191.199 230.163 190.305 229.284C191.799 230.409 193.231 231.623 194.704 232.789C196.177 233.955 200.433 237.024 201.858 238.191C201.858 238.191 202.001 237.127 202.124 236.554C202.124 236.486 202.254 236.479 202.254 236.554C202.248 237.27 202.166 237.983 202.008 238.682C200.235 237.27 195.291 233.778 193.551 232.257Z" fill="#263238"/>
</svg>
