<svg width="341" height="342" viewBox="0 0 341 342" fill="none" xmlns="http://www.w3.org/2000/svg">
<path d="M71.7396 302.019C91.1036 302.019 106.801 298.996 106.801 295.267C106.801 291.538 91.1036 288.515 71.7396 288.515C52.3756 288.515 36.678 291.538 36.678 295.267C36.678 298.996 52.3756 302.019 71.7396 302.019Z" fill="#EBEBEB"/>
<path d="M125.181 170.107H81.2878V144.347H81.9698V169.425H125.181V170.107Z" fill="#F39C12"/>
<path d="M183.663 131.737H182.981V107.56H54.833V106.878H183.663V131.737Z" fill="#F39C12"/>
<path d="M268.128 144.689H70.9893C69.8852 144.678 68.8299 144.232 68.0523 143.448C67.2748 142.664 66.8377 141.605 66.8359 140.501V107.219H67.5179V140.501C67.5179 141.431 67.8873 142.322 68.5447 142.98C69.2021 143.637 70.0937 144.007 71.0234 144.007H268.128V144.689Z" fill="#F39C12"/>
<path d="M91.3474 119.468H71.0033C69.895 119.459 68.8352 119.013 68.0547 118.226C67.2742 117.439 66.8363 116.375 66.8363 115.267V112.259L59.7776 107.485L60.1595 106.919L67.5183 111.891V115.267C67.5183 116.2 67.8891 117.096 68.549 117.756C69.209 118.415 70.1041 118.786 71.0374 118.786H91.3815C92.3148 118.786 93.2099 118.415 93.8699 117.756C94.5298 117.096 94.9006 116.2 94.9006 115.267V111.455L101.039 106.947L101.441 107.499L95.5758 111.796V115.267C95.5758 115.821 95.4662 116.37 95.2534 116.881C95.0406 117.393 94.7287 117.857 94.3357 118.247C93.9427 118.638 93.4763 118.947 92.9634 119.156C92.4506 119.366 91.9014 119.472 91.3474 119.468Z" fill="#F39C12"/>
<path d="M105.628 144.586L100.854 139.812V122.98C100.852 122.049 100.482 121.157 99.8233 120.499C99.165 119.841 98.2727 119.47 97.3417 119.468H87.7051V118.786H97.3622C98.474 118.788 99.5398 119.23 100.326 120.017C101.112 120.803 101.555 121.869 101.556 122.98V139.553L106.105 144.109L105.628 144.586Z" fill="#F39C12"/>
<path d="M200.112 144.811L196.02 140.719V135.577C196.02 134.647 195.651 133.754 194.994 133.096C194.337 132.437 193.445 132.066 192.515 132.065H161.634C160.704 132.066 159.812 132.437 159.155 133.096C158.498 133.754 158.129 134.647 158.129 135.577V140.719L154.275 144.572L153.791 144.095L157.447 140.44V135.577C157.448 134.466 157.89 133.401 158.675 132.615C159.459 131.829 160.523 131.386 161.634 131.383H192.529C193.64 131.384 194.705 131.827 195.49 132.613C196.275 133.4 196.716 134.466 196.716 135.577V140.44L200.597 144.32L200.112 144.811Z" fill="#F39C12"/>
<path d="M132.635 157.899H106.938C105.828 157.897 104.764 157.455 103.979 156.67C103.194 155.885 102.752 154.821 102.75 153.711V149.217L98.1194 144.586L98.6036 144.109L103.432 148.937V153.711C103.432 154.641 103.801 155.533 104.459 156.19C105.116 156.847 106.008 157.217 106.938 157.217H132.635C133.566 157.217 134.458 156.848 135.117 156.19C135.775 155.533 136.146 154.642 136.148 153.711V149.176L140.976 144.347L141.454 144.825L136.83 149.456V153.725C136.823 154.833 136.378 155.894 135.592 156.675C134.806 157.457 133.744 157.897 132.635 157.899Z" fill="#F39C12"/>
<path d="M253.172 157.899H227.467C226.357 157.897 225.293 157.455 224.508 156.67C223.724 155.885 223.282 154.821 223.28 153.711V149.217L218.649 144.586L219.133 144.109L223.962 148.937V153.711C223.964 154.64 224.334 155.531 224.991 156.188C225.648 156.845 226.538 157.215 227.467 157.217H253.172C254.101 157.215 254.992 156.845 255.649 156.188C256.306 155.531 256.676 154.64 256.677 153.711V149.176L261.506 144.347L261.99 144.825L257.359 149.456V153.725C257.354 154.833 256.911 155.893 256.126 156.675C255.342 157.457 254.28 157.897 253.172 157.899Z" fill="#F39C12"/>
<path d="M58.652 107.219C58.6533 107.979 58.4293 108.722 58.0082 109.354C57.5871 109.987 56.9879 110.48 56.2864 110.772C55.5849 111.063 54.8127 111.14 54.0674 110.993C53.3222 110.845 52.6374 110.48 52.0997 109.944C51.562 109.407 51.1956 108.723 51.0469 107.978C50.8982 107.233 50.9739 106.46 51.2643 105.758C51.5547 105.056 52.0468 104.456 52.6784 104.034C53.31 103.612 54.0526 103.386 54.8123 103.386C55.8295 103.386 56.8051 103.79 57.525 104.509C58.2448 105.227 58.6502 106.202 58.652 107.219Z" fill="#F39C12"/>
<path d="M115.238 111.059C117.358 111.059 119.078 109.34 119.078 107.22C119.078 105.099 117.358 103.38 115.238 103.38C113.117 103.38 111.398 105.099 111.398 107.22C111.398 109.34 113.117 111.059 115.238 111.059Z" fill="#F39C12"/>
<path d="M115.238 148.487C117.358 148.487 119.078 146.768 119.078 144.648C119.078 142.527 117.358 140.808 115.238 140.808C113.117 140.808 111.398 142.527 111.398 144.648C111.398 146.768 113.117 148.487 115.238 148.487Z" fill="white"/>
<path d="M115.258 148.828C114.431 148.828 113.623 148.583 112.935 148.124C112.248 147.664 111.712 147.011 111.396 146.247C111.079 145.483 110.996 144.643 111.158 143.832C111.319 143.021 111.717 142.276 112.302 141.691C112.887 141.107 113.631 140.708 114.442 140.547C115.253 140.386 116.094 140.469 116.858 140.785C117.622 141.101 118.275 141.637 118.734 142.325C119.194 143.012 119.439 143.821 119.439 144.647C119.437 145.756 118.996 146.818 118.212 147.602C117.429 148.385 116.366 148.826 115.258 148.828ZM115.258 141.149C114.566 141.149 113.89 141.354 113.314 141.738C112.739 142.123 112.291 142.669 112.026 143.309C111.761 143.948 111.692 144.651 111.827 145.33C111.962 146.009 112.295 146.632 112.784 147.121C113.273 147.611 113.897 147.944 114.575 148.079C115.254 148.214 115.958 148.145 116.597 147.88C117.236 147.615 117.783 147.167 118.167 146.591C118.552 146.016 118.757 145.339 118.757 144.647C118.757 143.72 118.388 142.83 117.732 142.174C117.076 141.517 116.186 141.149 115.258 141.149Z" fill="#F39C12"/>
<path d="M151.95 144.648C151.95 145.407 151.724 146.149 151.302 146.781C150.881 147.412 150.281 147.904 149.579 148.195C148.878 148.486 148.106 148.562 147.361 148.413C146.616 148.265 145.932 147.9 145.395 147.363C144.858 146.826 144.492 146.141 144.344 145.397C144.196 144.652 144.272 143.88 144.563 143.178C144.853 142.477 145.345 141.877 145.977 141.455C146.608 141.033 147.351 140.808 148.11 140.808C149.128 140.808 150.105 141.212 150.825 141.932C151.545 142.653 151.95 143.629 151.95 144.648Z" fill="white"/>
<path d="M148.11 148.828C147.283 148.828 146.475 148.583 145.787 148.124C145.1 147.664 144.564 147.011 144.247 146.247C143.931 145.483 143.848 144.643 144.01 143.832C144.171 143.021 144.569 142.276 145.154 141.691C145.738 141.107 146.483 140.708 147.294 140.547C148.105 140.386 148.946 140.469 149.71 140.785C150.474 141.101 151.127 141.637 151.586 142.325C152.045 143.012 152.291 143.821 152.291 144.647C152.289 145.756 151.848 146.818 151.064 147.602C150.28 148.385 149.218 148.826 148.11 148.828ZM148.11 141.149C147.418 141.149 146.741 141.354 146.166 141.738C145.591 142.123 145.142 142.669 144.878 143.309C144.613 143.948 144.543 144.651 144.678 145.33C144.813 146.009 145.147 146.632 145.636 147.121C146.125 147.611 146.749 147.944 147.427 148.079C148.106 148.214 148.809 148.145 149.449 147.88C150.088 147.615 150.634 147.167 151.019 146.591C151.403 146.016 151.609 145.339 151.609 144.647C151.609 143.72 151.24 142.83 150.584 142.174C149.928 141.517 149.038 141.149 148.11 141.149Z" fill="#F39C12"/>
<path d="M119.078 157.558C119.078 158.317 118.852 159.06 118.43 159.691C118.009 160.323 117.409 160.815 116.707 161.105C116.006 161.396 115.234 161.472 114.489 161.324C113.744 161.176 113.06 160.81 112.523 160.273C111.986 159.736 111.62 159.052 111.472 158.307C111.324 157.562 111.4 156.79 111.69 156.089C111.981 155.387 112.473 154.787 113.105 154.365C113.736 153.943 114.478 153.718 115.238 153.718C116.256 153.718 117.233 154.123 117.953 154.843C118.673 155.563 119.078 156.54 119.078 157.558Z" fill="#F39C12"/>
<path opacity="0.2" d="M119.078 157.558C119.078 158.317 118.852 159.06 118.43 159.691C118.009 160.323 117.409 160.815 116.707 161.105C116.006 161.396 115.234 161.472 114.489 161.324C113.744 161.176 113.06 160.81 112.523 160.273C111.986 159.736 111.62 159.052 111.472 158.307C111.324 157.562 111.4 156.79 111.69 156.089C111.981 155.387 112.473 154.787 113.105 154.365C113.736 153.943 114.478 153.718 115.238 153.718C116.256 153.718 117.233 154.123 117.953 154.843C118.673 155.563 119.078 156.54 119.078 157.558Z" fill="#151D26"/>
<path d="M128.421 157.558C128.421 158.317 128.195 159.06 127.773 159.691C127.352 160.323 126.752 160.815 126.05 161.105C125.349 161.396 124.577 161.472 123.832 161.324C123.087 161.176 122.403 160.81 121.866 160.273C121.329 159.736 120.963 159.052 120.815 158.307C120.667 157.562 120.743 156.79 121.033 156.089C121.324 155.387 121.816 154.787 122.448 154.365C123.079 153.943 123.821 153.718 124.581 153.718C125.599 153.718 126.576 154.123 127.296 154.843C128.016 155.563 128.421 156.54 128.421 157.558Z" fill="#F39C12"/>
<path opacity="0.2" d="M128.421 157.558C128.421 158.317 128.195 159.06 127.773 159.691C127.352 160.323 126.752 160.815 126.05 161.105C125.349 161.396 124.577 161.472 123.832 161.324C123.087 161.176 122.403 160.81 121.866 160.273C121.329 159.736 120.963 159.052 120.815 158.307C120.667 157.562 120.743 156.79 121.033 156.089C121.324 155.387 121.816 154.787 122.448 154.365C123.079 153.943 123.821 153.718 124.581 153.718C125.599 153.718 126.576 154.123 127.296 154.843C128.016 155.563 128.421 156.54 128.421 157.558Z" fill="#151D26"/>
<path d="M239.696 157.558C239.696 158.317 239.471 159.06 239.049 159.691C238.627 160.323 238.027 160.815 237.326 161.105C236.624 161.396 235.852 161.472 235.107 161.324C234.362 161.176 233.678 160.81 233.141 160.273C232.604 159.736 232.239 159.052 232.09 158.307C231.942 157.562 232.018 156.79 232.309 156.089C232.6 155.387 233.092 154.787 233.723 154.365C234.355 153.943 235.097 153.718 235.856 153.718C236.875 153.718 237.851 154.123 238.571 154.843C239.291 155.563 239.696 156.54 239.696 157.558Z" fill="#F39C12"/>
<path d="M248.998 157.558C248.998 158.317 248.773 159.06 248.351 159.691C247.929 160.323 247.33 160.815 246.628 161.105C245.927 161.396 245.154 161.472 244.41 161.324C243.665 161.176 242.981 160.81 242.444 160.273C241.907 159.736 241.541 159.052 241.393 158.307C241.245 157.562 241.321 156.79 241.611 156.089C241.902 155.387 242.394 154.787 243.026 154.365C243.657 153.943 244.399 153.718 245.159 153.718C246.177 153.718 247.154 154.123 247.874 154.843C248.594 155.563 248.998 156.54 248.998 157.558Z" fill="#F39C12"/>
<path d="M183.322 111.059C185.442 111.059 187.161 109.34 187.161 107.22C187.161 105.099 185.442 103.38 183.322 103.38C181.201 103.38 179.482 105.099 179.482 107.22C179.482 109.34 181.201 111.059 183.322 111.059Z" fill="#F39C12"/>
<path d="M81.6285 123.321C83.7491 123.321 85.4681 121.602 85.4681 119.482C85.4681 117.361 83.7491 115.642 81.6285 115.642C79.5079 115.642 77.7888 117.361 77.7888 119.482C77.7888 121.602 79.5079 123.321 81.6285 123.321Z" fill="#F39C12"/>
<path d="M81.6285 148.187C83.7491 148.187 85.4681 146.468 85.4681 144.347C85.4681 142.227 83.7491 140.508 81.6285 140.508C79.5079 140.508 77.7888 142.227 77.7888 144.347C77.7888 146.468 79.5079 148.187 81.6285 148.187Z" fill="white"/>
<path d="M81.6286 148.528C80.8015 148.529 79.9925 148.285 79.3041 147.827C78.6157 147.368 78.0788 146.716 77.7614 145.952C77.4439 145.188 77.3601 144.347 77.5207 143.536C77.6812 142.725 78.0788 141.979 78.6632 141.394C79.2476 140.808 79.9926 140.409 80.8037 140.248C81.6149 140.086 82.4558 140.168 83.2201 140.484C83.9844 140.801 84.6378 141.336 85.0974 142.024C85.5571 142.712 85.8025 143.52 85.8025 144.347C85.8007 145.454 85.3606 146.516 84.5784 147.299C83.7963 148.083 82.7357 148.524 81.6286 148.528ZM81.6286 140.849C80.9364 140.847 80.2593 141.051 79.683 141.435C79.1068 141.819 78.6573 142.365 78.3914 143.004C78.1256 143.643 78.0553 144.347 78.1896 145.026C78.3238 145.705 78.6565 146.329 79.1455 146.819C79.6345 147.309 80.2579 147.643 80.9368 147.778C81.6156 147.914 82.3194 147.845 82.9591 147.58C83.5988 147.316 84.1456 146.867 84.5304 146.292C84.9151 145.716 85.1205 145.04 85.1205 144.347C85.1205 143.421 84.7528 142.532 84.0982 141.876C83.4435 141.22 82.5554 140.851 81.6286 140.849Z" fill="#F39C12"/>
<path d="M81.6285 173.605C83.7491 173.605 85.4681 171.886 85.4681 169.766C85.4681 167.645 83.7491 165.926 81.6285 165.926C79.5079 165.926 77.7888 167.645 77.7888 169.766C77.7888 171.886 79.5079 173.605 81.6285 173.605Z" fill="#F39C12"/>
<path opacity="0.2" d="M81.6285 173.605C83.7491 173.605 85.4681 171.886 85.4681 169.766C85.4681 167.645 83.7491 165.926 81.6285 165.926C79.5079 165.926 77.7888 167.645 77.7888 169.766C77.7888 171.886 79.5079 173.605 81.6285 173.605Z" fill="#151D26"/>
<path d="M98.0101 173.605C100.131 173.605 101.85 171.886 101.85 169.766C101.85 167.645 100.131 165.926 98.0101 165.926C95.8895 165.926 94.1704 167.645 94.1704 169.766C94.1704 171.886 95.8895 173.605 98.0101 173.605Z" fill="#F39C12"/>
<path opacity="0.2" d="M98.0101 173.605C100.131 173.605 101.85 171.886 101.85 169.766C101.85 167.645 100.131 165.926 98.0101 165.926C95.8895 165.926 94.1704 167.645 94.1704 169.766C94.1704 171.886 95.8895 173.605 98.0101 173.605Z" fill="#151D26"/>
<path d="M124.581 173.605C126.701 173.605 128.421 171.886 128.421 169.766C128.421 167.645 126.701 165.926 124.581 165.926C122.46 165.926 120.741 167.645 120.741 169.766C120.741 171.886 122.46 173.605 124.581 173.605Z" fill="#F39C12"/>
<path opacity="0.2" d="M124.581 173.605C126.701 173.605 128.421 171.886 128.421 169.766C128.421 167.645 126.701 165.926 124.581 165.926C122.46 165.926 120.741 167.645 120.741 169.766C120.741 171.886 122.46 173.605 124.581 173.605Z" fill="#151D26"/>
<path d="M94.1708 144.347C94.1708 145.107 93.9456 145.849 93.5237 146.481C93.1018 147.112 92.5021 147.604 91.8005 147.895C91.0989 148.185 90.3269 148.262 89.582 148.113C88.8372 147.965 88.1531 147.6 87.6161 147.063C87.0791 146.526 86.7134 145.841 86.5652 145.097C86.4171 144.352 86.4931 143.58 86.7837 142.878C87.0743 142.176 87.5665 141.577 88.1979 141.155C88.8293 140.733 89.5717 140.508 90.3311 140.508C91.3495 140.508 92.3261 140.912 93.0462 141.632C93.7662 142.353 94.1708 143.329 94.1708 144.347Z" fill="white"/>
<path d="M90.331 148.528C89.5042 148.528 88.6959 148.283 88.0084 147.823C87.3209 147.364 86.785 146.711 86.4686 145.947C86.1522 145.183 86.0694 144.343 86.2307 143.532C86.392 142.721 86.7902 141.976 87.3749 141.391C87.9596 140.807 88.7045 140.408 89.5154 140.247C90.3264 140.086 91.167 140.169 91.9309 140.485C92.6948 140.801 93.3478 141.337 93.8071 142.025C94.2665 142.712 94.5117 143.521 94.5117 144.347C94.5099 145.456 94.0689 146.518 93.2852 147.302C92.5016 148.085 91.4393 148.526 90.331 148.528ZM90.331 140.849C89.6391 140.849 88.9627 141.054 88.3873 141.438C87.812 141.823 87.3635 142.369 87.0987 143.009C86.8339 143.648 86.7646 144.351 86.8996 145.03C87.0346 145.709 87.3678 146.332 87.8571 146.821C88.3464 147.311 88.9698 147.644 89.6485 147.779C90.3272 147.914 91.0306 147.845 91.6699 147.58C92.3092 147.315 92.8556 146.867 93.2401 146.291C93.6245 145.716 93.8297 145.039 93.8297 144.347C93.8297 143.42 93.4611 142.53 92.805 141.873C92.1488 141.217 91.259 140.849 90.331 140.849Z" fill="#F39C12"/>
<path d="M177.177 131.737C177.177 132.497 176.952 133.239 176.53 133.87C176.108 134.502 175.508 134.994 174.807 135.285C174.105 135.575 173.333 135.651 172.588 135.503C171.843 135.355 171.159 134.989 170.622 134.452C170.085 133.915 169.719 133.231 169.571 132.486C169.423 131.741 169.499 130.969 169.79 130.268C170.08 129.566 170.573 128.966 171.204 128.545C171.835 128.123 172.578 127.897 173.337 127.897C174.356 127.897 175.332 128.302 176.052 129.022C176.772 129.742 177.177 130.719 177.177 131.737Z" fill="#F39C12"/>
<path opacity="0.4" d="M177.177 131.737C177.177 132.497 176.952 133.239 176.53 133.87C176.108 134.502 175.508 134.994 174.807 135.285C174.105 135.575 173.333 135.651 172.588 135.503C171.843 135.355 171.159 134.989 170.622 134.452C170.085 133.915 169.719 133.231 169.571 132.486C169.423 131.741 169.499 130.969 169.79 130.268C170.08 129.566 170.573 128.966 171.204 128.545C171.835 128.123 172.578 127.897 173.337 127.897C174.356 127.897 175.332 128.302 176.052 129.022C176.772 129.742 177.177 130.719 177.177 131.737Z" fill="#151D26"/>
<path d="M211.836 148.187C213.957 148.187 215.676 146.468 215.676 144.347C215.676 142.227 213.957 140.508 211.836 140.508C209.716 140.508 207.997 142.227 207.997 144.347C207.997 146.468 209.716 148.187 211.836 148.187Z" fill="white"/>
<path d="M211.836 148.528C211.009 148.528 210.201 148.283 209.513 147.823C208.826 147.364 208.29 146.711 207.974 145.947C207.657 145.183 207.574 144.343 207.736 143.532C207.897 142.721 208.295 141.976 208.88 141.391C209.464 140.807 210.209 140.408 211.02 140.247C211.831 140.086 212.672 140.169 213.436 140.485C214.2 140.801 214.853 141.337 215.312 142.025C215.771 142.712 216.017 143.521 216.017 144.347C216.015 145.456 215.574 146.518 214.79 147.302C214.006 148.085 212.944 148.526 211.836 148.528ZM211.836 140.849C211.144 140.849 210.468 141.054 209.892 141.438C209.317 141.823 208.868 142.369 208.604 143.009C208.339 143.648 208.27 144.351 208.405 145.03C208.54 145.709 208.873 146.332 209.362 146.821C209.851 147.311 210.475 147.644 211.153 147.779C211.832 147.914 212.536 147.845 213.175 147.58C213.814 147.315 214.361 146.867 214.745 146.291C215.129 145.716 215.335 145.039 215.335 144.347C215.335 143.42 214.966 142.53 214.31 141.873C213.654 141.217 212.764 140.849 211.836 140.849Z" fill="#F39C12"/>
<path d="M235.856 148.187C237.977 148.187 239.696 146.468 239.696 144.347C239.696 142.227 237.977 140.508 235.856 140.508C233.735 140.508 232.016 142.227 232.016 144.347C232.016 146.468 233.735 148.187 235.856 148.187Z" fill="white"/>
<path d="M235.856 148.528C235.029 148.528 234.221 148.283 233.534 147.823C232.846 147.364 232.31 146.711 231.994 145.947C231.677 145.183 231.595 144.343 231.756 143.532C231.917 142.721 232.315 141.976 232.9 141.391C233.485 140.807 234.23 140.408 235.041 140.247C235.852 140.086 236.692 140.169 237.456 140.485C238.22 140.801 238.873 141.337 239.332 142.025C239.792 142.712 240.037 143.521 240.037 144.347C240.035 145.456 239.594 146.518 238.81 147.302C238.027 148.085 236.964 148.526 235.856 148.528ZM235.856 140.849C235.164 140.849 234.488 141.054 233.912 141.438C233.337 141.823 232.889 142.369 232.624 143.009C232.359 143.648 232.29 144.351 232.425 145.03C232.56 145.709 232.893 146.332 233.382 146.821C233.872 147.311 234.495 147.644 235.174 147.779C235.852 147.914 236.556 147.845 237.195 147.58C237.834 147.315 238.381 146.867 238.765 146.291C239.15 145.716 239.355 145.039 239.355 144.347C239.355 143.42 238.986 142.53 238.33 141.873C237.674 141.217 236.784 140.849 235.856 140.849Z" fill="#F39C12"/>
<path d="M245.159 148.187C247.279 148.187 248.998 146.468 248.998 144.347C248.998 142.227 247.279 140.508 245.159 140.508C243.038 140.508 241.319 142.227 241.319 144.347C241.319 146.468 243.038 148.187 245.159 148.187Z" fill="white"/>
<path d="M245.159 148.528C244.332 148.528 243.524 148.283 242.836 147.823C242.149 147.364 241.613 146.711 241.296 145.947C240.98 145.183 240.897 144.343 241.058 143.532C241.22 142.721 241.618 141.976 242.203 141.391C242.787 140.807 243.532 140.408 244.343 140.247C245.154 140.086 245.995 140.169 246.759 140.485C247.522 140.801 248.175 141.337 248.635 142.025C249.094 142.712 249.339 143.521 249.339 144.347C249.338 145.456 248.896 146.518 248.113 147.302C247.329 148.085 246.267 148.526 245.159 148.528ZM245.159 140.849C244.467 140.849 243.79 141.054 243.215 141.438C242.64 141.823 242.191 142.369 241.926 143.009C241.662 143.648 241.592 144.351 241.727 145.03C241.862 145.709 242.195 146.332 242.685 146.821C243.174 147.311 243.797 147.644 244.476 147.779C245.155 147.914 245.858 147.845 246.498 147.58C247.137 147.315 247.683 146.867 248.068 146.291C248.452 145.716 248.657 145.039 248.657 144.347C248.657 143.42 248.289 142.53 247.633 141.873C246.976 141.217 246.087 140.849 245.159 140.849Z" fill="#F39C12"/>
<path d="M268.128 148.187C270.249 148.187 271.968 146.468 271.968 144.347C271.968 142.227 270.249 140.508 268.128 140.508C266.008 140.508 264.289 142.227 264.289 144.347C264.289 146.468 266.008 148.187 268.128 148.187Z" fill="white"/>
<path d="M268.128 148.528C267.301 148.529 266.492 148.285 265.804 147.827C265.116 147.368 264.579 146.716 264.261 145.952C263.944 145.188 263.86 144.347 264.02 143.536C264.181 142.725 264.579 141.979 265.163 141.394C265.747 140.808 266.492 140.409 267.303 140.248C268.115 140.086 268.956 140.168 269.72 140.484C270.484 140.801 271.138 141.336 271.597 142.024C272.057 142.712 272.302 143.52 272.302 144.347C272.3 145.454 271.86 146.516 271.078 147.299C270.296 148.083 269.235 148.524 268.128 148.528ZM268.128 140.849C267.436 140.847 266.759 141.051 266.183 141.435C265.607 141.819 265.157 142.365 264.891 143.004C264.625 143.643 264.555 144.347 264.689 145.026C264.824 145.705 265.156 146.329 265.645 146.819C266.134 147.309 266.758 147.643 267.437 147.778C268.115 147.914 268.819 147.845 269.459 147.58C270.099 147.316 270.645 146.867 271.03 146.292C271.415 145.716 271.62 145.04 271.62 144.347C271.62 143.421 271.253 142.532 270.598 141.876C269.943 141.22 269.055 140.851 268.128 140.849Z" fill="#F39C12"/>
<path d="M187.154 131.737C187.154 132.497 186.929 133.24 186.507 133.871C186.085 134.503 185.485 134.995 184.783 135.285C184.081 135.576 183.308 135.651 182.563 135.503C181.818 135.354 181.134 134.988 180.597 134.45C180.061 133.912 179.695 133.228 179.548 132.482C179.401 131.737 179.478 130.965 179.769 130.263C180.061 129.562 180.554 128.963 181.187 128.541C181.819 128.12 182.562 127.896 183.322 127.898C184.339 127.9 185.314 128.305 186.032 129.025C186.751 129.745 187.154 130.72 187.154 131.737Z" fill="#F39C12"/>
<path opacity="0.4" d="M187.154 131.737C187.154 132.497 186.929 133.24 186.507 133.871C186.085 134.503 185.485 134.995 184.783 135.285C184.081 135.576 183.308 135.651 182.563 135.503C181.818 135.354 181.134 134.988 180.597 134.45C180.061 133.912 179.695 133.228 179.548 132.482C179.401 131.737 179.478 130.965 179.769 130.263C180.061 129.562 180.554 128.963 181.187 128.541C181.819 128.12 182.562 127.896 183.322 127.898C184.339 127.9 185.314 128.305 186.032 129.025C186.751 129.745 187.154 130.72 187.154 131.737Z" fill="#151D26"/>
<path d="M55.6923 91.3695V96.1981C55.6932 96.2581 55.6823 96.3177 55.6602 96.3734C55.638 96.4292 55.6051 96.4801 55.5633 96.5232C55.5215 96.5662 55.4717 96.6007 55.4166 96.6244C55.3615 96.6482 55.3022 96.6609 55.2422 96.6618C55.1828 96.6627 55.1239 96.6517 55.0689 96.6294C55.0138 96.6071 54.9639 96.574 54.9219 96.532C54.8799 96.4901 54.8468 96.4401 54.8245 96.385C54.8022 96.33 54.7912 96.2711 54.7921 96.2117V92.1879L54.4647 92.372C54.3975 92.4153 54.3196 92.4389 54.2397 92.4402C54.1404 92.4399 54.0439 92.4073 53.9648 92.3472C53.8857 92.2872 53.8283 92.203 53.8014 92.1074C53.7744 92.0119 53.7793 91.9101 53.8153 91.8176C53.8513 91.725 53.9165 91.6468 54.001 91.5946L55.0035 91.0012C55.0035 91.0012 55.0035 91.0012 55.0444 91.0012H55.0922H55.3104C55.3104 91.0012 55.3104 91.0012 55.3581 91.0012H55.3922C55.3922 91.0012 55.3922 91.0012 55.44 91.0012C55.4429 91.0147 55.4429 91.0287 55.44 91.0421C55.44 91.0421 55.44 91.0762 55.44 91.0831C55.4388 91.0967 55.4388 91.1104 55.44 91.124C55.4327 91.1438 55.4327 91.1656 55.44 91.1854L55.6923 91.3695Z" fill="#263238"/>
<path d="M117.052 96.1981C117.053 96.2575 117.042 96.3164 117.019 96.3715C116.997 96.4265 116.964 96.4765 116.922 96.5185C116.88 96.5605 116.83 96.5936 116.775 96.6159C116.72 96.6382 116.661 96.6492 116.602 96.6482H113.689C113.599 96.6473 113.511 96.6194 113.436 96.5683C113.362 96.5172 113.304 96.445 113.27 96.361C113.237 96.277 113.229 96.185 113.248 96.0965C113.266 96.008 113.311 95.9271 113.376 95.864L115.797 93.6679C115.908 93.5702 115.997 93.4494 116.057 93.314C116.117 93.1786 116.147 93.0317 116.145 92.8836C116.136 92.6313 116.04 92.39 115.872 92.2016C115.774 92.0907 115.653 92.0022 115.518 91.9421C115.382 91.8821 115.236 91.852 115.088 91.8538C114.835 91.8597 114.593 91.9565 114.406 92.1266L114.146 92.3516C114.106 92.3948 114.056 92.4291 114.002 92.4526C113.947 92.4761 113.889 92.4882 113.829 92.4882C113.77 92.4882 113.711 92.4761 113.657 92.4526C113.602 92.4291 113.553 92.3948 113.512 92.3516C113.47 92.3098 113.436 92.2599 113.413 92.2048C113.39 92.1498 113.378 92.0908 113.378 92.0311C113.378 91.9715 113.39 91.9124 113.413 91.8574C113.436 91.8024 113.47 91.7525 113.512 91.7106L113.764 91.4787C113.955 91.3059 114.179 91.1725 114.421 91.0862C114.664 90.9998 114.921 90.9622 115.179 90.9755C115.436 90.9888 115.688 91.0528 115.92 91.1637C116.153 91.2746 116.361 91.4303 116.533 91.6219C116.865 91.9796 117.048 92.4503 117.045 92.9382C117.044 93.212 116.986 93.4827 116.874 93.7328C116.762 93.9829 116.6 94.207 116.397 94.3908L114.849 95.7957H116.622C116.73 95.8001 116.833 95.8431 116.912 95.917C116.991 95.9909 117.04 96.0907 117.052 96.1981Z" fill="#263238"/>
<path d="M184.454 93.17C184.644 93.3566 184.795 93.5794 184.899 93.8254C185.002 94.0714 185.054 94.3355 185.054 94.6022C185.048 95.0019 184.926 95.3911 184.701 95.7219C184.477 96.0527 184.161 96.3106 183.791 96.4637C183.422 96.6167 183.016 96.6583 182.624 96.5832C182.231 96.5081 181.869 96.3197 181.582 96.0412C181.492 95.9508 181.441 95.8281 181.441 95.7002C181.441 95.5723 181.492 95.4497 181.582 95.3592C181.673 95.2688 181.795 95.218 181.923 95.218C182.051 95.218 182.174 95.2688 182.264 95.3592C182.366 95.4614 182.488 95.5424 182.621 95.5974C182.754 95.6524 182.898 95.6804 183.042 95.6798C183.335 95.6799 183.617 95.5648 183.826 95.3592C184.024 95.1618 184.136 94.8951 184.14 94.6158C184.142 94.4707 184.114 94.3266 184.058 94.1928C184.001 94.059 183.918 93.9383 183.813 93.8384C183.711 93.7352 183.59 93.6532 183.456 93.597C183.323 93.5408 183.18 93.5116 183.035 93.511C182.971 93.5148 182.908 93.5031 182.85 93.477C182.791 93.4509 182.74 93.4111 182.701 93.361C182.654 93.3175 182.616 93.2648 182.59 93.2061C182.565 93.1474 182.551 93.084 182.551 93.02C182.551 92.9559 182.565 92.8925 182.59 92.8338C182.616 92.7751 182.654 92.7224 182.701 92.679L183.54 91.8265H182.217C182.151 91.8344 182.085 91.8284 182.023 91.8089C181.96 91.7894 181.902 91.7568 181.853 91.7133C181.804 91.6698 181.765 91.6163 181.738 91.5565C181.711 91.4966 181.697 91.4317 181.697 91.3661C181.697 91.3005 181.711 91.2356 181.738 91.1757C181.765 91.1159 181.804 91.0624 181.853 91.0189C181.902 90.9754 181.96 90.9428 182.023 90.9233C182.085 90.9038 182.151 90.8978 182.217 90.9058H184.624C184.685 90.9039 184.746 90.9144 184.803 90.9365C184.86 90.9587 184.912 90.9921 184.956 91.0347C185 91.0773 185.035 91.1283 185.059 91.1846C185.082 91.241 185.095 91.3015 185.095 91.3627C185.093 91.4395 185.072 91.5146 185.033 91.5809C185.012 91.6237 184.985 91.6628 184.951 91.6969L183.922 92.7608C184.121 92.8659 184.301 93.0043 184.454 93.17Z" fill="#263238"/>
<path d="M53.3186 98.9194H56.3467L54.8326 100.734L53.3186 98.9194Z" fill="#263238"/>
<path d="M113.723 98.9194H116.751L115.237 100.734L113.723 98.9194Z" fill="#263238"/>
<path d="M181.808 98.9194H184.829L183.322 100.734L181.808 98.9194Z" fill="#263238"/>
<path d="M154.657 169.766H143.431V176.258H154.657V169.766Z" fill="#F39C12"/>
<path d="M191.696 169.766H180.471V176.258H191.696V169.766Z" fill="white"/>
<path d="M192.031 176.599H180.13V169.425H192.031V176.599ZM180.812 175.917H191.349V170.107H180.812V175.917Z" fill="#F39C12"/>
<path d="M228.729 169.766H217.504V176.258H228.729V169.766Z" fill="#F39C12"/>
<path opacity="0.4" d="M228.729 169.766H217.504V176.258H228.729V169.766Z" fill="#151D26"/>
<path d="M265.769 169.766H254.543V176.258H265.769V169.766Z" fill="#F39C12"/>
<path opacity="0.2" d="M265.769 169.766H254.543V176.258H265.769V169.766Z" fill="#151D26"/>
<path d="M170.37 170.134H158.067V170.816H170.37V170.134Z" fill="#C7C7C7"/>
<path d="M165.965 172.33H158.067V173.012H165.965V172.33Z" fill="#C7C7C7"/>
<path d="M207.219 170.134H194.916V170.816H207.219V170.134Z" fill="#C7C7C7"/>
<path d="M201.067 172.33H194.916V173.012H201.067V172.33Z" fill="#C7C7C7"/>
<path d="M237.909 170.134H231.757V170.816H237.909V170.134Z" fill="#C7C7C7"/>
<path d="M241.496 172.33H231.757V173.012H241.496V172.33Z" fill="#C7C7C7"/>
<path d="M277.438 170.134H268.599V170.816H277.438V170.134Z" fill="#C7C7C7"/>
<path d="M280.902 172.33H268.599V173.012H280.902V172.33Z" fill="#C7C7C7"/>
<path d="M245.8 29.7578H181.944V82.1968H245.8V29.7578Z" fill="#37474F"/>
<path d="M246.045 82.4423H181.699L181.944 29.7578H245.8L246.045 82.4423Z" fill="#263238"/>
<path d="M245.8 29.7578H181.944V34.375H245.8V29.7578Z" fill="#F39C12"/>
<path d="M186.281 32.104C186.281 32.3346 186.213 32.5601 186.085 32.7519C185.957 32.9437 185.775 33.0931 185.561 33.1814C185.348 33.2697 185.114 33.2928 184.888 33.2478C184.661 33.2028 184.454 33.0917 184.291 32.9286C184.127 32.7655 184.016 32.5577 183.971 32.3315C183.926 32.1053 183.949 31.8708 184.038 31.6577C184.126 31.4446 184.275 31.2624 184.467 31.1343C184.659 31.0061 184.885 30.9377 185.115 30.9377C185.424 30.9377 185.721 31.0606 185.94 31.2793C186.159 31.498 186.281 31.7947 186.281 32.104Z" fill="#A6A6A6"/>
<path d="M191.028 32.104C191.028 32.3346 190.96 32.5601 190.832 32.7519C190.704 32.9437 190.521 33.0931 190.308 33.1814C190.095 33.2697 189.861 33.2928 189.634 33.2478C189.408 33.2028 189.2 33.0917 189.037 32.9286C188.874 32.7655 188.763 32.5577 188.718 32.3315C188.673 32.1053 188.696 31.8708 188.785 31.6577C188.873 31.4446 189.022 31.2624 189.214 31.1343C189.406 31.0061 189.631 30.9377 189.862 30.9377C190.171 30.9377 190.468 31.0606 190.687 31.2793C190.905 31.498 191.028 31.7947 191.028 32.104Z" fill="#EBEBEB"/>
<path d="M195.775 32.104C195.775 32.3346 195.706 32.5601 195.578 32.7519C195.45 32.9437 195.268 33.0931 195.055 33.1814C194.842 33.2697 194.607 33.2928 194.381 33.2478C194.155 33.2028 193.947 33.0917 193.784 32.9286C193.621 32.7655 193.51 32.5577 193.465 32.3315C193.42 32.1053 193.443 31.8708 193.531 31.6577C193.619 31.4446 193.769 31.2624 193.961 31.1343C194.152 31.0061 194.378 30.9377 194.609 30.9377C194.918 30.9377 195.215 31.0606 195.433 31.2793C195.652 31.498 195.775 31.7947 195.775 32.104Z" fill="white"/>
<path d="M189.371 43.5684H186.902V44.4686H189.371V43.5684Z" fill="#EBEBEB"/>
<path d="M219.502 43.5684H191.171V44.4686H219.502V43.5684Z" fill="#EBEBEB"/>
<path d="M225.708 43.5684H221.016V44.4686H225.708V43.5684Z" fill="white"/>
<path d="M236.436 55.6399H231.744V56.5401H236.436V55.6399Z" fill="#EBEBEB"/>
<path d="M234.833 43.5684H226.724V44.4686H234.833V43.5684Z" fill="#A6A6A6"/>
<path d="M191.84 45.9827H189.371V46.8829H191.84V45.9827Z" fill="#EBEBEB"/>
<path d="M212.17 45.9827H193.579V46.8829H212.17V45.9827Z" fill="#A6A6A6"/>
<path d="M230.625 55.6396H219.74V56.5399H230.625V55.6396Z" fill="#A6A6A6"/>
<path d="M208.931 53.2253H191.171V54.1256H208.931V53.2253Z" fill="#A6A6A6"/>
<path d="M206.039 48.397H193.579V49.2972H206.039V48.397Z" fill="white"/>
<path d="M228.907 50.8113H224.153V51.7115H228.907V50.8113Z" fill="#A6A6A6"/>
<path d="M227.311 48.397H207.417V49.2972H227.311V48.397Z" fill="#A6A6A6"/>
<path d="M214.919 55.6396H191.171V56.5399H214.919V55.6396Z" fill="white"/>
<path d="M239.069 45.9827H226.199V46.8829H239.069V45.9827Z" fill="white"/>
<path d="M225.183 45.9827H213.336V46.8829H225.183V45.9827Z" fill="#EBEBEB"/>
<path d="M236.238 48.397H228.245V49.2972H236.238V48.397Z" fill="#EBEBEB"/>
<path d="M191.84 48.397H189.371V49.2972H191.84V48.397Z" fill="#EBEBEB"/>
<path d="M189.371 50.8113H186.902V51.7115H189.371V50.8113Z" fill="#A6A6A6"/>
<path d="M205.766 50.811H191.171V51.7113H205.766V50.811Z" fill="#EBEBEB"/>
<path d="M208.174 58.0542H193.579V58.9544H208.174V58.0542Z" fill="#EBEBEB"/>
<path d="M231.887 60.468H220.791V61.3683H231.887V60.468Z" fill="#A6A6A6"/>
<path d="M223.989 58.054H209.354V58.9542H223.989V58.054Z" fill="white"/>
<path d="M219.516 60.468H206.776V61.3683H219.516V60.468Z" fill="white"/>
<path d="M205.766 61.3751L198.906 61.3683V60.468L205.766 60.4748V61.3751Z" fill="#EBEBEB"/>
<path d="M197.808 60.468H193.579V61.3683H197.808V60.468Z" fill="#A6A6A6"/>
<path d="M225.701 53.2253H209.926V54.1256H225.701V53.2253Z" fill="#EBEBEB"/>
<path d="M236.763 53.2256H226.724V54.1258H236.763V53.2256Z" fill="white"/>
<path d="M223.001 50.8113H207.246V51.7115H223.001V50.8113Z" fill="white"/>
<path d="M189.371 53.2256H186.902V54.1258H189.371V53.2256Z" fill="#EBEBEB"/>
<path d="M189.371 55.6399H186.902V56.5401H189.371V55.6399Z" fill="#EBEBEB"/>
<path d="M191.84 58.0542H189.371V58.9544H191.84V58.0542Z" fill="#A6A6A6"/>
<path d="M191.84 60.468H189.371V61.3683H191.84V60.468Z" fill="#EBEBEB"/>
<path d="M189.371 62.4871H186.902V63.3873H189.371V62.4871Z" fill="#EBEBEB"/>
<path d="M208.453 62.4871H191.171V63.3873H208.453V62.4871Z" fill="#EBEBEB"/>
<path d="M191.84 64.9011H189.371V65.8014H191.84V64.9011Z" fill="#EBEBEB"/>
<path d="M212.17 64.9011H193.579V65.8014H212.17V64.9011Z" fill="#A6A6A6"/>
<path d="M208.931 72.144H191.171V73.0443H208.931V72.144Z" fill="#A6A6A6"/>
<path d="M206.039 67.3154H193.579V68.2157H206.039V67.3154Z" fill="white"/>
<path d="M227.311 67.3154H207.417V68.2157H227.311V67.3154Z" fill="#A6A6A6"/>
<path d="M214.919 74.5583H191.171V75.4586H214.919V74.5583Z" fill="white"/>
<path d="M239.069 64.9011H226.199V65.8014H239.069V64.9011Z" fill="white"/>
<path d="M225.183 64.9011H213.336V65.8014H225.183V64.9011Z" fill="#EBEBEB"/>
<path d="M236.238 67.3154H228.245V68.2157H236.238V67.3154Z" fill="#EBEBEB"/>
<path d="M191.84 67.3154H189.371V68.2157H191.84V67.3154Z" fill="#EBEBEB"/>
<path d="M189.371 69.7297H186.902V70.63H189.371V69.7297Z" fill="#A6A6A6"/>
<path d="M205.766 69.7297H191.171V70.63H205.766V69.7297Z" fill="#EBEBEB"/>
<path d="M225.701 72.144H209.926V73.0443H225.701V72.144Z" fill="#EBEBEB"/>
<path d="M223.001 69.7297H207.246V70.63H223.001V69.7297Z" fill="white"/>
<path d="M189.371 72.144H186.902V73.0443H189.371V72.144Z" fill="#EBEBEB"/>
<path d="M188.423 41.1951C188.444 41.2143 188.46 41.2375 188.472 41.2633C188.483 41.2891 188.489 41.317 188.489 41.3452C188.489 41.3733 188.483 41.4012 188.472 41.427C188.46 41.4528 188.444 41.476 188.423 41.4952C188.404 41.5148 188.38 41.5303 188.354 41.5408C188.329 41.5514 188.301 41.5567 188.273 41.5566C188.215 41.5559 188.16 41.534 188.116 41.4952L187.168 40.5336V40.4927V40.4586L188.116 39.4901C188.158 39.4513 188.213 39.4297 188.27 39.4297C188.327 39.4297 188.382 39.4513 188.423 39.4901C188.444 39.5099 188.461 39.5337 188.472 39.56C188.483 39.5864 188.489 39.6148 188.489 39.6436C188.489 39.6723 188.483 39.7007 188.472 39.7271C188.461 39.7535 188.444 39.7773 188.423 39.797L187.619 40.6086L188.423 41.1951Z" fill="white"/>
<path d="M189.289 41.2972L190.121 39.3262C190.13 39.303 190.144 39.2819 190.161 39.2641C190.179 39.2463 190.199 39.2322 190.222 39.2227C190.245 39.2131 190.27 39.2083 190.295 39.2085C190.32 39.2087 190.344 39.214 190.367 39.2239C190.411 39.2448 190.446 39.2819 190.464 39.3276C190.481 39.3733 190.481 39.4241 190.462 39.4694L189.63 41.42C189.615 41.4523 189.591 41.4797 189.561 41.499C189.531 41.5183 189.496 41.5287 189.46 41.5291C189.438 41.5355 189.414 41.5355 189.392 41.5291C189.37 41.5208 189.349 41.5082 189.332 41.4919C189.315 41.4757 189.301 41.4562 189.292 41.4346C189.282 41.4131 189.277 41.3898 189.277 41.3662C189.276 41.3426 189.281 41.3191 189.289 41.2972Z" fill="white"/>
<path d="M192.099 40.5063L191.151 41.4679C191.109 41.5079 191.053 41.5299 190.994 41.5293C190.967 41.5294 190.939 41.524 190.913 41.5135C190.887 41.503 190.864 41.4875 190.844 41.4679C190.824 41.4487 190.807 41.4255 190.796 41.3997C190.785 41.3739 190.779 41.346 190.779 41.3178C190.779 41.2897 190.785 41.2618 190.796 41.236C190.807 41.2102 190.824 41.1869 190.844 41.1678L191.642 40.3835L190.837 39.5719C190.817 39.5522 190.8 39.5284 190.789 39.502C190.777 39.4756 190.771 39.4472 190.771 39.4185C190.771 39.3897 190.777 39.3613 190.789 39.3349C190.8 39.3086 190.817 39.2848 190.837 39.265C190.879 39.2262 190.934 39.2046 190.991 39.2046C191.048 39.2046 191.103 39.2262 191.144 39.265L192.092 40.2335V40.2676V40.363C192.092 40.363 192.092 40.363 192.092 40.3971L192.099 40.5063Z" fill="white"/>
<path d="M304.302 69.8455H226.806V122.284H304.302V69.8455Z" fill="#37474F"/>
<path d="M304.547 122.53H226.567L226.806 69.8455H304.302L304.547 122.53Z" fill="#37474F"/>
<path d="M304.302 69.8455H226.806V74.4626H304.302V69.8455Z" fill="#F39C12"/>
<path d="M231.143 72.1916C231.143 72.4223 231.075 72.6477 230.947 72.8395C230.819 73.0313 230.637 73.1808 230.424 73.2691C230.21 73.3573 229.976 73.3804 229.75 73.3354C229.524 73.2904 229.316 73.1794 229.153 73.0163C228.99 72.8532 228.878 72.6454 228.833 72.4191C228.788 72.1929 228.812 71.9584 228.9 71.7453C228.988 71.5322 229.138 71.3501 229.329 71.2219C229.521 71.0938 229.747 71.0254 229.977 71.0254C230.287 71.0254 230.583 71.1483 230.802 71.367C231.021 71.5857 231.143 71.8823 231.143 72.1916Z" fill="#A6A6A6"/>
<path d="M234.724 73.3513C235.364 73.3513 235.883 72.8322 235.883 72.1919C235.883 71.5516 235.364 71.0325 234.724 71.0325C234.084 71.0325 233.565 71.5516 233.565 72.1919C233.565 72.8322 234.084 73.3513 234.724 73.3513Z" fill="#EBEBEB"/>
<path d="M240.637 72.1916C240.637 72.4223 240.569 72.6478 240.441 72.8395C240.312 73.0313 240.13 73.1808 239.917 73.2691C239.704 73.3573 239.47 73.3804 239.243 73.3354C239.017 73.2904 238.809 73.1794 238.646 73.0163C238.483 72.8532 238.372 72.6454 238.327 72.4191C238.282 72.1929 238.305 71.9584 238.393 71.7453C238.482 71.5322 238.631 71.3501 238.823 71.222C239.015 71.0938 239.24 71.0254 239.471 71.0254C239.624 71.0245 239.776 71.054 239.918 71.1123C240.06 71.1706 240.189 71.2565 240.298 71.365C240.406 71.4734 240.492 71.6024 240.55 71.7443C240.608 71.8862 240.638 72.0382 240.637 72.1916Z" fill="white"/>
<path d="M234.233 83.656H231.764V84.5562H234.233V83.656Z" fill="#EBEBEB"/>
<path d="M250.724 83.656H236.034V84.5562H250.724V83.656Z" fill="#EBEBEB"/>
<path d="M292.851 83.656H286.781V84.5562H292.851V83.656Z" fill="white"/>
<path d="M256.93 83.656H252.238V84.5562H256.93V83.656Z" fill="white"/>
<path d="M285.594 83.656H267.48V84.5562H285.594V83.656Z" fill="#EBEBEB"/>
<path d="M290.934 95.7278H276.605V96.628H290.934V95.7278Z" fill="#EBEBEB"/>
<path d="M266.055 83.656H257.946V84.5562H266.055V83.656Z" fill="#A6A6A6"/>
<path d="M236.702 86.0703H234.233V86.9706H236.702V86.0703Z" fill="#EBEBEB"/>
<path d="M257.032 86.0703H238.441V86.9706H257.032V86.0703Z" fill="#A6A6A6"/>
<path d="M275.494 95.7275H264.609V96.6278H275.494V95.7275Z" fill="#A6A6A6"/>
<path d="M253.793 93.3132H236.034V94.2135H253.793V93.3132Z" fill="#A6A6A6"/>
<path d="M250.901 88.4849H238.441V89.3851H250.901V88.4849Z" fill="white"/>
<path d="M294.672 88.4846H282.212V89.3849H294.672V88.4846Z" fill="white"/>
<path d="M273.768 90.8992H269.015V91.7994H273.768V90.8992Z" fill="#A6A6A6"/>
<path d="M272.172 88.4849H252.279V89.3851H272.172V88.4849Z" fill="#A6A6A6"/>
<path d="M259.781 95.7275H236.034V96.6278H259.781V95.7275Z" fill="white"/>
<path d="M276.571 86.0703H263.702V86.9706H276.571V86.0703Z" fill="white"/>
<path d="M262.679 86.0703H258.198V86.9706H262.679V86.0703Z" fill="#EBEBEB"/>
<path d="M296.759 86.0703H278.038V86.9706H296.759V86.0703Z" fill="#EBEBEB"/>
<path d="M281.1 88.4849H273.107V89.3851H281.1V88.4849Z" fill="#EBEBEB"/>
<path d="M236.702 88.4849H234.233V89.3851H236.702V88.4849Z" fill="#EBEBEB"/>
<path d="M234.233 90.8992H231.764V91.7994H234.233V90.8992Z" fill="#A6A6A6"/>
<path d="M250.628 90.8989H236.034V91.7992H250.628V90.8989Z" fill="#EBEBEB"/>
<path d="M289.236 90.8992H274.641V91.7994H289.236V90.8992Z" fill="#EBEBEB"/>
<path d="M253.036 98.1418H238.441V99.0421H253.036V98.1418Z" fill="#EBEBEB"/>
<path d="M270.154 100.556H259.058V101.456H270.154V100.556Z" fill="white"/>
<path d="M268.851 98.1418H254.216V99.0421H268.851V98.1418Z" fill="white"/>
<path d="M257.264 100.556H244.524V101.456H257.264V100.556Z" fill="#EBEBEB"/>
<path d="M242.669 100.556H238.441V101.456H242.669V100.556Z" fill="#A6A6A6"/>
<path d="M281.625 100.556H271.293V101.456H281.625V100.556Z" fill="#A6A6A6"/>
<path d="M270.57 93.3135H254.795V94.2137H270.57V93.3135Z" fill="#EBEBEB"/>
<path d="M281.625 93.3132H271.586V94.2135H281.625V93.3132Z" fill="white"/>
<path d="M267.862 90.8992H252.108V91.7994H267.862V90.8992Z" fill="white"/>
<path d="M234.233 93.3135H231.764V94.2137H234.233V93.3135Z" fill="#EBEBEB"/>
<path d="M234.233 95.7278H231.764V96.628H234.233V95.7278Z" fill="#EBEBEB"/>
<path d="M236.702 98.1418H234.233V99.0421H236.702V98.1418Z" fill="#A6A6A6"/>
<path d="M284.967 98.1418H270.059V99.0421H284.967V98.1418Z" fill="#A6A6A6"/>
<path d="M236.702 100.556H234.233V101.456H236.702V100.556Z" fill="#EBEBEB"/>
<path d="M234.233 102.575H231.764V103.475H234.233V102.575Z" fill="#EBEBEB"/>
<path d="M264.364 102.575H236.034V103.475H264.364V102.575Z" fill="#EBEBEB"/>
<path d="M236.702 104.989H234.233V105.889H236.702V104.989Z" fill="#EBEBEB"/>
<path d="M257.032 104.989H238.441V105.889H257.032V104.989Z" fill="#A6A6A6"/>
<path d="M253.793 112.232H236.034V113.132H253.793V112.232Z" fill="#A6A6A6"/>
<path d="M250.901 107.404H238.441V108.304H250.901V107.404Z" fill="white"/>
<path d="M272.172 107.404H252.279V108.304H272.172V107.404Z" fill="#A6A6A6"/>
<path d="M259.781 114.646H236.034V115.547H259.781V114.646Z" fill="white"/>
<path d="M283.93 104.989H271.061V105.889H283.93V104.989Z" fill="white"/>
<path d="M270.045 104.989H258.198V105.889H270.045V104.989Z" fill="#EBEBEB"/>
<path d="M281.1 107.404H273.107V108.304H281.1V107.404Z" fill="#EBEBEB"/>
<path d="M236.702 107.404H234.233V108.304H236.702V107.404Z" fill="#EBEBEB"/>
<path d="M234.233 109.818H231.764V110.718H234.233V109.818Z" fill="#A6A6A6"/>
<path d="M278.542 109.818H268.919V110.718H278.542V109.818Z" fill="#A6A6A6"/>
<path d="M250.628 109.818H236.034V110.718H250.628V109.818Z" fill="#EBEBEB"/>
<path d="M288.186 109.818H280.063V110.718H288.186V109.818Z" fill="#EBEBEB"/>
<path d="M270.57 112.232H254.795V113.132H270.57V112.232Z" fill="#EBEBEB"/>
<path d="M267.862 109.818H252.108V110.718H267.862V109.818Z" fill="white"/>
<path d="M234.233 112.232H231.764V113.132H234.233V112.232Z" fill="#EBEBEB"/>
<path d="M233.285 81.2762C233.326 81.316 233.349 81.3703 233.35 81.4272C233.35 81.4841 233.328 81.539 233.289 81.5797C233.249 81.6204 233.194 81.6436 233.138 81.6442C233.081 81.6449 233.026 81.6229 232.985 81.5831L232.03 80.6146L232.985 79.6462C233.005 79.6264 233.028 79.6107 233.054 79.6C233.08 79.5893 233.107 79.5837 233.135 79.5837C233.163 79.5837 233.191 79.5893 233.216 79.6C233.242 79.6107 233.265 79.6264 233.285 79.6462C233.306 79.666 233.323 79.6898 233.334 79.7161C233.345 79.7425 233.351 79.7709 233.351 79.7997C233.351 79.8284 233.345 79.8568 233.334 79.8832C233.323 79.9096 233.306 79.9334 233.285 79.9531L232.48 80.7647L233.285 81.2762Z" fill="white"/>
<path d="M234.151 81.3852L234.983 79.4074C235.004 79.363 235.041 79.3284 235.087 79.3106C235.133 79.2928 235.184 79.2933 235.229 79.312C235.273 79.3314 235.307 79.3673 235.325 79.4119C235.343 79.4565 235.343 79.5063 235.324 79.5507L234.492 81.5353C234.478 81.5681 234.454 81.596 234.423 81.6154C234.393 81.6348 234.358 81.6449 234.322 81.6444C234.3 81.6509 234.276 81.6509 234.254 81.6444C234.228 81.6367 234.204 81.6233 234.185 81.6051C234.165 81.587 234.149 81.5646 234.14 81.5397C234.13 81.5147 234.126 81.4878 234.128 81.4611C234.13 81.4344 234.138 81.4084 234.151 81.3852Z" fill="white"/>
<path d="M236.961 80.5871L235.972 81.5828C235.93 81.6228 235.874 81.6448 235.815 81.6442C235.773 81.6426 235.733 81.6289 235.698 81.6049C235.664 81.5808 235.637 81.5473 235.622 81.5084C235.606 81.4696 235.601 81.427 235.609 81.3857C235.617 81.3445 235.636 81.3063 235.665 81.2759L236.47 80.4711L235.665 79.6596C235.644 79.6398 235.628 79.616 235.617 79.5896C235.605 79.5632 235.599 79.5348 235.599 79.5061C235.599 79.4774 235.605 79.449 235.617 79.4226C235.628 79.3962 235.644 79.3724 235.665 79.3527C235.707 79.3138 235.762 79.2922 235.819 79.2922C235.876 79.2922 235.931 79.3138 235.972 79.3527L236.92 80.3211V80.362L236.961 80.5871Z" fill="white"/>
<path d="M218.772 111.059H203.679V86.9707H204.361V110.377H218.772V111.059Z" fill="#263238"/>
<path d="M218.172 112.757L221.705 110.718L218.172 108.679V112.757Z" fill="#263238"/>
<path d="M40.0879 275.182H131.865L113.567 168.729H44.9369L40.0879 275.182Z" fill="#DBDBDB"/>
<path d="M40.0879 275.182H48.1355L52.6503 168.729H44.9369L40.0879 275.182Z" fill="#A6A6A6"/>
<path d="M120.714 182.744C126.709 208.858 139.128 240.161 144.427 245.242C151.131 251.674 195.482 263.452 197.691 263.69C203.147 264.25 214.141 224.816 208.31 223.971C199.444 222.689 167.145 220.936 165.208 218.944C163.271 216.953 149.576 199.685 135.561 180.268C125.89 166.853 116.997 166.54 120.714 182.744Z" fill="#AD6359"/>
<path d="M193.293 261.57C193.975 261.897 203.216 266.562 208.944 268.219C213.221 269.46 225.619 272.693 227.454 268.124C228.702 265.007 221.636 262.245 216.678 260.185C214.073 259.094 210.854 256.359 211.625 254.681C212.989 251.749 219.686 254.681 224.105 257.266C232.651 262.231 244.033 271.165 249.257 266.814C251.228 265.171 248.937 262.19 245.581 259.265C251.037 262.675 256.821 265.471 259.085 263.738C260.381 262.75 260.449 261.392 259.719 259.844C261.404 260.39 262.884 260.287 263.92 259.162C265.687 257.314 264.828 254.586 262.891 251.783C263.224 251.747 263.543 251.633 263.823 251.449C264.103 251.265 264.335 251.017 264.5 250.726C268.237 245.018 249.496 228.629 243.024 227.101C223.928 222.566 203.87 223.412 203.87 223.412C196.416 229.441 193.279 261.556 193.293 261.57Z" fill="#AD6359"/>
<path d="M221.329 244.015C225.868 244.729 230.203 246.398 234.049 248.912C238.877 252.104 242.083 255.834 246.14 259.599C246.162 259.619 246.175 259.647 246.176 259.676C246.178 259.705 246.167 259.734 246.147 259.756C246.127 259.777 246.1 259.79 246.07 259.792C246.041 259.793 246.012 259.782 245.99 259.763C244.06 257.976 236.054 251.258 233.98 249.73C230.242 246.914 225.911 244.988 221.316 244.097C221.305 244.095 221.295 244.089 221.289 244.08C221.282 244.071 221.28 244.06 221.282 244.049C221.283 244.038 221.289 244.029 221.298 244.022C221.307 244.016 221.318 244.013 221.329 244.015Z" fill="#263238"/>
<path d="M224.882 235.926C229.895 237.29 235.024 238.654 239.675 241.055C244.77 243.647 248.752 247.875 252.667 251.967C255.018 254.409 257.314 256.909 259.555 259.469C259.651 259.578 259.508 259.749 259.405 259.64C255.436 255.429 251.344 251.337 247.129 247.364C243.235 243.67 238.651 240.78 233.639 238.859C230.768 237.768 227.822 236.895 224.882 236.029C224.807 236.001 224.828 235.913 224.882 235.926Z" fill="#263238"/>
<path d="M230.236 228.854C235.106 229.85 239.348 230.709 243.665 233.315C249.366 236.772 254.877 242.59 256.814 244.649C258.949 246.934 261.001 249.28 263.027 251.66C263.109 251.756 262.938 251.899 262.856 251.804C258.229 246.585 253.267 241.674 248.002 237.1C245.533 234.88 242.733 233.057 239.703 231.698C236.631 230.491 233.462 229.551 230.23 228.888C230.23 228.888 230.216 228.847 230.236 228.854Z" fill="#263238"/>
<path d="M200.794 221.843L187.154 265.055C187.154 265.055 150.231 254.511 143.506 247.234C136.782 239.957 124.281 202.372 120.618 184.163C116.956 165.953 126.163 166.396 134.627 177.881C143.09 189.366 164.164 217.199 165.317 217.806C166.469 218.413 200.794 221.843 200.794 221.843Z" fill="#F39C12"/>
<path d="M183.615 245.856C185.265 240.762 186.956 235.681 188.389 230.525C189.221 227.592 190.066 224.667 190.871 221.727C190.871 221.618 190.714 221.55 190.673 221.659C188.818 226.706 186.963 231.773 185.333 236.909C183.703 242.044 182.046 247.104 180.491 252.233C179.604 255.152 178.813 258.078 178.111 261.051C178.115 261.062 178.122 261.071 178.131 261.077C178.14 261.084 178.151 261.087 178.162 261.087C178.173 261.087 178.184 261.084 178.193 261.077C178.202 261.071 178.209 261.062 178.213 261.051C180.273 256.093 181.951 250.985 183.615 245.856Z" fill="#263238"/>
<path opacity="0.1" d="M168.536 259.108L166.899 258.535C162.807 257.069 158.585 255.466 154.848 253.836L153.988 253.461C152.372 252.738 150.851 252.015 149.474 251.292L148.792 250.91C147.171 250.076 145.644 249.073 144.236 247.916C144.106 247.8 143.977 247.684 143.861 247.568C143.745 247.452 143.622 247.336 143.52 247.227C136.768 239.95 124.315 202.372 120.652 184.156C120.605 183.917 120.557 183.658 120.509 183.392C120.264 182.028 120.045 180.282 119.868 178.42C119.527 172.412 121.3 169.738 124.069 169.773C135.82 193.07 161.272 244.84 168.536 259.108Z" fill="#151D26"/>
<path d="M154.657 275.183H61.2911C60.2613 273.3 75.5654 191.515 107.074 168.484C114.057 163.375 126.449 166.663 129.9 171.628C147.203 196.596 154.657 275.183 154.657 275.183Z" fill="#F39C12"/>
<path d="M139.81 193.383C140.669 196.484 141.499 199.594 142.299 202.713C142.197 201.349 142.047 199.985 141.87 198.621C141.87 198.546 141.986 198.512 141.999 198.621C142.335 200.3 142.522 202.004 142.558 203.716C143.513 207.467 144.423 211.238 145.286 215.03C146.882 222.293 148.308 229.604 149.488 236.943C150.17 241.082 150.667 245.249 151.37 249.382C151.37 249.457 151.261 249.492 151.247 249.382C150.599 245.72 149.74 242.078 148.942 238.47C148.144 234.863 147.366 231.228 146.63 227.606C145.116 220.322 143.52 213.059 142.02 205.782C141.174 201.69 140.39 197.564 139.544 193.458C139.548 193.429 139.56 193.402 139.579 193.379C139.598 193.357 139.624 193.341 139.652 193.333C139.68 193.325 139.711 193.325 139.739 193.334C139.767 193.343 139.791 193.36 139.81 193.383Z" fill="#263238"/>
<path d="M96.4689 176.565C81.3899 192.708 45.5304 253.297 57.1584 264.468C68.7865 275.639 133.304 260.601 151.404 251.967C156.792 249.403 136.305 215.787 129.969 215.003C124.697 214.321 97.7238 226.685 96.9463 225.137C96.0597 223.384 102.191 212.131 108.677 188.698C116.186 161.677 103.125 169.431 96.4689 176.565Z" fill="#AD6359"/>
<path d="M156.785 204.152C169.886 202.331 173.528 203.872 183.771 196.459C190.489 191.596 196.477 193.799 192.637 201.526C186.37 214.171 169.954 220.077 163.68 220.486L156.785 204.152Z" fill="#AD6359"/>
<path d="M121.976 216.769C121.976 216.769 136.7 208.585 150.47 205.264C160.018 202.966 181.269 200.272 201.62 221.264C206.448 226.242 209.804 236.766 198.96 231.494C191.26 227.756 187.509 223.057 182.633 221.693C182.633 221.693 185.306 235.579 180.13 240.223C177.811 242.269 171.366 247.814 165.733 251.388C164.903 250.604 164.124 249.768 163.401 248.885C163.401 248.885 158.156 252.765 148.281 251.824L121.976 216.769Z" fill="#AD6359"/>
<path d="M159.908 204.521C164.464 206.901 174.033 212.091 180.368 219.061C187.42 226.801 198.912 243.613 193.142 248.762C188.914 252.533 183.962 246.504 183.962 246.504C183.962 246.504 187.25 254.45 182.68 257.028C178.52 259.367 174.967 254.47 174.967 254.47C174.967 254.47 176.133 259.64 171.693 261.12C166.346 262.913 164.785 251.79 157.808 248.926C156.246 248.278 159.908 204.521 159.908 204.521Z" fill="#AD6359"/>
<path d="M170.957 225.144C174.872 228.083 182.053 237.024 184.038 246.286C184.085 246.497 183.949 246.647 183.867 246.463C180.424 238.879 176.073 231.741 170.909 225.205C170.908 225.198 170.909 225.191 170.911 225.184C170.912 225.177 170.916 225.17 170.92 225.165C170.925 225.159 170.93 225.154 170.936 225.151C170.943 225.147 170.95 225.145 170.957 225.144Z" fill="#263238"/>
<path d="M163.346 232.489C166.462 235.367 173.453 244.922 175.144 254.381C175.185 254.593 175.042 254.729 174.967 254.545C171.909 246.796 167.986 239.418 163.271 232.55C163.237 232.503 163.305 232.455 163.346 232.489Z" fill="#263238"/>
<path d="M182.64 221.604C186.909 222.866 189.692 224.96 193.293 227.463C195.06 228.725 196.898 229.886 198.796 230.941C200.535 231.882 203.1 233.307 204.934 231.834C205.971 231.016 205.951 229.522 205.725 228.342C205.204 226.61 204.412 224.972 203.379 223.487C203.338 223.432 203.434 223.357 203.475 223.418C204.478 224.766 205.338 226.215 206.039 227.742C206.502 228.789 206.638 229.952 206.428 231.077C205.8 233.43 203.018 233.737 201.054 233.123C199.884 232.695 198.76 232.151 197.698 231.5C196.662 230.907 195.652 230.259 194.663 229.591C192.617 228.227 190.687 226.733 188.675 225.342C186.707 224.026 184.657 222.837 182.537 221.782C182.497 221.707 182.558 221.584 182.64 221.604Z" fill="#263238"/>
<path d="M191.581 236.629C190.476 234.194 184.495 224.053 182.551 221.707C182.543 221.695 182.54 221.68 182.542 221.666C182.544 221.652 182.551 221.639 182.561 221.629C182.572 221.619 182.585 221.614 182.6 221.613C182.614 221.612 182.628 221.616 182.64 221.625C185.968 224.776 191.321 233.158 192.563 235.845C193.804 238.532 195.216 241.887 195.216 244.847C195.216 249.307 192.256 250.153 191.165 250.371C189.865 250.603 188.525 250.384 187.366 249.751C186.022 248.915 184.862 247.815 183.956 246.518C183.908 246.457 183.99 246.368 184.038 246.429C185.586 248.189 188.13 249.921 190.578 249.607C191.114 249.553 191.634 249.392 192.108 249.136C192.582 248.88 193.001 248.532 193.34 248.114C193.993 247.037 194.235 245.761 194.022 244.52C193.79 241.758 192.72 239.132 191.581 236.629Z" fill="#263238"/>
<path d="M121.976 216.769L142.627 260.212C142.627 260.212 61.8506 278.36 54.8806 264.304C47.9105 250.248 79.2825 195.197 93.434 179.184C107.586 163.171 113.894 167.849 110.136 185.083C106.378 202.317 97.2055 225.56 97.2055 225.56L121.976 216.769Z" fill="#F39C12"/>
<path d="M72.6534 237.106C76.408 234.521 80.3442 232.209 84.4316 230.191C88.4782 228.209 92.6657 226.529 96.9599 225.164C99.4083 224.353 101.877 223.671 104.353 222.961C104.428 222.961 104.455 223.057 104.387 223.084C100.076 224.479 95.8492 226.123 91.729 228.008C87.637 229.827 83.5632 231.732 79.5075 233.723C77.2228 234.842 74.9927 236.069 72.7421 237.27C72.6398 237.324 72.558 237.154 72.6534 237.106Z" fill="#263238"/>
<path d="M121.764 216.64C121.355 216.749 99.258 224.039 98.576 224.38C98.6647 224.046 102.627 212.302 103.22 210.584C103.282 210.406 103.33 210.236 103.391 210.065C103.793 209.295 104.196 208.531 104.571 207.753C105.048 206.744 105.519 205.741 105.989 204.732C105.989 204.732 105.955 204.677 105.942 204.732C105.423 205.714 104.91 206.698 104.4 207.685C104.162 208.135 103.943 208.599 103.718 209.049C104.107 207.835 104.475 206.614 104.85 205.393C105.444 203.443 105.976 201.479 106.501 199.508C106.501 199.446 106.426 199.426 106.405 199.508C105.232 202.918 103.95 206.328 102.77 209.738C101.59 213.148 97.0415 225.772 97.0756 225.758C97.1097 225.744 121.409 217.172 121.88 216.981C121.925 216.965 121.962 216.933 121.984 216.89C122.005 216.847 122.008 216.797 121.993 216.752C121.977 216.707 121.944 216.67 121.902 216.649C121.859 216.628 121.809 216.624 121.764 216.64Z" fill="#263238"/>
<path d="M123.251 244.984C120.98 240.134 118.743 235.265 116.288 230.498C114.924 227.77 113.512 225.076 112.093 222.382C112.039 222.28 111.861 222.382 111.902 222.464C113.996 227.422 116.103 232.387 118.415 237.25C120.727 242.112 122.985 246.941 125.351 251.749C126.715 254.477 128.12 257.164 129.634 259.817C129.634 259.872 129.75 259.817 129.73 259.769C127.807 254.743 125.542 249.867 123.251 244.984Z" fill="#263238"/>
<path d="M143.67 260.894C142.865 259.53 141.842 257.628 140.976 256.325C140.751 255.984 140.485 256.052 140.669 256.414C141.283 257.628 141.795 258.992 142.402 260.24C141.269 260.465 140.131 260.669 138.992 260.922L135.07 261.706C132.497 262.229 129.923 262.731 127.35 263.213C122.135 264.177 116.906 265.029 111.664 265.771C101.131 267.312 90.5253 268.307 79.8895 268.751C76.9159 268.86 73.9356 268.915 70.9621 268.874C68.0265 268.882 65.0924 268.741 62.1711 268.451C62.0961 268.451 62.0756 268.574 62.1711 268.594C64.6896 269.124 67.2459 269.455 69.8163 269.583C72.5125 269.719 75.2087 269.774 77.9048 269.747C83.2722 269.685 88.6395 269.337 93.9864 268.846C104.585 267.873 115.133 266.453 125.631 264.584C128.573 264.066 131.505 263.513 134.429 262.927C135.902 262.627 137.375 262.333 138.848 262.006C140.321 261.679 143.806 261.119 143.67 260.894Z" fill="#263238"/>
<path d="M124.642 188.118C119.009 188.084 111.841 177.731 109.836 170.257C109.7 169.745 115.974 152.115 116.84 148.494C117.018 147.751 138.221 159.522 138.221 159.522C138.221 159.522 134.129 166.574 132.656 172.903C132.533 173.428 130.085 188.145 124.642 188.118Z" fill="#AD6359"/>
<path d="M130.057 174.24C130.794 174.441 131.547 174.577 132.308 174.649C132.397 174.205 132.479 173.83 132.533 173.544C132.531 173.53 132.531 173.516 132.533 173.503C132.53 173.471 132.53 173.439 132.533 173.407C132.533 173.298 132.574 173.176 132.601 173.06C132.596 173.037 132.596 173.014 132.601 172.991V172.896C132.946 171.484 133.372 170.092 133.877 168.729C134.867 166.088 136.027 163.514 137.348 161.022C137.457 160.811 137.553 160.627 137.648 160.463C137.928 159.938 138.105 159.624 138.146 159.542L137.587 159.222L136.843 158.813H136.809L136.311 158.547L135.698 158.199C135.52 158.11 135.322 158.001 135.132 157.892L135.022 157.831C134.791 157.701 134.538 157.571 134.279 157.421L134.109 157.333L133.372 156.924L132.983 156.719L131.783 156.037L130.869 155.539L130.092 155.116L127.432 153.684L126.572 153.22C125.522 152.661 124.492 152.115 123.503 151.604C123.278 151.488 123.06 151.365 122.821 151.263L122.385 151.031L121.867 150.765L120.741 150.192L120.059 149.851C119.725 149.681 119.411 149.531 119.118 149.394C118.968 149.312 118.825 149.251 118.689 149.19C118.286 148.999 117.938 148.842 117.645 148.726L117.461 148.644C117.304 154.782 117.775 170.952 130.057 174.24Z" fill="#263238"/>
<path d="M123.203 121.214C118.184 128.28 114.767 152.381 118.668 159.311C124.328 169.356 137.375 174.485 146.862 166.813C156.055 159.379 159.956 127.884 155.243 121.2C148.301 111.345 130.623 110.766 123.203 121.214Z" fill="#AD6359"/>
<path d="M141.174 142.479C141.174 142.411 141.038 142.533 141.031 142.601C140.84 144.231 140.349 146.066 138.807 146.387C138.76 146.387 138.753 146.482 138.807 146.482C140.642 146.496 141.263 144.047 141.174 142.479Z" fill="#263238"/>
<path d="M139.98 140.569C137.402 139.989 136.427 145.193 138.821 145.732C141.215 146.271 142.142 141.053 139.98 140.569Z" fill="#263238"/>
<path d="M150.04 144.402C150.04 144.341 150.149 144.505 150.135 144.566C149.781 146.169 149.651 148.065 151.008 148.869C151.049 148.869 151.008 148.978 151.008 148.958C149.242 148.358 149.446 145.841 150.04 144.402Z" fill="#263238"/>
<path d="M151.793 142.97C154.418 143.256 153.648 148.494 151.213 148.228C148.778 147.962 149.59 142.724 151.793 142.97Z" fill="#263238"/>
<path d="M138.371 137.807C139.092 137.734 139.809 137.622 140.519 137.473C141.292 137.46 142.04 137.194 142.647 136.716C142.807 136.528 142.901 136.292 142.913 136.046C142.926 135.799 142.856 135.555 142.715 135.352C142.067 134.513 141.017 134.431 140.021 134.554C139.013 134.648 138.075 135.112 137.389 135.857C137.242 136.035 137.15 136.253 137.124 136.483C137.098 136.713 137.14 136.945 137.244 137.152C137.348 137.359 137.51 137.531 137.71 137.647C137.91 137.763 138.14 137.819 138.371 137.807Z" fill="#263238"/>
<path d="M154.295 140.726C153.621 140.455 152.963 140.145 152.324 139.799C151.586 139.57 150.944 139.105 150.497 138.476C150.395 138.25 150.37 137.998 150.427 137.757C150.484 137.517 150.618 137.302 150.81 137.146C151.67 136.525 152.7 136.743 153.627 137.146C154.569 137.519 155.34 138.228 155.789 139.137C155.878 139.35 155.904 139.584 155.863 139.811C155.822 140.038 155.716 140.249 155.558 140.417C155.4 140.585 155.197 140.704 154.973 140.759C154.749 140.813 154.513 140.802 154.295 140.726Z" fill="#263238"/>
<path d="M136.468 157.053C136.782 157.503 137.075 158.097 137.648 158.253C138.249 158.352 138.865 158.324 139.455 158.172C139.468 158.164 139.483 158.162 139.497 158.166C139.504 158.168 139.51 158.171 139.516 158.176C139.522 158.18 139.527 158.186 139.53 158.192C139.534 158.198 139.536 158.205 139.537 158.212C139.538 158.22 139.537 158.227 139.536 158.234C139.534 158.241 139.53 158.247 139.526 158.253C139.522 158.259 139.516 158.264 139.51 158.267C139.221 158.542 138.863 158.733 138.474 158.821C138.085 158.908 137.679 158.889 137.3 158.765C136.989 158.616 136.728 158.379 136.55 158.083C136.371 157.787 136.284 157.446 136.298 157.101C136.291 156.999 136.4 156.992 136.468 157.053Z" fill="#263238"/>
<path d="M139.067 152.545C139.356 153.26 139.79 153.908 140.341 154.446C140.893 154.985 141.551 155.404 142.272 155.676C142.899 155.921 143.559 156.074 144.23 156.133C144.356 156.146 144.484 156.146 144.611 156.133H144.98C145.068 156.13 145.153 156.1 145.223 156.046C145.293 155.992 145.344 155.917 145.368 155.833C145.375 155.776 145.375 155.719 145.368 155.662V155.519C145.634 154.284 145.866 152.375 145.866 152.375C146.282 152.682 148.397 154.155 148.485 153.5C149.167 148.044 149.924 142.043 149.46 136.498C149.453 136.463 149.434 136.431 149.406 136.409C149.378 136.386 149.343 136.374 149.307 136.374C149.271 136.374 149.236 136.386 149.208 136.409C149.18 136.431 149.161 136.463 149.154 136.498C148.294 141.688 148.349 146.994 147.564 152.218C146.814 151.683 145.992 151.256 145.123 150.949C144.939 150.949 144.741 154.646 144.577 155.191V155.246C142.443 155.123 140.99 154.203 139.23 152.423C139.128 152.313 138.992 152.402 139.067 152.545Z" fill="#263238"/>
<path d="M143.616 155.369C142.768 156.126 141.739 156.652 140.628 156.896C140.02 157.013 139.391 156.937 138.828 156.678C137.607 156.098 137.798 154.912 138.221 153.95C138.454 153.439 138.744 152.956 139.087 152.511C140.252 153.923 141.839 154.925 143.616 155.369Z" fill="#263238"/>
<path d="M140.628 156.896C140.02 157.013 139.391 156.937 138.828 156.678C137.607 156.098 137.798 154.912 138.221 153.95C139.571 154.346 140.765 155.539 140.628 156.896Z" fill="#FF99BA"/>
<path d="M136.045 149.224C134.795 148.822 133.683 148.078 132.835 147.075C131.987 146.073 131.437 144.853 131.248 143.553C131.059 142.254 131.238 140.927 131.765 139.725C132.293 138.522 133.147 137.492 134.23 136.75C135.314 136.009 136.584 135.587 137.896 135.531C139.208 135.476 140.509 135.789 141.652 136.437C142.794 137.084 143.732 138.038 144.359 139.192C144.986 140.346 145.276 141.652 145.198 142.963C145.08 144.819 144.232 146.553 142.839 147.786C141.445 149.018 139.621 149.648 137.764 149.538C137.181 149.501 136.604 149.396 136.045 149.224ZM140.049 136.75C139.566 136.597 139.067 136.503 138.562 136.47C137.019 136.376 135.498 136.873 134.308 137.861C133.119 138.849 132.351 140.253 132.161 141.787C131.97 143.321 132.372 144.871 133.283 146.119C134.195 147.368 135.548 148.222 137.068 148.508C138.587 148.793 140.158 148.489 141.461 147.657C142.764 146.825 143.701 145.528 144.081 144.029C144.461 142.531 144.256 140.943 143.506 139.591C142.757 138.239 141.521 137.223 140.049 136.75Z" fill="#3398DB"/>
<path d="M151.868 152.238C149.31 151.413 147.83 148.051 148.533 144.457C148.841 142.734 149.681 141.15 150.934 139.928C151.439 139.37 152.081 138.953 152.795 138.716C153.51 138.479 154.273 138.43 155.012 138.575C155.751 138.72 156.44 139.053 157.012 139.542C157.584 140.031 158.021 140.66 158.279 141.367C158.979 142.972 159.158 144.756 158.79 146.468C158.047 150.267 155.141 152.907 152.318 152.347C152.161 152.32 152.018 152.279 151.868 152.238ZM155.176 139.587C155.064 139.55 154.95 139.521 154.835 139.498C154.241 139.409 153.635 139.464 153.068 139.659C152.5 139.853 151.988 140.182 151.575 140.617C150.465 141.704 149.724 143.111 149.454 144.641C148.813 147.928 150.17 150.977 152.495 151.461C154.821 151.945 157.228 149.613 157.869 146.318C158.201 144.802 158.046 143.22 157.426 141.797C157.229 141.29 156.926 140.831 156.538 140.45C156.15 140.069 155.686 139.775 155.176 139.587Z" fill="#3398DB"/>
<path d="M144.809 143.72L144.352 142.895C145.573 142.213 148.219 141.531 149.549 143.645L148.751 144.143C147.564 142.233 144.918 143.659 144.809 143.72Z" fill="#3398DB"/>
<path d="M113.778 139.478L113.042 138.899C113.314 138.551 115.77 135.55 117.877 135.618C119.862 135.686 131.974 139.26 132.492 139.417L132.226 140.317C128.755 139.287 119.377 136.607 117.85 136.559C116.452 136.512 114.433 138.653 113.778 139.478Z" fill="#3398DB"/>
<path d="M156.335 132.296C147.148 135.652 138.535 124.794 138.535 124.794C137.43 126.329 135.86 127.466 134.057 128.036C132.254 128.607 130.316 128.579 128.53 127.959C128.53 127.959 123.599 140.801 120.121 139.88C114.815 138.516 117.795 120.02 120.38 116.904C122.965 113.787 127.704 114.039 127.704 114.039C127.704 114.039 128.741 111.373 132.669 109.702C137.014 107.854 148.58 114.81 148.58 114.81C149.726 113.318 151.204 112.115 152.898 111.298C153.31 111.091 153.76 110.97 154.22 110.942C154.68 110.915 155.142 110.98 155.576 111.136C156.01 111.292 156.408 111.534 156.746 111.847C157.084 112.161 157.355 112.54 157.542 112.962C156.627 113.767 155.906 114.77 155.435 115.894C153.811 119.611 156.976 120.416 157.849 116.897C158.226 115.591 158.117 114.193 157.542 112.962C159.697 111.066 162.432 110.97 163.68 112.6C165.876 115.547 163.98 129.514 156.335 132.296Z" fill="#263238"/>
<path d="M121.887 141.333C121.887 141.333 119.016 132.331 115.067 133.149C111.118 133.967 111.691 145.875 115.176 148.562C115.598 148.938 116.093 149.225 116.629 149.405C117.165 149.585 117.732 149.655 118.296 149.611C118.859 149.566 119.408 149.408 119.91 149.146C120.411 148.884 120.854 148.523 121.212 148.085L121.887 141.333Z" fill="#AD6359"/>
<path d="M115.333 136.545C115.32 136.543 115.307 136.545 115.296 136.551C115.285 136.557 115.275 136.566 115.269 136.577C115.263 136.588 115.261 136.601 115.262 136.614C115.264 136.627 115.27 136.638 115.278 136.648C117.693 138.626 118.354 141.64 118.545 144.607C118.04 143.331 117.092 142.424 115.421 142.977C115.333 142.977 115.367 143.14 115.421 143.147C115.956 143.143 116.478 143.305 116.917 143.611C117.355 143.916 117.688 144.35 117.87 144.852C118.168 145.694 118.374 146.565 118.484 147.451C118.538 147.737 119.022 147.744 119.016 147.451V147.376C120.209 143.856 119.002 138.08 115.333 136.545Z" fill="#263238"/>
<path d="M132.936 171.607L129.198 182.437L111.057 165.544L106.283 170.966C106.283 170.966 122.467 198 122.569 196.78L129.703 185.104L136.093 193.322L135.82 176.238L132.936 171.607Z" fill="#EBEBEB"/>
<path d="M136.4 183.317C136.196 179.989 136.366 179.736 136.005 176.415C136.005 176.299 135.814 176.244 135.78 176.415C135.098 179.627 135.664 189.25 135.636 192.306L135.602 192.271C135.268 191.917 129.792 185.015 129.717 185.124C128.509 186.952 122.862 195.497 122.583 196.261C120.025 191.965 110.211 176.354 107.183 172.289C107.168 172.262 107.142 172.242 107.112 172.234C107.082 172.225 107.05 172.229 107.023 172.245C106.996 172.26 106.976 172.285 106.968 172.315C106.959 172.346 106.963 172.378 106.979 172.405C109.236 176.94 122.221 197.959 122.419 197.905C122.556 198.007 129.198 187.518 129.812 185.567C130.999 187.041 136.537 194.802 136.564 194.311C136.698 190.646 136.643 186.976 136.4 183.317Z" fill="#263238"/>
<path d="M32.354 275.182L66.8905 275.012L101.427 274.957L170.5 274.841L239.573 274.95L274.109 275.012L308.646 275.182L274.109 275.346L239.573 275.407L170.5 275.523L101.427 275.407L66.8905 275.346L32.354 275.182Z" fill="#263238"/>
<path d="M244.115 273.396H150.292V277.603H244.115V273.396Z" fill="#455A64"/>
<path d="M244.115 273.396H196.893V277.603H244.115V273.396Z" fill="#263238"/>
<path d="M201.974 277.603H293.41L305.365 215.5H213.93L201.974 277.603Z" fill="#455A64"/>
<path d="M248.105 246.552C248.027 247.26 248.101 247.976 248.322 248.654C248.543 249.331 248.905 249.954 249.385 250.48C249.865 251.006 250.452 251.425 251.106 251.707C251.76 251.989 252.467 252.129 253.179 252.117C254.694 252.088 256.146 251.507 257.261 250.482C258.377 249.457 259.079 248.059 259.235 246.552C259.313 245.843 259.238 245.126 259.017 244.448C258.796 243.77 258.433 243.147 257.952 242.621C257.472 242.094 256.884 241.676 256.229 241.395C255.574 241.113 254.867 240.974 254.154 240.987C252.639 241.012 251.186 241.593 250.071 242.619C248.956 243.645 248.257 245.044 248.105 246.552Z" fill="#EBEBEB"/>
<path d="M297.7 255.302L293.403 277.597H222.502L297.7 255.302Z" fill="#263238"/>
<path d="M81.0559 292.662H63.9104V295.336H81.0559V292.662Z" fill="#455A64"/>
<path d="M81.0559 292.662H63.9104V294.428H81.0559V292.662Z" fill="#263238"/>
<path d="M43.5594 285.467C44.6013 287.006 46.0632 288.214 47.7716 288.947C49.4799 289.68 51.3627 289.906 53.1961 289.6C53.7904 289.487 54.3727 289.318 54.9352 289.095C55.7895 288.765 56.6039 288.339 57.3631 287.827L55.1807 284.594C54.7765 284.876 54.3473 285.12 53.8986 285.324C49.8066 287.172 47.2286 283.96 46.7171 283.223C44.371 279.915 43.5253 272.373 45.9123 269.467C46.0692 269.256 46.7512 268.915 49.5201 269.501C50.0248 269.617 50.6045 269.747 51.2592 269.924C51.7671 270.098 52.2935 270.213 52.8278 270.265L52.896 268.321L53.087 266.391C52.9097 266.357 52.63 266.275 52.2686 266.173C50.9924 265.799 49.6877 265.53 48.3675 265.368C46.3215 265.157 44.2073 265.368 42.9115 267.005C39.0446 271.745 40.6132 281.327 43.5594 285.467Z" fill="#455A64"/>
<path d="M55.1945 284.594C54.7903 284.876 54.3611 285.12 53.9124 285.324L54.949 289.095C55.8033 288.765 56.6177 288.339 57.3769 287.827L55.1945 284.594Z" fill="#263238"/>
<path d="M48.3811 265.368L49.5337 269.501C50.0384 269.617 50.6181 269.747 51.2728 269.924C51.7807 270.098 52.3071 270.213 52.8414 270.265L52.9096 268.321L53.1005 266.391C52.9232 266.357 52.6436 266.275 52.2821 266.173C51.0059 265.799 49.7012 265.53 48.3811 265.368Z" fill="#263238"/>
<path d="M95.2962 260.342C95.2962 260.342 93.2502 277.822 89.6834 285.18C86.1165 292.539 81.172 293.364 78.0894 293.364H66.8773C63.8015 293.364 58.8365 292.546 55.2833 285.18C51.7301 277.815 49.6772 260.342 49.6772 260.342H95.2962Z" fill="#455A64"/>
<path d="M91.9407 271.759C91.7222 271.759 91.5086 271.694 91.3269 271.572C91.1452 271.451 91.0036 271.278 90.92 271.077C90.8363 270.875 90.8145 270.653 90.8571 270.438C90.8997 270.224 91.005 270.027 91.1595 269.873C91.314 269.718 91.5108 269.613 91.7252 269.57C91.9395 269.528 92.1616 269.549 92.3635 269.633C92.5654 269.717 92.7379 269.858 92.8593 270.04C92.9807 270.222 93.0455 270.435 93.0455 270.654C93.0455 270.947 92.9291 271.228 92.7219 271.435C92.5147 271.642 92.2337 271.759 91.9407 271.759ZM91.9407 269.76C91.7624 269.76 91.588 269.813 91.4399 269.913C91.2917 270.012 91.1763 270.153 91.1084 270.318C91.0404 270.483 91.023 270.664 91.0583 270.839C91.0936 271.014 91.18 271.174 91.3066 271.3C91.4332 271.425 91.5942 271.51 91.7693 271.544C91.9444 271.578 92.1256 271.56 92.29 271.49C92.4543 271.421 92.5945 271.305 92.6926 271.156C92.7906 271.007 92.8423 270.832 92.8409 270.654C92.841 270.536 92.8176 270.419 92.7723 270.31C92.727 270.201 92.6605 270.103 92.5769 270.02C92.4932 269.937 92.3939 269.871 92.2847 269.826C92.1755 269.782 92.0586 269.759 91.9407 269.76ZM59.4366 266.112C59.2178 266.113 59.0035 266.049 58.8209 265.929C58.6383 265.808 58.4957 265.636 58.411 265.434C58.3263 265.233 58.3035 265.01 58.3453 264.795C58.3872 264.581 58.4919 264.383 58.6461 264.228C58.8003 264.073 58.9972 263.967 59.2117 263.924C59.4262 263.881 59.6487 263.902 59.851 263.985C60.0533 264.069 60.2262 264.21 60.3479 264.392C60.4696 264.574 60.5346 264.788 60.5346 265.007C60.5346 265.299 60.4191 265.579 60.2134 265.786C60.0077 265.993 59.7284 266.11 59.4366 266.112ZM59.4366 264.113C59.258 264.112 59.083 264.164 58.9339 264.262C58.7848 264.361 58.6684 264.501 58.5994 264.666C58.5304 264.831 58.512 265.012 58.5465 265.188C58.581 265.363 58.6669 265.524 58.7932 265.65C58.9195 265.777 59.0806 265.862 59.2558 265.897C59.4311 265.931 59.6127 265.913 59.7774 265.844C59.9422 265.775 60.0827 265.659 60.1811 265.51C60.2795 265.36 60.3314 265.185 60.33 265.007C60.3282 264.77 60.2335 264.544 60.0664 264.377C59.8992 264.21 59.673 264.115 59.4366 264.113ZM61.0597 282.214C60.8409 282.215 60.6267 282.151 60.4441 282.031C60.2615 281.91 60.1188 281.738 60.0342 281.536C59.9495 281.335 59.9266 281.112 59.9685 280.898C60.0103 280.683 60.115 280.485 60.2693 280.33C60.4235 280.175 60.6204 280.069 60.8349 280.026C61.0494 279.983 61.2719 280.004 61.4741 280.087C61.6764 280.171 61.8494 280.312 61.9711 280.494C62.0928 280.676 62.1578 280.89 62.1578 281.109C62.156 281.4 62.04 281.679 61.8346 281.886C61.6293 282.092 61.351 282.21 61.0597 282.214ZM61.0597 280.215C60.8811 280.214 60.7061 280.266 60.557 280.364C60.408 280.463 60.2915 280.603 60.2225 280.768C60.1536 280.933 60.1352 281.114 60.1697 281.29C60.2042 281.465 60.2901 281.626 60.4164 281.752C60.5427 281.879 60.7037 281.964 60.879 281.999C61.0542 282.033 61.2358 282.015 61.4006 281.946C61.5654 281.877 61.7059 281.761 61.8043 281.612C61.9027 281.462 61.9545 281.287 61.9532 281.109C61.9514 280.872 61.8567 280.646 61.6895 280.479C61.5223 280.312 61.2961 280.217 61.0597 280.215ZM52.0983 263.227C51.8811 263.227 51.6688 263.162 51.4882 263.042C51.3077 262.921 51.1669 262.75 51.0838 262.549C51.0007 262.348 50.979 262.128 51.0213 261.915C51.0637 261.702 51.1683 261.506 51.3218 261.352C51.4754 261.199 51.6711 261.094 51.8841 261.052C52.097 261.009 52.3178 261.031 52.5185 261.114C52.7191 261.197 52.8906 261.338 53.0112 261.519C53.1319 261.699 53.1963 261.912 53.1963 262.129C53.1945 262.419 53.0782 262.698 52.8727 262.903C52.6672 263.109 52.3889 263.225 52.0983 263.227ZM52.0983 261.235C51.9199 261.235 51.7456 261.288 51.5974 261.388C51.4492 261.487 51.3338 261.628 51.2659 261.793C51.198 261.958 51.1806 262.139 51.2159 262.314C51.2511 262.489 51.3376 262.649 51.4641 262.775C51.5907 262.9 51.7518 262.985 51.9269 263.019C52.1019 263.053 52.2831 263.035 52.4475 262.965C52.6119 262.896 52.752 262.78 52.8501 262.631C52.9482 262.482 52.9999 262.307 52.9985 262.129C52.9985 262.011 52.9752 261.894 52.9299 261.785C52.8845 261.676 52.8181 261.578 52.7344 261.495C52.6507 261.412 52.5514 261.346 52.4423 261.301C52.3331 261.257 52.2162 261.234 52.0983 261.235ZM67.4023 270.067C67.1852 270.067 66.9729 270.003 66.7923 269.882C66.6117 269.762 66.471 269.59 66.3879 269.389C66.3048 269.189 66.2831 268.968 66.3254 268.755C66.3678 268.542 66.4724 268.346 66.6259 268.193C66.7795 268.039 66.9751 267.935 67.1881 267.892C67.4011 267.85 67.6219 267.872 67.8225 267.955C68.0232 268.038 68.1947 268.179 68.3153 268.359C68.436 268.54 68.5004 268.752 68.5004 268.969C68.4986 269.26 68.3823 269.538 68.1768 269.744C67.9713 269.949 67.693 270.065 67.4023 270.067ZM67.4023 268.076C67.2237 268.074 67.0487 268.126 66.8996 268.225C66.7506 268.323 66.6341 268.464 66.5651 268.628C66.4962 268.793 66.4778 268.975 66.5123 269.15C66.5468 269.325 66.6327 269.486 66.759 269.613C66.8853 269.739 67.0463 269.825 67.2216 269.859C67.3969 269.894 67.5784 269.875 67.7432 269.806C67.908 269.737 68.0485 269.621 68.1469 269.472C68.2453 269.323 68.2971 269.148 68.2958 268.969C68.294 268.733 68.1993 268.507 68.0321 268.339C67.865 268.172 67.6387 268.078 67.4023 268.076ZM79.3373 281.75C79.1205 281.749 78.9089 281.683 78.7292 281.562C78.5495 281.44 78.4098 281.268 78.3278 281.067C78.2457 280.867 78.2249 280.646 78.2681 280.434C78.3112 280.221 78.4163 280.026 78.5702 279.873C78.724 279.72 78.9196 279.616 79.1324 279.575C79.3453 279.533 79.5657 279.555 79.7659 279.638C79.9662 279.721 80.1372 279.862 80.2576 280.043C80.378 280.223 80.4422 280.435 80.4422 280.652C80.4404 280.944 80.3232 281.223 80.1162 281.429C79.9092 281.634 79.6292 281.75 79.3373 281.75ZM79.3373 279.758C79.159 279.758 78.9847 279.811 78.8365 279.911C78.6883 280.01 78.5729 280.151 78.505 280.316C78.4371 280.481 78.4196 280.662 78.4549 280.837C78.4902 281.012 78.5766 281.172 78.7032 281.298C78.8298 281.423 78.9909 281.509 79.1659 281.542C79.341 281.576 79.5222 281.558 79.6866 281.488C79.851 281.419 79.9911 281.303 80.0892 281.154C80.1873 281.005 80.2389 280.83 80.2376 280.652C80.2376 280.534 80.2143 280.417 80.1689 280.308C80.1236 280.2 80.0572 280.101 79.9735 280.018C79.8898 279.935 79.7905 279.869 79.6813 279.825C79.5722 279.78 79.4552 279.758 79.3373 279.758ZM72.0399 263.227C71.8228 263.227 71.6105 263.162 71.4299 263.042C71.2493 262.921 71.1086 262.75 71.0255 262.549C70.9424 262.348 70.9207 262.128 70.963 261.915C71.0054 261.702 71.11 261.506 71.2635 261.352C71.4171 261.199 71.6127 261.094 71.8257 261.052C72.0387 261.009 72.2595 261.031 72.4601 261.114C72.6608 261.197 72.8323 261.338 72.9529 261.519C73.0736 261.699 73.138 261.912 73.138 262.129C73.138 262.42 73.0223 262.699 72.8164 262.905C72.6104 263.111 72.3312 263.227 72.0399 263.227ZM72.0399 261.235C71.8616 261.235 71.6873 261.288 71.5391 261.388C71.3909 261.487 71.2755 261.628 71.2076 261.793C71.1397 261.958 71.1222 262.139 71.1575 262.314C71.1928 262.489 71.2792 262.649 71.4058 262.775C71.5324 262.9 71.6935 262.985 71.8685 263.019C72.0436 263.053 72.2248 263.035 72.3892 262.965C72.5536 262.896 72.6937 262.78 72.7918 262.631C72.8899 262.482 72.9415 262.307 72.9402 262.129C72.9402 262.011 72.9169 261.894 72.8715 261.785C72.8262 261.676 72.7598 261.578 72.6761 261.495C72.5924 261.412 72.4931 261.346 72.3839 261.301C72.2747 261.257 72.1578 261.234 72.0399 261.235ZM70.6759 277.351C70.4591 277.35 70.2475 277.284 70.0678 277.163C69.8881 277.041 69.7484 276.869 69.6664 276.668C69.5843 276.468 69.5635 276.247 69.6067 276.035C69.6498 275.822 69.7549 275.627 69.9088 275.474C70.0626 275.321 70.2582 275.217 70.471 275.176C70.6839 275.134 70.9043 275.156 71.1045 275.239C71.3048 275.323 71.4758 275.463 71.5962 275.644C71.7166 275.824 71.7808 276.036 71.7808 276.253C71.779 276.545 71.6618 276.824 71.4548 277.03C71.2478 277.236 70.9678 277.351 70.6759 277.351ZM70.6759 275.353C70.4979 275.353 70.3238 275.406 70.1758 275.504C70.0278 275.603 69.9124 275.744 69.8442 275.909C69.7761 276.073 69.7583 276.254 69.793 276.429C69.8277 276.603 69.9135 276.764 70.0394 276.89C70.1653 277.015 70.3257 277.101 70.5003 277.136C70.6749 277.171 70.856 277.153 71.0204 277.085C71.1849 277.017 71.3255 276.901 71.4245 276.753C71.5234 276.605 71.5762 276.431 71.5762 276.253C71.5771 276.134 71.5545 276.016 71.5096 275.906C71.4648 275.796 71.3986 275.696 71.3149 275.612C71.2312 275.528 71.1317 275.461 71.022 275.415C70.9124 275.369 70.7947 275.346 70.6759 275.346V275.353ZM59.7639 290.493C59.5468 290.493 59.3345 290.429 59.1539 290.308C58.9733 290.187 58.8326 290.016 58.7495 289.815C58.6664 289.615 58.6447 289.394 58.687 289.181C58.7294 288.968 58.834 288.772 58.9875 288.619C59.1411 288.465 59.3367 288.361 59.5497 288.318C59.7627 288.276 59.9835 288.298 60.1841 288.381C60.3848 288.464 60.5563 288.605 60.6769 288.785C60.7976 288.966 60.862 289.178 60.862 289.395C60.8621 289.682 60.7501 289.957 60.5501 290.162C60.35 290.367 60.0777 290.486 59.7912 290.493H59.7639ZM59.7639 288.495C59.5875 288.502 59.4169 288.56 59.2734 288.663C59.1299 288.766 59.0199 288.909 58.9569 289.074C58.894 289.239 58.881 289.418 58.9195 289.591C58.9579 289.763 59.0463 289.92 59.1734 290.043C59.3006 290.165 59.4609 290.248 59.6346 290.28C59.8082 290.312 59.9874 290.292 60.15 290.223C60.3125 290.154 60.4511 290.039 60.5486 289.892C60.6461 289.744 60.6982 289.572 60.6983 289.395C60.6983 289.276 60.6748 289.159 60.6291 289.049C60.5834 288.939 60.5165 288.84 60.4322 288.756C60.3479 288.672 60.2478 288.606 60.1378 288.561C60.0278 288.517 59.91 288.494 59.7912 288.495H59.7639ZM86.4711 264.877C86.2539 264.877 86.0416 264.813 85.861 264.692C85.6805 264.572 85.5397 264.4 85.4566 264.199C85.3735 263.999 85.3518 263.778 85.3941 263.565C85.4365 263.352 85.5411 263.156 85.6946 263.003C85.8482 262.849 86.0439 262.745 86.2569 262.702C86.4698 262.66 86.6906 262.682 86.8913 262.765C87.0919 262.848 87.2634 262.989 87.384 263.169C87.5047 263.35 87.5691 263.562 87.5691 263.779C87.5692 264.066 87.4572 264.341 87.2572 264.546C87.0571 264.751 86.7848 264.87 86.4983 264.877H86.4711ZM86.4711 262.879C86.2927 262.878 86.118 262.929 85.9691 263.027C85.8201 263.125 85.7037 263.266 85.6345 263.43C85.5653 263.594 85.5465 263.776 85.5805 263.951C85.6144 264.126 85.6996 264.287 85.8253 264.413C85.9509 264.54 86.1113 264.626 86.2861 264.662C86.4609 264.697 86.6423 264.679 86.8072 264.612C86.9721 264.544 87.1131 264.428 87.2123 264.28C87.3115 264.132 87.3645 263.958 87.3645 263.779C87.3647 263.546 87.2745 263.322 87.113 263.154C86.9515 262.987 86.7311 262.888 86.4983 262.879H86.4711ZM55.8493 274.357C55.6324 274.356 55.4208 274.29 55.2411 274.169C55.0614 274.047 54.9218 273.875 54.8397 273.675C54.7576 273.474 54.7369 273.253 54.78 273.041C54.8231 272.828 54.9282 272.633 55.0821 272.48C55.2359 272.327 55.4316 272.223 55.6444 272.182C55.8572 272.14 56.0776 272.162 56.2778 272.245C56.4781 272.329 56.6492 272.469 56.7695 272.65C56.8899 272.83 56.9541 273.042 56.9541 273.259C56.9523 273.551 56.8351 273.83 56.6281 274.036C56.4211 274.242 56.1411 274.357 55.8493 274.357ZM55.8493 272.359C55.6712 272.359 55.4972 272.412 55.3491 272.511C55.2011 272.609 55.0857 272.75 55.0176 272.915C54.9494 273.079 54.9316 273.26 54.9663 273.435C55.0011 273.609 55.0868 273.77 55.2127 273.896C55.3386 274.021 55.499 274.107 55.6736 274.142C55.8483 274.177 56.0293 274.159 56.1938 274.091C56.3583 274.023 56.4989 273.907 56.5978 273.759C56.6967 273.611 56.7495 273.437 56.7495 273.259C56.7495 273.02 56.6547 272.791 56.4858 272.622C56.317 272.454 56.088 272.359 55.8493 272.359ZM78.3553 271.07C78.1381 271.07 77.9258 271.005 77.7452 270.885C77.5647 270.764 77.4239 270.593 77.3408 270.392C77.2577 270.191 77.236 269.971 77.2783 269.758C77.3207 269.545 77.4253 269.349 77.5788 269.195C77.7324 269.042 77.9281 268.937 78.1411 268.895C78.354 268.852 78.5748 268.874 78.7755 268.957C78.9761 269.04 79.1476 269.181 79.2682 269.362C79.3889 269.542 79.4533 269.755 79.4533 269.972C79.4533 270.117 79.4245 270.261 79.3684 270.395C79.3124 270.529 79.2303 270.651 79.1269 270.753C79.0235 270.855 78.9008 270.936 78.766 270.99C78.6312 271.045 78.487 271.072 78.3416 271.07H78.3553ZM78.3553 269.072C78.1772 269.072 78.0032 269.124 77.8551 269.223C77.7071 269.322 77.5917 269.463 77.5236 269.627C77.4554 269.792 77.4376 269.973 77.4723 270.147C77.5071 270.322 77.5928 270.482 77.7187 270.608C77.8446 270.734 78.005 270.82 78.1796 270.855C78.3543 270.889 78.5353 270.872 78.6998 270.803C78.8643 270.735 79.0049 270.62 79.1038 270.472C79.2027 270.324 79.2555 270.15 79.2555 269.972C79.2546 269.853 79.2303 269.735 79.1839 269.625C79.1374 269.515 79.0699 269.416 78.985 269.332C78.9002 269.249 78.7997 269.183 78.6893 269.138C78.5789 269.093 78.4607 269.071 78.3416 269.072H78.3553ZM70.6896 288.85C70.4727 288.848 70.2611 288.783 70.0814 288.661C69.9018 288.54 69.7621 288.368 69.68 288.167C69.598 287.966 69.5772 287.746 69.6203 287.533C69.6635 287.321 69.7686 287.126 69.9224 286.973C70.0762 286.82 70.2719 286.716 70.4847 286.674C70.6975 286.632 70.9179 286.654 71.1182 286.738C71.3184 286.821 71.4895 286.962 71.6098 287.142C71.7302 287.323 71.7944 287.535 71.7944 287.752C71.789 288.043 71.6684 288.321 71.4588 288.524C71.2493 288.728 70.9678 288.84 70.6759 288.836L70.6896 288.85ZM70.6896 286.858C70.5112 286.858 70.3369 286.911 70.1887 287.01C70.0405 287.11 69.9252 287.251 69.8572 287.415C69.7893 287.58 69.7719 287.762 69.8072 287.936C69.8425 288.111 69.9289 288.272 70.0555 288.397C70.1821 288.523 70.3431 288.608 70.5182 288.642C70.6933 288.676 70.8745 288.657 71.0388 288.588C71.2032 288.519 71.3433 288.402 71.4414 288.254C71.5395 288.105 71.5912 287.93 71.5898 287.752C71.5917 287.631 71.5693 287.512 71.5239 287.401C71.4786 287.289 71.4112 287.188 71.3259 287.104C71.2406 287.019 71.139 286.952 71.0273 286.908C70.9157 286.863 70.7961 286.842 70.6759 286.844L70.6896 286.858ZM79.9375 292.819C79.7201 292.821 79.5067 292.76 79.3245 292.641C79.1423 292.522 78.9995 292.352 78.9141 292.152C78.8287 291.952 78.8046 291.731 78.8449 291.518C78.8851 291.304 78.9879 291.107 79.1402 290.952C79.2926 290.797 79.4875 290.69 79.7004 290.646C79.9133 290.602 80.1346 290.622 80.3361 290.703C80.5377 290.785 80.7104 290.924 80.8325 291.104C80.9546 291.284 81.0205 291.496 81.0219 291.714C81.0201 292.004 80.9036 292.282 80.6979 292.486C80.4922 292.69 80.2139 292.805 79.9239 292.805L79.9375 292.819ZM79.9375 290.821C79.7583 290.816 79.5821 290.866 79.4312 290.963C79.2803 291.059 79.1618 291.199 79.0907 291.363C79.0196 291.528 78.9992 291.71 79.0322 291.886C79.0651 292.062 79.1499 292.224 79.2756 292.352C79.4014 292.48 79.5623 292.567 79.738 292.603C79.9136 292.638 80.0958 292.621 80.2614 292.552C80.427 292.484 80.5683 292.367 80.6674 292.218C80.7664 292.069 80.8186 291.893 80.8173 291.714C80.8182 291.596 80.7958 291.478 80.7514 291.369C80.707 291.259 80.6414 291.16 80.5584 291.075C80.4755 290.991 80.3767 290.924 80.2679 290.878C80.159 290.832 80.0421 290.808 79.9239 290.807L79.9375 290.821ZM86.512 276.369C86.2948 276.369 86.0825 276.305 85.902 276.184C85.7214 276.063 85.5807 275.892 85.4975 275.691C85.4144 275.49 85.3927 275.27 85.4351 275.057C85.4774 274.844 85.582 274.648 85.7356 274.495C85.8891 274.341 86.0848 274.236 86.2978 274.194C86.5108 274.152 86.7315 274.173 86.9322 274.256C87.1328 274.34 87.3043 274.48 87.4249 274.661C87.5456 274.841 87.61 275.054 87.61 275.271C87.6046 275.562 87.4849 275.838 87.2768 276.041C87.0687 276.244 86.789 276.357 86.4983 276.355L86.512 276.369ZM86.512 274.371C86.3336 274.369 86.1589 274.421 86.01 274.519C85.8611 274.617 85.7446 274.757 85.6754 274.922C85.6062 275.086 85.5874 275.267 85.6214 275.442C85.6554 275.617 85.7406 275.778 85.8662 275.905C85.9918 276.032 86.1522 276.118 86.327 276.153C86.5018 276.189 86.6832 276.171 86.8481 276.103C87.013 276.035 87.154 275.92 87.2532 275.772C87.3524 275.624 87.4054 275.449 87.4054 275.271C87.4072 275.151 87.3851 275.032 87.3402 274.921C87.2953 274.809 87.2287 274.708 87.1442 274.623C87.0597 274.538 86.959 274.471 86.8481 274.425C86.7372 274.379 86.6183 274.356 86.4983 274.357L86.512 274.371ZM87.4941 286.258C87.2753 286.259 87.061 286.196 86.8784 286.075C86.6958 285.954 86.5531 285.782 86.4685 285.581C86.3838 285.379 86.361 285.157 86.4028 284.942C86.4447 284.727 86.5493 284.53 86.7036 284.374C86.8578 284.219 87.0547 284.113 87.2692 284.07C87.4837 284.027 87.7062 284.048 87.9085 284.132C88.1107 284.215 88.2837 284.357 88.4054 284.539C88.5271 284.72 88.5921 284.934 88.5921 285.153C88.5921 285.445 88.4766 285.725 88.2709 285.932C88.0652 286.139 87.7859 286.256 87.4941 286.258ZM87.4941 284.26C87.3157 284.26 87.1414 284.313 86.9932 284.412C86.845 284.511 86.7296 284.652 86.6617 284.817C86.5938 284.982 86.5764 285.163 86.6117 285.338C86.6469 285.513 86.7334 285.673 86.86 285.799C86.9865 285.925 87.1476 286.01 87.3227 286.044C87.4977 286.078 87.6789 286.059 87.8433 285.99C88.0077 285.92 88.1478 285.804 88.2459 285.655C88.344 285.506 88.3957 285.331 88.3943 285.153C88.3907 284.917 88.2943 284.691 88.1259 284.525C87.9574 284.359 87.7305 284.266 87.4941 284.266V284.26Z" fill="white"/>
</svg>
