<svg width="341" height="342" viewBox="0 0 341 342" fill="none" xmlns="http://www.w3.org/2000/svg">
<path d="M165.262 308.381C209.301 308.381 245.002 302.738 245.002 295.778C245.002 288.817 209.301 283.174 165.262 283.174C121.223 283.174 85.5227 288.817 85.5227 295.778C85.5227 302.738 121.223 308.381 165.262 308.381Z" fill="#EBEBEB"/>
<path d="M87.862 313.646C129.008 313.646 162.364 308.376 162.364 301.875C162.364 295.374 129.008 290.104 87.862 290.104C46.7159 290.104 13.3604 295.374 13.3604 301.875C13.3604 308.376 46.7159 313.646 87.862 313.646Z" fill="#EBEBEB"/>
<path d="M253.138 313.646C294.284 313.646 327.64 308.376 327.64 301.875C327.64 295.374 294.284 290.104 253.138 290.104C211.992 290.104 178.636 295.374 178.636 301.875C178.636 308.376 211.992 313.646 253.138 313.646Z" fill="#EBEBEB"/>
<path d="M12.2759 258.22L51.8319 258.049L91.3879 257.995L170.5 257.879L249.612 257.988L289.168 258.049L328.724 258.22L289.168 258.384L249.612 258.445L170.5 258.561L91.3879 258.445L51.8319 258.384L12.2759 258.22Z" fill="#263238"/>
<path d="M197.964 185.9C198.864 188.512 197.882 192.72 199.935 192.631C201.763 192.57 202.158 189.61 202.158 189.61C202.158 189.61 202.793 193.088 204.736 192.468C206.68 191.847 206.462 188.512 206.462 188.512C206.462 188.512 206.857 191.431 208.753 190.674C210.649 189.917 210.984 187.046 210.984 187.046C210.984 187.046 211.666 187.803 212.77 186.664C214.346 185.034 213.677 180.178 212.723 177.723C211.768 175.268 206.476 166.995 205.643 165.74L189.848 171.715C189.848 171.715 189.528 176.857 189.685 179.483C189.842 182.108 192.754 190.62 194.916 190.04C197.078 189.46 194.916 183.486 194.704 181.904C194.493 180.321 194.827 180.008 195.475 180.649C195.898 181.085 197.569 184.768 197.964 185.9Z" fill="#AD6359"/>
<path d="M202.111 189.481C202.37 185.321 201.77 183.452 199.799 179.844C199.758 179.776 199.853 179.701 199.901 179.776C202.152 183.124 203.25 185.361 202.309 189.508C202.268 189.706 202.097 189.679 202.111 189.481Z" fill="#263238"/>
<path d="M206.407 188.71C206.305 184.359 205.664 182.327 203.884 178.398C203.884 178.344 203.945 178.296 203.979 178.351C206.025 182.054 207.096 184.311 206.626 188.669C206.605 188.867 206.414 188.908 206.407 188.71Z" fill="#263238"/>
<path d="M210.943 187.019C210.54 182.818 209.933 180.56 207.717 176.973C207.711 176.965 207.707 176.956 207.704 176.946C207.702 176.937 207.702 176.927 207.703 176.917C207.705 176.907 207.708 176.897 207.714 176.889C207.719 176.881 207.726 176.873 207.734 176.867C207.742 176.862 207.751 176.857 207.761 176.855C207.77 176.853 207.78 176.852 207.79 176.854C207.8 176.856 207.809 176.859 207.818 176.864C207.826 176.87 207.834 176.876 207.839 176.884C210.465 180.294 211.249 183.132 211.072 186.998C211.059 187.264 210.97 187.264 210.943 187.019Z" fill="#263238"/>
<path d="M179.216 116.418C189.862 129.594 204.273 161.887 205.998 166.484C207.171 169.607 190.803 176.175 190.312 173.931C189.698 171.067 178.998 135.398 176.481 122.099C175.11 114.72 177.013 113.697 179.216 116.418Z" fill="#AD6359"/>
<path d="M176.351 125.448C178.104 137.621 188.566 171.394 188.566 171.394L200.972 166.675L207.232 164.288C207.232 164.288 189.5 130.563 182.046 119.392C181.466 118.532 180.935 117.789 180.443 117.168C175.738 111.18 175.001 116.07 176.351 125.448Z" fill="#455A64"/>
<path d="M201.047 160.809C200.819 159.947 200.819 159.04 201.047 158.177C201.274 159.04 201.274 159.947 201.047 160.809Z" fill="white"/>
<path d="M178.514 118.225C178.393 117.795 178.336 117.349 178.343 116.902C178.336 116.458 178.393 116.014 178.514 115.586C178.631 116.015 178.688 116.458 178.684 116.902C178.688 117.349 178.631 117.794 178.514 118.225Z" fill="white"/>
<path d="M192.392 154.071C193.255 153.844 194.162 153.844 195.025 154.071C194.162 154.299 193.255 154.299 192.392 154.071Z" fill="white"/>
<path d="M185.954 137.226C186.819 136.998 187.728 136.998 188.593 137.226C188.166 137.349 187.722 137.406 187.277 137.396C186.83 137.403 186.385 137.346 185.954 137.226Z" fill="white"/>
<path d="M195.959 146.89C195.573 146.669 195.219 146.396 194.909 146.078C194.588 145.77 194.315 145.416 194.097 145.028C194.867 145.479 195.508 146.12 195.959 146.89Z" fill="white"/>
<path d="M182.899 126.205C182.513 125.984 182.159 125.711 181.848 125.393C181.528 125.085 181.255 124.731 181.037 124.343C181.425 124.56 181.779 124.834 182.087 125.154C182.405 125.465 182.678 125.818 182.899 126.205Z" fill="white"/>
<path d="M186.814 160.243C186.04 159.795 185.396 159.153 184.945 158.381C185.335 158.599 185.691 158.872 186.002 159.193C186.318 159.505 186.591 159.858 186.814 160.243Z" fill="white"/>
<path d="M187.277 146.344C187.055 146.731 186.782 147.087 186.466 147.401C186.153 147.72 185.797 147.993 185.408 148.213C185.857 147.437 186.501 146.793 187.277 146.344Z" fill="white"/>
<path d="M195.475 164.758C195.026 165.532 194.385 166.176 193.613 166.627C193.831 166.237 194.105 165.881 194.425 165.57C194.735 165.252 195.089 164.979 195.475 164.758Z" fill="white"/>
<path d="M181.964 130.876C181.513 131.646 180.872 132.287 180.103 132.738C180.554 131.969 181.195 131.328 181.964 130.876Z" fill="white"/>
<path d="M187.877 167.752C195.243 164.281 203.502 161.758 204.927 161.212C204.935 161.21 204.942 161.209 204.95 161.21C204.957 161.21 204.964 161.213 204.971 161.216C204.978 161.219 204.984 161.224 204.988 161.23C204.993 161.236 204.997 161.242 204.999 161.25C205.001 161.257 205.002 161.264 205.001 161.272C205.001 161.279 204.999 161.287 204.995 161.293C204.992 161.3 204.987 161.306 204.981 161.311C204.975 161.315 204.969 161.319 204.962 161.321C203.55 161.785 194.425 165.693 187.912 167.868C187.837 167.896 187.809 167.787 187.877 167.752Z" fill="#263238"/>
<path d="M199.765 167.132L188.566 171.394C188.566 171.394 178.104 137.621 176.352 125.448C175.465 119.31 175.479 115.081 176.918 114.597L199.765 167.132Z" fill="#263238"/>
<path d="M167.472 260.395C167.472 260.395 167.472 285.554 167.472 285.574C167.472 290.383 167.513 294.604 167.745 296.78C167.742 296.793 167.742 296.807 167.745 296.821C167.747 297.336 167.866 297.844 168.093 298.307C169.518 299.289 207.969 300.606 209.326 300.197C210.683 299.787 209.633 295.893 208.181 294.652C206.728 293.411 192.229 286.325 192.229 286.325L191.983 261.172L167.472 260.395Z" fill="#DD6A57"/>
<path d="M167.479 280.405V285.574C167.479 290.382 167.52 294.604 167.752 296.78C167.748 296.793 167.748 296.807 167.752 296.821C167.809 297.328 167.925 297.827 168.099 298.307C169.525 299.289 207.976 300.606 209.333 300.196C210.69 299.787 209.64 295.893 208.187 294.652C206.735 293.411 192.235 286.325 192.235 286.325L192.304 281.08L167.479 280.405Z" fill="#455A64"/>
<path d="M209.374 300.224C208.01 300.633 169.572 299.317 168.14 298.335C167.588 297.973 167.458 292.361 167.458 285.575V285.363L192.269 285.929V286.352C192.269 286.352 206.762 293.438 208.221 294.679C209.681 295.921 210.738 299.829 209.374 300.224Z" fill="#455A64"/>
<path d="M208.985 298.723C202.506 298.342 176.352 297.414 169.927 297.53C169.873 297.53 169.873 297.564 169.927 297.571C176.338 298.089 202.499 298.798 208.985 298.826C209.115 298.826 209.122 298.73 208.985 298.723Z" fill="#263238"/>
<path d="M194.37 286.502C191.84 285.936 188.709 286.223 186.697 287.968C186.616 288.037 186.697 288.146 186.8 288.125C189.256 287.426 191.78 286.994 194.329 286.836C194.373 286.842 194.418 286.829 194.453 286.802C194.488 286.774 194.511 286.734 194.517 286.69C194.522 286.645 194.51 286.601 194.482 286.566C194.455 286.53 194.414 286.508 194.37 286.502Z" fill="#263238"/>
<path d="M196.157 287.668C193.62 287.109 190.489 287.395 188.478 289.141C188.403 289.209 188.478 289.319 188.58 289.298C191.044 288.592 193.578 288.155 196.136 287.995C196.18 287.998 196.223 287.984 196.255 287.955C196.288 287.926 196.308 287.885 196.31 287.842C196.313 287.799 196.298 287.756 196.27 287.723C196.241 287.691 196.2 287.671 196.157 287.668Z" fill="#263238"/>
<path d="M197.957 288.841C195.427 288.282 192.29 288.569 190.278 290.315C190.203 290.383 190.278 290.492 190.387 290.471C192.849 289.764 195.381 289.328 197.937 289.169C197.98 289.172 198.023 289.157 198.056 289.128C198.088 289.099 198.108 289.059 198.111 289.015C198.114 288.972 198.099 288.929 198.07 288.897C198.041 288.864 198.001 288.844 197.957 288.841Z" fill="#263238"/>
<path d="M165.269 167.098L166.231 242.302L166.797 286.632L193.708 286.1L188.443 165.597L188.177 151.8H165.453L165.269 167.098Z" fill="#DBDBDB"/>
<path d="M192.583 281.605C188.382 281.571 189.582 281.524 185.381 281.53C183.335 281.53 169.811 281.585 167.895 281.926C167.884 281.926 167.873 281.93 167.866 281.938C167.858 281.946 167.854 281.956 167.854 281.967C167.854 281.978 167.858 281.988 167.866 281.996C167.873 282.004 167.884 282.008 167.895 282.008C169.818 282.308 183.328 282.008 185.381 282.008C189.582 281.912 188.375 281.892 192.576 281.755C192.586 281.756 192.596 281.754 192.605 281.751C192.615 281.748 192.623 281.743 192.63 281.736C192.638 281.729 192.643 281.721 192.648 281.712C192.652 281.703 192.654 281.694 192.655 281.684C192.655 281.674 192.654 281.664 192.65 281.655C192.647 281.646 192.642 281.637 192.635 281.63C192.628 281.623 192.62 281.617 192.612 281.612C192.603 281.608 192.593 281.606 192.583 281.605Z" fill="#263238"/>
<path d="M180.594 171.742C180.594 171.688 180.682 171.688 180.682 171.742C180.682 178.774 180.901 185.812 181.071 192.843C181.242 199.875 181.446 206.913 181.637 213.951C182.019 228.007 182.585 242.063 183.103 256.119C183.394 264.003 183.758 271.885 184.195 279.764C184.195 279.812 184.12 279.812 184.113 279.764C183.097 265.722 182.115 251.679 181.562 237.61C181.01 223.54 180.6 209.491 180.532 195.421C180.498 187.53 180.607 179.64 180.594 171.742Z" fill="#263238"/>
<path d="M165.269 167.098L166.231 242.302L184.27 151.8H165.453L165.269 167.098Z" fill="#263238"/>
<path d="M162.118 261.145C162.118 261.145 158.906 285.131 158.906 285.145C158.906 289.96 158.763 294.175 158.504 296.357C158.506 296.368 158.506 296.38 158.504 296.391C158.496 296.906 158.373 297.411 158.142 297.871V297.905C156.703 298.867 118.238 299.74 116.888 299.317C115.538 298.894 116.629 295.014 118.095 293.786C119.561 292.558 134.143 285.643 134.143 285.643L138.18 260.511L162.118 261.145Z" fill="#DD6A57"/>
<path d="M159.315 280.016C159.063 283.024 158.892 285.152 158.892 285.165C158.892 289.98 158.749 294.195 158.49 296.377C158.493 296.389 158.493 296.4 158.49 296.411C158.428 296.917 158.307 297.414 158.128 297.891V297.925C156.689 298.887 118.225 299.76 116.874 299.337C115.524 298.914 116.615 295.034 118.081 293.806C119.548 292.579 134.129 285.663 134.129 285.663L134.606 280.357L159.315 280.016Z" fill="#455A64"/>
<path d="M116.84 299.317C118.204 299.74 156.649 298.867 158.094 297.905C158.647 297.544 158.845 291.938 158.892 285.145V284.934L134.074 285.22V285.643C134.074 285.643 119.5 292.558 118.027 293.786C116.554 295.014 115.483 298.901 116.84 299.317Z" fill="#455A64"/>
<path d="M117.243 297.816C123.722 297.51 149.883 296.889 156.308 297.073C156.362 297.073 156.362 297.114 156.308 297.114C149.89 297.557 123.722 297.973 117.236 297.926C117.106 297.919 117.106 297.823 117.243 297.816Z" fill="#263238"/>
<path d="M131.312 285.356C133.856 284.824 136.987 285.145 138.978 286.918C139.053 286.986 138.978 287.095 138.869 287.068C136.413 286.345 133.886 285.888 131.333 285.704C131.287 285.707 131.241 285.691 131.207 285.66C131.172 285.63 131.151 285.587 131.149 285.54C131.146 285.494 131.162 285.449 131.192 285.414C131.223 285.38 131.266 285.359 131.312 285.356Z" fill="#263238"/>
<path d="M129.498 286.509C132.042 285.97 135.166 286.291 137.157 288.064C137.239 288.139 137.157 288.241 137.055 288.221C134.599 287.498 132.072 287.041 129.519 286.857C129.496 286.858 129.473 286.855 129.451 286.848C129.43 286.84 129.41 286.828 129.393 286.813C129.376 286.798 129.362 286.78 129.352 286.759C129.342 286.738 129.336 286.716 129.335 286.693C129.333 286.67 129.336 286.647 129.344 286.626C129.351 286.604 129.363 286.584 129.378 286.567C129.393 286.55 129.412 286.536 129.432 286.526C129.453 286.516 129.475 286.51 129.498 286.509Z" fill="#263238"/>
<path d="M127.684 287.661C130.221 287.123 133.351 287.443 135.343 289.216C135.418 289.285 135.343 289.394 135.241 289.373C132.782 288.65 130.254 288.192 127.698 288.009C127.652 288.011 127.607 287.994 127.573 287.963C127.539 287.932 127.519 287.888 127.517 287.842C127.515 287.796 127.532 287.751 127.563 287.717C127.594 287.683 127.638 287.663 127.684 287.661Z" fill="#263238"/>
<path d="M185.865 151.8C185.77 152.271 184.181 159.643 182.53 165.979C181.33 170.603 180.103 174.675 179.393 175.091C178.684 175.507 174.687 177.293 173.378 177.819L167.41 234.936L159.404 286.318L132.553 284.913L154.084 151.8H185.865Z" fill="#DBDBDB"/>
<path d="M159.261 281.428C155.066 281.155 156.273 281.176 152.079 280.951C150.033 280.842 136.536 280.126 134.6 280.357C134.589 280.357 134.578 280.362 134.571 280.369C134.563 280.377 134.559 280.388 134.559 280.398C134.559 280.409 134.563 280.42 134.571 280.427C134.578 280.435 134.589 280.439 134.6 280.439C136.502 280.848 150.006 281.326 152.059 281.394C156.26 281.544 155.06 281.455 159.254 281.551C159.262 281.551 159.27 281.55 159.278 281.548C159.285 281.545 159.292 281.541 159.298 281.535C159.304 281.53 159.309 281.523 159.313 281.516C159.316 281.509 159.318 281.501 159.319 281.493C159.319 281.485 159.318 281.477 159.315 281.469C159.313 281.462 159.308 281.455 159.303 281.449C159.298 281.443 159.291 281.438 159.284 281.434C159.277 281.431 159.269 281.429 159.261 281.428Z" fill="#263238"/>
<path d="M143.902 266.786C144.557 263.116 145.218 259.447 145.887 255.778C147.251 248.435 148.615 241.097 149.979 233.763C152.734 219.077 155.462 204.387 158.163 189.692C159.677 181.385 159.636 182.19 160.952 173.829C160.952 173.774 161.054 173.781 161.048 173.829C159.779 181.235 160.366 179.612 159.186 187.032C158.006 194.453 156.744 201.716 155.428 209.041C152.789 223.758 150.02 238.448 147.244 253.139C146.462 257.258 145.666 261.373 144.857 265.483C144.038 269.684 143.104 273.851 142.238 278.039C142.238 278.134 142.074 278.12 142.088 278.039C142.647 274.288 143.22 270.53 143.902 266.786Z" fill="#263238"/>
<path d="M151.145 174.375C151.827 174.197 152.598 174.136 153.314 174.027C153.893 173.931 154.473 173.829 155.046 173.706C156.144 173.508 157.185 173.07 158.095 172.424C159.006 171.584 159.686 170.526 160.072 169.348C160.359 168.666 160.652 167.984 160.952 167.35C161.095 167.029 161.239 166.709 161.389 166.388C161.592 166.015 161.775 165.63 161.934 165.236C161.934 165.174 162.043 165.236 162.016 165.236C161.907 165.502 161.859 165.795 161.777 166.068C161.696 166.341 161.586 166.75 161.484 167.036C161.307 167.616 161.129 168.189 160.945 168.762C160.658 169.814 160.246 170.828 159.718 171.783C158.661 173.474 156.765 174.15 154.869 174.388C154.33 174.456 153.777 174.497 153.232 174.531C152.551 174.588 151.867 174.588 151.186 174.531C151.063 174.552 151.029 174.402 151.145 174.375Z" fill="#263238"/>
<path d="M181.467 174.061C178.68 175.071 175.987 176.324 173.419 177.805C173.408 177.81 173.399 177.817 173.391 177.825C173.382 177.834 173.376 177.844 173.372 177.855C173.368 177.866 173.366 177.878 173.367 177.89C173.367 177.902 173.37 177.913 173.375 177.924C173.38 177.935 173.387 177.944 173.395 177.953C173.404 177.961 173.414 177.967 173.425 177.971C173.436 177.975 173.448 177.977 173.46 177.977C173.472 177.976 173.483 177.973 173.494 177.968C176.222 176.809 178.95 175.691 181.61 174.381C181.646 174.358 181.673 174.323 181.685 174.282C181.697 174.242 181.695 174.198 181.677 174.159C181.66 174.12 181.629 174.088 181.59 174.07C181.552 174.052 181.508 174.049 181.467 174.061Z" fill="#263238"/>
<path d="M182.278 155.497C182.278 155.401 182.108 155.381 182.108 155.497C182.107 158.519 181.955 161.54 181.651 164.547C181.528 165.945 180.403 173.659 177.982 173.099C177.579 173.004 177.375 172.608 177.3 171.995C177.312 171.196 177.419 170.401 177.62 169.628C177.893 168.012 178.104 166.395 178.248 164.759C178.531 161.721 178.496 158.663 178.145 155.633C178.14 155.616 178.13 155.602 178.116 155.591C178.102 155.581 178.084 155.575 178.067 155.575C178.049 155.575 178.032 155.581 178.018 155.591C178.004 155.602 177.993 155.616 177.988 155.633C178.064 159.847 177.818 164.06 177.252 168.237C176.952 170.242 175.942 173.263 178.036 173.577C180.13 173.89 181.562 168.803 181.821 167.439C182.491 163.495 182.645 159.481 182.278 155.497Z" fill="#263238"/>
<path d="M178.05 173.29C177.833 173.812 177.651 174.347 177.504 174.893C177.348 175.314 177.272 175.76 177.279 176.209C177.279 176.291 177.402 176.298 177.443 176.209C177.689 175.832 177.877 175.421 178.002 174.988C178.186 174.497 178.377 174.006 178.548 173.508C178.569 173.444 178.566 173.373 178.539 173.311C178.511 173.248 178.461 173.198 178.399 173.171C178.336 173.143 178.266 173.141 178.201 173.163C178.136 173.185 178.082 173.23 178.05 173.29Z" fill="#263238"/>
<path d="M150.347 164.574C150.442 164.676 190.844 163.401 191.199 162.978C191.69 162.371 183.015 122.249 176.195 113.752C174.476 111.631 168.693 111.024 166.422 113.411C159.84 120.231 158.654 125.127 157.078 129.676C155.912 133.039 154.589 138.754 153.43 144.598C151.493 154.228 149.999 164.206 150.347 164.574Z" fill="#455A64"/>
<path d="M178.745 155.019C178.625 154.591 178.568 154.148 178.575 153.703C178.564 153.258 178.622 152.814 178.745 152.387C178.973 153.249 178.973 154.156 178.745 155.019Z" fill="white"/>
<path d="M174.046 136.524C173.93 136.095 173.872 135.652 173.876 135.207C173.872 134.761 173.929 134.315 174.046 133.884C174.167 134.315 174.224 134.76 174.217 135.207C174.224 135.652 174.167 136.095 174.046 136.524Z" fill="white"/>
<path d="M161.368 129.206C161.248 128.778 161.19 128.334 161.198 127.889C161.19 127.443 161.248 126.997 161.368 126.566C161.488 126.997 161.546 127.443 161.539 127.889C161.542 128.334 161.485 128.777 161.368 129.206Z" fill="white"/>
<path d="M161.539 151.425C161.311 150.562 161.311 149.655 161.539 148.792C161.659 149.221 161.716 149.664 161.709 150.109C161.713 150.553 161.655 150.996 161.539 151.425Z" fill="white"/>
<path d="M168.966 147.851C169.828 147.624 170.735 147.624 171.598 147.851C170.735 148.079 169.828 148.079 168.966 147.851Z" fill="white"/>
<path d="M159.588 136.919C160.453 136.692 161.362 136.692 162.227 136.919C161.362 137.147 160.453 137.147 159.588 136.919Z" fill="white"/>
<path d="M172.73 124.52C173.158 124.4 173.602 124.343 174.046 124.35C174.491 124.339 174.935 124.396 175.363 124.52C174.5 124.748 173.593 124.748 172.73 124.52Z" fill="white"/>
<path d="M158.585 159.664C159.451 159.436 160.36 159.436 161.225 159.664C160.36 159.891 159.451 159.891 158.585 159.664Z" fill="white"/>
<path d="M176.72 161.792C177.151 161.675 177.596 161.617 178.043 161.621C178.488 161.618 178.93 161.675 179.359 161.792C178.931 161.912 178.488 161.97 178.043 161.962C177.596 161.969 177.15 161.912 176.72 161.792Z" fill="white"/>
<path d="M171.216 159.664C170.826 159.445 170.47 159.172 170.159 158.852C169.841 158.541 169.568 158.188 169.347 157.802C169.737 158.019 170.094 158.293 170.405 158.613C170.721 158.925 170.994 159.279 171.216 159.664Z" fill="white"/>
<path d="M157.481 144.981C156.707 144.532 156.063 143.89 155.612 143.119C156.002 143.337 156.358 143.61 156.669 143.93C156.987 144.241 157.26 144.594 157.481 144.981Z" fill="white"/>
<path d="M179.441 143.391C178.669 142.94 178.028 142.296 177.579 141.522C177.965 141.743 178.319 142.016 178.629 142.334C178.95 142.645 179.223 143.001 179.441 143.391Z" fill="white"/>
<path d="M168.966 130.16C168.192 129.712 167.548 129.07 167.097 128.298C167.487 128.516 167.843 128.789 168.154 129.11C168.47 129.422 168.743 129.775 168.966 130.16Z" fill="white"/>
<path d="M186.814 160.243C186.04 159.795 185.396 159.153 184.945 158.381C185.335 158.599 185.691 158.872 186.002 159.193C186.318 159.505 186.591 159.858 186.814 160.243Z" fill="white"/>
<path d="M187.277 146.344C187.055 146.731 186.782 147.087 186.466 147.401C186.153 147.72 185.797 147.993 185.408 148.213C185.857 147.437 186.501 146.793 187.277 146.344Z" fill="white"/>
<path d="M167.772 140.998C167.321 141.767 166.68 142.408 165.91 142.859C166.128 142.472 166.401 142.118 166.722 141.809C167.032 141.491 167.386 141.218 167.772 140.998Z" fill="white"/>
<path d="M154.084 153.805C153.633 154.575 152.992 155.216 152.222 155.667C152.674 154.897 153.315 154.256 154.084 153.805Z" fill="white"/>
<path d="M181.964 130.876C181.513 131.646 180.872 132.287 180.103 132.738C180.554 131.969 181.195 131.328 181.964 130.876Z" fill="white"/>
<path d="M166.838 120.005C166.618 120.394 166.345 120.75 166.026 121.062C165.714 121.379 165.361 121.652 164.976 121.874C165.194 121.484 165.467 121.128 165.787 120.817C166.098 120.499 166.452 120.226 166.838 120.005Z" fill="white"/>
<path d="M174.217 118.839C172.546 119.167 168.57 116.541 166.804 114.065C166.68 112.584 166.632 111.098 166.66 109.612C166.619 108.18 166.538 106.597 166.354 105.152C166.354 104.851 167.397 105.274 167.397 105.274L169.32 105.493L175.683 106.229C175.392 108.097 175.33 109.993 175.499 111.876C175.525 112.076 175.571 112.272 175.636 112.463C175.636 112.463 175.636 112.524 175.636 112.558C175.956 113.69 176.836 118.321 174.217 118.839Z" fill="#AD6359"/>
<path d="M175.636 112.49C175.636 112.49 175.636 112.551 175.636 112.585C175.331 112.665 175.021 112.719 174.708 112.749C168.57 113.369 166.872 105.717 166.872 105.717L169.293 105.52L175.656 106.256C175.365 108.124 175.303 110.02 175.472 111.903C175.507 112.103 175.562 112.3 175.636 112.49Z" fill="#263238"/>
<path d="M164.676 92.9572C163.694 96.1967 165.426 105.54 167.731 107.62C171.08 110.635 176.543 110.907 179.093 106.89C181.576 102.996 179.093 90.8635 176.529 88.9743C172.73 86.1918 166.122 88.1764 164.676 92.9572Z" fill="#AD6359"/>
<path d="M172.935 97.9971C172.935 97.9971 172.894 98.038 172.935 98.0653C173.098 98.6859 173.173 99.4293 172.662 99.7566C172.662 99.7566 172.662 99.7976 172.662 99.7907C173.303 99.5384 173.187 98.5563 172.935 97.9971Z" fill="#263238"/>
<path d="M172.232 97.4721C171.209 97.6222 171.584 99.6545 172.532 99.5181C173.48 99.3817 173.092 97.3494 172.232 97.4721Z" fill="#263238"/>
<path d="M176.638 97.1787C176.638 97.1787 176.692 97.1787 176.692 97.2264C176.788 97.8607 177.006 98.5905 177.613 98.6723V98.7064C176.904 98.7405 176.638 97.7993 176.638 97.1787Z" fill="#263238"/>
<path d="M177.074 96.4221C178.077 96.1561 178.527 98.168 177.606 98.4136C176.686 98.6591 176.242 96.6404 177.074 96.4221Z" fill="#263238"/>
<path d="M171.257 96.6947C171.523 96.5719 171.748 96.4151 171.994 96.2718C172.239 96.1286 172.519 95.999 172.676 95.6921C172.709 95.6018 172.711 95.503 172.681 95.4115C172.651 95.32 172.592 95.2411 172.512 95.1875C172.337 95.1042 172.144 95.0686 171.951 95.0841C171.758 95.0997 171.573 95.1659 171.414 95.2761C171.061 95.452 170.786 95.7536 170.643 96.1218C170.616 96.2056 170.614 96.2954 170.636 96.3807C170.658 96.4659 170.704 96.5431 170.768 96.6032C170.833 96.6633 170.913 96.7038 170.999 96.72C171.086 96.7362 171.175 96.7274 171.257 96.6947Z" fill="#263238"/>
<path d="M177.634 95.4941C177.347 95.4941 177.075 95.46 176.788 95.4396C176.491 95.4504 176.199 95.3642 175.956 95.194C175.887 95.1258 175.842 95.0368 175.829 94.9407C175.815 94.8446 175.834 94.7467 175.881 94.6621C176.001 94.5112 176.159 94.3949 176.339 94.3254C176.519 94.2559 176.714 94.2356 176.904 94.2665C177.3 94.2656 177.681 94.417 177.968 94.6894C178.038 94.7537 178.087 94.8381 178.107 94.931C178.128 95.0239 178.119 95.1208 178.082 95.2087C178.046 95.2965 177.983 95.371 177.903 95.4221C177.823 95.4731 177.729 95.4983 177.634 95.4941Z" fill="#263238"/>
<path d="M173.439 103.944C173.617 104.067 173.801 104.244 174.033 104.217C174.266 104.17 174.486 104.075 174.681 103.938C174.681 103.938 174.721 103.938 174.715 103.938C174.647 104.077 174.543 104.196 174.413 104.281C174.284 104.366 174.133 104.415 173.978 104.422C173.845 104.411 173.717 104.362 173.612 104.279C173.506 104.197 173.427 104.085 173.385 103.958C173.385 103.958 173.412 103.931 173.439 103.944Z" fill="#263238"/>
<path d="M173.746 101.939C173.953 102.157 174.203 102.33 174.48 102.448C174.757 102.565 175.055 102.624 175.356 102.621C175.619 102.625 175.881 102.589 176.133 102.512C176.183 102.505 176.231 102.492 176.277 102.471L176.413 102.423C176.445 102.411 176.472 102.388 176.49 102.358C176.507 102.329 176.514 102.294 176.508 102.26C176.512 102.239 176.512 102.218 176.508 102.198V102.144C176.433 101.659 176.249 100.93 176.249 100.93C176.44 100.984 177.422 101.223 177.361 100.977C176.892 98.8024 176.207 96.6798 175.315 94.6416C175.309 94.6262 175.298 94.6136 175.283 94.6066C175.269 94.5996 175.252 94.5987 175.236 94.6041C175.221 94.6095 175.209 94.6208 175.201 94.6355C175.194 94.6502 175.194 94.6671 175.199 94.6825C175.615 96.6944 176.379 98.6177 176.829 100.63C176.479 100.54 176.119 100.501 175.758 100.514C175.697 100.514 176.14 101.912 176.154 102.137C175.765 102.25 175.358 102.284 174.956 102.236C174.554 102.187 174.166 102.059 173.815 101.857C173.746 101.844 173.705 101.898 173.746 101.939Z" fill="#263238"/>
<path d="M175.799 102.328C175.6 102.723 175.301 103.059 174.933 103.303C174.73 103.434 174.491 103.496 174.251 103.481C173.726 103.44 173.624 102.983 173.644 102.567C173.656 102.349 173.695 102.134 173.76 101.926C174.38 102.272 175.094 102.413 175.799 102.328Z" fill="#263238"/>
<path d="M165.89 100.03C168.045 99.6817 167.854 95.7056 167.854 95.7056C167.854 95.7056 171.462 94.5258 171.564 91.6546C171.564 91.6546 175.431 93.3527 178.036 91.9205C180.641 90.4883 179.577 87.4603 179.168 86.8396C178.759 86.219 177.416 87.6921 177.416 87.6921C177.416 87.6921 176.972 85.953 176.468 85.8507C175.963 85.7484 175.622 86.8874 175.622 86.8874C173.319 86.5223 170.974 86.5062 168.665 86.8396C165.446 87.433 164.355 90.9316 164.355 90.9316C164.355 90.9316 162.684 91.5659 162.309 92.8617C161.934 94.1575 164.519 100.248 165.89 100.03Z" fill="#263238"/>
<path d="M166.988 95.8763C169.907 95.815 171.516 93.6121 171.503 90.8091H171.557C171.871 93.3802 169.927 96.5924 166.981 96.0127C166.963 96.0118 166.946 96.0038 166.934 95.9904C166.922 95.9769 166.915 95.9592 166.916 95.9411C166.917 95.923 166.925 95.9061 166.938 95.8939C166.952 95.8818 166.97 95.8754 166.988 95.8763Z" fill="#263238"/>
<path d="M164.423 90.8774C164.423 90.8774 164.478 90.9115 164.423 90.932C163.68 91.423 162.807 91.8459 162.377 92.6643C161.832 93.6532 162.159 94.7853 162.568 95.7469C163.203 97.2405 164.321 99.1569 165.849 99.8389C165.937 99.8798 165.849 100.009 165.781 99.9753C163.966 99.2524 162.589 96.7836 162.077 94.9899C161.504 92.9712 162.602 91.6072 164.423 90.8774Z" fill="#263238"/>
<path d="M174.824 91.9685C175.549 92.254 176.339 92.335 177.108 92.2028C177.876 92.0705 178.594 91.73 179.182 91.2183C180.546 89.9293 179.939 88.2448 179.059 86.9013C179.018 86.8331 179.107 86.7444 179.168 86.8058C180.253 87.9379 180.628 89.8611 179.564 91.1433C178.5 92.4255 176.256 92.7801 174.735 92.1595C174.592 92.1049 174.701 91.914 174.824 91.9685Z" fill="#263238"/>
<path d="M166.688 100.575C166.688 100.575 164.512 97.6018 163.155 98.3861C161.798 99.1704 163.489 103.515 165.112 104.074C165.315 104.161 165.534 104.206 165.755 104.206C165.976 104.206 166.195 104.162 166.398 104.075C166.601 103.988 166.785 103.861 166.938 103.702C167.091 103.542 167.21 103.353 167.288 103.147L166.688 100.575Z" fill="#AD6359"/>
<path d="M163.68 99.6138C163.68 99.6138 163.646 99.6547 163.68 99.6615C164.203 99.908 164.67 100.261 165.049 100.698C165.428 101.135 165.712 101.646 165.883 102.199C165.815 102.086 165.723 101.99 165.614 101.916C165.504 101.843 165.38 101.795 165.25 101.774C165.12 101.754 164.987 101.763 164.861 101.8C164.735 101.836 164.618 101.9 164.519 101.987C164.485 101.987 164.519 102.049 164.519 102.042C164.716 101.974 164.93 101.969 165.13 102.028C165.33 102.086 165.508 102.206 165.637 102.369C165.85 102.646 166.035 102.943 166.19 103.256C166.244 103.351 166.422 103.297 166.381 103.181C166.408 101.714 165.221 99.7297 163.68 99.6138Z" fill="#263238"/>
<path d="M175.786 113.049L174.149 118.71L166.695 112.503L164.996 114.904C164.996 114.904 172.717 125.182 172.703 124.684L174.476 119.767L178.043 122.706L176.959 114.522L175.786 113.049Z" fill="#EBEBEB"/>
<path d="M177.736 118.635C177.511 117.271 177.32 115.907 177.054 114.604C177.054 114.556 176.965 114.543 176.965 114.604C176.822 115.934 177.709 121.063 177.825 122.304C177.675 122.174 174.537 119.733 174.51 119.78C174.101 120.572 172.798 124.152 172.717 124.473C171.496 122.843 166.367 116.439 164.962 114.925C164.921 114.884 164.853 114.925 164.887 114.979C165.992 116.725 172.642 125.209 172.717 125.155C173.425 123.456 174.042 121.722 174.565 119.958C175.11 120.51 178.316 123.3 178.302 123.095C178.193 121.599 178.004 120.11 177.736 118.635Z" fill="#263238"/>
<path d="M159.915 118.798C156.621 115.388 149.133 102.724 149.297 95.2694C149.419 89.452 152.386 73.3977 154.2 69.2989C155.019 67.437 167.383 75.4778 167.479 77.6534C167.574 79.8289 162.705 93.4144 162.132 96.8039C161.859 98.4066 162.889 106.645 165.317 114.147C167.506 120.906 163.939 122.938 159.915 118.798Z" fill="#AD6359"/>
<path d="M153.293 72.6883C153.655 70.9083 156.021 62.9152 157.208 60.8419C158.395 58.7687 162.146 53.033 163.823 53.756C165.501 54.4789 164.505 56.2521 164.505 56.2521C164.505 56.2521 166.483 54.0833 168.106 54.9699C169.729 55.8565 168.106 58.5572 168.106 58.5572C168.106 58.5572 170.302 56.5112 171.857 57.4797C173.412 58.4481 171.346 60.8897 171.346 60.8897C171.346 60.8897 173.269 58.8982 174.203 60.2622C175.329 61.9059 171.38 65.1795 170.268 67.5665C170.016 68.1121 165.937 78.9286 165.937 78.9286L153.293 72.6883Z" fill="#AD6359"/>
<path d="M171.578 60.6785C168.679 63.0927 167.827 64.6545 166.681 68.1805C166.681 68.2487 166.551 68.235 166.572 68.1805C167.377 64.6136 168.161 62.5062 171.469 60.5489C171.625 60.4125 171.714 60.5625 171.578 60.6785Z" fill="#263238"/>
<path d="M168.393 58.3664C165.603 61.1353 164.662 62.8198 163.196 66.4344C163.196 66.4822 163.087 66.4344 163.1 66.4003C164.246 62.738 165.078 60.6511 168.229 58.2163C168.372 58.1072 168.522 58.2095 168.393 58.3664Z" fill="#263238"/>
<path d="M164.464 56.4023C161.955 59.2872 160.85 61.0876 159.875 64.7772C159.875 64.8659 159.718 64.8386 159.738 64.7772C160.104 61.4588 161.766 58.4193 164.362 56.3204C164.546 56.184 164.621 56.225 164.464 56.4023Z" fill="#263238"/>
<path d="M166.613 81.5954C166.613 81.5954 170.193 78.315 171.264 76.4804C172.335 74.6458 173.787 66.3186 172.007 65.9026C169.709 65.3638 167.915 69.9946 167.342 72.3884C167.342 72.3884 162.03 71.1404 160.024 74.1889C158.019 77.2374 166.613 81.5954 166.613 81.5954Z" fill="#AD6359"/>
<path d="M171.325 65.9569C168.877 66.9799 168.318 70.158 167.588 72.4359C167.578 72.4701 167.561 72.5014 167.536 72.5272C167.512 72.5529 167.481 72.5724 167.448 72.5838C167.414 72.5952 167.378 72.5983 167.343 72.5927C167.308 72.5871 167.275 72.5731 167.247 72.5519C164.989 72.1768 161.689 72.3063 159.997 74.0454C159.986 74.052 159.973 74.055 159.961 74.0539C159.948 74.0529 159.936 74.0479 159.926 74.0396C159.916 74.0313 159.909 74.0202 159.906 74.0078C159.903 73.9954 159.904 73.9823 159.909 73.9704C161.47 71.8699 164.683 71.4743 167.151 72.0472C167.833 69.7011 168.57 66.5366 171.318 65.9092C171.332 65.9296 171.339 65.9501 171.325 65.9569Z" fill="#263238"/>
<path d="M151.165 75.0342L166.94 83.2182C166.94 83.2182 162.848 94.6144 162.507 96.7354C162.166 98.8564 166.006 113.881 166.538 117.066C167.069 120.251 159.036 131.388 158.401 125.789C157.767 120.189 149.276 103.399 148.853 97.6902C148.43 91.9819 151.165 75.0342 151.165 75.0342Z" fill="#455A64"/>
<path d="M160.952 103.242C160.832 102.814 160.775 102.37 160.782 101.926C160.771 101.479 160.828 101.032 160.952 100.603C161.069 101.034 161.126 101.479 161.123 101.926C161.122 102.37 161.065 102.812 160.952 103.242Z" fill="white"/>
<path d="M156.546 84.9641C156.319 84.1013 156.319 83.1943 156.546 82.3315C156.774 83.1943 156.774 84.1013 156.546 84.9641Z" fill="white"/>
<path d="M162.466 109.4C163.329 109.173 164.236 109.173 165.099 109.4C164.236 109.628 163.329 109.628 162.466 109.4Z" fill="white"/>
<path d="M158.551 92.3161C158.982 92.1992 159.428 92.1418 159.874 92.1456C160.319 92.1384 160.762 92.1958 161.191 92.3161C160.762 92.4364 160.319 92.4939 159.874 92.4866C159.427 92.4939 158.982 92.4364 158.551 92.3161Z" fill="white"/>
<path d="M161.341 116.902C160.567 116.454 159.924 115.812 159.472 115.041C159.862 115.259 160.218 115.532 160.529 115.852C160.847 116.163 161.121 116.516 161.341 116.902Z" fill="white"/>
<path d="M155.653 99.8252C154.879 99.3767 154.236 98.7352 153.784 97.9634C154.174 98.181 154.53 98.4544 154.841 98.775C155.158 99.0871 155.431 99.4404 155.653 99.8252Z" fill="white"/>
<path d="M166.838 120.005C166.618 120.394 166.345 120.75 166.026 121.062C165.714 121.379 165.361 121.652 164.976 121.874C165.194 121.484 165.467 121.128 165.787 120.817C166.098 120.499 166.452 120.226 166.838 120.005Z" fill="white"/>
<path d="M156.58 107.716C156.363 108.104 156.089 108.458 155.769 108.766C155.458 109.084 155.105 109.357 154.719 109.578C155.17 108.808 155.811 108.167 156.58 107.716Z" fill="white"/>
<path d="M165.774 84.6641C165.323 85.4337 164.681 86.0747 163.912 86.5259C164.363 85.7563 165.004 85.1153 165.774 84.6641Z" fill="white"/>
<path d="M165.153 85.4963C160.768 83.1278 156.26 80.9925 151.65 79.0991C151.595 79.0991 151.561 79.1605 151.616 79.181C152.741 79.6447 159.95 83.4094 165.119 85.5918C165.181 85.6463 165.208 85.5304 165.153 85.4963Z" fill="#263238"/>
<path d="M196.593 302.148C197.923 302.591 235.952 302.482 237.397 301.561C237.95 301.22 238.257 295.675 238.434 288.971C238.475 287.526 238.502 286.039 238.53 284.511C238.53 282.711 238.584 280.89 238.591 279.123C238.639 271.185 238.53 264.188 238.53 264.188H213.773V279.123V284.511L213.896 288.971C213.896 288.971 199.362 295.532 197.882 296.712C196.402 297.892 195.27 301.718 196.593 302.148Z" fill="#DD6A57"/>
<path d="M196.593 302.147C197.923 302.591 235.952 302.482 237.397 301.561C237.95 301.22 238.257 295.675 238.434 288.971C238.475 287.525 238.502 286.039 238.53 284.511C238.53 282.71 238.584 280.889 238.591 279.123H213.787V284.511L213.909 288.971C213.909 288.971 199.376 295.532 197.896 296.712C196.416 297.892 195.27 301.718 196.593 302.147Z" fill="white"/>
<path d="M196.477 302.209C197.344 302.495 213.527 302.55 225.333 302.305C228.061 302.25 230.557 302.175 232.576 302.086C235.345 301.957 237.206 301.807 237.513 301.616C238.195 301.186 238.502 293.05 238.652 284.47H213.773L213.902 288.958C213.902 288.958 199.28 295.546 197.794 296.733C196.307 297.919 195.147 301.759 196.477 302.209Z" fill="#37474F"/>
<path d="M197.023 300.674C203.434 300.504 229.302 300.395 235.651 300.674C235.699 300.674 235.699 300.715 235.651 300.715C229.302 301.029 203.434 300.926 197.023 300.749C196.887 300.776 196.887 300.681 197.023 300.674Z" fill="#263238"/>
<path d="M212.995 287.519C215.512 287.041 218.601 287.423 220.531 289.21C220.606 289.285 220.531 289.387 220.429 289.36C218.015 288.589 215.525 288.079 213.002 287.839C212.965 287.832 212.932 287.813 212.907 287.784C212.883 287.756 212.869 287.719 212.868 287.682C212.867 287.644 212.88 287.607 212.903 287.578C212.926 287.548 212.959 287.527 212.995 287.519Z" fill="#263238"/>
<path d="M211.175 288.637C213.698 288.159 216.781 288.535 218.717 290.328C218.792 290.396 218.717 290.505 218.608 290.478C216.197 289.706 213.709 289.196 211.188 288.957C211.151 288.951 211.117 288.933 211.092 288.905C211.067 288.876 211.052 288.84 211.05 288.803C211.049 288.765 211.06 288.728 211.083 288.698C211.105 288.667 211.138 288.646 211.175 288.637Z" fill="#263238"/>
<path d="M209.374 289.742C211.891 289.264 214.98 289.639 216.876 291.433C216.951 291.501 216.876 291.604 216.774 291.583C214.368 290.815 211.888 290.303 209.374 290.056C209.332 290.056 209.293 290.039 209.263 290.01C209.234 289.98 209.217 289.94 209.217 289.899C209.217 289.857 209.234 289.817 209.263 289.788C209.293 289.758 209.332 289.742 209.374 289.742Z" fill="#263238"/>
<path d="M207.539 290.84C210.063 290.363 213.145 290.744 215.082 292.531C215.157 292.606 215.082 292.709 214.973 292.681C212.562 291.909 210.074 291.399 207.553 291.16C207.516 291.155 207.482 291.136 207.457 291.108C207.431 291.079 207.417 291.043 207.415 291.006C207.414 290.968 207.425 290.931 207.448 290.901C207.47 290.87 207.503 290.849 207.539 290.84Z" fill="#263238"/>
<path d="M209.456 285.302C211.25 286.666 213.548 287.246 215.655 288.03C215.703 288.043 215.752 288.044 215.801 288.034C215.849 288.024 215.894 288.003 215.932 287.973C215.971 287.942 216.002 287.903 216.022 287.859C216.043 287.814 216.053 287.765 216.051 287.716C216.061 287.716 216.071 287.713 216.08 287.708C216.09 287.702 216.097 287.695 216.103 287.687C216.109 287.678 216.113 287.668 216.115 287.658C216.116 287.648 216.115 287.637 216.112 287.627C215.339 285.396 213.994 283.407 212.211 281.858C211.154 280.978 209.306 280.364 208.317 281.735C207.328 283.106 208.412 284.497 209.456 285.302ZM208.808 283.256C208.358 280.487 211.331 281.933 212.088 282.615C212.575 283.064 213.03 283.544 213.452 284.054C214.294 285.119 215.079 286.228 215.805 287.375C214.803 286.932 213.759 286.584 212.757 286.182C211.522 285.725 209.06 284.79 208.808 283.276V283.256Z" fill="#263238"/>
<path d="M224.521 283.734C223.907 282.165 221.964 282.295 220.723 282.881C218.61 283.944 216.813 285.543 215.512 287.519C215.506 287.527 215.502 287.537 215.501 287.547C215.5 287.558 215.501 287.568 215.504 287.578C215.507 287.588 215.513 287.597 215.52 287.604C215.527 287.612 215.536 287.617 215.546 287.621C215.505 287.812 215.621 288.051 215.846 288.03C218.056 287.805 220.45 287.846 222.523 286.953C223.73 286.407 225.101 285.22 224.521 283.734ZM219.127 286.98C218.042 287.116 216.958 287.198 215.873 287.375C216.864 286.447 217.902 285.571 218.983 284.75C219.511 284.358 220.065 284.003 220.641 283.686C221.541 283.215 224.78 282.56 223.655 285.125C223.014 286.537 220.416 286.837 219.127 286.98Z" fill="#263238"/>
<path d="M246.789 158.695C246.789 158.695 240.098 224.849 239.934 225.709C239.934 225.818 239.866 227.073 239.805 229.166C239.443 240.556 238.55 276.074 238.55 276.074H211.27C211.27 276.074 213.05 234.009 214.073 224.195C215.376 211.673 223.621 158.723 223.621 158.723L246.789 158.695Z" fill="#37474F"/>
<path d="M236.654 228.041C237.5 213.696 238.766 199.393 240.453 185.13C241.408 177.089 242.567 169.075 243.713 161.062C243.713 160.994 243.829 160.994 243.822 161.062C241.708 175.329 240.214 189.706 238.925 204.028C237.636 218.35 236.736 232.747 236.149 247.13C235.815 255.314 235.563 263.437 235.304 271.594C235.296 271.629 235.277 271.66 235.249 271.683C235.221 271.706 235.186 271.718 235.15 271.718C235.114 271.718 235.079 271.706 235.051 271.683C235.023 271.66 235.004 271.629 234.997 271.594C235.413 257.087 235.829 242.554 236.654 228.041Z" fill="#263238"/>
<path d="M212.982 271.676C213.664 271.587 214.469 271.614 215.198 271.587C215.928 271.56 216.835 271.553 217.653 271.519C219.236 271.464 220.827 271.423 222.427 271.396C225.61 271.342 228.793 271.364 231.975 271.464L234.608 271.553C235.542 271.594 236.477 271.676 237.411 271.669C237.418 271.666 237.426 271.665 237.434 271.666C237.442 271.667 237.449 271.669 237.456 271.674C237.462 271.678 237.467 271.684 237.471 271.691C237.475 271.698 237.476 271.705 237.476 271.713C237.476 271.721 237.475 271.729 237.471 271.736C237.467 271.742 237.462 271.748 237.456 271.753C237.449 271.757 237.442 271.76 237.434 271.761C237.426 271.762 237.418 271.76 237.411 271.758C235.801 271.758 234.178 271.894 232.576 271.955C230.973 272.017 229.411 272.037 227.836 272.058C224.651 272.105 221.452 272.058 218.288 271.955L215.655 271.887L214.257 271.826C213.841 271.826 213.425 271.826 213.009 271.785C212.9 271.778 212.907 271.689 212.982 271.676Z" fill="#263238"/>
<path d="M246.789 158.695C246.789 158.695 240.098 224.849 239.934 225.709C239.934 225.818 239.866 227.073 239.805 229.166L226.936 158.695H246.789Z" fill="#263238"/>
<path d="M298.136 280.699C299.309 279.921 322.722 249.961 322.893 248.256C322.961 247.574 318.801 243.946 313.638 239.663C312.527 238.728 311.408 237.726 310.187 236.826C308.66 235.687 307.111 234.568 305.604 233.511C299.084 228.887 293.424 225.259 293.424 225.259L278.556 244.171L290.15 252.75L294.924 256.269L298.511 258.929C298.511 258.929 294.679 274.411 294.692 276.3C294.706 278.189 296.97 281.456 298.136 280.699Z" fill="#DD6A57"/>
<path d="M298.136 280.698C299.309 279.921 322.722 249.961 322.893 248.256C322.961 247.574 318.801 243.945 313.638 239.662C312.527 238.728 311.408 237.726 310.187 236.825C308.66 235.686 307.111 234.568 305.604 233.511C300.994 239.315 294.317 247.601 290.143 252.75L294.917 256.269L298.505 258.929C298.505 258.929 294.672 274.41 294.685 276.299C294.699 278.189 296.97 281.455 298.136 280.698Z" fill="white"/>
<path d="M298.109 280.808C299.282 280.03 322.832 249.899 323.002 248.181C323.084 247.39 316.864 242.118 310.228 236.689L294.849 256.242L298.457 258.915C298.457 258.915 294.624 274.485 294.624 276.388C294.624 278.291 296.929 281.585 298.109 280.808Z" fill="#37474F"/>
<path d="M297.236 279.43C301.062 274.281 316.966 253.882 321.14 249.088C321.174 249.047 321.202 249.088 321.14 249.088C317.464 254.271 301.396 274.54 297.27 279.471C297.236 279.601 297.161 279.539 297.236 279.43Z" fill="#263238"/>
<path d="M296.779 258.752C297.959 256.474 300.189 254.285 302.767 253.869C302.869 253.869 302.89 253.998 302.822 254.046C300.723 255.465 298.784 257.107 297.038 258.943C297.01 258.969 296.974 258.984 296.936 258.987C296.898 258.989 296.86 258.978 296.829 258.955C296.798 258.932 296.777 258.9 296.767 258.863C296.758 258.825 296.762 258.786 296.779 258.752Z" fill="#263238"/>
<path d="M296.52 260.866C297.707 258.588 299.93 256.392 302.515 255.983C302.61 255.983 302.638 256.112 302.563 256.16C300.465 257.578 298.526 259.218 296.779 261.05C296.751 261.074 296.717 261.088 296.68 261.09C296.643 261.092 296.607 261.081 296.577 261.06C296.548 261.038 296.526 261.008 296.515 260.973C296.505 260.938 296.507 260.9 296.52 260.866Z" fill="#263238"/>
<path d="M296.268 262.967C297.448 260.689 299.678 258.5 302.256 258.083C302.358 258.083 302.378 258.213 302.31 258.261C300.211 259.681 298.269 261.323 296.52 263.158C296.495 263.191 296.457 263.213 296.416 263.219C296.374 263.225 296.332 263.214 296.298 263.188C296.265 263.163 296.243 263.125 296.237 263.084C296.231 263.042 296.242 263 296.268 262.967Z" fill="#263238"/>
<path d="M295.988 265.081C297.168 262.81 299.398 260.614 301.976 260.205C302.078 260.205 302.099 260.327 302.031 260.382C299.933 261.8 297.994 263.439 296.247 265.272C296.219 265.298 296.183 265.314 296.145 265.316C296.107 265.318 296.069 265.307 296.038 265.284C296.007 265.262 295.985 265.229 295.976 265.192C295.967 265.154 295.971 265.115 295.988 265.081Z" fill="#263238"/>
<path d="M292.837 260.15C295.033 259.604 296.929 258.104 298.798 256.958C298.839 256.929 298.872 256.891 298.895 256.846C298.918 256.802 298.93 256.752 298.93 256.702C298.93 256.652 298.918 256.603 298.895 256.558C298.872 256.514 298.839 256.475 298.798 256.446C298.804 256.438 298.807 256.428 298.809 256.418C298.81 256.407 298.809 256.397 298.806 256.387C298.803 256.377 298.797 256.368 298.79 256.361C298.782 256.353 298.774 256.348 298.764 256.344C296.533 255.573 294.139 255.402 291.821 255.846C290.457 256.133 288.854 257.21 289.318 258.833C289.782 260.457 291.562 260.477 292.837 260.15ZM290.846 259.406C288.39 258.042 291.364 256.61 292.367 256.44C293.017 256.341 293.673 256.286 294.331 256.276C295.686 256.274 297.04 256.34 298.389 256.474C297.427 256.992 296.513 257.585 295.572 258.138C294.447 258.793 292.196 260.157 290.846 259.406Z" fill="#263238"/>
<path d="M300.919 247.342C299.303 246.858 298.191 248.46 297.898 249.804C297.419 252.115 297.558 254.512 298.3 256.753C298.3 256.808 298.361 256.808 298.402 256.787C298.431 256.828 298.468 256.862 298.512 256.885C298.556 256.908 298.605 256.92 298.655 256.92C298.704 256.92 298.753 256.908 298.797 256.885C298.841 256.862 298.879 256.828 298.907 256.787C300.1 254.912 301.635 253.057 302.187 250.875C302.528 249.613 302.447 247.806 300.919 247.342ZM300.135 253.589C299.568 254.53 298.962 255.43 298.436 256.385C298.317 255.024 298.267 253.659 298.286 252.293C298.308 251.637 298.374 250.983 298.484 250.336C298.668 249.34 300.155 246.387 301.471 248.856C302.201 250.247 300.803 252.477 300.135 253.589Z" fill="#263238"/>
<path d="M223.246 158.327C223.246 158.327 225.374 168.257 232.044 173.113C232.044 173.113 249.203 218.159 252.811 222.899C258.785 230.756 287.688 250.977 287.688 250.977L304.738 229.242C304.738 229.242 276.776 211.244 274.539 208.413C273.045 206.538 261.138 177.614 261.281 176.585C262.918 164.356 257.087 156.759 257.087 156.759L223.246 158.327Z" fill="#37474F"/>
<path d="M255.068 158.661C256.367 161.017 257.333 163.542 257.939 166.163C258.235 167.496 258.415 168.851 258.478 170.215C258.56 171.667 258.478 173.127 258.478 174.586C258.499 176.075 258.729 177.553 259.16 178.978C259.569 180.342 260.067 181.706 260.524 183.07C261.506 185.862 262.54 188.633 263.627 191.384C265.796 196.84 268.153 202.237 270.699 207.575C271.233 208.823 271.968 209.975 272.875 210.985C273.921 211.945 275.064 212.796 276.285 213.522C278.795 215.231 281.307 216.941 283.821 218.65L298.968 228.955V228.989C299.139 229.105 298.968 229.385 298.811 229.269C293.737 225.825 290.532 223.629 285.458 220.185L277.772 214.967C276.558 214.142 275.323 213.344 274.137 212.492C273.085 211.766 272.188 210.839 271.497 209.764C270.806 208.591 270.187 207.377 269.642 206.129C269.001 204.765 268.374 203.401 267.76 202.037C266.546 199.463 265.387 196.813 264.282 194.085C263.177 191.357 262.111 188.597 261.083 185.805C260.574 184.405 260.076 183 259.59 181.59C259.087 180.256 258.677 178.889 258.362 177.498C257.796 174.634 258.301 171.695 258.028 168.803C257.781 166.004 257.09 163.262 255.982 160.68C255.684 160.011 255.352 159.358 254.986 158.723C254.938 158.661 255.068 158.621 255.068 158.661Z" fill="#263238"/>
<path d="M245.677 159.439C246.24 161.353 247.413 163.029 249.019 164.213C250.797 165.476 252.902 166.199 255.082 166.293C255.45 166.293 255.484 166.873 255.082 166.88C250.628 166.88 246.134 164.056 245.479 159.446C245.479 159.357 245.65 159.337 245.677 159.439Z" fill="#263238"/>
<path d="M227.788 170.085C229.401 170.737 230.942 171.555 232.385 172.527C233.912 173.475 235.324 174.573 236.797 175.603C236.859 175.643 236.797 175.732 236.749 175.698C235.201 174.805 233.592 174.034 232.057 173.113C230.527 172.277 229.075 171.305 227.72 170.208C227.658 170.167 227.706 170.065 227.788 170.085Z" fill="#263238"/>
<path d="M227.147 160.81C227.386 161.826 227.679 162.856 227.952 163.845C228.224 164.834 228.402 165.768 228.695 166.702C228.949 167.611 229.455 168.429 230.155 169.062C230.543 169.396 230.973 169.683 231.389 169.989L232.071 170.467C232.037 170.337 232.01 170.194 231.975 170.058C231.887 169.669 231.805 169.287 231.723 168.898C231.539 168.039 231.362 167.18 231.184 166.313C230.85 164.622 230.502 162.903 230.1 161.233C230.097 161.224 230.096 161.215 230.097 161.207C230.098 161.198 230.101 161.19 230.106 161.182C230.111 161.175 230.118 161.169 230.126 161.165C230.134 161.161 230.142 161.159 230.151 161.159C230.16 161.159 230.169 161.161 230.176 161.165C230.184 161.169 230.191 161.175 230.196 161.182C230.201 161.19 230.204 161.198 230.205 161.207C230.206 161.215 230.205 161.224 230.202 161.233C230.7 162.883 231.246 164.52 231.696 166.191C231.914 167.009 232.746 171.067 232.794 171.353C232.842 171.64 232.876 171.954 232.896 172.254C232.951 172.555 232.965 172.863 232.937 173.168C232.931 173.181 232.921 173.192 232.909 173.199C232.897 173.207 232.883 173.211 232.869 173.211C232.855 173.211 232.84 173.207 232.828 173.199C232.816 173.192 232.807 173.181 232.801 173.168C232.665 172.89 232.565 172.597 232.501 172.295C232.412 172.008 232.337 171.715 232.269 171.415L232.207 171.094C231.791 170.869 231.403 170.562 231.014 170.303C230.625 170.044 230.168 169.764 229.773 169.458C229.036 168.892 228.487 168.117 228.197 167.234C227.905 166.282 227.699 165.305 227.583 164.315C227.399 163.163 227.249 161.996 227.038 160.851C227.031 160.776 227.106 160.742 227.147 160.81Z" fill="#263238"/>
<path d="M284.96 247.042C285.328 246.421 285.84 245.828 286.27 245.248C286.699 244.668 287.258 243.939 287.743 243.277C288.675 242 289.623 240.733 290.587 239.478C292.523 236.948 294.522 234.452 296.575 232.017L298.28 230.012C298.887 229.33 299.534 228.648 300.114 227.884C300.155 227.83 300.216 227.884 300.176 227.939C299.173 229.194 298.28 230.558 297.332 231.854C296.384 233.149 295.436 234.384 294.474 235.639C292.53 238.162 290.525 240.651 288.459 243.079C287.886 243.761 287.333 244.443 286.767 245.125C286.467 245.48 286.154 245.807 285.854 246.182C285.553 246.558 285.342 246.864 285.042 247.137C285.029 247.148 285.013 247.154 284.996 247.152C284.98 247.151 284.964 247.143 284.953 247.13C284.942 247.118 284.937 247.101 284.938 247.085C284.94 247.068 284.947 247.053 284.96 247.042Z" fill="#263238"/>
<path d="M208.59 125.987C208.591 126.064 208.621 126.139 208.674 126.195C208.727 126.252 208.799 126.287 208.876 126.294L210.131 126.205C210.868 122.938 211.761 120.292 211.57 121.302C211.278 122.889 211.209 124.51 211.365 126.117L213.841 125.898C214.134 120.279 214.878 116.037 214.953 117.298C215.26 122.406 215.744 123.995 216.283 125.687C222.25 125.148 230.066 124.323 235.706 123.641C235.986 120.517 236.156 117.155 236.279 117.366C237.254 118.976 237.772 121.458 238.025 123.341C239.818 123.102 241.244 122.877 242.117 122.659C242.117 122.659 242.226 120.047 242.185 119.201C242.065 117.043 241.579 114.921 240.746 112.927C239.823 110.967 238.706 109.105 237.411 107.368V107.327C236.607 106.16 235.941 104.904 235.426 103.583C235.068 102.616 234.787 101.622 234.588 100.61C233.871 96.8996 231.505 93.9397 228.102 93.4078C221.138 88.02 215.253 91.5255 213.971 96.5927C213.841 97.0838 213.732 97.6498 213.637 98.2568C213.261 100.507 213.043 103.399 212.784 105.643C212.694 106.521 212.55 107.394 212.354 108.255C211.236 112.408 207.928 115.129 208.59 125.987Z" fill="#263238"/>
<path d="M229.629 94.2056C230.763 94.6032 231.774 95.2878 232.564 96.1926C233.354 97.0974 233.896 98.1916 234.137 99.3684C234.427 100.931 234.908 102.452 235.57 103.897C236.376 105.285 237.38 106.549 238.55 107.648C240.374 109.34 241.646 111.544 242.199 113.97C242.856 116.783 242.958 119.697 242.499 122.55C242.797 119.57 242.524 116.561 241.694 113.684C240.862 110.785 239.068 109.135 237.193 107.109C235.68 105.504 234.613 103.531 234.097 101.387C233.769 100.023 233.612 98.6591 232.951 97.4451C232.131 96.1537 230.943 95.1371 229.541 94.5262C229.336 94.4102 229.459 94.1374 229.629 94.2056Z" fill="#263238"/>
<path d="M209.224 112.981C210.486 110.642 211.843 108.609 212.409 105.854C212.927 103.338 213.091 100.732 213.609 98.2225C213.609 98.1816 213.677 98.1884 213.671 98.2225C212.92 102.662 213.2 106.993 211.072 110.935C209.92 113.07 208.747 115.068 208.119 117.53C207.482 120.114 207.314 122.791 207.621 125.434C207.621 125.53 207.512 125.543 207.498 125.434C206.595 121.209 207.206 116.801 209.224 112.981Z" fill="#263238"/>
<path d="M226.465 125.285C219.44 126.526 195.734 119.031 191.294 114.161C184.686 106.925 179.666 94.0012 178.241 89.1386C177.62 87.0176 191.588 80.634 192.563 82.7755C194.691 87.3654 200.747 101.599 201.927 102.935C203.106 104.272 214.885 112.436 221.705 116.05C230.905 120.913 230.018 124.657 226.465 125.285Z" fill="#DD6A57"/>
<path d="M193.599 85.742C193.49 84.6917 190.244 76.8283 188.443 74.3117C186.599 71.5996 184.323 69.2082 181.705 67.2325C177.559 64.1363 174.394 62.3767 173.576 62.9973C172.062 64.1431 172.962 66.0049 177.115 69.1899C181.269 72.3748 180.71 75.4643 180.15 77.6194C178.767 82.9031 178.737 88.4501 180.062 93.7487C180.062 93.7487 194.036 89.7999 193.599 85.742Z" fill="#DD6A57"/>
<path d="M180.375 76.8419C179.871 79.0857 177.081 70.7039 174.565 70.0219C172.048 69.3399 172.253 71.9656 173.201 74.2708C176.549 82.2502 175.076 87.3106 179.011 91.8937C182.947 96.4767 180.375 76.8419 180.375 76.8419Z" fill="#DD6A57"/>
<path d="M179.298 95.1399C179.598 94.8876 195.209 85.8442 195.209 85.8442C195.209 85.8442 201.006 100.623 202.193 102.39C203.379 104.156 220.443 115.047 226.342 118.492C232.651 122.181 230.768 127.617 219.659 125.421C208.549 123.225 195.864 118.949 191.649 115.279C187.55 111.726 179.298 95.1399 179.298 95.1399Z" fill="#F39C12"/>
<path d="M181.637 96.8653C188.055 93.8645 194.349 89.7316 195.495 89.0905C195.55 89.0564 195.495 88.9745 195.441 89.0086C194.349 89.6906 186.65 93.6394 181.576 96.7766C181.566 96.7856 181.56 96.7976 181.559 96.8106C181.558 96.8235 181.561 96.8365 181.568 96.8473C181.576 96.858 181.587 96.8657 181.599 96.869C181.612 96.8723 181.625 96.871 181.637 96.8653Z" fill="#263238"/>
<path d="M219.379 146.433L220.538 165.693C220.538 165.693 251.099 159.828 258.553 157.727C258.553 157.727 245.138 124.05 235.174 116.902C230.189 113.329 225.483 114.652 223.082 118.369C222.468 119.31 215.798 133.373 215.792 138.201C215.798 142.471 219.379 146.433 219.379 146.433Z" fill="#F39C12"/>
<path d="M230.08 117.257C229.929 117.864 226.963 121.799 224.167 121.636C223.253 121.581 223.335 116.603 223.335 116.603L223.26 116.227L222.168 111.065L228.272 107.259L229.152 106.789C229.152 106.789 229.357 108.221 229.595 110.008C229.595 110.089 229.595 110.171 229.629 110.26L229.67 110.553C229.711 110.819 229.745 111.092 229.779 111.365C229.814 111.638 229.834 111.774 229.848 111.992C229.861 112.21 229.895 112.422 229.923 112.64C230.077 114.174 230.13 115.716 230.08 117.257Z" fill="#DD6A57"/>
<path d="M229.595 109.974C229.056 111.413 228.21 112.719 227.116 113.798C226.022 114.878 224.706 115.707 223.26 116.227L222.168 111.065L228.272 107.259L229.152 106.789C229.152 106.789 229.357 108.187 229.595 109.974Z" fill="#263238"/>
<path d="M214.625 104.149C214.973 113.411 220.559 114.25 222.557 114.175C224.364 114.1 230.53 113.636 231.143 104.388C231.757 95.1399 227.345 92.3779 223.185 92.3165C219.024 92.2551 214.284 94.8944 214.625 104.149Z" fill="#DD6A57"/>
<path d="M215.901 101.544C216.11 101.502 216.317 101.45 216.521 101.387C216.747 101.363 216.958 101.264 217.122 101.108C217.167 101.051 217.193 100.98 217.193 100.907C217.193 100.833 217.167 100.762 217.122 100.705C217.013 100.609 216.88 100.543 216.738 100.514C216.595 100.486 216.448 100.495 216.31 100.542C216.016 100.596 215.753 100.759 215.573 100.999C215.538 101.054 215.518 101.119 215.517 101.185C215.516 101.251 215.533 101.316 215.567 101.373C215.601 101.43 215.651 101.476 215.71 101.506C215.769 101.537 215.835 101.55 215.901 101.544Z" fill="#263238"/>
<path d="M221.984 101.332C221.771 101.309 221.559 101.273 221.35 101.223C221.123 101.217 220.905 101.135 220.729 100.991C220.687 100.933 220.664 100.862 220.664 100.79C220.664 100.718 220.687 100.647 220.729 100.589C220.831 100.484 220.958 100.409 221.098 100.371C221.239 100.332 221.387 100.332 221.527 100.371C221.825 100.399 222.101 100.54 222.298 100.766C222.342 100.82 222.37 100.886 222.376 100.956C222.382 101.025 222.368 101.095 222.334 101.156C222.3 101.217 222.248 101.267 222.186 101.298C222.124 101.329 222.053 101.341 221.984 101.332Z" fill="#263238"/>
<path d="M220.832 103.733C220.832 103.733 220.886 103.733 220.886 103.788C220.886 104.422 220.968 105.152 221.568 105.35V105.384C220.838 105.295 220.723 104.334 220.832 103.733Z" fill="#263238"/>
<path d="M221.391 103.072C222.4 102.976 222.509 105.015 221.568 105.118C220.627 105.22 220.538 103.147 221.391 103.072Z" fill="#263238"/>
<path d="M221.793 103.154C221.977 103.263 222.161 103.454 222.38 103.467C222.598 103.481 222.803 103.256 222.953 103.044C222.953 103.044 222.953 103.044 222.994 103.044C222.994 103.433 222.884 103.842 222.475 103.917C222.066 103.992 221.793 103.658 221.684 103.276C221.65 103.222 221.718 103.113 221.793 103.154Z" fill="#263238"/>
<path d="M217.203 103.801C217.203 103.801 217.156 103.801 217.162 103.863C217.217 104.49 217.162 105.227 216.624 105.465C216.624 105.465 216.624 105.506 216.624 105.499C217.319 105.363 217.36 104.388 217.203 103.801Z" fill="#263238"/>
<path d="M216.603 103.181C215.587 103.181 215.628 105.227 216.569 105.227C217.51 105.227 217.456 103.194 216.603 103.181Z" fill="#263238"/>
<path d="M216.194 103.324C216.037 103.433 215.88 103.638 215.689 103.651C215.498 103.665 215.301 103.454 215.151 103.242C215.151 103.631 215.28 104.033 215.655 104.102C216.03 104.17 216.242 103.822 216.337 103.42C216.303 103.379 216.249 103.276 216.194 103.324Z" fill="#263238"/>
<path d="M221.152 108.746C221.016 108.91 220.886 109.128 220.661 109.169C220.43 109.187 220.198 109.156 219.979 109.08C220.081 109.195 220.213 109.28 220.359 109.325C220.506 109.371 220.662 109.376 220.811 109.339C220.934 109.292 221.041 109.21 221.118 109.104C221.196 108.997 221.241 108.871 221.248 108.739C221.22 108.732 221.173 108.726 221.152 108.746Z" fill="#263238"/>
<path d="M218.424 106.577C218.377 107.031 218.352 107.486 218.349 107.941C218.349 107.982 218.458 107.996 218.608 108.003C218.997 108.062 219.394 108.011 219.755 107.857C220.117 107.703 220.428 107.451 220.654 107.13C220.659 107.12 220.66 107.11 220.658 107.1C220.656 107.09 220.651 107.08 220.643 107.073C220.636 107.066 220.626 107.062 220.616 107.061C220.605 107.06 220.595 107.063 220.586 107.068C220.035 107.481 219.365 107.704 218.677 107.703C218.642 107.58 218.888 106.086 218.82 106.079C218.477 106.127 218.143 106.218 217.824 106.352C217.954 104.374 218.404 102.431 218.506 100.46C218.506 100.444 218.5 100.428 218.488 100.416C218.477 100.405 218.461 100.398 218.445 100.398C218.428 100.398 218.413 100.405 218.401 100.416C218.39 100.428 218.383 100.444 218.383 100.46C217.838 102.524 217.5 104.637 217.374 106.768C217.347 107.027 218.24 106.659 218.424 106.577Z" fill="#263238"/>
<path d="M218.608 107.73C218.853 108.096 219.19 108.392 219.584 108.589C219.796 108.691 220.034 108.724 220.266 108.685C220.784 108.582 220.825 108.119 220.763 107.716C220.725 107.5 220.661 107.29 220.572 107.089C220.001 107.504 219.314 107.728 218.608 107.73Z" fill="#263238"/>
<path d="M219.604 108.589C219.816 108.691 220.054 108.724 220.286 108.685C220.804 108.582 220.845 108.119 220.784 107.716C220.518 107.709 220.258 107.792 220.044 107.95C219.83 108.108 219.675 108.333 219.604 108.589Z" fill="#FF9BBC"/>
<path d="M230.768 104.108C228.525 104.231 228.381 100.698 228.381 100.698C228.381 100.698 225.824 100.589 225.449 96.4902C224.994 97.3379 224.348 98.0681 223.562 98.6232C222.776 99.1784 221.871 99.5431 220.92 99.6887C220.191 99.832 222.55 97.8269 222.55 97.8269C222.55 97.8269 219.747 100.616 214.257 99.8729C213.868 99.8183 213.978 93.5098 218.158 91.3547C222.339 89.1996 226.676 90.6727 229.439 93.237C229.439 93.237 232.63 94.5396 233.121 97.4791C233.612 100.418 231.635 104.06 230.768 104.108Z" fill="#263238"/>
<path d="M229.698 105.159C229.698 105.159 231.348 102.035 232.739 102.587C234.131 103.14 233.142 107.491 231.682 108.248C231.502 108.359 231.302 108.433 231.092 108.465C230.883 108.496 230.67 108.485 230.465 108.431C230.26 108.377 230.068 108.283 229.901 108.153C229.734 108.023 229.595 107.86 229.493 107.675L229.698 105.159Z" fill="#DD6A57"/>
<path d="M232.426 103.829C232.426 103.829 232.46 103.829 232.426 103.87C231.961 104.176 231.568 104.578 231.27 105.048C230.973 105.519 230.779 106.047 230.7 106.598C230.749 106.483 230.822 106.379 230.915 106.296C231.008 106.212 231.117 106.149 231.237 106.111C231.356 106.073 231.482 106.062 231.606 106.078C231.73 106.093 231.849 106.136 231.955 106.202V106.263C231.759 106.227 231.557 106.252 231.377 106.335C231.196 106.418 231.045 106.555 230.946 106.727C230.782 107.017 230.65 107.323 230.55 107.641C230.509 107.743 230.332 107.709 230.352 107.6C230.148 106.195 230.973 104.149 232.426 103.829Z" fill="#263238"/>
<path d="M237.602 120.503C249.367 132.895 259.03 158.695 253.37 161.089C248.2 163.299 231.812 161.253 225.074 159.65C223.096 159.173 227.12 143.841 229.2 144.346C231.757 144.953 238.298 145.894 238.564 145.874C239.13 145.833 233.108 128.681 231.171 122.099C228.47 112.926 233.189 115.852 237.602 120.503Z" fill="#DD6A57"/>
<path d="M208.808 140.82C208.564 141.243 208.453 141.729 208.489 142.216C208.526 142.702 208.708 143.167 209.013 143.548C208.255 143.907 207.646 144.52 207.294 145.281C206.728 146.645 208.658 148.131 208.658 148.131C207.947 148.669 207.415 149.408 207.13 150.252C206.728 151.616 208.44 153.383 208.44 153.383C208.056 154.242 207.996 155.211 208.269 156.111C209.088 158.464 212.811 159.309 215.171 159.875C217.531 160.441 224.719 159.821 226.131 159.841L229.834 144.755C229.834 144.755 219.979 139.231 217.108 138.965C214.7 138.74 209.838 139.231 208.808 140.82Z" fill="#DD6A57"/>
<path d="M209.176 143.364C211.802 142.989 214.394 143.405 217.006 143.678C217.014 143.682 217.022 143.688 217.027 143.696C217.033 143.704 217.036 143.713 217.036 143.722C217.036 143.732 217.033 143.741 217.027 143.749C217.022 143.757 217.014 143.763 217.006 143.767C214.407 143.467 211.788 143.685 209.19 143.487C209.174 143.489 209.157 143.484 209.145 143.474C209.132 143.464 209.124 143.449 209.122 143.433C209.12 143.416 209.125 143.4 209.135 143.387C209.145 143.374 209.16 143.366 209.176 143.364Z" fill="#263238"/>
<path d="M208.733 147.981C209.337 147.953 209.942 148.003 210.533 148.131C211.168 148.234 211.802 148.343 212.429 148.459C213.691 148.697 214.946 148.963 216.187 149.27C216.249 149.27 216.242 149.366 216.187 149.359C214.932 149.118 213.671 148.907 212.402 148.725L210.506 148.466C209.901 148.429 209.302 148.326 208.719 148.159C208.702 148.15 208.688 148.137 208.678 148.12C208.668 148.104 208.664 148.084 208.666 148.065C208.667 148.046 208.674 148.028 208.686 148.013C208.698 147.998 208.715 147.987 208.733 147.981Z" fill="#263238"/>
<path d="M208.467 153.43C209.015 153.41 209.562 153.486 210.083 153.655L211.802 154.003C212.948 154.228 214.093 154.46 215.246 154.644C215.307 154.644 215.294 154.747 215.246 154.74C214.073 154.549 212.893 154.385 211.727 154.187L210.001 153.894C209.468 153.849 208.946 153.711 208.46 153.485C208.46 153.485 208.447 153.43 208.467 153.43Z" fill="#263238"/>
<path d="M237.957 145.383C238.768 144.701 232.344 128.544 230.591 121.192C228.838 113.84 232.235 114.249 237.616 120.169C243.385 126.512 252.974 140.541 255.157 154.992C255.839 159.507 256.759 162.726 246.291 162.542C240.219 162.478 234.161 161.949 228.17 160.96L230.448 144.455C230.448 144.455 237.725 145.581 237.957 145.383Z" fill="#F39C12"/>
<path d="M231.88 160.83C233.244 154.297 233.626 147.231 233.79 146.003C233.79 145.949 233.701 145.942 233.694 146.003C233.599 147.211 232.255 155.238 231.778 160.823C231.778 160.885 231.88 160.892 231.88 160.83Z" fill="#263238"/>
<path d="M245.895 146.665C245.249 146.483 244.59 146.348 243.924 146.263L242.089 145.928L241.292 145.785H241.367L242.43 145.635C242.785 145.581 243.113 145.506 243.501 145.472C243.556 145.472 243.556 145.376 243.501 145.383C243.147 145.431 242.819 145.431 242.437 145.451L241.326 145.526L240.357 145.628C239.764 145.533 239.171 145.437 238.577 145.356C238.318 144.183 237.895 143.023 237.547 141.877C237.2 140.732 236.784 139.49 236.374 138.304C235.965 137.117 235.549 135.985 235.099 134.839C234.874 134.266 233.674 130.747 233.278 129.82C233.278 129.758 233.183 129.82 233.196 129.854C233.428 130.781 234.656 134.403 234.833 134.989C234.963 135.419 235.099 135.848 235.235 136.271L235.181 136.21L234.465 135.255C233.987 134.607 233.51 133.953 233.101 133.264C233.101 133.202 232.978 133.264 233.012 133.318C233.408 134.041 233.783 134.764 234.199 135.467C234.41 135.821 234.628 136.149 234.881 136.503C235.089 136.849 235.336 137.169 235.617 137.458C235.726 137.806 235.829 138.14 235.945 138.508C236.313 139.681 236.688 140.854 237.05 142.027C237.411 143.2 237.677 144.21 238.059 145.267C236.838 145.103 235.624 144.96 234.403 144.81L232.535 144.592C231.853 144.517 231.171 144.517 230.489 144.401C230.427 144.401 230.407 144.483 230.489 144.489C231.171 144.564 231.812 144.769 232.466 144.885L234.308 145.206C235.604 145.424 236.906 145.656 238.209 145.888C239.512 146.119 240.787 146.229 242.076 146.379L244.02 146.597C244.645 146.693 245.276 146.746 245.909 146.754L245.895 146.665Z" fill="#263238"/>
<path d="M248.773 162.556C243.147 162.358 233.019 161.587 228.313 160.96C228.306 160.957 228.298 160.956 228.29 160.957C228.283 160.958 228.275 160.96 228.269 160.965C228.262 160.969 228.257 160.975 228.253 160.982C228.25 160.989 228.248 160.996 228.248 161.004C228.248 161.012 228.25 161.02 228.253 161.027C228.257 161.034 228.262 161.039 228.269 161.044C228.275 161.048 228.283 161.051 228.29 161.052C228.298 161.053 228.306 161.052 228.313 161.049C235.032 162.492 241.908 163.072 248.773 162.774C248.802 162.774 248.83 162.763 248.85 162.742C248.871 162.722 248.882 162.694 248.882 162.665C248.882 162.636 248.871 162.608 248.85 162.588C248.83 162.567 248.802 162.556 248.773 162.556Z" fill="#263238"/>
<path d="M251.965 142.935C251.658 142.253 251.331 141.571 251.017 140.889C250.649 140.098 250.615 140.207 250.949 141.093C251.283 141.98 251.569 142.751 251.89 143.576C252.517 145.219 255.77 155.17 255.409 158.689C255.409 158.737 255.484 158.744 255.491 158.689C256.33 153.99 253.104 145.506 251.965 142.935Z" fill="#263238"/>
<path d="M113.621 97.82C121.355 105.322 122.931 124.629 113.396 137.615C105.321 148.609 86.5731 150.702 78.5119 144.148C69.9664 137.185 71.2213 125.905 77.4684 120.415C83.9133 114.754 91.6472 116.275 95.555 111.228C97.4237 108.814 98.1194 103.726 100.725 100.009C103.664 95.8763 109.666 93.9667 113.621 97.82Z" fill="#263238"/>
<path d="M106.515 96.3945C107.374 96.0739 108.186 91.2863 105.042 89.0084C101.898 86.7305 97.8669 89.3358 99.5855 93.2573C100.629 95.7329 104.707 97.0696 106.515 96.3945Z" fill="#263238"/>
<path d="M98.8899 103.453C98.3254 105.203 97.616 106.902 96.7689 108.534C95.9208 110.202 94.7228 111.668 93.2566 112.831C92.4794 113.371 91.6172 113.776 90.7059 114.031C89.8193 114.317 88.9327 114.556 88.0529 114.802C86.2915 115.263 84.5547 115.814 82.8492 116.452C81.1587 117.073 79.5543 117.907 78.0752 118.935C76.598 119.972 75.3509 121.304 74.4121 122.846C73.4732 124.388 72.8629 126.107 72.6192 127.896C72.3523 129.702 72.2997 131.534 72.4624 133.352C72.1703 131.532 72.113 129.683 72.2919 127.848C72.4865 125.993 73.0574 124.197 73.9696 122.57C74.9011 120.939 76.1736 119.53 77.7001 118.437C79.2191 117.359 80.8692 116.479 82.6105 115.818C84.3427 115.186 86.107 114.647 87.896 114.201C88.7826 113.963 89.6624 113.731 90.5286 113.465C91.3861 113.229 92.2042 112.868 92.9565 112.394C94.4074 111.321 95.6081 109.946 96.4756 108.364C97.3982 106.787 98.2051 105.146 98.8899 103.453Z" fill="#263238"/>
<path d="M115.101 99.4976C117.347 102.748 119.08 106.325 120.236 110.103C121.424 113.899 121.887 117.886 121.6 121.854C121.435 123.839 121.029 125.797 120.393 127.685C120.25 128.162 120.059 128.619 119.875 129.083C119.691 129.546 119.514 130.01 119.282 130.447C119.05 130.883 118.852 131.347 118.6 131.811L117.829 133.086C115.673 136.406 112.894 139.275 109.645 141.536C110.375 140.854 111.145 140.274 111.848 139.592C112.55 138.91 113.273 138.228 113.894 137.492C115.213 136.056 116.381 134.488 117.379 132.813C119.408 129.467 120.627 125.693 120.939 121.792C121.241 117.904 120.832 113.994 119.732 110.253C119.205 108.369 118.551 106.523 117.774 104.728C117.009 102.923 116.116 101.175 115.101 99.4976Z" fill="#263238"/>
<path d="M100.643 88.729C99.7152 89.506 99.0761 90.5727 98.8286 91.7571C98.7045 92.3095 98.7273 92.8849 98.8948 93.4258C99.0624 93.9666 99.3687 94.4542 99.7834 94.8397C100.668 95.6265 101.75 96.157 102.914 96.3742C103.504 96.4985 104.104 96.5715 104.707 96.5925C105.317 96.6394 105.93 96.5724 106.515 96.3947C105.962 96.698 105.35 96.8794 104.721 96.9266C104.089 97.0016 103.45 97.0016 102.818 96.9266C101.517 96.7846 100.292 96.2412 99.3128 95.3717C98.8141 94.9129 98.4557 94.322 98.2795 93.6677C98.1032 93.0134 98.1163 92.3225 98.3171 91.6752C98.4819 91.0509 98.7734 90.4671 99.1735 89.9602C99.5736 89.4533 100.074 89.0343 100.643 88.729Z" fill="#263238"/>
<path d="M105.123 121.608C102.702 137.519 88.6666 169.914 86.5456 174.074C85.1066 176.898 70.0207 169.621 71.2893 167.854C72.9056 165.583 89.1236 137.123 96.8575 126.825C101.127 121.144 105.621 118.321 105.123 121.608Z" fill="#F7A9A0"/>
<path d="M71.6099 167.404C69.8504 169.723 67.0951 176.345 66.4608 178.555C65.8266 180.765 64.4762 187.264 66.1539 187.946C67.8316 188.628 68.3431 186.732 68.3431 186.732C68.3431 186.732 68.2067 189.562 69.9186 190.074C71.6304 190.585 72.3942 187.646 72.3942 187.646C72.3942 187.646 72.4624 190.565 74.2083 190.947C75.9543 191.329 76.2543 188.219 76.2543 188.219C76.2543 188.219 76.193 190.892 77.7616 190.606C79.6575 190.258 79.2074 185.32 80.0872 182.933C80.2918 182.388 84.9226 172.233 84.9226 172.233L71.6099 167.404Z" fill="#F7A9A0"/>
<path d="M75.8792 188.308C75.5586 184.68 76.0497 183.036 77.6933 179.844C77.6933 179.783 77.6387 179.721 77.5978 179.783C75.7087 182.756 74.7948 184.734 75.7019 188.335C75.7496 188.512 75.8928 188.485 75.8792 188.308Z" fill="#263238"/>
<path d="M72.1078 187.728C72.1078 183.922 72.6193 182.136 74.0924 178.664C74.0924 178.617 74.0379 178.576 74.0106 178.623C72.2783 181.904 71.4122 183.895 71.9168 187.694C71.9373 187.864 72.1078 187.899 72.1078 187.728Z" fill="#263238"/>
<path d="M68.1113 186.35C68.3704 182.668 68.8547 180.683 70.7165 177.484C70.7219 177.47 70.7223 177.454 70.7178 177.44C70.7132 177.425 70.7039 177.413 70.6913 177.404C70.6788 177.395 70.6637 177.391 70.6485 177.392C70.6332 177.393 70.6188 177.399 70.6074 177.409C68.6006 179.92 67.6623 183.119 67.9953 186.316C68.0158 186.582 68.0908 186.582 68.1113 186.35Z" fill="#263238"/>
<path d="M87.5142 170.964C87.5142 170.964 87.3096 175.527 86.7708 177.512C86.2321 179.496 81.5331 186.159 80.0327 185.225C78.1026 184.018 80.0327 179.633 81.3012 177.614C81.3012 177.614 76.8273 174.825 77.557 171.374C78.2868 167.923 87.5142 170.964 87.5142 170.964Z" fill="#F7A9A0"/>
<path d="M79.6098 184.72C78.6414 182.347 80.4418 179.796 81.4989 177.743C81.5159 177.714 81.5254 177.68 81.5267 177.646C81.5279 177.612 81.5209 177.578 81.5061 177.547C81.4914 177.516 81.4694 177.49 81.442 177.469C81.4146 177.449 81.3827 177.435 81.3489 177.43C79.5552 176.134 77.3933 173.788 77.4342 171.449C77.4342 171.434 77.4285 171.42 77.4182 171.41C77.408 171.4 77.3941 171.394 77.3797 171.394C77.3652 171.394 77.3513 171.4 77.3411 171.41C77.3308 171.42 77.3251 171.434 77.3251 171.449C76.9432 173.945 78.8801 176.427 80.9397 177.723C79.8212 179.81 78.1299 182.442 79.5757 184.734C79.5962 184.741 79.6166 184.734 79.6098 184.72Z" fill="#263238"/>
<path d="M86.7434 139.402C86.7434 139.402 89.0349 140.582 91.6947 141.986C95.1729 143.807 99.2854 146.003 99.7219 146.379C99.7219 146.379 104.175 132.022 105.178 125.605C106.18 119.187 105.253 117.932 100.574 121.799C98.3169 123.675 95.0161 127.842 92.2131 131.654C89.1918 135.733 86.7434 139.402 86.7434 139.402Z" fill="#F39C12"/>
<path d="M86.7434 139.402C86.7434 139.402 89.0349 140.582 91.6947 141.986C95.1729 143.807 99.2854 146.003 99.7219 146.379C99.7219 146.379 104.175 132.022 105.178 125.605C106.18 119.187 105.253 117.932 100.574 121.799C98.3169 123.675 95.0161 127.842 92.2131 131.654C89.1918 135.733 86.7434 139.402 86.7434 139.402Z" fill="#F39C12"/>
<path d="M105.164 125.605C104.176 132.022 99.7084 146.378 99.7084 146.378C99.272 146.003 95.1595 143.807 91.6813 141.986L89.7581 140.977C88.0053 140.056 86.73 139.402 86.73 139.402C86.73 139.402 89.1784 135.732 92.186 131.654C94.989 127.842 98.2899 123.675 100.547 121.799L101.038 121.404C105.301 118.028 106.119 119.419 105.164 125.605Z" fill="#F39C12"/>
<path d="M105.164 125.605C104.176 132.022 99.7084 146.378 99.7084 146.378C99.272 146.003 95.1595 143.807 91.6813 141.986L89.7581 140.977C88.0053 140.056 86.73 139.402 86.73 139.402C86.73 139.402 89.1784 135.732 92.186 131.654C94.989 127.842 98.2899 123.675 100.547 121.799L101.038 121.404C105.301 118.028 106.119 119.419 105.164 125.605Z" fill="#F39C12"/>
<path d="M105.164 125.605C104.176 132.022 99.7084 146.378 99.7084 146.378C99.272 146.003 95.1595 143.807 91.6813 141.986L89.7581 140.977C92.5202 136.114 97.6965 127.173 101.038 121.404C105.301 118.028 106.119 119.419 105.164 125.605Z" fill="#263238"/>
<path d="M100.302 143.173C96.4925 140.984 92.5701 138.999 88.5507 137.226C88.503 137.226 88.4757 137.281 88.5507 137.301C89.526 137.738 95.7936 141.216 100.295 143.255C100.315 143.275 100.349 143.2 100.302 143.173Z" fill="#263238"/>
<path d="M105.526 118.383C105.628 118.996 108.288 123.122 111.077 123.157C111.984 123.157 112.264 118.219 112.264 118.219L112.373 117.857L113.833 112.804L108.056 108.575L107.217 108.009C107.217 108.009 106.91 109.421 106.535 111.174C106.535 111.256 106.501 111.337 106.488 111.426C106.474 111.515 106.44 111.617 106.419 111.713C106.365 111.972 106.303 112.245 106.249 112.51C106.194 112.776 106.167 112.913 106.133 113.124C106.099 113.336 106.058 113.547 106.017 113.765C105.747 115.291 105.583 116.834 105.526 118.383Z" fill="#F7A9A0"/>
<path d="M106.542 111.16C106.971 112.63 107.715 113.99 108.722 115.144C109.729 116.298 110.975 117.219 112.373 117.844L113.833 112.79L108.056 108.562L107.217 107.996C107.217 107.996 106.91 109.407 106.542 111.16Z" fill="#263238"/>
<path d="M120.496 103.978C122.637 112.947 117.55 115.327 115.565 115.702C113.792 116.043 107.776 117.318 104.721 108.616C101.666 99.9138 105.158 96.0809 109.12 94.9147C113.082 93.7485 118.354 95.0034 120.496 103.978Z" fill="#F7A9A0"/>
<path d="M119.589 102.144C119.37 102.144 119.166 102.144 118.948 102.144C118.723 102.164 118.499 102.111 118.306 101.994C118.253 101.945 118.218 101.879 118.206 101.807C118.195 101.735 118.209 101.662 118.245 101.598C118.33 101.481 118.446 101.39 118.579 101.333C118.712 101.277 118.859 101.258 119.002 101.278C119.3 101.27 119.59 101.374 119.814 101.571C119.853 101.62 119.878 101.678 119.888 101.74C119.897 101.802 119.89 101.865 119.867 101.923C119.844 101.981 119.807 102.032 119.758 102.071C119.709 102.11 119.65 102.135 119.589 102.144Z" fill="#263238"/>
<path d="M113.764 103.439C113.966 103.373 114.165 103.296 114.358 103.208C114.579 103.155 114.775 103.03 114.917 102.853C114.95 102.789 114.961 102.715 114.949 102.644C114.937 102.572 114.902 102.507 114.849 102.457C114.729 102.377 114.591 102.33 114.447 102.32C114.303 102.311 114.16 102.339 114.03 102.403C113.745 102.493 113.502 102.685 113.348 102.942C113.318 103.003 113.306 103.072 113.314 103.141C113.322 103.209 113.35 103.273 113.394 103.326C113.438 103.379 113.497 103.418 113.563 103.438C113.628 103.458 113.698 103.458 113.764 103.439Z" fill="#263238"/>
<path d="M115.476 105.458C115.476 105.458 115.435 105.458 115.476 105.52C115.613 106.134 115.667 106.884 115.142 107.17C115.142 107.17 115.142 107.211 115.142 107.204C115.783 106.979 115.701 106.018 115.476 105.458Z" fill="#263238"/>
<path d="M114.801 104.92C113.798 105.029 114.119 107.034 115.033 106.966C115.947 106.898 115.647 104.824 114.801 104.92Z" fill="#263238"/>
<path d="M114.426 105.083C114.269 105.22 114.126 105.445 113.914 105.499C113.703 105.554 113.464 105.377 113.273 105.199H113.239C113.294 105.588 113.498 105.956 113.921 105.956C114.344 105.956 114.521 105.567 114.562 105.172C114.576 105.124 114.487 105.029 114.426 105.083Z" fill="#263238"/>
<path d="M118.763 104.613C118.763 104.613 118.818 104.613 118.818 104.661C118.886 105.281 119.07 106.025 119.664 106.113V106.147C118.961 106.147 118.729 105.213 118.763 104.613Z" fill="#263238"/>
<path d="M119.227 103.883C120.216 103.665 120.591 105.656 119.664 105.861C118.736 106.065 118.395 104.06 119.227 103.883Z" fill="#263238"/>
<path d="M119.664 103.937C119.841 104.012 120.032 104.176 120.223 104.156C120.414 104.135 120.571 103.883 120.666 103.651C120.666 103.651 120.666 103.651 120.707 103.651C120.782 104.026 120.707 104.449 120.38 104.592C120.052 104.735 119.752 104.435 119.589 104.074C119.561 104.06 119.595 103.903 119.664 103.937Z" fill="#263238"/>
<path d="M116.185 110.253C116.349 110.382 116.52 110.573 116.751 110.566C116.992 110.54 117.224 110.463 117.433 110.341C117.433 110.341 117.474 110.341 117.433 110.341C117.358 110.474 117.247 110.584 117.114 110.658C116.98 110.733 116.829 110.769 116.676 110.764C116.546 110.742 116.426 110.682 116.329 110.593C116.232 110.503 116.163 110.387 116.131 110.26C116.131 110.26 116.158 110.232 116.185 110.253Z" fill="#263238"/>
<path d="M118.415 107.593C118.415 107.593 118.695 108.5 118.763 108.957C118.763 108.998 118.668 109.032 118.518 109.066C118.155 109.196 117.763 109.223 117.385 109.145C117.007 109.067 116.658 108.886 116.376 108.623C116.369 108.615 116.365 108.604 116.365 108.594C116.365 108.583 116.368 108.572 116.374 108.564C116.38 108.555 116.389 108.549 116.4 108.546C116.41 108.543 116.421 108.544 116.431 108.548C117.05 108.836 117.745 108.92 118.415 108.786C118.415 108.657 117.884 107.252 117.952 107.231C118.297 107.208 118.643 107.231 118.982 107.3C118.456 105.397 117.618 103.589 117.14 101.694C117.14 101.625 117.222 101.584 117.249 101.646C118.192 103.552 118.943 105.546 119.493 107.6C119.554 107.825 118.6 107.641 118.415 107.593Z" fill="#263238"/>
<path d="M118.429 108.718C118.266 109.126 118.001 109.486 117.659 109.762C117.463 109.911 117.223 109.993 116.977 109.993C116.452 109.993 116.295 109.557 116.295 109.148C116.281 108.919 116.3 108.69 116.349 108.466C116.997 108.773 117.727 108.862 118.429 108.718Z" fill="#263238"/>
<path d="M117.659 109.762C117.463 109.911 117.223 109.993 116.977 109.994C116.452 109.994 116.295 109.557 116.295 109.148C116.558 109.082 116.836 109.107 117.083 109.218C117.331 109.33 117.533 109.521 117.659 109.762Z" fill="#FF9BBC"/>
<path d="M104.871 108.316C105.86 108.118 108.076 105.001 107.469 100.173C107.469 100.173 107.715 104.545 107.469 105.227C107.224 105.909 108.704 103.474 108.274 99.5728C109.623 100.276 111.065 100.783 112.557 101.08C114.46 101.332 115.585 101.155 115.694 101.005C115.803 100.855 112.966 100.384 112.134 99.641C112.134 99.641 117.338 101.216 119.636 101.073C119.902 101.073 119.452 95.6581 115.653 93.8781C111.855 92.098 106.685 95.3307 105.423 96.9675C105.423 96.9675 103.718 97.4654 102.191 100.303C100.663 103.14 103.807 108.534 104.871 108.316Z" fill="#263238"/>
<path d="M106.392 108.752C106.392 108.752 103.978 106.195 102.791 107.102C101.604 108.009 103.718 111.876 105.321 112.244C105.523 112.301 105.735 112.317 105.943 112.291C106.151 112.265 106.352 112.197 106.534 112.091C106.715 111.986 106.873 111.844 106.999 111.676C107.125 111.508 107.215 111.316 107.265 111.112L106.392 108.752Z" fill="#F7A9A0"/>
<path d="M54.6894 261.248C54.9554 261.118 92.3426 242.69 98.5284 231.096C109.584 210.363 113.43 183.861 114.821 177.634C117.684 170.46 119.63 162.953 120.612 155.292H90.4808C90.4808 155.292 82.5764 170.412 86.6547 181.092C87.023 182.074 79.9507 215.635 76.4929 219.611C72.6465 224.024 43.15 238.83 42.6521 239.083L54.6894 261.248Z" fill="#37474F"/>
<path d="M106.549 159.125C105.062 166.736 103.371 174.313 101.666 181.876C99.9606 189.44 98.1669 196.88 96.2777 204.335C95.3229 208.099 94.3409 211.853 93.3315 215.595C92.4108 219.005 91.5106 222.496 89.1918 225.245C86.873 227.993 83.9131 229.882 81.076 231.847C78.0752 233.893 74.9925 235.877 71.8553 237.739C65.5264 241.504 58.9996 244.921 52.4456 248.269L50.0382 249.49C49.8608 249.579 50.0381 249.845 50.2018 249.756C56.8445 246.455 63.4735 243.086 69.898 239.376C73.1125 237.525 76.2679 235.584 79.3641 233.552C80.885 232.549 82.3854 231.506 83.8722 230.455C85.2713 229.483 86.6168 228.436 87.9028 227.318C89.1658 226.209 90.2473 224.909 91.1082 223.465C91.9357 221.965 92.5857 220.375 93.0451 218.725C94.1431 215.104 95.057 211.414 96.005 207.752C97.9691 200.181 99.7878 192.579 101.461 184.945C103.159 177.314 104.735 169.655 106.105 161.955C106.276 161.021 106.44 160.087 106.617 159.152C106.658 159.084 106.555 159.057 106.549 159.125Z" fill="#263238"/>
<path d="M120.612 155.292C119.63 162.953 117.684 170.46 114.822 177.634C114.678 178.262 114.515 179.094 114.324 180.11C114.276 180.355 114.228 180.608 114.174 180.867C114.119 181.126 114.044 181.549 113.969 181.938C113.894 182.326 113.839 182.62 113.771 182.988L113.628 183.718C113.539 184.202 113.437 184.713 113.335 185.239C113.294 185.45 113.253 185.668 113.205 185.88C113.13 186.282 113.041 186.698 112.96 187.121C112.612 188.826 112.223 190.688 111.787 192.672C111.596 193.511 111.398 194.384 111.186 195.271C110.975 196.157 110.764 197.064 110.504 197.999C110.409 198.394 110.307 198.79 110.204 199.185C109.686 201.231 109.106 203.407 108.472 205.596C108.336 206.081 108.192 206.565 108.049 207.056C107.404 209.215 106.703 211.407 105.949 213.63C105.758 214.183 105.56 214.735 105.369 215.294C104.973 216.399 104.562 217.509 104.135 218.622L92.9771 155.292C100.254 155.278 120.619 155.278 120.612 155.292Z" fill="#263238"/>
<path d="M32.2791 244.45C30.9151 245.132 29.6193 245.868 28.3507 246.564L26.0456 247.839C21.2716 250.499 17.6706 252.668 17.6229 253.227C17.466 254.932 34.707 288.821 35.7027 289.81C36.6984 290.799 39.556 288.009 39.9516 286.154C40.1766 285.029 39.9516 278.7 39.7743 273.912C39.6378 270.836 39.5219 268.395 39.5219 268.395L43.5457 266.472L61.8983 257.735L50.3043 235.1C50.3043 235.1 40.9746 239.778 32.2791 244.45Z" fill="white"/>
<path d="M57.7039 261.527C57.2402 260.9 45.0665 236.853 45.0665 236.853C45.0665 236.853 17.9774 250.902 17.2818 253.05C16.5862 255.198 35.3548 290.601 36.1459 290.962C36.937 291.324 40.047 288.916 40.9608 285.254C41.6428 282.594 40.7767 269.404 40.7767 269.404L57.7039 261.527Z" fill="#EB9481"/>
<path d="M42.4203 270.366C42.3589 267.815 41.3496 264.91 39.2013 263.389C39.1194 263.335 39.0376 263.451 39.0785 263.526C40.3316 265.71 41.349 268.021 42.1134 270.421C42.1244 270.457 42.1486 270.489 42.1814 270.509C42.2142 270.53 42.2533 270.537 42.2912 270.53C42.3292 270.524 42.3633 270.503 42.3871 270.473C42.4109 270.442 42.4227 270.404 42.4203 270.366Z" fill="#455A64"/>
<path d="M44.2753 269.418C44.2139 266.868 43.1977 263.962 41.0494 262.441C40.9676 262.387 40.8857 262.503 40.9267 262.578C42.1853 264.759 43.2029 267.071 43.9616 269.473C43.9761 269.507 44.0016 269.535 44.034 269.552C44.0664 269.57 44.1037 269.576 44.14 269.569C44.1762 269.563 44.2093 269.545 44.2339 269.517C44.2584 269.49 44.273 269.455 44.2753 269.418Z" fill="#455A64"/>
<path d="M46.1237 268.47C46.0623 265.919 45.0461 263.014 42.9046 261.493C42.8228 261.439 42.741 261.555 42.7819 261.63C44.0356 263.813 45.0508 266.124 45.81 268.525C45.8245 268.558 45.85 268.586 45.8824 268.604C45.9148 268.621 45.9521 268.627 45.9884 268.621C46.0246 268.615 46.0577 268.596 46.0823 268.569C46.1068 268.542 46.1214 268.507 46.1237 268.47Z" fill="#455A64"/>
<path d="M47.9786 267.522C47.9104 264.972 46.9011 262.066 44.7528 260.545C44.6709 260.484 44.5891 260.607 44.63 260.682C45.8831 262.866 46.9005 265.177 47.6649 267.577C47.6795 267.611 47.705 267.639 47.7374 267.656C47.7697 267.674 47.8071 267.68 47.8433 267.673C47.8796 267.667 47.9127 267.649 47.9372 267.621C47.9618 267.594 47.9764 267.559 47.9786 267.522Z" fill="#455A64"/>
<path d="M49.8268 266.574C49.7654 264.023 48.7493 261.118 46.6078 259.597C46.5191 259.536 46.4373 259.659 46.485 259.734C47.7387 261.917 48.7539 264.228 49.5131 266.629C49.5277 266.662 49.5532 266.69 49.5855 266.708C49.6179 266.725 49.6552 266.731 49.6915 266.725C49.7278 266.719 49.7608 266.701 49.7854 266.673C49.81 266.646 49.8245 266.611 49.8268 266.574Z" fill="#455A64"/>
<path d="M102.655 182.252C102.655 182.252 105.233 206.695 106.433 218.998C106.74 222.06 106.944 224.379 107.019 225.368C107.019 225.763 107.06 232.147 107.074 240.501C107.074 247.826 107.074 256.651 107.074 264.256V269.712C107.074 276.722 107.074 281.715 107.074 281.715H131.919C131.919 281.715 131.919 281.483 131.919 281.033C131.919 280.801 131.919 280.514 131.919 280.173C131.919 279.832 131.919 279.423 131.919 278.959C131.919 278.693 131.919 278.4 131.919 278.1C131.919 276.006 131.994 273.108 132.042 269.732C132.042 268 132.09 266.151 132.117 264.215C132.308 249.17 132.465 228.962 132.035 223.008C131.981 222.326 131.933 221.61 131.885 220.88C130.767 204.028 130.146 179.497 121.88 155.251H90.4399C90.4399 155.251 90.7127 169.492 97.1917 179.803C99.0569 180.517 100.881 181.335 102.655 182.252Z" fill="#37474F"/>
<path d="M126.047 230.708C125.924 222.851 125.604 215.022 124.99 207.165C124.376 199.309 123.435 191.697 122.18 184.018C120.978 176.291 119.304 168.646 117.168 161.123C116.895 160.182 116.615 159.241 116.329 158.307C116.325 158.294 116.319 158.282 116.311 158.271C116.302 158.26 116.292 158.251 116.28 158.245C116.269 158.238 116.256 158.234 116.242 158.232C116.229 158.231 116.215 158.232 116.202 158.235C116.19 158.239 116.177 158.245 116.167 158.253C116.156 158.261 116.147 158.272 116.141 158.283C116.134 158.295 116.13 158.308 116.128 158.321C116.126 158.335 116.127 158.348 116.131 158.361C118.143 165.863 119.875 173.481 121.191 181.167C122.508 188.854 123.374 196.676 124.028 204.478C124.683 212.28 125.051 220.164 125.249 228C125.447 235.837 125.461 243.686 125.386 251.523C125.311 259.359 125.004 267.209 124.983 275.024C124.983 276.006 124.983 276.988 124.983 277.97C124.983 278.039 125.086 278.032 125.086 277.97C125.229 274.042 125.461 270.114 125.59 266.179C125.72 262.244 125.836 258.302 125.931 254.36C126.081 246.476 126.17 238.592 126.047 230.708Z" fill="#263238"/>
<path d="M106.863 184.189C105.314 183.343 103.725 182.579 102.089 181.883C100.452 181.188 98.7945 180.56 97.1781 179.837C97.1168 179.837 97.0622 179.899 97.1236 179.933C98.7195 180.751 100.281 181.631 101.898 182.409C103.481 183.171 105.115 183.825 106.788 184.366C106.903 184.4 106.958 184.236 106.863 184.189Z" fill="#263238"/>
<path d="M107.135 284.579C107.135 286.093 107.19 287.593 107.231 289.039C107.231 289.94 107.285 290.819 107.313 291.665C107.497 297.121 107.797 301.322 108.268 301.622C109.713 302.536 147.735 302.652 149.065 302.216C150.395 301.779 149.228 297.953 147.755 296.76C146.862 296.043 141.14 293.35 136.789 291.338C133.993 290.049 131.762 289.046 131.762 289.046L131.885 284.586L132.479 264.262H107.026C107.026 264.262 106.972 274.717 107.135 284.579Z" fill="white"/>
<path d="M133.931 269.732C133.16 269.862 106.208 269.732 106.208 269.732C106.208 269.732 106.358 300.245 107.954 301.84C109.55 303.436 149.617 302.884 150.292 302.352C150.967 301.82 150.245 297.939 147.407 295.457C145.361 293.656 133.222 288.398 133.222 288.398L133.931 269.732Z" fill="#EB9481"/>
<path d="M134.831 287.368C132.533 286.257 129.471 285.827 127.152 287.055C127.063 287.102 127.152 287.225 127.213 287.225C129.723 287.105 132.238 287.253 134.715 287.668C134.755 287.684 134.799 287.683 134.838 287.665C134.877 287.648 134.908 287.616 134.923 287.576C134.939 287.536 134.938 287.492 134.92 287.453C134.903 287.414 134.871 287.384 134.831 287.368Z" fill="#455A64"/>
<path d="M134.831 285.288C132.533 284.177 129.471 283.747 127.152 284.974C127.063 285.022 127.152 285.145 127.213 285.145C129.723 285.025 132.238 285.173 134.715 285.588C134.755 285.604 134.799 285.603 134.838 285.585C134.877 285.568 134.908 285.536 134.923 285.496C134.939 285.456 134.938 285.412 134.92 285.373C134.903 285.334 134.871 285.304 134.831 285.288Z" fill="#455A64"/>
<path d="M134.831 283.208C132.533 282.096 129.471 281.667 127.152 282.894C127.063 282.942 127.152 283.065 127.213 283.065C129.723 282.944 132.238 283.093 134.715 283.508C134.755 283.524 134.799 283.522 134.838 283.505C134.877 283.488 134.908 283.456 134.923 283.416C134.939 283.376 134.938 283.332 134.92 283.293C134.903 283.254 134.871 283.223 134.831 283.208Z" fill="#455A64"/>
<path d="M134.831 281.128C132.533 280.016 129.471 279.587 127.152 280.814C127.063 280.862 127.152 280.985 127.213 280.985C129.723 280.864 132.238 281.013 134.715 281.428C134.755 281.443 134.799 281.442 134.838 281.425C134.877 281.408 134.908 281.376 134.923 281.336C134.939 281.296 134.938 281.252 134.92 281.213C134.903 281.174 134.871 281.143 134.831 281.128Z" fill="#455A64"/>
<path d="M134.831 279.048C132.533 277.936 129.471 277.507 127.152 278.734C127.063 278.782 127.152 278.905 127.213 278.905C129.723 278.784 132.238 278.933 134.715 279.348C134.755 279.363 134.799 279.362 134.838 279.345C134.877 279.328 134.908 279.296 134.923 279.256C134.939 279.216 134.938 279.172 134.92 279.133C134.903 279.094 134.871 279.063 134.831 279.048Z" fill="#455A64"/>
<path d="M122.705 146.897L125.481 165.993C125.481 165.993 92.5881 166.45 84.8611 165.911C84.8611 165.911 92.936 130.208 101.229 121.192C105.389 116.677 110.266 117.018 113.376 120.169C114.16 120.967 123.544 133.373 124.533 138.113C125.413 142.293 122.705 146.897 122.705 146.897Z" fill="#F39C12"/>
<path d="M107.797 126.417C112.462 127.099 139.796 125.482 144.625 119.808C150.49 112.94 157.583 99.4571 159.377 95.1332C160.55 92.262 146.978 84.9032 146.214 87.6312C145.021 91.9005 134.463 108.03 133.645 109.455C132.826 110.881 120.687 115.054 113.614 118.587C107.272 121.752 104.51 125.919 107.797 126.417Z" fill="#F7A9A0"/>
<path d="M146.057 88.2447C146.057 88.2447 147.598 82.5705 148.785 78.9082C149.467 76.8622 150.893 73.4522 152.066 72.1905C153.818 70.274 162.364 63.3927 164.076 65.4318C165.631 67.2732 157.535 72.2518 157.535 72.2518C157.535 72.2518 165.262 66.5026 166.715 69.0669C168.168 71.6312 158.279 76.0438 158.279 76.0438C158.279 76.0438 166.353 70.315 167.438 73.1998C168.256 75.3754 159.52 79.8766 159.52 79.8766C159.52 79.8766 166.49 75.0003 167.431 77.2032C168.474 79.6379 160.666 84.296 160.666 84.296C162.118 90.3044 160.352 93.7553 158.804 96.0605C158.422 96.6129 146.057 88.2447 146.057 88.2447Z" fill="#F7A9A0"/>
<path d="M154.725 74.0525C155.612 73.3705 156.499 72.6203 157.453 72.0065C158.408 71.3927 159.363 70.7857 160.359 70.247C161.652 69.5192 163.025 68.9426 164.451 68.5283C162.066 69.5628 159.783 70.8162 157.631 72.2725C156.689 72.8931 155.721 73.4728 154.78 74.1003C154.725 74.1207 154.705 74.0866 154.725 74.0525Z" fill="#263238"/>
<path d="M156.928 77.5169C158.094 76.6576 159.22 75.771 160.427 74.9663C161.634 74.1615 162.834 73.5136 164.082 72.7975C164.185 72.7429 164.178 72.7975 164.082 72.8725C162.861 73.6364 161.791 74.4343 160.584 75.2118C159.376 75.9893 158.128 76.7258 156.949 77.5442C156.928 77.5579 156.914 77.5306 156.928 77.5169Z" fill="#263238"/>
<path d="M158.285 80.8111C160.046 79.4571 161.94 78.287 163.939 77.3192C164.035 77.2715 164.021 77.3602 163.939 77.4216C162.036 78.5469 160.529 79.413 158.347 80.8725C158.299 80.8725 158.224 80.8725 158.285 80.8111Z" fill="#263238"/>
<path d="M126.804 110.962L133.447 125.332C133.447 125.332 116.997 129.737 109.113 128.68C103.418 127.916 103.609 123.388 111.459 118.716C117.658 115.027 126.804 110.962 126.804 110.962Z" fill="#F39C12"/>
<path d="M130.426 125.468C128.699 121.021 126.735 116.67 124.54 112.435C124.54 112.381 124.438 112.435 124.465 112.476C124.997 113.506 127.923 120.721 130.337 125.509C130.364 125.564 130.446 125.523 130.426 125.468Z" fill="#263238"/>
<path d="M119.445 128.224C116.867 128.599 114.405 129.588 111.943 130.379C111.932 130.385 111.923 130.395 111.918 130.407C111.913 130.419 111.913 130.432 111.917 130.445C111.921 130.457 111.929 130.467 111.94 130.474C111.951 130.481 111.965 130.483 111.978 130.481C112.925 130.208 113.894 129.963 114.862 129.71C114.419 129.976 113.989 130.263 113.546 130.522C113.485 130.522 113.546 130.645 113.601 130.611C114.283 130.222 114.965 129.929 115.647 129.499C116.942 129.174 118.216 128.766 119.459 128.278C119.459 128.278 119.486 128.217 119.445 128.224Z" fill="#263238"/>
<path d="M233.012 87.645C232.098 86.2929 231.605 84.7007 231.593 83.0688C231.593 77.2786 237.957 72.5796 245.806 72.5796C253.656 72.5796 260.006 77.2786 260.006 83.0688C260.006 88.8589 253.649 93.5647 245.806 93.5647C242.319 93.6214 238.899 92.6074 236.006 90.6594L231.109 91.9075L233.012 87.645Z" fill="white"/>
<path d="M233.012 87.6448C232.104 86.3723 231.585 84.8639 231.518 83.3024C231.45 81.7409 231.836 80.1933 232.63 78.847C233.426 77.5058 234.492 76.3446 235.761 75.437C237.022 74.5177 238.419 73.7999 239.9 73.3091C241.38 72.8147 242.914 72.501 244.47 72.3748C246.026 72.2653 247.589 72.3409 249.128 72.5998C252.254 73.0668 255.163 74.4806 257.462 76.6509C258.605 77.7651 259.464 79.1382 259.965 80.6543C260.449 82.1928 260.463 83.8407 260.006 85.3873C259.532 86.9115 258.694 88.2972 257.564 89.4248C256.454 90.5464 255.16 91.4691 253.738 92.1528C250.894 93.4815 247.756 94.0546 244.627 93.8169C241.503 93.6498 238.488 92.618 235.917 90.8365H236.04L231.13 92.0027L230.966 92.0437L231.034 91.8936L233.012 87.6448ZM233.012 87.6448L231.184 91.9414L231.089 91.8254L235.965 90.5092H236.033L236.095 90.5569C238.647 92.2311 241.61 93.1745 244.661 93.2849C246.175 93.3558 247.693 93.2483 249.182 92.9644C250.668 92.7094 252.112 92.2504 253.472 91.6004C254.826 90.9456 256.057 90.0646 257.114 88.9951C258.163 87.9358 258.938 86.6365 259.371 85.21C259.783 83.7861 259.764 82.272 259.317 80.8589C258.854 79.4453 258.059 78.1635 256.998 77.1215C254.803 75.0308 252.021 73.6623 249.025 73.2C246.031 72.6657 242.952 72.8622 240.05 73.7729C237.112 74.6175 234.57 76.4818 232.882 79.0311C232.086 80.3293 231.67 81.8251 231.682 83.3482C231.726 84.8747 232.186 86.3603 233.012 87.6448Z" fill="#263238"/>
<path d="M250.915 83.0683C250.915 83.3597 251.001 83.6445 251.163 83.8868C251.325 84.129 251.555 84.3178 251.824 84.4293C252.093 84.5408 252.389 84.57 252.675 84.5131C252.961 84.4563 253.223 84.316 253.429 84.11C253.635 83.904 253.776 83.6415 253.832 83.3557C253.889 83.07 253.86 82.7738 253.749 82.5046C253.637 82.2354 253.448 82.0054 253.206 81.8435C252.964 81.6816 252.679 81.5952 252.388 81.5952C251.997 81.5952 251.622 81.7504 251.346 82.0267C251.07 82.3029 250.915 82.6776 250.915 83.0683Z" fill="#263238"/>
<path d="M244.326 83.0684C244.325 83.3613 244.411 83.6481 244.573 83.8924C244.734 84.1367 244.965 84.3274 245.235 84.4405C245.506 84.5536 245.803 84.5838 246.091 84.5275C246.378 84.4712 246.643 84.3308 246.85 84.1241C247.058 83.9174 247.2 83.6537 247.257 83.3664C247.315 83.0791 247.286 82.7812 247.174 82.5104C247.062 82.2396 246.873 82.008 246.629 81.8451C246.386 81.6822 246.099 81.5952 245.806 81.5952C245.612 81.5943 245.42 81.6318 245.241 81.7054C245.061 81.779 244.898 81.8874 244.76 82.0243C244.623 82.1612 244.514 82.3239 244.439 82.503C244.365 82.6822 244.326 82.8743 244.326 83.0684Z" fill="#263238"/>
<path d="M237.745 83.0683C237.745 83.3597 237.832 83.6445 237.993 83.8868C238.155 84.129 238.385 84.3178 238.654 84.4293C238.924 84.5408 239.22 84.57 239.506 84.5131C239.791 84.4563 240.054 84.316 240.26 84.11C240.466 83.904 240.606 83.6415 240.663 83.3557C240.72 83.07 240.691 82.7738 240.579 82.5046C240.468 82.2354 240.279 82.0054 240.037 81.8435C239.794 81.6816 239.51 81.5952 239.218 81.5952C238.828 81.5952 238.453 81.7504 238.177 82.0267C237.9 82.3029 237.745 82.6776 237.745 83.0683Z" fill="#263238"/>
</svg>
