<svg width="286" height="286" viewBox="0 0 286 286" fill="none" xmlns="http://www.w3.org/2000/svg">
<path d="M23.0459 261.358C99.8941 261.009 186.106 261.004 262.954 261.358C186.106 261.713 99.8941 261.707 23.0459 261.358Z" fill="#263238"/>
<path d="M211.783 259.779C213.745 259.122 212 253.447 209.815 251.691C209.117 251.119 206.538 249.827 203.3 248.259C196.179 244.827 185.934 240.251 185.934 240.251L194.663 203.283L159.107 203.477C159.107 203.477 149.383 238.198 149.452 240.354C149.452 240.486 149.452 240.623 149.452 240.755C149.755 250.553 150.241 258.572 151.048 259.059C153.216 260.454 209.804 260.443 211.783 259.779Z" fill="#EB9481"/>
<path d="M211.783 259.779C209.804 260.443 153.21 260.454 151.06 259.087C150.253 258.584 149.767 250.565 149.464 240.783C149.464 240.652 149.464 240.515 149.464 240.383C149.717 238.629 150.088 236.894 150.573 235.189H187.141L185.94 240.28C185.94 240.28 196.185 244.856 203.306 248.288C206.544 249.85 209.123 251.148 209.821 251.72C212.006 253.447 213.745 259.116 211.783 259.779Z" fill="#EBEBEB"/>
<path d="M212.418 260.094C210.404 260.775 152.787 260.706 150.596 259.311C149.749 258.79 149.275 250.399 148.983 240.234C148.983 240.126 148.983 240.023 148.983 239.914L186.163 239.542V240.177C186.163 240.177 208.202 250.067 210.456 251.857C212.709 253.648 214.431 259.431 212.418 260.094Z" fill="#F39C12"/>
<path d="M211.772 257.863C202.048 257.612 162.86 257.52 153.239 258.012C153.159 258.012 153.159 258.069 153.239 258.075C162.86 258.533 202.059 258.304 211.772 258.024C211.972 258.012 211.972 257.869 211.772 257.863Z" fill="#263238"/>
<path d="M190.293 239.668C186.466 238.947 181.793 239.531 178.853 242.248C178.738 242.356 178.893 242.511 179.013 242.476C182.668 241.302 186.438 240.521 190.259 240.148C190.315 240.141 190.366 240.114 190.405 240.073C190.444 240.032 190.467 239.979 190.471 239.922C190.475 239.866 190.46 239.81 190.427 239.763C190.395 239.717 190.347 239.683 190.293 239.668Z" fill="#263238"/>
<path d="M193.05 241.321C189.224 240.6 184.55 241.184 181.61 243.901C181.496 244.009 181.65 244.17 181.77 244.13C185.425 242.955 189.195 242.174 193.016 241.802C193.072 241.794 193.124 241.767 193.162 241.726C193.201 241.685 193.225 241.632 193.229 241.575C193.233 241.519 193.217 241.463 193.185 241.416C193.152 241.37 193.105 241.336 193.05 241.321Z" fill="#263238"/>
<path d="M195.807 242.985C191.98 242.27 187.307 242.848 184.367 245.571C184.253 245.674 184.407 245.834 184.527 245.794C188.182 244.619 191.952 243.839 195.773 243.466C195.829 243.458 195.881 243.432 195.919 243.391C195.958 243.349 195.981 243.296 195.985 243.24C195.99 243.183 195.974 243.127 195.941 243.081C195.909 243.035 195.861 243.001 195.807 242.985Z" fill="#263238"/>
<path d="M195.269 231.323C193.771 229.252 190.973 230.179 189.378 231.517C186.677 233.866 184.644 236.884 183.48 240.269C183.475 240.283 183.473 240.299 183.475 240.314C183.476 240.33 183.482 240.345 183.49 240.358C183.498 240.371 183.509 240.383 183.522 240.391C183.536 240.399 183.551 240.404 183.566 240.406C183.566 240.698 183.841 240.978 184.167 240.886C187.324 239.742 190.848 238.862 193.553 236.762C195.132 235.538 196.688 233.279 195.269 231.323ZM188.594 238.141C187.055 238.747 185.494 239.285 183.978 239.948C185.078 238.211 186.265 236.531 187.536 234.915C188.162 234.143 188.839 233.413 189.561 232.73C190.705 231.694 195.206 229.498 194.526 233.691C194.154 236.002 190.43 237.409 188.594 238.141Z" fill="#263238"/>
<path d="M173.768 239.256C176.914 240.606 180.535 240.543 183.887 240.869C183.961 240.87 184.035 240.853 184.101 240.82C184.168 240.787 184.226 240.738 184.27 240.679C184.315 240.619 184.345 240.55 184.357 240.477C184.37 240.404 184.366 240.328 184.344 240.257C184.36 240.252 184.374 240.244 184.386 240.232C184.398 240.22 184.407 240.206 184.412 240.19C184.417 240.175 184.418 240.158 184.415 240.142C184.412 240.126 184.406 240.11 184.396 240.097C182.411 237.121 179.682 234.717 176.479 233.124C174.592 232.238 171.652 232.049 170.725 234.428C169.85 236.682 171.926 238.473 173.768 239.256ZM172.052 236.533C170.336 232.644 175.25 233.633 176.628 234.343C177.501 234.818 178.34 235.354 179.139 235.944C180.777 237.186 182.35 238.511 183.852 239.914C182.217 239.657 180.575 239.536 178.933 239.342C176.948 239.096 172.99 238.673 172.041 236.533H172.052Z" fill="#263238"/>
<path d="M108.354 180.306C108.354 180.306 101.982 203.38 113.107 210.21C120.543 214.786 153.37 208.465 154.766 204.404C157.403 196.739 157.408 193.931 157.408 193.931L148.977 234.577L190.339 235.063C190.339 235.063 198.101 201.435 196.104 165.748C195.366 152.552 177.629 148.588 165.291 155.121C153.33 161.487 131.903 179.145 131.903 179.145L108.354 180.306Z" fill="#37474F"/>
<path d="M152.466 210.759C154.697 205.302 154.52 203.163 160.091 186.232C160.835 183.944 161.458 181.656 162.122 179.368C162.808 176.994 163.626 174.631 164.147 172.218C164.147 172.103 164.364 172.149 164.33 172.263C163.689 174.357 163.271 176.519 162.717 178.635C162.162 180.752 161.624 182.782 161.046 184.842C160.795 185.734 160.532 186.621 160.28 187.513L160.606 186.941C161.092 186.106 161.584 185.271 162.087 184.447C163.128 182.731 164.375 181.164 165.308 179.391C165.365 179.288 165.537 179.391 165.474 179.482C164.421 181.198 163.672 183.051 162.688 184.784C162.208 185.625 161.71 186.449 161.195 187.267C160.764 188.04 160.268 188.774 159.714 189.463C158.953 192.077 157.323 198.375 156.51 200.972C153.948 209.157 154.794 206.492 152.878 210.885C152.781 211.154 152.369 210.994 152.466 210.759Z" fill="#263238"/>
<path d="M171.308 227.862C165.079 227.793 158.867 227.439 152.638 227.324C152.524 227.324 152.507 227.135 152.638 227.135C158.844 227.101 165.039 226.855 171.245 226.929C177.452 227.004 183.686 227.313 189.91 227.501C190.064 227.501 190.093 227.753 189.91 227.753C183.709 227.787 177.515 227.925 171.308 227.862Z" fill="#263238"/>
<path d="M156.047 225.78C156.619 223.029 157.414 220.329 158.141 217.617C158.867 214.906 159.594 212.189 160.343 209.484C161.842 204.067 163.403 198.667 164.965 193.267C165.846 190.201 166.807 187.153 167.745 184.115C167.749 184.097 167.761 184.081 167.777 184.072C167.793 184.062 167.812 184.059 167.83 184.064C167.849 184.068 167.864 184.08 167.874 184.096C167.884 184.112 167.886 184.131 167.882 184.15C165.106 195.041 162.126 205.876 158.942 216.656C158.038 219.711 157.226 222.811 156.144 225.808C156.139 225.819 156.13 225.828 156.119 225.833C156.108 225.837 156.095 225.838 156.084 225.835C156.072 225.831 156.062 225.824 156.056 225.814C156.049 225.804 156.046 225.792 156.047 225.78Z" fill="#263238"/>
<path d="M113.107 210.204C101.982 203.38 108.354 180.306 108.354 180.306L128.196 179.333L155.218 203.06C155.075 203.483 154.926 203.929 154.766 204.393C153.37 208.465 120.537 214.769 113.107 210.204Z" fill="#263238"/>
<path d="M190.545 234.125C190.413 234.743 190.339 235.058 190.339 235.058L148.977 234.577L155.464 203.294L190.545 234.125Z" fill="#263238"/>
<path d="M23.6467 265.694C23.2749 267.73 29.0921 268.937 31.6547 267.862C32.4726 267.519 34.8693 265.894 37.7979 263.807C44.2272 259.231 53.1733 252.447 53.1733 252.447L83.5637 254.283L100.523 223.023C100.523 223.023 72.5698 221.41 70.6536 220.42L70.3562 220.22C61.6217 215.77 54.3402 212.332 53.5279 212.784C51.2628 214.042 24.0242 263.641 23.6467 265.694Z" fill="#EB9481"/>
<path d="M76.0132 221.227L60.0258 252.858L53.1961 252.446C53.1961 252.446 44.2557 259.213 37.8207 263.806C34.8978 265.888 32.5069 267.519 31.6832 267.862C29.092 268.937 23.2748 267.73 23.6752 265.688C24.0756 263.646 51.2627 214.042 53.4993 212.784C54.3229 212.326 61.5988 215.758 70.3218 220.22C70.4476 220.277 70.562 220.346 70.6764 220.403C71.1512 220.666 73.2161 220.946 76.0132 221.227Z" fill="#EBEBEB"/>
<path d="M23.063 266.1C23.4405 264.006 51.2511 213.545 53.5277 212.298C54.3857 211.806 61.9761 215.432 71.0194 220.071L71.3054 220.22L53.7279 252.978L53.1559 252.664C53.1559 252.664 33.8966 267.215 31.2426 268.325C28.5885 269.435 22.6797 268.182 23.063 266.1Z" fill="#F39C12"/>
<path d="M25.3339 266.603C30.2303 258.212 49.1921 223.904 53.3905 215.238C53.4249 215.169 53.3905 215.141 53.3391 215.209C48.3055 223.417 29.6239 257.88 25.1967 266.529C25.0994 266.712 25.231 266.781 25.3339 266.603Z" fill="#263238"/>
<path d="M51.6344 256.553C54.1055 253.55 55.8501 249.169 54.872 245.296C54.8319 245.148 54.6203 245.205 54.5974 245.331C53.8666 249.099 52.7353 252.779 51.2226 256.307C51.1942 256.362 51.1877 256.425 51.2044 256.484C51.2211 256.543 51.2597 256.593 51.3124 256.625C51.365 256.656 51.4277 256.666 51.4876 256.653C51.5475 256.64 51.6 256.604 51.6344 256.553Z" fill="#263238"/>
<path d="M48.8486 258.166C51.3196 255.163 53.0585 250.788 52.0861 246.915C52.0461 246.761 51.8344 246.818 51.8058 246.944C51.0777 250.713 49.9462 254.393 48.431 257.921C48.4106 257.975 48.41 258.034 48.4293 258.089C48.4486 258.144 48.4865 258.19 48.5364 258.219C48.5863 258.248 48.645 258.259 48.7021 258.25C48.7592 258.24 48.8111 258.211 48.8486 258.166Z" fill="#263238"/>
<path d="M46.0573 259.78C48.5283 256.777 50.2729 252.401 49.2948 248.528C49.2605 248.38 49.0488 248.431 49.0202 248.563C48.2913 252.33 47.1599 256.008 45.6455 259.534C45.6171 259.588 45.6105 259.651 45.6272 259.71C45.6439 259.769 45.6826 259.82 45.7352 259.851C45.7879 259.883 45.8506 259.893 45.9105 259.879C45.9704 259.866 46.0229 259.83 46.0573 259.78Z" fill="#263238"/>
<path d="M56.5364 264.927C59.0761 264.613 59.6081 261.713 59.2077 259.671C58.4487 256.175 56.7838 252.94 54.38 250.29C54.3704 250.277 54.3579 250.266 54.3435 250.259C54.3291 250.252 54.3132 250.248 54.297 250.248C54.2809 250.248 54.265 250.252 54.2506 250.259C54.2361 250.266 54.2237 250.277 54.2141 250.29C54.1504 250.251 54.0783 250.227 54.0038 250.221C53.9293 250.216 53.8545 250.227 53.7853 250.256C53.7162 250.284 53.6548 250.328 53.606 250.385C53.5573 250.442 53.5226 250.509 53.5048 250.582C53.0072 253.922 52.0519 257.4 52.6239 260.832C52.9099 262.777 54.1397 265.231 56.5364 264.927ZM53.7794 255.775C53.9853 254.134 54.2713 252.515 54.42 250.862C55.4106 252.663 56.3098 254.513 57.1141 256.405C57.4919 257.326 57.8072 258.272 58.0579 259.236C58.4126 260.729 58.1666 265.734 54.8204 263.12C52.9728 261.696 53.5334 257.755 53.7679 255.793L53.7794 255.775Z" fill="#263238"/>
<path d="M59.9399 242.259C57.2458 244.37 55.5584 247.579 53.6479 250.353C53.6113 250.418 53.5906 250.491 53.5875 250.566C53.5845 250.641 53.5992 250.715 53.6304 250.784C53.6617 250.852 53.7086 250.911 53.7673 250.958C53.826 251.004 53.8949 251.036 53.9683 251.051C53.9656 251.066 53.9665 251.082 53.9709 251.097C53.9752 251.112 53.9829 251.126 53.9934 251.137C54.0038 251.149 54.0168 251.158 54.0313 251.164C54.0458 251.17 54.0614 251.172 54.0769 251.171C57.6418 250.868 61.0643 249.634 64.0011 247.59C65.6885 246.372 67.273 243.884 65.6313 241.922C64.0641 240.069 61.5129 241.029 59.9399 242.259ZM63.1603 242.065C67.3931 242.431 64.1613 246.263 62.88 247.116C62.0416 247.65 61.1683 248.128 60.266 248.546C58.3979 249.381 56.4888 250.122 54.546 250.765C55.5641 249.461 56.4565 248.076 57.406 246.761C58.5557 245.131 60.8265 241.865 63.1603 242.065Z" fill="#263238"/>
<path d="M134.523 174.66C135.127 180.294 135.446 185.954 135.478 191.62C135.478 191.62 174.763 212.212 176.559 231.78C177.194 238.713 176.268 251.703 162.677 257.617C147.49 264.212 63.5549 259.688 63.5549 259.688L74.0397 221.044H111.06C111.06 221.044 84.9363 225.202 82.0992 207.796C79.4623 191.614 89.3979 174.677 89.3979 174.677L134.523 174.66Z" fill="#37474F"/>
<path d="M72.2264 257.766C73.1474 253.316 74.0454 248.837 75.0864 244.41C76.1275 239.983 77.22 235.55 78.364 231.151C78.6958 229.904 79.0332 228.668 79.3707 227.427C79.5309 226.855 79.691 226.243 79.8626 225.654C80.0342 225.065 80.1715 224.447 80.406 223.881C80.406 223.818 80.5033 223.881 80.4976 223.915C80.3431 225.071 80.1196 226.218 79.8283 227.347C79.5938 228.423 79.3707 229.498 79.1362 230.573C78.6557 232.781 78.1619 234.987 77.6547 237.191C76.6366 241.607 75.5154 245.983 74.3657 250.347C73.7136 252.834 73.0577 255.312 72.398 257.783C72.3752 257.972 72.1921 257.915 72.2264 257.766Z" fill="#263238"/>
<path d="M98.2812 221.026C101.279 220.809 104.282 220.712 107.29 220.649C110.299 220.586 113.302 220.62 116.311 220.678C119.319 220.735 122.322 220.889 125.32 221.158C128.322 221.383 131.306 221.815 134.249 222.451L132.012 222.159L129.776 221.947C128.277 221.822 126.784 221.696 125.285 221.627C122.294 221.455 119.297 221.335 116.294 221.284C113.291 221.232 110.293 221.158 107.29 221.118L98.2812 221.026Z" fill="#263238"/>
<path d="M97.6232 177.829C96.2815 181.272 95.117 184.781 94.1341 188.342C93.1261 191.889 92.4106 195.513 91.9948 199.176C91.7938 200.998 91.7555 202.833 91.8804 204.662C91.9712 206.47 92.4244 208.242 93.2131 209.873C93.6133 210.663 94.1563 211.373 94.8147 211.966C95.4928 212.558 96.2309 213.078 97.0169 213.516C98.6207 214.377 100.315 215.058 102.068 215.547C105.62 216.492 109.243 217.148 112.901 217.509C116.562 217.938 120.246 218.235 123.93 218.607C127.633 218.924 131.311 219.497 134.935 220.323C136.777 220.737 138.556 221.393 140.226 222.273C141.869 223.184 143.405 224.278 144.802 225.534L145.631 226.272H144.487L114.554 225.871L99.5852 225.751C94.5974 225.751 89.6095 225.723 84.616 225.854C89.6038 225.568 94.5917 225.488 99.5852 225.397C104.579 225.305 109.567 225.299 114.554 225.288H129.529L144.499 225.425L144.207 226.152C142.85 224.948 141.361 223.903 139.768 223.034C138.159 222.195 136.445 221.574 134.672 221.187C131.088 220.398 127.458 219.837 123.804 219.505C120.137 219.11 116.453 218.796 112.77 218.361C109.07 217.976 105.406 217.293 101.816 216.319C100.006 215.81 98.2623 215.088 96.6222 214.168C95.8038 213.692 95.037 213.132 94.3342 212.498C93.6287 211.845 93.0474 211.07 92.6182 210.21C91.8131 208.493 91.3599 206.631 91.2855 204.736C91.1841 202.873 91.2492 201.005 91.48 199.153C91.9541 195.469 92.7465 191.833 93.8481 188.285C94.9062 184.731 96.1666 181.24 97.6232 177.829Z" fill="#263238"/>
<path d="M130.239 174.254C130.239 174.234 130.246 174.215 130.26 174.202C130.274 174.188 130.293 174.18 130.313 174.18C130.333 174.18 130.352 174.188 130.366 174.202C130.379 174.215 130.387 174.234 130.387 174.254C130.542 175.593 131.011 183.234 131.245 186.112C131.325 187.141 131.245 188.972 132.767 188.972C133.951 188.972 134.54 187.685 134.672 186.684C134.832 185.46 134.174 176.588 134.025 173.636C134.025 173.551 134.157 173.545 134.168 173.636C134.712 176.594 135.77 186.009 135.455 187.33C135.209 188.36 134.677 189.343 133.625 189.692C133.714 190.855 133.697 192.023 133.573 193.182C133.573 193.279 133.264 193.302 133.242 193.227C133.293 192.535 132.927 189.853 132.938 189.841C132.573 189.873 132.205 189.81 131.871 189.658C131.538 189.505 131.249 189.269 131.034 188.972C129.987 187.559 130.216 177.658 130.239 174.254Z" fill="#263238"/>
<path d="M125.994 196.922C127.07 196.185 128.174 195.515 129.289 194.852C130.405 194.188 131.537 193.571 132.681 192.959C133.825 192.346 134.969 191.769 136.165 191.243C137.36 190.716 138.527 190.173 139.757 189.744C139.185 190.081 138.613 190.385 138.041 190.716L136.325 191.66C135.181 192.295 134.037 192.901 132.893 193.508C131.749 194.114 130.605 194.709 129.461 195.275L127.745 196.127C127.178 196.385 126.595 196.671 125.994 196.922Z" fill="#263238"/>
<path d="M98.1151 190.779C100.197 190.779 106.695 191.151 109.795 188.537C112.301 186.421 113.399 179.19 113.834 177.206C113.834 177.108 114 177.143 114 177.234C114.049 179.475 113.766 181.712 113.159 183.869C112.655 185.7 111.98 187.742 110.499 189.017C109.017 190.293 106.827 190.842 104.836 191.088C102.599 191.349 100.338 191.319 98.1094 190.997C98.0867 190.988 98.0671 190.973 98.0535 190.953C98.0399 190.934 98.0329 190.91 98.0335 190.886C98.0341 190.862 98.0424 190.838 98.057 190.819C98.0717 190.8 98.092 190.786 98.1151 190.779Z" fill="#263238"/>
<path d="M133.019 135.284C139.614 145.088 148.771 162.94 158.976 164.885C168.7 166.738 186.278 145.282 191.334 138.075C193.17 135.467 173.905 122.843 171.491 125.016C166.944 129.112 158.152 140.769 156.619 140.569C155.086 140.369 149.286 135.364 137.171 126.589C129.844 121.264 125.594 124.233 133.019 135.284Z" fill="#EB9481"/>
<path d="M189.526 140.226C191.643 138.584 200.698 130.199 202.682 127.299C204.667 124.399 209.821 115.653 207.756 113.897C205.691 112.141 203.981 114.583 203.981 114.583C203.981 114.583 205.571 110.545 203.329 108.966C201.087 107.387 198.558 111.254 198.558 111.254C198.558 111.254 199.885 106.987 197.54 105.574C195.195 104.161 193.302 108.497 193.302 108.497C193.302 108.497 194.692 104.647 192.272 104.298C189.361 103.875 187.587 111.254 185.145 114.286C184.573 114.978 172.898 127.442 172.898 127.442L189.526 140.226Z" fill="#EB9481"/>
<path d="M193.479 108.148C192.169 113.576 190.654 115.721 186.707 119.542C186.632 119.617 186.707 119.748 186.815 119.679C191.014 116.287 193.302 113.868 193.748 108.199C193.771 107.925 193.542 107.891 193.479 108.148Z" fill="#263238"/>
<path d="M198.667 110.842C196.808 116.356 195.189 118.701 191.351 123.009C191.294 123.071 191.397 123.169 191.454 123.111C195.573 119.199 197.798 116.734 198.93 110.979C198.982 110.722 198.753 110.59 198.667 110.842Z" fill="#263238"/>
<path d="M203.792 114.795C201.607 120.006 199.943 122.648 195.681 126.355C195.659 126.371 195.645 126.396 195.641 126.424C195.637 126.451 195.645 126.479 195.661 126.501C195.678 126.523 195.703 126.537 195.73 126.541C195.757 126.545 195.785 126.537 195.807 126.521C200.52 123.163 202.625 119.88 203.941 114.88C204.033 114.537 203.93 114.469 203.792 114.795Z" fill="#263238"/>
<path d="M169.249 128.563C169.249 128.563 170.284 121.647 171.411 118.707C172.538 115.767 180.752 106.392 182.897 108.028C185.648 110.173 181.965 116.539 179.757 119.416C179.757 119.416 186.129 124.376 184.476 129.512C182.823 134.649 169.249 128.563 169.249 128.563Z" fill="#EB9481"/>
<path d="M183.458 108.869C184.556 112.632 181.41 116.23 179.454 119.165C179.423 119.207 179.403 119.257 179.396 119.308C179.389 119.36 179.394 119.413 179.411 119.462C179.429 119.512 179.458 119.556 179.496 119.592C179.534 119.628 179.58 119.654 179.631 119.668C182.165 121.922 185.076 125.84 184.647 129.392C184.643 129.413 184.647 129.436 184.659 129.454C184.67 129.472 184.689 129.485 184.71 129.489C184.731 129.494 184.754 129.49 184.772 129.478C184.79 129.466 184.803 129.448 184.807 129.426C185.786 125.68 183.234 121.596 180.306 119.302C182.336 116.305 185.334 112.558 183.469 108.84C183.48 108.834 183.452 108.84 183.458 108.869Z" fill="#263238"/>
<path d="M166.452 127.516L186.472 146.135C186.472 146.135 167.116 169.06 159.016 167.024C149.715 164.69 137.046 147.256 130.359 131.669C125.731 120.886 132.756 120.858 138.905 126.132C145.317 131.623 156.362 139.516 157.083 139.288C157.804 139.059 166.452 127.516 166.452 127.516Z" fill="#F39C12"/>
<path d="M140.786 127.687C140.638 127.833 140.523 128.009 140.449 128.202C140.318 128.481 140.29 128.797 140.369 129.095C140.414 129.375 140.449 129.638 140.512 129.901C140.584 129.636 140.641 129.367 140.683 129.095C140.707 128.857 140.785 128.628 140.912 128.425C141.004 128.287 141.12 128.167 141.255 128.071L140.786 127.687ZM128.934 126.835C128.938 126.85 128.938 126.866 128.934 126.881L128.986 126.795L128.934 126.835ZM171.377 153.296C171.141 153.269 170.914 153.189 170.713 153.061C170.53 152.945 170.38 152.782 170.28 152.589C170.179 152.396 170.131 152.18 170.141 151.963C170.129 151.632 170.02 151.311 169.83 151.04C169.639 150.769 169.373 150.559 169.066 150.436C168.772 150.356 168.462 150.356 168.168 150.436C167.888 150.474 167.611 150.53 167.338 150.602C167.619 150.67 167.882 150.699 168.168 150.756C168.408 150.775 168.64 150.848 168.848 150.968C169.032 151.079 169.185 151.235 169.292 151.421C169.399 151.607 169.457 151.817 169.461 152.032C169.46 152.361 169.557 152.682 169.739 152.956C169.922 153.23 170.181 153.444 170.484 153.57C170.767 153.692 171.08 153.726 171.382 153.668C171.663 153.605 171.954 153.57 172.195 153.502C171.927 153.415 171.654 153.346 171.377 153.296ZM146.741 141.661C146.5 141.639 146.267 141.562 146.06 141.438C145.88 141.318 145.733 141.155 145.633 140.963C145.533 140.771 145.483 140.557 145.488 140.34C145.482 140.007 145.376 139.684 145.185 139.411C144.993 139.139 144.724 138.931 144.413 138.813C144.124 138.712 143.814 138.691 143.515 138.75C143.234 138.813 142.943 138.847 142.702 138.916C142.969 138.987 143.241 139.041 143.515 139.076C143.756 139.093 143.989 139.168 144.195 139.293C144.383 139.402 144.54 139.557 144.651 139.743C144.762 139.929 144.823 140.141 144.83 140.357C144.824 140.69 144.919 141.018 145.103 141.296C145.286 141.574 145.551 141.789 145.86 141.913C146.147 142.033 146.464 142.063 146.769 141.999C147.041 141.966 147.31 141.919 147.576 141.856C147.273 141.77 147.004 141.736 146.741 141.679V141.661ZM180.083 139.945C180.047 139.672 179.993 139.4 179.922 139.133C179.859 139.379 179.825 139.619 179.768 139.877V139.945C179.755 140.185 179.687 140.418 179.568 140.626C179.46 140.812 179.306 140.966 179.121 141.074C178.935 141.181 178.724 141.238 178.51 141.238C178.179 141.241 177.856 141.34 177.579 141.523C177.303 141.706 177.086 141.964 176.954 142.268C176.846 142.554 176.818 142.865 176.874 143.166C176.91 143.443 176.964 143.718 177.034 143.989C177.108 143.719 177.164 143.444 177.2 143.166C177.22 142.926 177.301 142.696 177.434 142.497C177.55 142.313 177.712 142.164 177.904 142.064C178.095 141.963 178.31 141.915 178.527 141.925C178.858 141.912 179.178 141.804 179.449 141.613C179.721 141.422 179.93 141.157 180.054 140.849C180.129 140.643 180.157 140.422 180.134 140.203C180.122 140.129 180.105 140.057 180.083 139.985V139.945ZM154.148 150.207C154.113 149.933 154.06 149.662 153.988 149.395C153.925 149.658 153.885 149.921 153.822 150.207C153.807 150.446 153.738 150.679 153.622 150.888C153.512 151.073 153.356 151.226 153.17 151.333C152.984 151.44 152.773 151.498 152.558 151.5C152.228 151.503 151.905 151.601 151.629 151.782C151.353 151.964 151.135 152.221 151.002 152.524C150.896 152.811 150.868 153.121 150.922 153.422C150.959 153.701 151.012 153.978 151.082 154.251C151.156 153.978 151.213 153.701 151.254 153.422C151.273 153.185 151.352 152.957 151.483 152.758C151.599 152.576 151.761 152.427 151.953 152.327C152.144 152.227 152.359 152.178 152.575 152.186C152.906 152.174 153.227 152.065 153.498 151.875C153.769 151.684 153.979 151.418 154.102 151.111C154.198 150.833 154.214 150.534 154.148 150.247V150.207ZM164.187 161.647C164.012 161.807 163.796 161.914 163.563 161.956C163.353 162.007 163.132 162.001 162.925 161.938C162.717 161.874 162.531 161.756 162.385 161.596C162.141 161.371 161.837 161.222 161.511 161.166C161.184 161.11 160.848 161.15 160.543 161.281C160.266 161.403 160.03 161.601 159.862 161.853C159.714 162.088 159.531 162.305 159.399 162.551C159.645 162.402 159.862 162.231 160.097 162.088C160.274 161.924 160.491 161.809 160.726 161.756C160.933 161.697 161.152 161.693 161.361 161.746C161.569 161.798 161.761 161.904 161.916 162.053C162.144 162.291 162.439 162.454 162.761 162.521C163.084 162.589 163.419 162.557 163.723 162.431C164.012 162.314 164.261 162.115 164.438 161.859C164.587 161.63 164.753 161.413 164.885 161.161C164.639 161.361 164.421 161.521 164.164 161.676L164.187 161.647ZM165.903 138.493C165.725 138.652 165.508 138.76 165.273 138.807C165.062 138.855 164.842 138.847 164.635 138.783C164.428 138.718 164.242 138.6 164.095 138.441C163.854 138.213 163.551 138.062 163.224 138.007C162.897 137.952 162.561 137.996 162.259 138.132C161.98 138.254 161.742 138.452 161.573 138.704C161.43 138.933 161.247 139.15 161.109 139.402C161.361 139.248 161.573 139.082 161.807 138.933C161.985 138.768 162.205 138.656 162.442 138.607C162.649 138.548 162.868 138.545 163.077 138.597C163.285 138.649 163.477 138.755 163.632 138.904C163.799 139.08 164.002 139.216 164.228 139.302C164.454 139.389 164.697 139.424 164.938 139.404C165.179 139.385 165.413 139.312 165.623 139.191C165.832 139.07 166.012 138.904 166.149 138.704C166.303 138.47 166.463 138.252 166.601 138.006C166.343 138.207 166.131 138.367 165.88 138.521L165.903 138.493Z" fill="white"/>
<path d="M180.603 149.864C177.709 147.302 166.252 136.399 163.935 133.877C163.775 133.699 163.849 133.556 164.038 133.717C172.893 141.153 177.989 147.09 180.701 149.733C180.752 149.79 180.678 149.904 180.603 149.864Z" fill="#263238"/>
<path opacity="0.1" d="M157.683 166.589C148.531 163.031 136.754 146.518 130.382 131.697C127.836 125.76 128.82 123.083 131.245 122.757C139.15 134.878 149.561 152.724 157.683 166.589Z" fill="#000102"/>
<path d="M82.2363 185.208L137.411 191.18C137.103 192.215 142.874 157.975 138.424 128.586C137.503 122.494 127.722 120.984 123.06 123.283C102.634 133.362 82.3107 184.756 82.2363 185.208Z" fill="#F39C12"/>
<path d="M127.779 173.253C127.59 173.407 127.366 173.513 127.127 173.562C126.917 173.606 126.699 173.596 126.494 173.533C126.289 173.47 126.104 173.356 125.954 173.201C125.717 172.966 125.413 172.808 125.084 172.751C124.754 172.694 124.415 172.739 124.113 172.881C123.836 173.017 123.601 173.224 123.432 173.482C123.283 173.699 123.123 173.911 122.969 174.157C123.211 174.02 123.445 173.867 123.666 173.699C123.858 173.555 124.07 173.441 124.296 173.362C124.506 173.311 124.725 173.313 124.934 173.369C125.143 173.425 125.335 173.533 125.491 173.682C125.721 173.916 126.016 174.077 126.338 174.144C126.659 174.212 126.994 174.182 127.299 174.059C127.586 173.942 127.832 173.743 128.008 173.487C128.157 173.259 128.322 173.041 128.454 172.79C128.22 172.931 127.995 173.086 127.779 173.253ZM92.5153 176.25C92.3405 176.414 92.1219 176.523 91.8861 176.565C91.6746 176.616 91.4535 176.61 91.2448 176.549C91.0361 176.488 90.847 176.373 90.6963 176.216C90.4602 175.985 90.1602 175.829 89.8349 175.77C89.5096 175.711 89.1741 175.751 88.8716 175.884C88.6007 176.015 88.3667 176.212 88.191 176.456C88.0203 176.679 87.8637 176.912 87.7219 177.154C87.9656 177.017 88.1989 176.862 88.4198 176.691C88.599 176.53 88.8151 176.416 89.049 176.359C89.2559 176.307 89.4728 176.308 89.679 176.363C89.8852 176.418 90.074 176.525 90.2273 176.674C90.3931 176.851 90.5967 176.989 90.8232 177.078C91.0496 177.166 91.293 177.202 91.5353 177.183C91.7776 177.165 92.0126 177.092 92.2229 176.97C92.4331 176.848 92.6132 176.68 92.7498 176.479C92.8928 176.245 93.0816 176.027 93.2131 175.781C92.9672 175.936 92.7498 176.102 92.5153 176.25ZM108.583 150.156C108.405 150.315 108.188 150.423 107.954 150.47C107.743 150.518 107.523 150.51 107.317 150.447C107.11 150.383 106.923 150.267 106.775 150.11C106.535 149.882 106.232 149.73 105.905 149.674C105.578 149.618 105.242 149.66 104.939 149.795C104.662 149.917 104.426 150.116 104.258 150.367C104.11 150.596 103.927 150.813 103.789 151.065C104.041 150.911 104.258 150.745 104.487 150.596C104.665 150.431 104.885 150.319 105.122 150.27C105.329 150.211 105.548 150.208 105.757 150.26C105.966 150.312 106.157 150.418 106.312 150.567C106.541 150.804 106.835 150.967 107.158 151.034C107.48 151.102 107.815 151.071 108.119 150.945C108.405 150.823 108.652 150.625 108.834 150.373C108.983 150.138 109.143 149.921 109.281 149.675C109.035 149.864 108.817 150.007 108.583 150.156ZM128.294 127.276C128.112 127.433 127.894 127.541 127.659 127.59C127.449 127.639 127.23 127.632 127.024 127.568C126.818 127.505 126.632 127.388 126.486 127.23C126.243 127.005 125.939 126.856 125.612 126.8C125.285 126.744 124.949 126.784 124.645 126.915C124.369 127.039 124.133 127.237 123.964 127.487C123.815 127.722 123.632 127.939 123.501 128.185C123.746 128.036 123.964 127.87 124.198 127.722C124.375 127.56 124.589 127.446 124.822 127.39C125.03 127.331 125.25 127.327 125.459 127.379C125.669 127.431 125.861 127.538 126.017 127.687C126.185 127.862 126.39 127.997 126.616 128.083C126.842 128.169 127.085 128.204 127.326 128.184C127.567 128.165 127.801 128.093 128.011 127.972C128.221 127.852 128.402 127.686 128.54 127.487C128.694 127.253 128.854 127.041 128.992 126.789C128.74 126.95 128.523 127.115 128.294 127.258V127.276ZM131.223 142.434C131.16 142.165 131.125 141.902 131.057 141.621C130.977 141.902 130.942 142.165 130.891 142.434C130.872 142.679 130.8 142.917 130.679 143.131C130.57 143.317 130.415 143.471 130.228 143.578C130.042 143.685 129.83 143.742 129.615 143.744C129.285 143.741 128.962 143.838 128.688 144.022C128.413 144.205 128.2 144.467 128.077 144.773C127.946 145.052 127.918 145.368 127.996 145.665C128.042 145.946 128.077 146.237 128.139 146.478C128.213 146.211 128.268 145.94 128.305 145.665C128.334 145.43 128.414 145.203 128.54 145.002C128.656 144.82 128.818 144.671 129.01 144.571C129.202 144.47 129.416 144.422 129.632 144.43C129.964 144.417 130.285 144.308 130.556 144.116C130.827 143.924 131.037 143.657 131.16 143.349C131.255 143.052 131.277 142.735 131.223 142.428V142.434ZM106.964 162.574C106.926 162.3 106.873 162.029 106.804 161.761C106.735 162.025 106.701 162.293 106.632 162.574C106.619 162.813 106.551 163.046 106.432 163.254C106.325 163.44 106.171 163.595 105.985 163.702C105.799 163.809 105.588 163.866 105.374 163.866C105.043 163.87 104.72 163.969 104.444 164.151C104.168 164.334 103.95 164.593 103.818 164.896C103.71 165.182 103.68 165.492 103.732 165.794C103.774 166.071 103.829 166.346 103.898 166.618C103.973 166.347 104.028 166.072 104.064 165.794C104.084 165.555 104.165 165.324 104.298 165.125C104.414 164.942 104.576 164.792 104.768 164.692C104.96 164.592 105.175 164.544 105.391 164.553C105.721 164.539 106.041 164.43 106.31 164.24C106.58 164.049 106.789 163.784 106.913 163.477C107.015 163.187 107.033 162.874 106.964 162.574ZM138.996 158.656C138.809 158.811 138.593 158.93 138.361 159.004C138.151 159.055 137.931 159.052 137.723 158.996C137.514 158.94 137.322 158.833 137.166 158.684C136.935 158.452 136.641 158.293 136.321 158.226C136.001 158.159 135.668 158.187 135.364 158.307C135.075 158.421 134.828 158.62 134.655 158.879C134.5 159.113 134.334 159.331 134.185 159.576C134.437 159.428 134.655 159.262 134.883 159.113C135.068 158.965 135.283 158.858 135.513 158.799C135.726 158.757 135.946 158.769 136.155 158.831C136.363 158.894 136.553 159.007 136.708 159.159C136.949 159.389 137.252 159.542 137.58 159.599C137.908 159.656 138.246 159.614 138.55 159.479C138.825 159.341 139.059 159.134 139.231 158.879C139.374 158.65 139.545 158.438 139.671 158.186C139.454 158.341 139.242 158.507 138.996 158.656ZM121.836 159.193C121.602 159.17 121.375 159.096 121.172 158.976C120.991 158.859 120.842 158.697 120.742 158.505C120.642 158.314 120.593 158.099 120.6 157.883C120.587 157.551 120.478 157.23 120.286 156.959C120.095 156.688 119.828 156.479 119.519 156.356C119.233 156.246 118.92 156.224 118.621 156.293C118.341 156.356 118.078 156.39 117.798 156.453C118.068 156.53 118.343 156.587 118.621 156.625C118.863 156.637 119.098 156.705 119.308 156.825C119.495 156.93 119.653 157.081 119.765 157.265C119.877 157.448 119.94 157.657 119.948 157.872C119.952 158.203 120.051 158.526 120.233 158.802C120.416 159.078 120.675 159.295 120.978 159.428C121.263 159.543 121.575 159.573 121.876 159.514C122.156 159.462 122.448 159.428 122.705 159.348C122.408 159.29 122.156 159.256 121.876 159.193H121.836ZM110.322 180.632C110.081 180.609 109.848 180.533 109.641 180.409C109.461 180.288 109.315 180.124 109.215 179.933C109.115 179.741 109.065 179.527 109.069 179.31C109.067 179.068 109.012 178.829 108.906 178.61C108.801 178.392 108.648 178.199 108.46 178.047C108.271 177.895 108.05 177.787 107.814 177.73C107.578 177.674 107.333 177.67 107.096 177.72C106.815 177.783 106.552 177.818 106.283 177.886C106.55 177.957 106.822 178.011 107.096 178.046C107.336 178.064 107.57 178.138 107.776 178.264C107.965 178.371 108.122 178.526 108.234 178.712C108.345 178.899 108.406 179.111 108.411 179.328C108.406 179.656 108.5 179.979 108.68 180.253C108.861 180.527 109.12 180.741 109.424 180.866C109.711 180.987 110.028 181.017 110.333 180.952C110.607 180.911 110.878 180.856 111.145 180.786C110.888 180.752 110.625 180.689 110.362 180.632H110.322ZM128.431 189.784C128.191 189.76 127.959 189.68 127.756 189.549C127.575 189.43 127.427 189.267 127.327 189.075C127.227 188.882 127.178 188.668 127.184 188.451C127.179 188.118 127.074 187.795 126.882 187.524C126.69 187.252 126.421 187.045 126.109 186.929C125.821 186.834 125.513 186.816 125.217 186.878C124.953 186.929 124.673 186.964 124.404 187.032C124.672 187.102 124.943 187.155 125.217 187.193C125.454 187.217 125.684 187.291 125.891 187.41C126.079 187.517 126.236 187.671 126.348 187.856C126.459 188.041 126.52 188.252 126.526 188.468C126.519 188.798 126.612 189.122 126.793 189.398C126.974 189.673 127.234 189.888 127.539 190.013C127.687 190.079 127.846 190.12 128.008 190.133C128.154 190.15 128.302 190.15 128.448 190.133C128.711 190.064 128.975 190.03 129.266 189.961C128.997 189.904 128.734 189.864 128.471 189.812L128.431 189.784ZM117.42 139.276C117.182 139.251 116.953 139.17 116.751 139.042C116.567 138.925 116.418 138.762 116.317 138.569C116.217 138.377 116.169 138.161 116.179 137.943C116.165 137.613 116.056 137.294 115.866 137.024C115.675 136.754 115.41 136.545 115.104 136.422C114.814 136.325 114.504 136.307 114.206 136.37C113.925 136.422 113.662 136.456 113.376 136.536C113.662 136.605 113.948 136.634 114.206 136.691C114.445 136.713 114.677 136.785 114.886 136.902C115.07 137.014 115.222 137.169 115.329 137.355C115.436 137.542 115.494 137.752 115.498 137.966C115.499 138.297 115.597 138.619 115.78 138.894C115.963 139.169 116.223 139.383 116.528 139.511C116.812 139.627 117.123 139.66 117.426 139.608C117.706 139.539 117.998 139.511 118.238 139.436C117.982 139.376 117.722 139.333 117.46 139.305L117.42 139.276Z" fill="white"/>
<path d="M115.773 129.97C102.085 146.621 86.1946 179.734 90.3244 185.934C94.9004 192.838 113.811 170.261 113.616 169.02C113.468 168.076 119.085 147.856 123.397 133.162C127.71 118.467 119.159 125.84 115.773 129.97Z" fill="#EB9481"/>
<path d="M113.759 169.026C114.211 166.881 121.922 140.214 124.055 131.812C126.189 123.409 123.294 121.127 115.767 129.335C108.239 137.543 92.8126 162.82 89.9068 176.416C87.1097 189.515 93.3674 190.19 101.49 183.532C108.148 178.081 113.759 169.026 113.759 169.026Z" fill="#F39C12"/>
<path d="M117.46 139.305C117.222 139.279 116.993 139.199 116.791 139.07C116.607 138.954 116.458 138.791 116.357 138.598C116.257 138.405 116.209 138.189 116.219 137.972C116.205 137.642 116.097 137.323 115.906 137.053C115.715 136.783 115.45 136.574 115.144 136.45C114.854 136.354 114.544 136.336 114.246 136.399C113.965 136.45 113.702 136.485 113.416 136.565C113.702 136.634 113.988 136.662 114.246 136.719C114.485 136.741 114.717 136.814 114.926 136.931C115.11 137.042 115.262 137.198 115.369 137.384C115.476 137.57 115.535 137.78 115.538 137.995C115.539 138.325 115.637 138.648 115.82 138.923C116.003 139.197 116.263 139.412 116.568 139.539C116.852 139.655 117.163 139.689 117.466 139.637C117.746 139.568 118.038 139.539 118.278 139.465C118.009 139.394 117.736 139.34 117.46 139.305ZM107.124 177.72C106.844 177.783 106.581 177.818 106.312 177.886C106.554 177.953 106.801 178.002 107.05 178.035L107.342 177.692C107.268 177.695 107.196 177.704 107.124 177.72ZM106.964 162.574C106.926 162.3 106.873 162.029 106.804 161.761C106.735 162.025 106.701 162.293 106.632 162.574C106.619 162.813 106.551 163.046 106.432 163.254C106.325 163.44 106.171 163.595 105.985 163.702C105.799 163.809 105.588 163.866 105.374 163.866C105.043 163.87 104.72 163.969 104.444 164.151C104.168 164.334 103.95 164.593 103.818 164.896C103.71 165.182 103.68 165.492 103.732 165.794C103.774 166.071 103.829 166.346 103.898 166.618C103.973 166.347 104.028 166.072 104.064 165.794C104.084 165.555 104.165 165.324 104.299 165.125C104.414 164.942 104.576 164.792 104.768 164.692C104.96 164.592 105.175 164.544 105.391 164.553C105.721 164.539 106.041 164.43 106.31 164.24C106.58 164.049 106.789 163.784 106.913 163.477C107.015 163.187 107.033 162.874 106.964 162.574ZM124.725 126.864L124.639 126.898C124.363 127.021 124.127 127.22 123.958 127.47C123.809 127.705 123.626 127.922 123.495 128.168C123.741 128.019 123.958 127.853 124.193 127.705C124.347 127.564 124.531 127.459 124.73 127.396C124.741 127.219 124.741 127.041 124.73 126.864H124.725ZM108.577 150.156C108.399 150.315 108.182 150.423 107.948 150.47C107.737 150.518 107.517 150.51 107.311 150.447C107.104 150.383 106.918 150.267 106.77 150.11C106.529 149.882 106.226 149.73 105.899 149.674C105.572 149.618 105.236 149.66 104.933 149.795C104.657 149.917 104.42 150.116 104.253 150.367C104.104 150.596 103.921 150.813 103.784 151.065C104.035 150.911 104.253 150.745 104.482 150.596C104.659 150.431 104.879 150.319 105.116 150.27C105.323 150.211 105.542 150.208 105.751 150.26C105.96 150.312 106.151 150.418 106.306 150.567C106.535 150.804 106.83 150.967 107.152 151.034C107.474 151.102 107.809 151.071 108.114 150.945C108.399 150.823 108.647 150.625 108.829 150.373C108.977 150.138 109.138 149.921 109.275 149.675C109.035 149.864 108.817 150.007 108.583 150.156H108.577ZM92.5096 176.25C92.3348 176.414 92.1162 176.523 91.8804 176.565C91.6689 176.616 91.4478 176.61 91.2391 176.549C91.0304 176.488 90.8413 176.373 90.6906 176.216C90.5079 176.036 90.2841 175.902 90.0385 175.827C89.9928 176.027 89.947 176.222 89.907 176.399C89.907 176.399 89.907 176.439 89.907 176.456C90.0305 176.506 90.1418 176.582 90.233 176.679C90.3988 176.857 90.6025 176.995 90.8289 177.083C91.0554 177.172 91.2988 177.208 91.5411 177.189C91.7834 177.17 92.0184 177.097 92.2286 176.975C92.4389 176.853 92.619 176.686 92.7555 176.485C92.8985 176.25 93.0873 176.033 93.2189 175.787C92.9672 175.936 92.7498 176.102 92.5153 176.25H92.5096Z" fill="white"/>
<path d="M112.775 172.475C113.427 169.792 114.12 167.121 114.823 164.467C115.527 161.813 116.253 159.142 116.968 156.459L119.205 148.491L120.349 144.487C120.743 143.166 121.132 141.839 121.538 140.523C121.218 141.862 120.869 143.2 120.537 144.527L119.496 148.531L117.346 156.539C116.602 159.193 115.87 161.853 115.109 164.507C114.348 167.161 113.588 169.838 112.775 172.475Z" fill="#263238"/>
<path d="M119.954 146.758C120.203 146.076 120.502 145.412 120.846 144.773C121.012 144.453 121.184 144.138 121.373 143.824C121.561 143.509 121.744 143.206 121.945 142.897C121.742 143.598 121.464 144.275 121.115 144.916C120.779 145.561 120.39 146.176 119.954 146.758Z" fill="#263238"/>
<path d="M90.3758 185.9C94.151 190.785 102.794 191.54 126.984 195.086C130.336 195.578 140.872 172.452 137.326 171.743C132.853 170.851 115.309 168.357 114.005 168.34C102.96 168.168 87.7846 182.588 90.3758 185.9Z" fill="#EB9481"/>
<path d="M129.095 171.686C129.095 171.686 138.287 170.725 144.333 170.376C147.707 170.181 153.519 170.376 156.059 171.36C159.862 172.841 174.82 181.467 172.807 185.139C170.982 188.462 159.079 179.419 159.079 179.419C159.079 179.419 171.903 187.484 168.974 191.082C166.046 194.68 153.942 182.674 153.942 182.674C153.942 182.674 166.932 191.254 163.323 194.486C160.595 196.928 149.023 186.672 149.023 186.672C149.023 186.672 160.137 194.108 157.443 196.756C154.457 199.668 143.189 190.865 143.189 190.865C135.181 196.402 129.14 195.778 124.885 194.817C123.844 194.583 129.095 171.686 129.095 171.686Z" fill="#EB9481"/>
<path d="M154.818 176.348C156.356 177.24 157.923 178.132 159.394 179.156C160.864 180.18 162.253 181.267 163.626 182.422C165.428 183.897 167.052 185.577 168.465 187.427C165.714 184.333 160.555 180.563 159.102 179.551C157.649 178.538 156.242 177.429 154.795 176.399C154.737 176.376 154.777 176.325 154.818 176.348Z" fill="#263238"/>
<path d="M151.008 181.536C152.924 182.76 154.875 183.909 156.728 185.219C158.581 186.529 160.229 187.919 161.99 189.349C162.128 189.458 161.99 189.498 161.882 189.389C160.063 188.034 158.284 186.918 156.448 185.585C154.612 184.253 152.838 182.84 150.962 181.581C150.951 181.559 151.008 181.518 151.008 181.536Z" fill="#263238"/>
<path d="M146.947 185.402C149.935 187.206 152.728 189.315 155.281 191.694C155.412 191.809 155.281 191.837 155.132 191.729C152.404 189.584 150.276 187.879 146.889 185.5C146.838 185.471 146.884 185.368 146.947 185.402Z" fill="#263238"/>
<path d="M134.58 170.776L114.692 195.178C114.692 195.178 93.4705 191.231 90.0957 185.934C87.8649 182.445 102.903 167.241 115.058 168.357L134.58 170.776Z" fill="#F39C12"/>
<path d="M111.46 191.86C111.269 192.013 111.046 192.121 110.808 192.175C110.598 192.216 110.381 192.205 110.176 192.142C109.972 192.079 109.786 191.966 109.635 191.814C109.399 191.578 109.095 191.42 108.765 191.363C108.435 191.305 108.096 191.351 107.793 191.494C107.517 191.63 107.282 191.837 107.113 192.095C106.964 192.312 106.804 192.518 106.649 192.77C106.891 192.631 107.124 192.478 107.347 192.312C107.536 192.164 107.749 192.05 107.976 191.975C108.187 191.924 108.406 191.926 108.615 191.982C108.824 192.038 109.015 192.146 109.172 192.295C109.406 192.524 109.7 192.681 110.021 192.748C110.341 192.814 110.673 192.788 110.979 192.672C111.265 192.553 111.511 192.354 111.689 192.1C111.837 191.866 112.003 191.649 112.135 191.403C111.901 191.542 111.676 191.695 111.46 191.86ZM127.779 173.253C127.59 173.407 127.366 173.513 127.127 173.562C126.917 173.606 126.699 173.596 126.494 173.533C126.289 173.47 126.103 173.356 125.954 173.202C125.717 172.966 125.413 172.808 125.084 172.751C124.754 172.694 124.415 172.739 124.112 172.881C123.836 173.017 123.601 173.224 123.432 173.482C123.283 173.699 123.123 173.911 122.968 174.157C123.211 174.02 123.444 173.868 123.666 173.699C123.858 173.555 124.07 173.441 124.296 173.362C124.506 173.311 124.725 173.314 124.934 173.37C125.143 173.425 125.334 173.533 125.491 173.682C125.721 173.916 126.016 174.077 126.338 174.144C126.659 174.212 126.994 174.182 127.299 174.06C127.586 173.942 127.832 173.743 128.008 173.488C128.157 173.259 128.322 173.041 128.454 172.79C128.22 172.931 127.995 173.086 127.779 173.253ZM96.2446 188.388C96.1817 188.108 96.1474 187.816 96.0788 187.582C96.0054 187.846 95.95 188.116 95.9129 188.388C95.9009 188.632 95.826 188.868 95.6955 189.075C95.5782 189.273 95.4079 189.436 95.2036 189.544L95.8443 189.83C95.9945 189.675 96.1097 189.49 96.1817 189.286C96.2784 188.997 96.3 188.688 96.2446 188.388ZM110.362 180.632C110.121 180.609 109.888 180.533 109.681 180.409C109.501 180.288 109.355 180.124 109.255 179.933C109.155 179.741 109.105 179.527 109.109 179.311C109.107 179.068 109.052 178.829 108.946 178.61C108.841 178.392 108.688 178.199 108.499 178.047C108.311 177.895 108.09 177.787 107.854 177.73C107.618 177.674 107.373 177.67 107.136 177.72C106.855 177.783 106.592 177.818 106.323 177.886C106.59 177.957 106.862 178.011 107.136 178.046C107.376 178.064 107.61 178.138 107.816 178.264C108.005 178.371 108.162 178.526 108.274 178.712C108.385 178.899 108.446 179.111 108.451 179.328C108.446 179.656 108.54 179.979 108.72 180.253C108.901 180.527 109.16 180.741 109.464 180.866C109.751 180.987 110.068 181.017 110.373 180.952C110.647 180.911 110.918 180.856 111.185 180.786C110.888 180.752 110.625 180.689 110.362 180.632Z" fill="white"/>
<path d="M100.821 172.853C102.703 171.348 108.022 167.796 115.058 168.334C115.121 168.334 115.126 168.443 115.058 168.443C109.778 168.546 102.8 171.64 100.866 172.939C100.821 172.967 100.775 172.887 100.821 172.853Z" fill="#263238"/>
<path d="M108.76 191.54C110.802 188.737 112.993 186.049 115.189 183.366C117.386 180.683 119.582 177.995 121.847 175.358C123.129 173.871 124.404 172.378 125.737 170.937C125.771 170.902 125.84 170.937 125.811 170.994C123.769 173.791 121.59 176.491 119.411 179.179C117.231 181.867 115.018 184.562 112.781 187.216C111.523 188.714 110.23 190.196 108.897 191.632C108.834 191.712 108.68 191.62 108.76 191.54Z" fill="#263238"/>
<path d="M134.603 170.456C133.286 170.127 131.949 169.89 130.599 169.747C129.261 169.564 127.926 169.398 126.595 169.249C123.924 168.952 118.301 168.014 113.439 168.265C113.382 168.265 113.674 168.517 113.725 168.511C116.047 168.271 132.898 170.799 134.271 170.799C134.22 170.897 134.174 170.988 134.134 171.085C134.094 171.183 134.185 171.24 134.254 171.188C134.42 171.062 134.534 170.914 134.689 170.782C134.713 170.758 134.731 170.728 134.74 170.695C134.749 170.662 134.749 170.627 134.74 170.594C134.732 170.561 134.714 170.531 134.69 170.507C134.666 170.482 134.636 170.465 134.603 170.456Z" fill="#263238"/>
<path d="M107.261 140.781C102.205 149.475 85.371 177.028 90.1014 186.049C89.5657 185.154 89.2319 184.152 89.1233 183.114C88.0422 171.554 100.729 150.539 107.239 140.786L107.261 140.781Z" fill="#263238"/>
<path d="M105.711 141.787C105.236 143.149 104.767 144.47 104.161 145.791C104.371 144.357 104.9 142.989 105.711 141.787Z" fill="#263238"/>
<path d="M133.956 131.743C131.32 132.315 125.92 129.083 124.13 125.285C124.009 125.028 124.559 122.396 125.073 119.17C125.382 117.208 125.674 115.018 125.794 112.998C125.823 112.587 138.264 116.848 138.264 116.848C137.381 119.325 136.804 121.901 136.548 124.519C136.534 124.798 136.548 125.077 136.588 125.354C136.588 125.394 136.588 125.439 136.588 125.491C136.771 127.081 136.782 131.142 133.956 131.743Z" fill="#EB9481"/>
<path d="M136.605 125.354C136.605 125.394 136.605 125.445 136.605 125.491C136.173 125.525 135.739 125.525 135.306 125.491C127.87 124.873 126.475 115.43 126.24 113.044C128.465 113.502 138.252 116.86 138.252 116.86C137.37 119.339 136.793 121.917 136.536 124.536C136.533 124.81 136.556 125.084 136.605 125.354Z" fill="#263238"/>
<path d="M139.905 91.0968C140.615 91.0053 144.527 95.7243 144.91 98.1953C145.294 100.666 145.133 105.711 144.424 105.906C143.715 106.1 139.356 91.1654 139.905 91.0968Z" fill="#263238"/>
<path d="M123.088 98.5842C121.985 103.16 125.119 115.979 128.482 118.679C133.356 122.597 140.952 122.551 144.184 116.78C147.318 111.18 142.937 94.5402 139.213 92.1264C133.733 88.5685 124.696 91.8404 123.088 98.5842Z" fill="#EB9481"/>
<path d="M141.284 104.739C141.284 104.705 141.358 104.739 141.37 104.802C141.513 105.683 141.827 106.661 142.674 106.792C142.674 106.792 142.708 106.844 142.674 106.844C141.667 106.901 141.284 105.597 141.284 104.739Z" fill="#263238"/>
<path d="M141.856 103.675C143.234 103.292 143.904 106.083 142.622 106.438C141.341 106.792 140.712 103.995 141.856 103.675Z" fill="#263238"/>
<path d="M136.382 105.883C136.382 105.854 136.325 105.94 136.336 105.974C136.559 106.838 136.674 107.862 135.953 108.325C135.953 108.325 135.953 108.383 135.953 108.371C136.902 108.022 136.737 106.661 136.382 105.883Z" fill="#263238"/>
<path d="M135.404 105.156C133.985 105.368 134.517 108.188 135.827 108.016C137.137 107.845 136.594 104.979 135.404 105.156Z" fill="#263238"/>
<path d="M134.26 103.383C134.632 103.223 134.946 103.017 135.301 102.811C135.655 102.605 136.033 102.457 136.245 102.033C136.292 101.908 136.296 101.771 136.258 101.643C136.22 101.515 136.141 101.403 136.033 101.324C135.795 101.201 135.528 101.144 135.261 101.159C134.993 101.174 134.734 101.261 134.511 101.41C134.013 101.642 133.618 102.049 133.402 102.554C133.355 102.673 133.345 102.803 133.372 102.927C133.399 103.052 133.463 103.166 133.554 103.255C133.646 103.343 133.762 103.403 133.888 103.426C134.013 103.449 134.143 103.434 134.26 103.383Z" fill="#263238"/>
<path d="M142.554 101.61C142.16 101.61 141.767 101.587 141.375 101.541C140.959 101.578 140.541 101.474 140.191 101.244C140.095 101.151 140.032 101.029 140.012 100.896C139.993 100.764 140.018 100.629 140.083 100.512C140.246 100.3 140.463 100.135 140.712 100.034C140.96 99.9339 141.231 99.9012 141.496 99.9398C142.045 99.9398 142.575 100.144 142.983 100.512C143.07 100.601 143.13 100.713 143.155 100.835C143.18 100.957 143.169 101.084 143.124 101.2C143.078 101.316 143 101.416 142.899 101.489C142.798 101.562 142.678 101.604 142.554 101.61Z" fill="#263238"/>
<path d="M137.028 113.931C137.257 114.12 137.492 114.389 137.812 114.394C138.142 114.361 138.461 114.26 138.75 114.097C138.75 114.097 138.807 114.097 138.79 114.137C138.677 114.322 138.517 114.472 138.326 114.573C138.134 114.674 137.919 114.721 137.703 114.709C137.518 114.675 137.348 114.588 137.212 114.457C137.077 114.327 136.983 114.16 136.942 113.977C136.925 113.925 136.994 113.902 137.028 113.931Z" fill="#263238"/>
<path d="M137.389 111.06C137.677 111.361 138.026 111.599 138.412 111.759C138.798 111.918 139.213 111.996 139.631 111.986C139.997 111.987 140.362 111.933 140.712 111.826L140.912 111.763L141.095 111.695C141.139 111.676 141.176 111.643 141.201 111.602C141.225 111.561 141.236 111.513 141.232 111.466C141.235 111.435 141.235 111.405 141.232 111.374V111.3C141.118 110.625 140.849 109.618 140.849 109.618C141.118 109.693 142.479 110.007 142.394 109.658C141.644 106.798 140.809 103.595 139.459 100.901C139.456 100.891 139.45 100.881 139.443 100.873C139.436 100.865 139.428 100.859 139.418 100.854C139.409 100.849 139.398 100.846 139.388 100.845C139.377 100.845 139.366 100.846 139.356 100.849C139.346 100.853 139.337 100.858 139.329 100.865C139.321 100.872 139.314 100.881 139.309 100.89C139.304 100.9 139.302 100.91 139.301 100.921C139.3 100.932 139.301 100.942 139.305 100.952C139.911 103.738 141.021 106.398 141.667 109.189C141.183 109.07 140.684 109.02 140.186 109.04C140.094 109.086 140.758 110.98 140.758 111.288V111.323C139.659 111.689 138.738 111.517 137.497 110.98C137.383 110.928 137.326 111.002 137.389 111.06Z" fill="#263238"/>
<path d="M140.294 111.729C140.005 112.25 139.587 112.689 139.082 113.004C138.801 113.167 138.477 113.237 138.155 113.205C137.451 113.13 137.337 112.507 137.383 111.958C137.408 111.666 137.468 111.378 137.56 111.1C138.382 111.594 139.339 111.815 140.294 111.729Z" fill="#263238"/>
<path d="M139.082 113.004C138.801 113.167 138.477 113.237 138.155 113.205C137.451 113.13 137.337 112.507 137.383 111.958C137.743 111.915 138.106 111.995 138.414 112.185C138.723 112.375 138.958 112.664 139.082 113.004Z" fill="#FF9BBC"/>
<path d="M125.731 109.955C128.019 109.652 128.563 106.912 128.551 103.246C128.551 101.107 127.093 97.1599 127.093 97.1599C127.093 97.1599 133.43 98.5613 136.617 97.5488C139.803 96.5364 141.953 93.1101 141.233 90.5933C140.615 88.4311 136.29 86.412 131.388 87.2929C127.956 87.9106 122.854 91.9089 121.15 96.1131C121.15 96.1131 117.34 99.1104 118.696 102.188C120.051 105.265 123.129 110.299 125.731 109.955Z" fill="#263238"/>
<path d="M125.84 109.664C128.934 109.629 129.501 104.83 129.055 102.491C128.591 100.066 127.115 97.8347 126.195 95.5811C127.836 98.2065 129.724 101.576 129.421 104.779C129.232 106.792 128.551 110.207 125.846 109.847C125.737 109.824 125.731 109.664 125.84 109.664Z" fill="#263238"/>
<path d="M117.832 101.358C117.803 99.2821 119.628 96.8168 121.418 95.9302C119.336 97.2629 117.294 100.472 118.558 102.851C119.576 104.762 121.155 107.216 122.9 108.52C122.946 108.554 122.9 108.617 122.848 108.589C121.516 107.742 120.72 106.426 119.834 105.157C119.09 104.07 117.832 102.794 117.832 101.358Z" fill="#263238"/>
<path d="M120.784 96.5135C122.591 92.0748 127.39 86.4234 132.584 86.4978C127.173 86.8753 123.432 92.3837 120.995 96.6108C120.921 96.7538 120.732 96.6336 120.784 96.5135Z" fill="#263238"/>
<path d="M127.413 109.103C127.413 109.103 124.158 105.151 122.339 106.346C120.52 107.542 123.203 113.433 125.503 114.085C125.791 114.187 126.097 114.23 126.403 114.211C126.708 114.193 127.007 114.113 127.281 113.977C127.555 113.841 127.799 113.652 127.999 113.42C128.198 113.188 128.349 112.918 128.443 112.627L127.413 109.103Z" fill="#EB9481"/>
<path d="M123.151 108.016C123.144 108.016 123.137 108.019 123.131 108.025C123.126 108.03 123.123 108.037 123.123 108.045C123.123 108.053 123.126 108.06 123.131 108.065C123.137 108.071 123.144 108.074 123.151 108.074C124.764 108.583 125.703 109.967 126.395 111.425C126.291 111.277 126.157 111.152 126.001 111.06C125.844 110.968 125.67 110.911 125.49 110.892C125.309 110.874 125.127 110.894 124.956 110.953C124.784 111.011 124.627 111.106 124.496 111.231C124.456 111.265 124.496 111.328 124.547 111.311C124.815 111.204 125.11 111.182 125.391 111.247C125.672 111.313 125.927 111.463 126.12 111.677C126.436 112.044 126.716 112.44 126.955 112.861C127.035 112.998 127.281 112.901 127.218 112.747V112.707C127.075 110.71 125.308 108.045 123.151 108.016Z" fill="#263238"/>
<path d="M137.675 125.84C137.666 126.63 137.614 127.418 137.52 128.202C137.453 128.919 137.319 129.627 137.12 130.319C136.924 131.004 136.57 131.634 136.088 132.158C135.605 132.682 135.006 133.087 134.34 133.339C132.974 133.786 131.489 133.702 130.181 133.104C128.922 132.488 127.775 131.664 126.79 130.668C126.179 130.099 125.596 129.508 125.039 128.894C124.765 128.58 124.467 128.271 124.221 127.945C123.975 127.619 123.718 127.287 123.438 126.978C123.438 126.978 123.352 126.978 123.369 127.012C123.941 127.756 125.628 130.113 126.183 130.685C127.158 131.795 128.32 132.726 129.615 133.436C130.995 134.133 132.581 134.304 134.077 133.916C134.806 133.721 135.478 133.352 136.036 132.843C136.593 132.333 137.02 131.697 137.28 130.988C137.551 130.195 137.695 129.366 137.709 128.528C137.755 127.613 137.709 126.704 137.709 125.8C137.692 125.8 137.675 125.806 137.675 125.84Z" fill="#263238"/>
<path d="M194.983 39.714C194.53 36.5283 194.47 33.2989 194.806 30.0986C195.257 33.2845 195.316 36.5136 194.983 39.714Z" fill="#263238"/>
<path d="M173.036 45.8345C171.052 43.3018 169.387 40.5356 168.077 37.5977C170.061 40.1297 171.727 42.8961 173.036 45.8345Z" fill="#263238"/>
<path d="M157.088 62.1136C154.105 60.9135 151.28 59.3497 148.68 57.4575C151.663 58.6598 154.486 60.2236 157.088 62.1136Z" fill="#263238"/>
<path d="M151.42 84.1813C148.236 84.632 145.009 84.6916 141.81 84.3586C144.994 83.905 148.222 83.8455 151.42 84.1813Z" fill="#263238"/>
<path d="M157.546 106.129C155.012 108.11 152.246 109.775 149.309 111.088C151.841 109.104 154.608 107.438 157.546 106.129Z" fill="#263238"/>
<path d="M233.782 105.34C236.766 106.54 239.59 108.104 242.191 109.996C239.209 108.792 236.385 107.228 233.782 105.34Z" fill="#263238"/>
<path d="M239.451 83.2718C242.635 82.8211 245.862 82.7616 249.06 83.0945C245.877 83.5481 242.649 83.6076 239.451 83.2718Z" fill="#263238"/>
<path d="M233.325 61.3242C235.859 59.3432 238.625 57.6779 241.561 56.365C239.029 58.3493 236.263 60.0148 233.325 61.3242Z" fill="#263238"/>
<path d="M217.051 45.3824C218.253 42.3987 219.814 39.573 221.702 36.9683C220.502 39.953 218.94 42.7789 217.051 45.3824Z" fill="#263238"/>
<g opacity="0.5">
<path d="M232.804 85.9658C230.951 109.166 211.64 116.162 211.64 116.162C210.222 119.685 208.368 128.654 208.368 128.654H182.571C182.571 128.654 180.718 119.685 179.299 116.162C179.299 116.162 159.971 109.166 158.135 85.9658C156.848 69.8469 168.328 46.0231 195.35 46.0173H195.63C222.594 46.0231 234.074 69.8469 232.804 85.9658Z" fill="#F39C12"/>
</g>
<g opacity="0.7">
<path d="M229.601 86.0861C227.885 107.302 210.228 113.697 210.228 113.697C208.929 116.923 207.236 128.654 207.236 128.654H183.612C183.612 128.654 181.896 116.923 180.621 113.697C180.621 113.697 162.946 107.302 161.253 86.0861C160.075 71.3399 170.571 49.5467 195.287 49.541H195.539C220.278 49.5467 230.774 71.3399 229.601 86.0861Z" fill="#F39C12"/>
</g>
<path d="M182.431 90.0555L180.744 90.3706L188.331 130.989L190.018 130.674L182.431 90.0555Z" fill="#263238"/>
<path d="M208.445 90.0704L200.872 130.692L202.559 131.006L210.132 90.3849L208.445 90.0704Z" fill="#263238"/>
<path d="M195.435 103.692C193.147 103.692 191.014 101.547 189.521 98.8015C189.263 99.1468 188.935 99.4338 188.558 99.6437C188.182 99.8536 187.765 99.9818 187.336 100.02C183.538 100.02 182.01 92.1663 181.948 91.8288L182.52 91.7259C182.52 91.8002 184.018 99.4479 187.341 99.4479C187.942 99.4479 188.611 99.0189 189.241 98.2524C188.09 96.0111 187.444 93.5454 187.347 91.028C187.347 88.843 188.165 87.596 189.589 87.596C190.01 87.5833 190.425 87.6865 190.79 87.8944C191.155 88.1023 191.456 88.4067 191.66 88.7743C192.804 90.7592 191.963 94.8776 190.465 97.4802C190.287 97.7833 190.104 98.0522 189.893 98.3153C191.294 100.998 193.285 103.126 195.412 103.126C197.357 103.126 199.062 101.347 200.28 98.9845C198.776 97.3543 197.923 94.6945 197.923 92.1549C197.923 89.3406 198.97 87.5789 200.663 87.5789C202.025 87.5789 202.803 88.9517 202.808 91.3369C202.717 93.9519 202.088 96.5201 200.961 98.8816C201.656 99.5688 202.592 99.9568 203.569 99.9627C205.931 99.9627 208.008 94.3571 208.608 92.1949L209.18 92.3493C209.089 92.6811 206.892 100.535 203.592 100.535C202.529 100.523 201.51 100.115 200.732 99.3907C199.456 101.816 197.655 103.692 195.435 103.692ZM200.686 88.1566C199.085 88.1566 198.518 90.3073 198.518 92.1606C198.518 94.1797 199.182 96.8167 200.566 98.4526C201.622 96.2283 202.206 93.8095 202.282 91.3483C202.254 90.3759 202.105 88.1566 200.686 88.1566ZM189.584 88.1566C188.131 88.1566 187.913 89.9527 187.913 91.0166C188.013 93.3445 188.597 95.626 189.629 97.7147C189.744 97.5488 189.858 97.3658 189.967 97.177C191.363 94.7632 192.198 90.8278 191.162 89.0432C191.011 88.7608 190.782 88.5277 190.502 88.3716C190.222 88.2155 189.904 88.1429 189.584 88.1623V88.1566Z" fill="#263238"/>
<path d="M211.594 128.688H179.276V146.478H211.594V128.688Z" fill="#C7C7C7"/>
<path d="M207.934 146.472C206.029 149.841 202.385 152.856 195.435 152.856C188.486 152.856 184.842 149.841 182.943 146.472H207.934Z" fill="#C7C7C7"/>
<path d="M207.934 146.472C207.371 147.481 206.663 148.402 205.834 149.206L183.584 147.49C183.351 147.159 183.137 146.815 182.943 146.461L207.934 146.472Z" fill="#A6A6A6"/>
<path d="M212.538 132.08L178.333 135.244V133.688L212.538 130.525V132.08Z" fill="#A6A6A6"/>
<path d="M212.538 136.777L178.333 139.94V138.384L212.538 135.221V136.777Z" fill="#A6A6A6"/>
<path d="M212.538 141.467L178.333 144.63V143.08L212.538 139.917V141.467Z" fill="#A6A6A6"/>
<g opacity="0.5">
<path d="M166.223 80.5491C167.413 80.7436 168.946 74.6289 175.518 67.5533C178.441 64.4073 189.521 60.4776 188.726 56.8454C187.931 53.2132 178.041 56.9484 173.064 62.7084C165.062 71.9805 165.137 80.3661 166.223 80.5491Z" fill="white"/>
<path d="M224.527 81.7962C226.712 81.7962 226.712 78.4099 224.527 78.4099C222.342 78.4099 222.348 81.7962 224.527 81.7962Z" fill="white"/>
<path d="M213.865 107.296C215.055 108.205 220.838 102.868 223.446 96.5021C225.614 91.2168 225.986 84.5301 224.527 84.1411C223.069 83.7522 222.131 92.9271 220.38 96.3019C218.172 100.563 212.59 106.323 213.865 107.296Z" fill="white"/>
</g>
<path d="M150.224 53.0359L154.383 52.2695L155.309 47.8879L156.236 52.2695L160.395 53.0417L156.259 54.0541L155.309 58.1897L154.366 54.0541L150.224 53.0359Z" fill="#F39C12"/>
<path d="M217.205 125.891L221.358 125.125L222.29 120.743L223.217 125.125L227.375 125.891L223.234 126.904L222.29 131.045L221.341 126.904L217.205 125.891Z" fill="#F39C12"/>
<path d="M162.139 116.699L164.467 116.27L164.987 113.822L165.502 116.27L167.825 116.699L165.514 117.266L164.987 119.577L164.456 117.266L162.139 116.699Z" fill="#F39C12"/>
<path d="M174.786 41.7217L177.108 41.2927L177.629 38.8389L178.144 41.2927L180.466 41.7217L178.155 42.288L177.629 44.5989L177.097 42.288L174.786 41.7217Z" fill="#F39C12"/>
<path d="M164.982 128.128C165.161 128.128 165.332 128.057 165.459 127.93C165.585 127.804 165.657 127.632 165.657 127.453C165.657 127.274 165.585 127.102 165.459 126.976C165.332 126.849 165.161 126.778 164.982 126.778C164.803 126.778 164.631 126.849 164.504 126.976C164.378 127.102 164.307 127.274 164.307 127.453C164.307 127.632 164.378 127.804 164.504 127.93C164.631 128.057 164.803 128.128 164.982 128.128Z" fill="#F39C12"/>
<path d="M230.516 119.576C230.642 119.576 230.762 119.526 230.851 119.437C230.941 119.348 230.991 119.228 230.991 119.102C230.991 118.976 230.941 118.855 230.851 118.766C230.762 118.677 230.642 118.627 230.516 118.627C230.39 118.627 230.269 118.677 230.18 118.766C230.091 118.855 230.041 118.976 230.041 119.102C230.041 119.228 230.091 119.348 230.18 119.437C230.269 119.526 230.39 119.576 230.516 119.576Z" fill="#F39C12"/>
<path d="M162.448 57.3716C162.574 57.3716 162.694 57.3216 162.783 57.2326C162.872 57.1436 162.922 57.0228 162.922 56.8969C162.922 56.771 162.872 56.6502 162.783 56.5612C162.694 56.4721 162.574 56.4221 162.448 56.4221C162.322 56.4221 162.201 56.4721 162.112 56.5612C162.023 56.6502 161.973 56.771 161.973 56.8969C161.973 57.0228 162.023 57.1436 162.112 57.2326C162.201 57.3216 162.322 57.3716 162.448 57.3716Z" fill="#F39C12"/>
<path d="M240.188 64.6359C240.306 64.623 240.415 64.5671 240.494 64.479C240.573 64.3909 240.616 64.2767 240.616 64.1583C240.616 64.0399 240.573 63.9257 240.494 63.8376C240.415 63.7494 240.306 63.6936 240.188 63.6807C240.071 63.6936 239.962 63.7494 239.883 63.8376C239.804 63.9257 239.76 64.0399 239.76 64.1583C239.76 64.2767 239.804 64.3909 239.883 64.479C239.962 64.5671 240.071 64.623 240.188 64.6359Z" fill="#F39C12"/>
<path d="M234.085 69.0002C235.75 69.0002 235.75 66.4148 234.085 66.4148C232.421 66.4148 232.421 69.0002 234.085 69.0002Z" fill="#F39C12"/>
<path d="M250.559 202.271H140.306V261.352H250.559V202.271Z" fill="#F39C12"/>
<path opacity="0.2" d="M250.559 202.271H140.306V261.352H250.559V202.271Z" fill="#F39C12"/>
<path opacity="0.2" d="M140.317 261.358H182.05V202.271H140.317V261.358Z" fill="#F39C12"/>
<path d="M143.189 258.029C146.278 253.762 149.34 249.482 152.375 245.188L161.43 232.278L170.37 219.316C173.333 214.988 176.267 210.645 179.173 206.286C176.077 210.553 173.013 214.834 169.981 219.128L160.932 232.038L151.992 244.999C149.048 249.327 146.114 253.671 143.189 258.029Z" fill="#F39C12"/>
<path d="M143.189 206.286C146.094 210.641 149.029 214.984 151.992 219.316L160.932 232.278L169.981 245.188C173.032 249.485 176.096 253.766 179.173 258.029C176.267 253.671 173.333 249.327 170.37 244.999L161.43 232.038L152.375 219.128C149.343 214.834 146.281 210.553 143.189 206.286Z" fill="#F39C12"/>
<path d="M167.436 202.271H154.76V216.107H167.436V202.271Z" fill="#EBEBEB"/>
<path d="M231.38 246.074H230.699V255.678H231.38V246.074Z" fill="#263238"/>
<path d="M233.015 246.074H232.335V255.678H233.015V246.074Z" fill="#263238"/>
<path d="M234.646 246.074H233.965V255.678H234.646V246.074Z" fill="#263238"/>
<path d="M236.281 246.074H235.601V255.678H236.281V246.074Z" fill="#263238"/>
<path d="M237.912 246.074H237.231V255.678H237.912V246.074Z" fill="#263238"/>
<path d="M239.548 246.074H238.867V255.678H239.548V246.074Z" fill="#263238"/>
<path d="M241.184 246.074H240.503V255.678H241.184V246.074Z" fill="#263238"/>
<path d="M242.814 246.074H242.133V255.678H242.814V246.074Z" fill="#263238"/>
<path d="M244.45 246.074H243.769V255.678H244.45V246.074Z" fill="#263238"/>
<path d="M224.018 254.946L226.638 255.672H220.489L223.108 254.934V251.405C221.232 251.159 220.489 249.312 220.489 246.074H226.638C226.638 249.3 225.894 251.159 224.018 251.405V254.946Z" fill="#263238"/>
<path d="M219.053 250.971H217.451V255.673H213.339V250.971H211.726L215.392 246.074L219.053 250.971Z" fill="#263238"/>
<path opacity="0.1" d="M250.564 261.358V255.364L182.05 244.267V261.352L250.564 261.358Z" fill="#F39C12"/>
<path d="M127.916 187.496H169.655L182.05 202.271H140.306L127.916 187.496Z" fill="#F39C12"/>
<path opacity="0.2" d="M127.916 187.496H169.655L182.05 202.271H140.306L127.916 187.496Z" fill="#F39C12"/>
<path d="M262.954 187.496H221.215L208.82 202.271H250.564L262.954 187.496Z" fill="#F39C12"/>
<path opacity="0.1" d="M262.954 187.496H221.215L208.82 202.271H250.564L262.954 187.496Z" fill="#F39C12"/>
</svg>
