<svg width="286" height="286" viewBox="0 0 286 286" fill="none" xmlns="http://www.w3.org/2000/svg">
<path d="M143 270.505C200.002 270.505 246.212 264.484 246.212 257.057C246.212 249.63 200.002 243.609 143 243.609C85.9978 243.609 39.7883 249.63 39.7883 257.057C39.7883 264.484 85.9978 270.505 143 270.505Z" fill="#EBEBEB"/>
<path d="M48.3225 242.339C65.3878 242.339 79.222 239.025 79.222 234.938C79.222 230.85 65.3878 227.536 48.3225 227.536C31.2572 227.536 17.4231 230.85 17.4231 234.938C17.4231 239.025 31.2572 242.339 48.3225 242.339Z" fill="#EBEBEB"/>
<path d="M19.1047 224.676L50.0785 224.539L81.0523 224.487L143 224.396L204.948 224.487L235.921 224.539L266.895 224.676L235.921 224.819L204.948 224.87L143 224.962L81.0523 224.87L50.0785 224.819L19.1047 224.676Z" fill="#263238"/>
<path d="M49.2321 125.617C49.2321 125.617 33.851 123.466 37.4432 104.893C37.4432 104.893 54.6318 108.754 49.2321 125.617Z" fill="#00CA00"/>
<path opacity="0.1" d="M49.2321 125.617C49.2321 125.617 33.851 123.466 37.4432 104.893C37.4432 104.893 54.6318 108.754 49.2321 125.617Z" fill="black"/>
<path d="M48.4541 121.739C48.1536 120.8 47.8042 119.878 47.4073 118.976C47.4073 118.856 47.4073 118.736 47.3673 118.621C47.3673 118.364 47.3215 118.112 47.3044 117.855C47.2586 117.283 47.2243 116.745 47.19 116.19C47.1271 115.081 47.0584 113.971 47.0413 112.861C47.0413 112.798 46.944 112.804 46.944 112.861C46.944 113.977 46.944 115.086 46.944 116.196C46.944 116.768 47.0012 117.306 47.0356 117.861C47.0356 117.986 47.0356 118.107 47.0356 118.232C46.1711 116.383 45.137 114.617 43.9468 112.959C43.4452 112.219 42.9049 111.507 42.328 110.825C41.7159 110.121 41.0696 109.452 40.4461 108.76C40.4061 108.714 40.3431 108.76 40.3832 108.829C41.4877 110.05 42.4794 111.369 43.3461 112.77C43.8152 113.473 44.2556 114.2 44.6789 114.938L44.5359 114.886L43.9639 114.663L42.7055 114.188C41.8818 113.88 41.0581 113.582 40.2345 113.267C40.183 113.267 40.1487 113.336 40.2001 113.353C41.0181 113.679 41.8246 114.023 42.6369 114.371L43.8266 114.886L44.4272 115.132C44.5561 115.197 44.6925 115.245 44.8333 115.275C45.1422 115.847 45.4511 116.391 45.7371 116.963C46.4505 118.401 47.077 119.882 47.6133 121.396C47.6533 121.499 47.6876 121.607 47.7277 121.716C47.3214 121.482 46.8989 121.278 46.4636 121.104L44.8734 120.383C43.7923 119.886 42.7227 119.382 41.6873 118.799C41.6767 118.793 41.6641 118.791 41.6523 118.794C41.6405 118.797 41.6305 118.805 41.6244 118.816C41.6184 118.826 41.6168 118.839 41.62 118.851C41.6232 118.863 41.631 118.873 41.6416 118.879C42.6998 119.451 43.7351 120.074 44.7933 120.646C45.3253 120.932 45.8572 121.218 46.4006 121.476C46.8478 121.741 47.3343 121.935 47.8421 122.048C48.3582 123.455 48.6982 124.921 48.8545 126.412C49.0261 128.511 49.0089 130.628 49.0604 132.733H49.1119C49.2663 130.822 49.3522 128.895 49.3636 126.978C49.3411 125.195 49.0341 123.426 48.4541 121.739Z" fill="#263238"/>
<path d="M46.0859 110.819C45.9373 111.905 45.8856 113.002 45.9314 114.097C45.9314 114.125 45.9772 114.125 45.9772 114.097C46.0401 113.01 46.0515 111.923 46.1774 110.842C46.1831 110.785 46.0916 110.762 46.0859 110.819Z" fill="#263238"/>
<path d="M41.6872 111.752C40.9995 111.488 40.3371 111.162 39.7081 110.779C39.6566 110.745 39.6109 110.831 39.6623 110.859C40.2786 111.275 40.9533 111.597 41.6643 111.815C41.6987 111.826 41.7559 111.769 41.6872 111.752Z" fill="#263238"/>
<path d="M49.724 155.098C49.724 153.382 49.6782 151.7 49.6611 150.001C49.6267 144.356 49.581 138.71 49.478 133.064C49.3979 128.58 49.2931 124.099 49.1634 119.622C49.163 119.611 49.1597 119.599 49.1537 119.589C49.1477 119.579 49.1392 119.571 49.1291 119.565C49.1291 118.341 49.1291 117.117 49.1291 115.893C49.1291 115.859 49.0948 115.847 49.0547 115.847C49.0147 115.847 48.9804 115.847 48.9861 115.893C48.9861 117.121 48.9861 118.347 48.9861 119.571C48.9861 119.571 48.9461 119.599 48.9461 119.622C48.723 127.63 48.5228 135.575 48.4713 143.555C48.4713 145.179 48.4713 146.798 48.4713 148.423C48.4141 153.62 48.3931 158.822 48.4084 164.027C48.4084 164.85 48.4084 165.68 48.4084 166.509C48.4084 171.268 48.4599 176.027 48.4599 180.809C48.4599 181.061 48.7459 181.192 49.0319 181.204C49.3179 181.215 49.7469 181.078 49.7469 180.786C49.7469 175.541 49.7812 170.29 49.7812 165.045C49.764 161.716 49.764 158.404 49.724 155.098Z" fill="#263238"/>
<path d="M43.3004 149.933C43.3004 149.933 35.8988 144.453 28.8803 148.148C21.8619 151.843 20.7522 166.132 20.7522 166.132C20.7522 166.132 31.0482 167.607 37.5576 161.424C43.8152 155.475 43.3004 149.933 43.3004 149.933Z" fill="#00CA00"/>
<path d="M45.3137 150.27C43.9548 149.728 42.4829 149.532 41.0295 149.698C40.7309 149.645 40.4288 149.614 40.1257 149.607L39.0789 149.526L36.9225 149.378C35.4639 149.269 33.9996 149.178 32.541 149.029C32.5309 149.032 32.5221 149.039 32.5159 149.048C32.5097 149.056 32.5064 149.067 32.5064 149.077C32.5064 149.088 32.5097 149.099 32.5159 149.107C32.5221 149.116 32.5309 149.123 32.541 149.126C33.9824 149.309 35.401 149.515 36.8596 149.658C37.6032 149.732 38.3468 149.812 39.0961 149.864L39.6338 149.915C39.4164 149.967 39.1933 150.018 38.976 150.081C37.8151 150.419 36.6919 150.875 35.6241 151.443C35.052 151.546 34.4801 151.711 33.908 151.843C32.9928 152.06 32.0834 152.295 31.1739 152.535C29.3778 153.004 27.5989 153.536 25.8143 154.057C25.7571 154.057 25.7857 154.16 25.8143 154.142C27.5932 153.708 29.3893 153.307 31.1739 152.884L33.7708 152.261L34.4515 152.1C32.4661 153.335 30.6914 154.88 29.1948 156.676C27.7545 158.449 26.5294 160.387 25.5454 162.448C25.5454 162.499 25.5912 162.551 25.6255 162.499C26.8436 160.392 28.3298 158.452 30.047 156.728C30.0127 156.825 29.9841 156.928 29.9498 157.025L29.538 158.33C29.2634 159.205 28.966 160.074 28.7257 160.949C28.7257 161.006 28.8001 161.024 28.8173 160.949C29.1319 160.103 29.4293 159.233 29.7267 158.404C29.8697 157.986 30.0185 157.574 30.1615 157.157C30.2415 156.94 30.3159 156.722 30.3845 156.505C30.3845 156.442 30.436 156.373 30.4589 156.305C31.2835 155.504 32.1585 154.757 33.0787 154.068C34.3004 153.174 35.6185 152.42 37.0083 151.82C37.0083 151.946 36.9625 152.078 36.9339 152.198C36.8596 152.535 36.7852 152.873 36.7166 153.21C36.5736 153.908 36.4363 154.612 36.299 155.315C36.0187 156.745 35.8471 158.175 35.5783 159.628C35.5783 159.691 35.6584 159.714 35.6698 159.628C36.0016 158.187 36.4306 156.768 36.7509 155.327C36.9111 154.606 37.0712 153.885 37.2257 153.164L37.4316 152.146C37.4659 151.957 37.5117 151.769 37.5345 151.574L37.9349 151.408C39.874 150.688 42.019 150.167 44.0897 150.567C45.0691 150.749 45.9885 151.17 46.7659 151.792C47.5433 152.415 48.1547 153.221 48.5455 154.137C48.6142 154.297 48.8659 154.194 48.8258 154.028C48.4254 152.278 46.9439 150.956 45.3137 150.27Z" fill="#263238"/>
<path d="M33.9881 156.368C33.7822 157.306 33.5706 158.244 33.3647 159.182C33.1309 160.08 32.9589 160.994 32.8499 161.916C32.8499 161.956 32.8956 161.956 32.9071 161.916C33.1795 161.014 33.3897 160.095 33.5363 159.165C33.7193 158.238 33.9023 157.311 34.0797 156.385C34.0911 156.333 33.9996 156.31 33.9881 156.368Z" fill="#263238"/>
<path d="M26.8324 158.753C25.8886 159.228 24.9791 159.771 23.9724 160.166C23.9668 160.168 23.9616 160.171 23.9573 160.175C23.953 160.18 23.9495 160.185 23.9471 160.19C23.9447 160.196 23.9434 160.202 23.9434 160.208C23.9433 160.214 23.9444 160.22 23.9467 160.226C23.9489 160.231 23.9523 160.236 23.9565 160.241C23.9607 160.245 23.9658 160.249 23.9714 160.251C23.9769 160.253 23.9829 160.255 23.989 160.255C23.9951 160.255 24.0011 160.254 24.0067 160.251C24.9914 159.815 25.9518 159.327 26.8839 158.787C26.8839 158.787 26.8839 158.741 26.8324 158.753Z" fill="#263238"/>
<path d="M44.965 139.865C44.965 139.865 35.9217 140.437 31.7118 134.483C27.5019 128.528 28.4514 120 28.4514 120C28.4514 120 37.9523 121.144 41.7218 125.439C45.4913 129.735 44.965 139.865 44.965 139.865Z" fill="#00CA00"/>
<path d="M49.1921 148.789C48.8775 147.822 48.4885 146.867 48.1224 145.929C47.7563 144.991 47.396 144.11 46.9784 143.217C46.173 141.395 45.2699 139.617 44.2729 137.892C43.6322 136.794 42.9458 135.724 42.2423 134.672C42.2423 134.512 42.1965 134.351 42.1736 134.191C42.1336 133.911 42.0936 133.619 42.0478 133.35C41.9563 132.778 41.859 132.206 41.7618 131.634C41.5559 130.382 41.2985 129.14 41.0983 127.893C41.0983 127.836 40.9953 127.836 41.0068 127.893C41.1841 129.129 41.3099 130.37 41.4815 131.606C41.5673 132.212 41.6474 132.818 41.7389 133.425L41.8419 134.083C40.4626 132.064 38.9691 130.125 37.3688 128.277L36.7453 127.556C36.7453 127.487 36.6881 127.419 36.6595 127.35C36.5909 127.178 36.528 127.007 36.4651 126.83C36.3278 126.475 36.202 126.115 36.0704 125.754C35.8187 125.045 35.5899 124.33 35.3954 123.603C35.3954 123.546 35.2925 123.575 35.3096 123.603C35.4927 124.347 35.6814 125.085 35.8816 125.817C35.9903 126.172 36.1047 126.521 36.2305 126.87C36.2305 126.927 36.2706 126.984 36.2935 127.041C35.1495 125.783 33.9311 124.57 32.7127 123.369C32.6727 123.329 32.6098 123.369 32.6498 123.438C34.9866 125.883 37.1285 128.507 39.0562 131.285C38.8369 131.216 38.6134 131.161 38.387 131.12C37.6892 130.982 36.9913 130.885 36.2877 130.794C34.812 130.605 33.3419 130.422 31.8776 130.187C31.8147 130.187 31.7918 130.267 31.8776 130.279C33.279 130.553 34.6633 130.851 36.059 131.194C36.7168 131.343 37.3745 131.468 38.0323 131.6C38.5719 131.715 39.1031 131.866 39.6225 132.052C39.7655 132.264 39.92 132.469 40.063 132.681C40.7265 133.642 41.3614 134.632 41.9849 135.621L41.064 135.444C40.3661 135.307 39.6626 135.181 38.9647 135.066C37.5862 134.838 36.2019 134.597 34.8406 134.288C34.7834 134.288 34.7605 134.369 34.8406 134.38C36.2248 134.706 37.5919 135.084 38.9647 135.45C39.6282 135.627 40.2975 135.787 40.9667 135.936L41.9677 136.153C42.1026 136.189 42.2405 136.212 42.3795 136.222C43.7009 138.361 44.9364 140.558 46.0861 142.794C46.5895 143.778 47.0757 144.773 47.5447 145.768C48.0138 146.764 48.4428 147.845 48.8889 148.886C48.9518 149.103 49.2779 149.017 49.1921 148.789Z" fill="#263238"/>
<path d="M39.9485 128.008C39.7769 127.144 39.5938 126.292 39.3765 125.422C39.3765 125.365 39.2735 125.394 39.2849 125.422C39.4565 126.269 39.6224 127.138 39.7769 127.968C39.903 128.821 40.073 129.666 40.2859 130.502C40.232 129.664 40.1192 128.83 39.9485 128.008Z" fill="#263238"/>
<path d="M34.6745 127.756C34.2569 127.545 33.8108 127.379 33.3761 127.184L32.6897 126.915L32.3407 126.778C32.2071 126.735 32.0786 126.678 31.9575 126.606C31.8889 126.561 31.8488 126.675 31.9175 126.687C32.0516 126.723 32.1804 126.777 32.3007 126.847L32.6439 127.001L33.3074 127.293C33.7409 127.496 34.1859 127.674 34.6402 127.825C34.6917 127.865 34.726 127.779 34.6745 127.756Z" fill="#263238"/>
<path d="M54.2196 132.755C54.2196 132.755 59.6936 122.534 68.0162 120.949C76.3388 119.365 81.4411 127.933 81.4411 127.933C81.4411 127.933 75.3664 135.69 67.7131 137.045C60.0597 138.401 54.2196 132.755 54.2196 132.755Z" fill="#00CA00"/>
<path d="M73.599 125.531C71.4295 125.237 69.2285 125.264 67.0668 125.611L67.4386 125.411L69.2861 124.462C70.5555 123.76 71.8595 123.122 73.1929 122.551C73.2558 122.522 73.1929 122.437 73.1586 122.465C71.8544 123.072 70.5045 123.609 69.2004 124.181C68.5426 124.479 67.9019 124.793 67.267 125.131C66.8552 125.348 66.4033 125.554 65.9971 125.817C64.1683 126.184 62.3914 126.774 60.7061 127.573L61.7472 126.429C62.5194 125.577 63.2859 124.685 64.1381 123.912C64.1839 123.872 64.1382 123.809 64.0695 123.849C63.2001 124.639 62.2792 125.371 61.4326 126.195C61.0265 126.595 60.6318 127.007 60.2486 127.436C60.0598 127.648 59.8653 127.865 59.6766 128.094C56.8172 129.625 54.3327 131.77 52.4021 134.377C50.4714 136.983 49.1425 139.985 48.5111 143.166C48.5111 143.223 48.5855 143.252 48.6026 143.195C49.7753 139.297 51.8754 135.743 54.723 132.836C57.792 129.72 61.6521 127.499 65.8885 126.412C68.4014 125.772 71.0004 125.536 73.5876 125.714C73.6119 125.716 73.6357 125.708 73.654 125.691C73.6722 125.675 73.6833 125.653 73.6848 125.628C73.6864 125.604 73.6782 125.58 73.6621 125.562C73.646 125.544 73.6233 125.533 73.599 125.531Z" fill="#263238"/>
<path opacity="0.1" d="M81.4412 127.934C81.4412 127.934 75.3666 135.69 67.7132 137.046C61.8845 138.075 57.0912 135.038 55.1292 133.539L54.7059 132.847C54.7059 132.847 58.647 129.529 66.1059 127.613C73.5648 125.697 81.4412 127.934 81.4412 127.934Z" fill="black"/>
<path d="M68.7601 121.887C68.1229 122.26 67.5061 122.667 66.9126 123.106C66.3341 123.547 65.7962 124.039 65.3052 124.576C65.2989 124.586 65.2962 124.598 65.2978 124.61C65.2994 124.622 65.3051 124.633 65.3139 124.641C65.3228 124.649 65.3341 124.654 65.3461 124.655C65.3581 124.655 65.37 124.652 65.3796 124.644C65.9516 124.164 66.4835 123.684 67.0613 123.232C67.6177 122.774 68.2023 122.352 68.8116 121.968C68.8169 121.964 68.8214 121.96 68.825 121.955C68.8285 121.949 68.831 121.944 68.8324 121.938C68.8337 121.931 68.8338 121.925 68.8327 121.919C68.8316 121.913 68.8293 121.907 68.8259 121.902C68.8225 121.896 68.8181 121.892 68.813 121.888C68.8079 121.885 68.8021 121.882 68.796 121.881C68.7899 121.88 68.7835 121.88 68.7774 121.881C68.7712 121.882 68.7654 121.884 68.7601 121.887Z" fill="#263238"/>
<path d="M73.3303 123.615C73.0214 123.747 72.7068 123.855 72.398 123.987L71.4713 124.37C71.4084 124.37 71.437 124.507 71.5056 124.479L72.4323 124.101C72.7469 123.975 73.05 123.832 73.3589 123.706C73.4161 123.684 73.3875 123.592 73.3303 123.615Z" fill="#263238"/>
<path d="M53.1274 145.62C53.1274 145.62 54.5918 155.761 62.2165 159.308C69.8413 162.854 79.1363 159.308 79.1363 159.308C79.1363 159.308 75.5041 137.372 53.1274 145.62Z" fill="#00CA00"/>
<path d="M73.8796 152.724C73.1817 152.644 72.4782 152.524 71.786 152.398L70.7564 152.204L70.2245 152.095C70.0186 151.906 69.8184 151.712 69.6067 151.523C68.1586 150.254 66.596 149.123 64.9392 148.142C64.0383 147.608 63.1061 147.129 62.1478 146.707H62.2908L64.8019 146.815C66.4722 146.895 68.1481 146.93 69.8183 147.038C69.8813 147.038 69.8756 146.953 69.8183 146.947C68.1367 146.832 66.4664 146.649 64.7905 146.506L62.3538 146.289L61.0954 146.18L60.775 146.146C60.3403 145.98 59.9056 145.826 59.4594 145.688C57.3811 144.975 55.1455 144.852 53.0016 145.334C51.0854 145.826 49.1691 147.084 48.6715 149.103C48.6715 149.172 48.763 149.223 48.7916 149.155C49.5066 147.439 51.3828 146.609 53.0759 146.26C54.208 146.046 55.3681 146.023 56.5079 146.192C56.5848 146.714 56.7132 147.228 56.8912 147.725C57.1028 148.44 57.3087 149.155 57.5261 149.864C57.9608 151.288 58.4356 152.724 58.8588 154.125C58.8588 154.138 58.8637 154.149 58.8722 154.158C58.8808 154.166 58.8925 154.171 58.9046 154.171C58.9167 154.171 58.9284 154.166 58.9369 154.158C58.9455 154.149 58.9503 154.138 58.9503 154.125C58.5957 152.701 58.2926 151.265 57.9494 149.835C57.7835 149.138 57.6062 148.44 57.4346 147.742C57.3349 147.254 57.2069 146.773 57.0513 146.301C57.7193 146.417 58.3801 146.572 59.0304 146.764C60.2002 147.114 61.3465 147.538 62.4624 148.034C62.5711 148.754 62.737 149.469 62.9029 150.184C63.1088 151.077 63.3433 151.963 63.6236 152.838C63.6268 152.847 63.6327 152.855 63.6404 152.86C63.648 152.865 63.6572 152.868 63.6665 152.868C63.6758 152.868 63.6849 152.865 63.6926 152.86C63.7003 152.855 63.7061 152.847 63.7094 152.838L63.6751 152.673C63.5035 151.843 63.3204 151.014 63.1431 150.184C63.0058 149.515 62.8743 148.846 62.7313 148.182C63.681 148.604 64.6088 149.074 65.5112 149.59C65.5112 149.795 65.5798 150.007 65.6084 150.196C65.6656 150.539 65.7285 150.888 65.7915 151.237C65.9345 152.015 66.0889 152.798 66.2777 153.571C66.6228 155.066 67.0602 156.539 67.5876 157.981C67.5811 157.989 67.5775 157.999 67.5775 158.009C67.5775 158.02 67.5811 158.03 67.5876 158.038L67.6333 158.089C67.6676 158.129 67.7191 158.089 67.7077 158.044C67.3588 156.539 66.9526 155.046 66.6209 153.542C66.4607 152.787 66.2948 152.032 66.1404 151.254C66.066 150.877 65.9974 150.499 65.923 150.11L65.8716 149.773C66.8986 150.374 67.8898 151.035 68.8402 151.752C70.4861 152.984 72.009 154.373 73.3876 155.899C73.4391 155.962 73.5478 155.899 73.4963 155.807C72.9303 155.039 72.3251 154.3 71.6831 153.594C71.2998 153.182 70.8994 152.781 70.4933 152.392H70.6192C70.9795 152.455 71.3342 152.507 71.6945 152.552C72.3981 152.65 73.1074 152.718 73.8166 152.798C73.9196 152.81 73.9425 152.724 73.8796 152.724Z" fill="#263238"/>
<path d="M68.5254 156.156C68.5254 156.07 68.5254 155.979 68.4797 155.893C68.4339 155.807 68.4053 155.675 68.3882 155.561C68.2337 154.88 68.1022 154.2 67.9763 153.513C67.9763 153.468 67.8962 153.479 67.8962 153.513C67.9427 154.421 68.1359 155.316 68.4682 156.162C68.4682 156.19 68.5312 156.162 68.5254 156.162V156.156Z" fill="#263238"/>
<path d="M62.142 155.99C62.142 155.99 62.142 155.944 62.0962 155.944C61.8789 155.046 61.6729 154.148 61.4899 153.244C61.3927 152.77 61.2954 152.295 61.2039 151.82C61.1524 151.563 61.1067 151.305 61.0609 151.048C61.0409 150.821 60.9849 150.599 60.895 150.39C60.8918 150.381 60.8859 150.374 60.8782 150.369C60.8706 150.363 60.8615 150.36 60.8521 150.36C60.8428 150.36 60.8337 150.363 60.826 150.369C60.8183 150.374 60.8125 150.381 60.8092 150.39C60.8032 150.851 60.8688 151.311 61.0037 151.752C61.0952 152.243 61.1925 152.741 61.3011 153.233C61.5242 154.234 61.7702 155.229 62.0562 156.213C62.0597 156.223 62.0663 156.232 62.075 156.238C62.0837 156.244 62.0941 156.248 62.1048 156.248C62.1155 156.248 62.1259 156.244 62.1346 156.238C62.1433 156.232 62.1499 156.223 62.1534 156.213L62.142 155.99Z" fill="#263238"/>
<path d="M73.2159 149.79C71.8203 149.601 70.4303 149.401 69.0346 149.218C68.9774 149.218 68.9545 149.303 69.0346 149.309C70.4246 149.515 71.8203 149.687 73.2159 149.881C73.2159 149.892 73.2445 149.801 73.2159 149.79Z" fill="#263238"/>
<path d="M49.2205 121.836C49.2205 121.836 44.5529 101.37 66.5463 93.0815C66.5463 93.0815 72.6439 120.028 49.2205 121.836Z" fill="#00CA00"/>
<path d="M53.9681 110.23L54.2026 110.087L55.4496 109.389L58.0007 107.965C59.6766 107.021 61.3354 106.049 63.0228 105.105C63.08 105.105 63.0228 104.996 62.9771 105.025C61.2611 105.946 59.5451 106.809 57.8577 107.708L55.3351 109.04L54.3056 109.612C55.0377 108.222 55.8213 106.861 56.6851 105.545C57.8291 103.789 59.0932 102.113 60.4031 100.489C60.4167 100.474 60.4241 100.455 60.4236 100.435C60.423 100.416 60.4146 100.397 60.4002 100.383C60.3858 100.369 60.3666 100.362 60.3467 100.363C60.3269 100.363 60.308 100.372 60.2944 100.386C58.3631 102.26 56.6566 104.352 55.2093 106.621C55.2093 106.546 55.2093 106.472 55.2093 106.403C55.2093 105.894 55.2493 105.385 55.2551 104.876C55.2551 103.875 55.2207 102.874 55.2551 101.879C55.2551 101.816 55.1635 101.822 55.1578 101.879C55.1178 102.863 54.9977 103.847 54.9405 104.83C54.9405 105.317 54.8947 105.808 54.8776 106.3C54.8776 106.564 54.8776 106.872 54.8776 107.158C54.4276 107.879 53.9948 108.609 53.5791 109.349C52.842 110.684 52.1849 112.061 51.6114 113.473C51.6114 112.964 51.5599 112.455 51.5313 111.946C51.4627 110.802 51.3312 109.71 51.2797 108.588C51.2797 108.576 51.2748 108.565 51.2663 108.556C51.2577 108.547 51.246 108.543 51.2339 108.543C51.2218 108.543 51.2101 108.547 51.2016 108.556C51.193 108.565 51.1881 108.576 51.1881 108.588C51.1881 109.732 51.1881 110.831 51.1881 111.952C51.1881 112.524 51.2225 113.096 51.2568 113.633C51.2568 113.839 51.2568 114.051 51.2968 114.257C50.5975 116.087 50.0429 117.969 49.638 119.885C49.2565 121.931 48.9835 123.995 48.8201 126.069C49.0418 124.203 49.4245 122.36 49.9641 120.56C50.2329 119.594 50.5361 118.633 50.8335 117.7C51.7487 117.271 52.6239 116.734 53.5047 116.242L56.2675 114.732C58.1036 113.725 59.934 112.701 61.8273 111.814C61.8788 111.814 61.8273 111.706 61.7759 111.734C59.8597 112.598 57.9263 113.45 56.0559 114.371C55.1178 114.846 54.1969 115.349 53.2817 115.864C52.5209 116.293 51.7316 116.722 50.9937 117.22C51.2053 116.579 51.4284 115.944 51.6743 115.321C52.3493 113.585 53.1149 111.886 53.9681 110.23Z" fill="#263238"/>
<path d="M52.1149 105.545C52.1114 105.535 52.1049 105.526 52.0961 105.52C52.0874 105.514 52.077 105.511 52.0663 105.511C52.0556 105.511 52.0452 105.514 52.0365 105.52C52.0278 105.526 52.0212 105.535 52.0177 105.545C52.0978 106.689 52.1378 107.879 52.2637 109.046C52.2637 109.06 52.2691 109.073 52.2787 109.082C52.2884 109.092 52.3015 109.097 52.3151 109.097C52.3288 109.097 52.3419 109.092 52.3515 109.082C52.3612 109.073 52.3666 109.06 52.3666 109.046C52.3266 107.879 52.2007 106.718 52.1149 105.545Z" fill="#263238"/>
<path d="M62.6569 109.458C61.2841 110.03 59.8942 110.539 58.5214 111.111C58.487 111.111 58.5214 111.191 58.5214 111.174C59.9113 110.653 61.2784 110.087 62.6626 109.55C62.7427 109.527 62.7141 109.435 62.6569 109.458Z" fill="#263238"/>
<path d="M64.7505 100.014C63.404 100.632 62.0973 101.333 60.838 102.113C60.8289 102.123 60.8233 102.136 60.822 102.15C60.8208 102.163 60.8239 102.177 60.831 102.188C60.8381 102.2 60.8487 102.209 60.8613 102.214C60.8739 102.219 60.8878 102.22 60.9009 102.216C62.1765 101.467 63.4749 100.752 64.7962 100.094C64.8534 100.1 64.802 99.9913 64.7505 100.014Z" fill="#263238"/>
<path d="M64.4127 166.103H32.6953V199.536H64.4127V166.103Z" fill="#455A64"/>
<path d="M32.1405 177.938H30.516V235.206H32.1405V177.938Z" fill="#263238"/>
<path d="M66.4321 177.938H64.8076V235.206H66.4321V177.938Z" fill="#263238"/>
<path d="M50.1471 177.938H48.5226V235.206H50.1471V177.938Z" fill="#263238"/>
<path d="M65.6199 197.397H31.3285V202.025H65.6199V197.397Z" fill="#263238"/>
<path d="M191.98 216.502C191.98 216.502 191.98 241.138 191.98 241.155C191.98 245.863 191.94 249.993 191.706 252.126C191.709 252.132 191.71 252.137 191.71 252.144C191.71 252.15 191.709 252.155 191.706 252.161C191.706 252.667 191.588 253.166 191.363 253.619L191.334 253.648C189.938 254.603 152.301 255.896 150.974 255.495C149.647 255.095 150.67 251.286 152.118 250.067C153.565 248.849 167.733 241.916 167.733 241.916L167.968 217.292L191.98 216.502Z" fill="#AD6359"/>
<path d="M191.975 236.093V241.155C191.975 245.863 191.935 249.993 191.7 252.126C191.703 252.131 191.705 252.137 191.705 252.143C191.705 252.149 191.703 252.155 191.7 252.16C191.641 252.658 191.526 253.147 191.357 253.619L191.328 253.648C189.933 254.603 152.295 255.896 150.968 255.495C149.641 255.095 150.665 251.285 152.112 250.067C153.559 248.849 167.728 241.916 167.728 241.916L167.659 236.768L191.975 236.093Z" fill="#C7C7C7"/>
<path d="M150.968 255.495C152.295 255.896 189.933 254.609 191.334 253.648C191.872 253.293 192.003 247.796 191.975 241.155V240.944L167.682 241.516L167.711 241.927C167.711 241.927 153.525 248.866 152.095 250.084C150.665 251.303 149.635 255.112 150.968 255.495Z" fill="#263238"/>
<path d="M151.34 254.025C157.683 253.648 183.286 252.744 189.578 252.881C189.629 252.881 189.629 252.916 189.578 252.921C183.286 253.425 157.695 254.128 151.345 254.151C151.214 254.128 151.208 254.031 151.34 254.025Z" fill="#455A64"/>
<path d="M165.663 242.059C168.145 241.487 171.211 241.785 173.179 243.501C173.259 243.569 173.179 243.672 173.082 243.649C170.669 242.962 168.189 242.535 165.686 242.374C165.648 242.37 165.613 242.353 165.587 242.326C165.561 242.299 165.545 242.264 165.542 242.226C165.539 242.189 165.55 242.151 165.572 242.121C165.594 242.09 165.626 242.068 165.663 242.059Z" fill="#455A64"/>
<path d="M163.901 243.209C166.378 242.637 169.449 242.934 171.417 244.65C171.491 244.713 171.417 244.822 171.314 244.799C168.901 244.111 166.422 243.683 163.918 243.523C163.881 243.519 163.847 243.501 163.821 243.474C163.796 243.446 163.781 243.411 163.779 243.373C163.777 243.336 163.788 243.299 163.81 243.269C163.832 243.239 163.865 243.218 163.901 243.209Z" fill="#455A64"/>
<path d="M162.133 244.353C164.616 243.781 167.682 244.084 169.649 245.794C169.73 245.863 169.649 245.972 169.552 245.949C167.14 245.26 164.66 244.83 162.156 244.667C162.119 244.664 162.084 244.647 162.058 244.62C162.031 244.593 162.016 244.557 162.013 244.52C162.01 244.482 162.021 244.445 162.043 244.414C162.065 244.384 162.097 244.362 162.133 244.353Z" fill="#455A64"/>
<path d="M194.137 125.171L194.114 126.801L193.193 198.793L193.188 199.067L192.644 242.191L166.298 241.664L171.383 125.257L171.452 123.701L171.709 110.196H193.96L194.137 125.171Z" fill="#455A64"/>
<path d="M167.402 237.271C171.514 237.231 170.33 237.186 174.443 237.197C176.456 237.197 189.687 237.249 191.563 237.58C191.603 237.58 191.603 237.66 191.563 237.666C189.675 237.952 176.451 237.666 174.437 237.632C170.325 237.546 171.509 237.523 167.396 237.392C167.383 237.387 167.372 237.379 167.365 237.367C167.357 237.356 167.354 237.343 167.354 237.329C167.355 237.316 167.36 237.303 167.369 237.293C167.377 237.282 167.389 237.275 167.402 237.271Z" fill="#263238"/>
<path d="M179.202 132.744C179.202 132.732 179.197 132.72 179.188 132.712C179.18 132.703 179.168 132.698 179.156 132.698C179.144 132.698 179.132 132.703 179.124 132.712C179.115 132.72 179.11 132.732 179.11 132.744C179.11 139.637 178.83 143.498 178.664 150.384C178.498 157.271 178.298 164.158 178.092 171.039C177.72 184.807 177.166 198.564 176.656 212.326C176.37 220.045 176.014 227.759 175.587 235.469C175.587 235.48 175.591 235.49 175.599 235.498C175.606 235.505 175.616 235.51 175.627 235.51C175.637 235.51 175.648 235.505 175.655 235.498C175.663 235.49 175.667 235.48 175.667 235.469C176.668 221.741 177.623 207.968 178.172 194.2C178.721 180.432 179.11 166.669 179.173 152.901C179.23 145.174 179.185 140.472 179.202 132.744Z" fill="#263238"/>
<path d="M194.131 125.171L193.193 198.793L175.536 110.196H193.954L194.131 125.171Z" fill="#263238"/>
<path d="M221.53 215.169C221.53 215.169 224.848 239.577 224.848 239.594C225.511 244.261 225.992 248.363 226.06 250.508C226.06 250.508 226.06 250.508 226.06 250.542C226.127 251.042 226.08 251.55 225.923 252.029C225.922 252.041 225.922 252.052 225.923 252.063C224.665 253.207 187.542 259.557 186.175 259.339C184.808 259.122 185.311 255.209 186.552 253.808C187.794 252.407 200.927 243.626 200.927 243.626L197.838 219.196L221.53 215.169Z" fill="#AD6359"/>
<path d="M224.167 234.583C224.167 234.583 224.848 239.577 224.848 239.594C225.511 244.261 225.992 248.363 226.06 250.508C226.06 250.508 226.06 250.508 226.06 250.542C226.071 251.041 226.025 251.54 225.923 252.029C225.922 252.04 225.922 252.052 225.923 252.063C224.665 253.207 187.542 259.557 186.175 259.339C184.808 259.122 185.311 255.209 186.552 253.808C187.794 252.407 200.927 243.626 200.927 243.626L200.143 238.524L224.167 234.583Z" fill="#C7C7C7"/>
<path d="M186.152 259.339C187.525 259.556 224.642 253.201 225.9 252.063C226.386 251.634 225.774 246.177 224.848 239.594L224.813 239.388L200.824 243.22L200.904 243.626C200.904 243.626 187.782 252.412 186.529 253.814C185.277 255.215 184.756 259.116 186.152 259.339Z" fill="#263238"/>
<path d="M186.323 257.829C192.558 256.605 217.783 252.252 224.075 251.537C224.127 251.537 224.133 251.566 224.075 251.577C217.926 252.927 192.65 257.074 186.358 257.955C186.209 257.972 186.192 257.858 186.323 257.829Z" fill="#455A64"/>
<path d="M198.902 244.044C201.287 243.163 204.364 243.026 206.544 244.456C206.629 244.513 206.544 244.633 206.463 244.622C203.981 244.263 201.467 244.173 198.965 244.353C198.927 244.354 198.89 244.341 198.861 244.318C198.832 244.294 198.811 244.261 198.804 244.225C198.797 244.188 198.802 244.15 198.82 244.117C198.838 244.084 198.867 244.058 198.902 244.044Z" fill="#455A64"/>
<path d="M197.306 245.417C199.691 244.536 202.768 244.398 204.948 245.834C205.034 245.886 204.948 246.006 204.868 245.994C202.385 245.639 199.871 245.549 197.369 245.725C197.331 245.726 197.295 245.714 197.265 245.691C197.236 245.667 197.216 245.634 197.208 245.597C197.201 245.561 197.206 245.522 197.224 245.489C197.242 245.456 197.271 245.43 197.306 245.417Z" fill="#455A64"/>
<path d="M195.715 246.795C198.101 245.914 201.172 245.777 203.357 247.207C203.443 247.264 203.357 247.384 203.277 247.373C200.795 247.012 198.28 246.922 195.778 247.104C195.741 247.105 195.704 247.093 195.675 247.069C195.645 247.046 195.625 247.013 195.618 246.976C195.61 246.939 195.616 246.901 195.634 246.868C195.652 246.835 195.68 246.809 195.715 246.795Z" fill="#455A64"/>
<path d="M173.974 110.173C174.071 110.631 175.627 117.849 177.24 124.05C178.413 128.58 179.62 132.561 180.312 132.973C181.095 133.436 184.916 135.129 186.198 135.661L192.049 191.62L199.96 243.432L225.826 239.428L207.419 126.035L204.422 110.173H173.974Z" fill="#455A64"/>
<path d="M200.114 238.232C204.175 237.58 202.974 237.706 207.07 237.088C209.06 236.791 222.148 234.852 224.052 234.903C224.092 234.903 224.104 234.972 224.052 234.983C222.233 235.555 209.112 237.271 207.115 237.523C203.037 238.049 204.204 237.855 200.12 238.341C200.11 238.336 200.102 238.329 200.096 238.319C200.09 238.31 200.086 238.299 200.086 238.288C200.085 238.277 200.088 238.266 200.093 238.257C200.098 238.247 200.105 238.238 200.114 238.232Z" fill="#263238"/>
<path d="M215.072 222.76C214.426 219.168 213.785 215.576 213.121 211.983C211.798 204.799 210.464 197.617 209.117 190.436C206.418 176.064 203.748 161.68 201.109 147.284C199.634 139.162 199.668 139.923 198.381 131.76C198.381 131.709 198.278 131.715 198.289 131.76C199.525 139.013 198.942 137.423 200.108 144.688C201.275 151.952 202.499 159.062 203.786 166.229C206.372 180.638 209.083 195.024 211.823 209.404C212.586 213.438 213.365 217.467 214.162 221.49C214.963 225.597 215.878 229.681 216.725 233.777C216.725 233.868 216.891 233.862 216.874 233.777C216.279 230.11 215.741 226.426 215.072 222.76Z" fill="#263238"/>
<path d="M207.962 132.298C207.275 132.121 206.537 132.064 205.84 131.955C205.268 131.863 204.696 131.76 204.124 131.64C203.047 131.448 202.027 131.018 201.138 130.382C200.165 129.627 199.668 128.477 199.199 127.373C198.917 126.721 198.631 126.069 198.341 125.417L197.912 124.473C197.712 124.103 197.534 123.721 197.38 123.329C197.38 123.272 197.271 123.329 197.294 123.329C197.391 123.596 197.472 123.87 197.534 124.147C197.631 124.462 197.717 124.776 197.814 125.091C197.992 125.663 198.163 126.235 198.346 126.807C198.625 127.839 199.026 128.834 199.542 129.77C200.583 131.417 202.436 132.086 204.289 132.321C204.821 132.384 205.359 132.424 205.897 132.453C206.57 132.513 207.248 132.513 207.922 132.453C207.937 132.448 207.952 132.44 207.963 132.429C207.975 132.417 207.983 132.403 207.987 132.387C207.991 132.371 207.991 132.355 207.986 132.339C207.982 132.324 207.973 132.309 207.962 132.298Z" fill="#263238"/>
<path d="M178.281 131.983C181.009 132.974 183.645 134.203 186.158 135.656C186.179 135.665 186.195 135.683 186.203 135.705C186.212 135.727 186.21 135.752 186.201 135.773C186.191 135.794 186.173 135.811 186.151 135.819C186.129 135.827 186.105 135.826 186.083 135.816C183.429 134.672 180.724 133.585 178.138 132.304C178.102 132.281 178.076 132.246 178.064 132.205C178.052 132.164 178.054 132.121 178.072 132.082C178.089 132.043 178.12 132.012 178.158 131.994C178.197 131.976 178.24 131.972 178.281 131.983Z" fill="#263238"/>
<path d="M177.48 113.828C177.48 113.737 177.652 113.714 177.652 113.828C177.65 116.789 177.799 119.748 178.098 122.694C178.218 124.061 179.316 131.612 181.69 131.063C182.085 130.971 182.262 130.576 182.348 129.981C182.339 129.199 182.234 128.421 182.033 127.665C181.77 126.08 181.559 124.496 181.427 122.9C181.148 119.927 181.18 116.932 181.524 113.965C181.524 113.946 181.532 113.927 181.546 113.913C181.56 113.899 181.579 113.891 181.599 113.891C181.618 113.891 181.637 113.899 181.651 113.913C181.665 113.927 181.673 113.946 181.673 113.965C181.607 118.09 181.848 122.214 182.394 126.304C182.691 128.265 183.681 131.223 181.627 131.526C179.574 131.829 178.195 126.881 177.926 125.526C177.271 121.662 177.121 117.73 177.48 113.828Z" fill="#263238"/>
<path d="M181.627 131.234C181.836 131.745 182.014 132.268 182.159 132.801C182.312 133.213 182.388 133.649 182.382 134.088C182.379 134.106 182.37 134.123 182.358 134.135C182.345 134.148 182.329 134.157 182.311 134.161C182.293 134.165 182.275 134.163 182.258 134.156C182.241 134.149 182.227 134.138 182.216 134.123C181.961 133.738 181.768 133.315 181.644 132.87C181.461 132.389 181.273 131.903 181.107 131.417C181.082 131.348 181.087 131.272 181.118 131.206C181.15 131.14 181.206 131.089 181.275 131.065C181.344 131.041 181.42 131.045 181.486 131.077C181.552 131.108 181.603 131.165 181.627 131.234Z" fill="#263238"/>
<path d="M207.688 127.699C204.553 127.493 171.451 123.695 171.451 123.695L171.709 110.19H173.997H204.444L207.442 126.052L207.688 127.699Z" fill="#263238"/>
<path d="M184.504 79.1763C180.718 91.0282 174.306 103.263 172.452 105.671C167.482 112.146 152.547 118.524 147.988 119.348C146.014 119.703 141.284 106.976 142.508 105.225C143.732 103.475 162.294 96.3821 163.203 95.4383C163.832 94.7805 171.663 84.6904 176.931 78.6043C183.515 71.0368 185.5 76.0761 184.504 79.1763Z" fill="#AD6359"/>
<path d="M146.472 102.754L153.805 117.626C153.805 117.626 169.392 110.871 173.104 106.049C176.817 101.227 183.543 84.8848 184.544 79.6796C185.545 74.4744 183.818 70.7564 176.845 78.364C169.873 85.9716 164.095 93.5506 162.849 94.8205C161.602 96.0903 146.472 102.754 146.472 102.754Z" fill="#EBEBEB"/>
<path d="M147.09 101.999L155.876 117.409C155.876 117.409 169.604 110.848 173.105 106.541C176.605 102.234 182.377 89.0091 184.184 81.8705C185.992 74.732 184.933 69.6698 176.851 78.4042C168.769 87.1387 164.198 93.4821 162.551 94.9064C161.767 95.5242 147.09 101.999 147.09 101.999Z" fill="#37474F"/>
<path d="M150.791 103.423C151.236 103.423 151.597 103.062 151.597 102.617C151.597 102.171 151.236 101.81 150.791 101.81C150.345 101.81 149.984 102.171 149.984 102.617C149.984 103.062 150.345 103.423 150.791 103.423Z" fill="#263238"/>
<path d="M154.595 101.673C155.04 101.673 155.401 101.312 155.401 100.867C155.401 100.421 155.04 100.06 154.595 100.06C154.149 100.06 153.788 100.421 153.788 100.867C153.788 101.312 154.149 101.673 154.595 101.673Z" fill="#263238"/>
<path d="M184.184 81.8476C182.377 88.9861 176.611 102.188 173.105 106.518C171.606 108.366 168.254 110.619 164.896 112.598L182.588 73.851C185.328 73.1074 185.414 76.997 184.184 81.8476Z" fill="#263238"/>
<path d="M209.415 122.03C209.323 122.133 169.752 122.254 169.375 121.847C168.866 121.275 177.806 78.3754 181.867 73.1073C182.731 71.9633 185.597 71.6601 188.034 71.9633C188.669 72.035 189.297 72.1632 189.91 72.3465H189.978C190.473 72.4923 190.939 72.7205 191.357 73.0215C198.129 78.4326 203.838 97.3486 205.171 103.029C207.401 112.404 209.741 121.659 209.415 122.03Z" fill="#EBEBEB"/>
<path d="M191.243 72.5183C191.243 72.5183 188.022 90.0787 187.462 94.6433C186.901 99.2078 187.725 123.318 187.725 123.318L212.573 125.154C212.573 125.154 207.201 109.195 207.139 108.183C207.139 108.183 202.677 89.0663 198.496 81.0812C196.669 77.7744 194.204 74.8638 191.243 72.5183Z" fill="#37474F"/>
<path d="M212.572 125.154L201.304 124.318L193.261 74.2856V74.32L198.306 80.7836C198.364 80.8865 198.421 80.9895 198.472 81.0925C202.654 89.1005 207.115 108.194 207.115 108.194C207.201 109.195 212.572 125.154 212.572 125.154Z" fill="#263238"/>
<path d="M181.627 72.9014C181.627 72.9014 178.99 90.6848 178.704 92.1549C178.418 93.6249 174.426 122.625 174.426 122.625L168.208 122.82L171.451 109.561C171.451 109.561 178.664 76.688 181.627 72.9014Z" fill="#37474F"/>
<path d="M185.26 82.6598L183.498 79.2278L181.221 81.7103L181.782 84.1813L184.024 84.473L185.26 82.6598Z" fill="#263238"/>
<path d="M184.024 84.4731L185.099 109.721L180.369 118.072L177.909 108.674L181.782 84.1814L184.024 84.4731Z" fill="#263238"/>
<path d="M183.033 154.254L183.001 183.907L231.942 183.958L231.973 154.306L183.033 154.254Z" fill="#D3766A"/>
<path opacity="0.1" d="M183.03 154.257L183.015 168.22L231.956 168.271L231.97 154.309L183.03 154.257Z" fill="black"/>
<path d="M181.864 163.726L233.121 163.779L233.135 149.943L181.879 149.889L181.864 163.726Z" fill="#DD6A57"/>
<path d="M196.723 142.016L196.711 149.904L200.423 149.91L200.429 145.42L214.586 145.437L214.58 149.927H218.293L218.298 142.034L196.723 142.016Z" fill="#263238"/>
<path d="M222.739 167.068L226.079 167.071L226.086 160.459L222.746 160.455L222.739 167.068Z" fill="#263238"/>
<path d="M188.894 167.04L192.234 167.044L192.241 160.431L188.901 160.428L188.894 167.04Z" fill="#263238"/>
<path d="M196.711 77.7921C207.75 87.8078 214.757 102.114 215.232 105.002C216.376 111.986 217.823 124.227 217.577 129.598C217.486 131.589 202.402 129.175 202.431 127.047C202.528 120.389 201.641 105.746 201.601 105.488C201.333 103.698 198.049 95.6499 194.737 86.9212C191.426 78.1925 192.066 73.5879 196.711 77.7921Z" fill="#AD6359"/>
<path d="M200.841 147.913C201.281 148.114 201.771 148.174 202.247 148.087C202.722 148 203.16 147.77 203.5 147.427C203.931 148.126 204.593 148.653 205.371 148.914C206.761 149.315 207.996 147.307 207.996 147.307C208.596 147.94 209.371 148.378 210.221 148.566C211.588 148.812 213.127 146.964 213.127 146.964C213.997 147.238 214.936 147.193 215.776 146.838C217.2 146.169 218.407 142.085 218.704 139.734C219.002 137.383 217.635 130.433 217.509 129.083L202.431 127.058C202.431 127.058 198.106 137.229 198.152 140.043C198.192 142.428 199.182 147.09 200.841 147.913Z" fill="#AD6359"/>
<path d="M203.272 147.29C202.625 144.779 202.757 142.211 202.745 139.648C202.745 139.636 202.75 139.624 202.759 139.616C202.767 139.607 202.779 139.602 202.791 139.602C202.803 139.602 202.815 139.607 202.823 139.616C202.832 139.624 202.837 139.636 202.837 139.648C202.837 142.199 203.306 144.722 203.409 147.273C203.411 147.291 203.406 147.309 203.395 147.324C203.384 147.338 203.367 147.348 203.349 147.35C203.331 147.352 203.312 147.347 203.298 147.336C203.283 147.325 203.274 147.308 203.272 147.29Z" fill="#263238"/>
<path d="M207.807 147.233C207.715 146.648 207.699 146.054 207.762 145.465C207.762 144.842 207.83 144.213 207.882 143.589C207.981 142.338 208.109 141.091 208.265 139.848C208.265 139.791 208.356 139.791 208.351 139.848C208.259 141.095 208.185 142.342 208.139 143.589C208.139 144.218 208.105 144.842 208.093 145.465C208.118 146.057 208.08 146.649 207.979 147.233C207.972 147.25 207.961 147.265 207.945 147.276C207.93 147.287 207.912 147.293 207.893 147.293C207.874 147.293 207.856 147.287 207.841 147.276C207.826 147.265 207.814 147.25 207.807 147.233Z" fill="#263238"/>
<path d="M213.127 146.913C213.054 146.382 213.069 145.842 213.173 145.317C213.23 144.745 213.282 144.173 213.333 143.601C213.436 142.457 213.533 141.313 213.591 140.169C213.591 140.111 213.682 140.111 213.682 140.169C213.625 141.313 213.585 142.491 213.522 143.652L213.419 145.368C213.431 145.891 213.352 146.411 213.184 146.907C213.182 146.912 213.178 146.916 213.173 146.919C213.169 146.923 213.163 146.925 213.157 146.925C213.152 146.926 213.146 146.925 213.141 146.923C213.135 146.92 213.131 146.917 213.127 146.913Z" fill="#263238"/>
<path d="M201.693 127.127L218.412 128.031C218.412 128.031 217.177 109.727 215.85 104.642C214.523 99.5566 203.197 82.6082 196.511 76.465C190.219 70.682 190.219 75.4926 192.604 82.2708C194.989 89.049 200.892 105.431 201.092 106.627C201.293 107.822 201.693 127.127 201.693 127.127Z" fill="#37474F"/>
<path d="M202.442 123.752C203.083 123.695 203.729 123.752 204.37 123.752C205.01 123.752 205.651 123.781 206.292 123.809C207.527 123.861 208.763 123.935 209.998 124.015L213.699 124.261C214.974 124.347 216.279 124.37 217.543 124.559C217.552 124.562 217.559 124.568 217.564 124.576C217.57 124.583 217.573 124.592 217.573 124.602C217.573 124.611 217.57 124.62 217.564 124.628C217.559 124.635 217.552 124.641 217.543 124.645C216.267 124.696 214.969 124.582 213.693 124.536L209.918 124.381C208.66 124.324 207.401 124.261 206.143 124.181C205.525 124.147 204.907 124.101 204.295 124.033C203.683 123.964 203.043 123.958 202.436 123.838C202.379 123.827 202.396 123.758 202.442 123.752Z" fill="#263238"/>
<path d="M184.093 78.7701C184.745 78.7415 189.075 75.3381 190.385 72.7183C190.476 72.5353 190.139 70.6706 189.841 68.3883C189.664 67.0041 189.498 65.4539 189.452 64.0297C189.452 63.7379 188.468 64.3099 188.468 64.3099L186.638 64.8133L180.598 66.495C181.167 68.2586 181.516 70.0856 181.639 71.9347C181.645 72.1262 181.632 72.318 181.599 72.5067C181.601 72.5391 181.601 72.5716 181.599 72.6039C181.467 73.7308 183.04 78.8101 184.093 78.7701Z" fill="#AD6359"/>
<path d="M181.621 72.5182C181.624 72.5505 181.624 72.5831 181.621 72.6154C181.928 72.6445 182.236 72.6445 182.542 72.6154C188.548 72.2837 189.046 64.6074 189.046 64.6074L186.672 64.7905L180.632 66.4721C181.201 68.2358 181.55 70.0628 181.673 71.9119C181.678 72.1153 181.661 72.3186 181.621 72.5182Z" fill="#263238"/>
<path d="M189.229 51.9604C190.671 54.9405 190.43 64.2413 188.514 66.6036C185.746 70.0356 180.506 71.1281 177.417 67.6332C174.426 64.2527 174.958 52.1377 177.16 49.9012C180.403 46.6523 187.101 47.556 189.229 51.9604Z" fill="#AD6359"/>
<path d="M181.256 58.7444C181.256 58.7444 181.301 58.7444 181.301 58.8016C181.267 59.4251 181.336 60.1515 181.873 60.3689C181.873 60.3689 181.873 60.4089 181.873 60.4032C181.204 60.2945 181.124 59.3335 181.256 58.7444Z" fill="#263238"/>
<path d="M181.827 58.1037C182.834 58.0465 182.874 60.0714 181.936 60.1229C180.998 60.1744 180.981 58.1495 181.827 58.1037Z" fill="#263238"/>
<path d="M177.629 58.916C177.629 58.916 177.583 58.9446 177.583 58.9732C177.612 59.5967 177.543 60.3231 176.977 60.5405V60.5748C177.675 60.4604 177.761 59.488 177.629 58.916Z" fill="#263238"/>
<path d="M177.057 58.2639C176.05 58.2067 176.005 60.2316 176.943 60.283C177.881 60.3345 177.892 58.344 177.057 58.2639Z" fill="#263238"/>
<path d="M182.611 57.1658C182.331 57.0971 182.085 56.9942 181.822 56.9026C181.53 56.8508 181.264 56.7016 181.067 56.4794C181.018 56.399 180.997 56.3045 181.009 56.211C181.02 56.1176 181.063 56.0307 181.13 55.9646C181.279 55.8499 181.457 55.7772 181.644 55.7541C181.831 55.731 182.021 55.7582 182.194 55.833C182.568 55.932 182.892 56.1664 183.103 56.4908C183.147 56.5674 183.168 56.6551 183.163 56.7432C183.158 56.8314 183.128 56.9163 183.076 56.9876C183.024 57.0589 182.952 57.1137 182.87 57.1453C182.787 57.177 182.698 57.184 182.611 57.1658Z" fill="#263238"/>
<path d="M176.256 57.2629C176.527 57.2034 176.794 57.1289 177.057 57.0398C177.349 56.9991 177.62 56.8646 177.829 56.6566C177.882 56.5785 177.908 56.4848 177.902 56.3904C177.895 56.2961 177.858 56.2065 177.795 56.1361C177.651 56.0134 177.477 55.9316 177.291 55.8994C177.105 55.8672 176.913 55.8857 176.737 55.953C176.359 56.033 176.024 56.2513 175.798 56.5651C175.751 56.6394 175.726 56.7258 175.727 56.814C175.727 56.9021 175.753 56.9882 175.802 57.0619C175.85 57.1356 175.919 57.1938 175.999 57.2294C176.08 57.2651 176.169 57.2767 176.256 57.2629Z" fill="#263238"/>
<path d="M181.244 62.6855C181.09 62.9361 180.885 63.1519 180.643 63.3193C180.4 63.4867 180.126 63.602 179.837 63.6579C179.585 63.7124 179.327 63.7297 179.07 63.7094C179.021 63.7153 178.971 63.7153 178.922 63.7094H178.784C178.751 63.7033 178.721 63.6866 178.699 63.6618C178.676 63.6371 178.662 63.6056 178.659 63.5721C178.656 63.5512 178.656 63.5301 178.659 63.5092V63.452C178.659 62.9715 178.659 62.2393 178.659 62.2393C178.481 62.3309 177.589 62.7484 177.6 62.4967C177.619 60.3216 177.859 58.1541 178.315 56.0274C178.315 56.0122 178.321 55.9977 178.332 55.987C178.343 55.9762 178.357 55.9702 178.373 55.9702C178.388 55.9702 178.402 55.9762 178.413 55.987C178.424 55.9977 178.43 56.0122 178.43 56.0274C178.43 58.0409 178.064 60.0314 178.029 62.0563C178.346 61.9014 178.683 61.7916 179.03 61.7303C179.099 61.7303 178.939 63.1488 178.968 63.3662C179.363 63.3988 179.761 63.3513 180.137 63.2264C180.513 63.1016 180.861 62.9021 181.158 62.6397C181.233 62.594 181.278 62.634 181.244 62.6855Z" fill="#263238"/>
<path d="M179.351 63.4576C179.619 63.7982 179.972 64.0624 180.375 64.2241C180.596 64.3068 180.838 64.3188 181.067 64.2584C181.57 64.1154 181.57 63.6864 181.473 63.2632C181.417 63.0642 181.338 62.8723 181.238 62.6912C180.707 63.1407 180.045 63.4092 179.351 63.4576Z" fill="#263238"/>
<path d="M180.375 64.2241C180.596 64.3069 180.838 64.3189 181.067 64.2585C181.57 64.1155 181.57 63.6865 181.473 63.2632C181.209 63.2787 180.958 63.3815 180.759 63.5555C180.56 63.7295 180.425 63.9648 180.375 64.2241Z" fill="#FF9ABB"/>
<path d="M175.879 53.013C176.205 52.2122 176.588 51.4057 177.063 51.2341C177.538 51.0625 177.875 52.2294 178.968 52.2809C180.438 52.3552 181.124 50.9939 183.177 50.8108C186.123 50.5477 187.468 52.9902 187.622 57.1772C187.754 60.9124 190.024 61.2212 190.024 61.2212C190.024 61.2212 191.237 52.9501 188.88 50.2617C186.524 47.5733 181.147 46.4694 177.612 49.1177C176.302 50.1187 175.879 53.013 175.879 53.013Z" fill="#263238"/>
<path d="M188.108 59.7855C188.108 59.7855 189.761 56.5766 191.191 57.1257C192.621 57.6748 191.654 62.1364 190.167 62.9315C189.984 63.0459 189.779 63.122 189.565 63.1551C189.352 63.1883 189.133 63.1778 188.924 63.1243C188.714 63.0709 188.518 62.9756 188.346 62.8441C188.174 62.7127 188.031 62.5478 187.925 62.3595L188.108 59.7855Z" fill="#AD6359"/>
<path d="M190.882 58.4014C190.882 58.4014 190.917 58.43 190.882 58.4414C189.847 59.0134 189.407 60.1231 189.166 61.2328C189.215 61.1138 189.288 61.0068 189.382 60.9192C189.476 60.8317 189.588 60.7657 189.71 60.7259C189.832 60.6862 189.961 60.6735 190.089 60.689C190.216 60.7044 190.339 60.7475 190.448 60.8152C190.476 60.8152 190.448 60.8781 190.448 60.8781C190.247 60.8424 190.04 60.87 189.855 60.9571C189.671 61.0443 189.518 61.1865 189.418 61.3643C189.251 61.6615 189.117 61.9761 189.018 62.3024C188.983 62.4111 188.795 62.3825 188.818 62.2624C188.577 60.8438 189.401 58.7446 190.882 58.4014Z" fill="#263238"/>
<path d="M181.593 72.7355L183.75 78.0322L190.293 71.3398L192.158 73.4791C192.158 73.4791 185.763 84.084 185.723 83.6207L183.538 79.079L180.409 82.2479L180.644 74.3028L181.593 72.7355Z" fill="#EBEBEB"/>
<path d="M180.3 78.3184C180.386 77.0085 180.432 75.6815 180.575 74.3773C180.575 74.3316 180.655 74.3144 180.666 74.3773C180.929 75.6414 180.586 80.6693 180.592 81.8534C180.723 81.7161 183.492 79.0677 183.52 79.1078C183.995 79.8285 185.597 83.1118 185.705 83.4378C186.718 81.7504 190.59 75.6186 191.792 74.0227C191.799 74.0163 191.808 74.0124 191.818 74.0116C191.828 74.0108 191.837 74.0132 191.846 74.0183C191.854 74.0234 191.86 74.031 191.864 74.04C191.868 74.049 191.868 74.059 191.866 74.0684C190.991 75.8188 185.866 84.0842 185.786 84.0842C184.942 82.5224 184.178 80.9187 183.498 79.2794C183.029 79.8514 180.231 82.8544 180.22 82.6599C180.171 81.2123 180.198 79.7632 180.3 78.3184Z" fill="#263238"/>
<path d="M107.708 78.1924C114.903 92.3952 122.214 126.561 122.894 131.131C123.358 134.237 107.027 137.046 107.027 134.895C107.027 132.138 103.732 99.8884 104.047 87.1442C104.219 80.1143 106.221 75.2581 107.708 78.1924Z" fill="#EB9481"/>
<path d="M106.964 133.534C106.701 135.404 107.324 141.885 108.548 146.69C109.12 149.035 111.569 155.584 113.405 155.27C115.241 154.955 114.697 152.982 114.697 152.982C114.697 152.982 116.139 155.59 117.952 155.104C119.765 154.617 118.833 151.563 118.833 151.563C118.833 151.563 120.503 154.143 122.265 153.525C124.027 152.907 122.58 149.996 122.58 149.996C122.58 149.996 124.004 152.427 125.251 151.3C126.755 149.944 123.632 145.769 123.106 143.143C122.986 142.571 121.527 130.891 121.527 130.891L106.964 133.534Z" fill="#EB9481"/>
<path d="M122.602 149.956C120.314 146.878 119.845 145.134 119.559 141.376C119.555 141.363 119.547 141.352 119.537 141.344C119.526 141.336 119.513 141.332 119.499 141.332C119.486 141.332 119.473 141.336 119.462 141.344C119.451 141.352 119.443 141.363 119.439 141.376C119.388 145.088 119.662 147.359 122.459 150.087C122.597 150.207 122.711 150.099 122.602 149.956Z" fill="#263238"/>
<path d="M118.879 151.729C116.78 148.325 116.253 146.438 115.658 142.52C115.658 142.462 115.555 142.468 115.561 142.52C115.819 146.415 116.133 148.674 118.69 151.803C118.804 151.952 118.976 151.883 118.879 151.729Z" fill="#263238"/>
<path d="M114.532 152.724C112.741 149.292 112.078 147.239 111.992 143.361C111.987 143.345 111.978 143.331 111.965 143.322C111.952 143.312 111.937 143.307 111.92 143.307C111.904 143.307 111.889 143.312 111.876 143.322C111.863 143.331 111.853 143.345 111.849 143.361C111.551 147.325 112.364 149.881 114.423 152.776C114.566 152.942 114.646 152.919 114.532 152.724Z" fill="#263238"/>
<path d="M122.791 130.319C122.791 130.319 125.423 134.323 126.189 136.365C126.956 138.407 127.041 146.97 125.188 147.096C122.797 147.256 121.756 142.308 121.585 139.82C121.585 139.82 116.048 140.192 114.549 136.8C113.05 133.408 122.791 130.319 122.791 130.319Z" fill="#EB9481"/>
<path d="M124.519 146.918C122.231 145.494 122.196 142.211 121.836 139.808C121.832 139.772 121.82 139.738 121.8 139.708C121.78 139.678 121.754 139.653 121.722 139.636C121.691 139.619 121.655 139.609 121.619 139.608C121.584 139.607 121.548 139.615 121.516 139.631C119.188 139.631 115.899 138.956 114.491 136.943C114.489 136.935 114.484 136.928 114.478 136.922C114.472 136.916 114.465 136.912 114.457 136.909C114.449 136.906 114.441 136.905 114.432 136.906C114.424 136.907 114.416 136.909 114.409 136.914C114.402 136.918 114.396 136.924 114.391 136.93C114.386 136.937 114.383 136.945 114.382 136.953C114.38 136.961 114.381 136.97 114.383 136.978C114.385 136.986 114.389 136.993 114.394 137C115.607 139.368 118.787 140.294 121.338 140.129C121.67 142.594 121.847 145.889 124.501 146.941C124.519 146.947 124.53 146.93 124.519 146.918Z" fill="#263238"/>
<path d="M124.461 129.358L105.912 132.218C105.912 132.218 102.954 97.7779 102.846 86.2177C102.737 74.6576 106.89 71.8262 111.346 83.6495C115.801 95.4727 124.461 129.358 124.461 129.358Z" fill="#3398DB"/>
<path d="M105.82 129.318C113.41 127.602 121.641 126.967 123.071 126.755C123.14 126.755 123.146 126.853 123.071 126.858C121.664 126.996 112.329 128.752 105.82 129.432C105.768 129.438 105.763 129.329 105.82 129.318Z" fill="#263238"/>
<path d="M146.936 255.467C145.649 255.884 107.925 255.318 106.541 254.409C106.375 254.306 106.352 250.897 106.398 246.223L104.562 218.464L128.431 218.533L130.319 242.557C130.319 242.557 135.673 245.028 140.089 247.19C142.021 248.068 143.898 249.061 145.711 250.164C147.136 251.354 148.223 255.055 146.936 255.467Z" fill="#EB9481"/>
<path d="M146.936 255.467C145.649 255.884 107.925 255.318 106.541 254.408C106.375 254.306 106.352 250.896 106.398 246.223C115.716 248.3 140.563 251.663 141.29 249.712C141.582 248.929 140.987 248.042 140.1 247.224C142.032 248.102 143.91 249.095 145.723 250.199C147.136 251.354 148.223 255.055 146.936 255.467Z" fill="#263238"/>
<path d="M94.4829 117.432C94.4829 117.432 101.244 189.172 101.393 190.041C101.393 190.156 101.467 191.483 101.53 193.639C101.907 205.474 102.834 242.379 102.834 242.379H131.194C131.194 242.379 129.346 198.667 128.282 188.474C126.927 175.461 118.593 117.432 118.593 117.432H94.4829Z" fill="#37474F"/>
<path d="M104.774 192.467C103.9 177.572 102.587 162.7 100.832 147.851C99.8371 139.499 98.6359 131.177 97.4462 122.849C97.4462 122.774 97.3203 122.78 97.3318 122.849C99.5283 137.669 101.078 152.593 102.417 167.527C103.755 182.462 104.705 197.363 105.277 212.315C105.626 220.781 105.889 229.258 106.158 237.729C106.165 237.766 106.184 237.799 106.213 237.822C106.242 237.846 106.278 237.859 106.315 237.859C106.352 237.859 106.388 237.846 106.417 237.822C106.446 237.799 106.465 237.766 106.472 237.729C106.095 222.651 105.66 207.55 104.774 192.467Z" fill="#263238"/>
<path d="M129.404 237.809C128.66 237.712 127.853 237.741 127.116 237.718C126.269 237.718 125.4 237.678 124.564 237.649C122.923 237.586 121.275 237.54 119.634 237.517C116.322 237.46 113.004 237.483 109.698 237.586L106.964 237.683C105.992 237.718 105.019 237.809 104.047 237.803C103.978 237.803 103.978 237.889 104.047 237.889C105.711 237.889 107.399 238.032 109.069 238.095C110.739 238.158 112.352 238.181 113.994 238.204C117.306 238.25 120.629 238.204 123.935 238.101C124.845 238.067 125.754 238.055 126.664 238.027L128.128 237.952C128.563 237.952 128.992 237.952 129.426 237.912C129.484 237.912 129.478 237.821 129.404 237.809Z" fill="#263238"/>
<path d="M114.972 117.432L102.016 210.874C101.833 203.907 101.65 197.466 101.53 193.639C101.467 191.483 101.416 190.156 101.393 190.041C101.233 189.172 94.4829 117.432 94.4829 117.432H114.972Z" fill="#263238"/>
<path d="M99.4252 260.443C98.0752 260.335 63.4692 245.302 62.5426 243.93C62.4282 243.775 63.6866 240.618 65.557 236.322L73.1875 209.438L95.2667 218.298L89.0376 242.168C89.0376 242.168 93.0417 246.509 96.2792 250.176C97.7252 251.732 99.0775 253.373 100.329 255.089C101.193 256.72 100.769 260.558 99.4252 260.443Z" fill="#EB9481"/>
<path d="M99.4252 260.443C98.0753 260.334 63.4692 245.302 62.5426 243.929C62.4282 243.775 63.6866 240.617 65.557 236.322C73.3648 241.824 95.0036 254.477 96.445 252.956C97.017 252.349 96.8054 251.297 96.302 250.199C97.7481 251.755 99.1003 253.395 100.352 255.112C101.193 256.719 100.769 260.557 99.4252 260.443Z" fill="#263238"/>
<path d="M63.0745 233.553L90.7421 242.133C90.7421 242.133 104.253 194.743 105.288 183.612C106.312 172.578 107.302 150.036 107.742 133.682C107.742 133.682 112.364 130.948 113.536 129.455C114.709 127.962 115.761 122.591 118.072 117.443H84.2213C76.1332 133.156 82.2193 140.146 82.2193 143.572C82.2193 160.114 79.7197 182.073 78.9246 185.328C77.2658 192.112 63.0745 233.553 63.0745 233.553Z" fill="#37474F"/>
<path d="M90.6793 236.082C89.9872 235.796 89.2036 235.618 88.4829 235.395C87.6649 235.149 86.8412 234.92 86.029 234.669C84.4617 234.183 82.883 233.719 81.3043 233.273C78.1201 232.365 74.9131 231.53 71.6832 230.768L69.0177 230.156C68.0739 229.938 67.1072 229.772 66.1577 229.521C66.0833 229.521 66.0662 229.584 66.1577 229.607C67.7707 230.03 69.3609 230.608 70.9568 231.099C72.5527 231.591 74.1085 232.032 75.6872 232.484C78.8733 233.382 82.0879 234.2 85.314 234.949C86.2063 235.149 87.0872 235.372 87.9738 235.584L89.3981 235.899C89.8213 235.996 90.2332 236.133 90.6622 236.196C90.6774 236.198 90.6928 236.194 90.7051 236.185C90.7175 236.176 90.7257 236.163 90.728 236.147C90.7302 236.132 90.7264 236.117 90.7173 236.104C90.7082 236.092 90.6945 236.084 90.6793 236.082Z" fill="#263238"/>
<path d="M114.326 129.083C112.71 129.826 111.177 130.734 109.75 131.795C108.234 132.836 106.838 134.031 105.38 135.147C105.323 135.192 105.38 135.284 105.437 135.244C106.976 134.26 108.589 133.396 110.11 132.384C111.638 131.457 113.078 130.392 114.412 129.203C114.452 129.158 114.4 129.055 114.326 129.083Z" fill="#263238"/>
<path d="M114.537 119.548C114.343 120.601 114.086 121.647 113.857 122.694C113.628 123.741 113.485 124.679 113.228 125.651C113.015 126.592 112.536 127.452 111.849 128.128C111.466 128.488 111.037 128.803 110.625 129.135C110.408 129.312 110.167 129.478 109.939 129.661C109.967 129.518 109.99 129.381 110.013 129.232C110.087 128.837 110.156 128.437 110.219 128.037C110.368 127.15 110.511 126.258 110.648 125.371C110.917 123.621 111.163 121.853 111.529 120.12C111.533 120.105 111.53 120.089 111.522 120.075C111.514 120.062 111.501 120.052 111.486 120.049C111.471 120.045 111.455 120.047 111.441 120.055C111.428 120.063 111.418 120.076 111.414 120.091C110.98 121.807 110.499 123.523 110.122 125.239C109.933 126.086 109.269 130.273 109.241 130.57C109.212 130.868 109.184 131.183 109.172 131.491C109.135 131.805 109.135 132.122 109.172 132.435C109.172 132.51 109.286 132.498 109.315 132.435C109.443 132.145 109.534 131.839 109.584 131.526C109.658 131.228 109.727 130.925 109.778 130.622C109.778 130.513 109.813 130.399 109.83 130.284C110.242 130.033 110.625 129.712 111.014 129.426C111.403 129.14 111.849 128.854 112.244 128.5C112.971 127.886 113.495 127.066 113.748 126.149C114.002 125.161 114.169 124.152 114.246 123.134C114.377 121.945 114.475 120.749 114.64 119.565C114.658 119.548 114.549 119.491 114.537 119.548Z" fill="#263238"/>
<path d="M113.828 73.9369C113.285 80.6579 112.61 87.5676 111.042 94.1342C109.818 99.2479 107.038 103.223 101.49 103.755C96.3419 104.247 89.2205 103.183 85.4453 99.2879C83.6835 97.4747 83.3003 95.1981 83.7636 92.7728C84.41 89.4038 89.6552 71.1684 91.2511 65.4713C92.2235 62.005 93.1845 58.4872 94.7632 55.2268C98.0693 48.3628 101.627 48.9348 102.119 48.849C102.582 48.6316 105.465 47.7965 109.172 49.5582C110.147 50.0135 111.015 50.6697 111.719 51.484C112.423 52.2982 112.947 53.2521 113.256 54.283C115.224 60.4148 114.354 67.6449 113.828 73.9369Z" fill="#263238"/>
<path d="M100.895 49.6896C96.3592 51.0968 94.7004 55.6156 93.0988 59.6424C90.868 65.2538 88.7287 70.9051 86.864 76.6537C85.9717 79.4165 85.148 82.2021 84.3872 85.0049C83.6722 87.6933 82.7398 90.5362 82.5454 93.3218C82.225 97.8978 86.1147 100.575 90.0729 101.782C90.1123 101.795 90.1553 101.791 90.1923 101.773C90.2293 101.754 90.2573 101.721 90.2702 101.682C90.2831 101.642 90.2798 101.599 90.261 101.562C90.2423 101.525 90.2096 101.497 90.1701 101.484C87.9279 100.712 85.6685 99.7682 84.187 97.8063C82.2822 95.3124 82.9343 92.4867 83.5807 89.6724C84.6904 84.8791 86.0689 80.1601 87.5847 75.4926C89.1005 70.825 90.8508 66.2033 92.6354 61.6216C94.3514 57.2572 95.9359 51.4228 100.884 49.764C100.958 49.764 100.941 49.6725 100.895 49.6896Z" fill="#263238"/>
<path d="M114.52 59.4251C114.188 55.8273 112.838 52.1779 109.309 50.6621C113.851 52.8243 114.297 58.1725 114.331 62.5883C114.369 67.2444 114.238 71.8928 113.937 76.5337C113.651 81.001 113.262 85.4912 112.57 89.9128C111.82 94.6832 110.339 99.0648 106.975 102.605C106.968 102.612 106.962 102.62 106.957 102.629C106.953 102.639 106.951 102.648 106.95 102.659C106.95 102.669 106.951 102.679 106.954 102.688C106.958 102.698 106.963 102.707 106.97 102.714C106.976 102.722 106.985 102.728 106.994 102.732C107.003 102.736 107.013 102.739 107.023 102.739C107.033 102.74 107.043 102.739 107.053 102.735C107.062 102.732 107.071 102.727 107.078 102.72C110.299 99.9113 111.826 95.6442 112.61 91.5601C113.555 86.1383 114.142 80.66 114.366 75.1609C114.663 69.9843 115.001 64.6361 114.52 59.4251Z" fill="#263238"/>
<path d="M100.626 74.8521C100.844 75.4241 104.179 78.9133 106.878 78.4385C107.754 78.2784 107.107 73.445 107.107 73.445L107.142 73.0789L107.611 67.9309L101.244 64.9222L100.335 64.5332C100.335 64.5332 100.295 65.9518 100.272 67.7135C100.272 67.7993 100.272 67.8794 100.272 67.9652C100.266 68.0624 100.266 68.1598 100.272 68.2569C100.272 68.52 100.272 68.7889 100.272 69.0577C100.272 69.3266 100.272 69.4581 100.272 69.6698C100.272 69.8814 100.272 70.0988 100.272 70.3104C100.287 71.8306 100.405 73.348 100.626 74.8521Z" fill="#EB9481"/>
<path d="M100.272 67.7135C100.958 69.0522 101.928 70.2255 103.113 71.152C104.298 72.0785 105.671 72.736 107.136 73.0789L107.605 67.9309L101.244 64.9222L100.335 64.5332C100.335 64.5332 100.295 65.9518 100.272 67.7135Z" fill="#263238"/>
<path d="M114.154 60.3518C114.875 69.3894 109.544 70.8423 107.593 70.9967C105.82 71.134 99.7739 71.3857 98.1266 62.4625C96.4792 53.5393 100.455 50.3361 104.487 49.8213C108.52 49.3065 113.439 51.3085 114.154 60.3518Z" fill="#EB9481"/>
<path d="M112.633 58.4298C112.426 58.3995 112.222 58.3575 112.021 58.304C111.797 58.2905 111.584 58.2041 111.414 58.058C111.371 58.0013 111.348 57.932 111.348 57.8607C111.348 57.7894 111.371 57.7201 111.414 57.6634C111.516 57.5649 111.642 57.4951 111.78 57.461C111.918 57.4269 112.062 57.4296 112.198 57.4689C112.489 57.5056 112.756 57.653 112.942 57.8807C112.982 57.934 113.006 57.998 113.011 58.0649C113.015 58.1317 113 58.1984 112.967 58.2568C112.935 58.3151 112.885 58.3626 112.826 58.3934C112.766 58.4241 112.699 58.4368 112.633 58.4298Z" fill="#263238"/>
<path d="M106.615 58.5558C106.827 58.5272 107.016 58.47 107.227 58.4242C107.44 58.4004 107.64 58.3104 107.799 58.1668C107.843 58.1105 107.867 58.041 107.867 57.9695C107.867 57.898 107.843 57.8285 107.799 57.7722C107.696 57.6742 107.568 57.6056 107.43 57.5734C107.291 57.5413 107.146 57.5467 107.01 57.5891C106.722 57.6353 106.461 57.786 106.278 58.0124C106.236 58.0677 106.212 58.1342 106.209 58.2033C106.206 58.2724 106.224 58.3408 106.261 58.3995C106.297 58.4582 106.351 58.5046 106.414 58.5325C106.477 58.5604 106.547 58.5685 106.615 58.5558Z" fill="#263238"/>
<path d="M108.028 60.8379C108.028 60.8379 107.982 60.8379 107.982 60.8894C108.022 61.5071 107.982 62.2221 107.41 62.4452C107.41 62.4452 107.41 62.4853 107.41 62.4795C108.108 62.348 108.165 61.4156 108.028 60.8379Z" fill="#263238"/>
<path d="M107.456 60.2088C106.461 60.1688 106.449 62.1594 107.37 62.1994C108.291 62.2394 108.291 60.2432 107.456 60.2088Z" fill="#263238"/>
<path d="M107.067 60.3118C106.89 60.4262 106.718 60.6207 106.495 60.6436C106.272 60.6665 106.072 60.4548 105.923 60.2546H105.889C105.889 60.6322 106.02 61.0268 106.461 61.084C106.901 61.1412 107.107 60.8038 107.204 60.4205C107.199 60.3748 107.136 60.2661 107.067 60.3118Z" fill="#263238"/>
<path d="M111.46 60.7007C111.46 60.7007 111.506 60.7007 111.506 60.7522C111.477 61.3699 111.546 62.0849 112.107 62.2966C112.107 62.2966 112.107 62.3366 112.107 62.3309C111.42 62.2279 111.334 61.2784 111.46 60.7007Z" fill="#263238"/>
<path d="M112.021 60.06C113.01 60.0028 113.062 61.9934 112.141 62.0506C111.22 62.1078 111.186 60.1115 112.021 60.06Z" fill="#263238"/>
<path d="M112.438 60.1859C112.598 60.2831 112.759 60.4719 112.947 60.4833C113.136 60.4948 113.319 60.2717 113.456 60.0601H113.485C113.485 60.4376 113.388 60.838 113.027 60.9181C112.667 60.9981 112.455 60.6721 112.341 60.3003C112.324 60.2488 112.375 60.1401 112.438 60.1859Z" fill="#263238"/>
<path d="M110.556 63.492C110.556 63.492 110.688 64.4129 110.688 64.8476C110.688 64.8934 110.585 64.9105 110.436 64.922C110.063 64.9926 109.678 64.9589 109.322 64.8247C108.967 64.6905 108.656 64.4609 108.423 64.1612C108.414 64.1521 108.41 64.1401 108.41 64.1277C108.411 64.1154 108.416 64.1038 108.425 64.0954C108.435 64.0871 108.447 64.0827 108.459 64.0832C108.471 64.0838 108.483 64.0892 108.491 64.0983C109.046 64.476 109.709 64.6627 110.379 64.6303C110.407 64.5101 110.099 63.0573 110.167 63.0515C110.505 63.0786 110.838 63.1518 111.157 63.2689C110.939 61.3413 110.413 59.4651 110.219 57.5489C110.219 57.5337 110.225 57.5192 110.235 57.5085C110.246 57.4977 110.261 57.4917 110.276 57.4917C110.291 57.4917 110.306 57.4977 110.316 57.5085C110.327 57.5192 110.333 57.5337 110.333 57.5489C110.96 59.5436 111.388 61.5957 111.609 63.675C111.626 63.8695 110.728 63.5492 110.556 63.492Z" fill="#263238"/>
<path d="M111.254 61.3012C111.117 59.8255 111.797 58.5556 112.77 58.4412C113.742 58.3268 114.652 59.4708 114.789 60.9466C114.926 62.4224 114.217 63.6922 113.273 63.8066C112.329 63.921 111.391 62.777 111.254 61.3012ZM111.614 61.2669C111.734 62.5425 112.461 63.5206 113.239 63.452C114.017 63.3833 114.554 62.2794 114.434 61.0038C114.314 59.7282 113.582 58.7501 112.804 58.8188C112.026 58.8874 111.494 59.9914 111.614 61.2669Z" fill="#263238"/>
<path d="M104.533 61.9362C104.521 61.4473 104.652 60.9654 104.91 60.5499C105.167 60.1343 105.541 59.803 105.984 59.5967C106.428 59.3904 106.922 59.318 107.406 59.3885C107.89 59.459 108.342 59.6693 108.708 59.9936C109.075 60.3178 109.338 60.7419 109.466 61.2138C109.595 61.6856 109.583 62.1847 109.432 62.6498C109.28 63.1149 108.997 63.5257 108.615 63.8318C108.234 64.1379 107.771 64.3259 107.285 64.3729C106.597 64.412 105.922 64.1779 105.407 63.7214C104.891 63.2649 104.577 62.6232 104.533 61.9362ZM104.894 61.9018C104.966 62.3131 105.157 62.6943 105.443 62.9988C105.729 63.3033 106.098 63.518 106.503 63.6167C106.909 63.7153 107.335 63.6937 107.729 63.5544C108.123 63.415 108.467 63.1641 108.721 62.8321C108.974 62.5002 109.126 62.1016 109.156 61.685C109.187 61.2685 109.096 60.852 108.894 60.4865C108.692 60.1209 108.388 59.8221 108.019 59.6265C107.649 59.4309 107.231 59.347 106.816 59.385C106.227 59.4647 105.695 59.7744 105.334 60.2462C104.974 60.7179 104.816 61.3134 104.894 61.9018Z" fill="#263238"/>
<path d="M109.384 61.2327C110.676 60.6607 111.323 61.0211 111.328 61.0268L111.523 60.7236C111.494 60.7236 110.728 60.2203 109.235 60.9067L109.384 61.2327Z" fill="#263238"/>
<path d="M104.676 61.6846L104.71 61.3242C104.47 61.3242 98.9217 60.8094 98.3268 60.8323C97.732 60.8552 96.3191 61.8104 96.1647 61.9191L96.3706 62.2165C96.9582 61.7721 97.6154 61.4281 98.3154 61.1984H98.384C98.8188 61.2041 102.703 61.5072 104.676 61.6846Z" fill="#263238"/>
<path d="M98.3842 61.8162C99.3623 61.759 101.913 59.0534 101.993 54.3173C101.993 54.3173 101.627 58.5672 101.313 59.1907C100.998 59.8142 102.737 57.6692 102.851 53.854C104.056 54.7136 105.378 55.3973 106.775 55.8845C108.577 56.3879 109.681 56.3707 109.813 56.2392C109.944 56.1076 107.285 55.2725 106.564 54.4488C106.564 54.4488 111.369 56.6739 113.576 56.8455C113.834 56.8455 114.148 51.6003 110.716 49.3695C107.284 47.1387 101.879 49.5525 100.42 50.9596C100.42 50.9596 98.7045 51.1999 96.8569 53.7338C95.0094 56.2678 97.3317 61.8791 98.3842 61.8162Z" fill="#263238"/>
<path d="M99.6197 63.046C99.6197 63.046 97.6577 60.186 96.3707 60.8953C95.0837 61.6046 96.5366 65.7058 98.0409 66.2778C98.2289 66.3645 98.4324 66.4123 98.6393 66.4185C98.8461 66.4246 99.0521 66.389 99.2449 66.3137C99.4377 66.2384 99.6133 66.125 99.7612 65.9802C99.9092 65.8355 100.026 65.6624 100.106 65.4713L99.6197 63.046Z" fill="#EB9481"/>
<path d="M96.8169 62.062V62.1021C97.8694 62.5425 98.4185 63.5263 98.8017 64.5445C98.7417 64.4376 98.659 64.3451 98.5595 64.2736C98.46 64.202 98.346 64.1531 98.2256 64.1302C98.1052 64.1073 97.9812 64.111 97.8623 64.1411C97.7435 64.1711 97.6327 64.2268 97.5376 64.3043C97.5376 64.3043 97.5376 64.3672 97.5662 64.3614C97.7525 64.303 97.9523 64.3041 98.1379 64.3646C98.3234 64.4251 98.4855 64.542 98.6015 64.6989C98.795 64.9609 98.9599 65.2428 99.0935 65.5398C99.1392 65.637 99.3108 65.5855 99.2765 65.4769C99.2994 64.1041 98.2641 62.2107 96.8169 62.062Z" fill="#263238"/>
<path d="M99.3052 66.0719C99.3063 66.2033 99.2683 66.3322 99.1961 66.442C99.1239 66.5519 99.0207 66.6378 98.8995 66.6889C98.7784 66.74 98.6448 66.754 98.5157 66.729C98.3867 66.7041 98.2679 66.6414 98.1745 66.5488C98.0812 66.4562 98.0174 66.338 97.9913 66.2091C97.9653 66.0803 97.9781 65.9466 98.0281 65.825C98.0782 65.7034 98.1632 65.5995 98.2724 65.5263C98.3817 65.4531 98.5102 65.4141 98.6416 65.4141C98.8166 65.4141 98.9845 65.4832 99.1088 65.6064C99.2331 65.7296 99.3037 65.8969 99.3052 66.0719Z" fill="white"/>
<path d="M119.548 120.492C119.548 120.492 89.0833 120.944 81.5215 120.412C81.5215 120.412 87.6876 85.4626 95.8215 76.6309C96.1245 76.2991 96.4452 75.984 96.7824 75.6871C97.2801 75.2695 97.2114 71.9348 97.446 71.6831C97.6805 71.4314 107.565 72.7298 107.69 72.9701C107.816 73.2103 108.325 76.3563 108.325 76.3563C110.568 79.2163 117.781 89.1005 118.621 93.1788C119.462 97.2572 116.814 101.759 116.814 101.759L119.548 120.492Z" fill="#F39C12"/>
<path d="M93.4934 82.8656C91.6916 91.5486 92.7613 110.322 96.9254 113.754C103.789 119.371 120.286 121.012 124.89 121.556C126.875 121.79 130.828 108.8 129.466 107.124C128.105 105.448 107.828 102.84 106.861 101.976C106.192 101.358 103.04 90.0156 100.323 83.6207C96.668 74.9663 94.1512 79.6624 93.4934 82.8656Z" fill="#EB9481"/>
<path d="M126.035 106.077C126.035 106.077 132.121 106.015 136.102 106.163C138.327 106.243 142.119 106.735 143.726 107.536C146.123 108.743 155.39 115.321 153.839 117.603C152.438 119.668 149.681 116.951 149.681 116.951C149.681 116.951 152.976 119.634 150.957 121.258C148.937 122.883 145.671 119.005 145.671 119.005C145.671 119.005 149.366 121.613 147.044 123.134C145.031 124.462 140.804 120.389 140.804 120.389C140.804 120.389 144.985 122.677 143.052 124.261C140.918 125.977 133.814 120.669 133.814 120.669C128.723 121.813 125.514 121.813 121.773 121.201C121.087 121.087 126.035 106.077 126.035 106.077Z" fill="#EB9481"/>
<path d="M146.69 119.909L145.86 119.033C145.347 118.453 144.801 117.903 144.224 117.386C143.652 116.894 143.08 116.425 142.451 115.979C141.822 115.533 141.113 115.087 140.483 114.6C140.432 114.56 140.375 114.635 140.432 114.669C141.057 115.151 141.656 115.664 142.228 116.208C142.8 116.723 143.372 117.249 143.944 117.769C144.516 118.29 145.088 118.753 145.66 119.251C145.94 119.497 146.232 119.754 146.489 120.012C146.733 120.276 146.999 120.519 147.284 120.738C147.313 120.738 147.347 120.738 147.33 120.692C147.145 120.409 146.931 120.146 146.69 119.909Z" fill="#263238"/>
<path d="M150.356 117.523C149.438 116.414 148.444 115.371 147.381 114.4C146.305 113.436 145.134 112.583 143.887 111.855C143.841 111.855 143.795 111.889 143.829 111.923C144.905 112.89 145.997 113.84 147.09 114.783C147.622 115.247 149.978 117.432 150.253 117.643C150.316 117.678 150.396 117.586 150.356 117.523Z" fill="#263238"/>
<path d="M143.298 122.242C142.407 121.219 141.452 120.254 140.438 119.354C139.321 118.532 138.145 117.793 136.92 117.146C136.874 117.146 136.828 117.192 136.868 117.22C137.978 118.044 139.099 118.839 140.169 119.714C140.695 120.143 142.674 121.962 143.212 122.322C143.269 122.357 143.332 122.288 143.298 122.242Z" fill="#263238"/>
<path d="M120.326 122.093L127.585 105.168C127.585 105.168 107.702 101.879 107.09 101.479C106.478 101.078 102.851 87.8764 100.523 82.6941C98.1954 77.5117 94.1971 74.4687 92.6527 85.5941C91.1083 96.7195 93.3449 110.304 95.5814 113.13C98.2927 116.551 109.029 120.881 120.326 122.093Z" fill="#F39C12"/>
<path d="M110.11 119.954C107.136 119.148 104.235 117.741 101.393 116.522C98.9502 115.498 96.4563 114.234 95.1007 111.838C94.4686 110.617 94.0269 109.308 93.7908 107.954C93.4762 106.444 93.2188 104.916 93.0014 103.378C92.7383 101.624 92.5019 99.8657 92.2921 98.1039C92.1892 97.2002 92.0862 96.2964 91.9947 95.3926C91.9032 94.4889 91.7373 93.5851 91.703 92.6756C91.703 92.6635 91.6982 92.6519 91.6896 92.6433C91.681 92.6347 91.6694 92.6299 91.6572 92.6299C91.6451 92.6299 91.6334 92.6347 91.6249 92.6433C91.6163 92.6519 91.6115 92.6635 91.6115 92.6756C91.6744 93.5108 91.6115 94.3516 91.6801 95.1924C91.6801 95.7644 91.7487 96.2907 91.7888 96.8398L91.6286 96.4909C91.4524 96.0902 91.3183 95.6723 91.2282 95.2439C91.2282 95.1924 91.131 95.2153 91.1424 95.2439C91.2454 95.6729 91.3483 96.1076 91.4685 96.5309C91.5257 96.7368 91.5943 96.9428 91.6744 97.1487C91.7223 97.287 91.7776 97.4225 91.8403 97.5548C91.9775 99.1983 92.1549 100.834 92.3722 102.463C92.5839 104.041 92.8298 105.609 93.1101 107.176C93.3176 108.562 93.6862 109.919 94.2083 111.22C94.7277 112.446 95.5223 113.536 96.5307 114.406C97.5755 115.264 98.7296 115.979 99.9627 116.534C102.751 117.822 105.632 118.896 108.583 119.748C112.112 120.858 113.187 120.784 110.11 119.954Z" fill="#263238"/>
<path d="M117.575 103.406C116.842 103.309 108.188 101.49 107.851 101.393C107.682 101.341 107.529 101.247 107.408 101.118C107.286 100.99 107.2 100.832 107.159 100.661C106.89 99.9627 106.655 99.2477 106.403 98.5442C105.969 97.3315 105.526 96.1246 105.076 94.9234C105.076 94.6545 105.025 94.3514 104.996 94.1169C104.968 93.8823 104.911 93.4762 104.859 93.1559C104.745 92.4638 104.539 91.7831 104.453 91.091C104.453 91.0224 104.344 91.0452 104.361 91.091C104.536 91.7725 104.639 92.4703 104.67 93.1731C104.699 93.4476 104.716 93.7451 104.733 94.0025C104.47 93.2989 104.201 92.5954 103.921 91.8975C103.595 91.0853 103.223 90.2673 102.96 89.4322C102.96 89.375 102.857 89.4036 102.874 89.4322C103.172 90.1815 103.383 90.9766 103.618 91.7202C103.852 92.4638 104.104 93.2646 104.356 94.0368C104.848 95.5526 105.368 97.057 105.894 98.567C106.146 99.2935 106.392 100.031 106.661 100.752C106.735 101.022 106.88 101.267 107.081 101.461C107.283 101.655 107.533 101.792 107.805 101.856C109.309 102.262 116.665 103.481 117.557 103.515C117.649 103.572 117.672 103.418 117.575 103.406Z" fill="#263238"/>
<path d="M123.907 105.431C122.763 107.862 121.619 110.276 120.583 112.758C119.536 115.201 118.618 117.696 117.832 120.235C117.828 120.246 117.828 120.259 117.833 120.27C117.837 120.281 117.847 120.29 117.858 120.295C117.869 120.299 117.882 120.299 117.893 120.294C117.905 120.289 117.913 120.28 117.918 120.269C119.062 117.884 120.063 115.407 121.075 112.953C122.088 110.499 123.009 107.977 124.033 105.517C124.084 105.414 123.953 105.334 123.907 105.431Z" fill="#263238"/>
<path d="M145.288 103.498C144.413 103.99 139.402 102.606 137.371 104.127C136.027 105.134 134.712 107.559 134.426 110.722C134.134 113.988 136.714 113.822 137.669 112.438C138.833 110.616 139.849 108.703 140.706 106.718C141.625 106.901 142.531 107.144 143.418 107.445L145.288 103.498Z" fill="#AD6359"/>
<path d="M139.145 114.898C137.595 113.273 129.85 119.228 132.281 121.933C134.712 124.639 140.895 116.739 139.145 114.898Z" fill="#AD6359"/>
<path d="M141.73 117.226C140.18 115.601 132.435 121.556 134.866 124.261C137.297 126.967 143.481 119.068 141.73 117.226Z" fill="#AD6359"/>
<path d="M143.766 118.05C142.136 116.785 135.924 123.278 138.527 125.394C141.129 127.51 145.614 119.48 143.766 118.05Z" fill="#AD6359"/>
<path d="M145.98 118.404C144.11 117.689 140.169 125.468 143.183 126.698C146.198 127.928 148.102 119.188 145.98 118.404Z" fill="#AD6359"/>
<path d="M138.916 117.575C138.486 117.863 138.08 118.186 137.703 118.541C137.286 118.907 136.874 119.279 136.496 119.685C136.128 120.069 135.783 120.474 135.461 120.898C135.124 121.356 134.843 121.853 134.5 122.299C134.494 122.303 134.489 122.309 134.485 122.315C134.481 122.322 134.479 122.329 134.479 122.336C134.479 122.344 134.48 122.351 134.484 122.358C134.487 122.364 134.492 122.37 134.497 122.374C134.503 122.379 134.51 122.382 134.518 122.383C134.525 122.384 134.532 122.384 134.539 122.381C134.546 122.379 134.553 122.375 134.558 122.37C134.563 122.364 134.567 122.358 134.569 122.351C134.908 121.919 135.277 121.512 135.673 121.133C136.045 120.744 136.393 120.337 136.765 119.943C137.137 119.548 137.469 119.165 137.835 118.799C138.201 118.433 138.613 118.055 138.979 117.655C138.996 117.603 138.956 117.552 138.916 117.575Z" fill="#263238"/>
<path d="M141.993 118.301C141.662 118.81 140.5 120.784 140.146 121.281C139.791 121.779 139.419 122.277 139.042 122.763C138.664 123.249 138.298 123.781 137.869 124.239C137.835 124.279 137.898 124.342 137.938 124.302C138.367 123.844 138.836 123.426 139.242 122.946C139.648 122.465 140.02 121.979 140.386 121.47C141.021 120.461 141.594 119.414 142.102 118.336C142.102 118.284 142.022 118.255 141.993 118.301Z" fill="#263238"/>
<path d="M144.144 119.411C143.801 120.166 143.503 120.95 143.154 121.699C142.983 122.071 142.806 122.442 142.634 122.843L142.394 123.386C142.318 123.603 142.222 123.811 142.108 124.01C142.073 124.055 142.165 124.107 142.188 124.044C142.303 123.818 142.437 123.601 142.588 123.398C142.685 123.226 142.788 123.054 142.88 122.883C143.074 122.502 143.252 122.13 143.412 121.767C143.746 121.026 144.025 120.262 144.247 119.479C144.256 119.466 144.259 119.449 144.256 119.433C144.253 119.417 144.243 119.403 144.23 119.394C144.216 119.385 144.199 119.381 144.183 119.385C144.167 119.388 144.153 119.397 144.144 119.411Z" fill="#263238"/>
<path d="M149.195 54.3971C148.921 57.01 147.927 59.4955 146.323 61.5764C144.72 63.6573 142.569 65.2518 140.112 66.1819C137.655 67.112 134.988 67.3413 132.408 66.8441C129.829 66.3469 127.438 65.1428 125.502 63.3661L118.404 64.4071L121.956 58.2753C121.033 56.0069 120.713 53.5381 121.028 51.1094C121.342 48.6807 122.281 46.3749 123.751 44.4165C125.222 42.4582 127.174 40.914 129.419 39.9345C131.663 38.955 134.123 38.5736 136.559 38.8273C140.299 39.2181 143.73 41.0776 146.099 43.9971C148.469 46.9166 149.582 50.6572 149.195 54.3971Z" fill="white"/>
<path d="M149.195 54.3972C148.919 57.0092 147.93 59.4949 146.335 61.5815C145.94 62.1026 145.512 62.5975 145.053 63.063C144.581 63.5151 144.08 63.9372 143.555 64.3271C142.508 65.1232 141.352 65.7646 140.123 66.2319C138.9 66.7137 137.616 67.0199 136.308 67.1414C135.654 67.2032 134.996 67.2166 134.34 67.1814C133.682 67.1647 133.025 67.0958 132.378 66.9755C129.765 66.5051 127.335 65.3168 125.36 63.5435L125.531 63.595L118.45 64.636L117.935 64.7161L118.192 64.2642L121.722 58.1209V58.3612C120.894 56.3344 120.541 54.1453 120.69 51.9611C120.839 49.777 121.485 47.6559 122.58 45.76C123.683 43.8685 125.201 42.2513 127.018 41.0296C129.277 39.5172 131.921 38.68 134.638 38.6162C137.356 38.5525 140.036 39.2647 142.363 40.6694C144.691 42.0742 146.569 44.1132 147.779 46.5476C148.989 48.982 149.48 51.7109 149.195 54.4144V54.3972ZM149.195 54.3972C149.421 52.2619 149.154 50.1032 148.414 48.0874C147.675 46.0715 146.483 44.2523 144.929 42.7697C143.376 41.2872 141.503 40.1809 139.455 39.5361C137.407 38.8913 135.238 38.7251 133.116 39.0505C131.015 39.359 129.012 40.1414 127.259 41.3385C125.527 42.555 124.08 44.1341 123.02 45.9659C121.972 47.8036 121.356 49.8554 121.218 51.9662C121.088 54.0719 121.428 56.1801 122.214 58.1381L122.265 58.2639L122.196 58.3841L118.627 64.5045L118.375 64.1269L125.474 63.1317H125.571L125.646 63.1946C127.539 64.9675 129.887 66.1794 132.429 66.6952C133.065 66.8219 133.71 66.9003 134.357 66.9297C135.003 66.9754 135.651 66.9754 136.296 66.9297C137.591 66.8297 138.866 66.5485 140.083 66.0946C141.312 65.6551 142.469 65.0343 143.515 64.2528C144.579 63.4995 145.519 62.5847 146.3 61.5415C147.901 59.4699 148.902 56.9987 149.195 54.3972Z" fill="#263238"/>
<path d="M133.431 61.0094L127.379 54.8776L129.41 52.8699L132.95 56.4506L140.3 44.9248L142.709 46.4635L133.431 61.0094Z" fill="#3398DB"/>
</svg>
