<svg width="1440" height="683" viewBox="0 0 1440 683" fill="none" xmlns="http://www.w3.org/2000/svg">
<path fill-rule="evenodd" clip-rule="evenodd" d="M190.059 146.916C187.661 146.916 185.718 148.641 185.718 150.767C185.718 152.893 187.661 154.617 190.059 154.617C192.457 154.617 194.4 152.893 194.4 150.767C194.4 148.641 192.457 146.916 190.059 146.916ZM184.32 150.767C184.32 147.955 186.89 145.676 190.059 145.676C193.228 145.676 195.798 147.955 195.798 150.767C195.798 153.578 193.228 155.857 190.059 155.857C186.89 155.857 184.32 153.578 184.32 150.767Z" fill="url(#paint0_linear_73_368)"/>
<path fill-rule="evenodd" clip-rule="evenodd" d="M607.876 61.3432C605.479 61.3432 603.536 63.067 603.536 65.1936C603.536 67.3201 605.479 69.0436 607.876 69.0436C610.274 69.0436 612.217 67.3201 612.217 65.1936C612.217 63.067 610.274 61.3432 607.876 61.3432ZM602.137 65.1936C602.137 62.3822 604.706 60.1033 607.876 60.1033C611.046 60.1033 613.615 62.3822 613.615 65.1936C613.615 68.0045 611.046 70.2835 607.876 70.2835C604.706 70.2835 602.137 68.0045 602.137 65.1936Z" fill="url(#paint1_linear_73_368)"/>
<path fill-rule="evenodd" clip-rule="evenodd" d="M290.097 588.721C290.097 585.297 293.227 582.521 297.087 582.521H334.136C337.997 582.521 341.126 585.297 341.126 588.721C341.126 592.145 337.997 594.921 334.136 594.921H297.087C293.227 594.921 290.097 592.145 290.097 588.721ZM297.087 583.761C293.999 583.761 291.495 585.982 291.495 588.721C291.495 591.46 293.999 593.681 297.087 593.681H334.136C337.224 593.681 339.728 591.46 339.728 588.721C339.728 585.982 337.224 583.761 334.136 583.761H297.087Z" fill="url(#paint2_linear_73_368)"/>
<path fill-rule="evenodd" clip-rule="evenodd" d="M1135.22 514.944C1135.22 513.232 1136.79 511.844 1138.72 511.844H1177.86C1179.79 511.844 1181.36 513.232 1181.36 514.944V524.244C1181.36 525.956 1179.79 527.344 1177.86 527.344H1138.72C1136.79 527.344 1135.22 525.956 1135.22 524.244V514.944ZM1138.72 513.084C1137.56 513.084 1136.62 513.917 1136.62 514.944V524.244C1136.62 525.271 1137.56 526.104 1138.72 526.104H1177.86C1179.02 526.104 1179.96 525.271 1179.96 524.244V514.944C1179.96 513.917 1179.02 513.084 1177.86 513.084H1138.72Z" fill="#9F78BF"/>
<path fill-rule="evenodd" clip-rule="evenodd" d="M1068.12 113.822C1068.12 111.083 1070.62 108.862 1073.71 108.862H1131.03C1134.12 108.862 1136.62 111.083 1136.62 113.822V119.402C1136.62 122.141 1134.12 124.362 1131.03 124.362H1073.71C1070.62 124.362 1068.12 122.141 1068.12 119.402V113.822ZM1073.71 110.102C1071.39 110.102 1069.51 111.768 1069.51 113.822V119.402C1069.51 121.457 1071.39 123.122 1073.71 123.122H1131.03C1133.34 123.122 1135.22 121.457 1135.22 119.402V113.822C1135.22 111.768 1133.34 110.102 1131.03 110.102H1073.71Z" fill="#0572ED"/>
<mask id="mask0_73_368" style="mask-type:luminance" maskUnits="userSpaceOnUse" x="0" y="1" width="1440" height="682">
<path d="M1440 1.60712H0V682.957H1440V1.60712Z" fill="white"/>
</mask>
<g mask="url(#mask0_73_368)">
<path fill-rule="evenodd" clip-rule="evenodd" d="M102.511 328.515C97.091 328.515 92.7423 332.262 92.7423 336.835C92.7423 341.409 97.091 345.156 102.511 345.156C107.931 345.156 112.28 341.409 112.28 336.835C112.28 332.262 107.931 328.515 102.511 328.515ZM91.3442 336.835C91.3442 331.534 96.3689 327.275 102.511 327.275C108.654 327.275 113.678 331.534 113.678 336.835C113.678 342.137 108.654 346.396 102.511 346.396C96.3689 346.396 91.3442 342.137 91.3442 336.835Z" fill="url(#paint3_linear_73_368)"/>
<path fill-rule="evenodd" clip-rule="evenodd" d="M1055.53 427.218C1055.53 419.856 1062.27 413.889 1070.56 413.889H1246.72C1255.02 413.889 1261.75 419.856 1261.75 427.218C1261.75 434.58 1255.02 440.547 1246.72 440.547H1070.56C1062.27 440.547 1055.53 434.58 1055.53 427.218ZM1070.56 415.128C1063.03 415.128 1056.93 420.541 1056.93 427.218C1056.93 433.895 1063.03 439.307 1070.56 439.307H1246.72C1254.25 439.307 1260.35 433.895 1260.35 427.218C1260.35 420.541 1254.25 415.128 1246.72 415.128H1070.56Z" fill="url(#paint4_linear_73_368)"/>
<path fill-rule="evenodd" clip-rule="evenodd" d="M1100.97 426.908C1100.97 424.853 1102.85 423.188 1105.17 423.188C1107.48 423.188 1109.36 424.853 1109.36 426.908V427.528C1109.36 429.582 1107.48 431.248 1105.17 431.248C1102.85 431.248 1100.97 429.582 1100.97 427.528V426.908ZM1105.17 424.428C1103.62 424.428 1102.37 425.538 1102.37 426.908V427.528C1102.37 428.897 1103.62 430.008 1105.17 430.008C1106.71 430.008 1107.96 428.897 1107.96 427.528V426.908C1107.96 425.538 1106.71 424.428 1105.17 424.428Z" fill="#C97AB2" fill-opacity="0.44"/>
<path fill-rule="evenodd" clip-rule="evenodd" d="M1068.82 426.908C1068.82 424.853 1070.7 423.188 1073.01 423.188C1075.32 423.188 1077.2 424.853 1077.2 426.908V427.528C1077.2 429.582 1075.32 431.248 1073.01 431.248C1070.7 431.248 1068.82 429.582 1068.82 427.528V426.908ZM1073.01 424.428C1071.46 424.428 1070.21 425.538 1070.21 426.908V427.528C1070.21 428.897 1071.46 430.008 1073.01 430.008C1074.55 430.008 1075.81 428.897 1075.81 427.528V426.908C1075.81 425.538 1074.55 424.428 1073.01 424.428Z" fill="#C97AB2" fill-opacity="0.44"/>
<path fill-rule="evenodd" clip-rule="evenodd" d="M1079.3 427.218C1079.3 424.992 1081.34 423.188 1083.84 423.188C1086.35 423.188 1088.39 424.992 1088.39 427.218C1088.39 429.444 1086.35 431.248 1083.84 431.248C1081.34 431.248 1079.3 429.444 1079.3 427.218ZM1083.84 424.428C1082.1 424.428 1080.7 425.677 1080.7 427.218C1080.7 428.758 1082.1 430.008 1083.84 430.008C1085.59 430.008 1086.99 428.758 1086.99 427.218C1086.99 425.677 1085.59 424.428 1083.84 424.428Z" fill="#C97AB2" fill-opacity="0.44"/>
<path fill-rule="evenodd" clip-rule="evenodd" d="M1089.79 427.218C1089.79 424.992 1091.82 423.188 1094.33 423.188C1096.84 423.188 1098.87 424.992 1098.87 427.218C1098.87 429.444 1096.84 431.248 1094.33 431.248C1091.82 431.248 1089.79 429.444 1089.79 427.218ZM1094.33 424.428C1092.59 424.428 1091.18 425.677 1091.18 427.218C1091.18 428.758 1092.59 430.008 1094.33 430.008C1096.07 430.008 1097.48 428.758 1097.48 427.218C1097.48 425.677 1096.07 424.428 1094.33 424.428Z" fill="#C97AB2" fill-opacity="0.44"/>
<path fill-rule="evenodd" clip-rule="evenodd" d="M949.428 179.477C949.428 162.794 964.681 149.27 983.492 149.27H1164.92C1183.73 149.27 1198.97 162.794 1198.97 179.477C1198.97 196.161 1183.73 209.685 1164.92 209.685H983.492C964.681 209.685 949.428 196.161 949.428 179.477ZM983.492 150.51C965.45 150.51 950.826 163.479 950.826 179.477C950.826 195.475 965.45 208.445 983.492 208.445H1164.92C1182.95 208.445 1197.58 195.475 1197.58 179.477C1197.58 163.479 1182.95 150.51 1164.92 150.51H983.492Z" fill="url(#paint5_linear_73_368)"/>
<path fill-rule="evenodd" clip-rule="evenodd" d="M255.764 215.91C255.764 200.679 269.686 188.332 286.86 188.332H430.68C447.853 188.332 461.775 200.679 461.775 215.91C461.775 231.142 447.853 243.489 430.68 243.489H286.86C269.686 243.489 255.764 231.142 255.764 215.91ZM286.86 189.572C270.459 189.572 257.162 201.364 257.162 215.91C257.162 230.457 270.459 242.249 286.86 242.249H430.68C447.082 242.249 460.377 230.457 460.377 215.91C460.377 201.364 447.082 189.572 430.68 189.572H286.86Z" fill="url(#paint6_linear_73_368)"/>
<path fill-rule="evenodd" clip-rule="evenodd" d="M388.811 572.458C388.811 557.503 402.481 545.38 419.343 545.38H731.303C748.171 545.38 761.837 557.503 761.837 572.458C761.837 587.413 748.164 599.537 731.303 599.537H419.343C402.481 599.537 388.811 587.413 388.811 572.458ZM419.343 546.62C403.253 546.62 390.209 558.188 390.209 572.458C390.209 586.729 403.253 598.297 419.343 598.297H731.303C747.395 598.297 760.439 586.729 760.439 572.458C760.439 558.188 747.395 546.62 731.303 546.62H419.343Z" fill="url(#paint7_linear_73_368)"/>
<path fill-rule="evenodd" clip-rule="evenodd" d="M907.557 596.265C920.195 596.265 930.443 605.354 930.443 616.565V617.822C930.443 629.726 919.566 639.379 906.138 639.379H884.67V616.565C884.67 605.354 894.918 596.265 907.557 596.265ZM883.272 639.379V616.565C883.272 604.669 894.142 595.025 907.557 595.025C920.971 595.025 931.841 604.669 931.841 616.565V617.822C931.841 630.414 920.335 640.618 906.138 640.618H884.67V679.547C884.67 679.888 884.356 680.167 883.971 680.167C883.58 680.167 883.272 679.888 883.272 679.547V640.618H834.99C834.606 640.618 834.291 640.34 834.291 639.999C834.291 639.658 834.606 639.379 834.99 639.379H883.272Z" fill="url(#paint8_linear_73_368)"/>
<path fill-rule="evenodd" clip-rule="evenodd" d="M296.067 562.304C296.067 562.647 295.754 562.924 295.368 562.924H109.627C109.242 562.924 108.928 562.647 108.928 562.304C108.928 561.962 109.242 561.684 109.627 561.684H295.368C295.754 561.684 296.067 561.962 296.067 562.304Z" fill="url(#paint9_linear_73_368)"/>
<path fill-rule="evenodd" clip-rule="evenodd" d="M216.637 352.906C219.058 349.186 225.113 349.186 227.534 352.906L263.104 407.548C265.526 411.267 262.499 415.917 257.656 415.917H176.829C176.443 415.917 176.13 415.639 176.13 415.297C176.13 414.954 176.443 414.677 176.829 414.677H257.656C261.423 414.677 263.777 411.06 261.893 408.168L226.323 353.526C224.439 350.632 219.731 350.632 217.848 353.526L183.431 406.396C183.238 406.692 182.81 406.794 182.476 406.623C182.142 406.452 182.027 406.072 182.22 405.776L216.637 352.906Z" fill="url(#paint10_linear_73_368)"/>
<path fill-rule="evenodd" clip-rule="evenodd" d="M221.861 368.011C222.247 368.011 222.56 368.288 222.56 368.631V385.873C222.56 386.216 222.247 386.493 221.861 386.493C221.475 386.493 221.162 386.216 221.162 385.873V368.631C221.162 368.288 221.475 368.011 221.861 368.011Z" fill="#B579B8"/>
<path d="M225.62 397.785C225.62 399.628 223.936 401.121 221.859 401.121C219.781 401.121 218.097 399.628 218.097 397.785C218.097 395.942 219.781 394.449 221.859 394.449C223.936 394.449 225.62 395.942 225.62 397.785Z" fill="#B579B8"/>
<path fill-rule="evenodd" clip-rule="evenodd" d="M225.701 415.297C225.701 415.639 225.388 415.917 225.002 415.917H40.5436C40.1574 415.917 39.8445 415.639 39.8445 415.297C39.8445 414.954 40.1574 414.677 40.5436 414.677H225.002C225.388 414.677 225.701 414.954 225.701 415.297Z" fill="url(#paint11_linear_73_368)"/>
<path fill-rule="evenodd" clip-rule="evenodd" d="M132.515 624.419C132.515 624.078 132.828 623.799 133.214 623.799H664.62C683.11 623.799 698.1 637.097 698.1 653.496V662.423C698.1 673.205 707.954 681.946 720.11 681.946C732.266 681.946 742.121 673.205 742.121 662.423V643.508C742.121 632.621 752.068 623.799 764.338 623.799C776.608 623.799 786.558 632.621 786.558 643.508V649.962C786.558 663.725 799.133 674.878 814.652 674.878H839.789C840.173 674.878 840.488 675.157 840.488 675.498C840.488 675.839 840.173 676.118 839.789 676.118H814.652C798.364 676.118 785.16 664.407 785.16 649.962V643.508C785.16 633.309 775.836 625.039 764.338 625.039C752.84 625.039 743.519 633.309 743.519 643.508V662.423C743.519 673.893 733.039 683.186 720.11 683.186C707.182 683.186 696.702 673.893 696.702 662.423V653.496C696.702 637.779 682.338 625.039 664.62 625.039H133.214C132.828 625.039 132.515 624.76 132.515 624.419Z" fill="url(#paint12_linear_73_368)"/>
<path fill-rule="evenodd" clip-rule="evenodd" d="M386.426 501.445C383.836 505.934 382.603 509.777 382.603 512.12C382.603 512.462 382.29 512.74 381.904 512.74C381.518 512.74 381.205 512.462 381.205 512.12C381.205 509.487 382.552 505.436 385.182 500.88C387.823 496.304 391.795 491.157 397.128 486.325C407.798 476.658 423.938 468.24 445.778 468.24H622.44C622.826 468.24 623.139 468.518 623.139 468.86C623.139 469.203 622.826 469.48 622.44 469.48H445.778C424.381 469.48 408.584 477.718 398.126 487.192C392.896 491.932 389.006 496.977 386.426 501.445Z" fill="url(#paint13_linear_73_368)"/>
<path fill-rule="evenodd" clip-rule="evenodd" d="M443.315 483.52C443.315 467.221 428.417 454.008 410.04 454.008H254.994C236.616 454.008 221.719 467.221 221.719 483.52C221.719 499.818 236.616 513.031 254.994 513.031H410.04C428.417 513.031 443.315 499.818 443.315 483.52ZM410.04 455.248C427.645 455.248 441.917 467.906 441.917 483.52C441.917 499.134 427.645 511.791 410.04 511.791H254.994C237.389 511.791 223.117 499.134 223.117 483.52C223.117 467.906 237.389 455.248 254.994 455.248H410.04Z" fill="url(#paint14_linear_73_368)"/>
<path fill-rule="evenodd" clip-rule="evenodd" d="M1130.6 266.991C1130.6 241.531 1153.76 220.883 1182.33 220.883C1201.71 220.883 1218.6 230.382 1227.45 244.434C1231.75 242.56 1236.57 241.508 1241.67 241.508C1258.41 241.508 1272.18 252.851 1273.84 267.38H1278.85C1295.09 267.38 1308.25 279.116 1308.25 293.582C1308.25 308.049 1295.09 319.785 1278.85 319.785H1141.9C1125.66 319.785 1112.51 308.049 1112.51 293.582C1112.51 282.656 1120.01 273.291 1130.67 269.359C1130.62 268.575 1130.6 267.785 1130.6 266.991ZM1182.33 222.743C1154.93 222.743 1132.7 242.549 1132.7 266.991C1132.7 267.973 1132.74 268.948 1132.8 269.913C1132.84 270.32 1132.57 270.695 1132.14 270.842C1121.89 274.344 1114.6 283.204 1114.6 293.582C1114.6 307.031 1126.83 317.925 1141.9 317.925H1278.85C1293.92 317.925 1306.15 307.031 1306.15 293.582C1306.15 280.134 1293.92 269.24 1278.85 269.24H1272.88C1272.33 269.24 1271.88 268.863 1271.83 268.376C1270.71 254.394 1257.63 243.368 1241.67 243.368C1236.55 243.368 1231.74 244.5 1227.52 246.496C1227.01 246.738 1226.37 246.566 1226.1 246.113C1217.73 232.199 1201.27 222.743 1182.33 222.743Z" fill="url(#paint15_linear_73_368)"/>
</g>
<path fill-rule="evenodd" clip-rule="evenodd" d="M1155.84 596.425C1151.83 595.154 1144.59 594.261 1136.83 595.37C1129.05 596.483 1120.64 599.624 1114.43 606.513C1104.81 617.181 1105.32 625.882 1105.78 633.638C1105.93 636.204 1106.08 638.672 1105.85 641.071C1105.8 641.58 1106.23 642.032 1106.81 642.076C1107.38 642.119 1107.89 641.741 1107.94 641.226C1108.2 638.492 1108.05 635.832 1107.88 633.148C1107.44 625.528 1106.98 617.742 1116.07 607.675C1121.88 601.236 1129.75 598.266 1137.17 597.206C1144.6 596.144 1151.48 597.017 1155.14 598.176C1155.68 598.348 1156.28 598.097 1156.47 597.612C1156.67 597.129 1156.38 596.597 1155.84 596.425ZM1162.67 599.979C1163 599.558 1163.65 599.454 1164.12 599.748C1172.54 604.953 1177.24 610.697 1179.81 617.15C1182.37 623.563 1182.79 630.618 1182.79 638.387C1182.79 638.901 1182.32 639.317 1181.74 639.317C1181.16 639.317 1180.69 638.901 1180.69 638.387C1180.69 630.643 1180.26 623.861 1177.84 617.769C1175.42 611.713 1171.01 606.275 1162.93 601.274C1162.45 600.98 1162.33 600.4 1162.67 599.979ZM1165.92 614.809C1163.98 611.806 1154.86 602.858 1139.47 604.904C1122.5 607.159 1115.9 620.715 1117.17 630.401C1118.27 638.703 1117.43 644.177 1116.9 647.587C1116.85 647.928 1116.8 648.244 1116.76 648.548C1116.69 649.056 1116.15 649.416 1115.58 649.348C1115.01 649.286 1114.6 648.815 1114.68 648.306C1114.72 648.002 1114.77 647.686 1114.83 647.345C1115.34 643.96 1116.15 638.684 1115.09 630.618C1113.71 620.193 1120.8 605.505 1139.16 603.064C1155.68 600.868 1165.53 610.46 1167.74 613.887C1168.02 614.333 1167.85 614.901 1167.34 615.156C1166.84 615.411 1166.2 615.255 1165.92 614.809ZM1150.17 612.427C1154.44 613.697 1158.55 616.308 1160.88 620.667C1162.19 623.111 1162.96 626.291 1163.37 629.751C1163.77 633.222 1163.82 637.035 1163.65 640.774C1163.3 648.244 1162.05 655.523 1160.95 659.36C1160.82 659.856 1160.24 660.16 1159.68 660.03C1159.12 659.906 1158.78 659.398 1158.92 658.902C1159.98 655.213 1161.21 648.071 1161.55 640.699C1161.72 637.017 1161.67 633.297 1161.28 629.943C1160.88 626.576 1160.15 623.631 1158.99 621.465C1156.94 617.645 1153.34 615.331 1149.5 614.19C1145.64 613.042 1141.63 613.109 1138.91 613.971C1138.36 614.143 1137.76 613.891 1137.57 613.407C1137.37 612.923 1137.66 612.391 1138.2 612.219C1141.42 611.2 1145.92 611.164 1150.17 612.427ZM1149.92 621.362C1151.87 622.658 1153.16 624.636 1153.57 626.967C1154.96 634.865 1154.62 639.658 1154.31 643.948V643.954C1154.27 644.4 1154.24 644.841 1154.21 645.281C1154.17 645.795 1153.68 646.186 1153.1 646.155C1152.52 646.124 1152.08 645.684 1152.12 645.169C1152.15 644.729 1152.18 644.283 1152.21 643.836H1152.22V643.83C1152.52 639.571 1152.86 634.952 1151.5 627.252C1151.16 625.355 1150.14 623.83 1148.67 622.85C1147.19 621.877 1145.2 621.394 1142.82 621.697C1139.65 622.106 1137.92 623.365 1136.99 624.747C1136.03 626.173 1135.84 627.835 1136 629.056C1136.02 629.23 1136.06 629.447 1136.09 629.695C1136.61 633.371 1138.27 644.946 1132.24 660.135C1132.04 660.619 1131.45 660.873 1130.9 660.7C1130.35 660.532 1130.06 659.999 1130.26 659.515C1136.13 644.741 1134.52 633.514 1134.01 629.899C1133.97 629.658 1133.94 629.441 1133.92 629.267C1133.72 627.748 1133.93 625.659 1135.19 623.793C1136.47 621.895 1138.77 620.336 1142.53 619.857C1145.39 619.49 1147.96 620.061 1149.92 621.362ZM1143.43 628.511C1144 628.418 1144.54 628.752 1144.65 629.261C1145.81 635.002 1146.88 649.435 1141.68 661.369C1141.47 661.847 1140.86 662.082 1140.33 661.902C1139.79 661.716 1139.52 661.177 1139.73 660.7C1144.73 649.211 1143.72 635.163 1142.58 629.589C1142.48 629.087 1142.86 628.604 1143.43 628.511ZM1153.34 652.776C1153.46 652.274 1153.1 651.778 1152.53 651.673C1151.97 651.567 1151.41 651.883 1151.29 652.386C1150.78 654.487 1149.53 659.131 1148.57 661.245C1148.35 661.722 1148.61 662.262 1149.15 662.454C1149.69 662.652 1150.3 662.417 1150.52 661.946C1151.56 659.658 1152.83 654.853 1153.34 652.776ZM1131.93 617.593C1132.39 617.28 1132.48 616.696 1132.12 616.289C1131.77 615.882 1131.11 615.806 1130.65 616.119C1128.21 617.784 1123.85 622.912 1124.7 630.649C1125.7 639.825 1125.08 650.024 1122.05 656.254C1121.83 656.726 1122.07 657.271 1122.61 657.476C1123.14 657.68 1123.75 657.463 1123.98 656.992C1127.21 650.321 1127.8 639.744 1126.79 630.47C1126.02 623.445 1129.99 618.913 1131.93 617.593ZM1171.57 621.521C1171.47 621.015 1170.92 620.677 1170.36 620.767C1169.78 620.855 1169.41 621.337 1169.5 621.846C1170.55 627.122 1172.11 640.705 1169.97 652.683C1169.88 653.192 1170.27 653.669 1170.84 653.75C1171.41 653.83 1171.95 653.483 1172.04 652.975C1174.24 640.724 1172.64 626.911 1171.57 621.521Z" fill="url(#paint16_linear_73_368)"/>
<path fill-rule="evenodd" clip-rule="evenodd" d="M219.482 287.844C217.767 287.311 214.675 286.936 211.358 287.401C208.033 287.868 204.439 289.186 201.783 292.076C197.672 296.551 197.89 300.201 198.087 303.454C198.153 304.531 198.215 305.566 198.117 306.572C198.096 306.785 198.278 306.975 198.526 306.993C198.771 307.012 198.989 306.853 199.01 306.637C199.121 305.49 199.055 304.375 198.986 303.249C198.798 300.052 198.601 296.786 202.485 292.563C204.968 289.862 208.332 288.616 211.502 288.172C214.678 287.726 217.618 288.092 219.183 288.579C219.416 288.651 219.67 288.545 219.754 288.342C219.838 288.139 219.715 287.916 219.482 287.844ZM222.401 289.335C222.542 289.158 222.82 289.115 223.023 289.238C226.623 291.422 228.631 293.831 229.73 296.538C230.821 299.228 231 302.187 231 305.446C231 305.662 230.8 305.836 230.552 305.836C230.304 305.836 230.104 305.662 230.104 305.446C230.104 302.198 229.921 299.353 228.885 296.797C227.854 294.257 225.969 291.976 222.512 289.878C222.309 289.755 222.258 289.512 222.401 289.335ZM223.791 295.556C222.963 294.296 219.064 290.543 212.485 291.401C205.234 292.347 202.41 298.033 202.957 302.096C203.426 305.579 203.064 307.875 202.84 309.305C202.819 309.448 202.799 309.581 202.778 309.709C202.748 309.922 202.521 310.073 202.276 310.044C202.031 310.018 201.857 309.82 201.89 309.607C201.908 309.48 201.929 309.347 201.953 309.204C202.174 307.784 202.521 305.571 202.067 302.187C201.478 297.814 204.508 291.653 212.353 290.629C219.413 289.708 223.626 293.731 224.567 295.169C224.69 295.356 224.615 295.594 224.4 295.701C224.185 295.808 223.913 295.743 223.791 295.556ZM217.059 294.556C218.885 295.089 220.641 296.185 221.639 298.013C222.198 299.038 222.527 300.372 222.7 301.823C222.873 303.28 222.894 304.879 222.82 306.447C222.67 309.581 222.138 312.634 221.669 314.244C221.609 314.452 221.364 314.58 221.125 314.525C220.883 314.473 220.74 314.26 220.8 314.052C221.251 312.504 221.777 309.508 221.923 306.416C221.998 304.871 221.977 303.311 221.81 301.904C221.639 300.492 221.326 299.257 220.83 298.348C219.954 296.745 218.413 295.775 216.772 295.296C215.123 294.814 213.411 294.843 212.246 295.204C212.013 295.277 211.756 295.171 211.672 294.968C211.589 294.765 211.711 294.542 211.944 294.469C213.321 294.042 215.243 294.027 217.059 294.556ZM216.952 298.304C217.788 298.848 218.338 299.678 218.514 300.656C219.109 303.969 218.962 305.979 218.828 307.779V307.781C218.813 307.969 218.801 308.153 218.786 308.338C218.771 308.554 218.559 308.718 218.314 308.705C218.066 308.692 217.878 308.507 217.893 308.291C217.905 308.107 217.92 307.919 217.932 307.732H217.935V307.729C218.066 305.943 218.209 304.005 217.627 300.775C217.483 299.98 217.047 299.34 216.417 298.929C215.786 298.521 214.935 298.318 213.919 298.445C212.563 298.617 211.825 299.145 211.424 299.725C211.015 300.323 210.934 301.02 211.003 301.532C211.012 301.605 211.027 301.696 211.042 301.8C211.266 303.342 211.974 308.198 209.396 314.569C209.312 314.772 209.058 314.879 208.822 314.806C208.589 314.736 208.466 314.512 208.55 314.309C211.06 308.112 210.373 303.402 210.151 301.886C210.134 301.784 210.122 301.693 210.113 301.621C210.029 300.983 210.119 300.107 210.656 299.324C211.206 298.528 212.189 297.874 213.793 297.673C215.018 297.519 216.115 297.759 216.952 298.304ZM214.179 301.303C214.421 301.264 214.654 301.405 214.699 301.618C215.198 304.026 215.652 310.08 213.432 315.087C213.342 315.287 213.082 315.386 212.852 315.31C212.622 315.232 212.506 315.006 212.595 314.806C214.735 309.987 214.301 304.094 213.817 301.756C213.773 301.545 213.934 301.342 214.179 301.303ZM218.413 311.482C218.466 311.272 218.311 311.064 218.069 311.019C217.827 310.975 217.588 311.108 217.537 311.318C217.319 312.2 216.787 314.148 216.375 315.035C216.282 315.235 216.393 315.461 216.623 315.542C216.853 315.625 217.116 315.526 217.209 315.329C217.654 314.369 218.197 312.353 218.413 311.482ZM209.264 296.724C209.461 296.592 209.497 296.347 209.345 296.177C209.195 296.006 208.914 295.974 208.717 296.105C207.675 296.804 205.81 298.955 206.172 302.2C206.602 306.049 206.336 310.328 205.042 312.941C204.947 313.139 205.051 313.368 205.278 313.454C205.505 313.539 205.768 313.448 205.867 313.251C207.247 310.452 207.498 306.016 207.065 302.125C206.736 299.179 208.436 297.277 209.264 296.724ZM226.208 298.371C226.163 298.159 225.93 298.017 225.688 298.055C225.443 298.092 225.281 298.294 225.323 298.508C225.771 300.721 226.438 306.419 225.523 311.443C225.485 311.656 225.652 311.857 225.894 311.891C226.139 311.924 226.369 311.779 226.408 311.565C227.346 306.427 226.665 300.632 226.208 298.371Z" fill="url(#paint17_linear_73_368)"/>
<path fill-rule="evenodd" clip-rule="evenodd" d="M405.642 103.181C405.642 85.6449 389.716 71.0191 369.917 71.1115C349.824 71.2033 333.779 86.1012 334.607 104.112V104.116C335.435 120.208 350.134 133.352 368.261 134.18L368.288 134.181H368.315H530.493V132.321H368.342C351.31 131.531 337.482 119.162 336.702 104.034C335.923 87.0684 351.031 73.0576 369.928 72.9714C388.518 72.8846 403.545 86.6331 403.545 103.181V104.252C403.545 108.826 399.39 112.513 394.243 112.513C389.094 112.513 384.94 108.826 384.94 104.252V102.911C384.941 102.852 384.941 102.794 384.941 102.736C384.941 95.4225 378.264 89.4925 370.025 89.4925C361.785 89.4925 355.108 95.4225 355.108 102.736C355.108 110.049 361.785 115.979 370.025 115.979C376.125 115.979 381.368 112.729 383.68 108.074C385.374 111.772 389.459 114.373 394.243 114.373C400.551 114.373 405.642 109.851 405.642 104.252V103.181ZM382.844 102.736H382.843V102.898C382.745 109.111 377.042 114.119 370.025 114.119C362.946 114.119 357.205 109.023 357.205 102.736C357.205 96.4479 362.946 91.3524 370.025 91.3524C377.104 91.3524 382.844 96.4479 382.844 102.736Z" fill="url(#paint18_linear_73_368)"/>
<path fill-rule="evenodd" clip-rule="evenodd" d="M723.397 151.475C715.967 151.518 708.76 154.578 704.957 160.469C704.768 160.766 704.342 160.87 704.006 160.699C703.671 160.529 703.552 160.151 703.748 159.854C707.837 153.511 715.554 150.28 723.383 150.235C731.219 150.191 739.244 153.333 743.97 159.825C744.179 160.113 744.082 160.497 743.76 160.682C743.438 160.868 743.005 160.786 742.795 160.498C738.364 154.408 730.814 151.433 723.397 151.475Z" fill="#3A74DD"/>
<path d="M728.388 160.161C728.388 162.375 726.361 164.171 723.866 164.171C721.37 164.171 719.35 162.375 719.35 160.161C719.35 157.948 721.37 156.153 723.866 156.153C726.361 156.153 728.388 157.948 728.388 160.161Z" fill="#3A74DD"/>
<path fill-rule="evenodd" clip-rule="evenodd" d="M686.621 137.529C686.621 130.338 693.194 124.509 701.301 124.509H710.885C711.269 124.509 711.584 124.787 711.584 125.129C711.584 125.471 711.269 125.749 710.885 125.749H701.301C693.966 125.749 688.019 131.023 688.019 137.529V146.03C688.019 146.372 687.706 146.65 687.32 146.65C686.935 146.65 686.621 146.372 686.621 146.03V137.529Z" fill="#3A74DD"/>
<path fill-rule="evenodd" clip-rule="evenodd" d="M761.082 137.528C761.082 130.338 754.511 124.509 746.402 124.509H736.819C736.427 124.509 736.12 124.786 736.12 125.129C736.12 125.471 736.427 125.748 736.819 125.748H746.402C753.735 125.748 759.684 131.023 759.684 137.528V146.029C759.684 146.371 759.998 146.649 760.383 146.649C760.767 146.649 761.082 146.371 761.082 146.029V137.528Z" fill="#3A74DD"/>
<path fill-rule="evenodd" clip-rule="evenodd" d="M761.11 177.528C761.11 184.718 754.539 190.547 746.43 190.547H736.847C736.462 190.547 736.148 190.27 736.148 189.927C736.148 189.585 736.462 189.307 736.847 189.307H746.43C753.77 189.307 759.712 184.034 759.712 177.528V169.027C759.712 168.685 760.026 168.407 760.411 168.407C760.802 168.407 761.11 168.685 761.11 169.027V177.528Z" fill="#3A74DD"/>
<path fill-rule="evenodd" clip-rule="evenodd" d="M686.621 177.528C686.621 184.718 693.193 190.547 701.301 190.547H710.885C711.269 190.547 711.584 190.27 711.584 189.927C711.584 189.585 711.269 189.307 710.885 189.307H701.301C693.965 189.307 688.019 184.034 688.019 177.528V169.027C688.019 168.685 687.705 168.407 687.32 168.407C686.934 168.407 686.621 168.685 686.621 169.027V177.528Z" fill="#3A74DD"/>
<path fill-rule="evenodd" clip-rule="evenodd" d="M332.126 342.655C326.74 342.598 322.322 346.424 322.257 351.2C322.217 354.241 323.949 356.934 326.605 358.505C326.802 358.622 326.919 358.819 326.916 359.029L326.745 371.736L336.725 371.842L336.896 359.132C336.899 358.923 337.022 358.728 337.221 358.616C339.918 357.101 341.72 354.446 341.762 351.407C341.826 346.63 337.512 342.712 332.126 342.655ZM320.86 351.186C320.933 345.724 325.985 341.35 332.143 341.415C338.301 341.48 343.233 345.961 343.159 351.422C343.114 354.776 341.191 357.72 338.29 359.476L338.115 372.476C338.11 372.819 337.793 373.093 337.407 373.089L326.029 372.969C325.643 372.964 325.334 372.683 325.339 372.341L325.514 359.344C322.659 357.526 320.815 354.541 320.86 351.186Z" fill="url(#paint19_linear_73_368)"/>
<path d="M434.062 556.944C438.836 556.831 442.278 557.857 446.191 560.234L441.96 565.108C432.222 558.705 420.286 568.369 424.883 577.02C429.154 585.666 443.152 584.255 445.737 576.06H435.152V569.963H453.222C453.248 572.088 453.295 574.201 452.83 576.282C450.546 587.2 435.39 592.753 425.124 586.381C410.708 577.689 416.722 558.115 434.062 556.944Z" fill="#F8879C"/>
<path d="M260.939 496.735H255.179V485.255H250.863V480.142H255.17V479.944C255.17 478.932 255.15 477.918 255.179 476.906C255.216 475.629 255.573 474.431 256.445 473.387C257.278 472.39 258.401 471.776 259.738 471.45C260.442 471.279 261.159 471.207 261.886 471.203C263.146 471.195 264.402 471.254 265.656 471.357C265.716 471.362 265.777 471.37 265.849 471.378V475.427C265.793 475.43 265.739 475.435 265.686 475.435C264.843 475.435 264 475.429 263.157 475.439C262.854 475.44 262.552 475.467 262.254 475.517C261.429 475.662 261.025 476.047 260.975 476.793C260.928 477.494 260.941 478.198 260.931 478.901C260.926 479.305 260.931 479.71 260.931 480.131H265.995C265.967 480.363 265.944 480.574 265.917 480.784C265.75 482.086 265.582 483.389 265.414 484.692C265.396 484.83 265.365 484.968 265.358 485.108C265.354 485.216 265.313 485.251 265.19 485.25C264.527 485.245 263.864 485.247 263.201 485.247H261.11H260.941L260.939 496.735Z" fill="#0572ED"/>
<path fill-rule="evenodd" clip-rule="evenodd" d="M178.608 216.53C145.672 216.53 118.973 240.21 118.973 269.421C118.973 298.631 145.672 322.311 178.608 322.311H291.794C292.619 288.363 323.906 261.068 362.38 261.068H480.777C481.163 261.068 481.476 261.346 481.476 261.688C481.476 262.031 481.163 262.308 480.777 262.308H362.38C324.677 262.308 294.017 289.048 293.193 322.311H334.685C356.257 322.311 373.746 337.821 373.746 356.954C373.746 376.088 356.257 391.597 334.685 391.597H332.762C310.127 391.597 291.778 375.324 291.778 355.249V323.686C291.778 323.641 291.778 323.596 291.778 323.551H178.608C144.9 323.551 117.575 299.316 117.575 269.421C117.575 239.525 144.9 215.29 178.608 215.29H520.777C521.163 215.29 521.476 215.568 521.476 215.91C521.476 216.253 521.163 216.53 520.777 216.53H178.608ZM293.176 323.551C293.176 323.596 293.176 323.641 293.176 323.686V355.249C293.176 374.639 310.899 390.357 332.762 390.357H334.685C355.485 390.357 372.348 375.403 372.348 356.954C372.348 338.506 355.485 323.551 334.685 323.551H293.176Z" fill="url(#paint20_linear_73_368)"/>
<path fill-rule="evenodd" clip-rule="evenodd" d="M997.508 534.02C997.508 512.105 1017.54 494.149 1042.25 494.149C1066.97 494.149 1087 511.918 1087 533.835V577.852C1087 612.434 1055.39 640.47 1016.4 640.47H698.6C698.213 640.47 697.901 640.191 697.901 639.85C697.901 639.509 698.213 639.23 698.6 639.23H1016.4C1054.62 639.23 1085.61 611.749 1085.61 577.852V533.835C1085.61 512.602 1066.19 495.389 1042.25 495.389C1018.32 495.389 998.906 512.782 998.906 534.02C998.906 556.138 978.69 574.261 953.741 574.261H761.914C761.529 574.261 761.215 573.984 761.215 573.641C761.215 573.299 761.529 573.021 761.914 573.021H953.741C977.914 573.021 997.508 555.461 997.508 534.02Z" fill="url(#paint21_linear_73_368)"/>
<path fill-rule="evenodd" clip-rule="evenodd" d="M656.1 63.6041C656.1 29.0216 687.709 0.987 726.704 0.987H762.361C797.39 0.987 825.973 25.4741 827.532 56.2012H1023.06C1038.16 56.2012 1050.4 67.0531 1050.4 80.4389C1050.4 93.8247 1038.16 104.677 1023.06 104.677H943.906C927.087 104.677 912.562 113.355 905.697 125.937H979.794C1018.79 125.937 1050.4 153.972 1050.4 188.555V262.077H1196.21C1234.37 262.077 1265.31 289.513 1265.31 323.357C1265.31 357.201 1234.37 384.636 1196.21 384.636H1074.25C1036.95 384.636 1006.71 411.457 1006.71 444.542C1006.71 478.312 975.838 505.688 937.762 505.688H562.638C562.252 505.688 561.939 505.41 561.939 505.068C561.939 504.726 562.252 504.448 562.638 504.448H937.762C975.069 504.448 1005.31 477.627 1005.31 444.542C1005.31 410.773 1036.18 383.396 1074.25 383.396H1196.21C1233.6 383.396 1263.91 356.516 1263.91 323.357C1263.91 290.198 1233.6 263.317 1196.21 263.317H1050.4V268.623C1050.4 302.521 1081.38 330.001 1119.6 330.001H1228.57C1228.96 330.001 1229.27 330.278 1229.27 330.621C1229.27 330.963 1228.96 331.241 1228.57 331.241H1119.6C1080.61 331.241 1049 303.206 1049 268.623V188.555C1049 154.657 1018.02 127.177 979.794 127.177H905.054C902.768 131.802 901.496 136.915 901.496 142.29V153.983C901.496 168.983 887.781 181.144 870.871 181.144C853.948 181.144 840.247 168.757 840.247 153.763C840.247 138.525 854.172 125.937 871.368 125.937H904.152C911.115 112.65 926.298 103.437 943.906 103.437H1023.06C1037.39 103.437 1049 93.1403 1049 80.4389C1049 67.7375 1037.39 57.4412 1023.06 57.4412H827.581C827.595 57.9085 827.602 58.3772 827.602 58.8472V85.9096C827.602 102.926 811.734 116.707 792.566 116.707C773.734 116.707 758.153 103.17 758.153 86.4539C758.153 69.7456 773.42 56.2012 792.259 56.2012H826.134C824.575 26.1592 796.621 2.22694 762.361 2.22694H726.704C688.482 2.22694 657.498 29.7064 657.498 63.6041V146.55C657.498 161.325 643.993 173.304 627.333 173.304C610.673 173.304 597.167 161.325 597.167 146.55V120.99C597.167 105.9 583.374 93.6673 566.36 93.6673C549.345 93.6673 535.553 105.9 535.553 120.99V125.302C535.553 143.458 518.958 158.176 498.487 158.176H383.767C383.381 158.176 383.068 157.898 383.068 157.556C383.068 157.214 383.381 156.936 383.767 156.936H498.487C518.185 156.936 534.155 142.773 534.155 125.302V120.99C534.155 105.215 548.574 92.4273 566.36 92.4273C584.147 92.4273 598.565 105.215 598.565 120.99V146.55C598.565 160.641 611.444 172.064 627.333 172.064C643.22 172.064 656.1 160.641 656.1 146.55V63.6041ZM826.183 57.4412H792.259C774.196 57.4412 759.551 70.4307 759.551 86.4539C759.551 102.47 774.489 115.467 792.566 115.467C810.979 115.467 826.204 102.227 826.204 85.9096V58.8472C826.204 58.3772 826.197 57.9085 826.183 57.4412ZM903.53 127.177H871.368C854.962 127.177 841.645 139.197 841.645 153.763C841.645 168.086 854.738 179.904 870.871 179.904C887.012 179.904 900.098 168.298 900.098 153.983V142.29C900.098 136.93 901.321 131.823 903.53 127.177Z" fill="url(#paint22_linear_73_368)"/>
<path fill-rule="evenodd" clip-rule="evenodd" d="M475.189 572.458C475.189 534.897 509.521 504.448 551.872 504.448H661.67C662.056 504.448 662.369 504.726 662.369 505.068C662.369 505.41 662.056 505.688 661.67 505.688H551.872C510.293 505.688 476.587 535.582 476.587 572.458C476.587 609.335 510.293 639.23 551.872 639.23H711.612C711.996 639.23 712.311 639.509 712.311 639.85C712.311 640.191 711.996 640.47 711.612 640.47H551.872C509.521 640.47 475.189 610.019 475.189 572.458Z" fill="url(#paint23_linear_73_368)"/>
<path fill-rule="evenodd" clip-rule="evenodd" d="M214.099 278.617C201.208 278.617 190.758 287.885 190.758 299.318V300.414C190.758 312.452 201.761 322.211 215.335 322.211H237.441V299.318C237.441 287.885 226.99 278.617 214.099 278.617ZM238.839 322.211V299.318C238.839 287.2 227.763 277.377 214.099 277.377C200.436 277.377 189.36 287.2 189.36 299.318V300.414C189.36 313.137 200.989 323.451 215.335 323.451H237.441V362.807C237.441 363.15 237.754 363.427 238.14 363.427C238.525 363.427 238.839 363.15 238.839 362.807V323.451H288.055C288.44 323.451 288.754 323.174 288.754 322.831C288.754 322.489 288.44 322.211 288.055 322.211H238.839Z" fill="url(#paint24_linear_73_368)"/>
<path fill-rule="evenodd" clip-rule="evenodd" d="M907.557 596.265C920.195 596.265 930.443 605.354 930.443 616.565V617.822C930.443 629.726 919.566 639.379 906.137 639.379H884.67V616.565C884.67 605.354 894.918 596.265 907.557 596.265ZM883.272 639.379V616.565C883.272 604.669 894.142 595.025 907.557 595.025C920.971 595.025 931.841 604.669 931.841 616.565V617.822C931.841 630.414 920.335 640.618 906.137 640.618H884.67V679.547C884.67 679.888 884.356 680.167 883.971 680.167C883.58 680.167 883.272 679.888 883.272 679.547V640.618H834.99C834.606 640.618 834.291 640.34 834.291 639.999C834.291 639.658 834.606 639.379 834.99 639.379H883.272Z" fill="url(#paint25_linear_73_368)"/>
<path fill-rule="evenodd" clip-rule="evenodd" d="M1171.64 349.21C1181.67 349.21 1189.82 356.43 1189.82 365.336V366.342C1189.82 375.803 1181.17 383.474 1170.5 383.474H1153.45V365.336C1153.45 356.43 1161.59 349.21 1171.64 349.21ZM1152.06 383.474V365.336C1152.06 355.745 1160.82 347.97 1171.64 347.97C1182.45 347.97 1191.22 355.745 1191.22 365.336V366.342C1191.22 376.488 1181.94 384.713 1170.5 384.713H1153.45V415.749C1153.45 416.091 1153.14 416.369 1152.76 416.369C1152.36 416.369 1152.06 416.091 1152.06 415.749V384.713H1113.55C1113.16 384.713 1112.85 384.436 1112.85 384.094C1112.85 383.751 1113.16 383.474 1113.55 383.474H1152.06Z" fill="url(#paint26_linear_73_368)"/>
<path fill-rule="evenodd" clip-rule="evenodd" d="M1263.85 329.518C1263.85 329.175 1264.17 328.898 1264.55 328.898H1357.32C1357.71 328.898 1358.02 329.175 1358.02 329.518C1358.02 329.86 1357.71 330.138 1357.32 330.138H1264.55C1264.17 330.138 1263.85 329.86 1263.85 329.518Z" fill="url(#paint27_linear_73_368)"/>
<path fill-rule="evenodd" clip-rule="evenodd" d="M390.209 157.528C390.209 157.87 389.896 158.148 389.51 158.148H253.039C252.652 158.148 252.34 157.87 252.34 157.528C252.34 157.186 252.652 156.908 253.039 156.908H389.51C389.896 156.908 390.209 157.186 390.209 157.528Z" fill="url(#paint28_linear_73_368)"/>
<path fill-rule="evenodd" clip-rule="evenodd" d="M593.051 639.85C593.051 639.509 593.364 639.23 593.75 639.23H622.44C622.827 639.23 623.139 639.509 623.139 639.85C623.139 640.191 622.827 640.47 622.44 640.47H593.75C593.364 640.47 593.051 640.191 593.051 639.85Z" fill="#D74677"/>
<path fill-rule="evenodd" clip-rule="evenodd" d="M682.129 639.85C682.129 639.509 682.443 639.23 682.828 639.23H710.745C711.129 639.23 711.444 639.509 711.444 639.85C711.444 640.191 711.129 640.47 710.745 640.47H682.828C682.443 640.47 682.129 640.191 682.129 639.85Z" fill="#D4396E"/>
<defs>
<linearGradient id="paint0_linear_73_368" x1="191.92" y1="141.925" x2="197.203" y2="159.259" gradientUnits="userSpaceOnUse">
<stop stop-color="#AC79BA"/>
<stop offset="1" stop-color="#6176D1"/>
</linearGradient>
<linearGradient id="paint1_linear_73_368" x1="609.738" y1="56.3518" x2="615.021" y2="73.686" gradientUnits="userSpaceOnUse">
<stop stop-color="#AC79BA"/>
<stop offset="1" stop-color="#6176D1"/>
</linearGradient>
<linearGradient id="paint2_linear_73_368" x1="330.641" y1="583.141" x2="274.369" y2="583.141" gradientUnits="userSpaceOnUse">
<stop stop-color="#B589C5"/>
<stop offset="1" stop-color="#B589C5" stop-opacity="0"/>
</linearGradient>
<linearGradient id="paint3_linear_73_368" x1="106.378" y1="319.152" x2="116.615" y2="354.036" gradientUnits="userSpaceOnUse">
<stop stop-color="#AC79BA"/>
<stop offset="1" stop-color="#6176D1"/>
</linearGradient>
<linearGradient id="paint4_linear_73_368" x1="1040.84" y1="414.509" x2="1194.77" y2="551.974" gradientUnits="userSpaceOnUse">
<stop stop-color="#C97AB2"/>
<stop offset="1" stop-color="#C97AB2" stop-opacity="0"/>
</linearGradient>
<linearGradient id="paint5_linear_73_368" x1="1045.91" y1="161.017" x2="1042.98" y2="147.866" gradientUnits="userSpaceOnUse">
<stop stop-color="#0572EC"/>
<stop offset="1" stop-color="#0572EC" stop-opacity="0"/>
</linearGradient>
<linearGradient id="paint6_linear_73_368" x1="373.762" y1="165.292" x2="256.394" y2="210.297" gradientUnits="userSpaceOnUse">
<stop offset="0.581686" stop-color="#9077C3"/>
<stop offset="1" stop-color="#733C86" stop-opacity="0"/>
</linearGradient>
<linearGradient id="paint7_linear_73_368" x1="564.899" y1="608.022" x2="560.052" y2="542.409" gradientUnits="userSpaceOnUse">
<stop offset="0.0572917" stop-color="#AF4283"/>
<stop offset="0.86284" stop-color="#CDA5DC"/>
<stop offset="1" stop-color="#F17BA5" stop-opacity="0"/>
</linearGradient>
<linearGradient id="paint8_linear_73_368" x1="918.986" y1="598.271" x2="890.034" y2="630.425" gradientUnits="userSpaceOnUse">
<stop stop-color="#CDA5DC"/>
<stop offset="0.784546" stop-color="#BC3E7B"/>
<stop offset="1" stop-color="#733C86" stop-opacity="0"/>
</linearGradient>
<linearGradient id="paint9_linear_73_368" x1="265.402" y1="562.304" x2="261.054" y2="537.332" gradientUnits="userSpaceOnUse">
<stop offset="0.0020097" stop-color="#0572EC"/>
<stop offset="0.973958" stop-color="#733C86" stop-opacity="0"/>
</linearGradient>
<linearGradient id="paint10_linear_73_368" x1="217.159" y1="259.095" x2="146.818" y2="288.498" gradientUnits="userSpaceOnUse">
<stop stop-color="#C679B3"/>
<stop offset="0.625" stop-color="#9F78BE"/>
<stop offset="1" stop-color="#D3376C" stop-opacity="0"/>
</linearGradient>
<linearGradient id="paint11_linear_73_368" x1="195.243" y1="415.297" x2="190.867" y2="390.335" gradientUnits="userSpaceOnUse">
<stop offset="0.0020097" stop-color="#9268A7"/>
<stop offset="0.973958" stop-color="#733C86" stop-opacity="0"/>
</linearGradient>
<linearGradient id="paint12_linear_73_368" x1="293.233" y1="643.514" x2="330.056" y2="792.901" gradientUnits="userSpaceOnUse">
<stop stop-color="#733C86" stop-opacity="0"/>
<stop offset="0.325905" stop-color="#F17BA5"/>
<stop offset="0.729789" stop-color="#F17BA5"/>
<stop offset="0.84146" stop-color="#CDA5DC"/>
<stop offset="1" stop-color="#733C86" stop-opacity="0"/>
</linearGradient>
<linearGradient id="paint13_linear_73_368" x1="536.595" y1="454.98" x2="457.314" y2="593.94" gradientUnits="userSpaceOnUse">
<stop stop-color="#0572EC" stop-opacity="0"/>
<stop offset="1" stop-color="#F17BA5"/>
</linearGradient>
<linearGradient id="paint14_linear_73_368" x1="357.622" y1="465.493" x2="360.735" y2="452.778" gradientUnits="userSpaceOnUse">
<stop stop-color="#0572EC"/>
<stop offset="1" stop-color="#0572EC" stop-opacity="0"/>
</linearGradient>
<linearGradient id="paint15_linear_73_368" x1="1219.14" y1="292.296" x2="1218.67" y2="317.17" gradientUnits="userSpaceOnUse">
<stop stop-color="#4B75D8"/>
<stop offset="1" stop-color="#0572EC" stop-opacity="0"/>
</linearGradient>
<linearGradient id="paint16_linear_73_368" x1="1151.41" y1="654.401" x2="1146.45" y2="583.075" gradientUnits="userSpaceOnUse">
<stop stop-color="#F17BA5" stop-opacity="0"/>
<stop offset="1" stop-color="#CDA5DC"/>
</linearGradient>
<linearGradient id="paint17_linear_73_368" x1="217.588" y1="312.164" x2="215.545" y2="282.239" gradientUnits="userSpaceOnUse">
<stop stop-color="#F17BA5" stop-opacity="0"/>
<stop offset="1" stop-color="#CDA5DC"/>
</linearGradient>
<linearGradient id="paint18_linear_73_368" x1="231.017" y1="81.7571" x2="493.182" y2="-5.80496" gradientUnits="userSpaceOnUse">
<stop stop-color="#66CBFF"/>
<stop offset="0.40625" stop-color="#0572EC"/>
<stop offset="1" stop-color="#02346E" stop-opacity="0"/>
</linearGradient>
<linearGradient id="paint19_linear_73_368" x1="337.799" y1="348.917" x2="337.009" y2="372.536" gradientUnits="userSpaceOnUse">
<stop stop-color="#CDA5DC"/>
<stop offset="1" stop-color="#733C86" stop-opacity="0"/>
</linearGradient>
<linearGradient id="paint20_linear_73_368" x1="327.845" y1="336.082" x2="365.966" y2="371.826" gradientUnits="userSpaceOnUse">
<stop offset="0.106104" stop-color="#CDA5DC"/>
<stop offset="0.448859" stop-color="#9F78BE"/>
<stop offset="1" stop-color="#66CBFF" stop-opacity="0"/>
</linearGradient>
<linearGradient id="paint21_linear_73_368" x1="1066.83" y1="459.072" x2="936.874" y2="703.22" gradientUnits="userSpaceOnUse">
<stop offset="0.0020097" stop-color="#0572EC"/>
<stop offset="0.973958" stop-color="#D3376C"/>
</linearGradient>
<linearGradient id="paint22_linear_73_368" x1="887.138" y1="-79.2114" x2="806.1" y2="453.363" gradientUnits="userSpaceOnUse">
<stop offset="0.0020097" stop-color="#0572EC"/>
<stop offset="0.973958" stop-color="#F17BA5"/>
</linearGradient>
<linearGradient id="paint23_linear_73_368" x1="695.073" y1="639.85" x2="677.959" y2="504.586" gradientUnits="userSpaceOnUse">
<stop stop-color="#D3376C"/>
<stop offset="0.55447" stop-color="#FFF9FC"/>
<stop offset="0.973958" stop-color="#F17BA5"/>
</linearGradient>
<linearGradient id="paint24_linear_73_368" x1="213.767" y1="299.213" x2="238.58" y2="303.606" gradientUnits="userSpaceOnUse">
<stop stop-color="#CDA5DC"/>
<stop offset="1" stop-color="#0572EC" stop-opacity="0"/>
</linearGradient>
<linearGradient id="paint25_linear_73_368" x1="918.986" y1="598.271" x2="890.034" y2="630.425" gradientUnits="userSpaceOnUse">
<stop stop-color="#CDA5DC"/>
<stop offset="0.784546" stop-color="#BC3E7B"/>
<stop offset="1" stop-color="#733C86" stop-opacity="0"/>
</linearGradient>
<linearGradient id="paint26_linear_73_368" x1="1180.79" y1="350.693" x2="1157.61" y2="376.429" gradientUnits="userSpaceOnUse">
<stop stop-color="#CDA5DC"/>
<stop offset="0.784546" stop-color="#C079B5"/>
<stop offset="1" stop-color="#F17BA6" stop-opacity="0"/>
</linearGradient>
<linearGradient id="paint27_linear_73_368" x1="1279.52" y1="329.518" x2="1287.51" y2="352.46" gradientUnits="userSpaceOnUse">
<stop offset="0.0020097" stop-color="#A578BD"/>
<stop offset="0.973958" stop-color="#733C86" stop-opacity="0"/>
</linearGradient>
<linearGradient id="paint28_linear_73_368" x1="367.493" y1="157.528" x2="361.721" y2="133.167" gradientUnits="userSpaceOnUse">
<stop offset="0.0020097" stop-color="#9077C3"/>
<stop offset="0.973958" stop-color="#733C86" stop-opacity="0"/>
</linearGradient>
</defs>
</svg>
