<svg width="341" height="341" viewBox="0 0 341 341" fill="none" xmlns="http://www.w3.org/2000/svg">
<path d="M28.3303 300.953L63.8762 300.783L99.4152 300.721L170.5 300.612L241.585 300.721L277.124 300.783L312.67 300.953L277.124 301.117L241.585 301.178L170.5 301.287L99.4152 301.178L63.8762 301.117L28.3303 300.953Z" fill="#263238"/>
<path d="M208.583 104.585H205.282C205.125 104.552 204.965 104.529 204.805 104.517C201.528 104.341 198.291 103.71 195.188 102.641C188.579 100.441 182.758 96.3537 178.445 90.8833C171.625 82.2833 169.15 72.5102 170.943 61.7074C172.149 54.3684 175.652 47.6011 180.948 42.3795C187.491 35.669 196.391 31.7719 205.759 31.5152C209.042 31.3804 212.326 31.718 215.512 32.5178C223.441 34.4045 230.5 38.9156 235.542 45.3189C239.877 50.7047 242.558 57.2307 243.263 64.108C243.345 64.8718 243.406 65.6357 243.474 66.3995V69.6868C243.474 69.83 243.42 69.9732 243.413 70.1232C243.267 72.8043 242.809 75.4593 242.049 78.0344C239.587 86.7742 233.936 94.2724 226.213 99.0469C221.561 101.995 216.286 103.816 210.806 104.366C210.056 104.448 209.333 104.51 208.583 104.585ZM222.4 50.4134C224.513 55.6197 225.668 61.1647 225.81 66.7814H240.917C240.629 58.9141 237.609 51.3928 232.378 45.5099C230.707 46.4306 229.132 47.3717 227.488 48.1833C225.844 48.9949 224.126 49.6564 222.4 50.4134ZM181.48 45.5099C176.268 51.3946 173.26 58.9055 172.969 66.761H188.089C188.237 61.1449 189.392 55.601 191.499 50.393C189.767 49.636 188.041 48.9608 186.384 48.1492C184.727 47.3376 183.124 46.4237 181.453 45.5099H181.48ZM232.999 89.9422C237.877 84.1494 240.68 76.8932 240.964 69.3253H225.824C225.682 74.5811 224.656 79.7755 222.789 84.6908C226.383 86.0227 229.802 87.7861 232.971 89.9422H232.999ZM172.983 69.3185C173.252 76.8355 176.021 84.0478 180.853 89.8126C182.558 88.8441 184.181 87.8416 185.886 86.9686C187.591 86.0957 189.344 85.3796 191.09 84.5816C189.249 79.6959 188.238 74.5373 188.096 69.3185H172.983ZM205.719 52.9027C201.741 52.7952 197.793 52.188 193.968 51.0954C191.909 56.0767 190.781 61.3933 190.64 66.7814H205.719V52.9027ZM223.355 66.761C223.203 61.37 222.061 56.0528 219.986 51.075C216.176 52.1667 212.244 52.7739 208.283 52.8823V66.761H223.355ZM205.719 69.3253H190.585C190.718 74.3069 191.693 79.2301 193.47 83.886C197.43 82.6955 201.53 82.0328 205.664 81.915L205.719 69.3253ZM208.276 81.915C212.39 82.0288 216.47 82.6916 220.409 83.886C222.189 79.231 223.164 74.3073 223.294 69.3253H208.222L208.276 81.915ZM192.092 86.9755C188.761 88.1805 185.587 89.7835 182.64 91.7495C185.246 94.4612 188.289 96.7159 191.642 98.4194C194.916 100.056 200.672 101.829 202.336 101.693C197.989 97.4947 194.492 92.4976 192.038 86.9755H192.092ZM231.307 91.8449C228.355 89.8872 225.182 88.2848 221.855 87.0709C219.395 92.5471 215.924 97.5101 211.625 101.7C219.08 100.686 225.986 97.2186 231.253 91.8449H231.307ZM205.705 101.284V84.4657C203.366 84.302 195.83 85.5023 194.513 86.2525C197.106 92.0027 200.904 97.1287 205.65 101.284H205.705ZM208.276 101.284C213.029 97.1376 216.838 92.0215 219.447 86.2798C217.401 85.4137 210.056 84.2338 208.276 84.4589V101.284ZM192.59 47.9923C195.015 42.9052 198.322 38.2874 202.356 34.3523C195.204 35.3146 188.546 38.5382 183.356 43.5525C186.238 45.387 189.323 46.8815 192.549 48.006L192.59 47.9923ZM221.364 47.9923C223.41 47.4877 229.377 44.5823 230.543 43.5184C225.363 38.5231 218.718 35.3181 211.584 34.3728C215.603 38.3017 218.9 42.9073 221.323 47.9787L221.364 47.9923ZM195.011 48.7698C198.493 49.7492 202.083 50.2944 205.698 50.393V34.782C201.219 38.6717 197.571 43.4245 194.97 48.7562L195.011 48.7698ZM208.262 50.393C211.866 50.2977 215.444 49.7571 218.915 48.7835C216.311 43.4552 212.677 38.6962 208.222 34.782L208.262 50.393Z" fill="#3398DB"/>
<g opacity="0.7">
<path d="M208.583 104.585H205.282C205.125 104.552 204.965 104.529 204.805 104.517C201.528 104.341 198.291 103.71 195.188 102.641C188.579 100.441 182.758 96.3537 178.445 90.8833C171.625 82.2833 169.15 72.5102 170.943 61.7074C172.149 54.3684 175.652 47.6011 180.948 42.3795C187.491 35.669 196.391 31.7719 205.759 31.5152C209.042 31.3804 212.326 31.718 215.512 32.5178C223.441 34.4045 230.5 38.9156 235.542 45.3189C239.877 50.7047 242.558 57.2307 243.263 64.108C243.345 64.8718 243.406 65.6357 243.474 66.3995V69.6868C243.474 69.83 243.42 69.9732 243.413 70.1232C243.267 72.8043 242.809 75.4593 242.049 78.0344C239.587 86.7742 233.936 94.2724 226.213 99.0469C221.561 101.995 216.286 103.816 210.806 104.366C210.056 104.448 209.333 104.51 208.583 104.585ZM222.4 50.4134C224.513 55.6197 225.668 61.1647 225.81 66.7814H240.917C240.629 58.9141 237.609 51.3928 232.378 45.5099C230.707 46.4306 229.132 47.3717 227.488 48.1833C225.844 48.9949 224.126 49.6564 222.4 50.4134ZM181.48 45.5099C176.268 51.3946 173.26 58.9055 172.969 66.761H188.089C188.237 61.1449 189.392 55.601 191.499 50.393C189.767 49.636 188.041 48.9608 186.384 48.1492C184.727 47.3376 183.124 46.4237 181.453 45.5099H181.48ZM232.999 89.9422C237.877 84.1494 240.68 76.8932 240.964 69.3253H225.824C225.682 74.5811 224.656 79.7755 222.789 84.6908C226.383 86.0227 229.802 87.7861 232.971 89.9422H232.999ZM172.983 69.3185C173.252 76.8355 176.021 84.0478 180.853 89.8126C182.558 88.8441 184.181 87.8416 185.886 86.9686C187.591 86.0957 189.344 85.3796 191.09 84.5816C189.249 79.6959 188.238 74.5373 188.096 69.3185H172.983ZM205.719 52.9027C201.741 52.7952 197.793 52.188 193.968 51.0954C191.909 56.0767 190.781 61.3933 190.64 66.7814H205.719V52.9027ZM223.355 66.761C223.203 61.37 222.061 56.0528 219.986 51.075C216.176 52.1667 212.244 52.7739 208.283 52.8823V66.761H223.355ZM205.719 69.3253H190.585C190.718 74.3069 191.693 79.2301 193.47 83.886C197.43 82.6955 201.53 82.0328 205.664 81.915L205.719 69.3253ZM208.276 81.915C212.39 82.0288 216.47 82.6916 220.409 83.886C222.189 79.231 223.164 74.3073 223.294 69.3253H208.222L208.276 81.915ZM192.092 86.9755C188.761 88.1805 185.587 89.7835 182.64 91.7495C185.246 94.4612 188.289 96.7159 191.642 98.4194C194.916 100.056 200.672 101.829 202.336 101.693C197.989 97.4947 194.492 92.4976 192.038 86.9755H192.092ZM231.307 91.8449C228.355 89.8872 225.182 88.2848 221.855 87.0709C219.395 92.5471 215.924 97.5101 211.625 101.7C219.08 100.686 225.986 97.2186 231.253 91.8449H231.307ZM205.705 101.284V84.4657C203.366 84.302 195.83 85.5023 194.513 86.2525C197.106 92.0027 200.904 97.1287 205.65 101.284H205.705ZM208.276 101.284C213.029 97.1376 216.838 92.0215 219.447 86.2798C217.401 85.4137 210.056 84.2338 208.276 84.4589V101.284ZM192.59 47.9923C195.015 42.9052 198.322 38.2874 202.356 34.3523C195.204 35.3146 188.546 38.5382 183.356 43.5525C186.238 45.387 189.323 46.8815 192.549 48.006L192.59 47.9923ZM221.364 47.9923C223.41 47.4877 229.377 44.5823 230.543 43.5184C225.363 38.5231 218.718 35.3181 211.584 34.3728C215.603 38.3017 218.9 42.9073 221.323 47.9787L221.364 47.9923ZM195.011 48.7698C198.493 49.7492 202.083 50.2944 205.698 50.393V34.782C201.219 38.6717 197.571 43.4245 194.97 48.7562L195.011 48.7698ZM208.262 50.393C211.866 50.2977 215.444 49.7571 218.915 48.7835C216.311 43.4552 212.677 38.6962 208.222 34.782L208.262 50.393Z" fill="white"/>
</g>
<path d="M140.724 94.8323H58.6521V107.272H140.724V94.8323Z" fill="white"/>
<path d="M141.065 107.613H58.311V94.4912H141.065V107.613ZM58.993 106.931H140.383V95.1732H58.993V106.931Z" fill="#EBEBEB"/>
<path d="M72.7762 98.4058H72.0942V104.1H72.7762V98.4058Z" fill="#F39C12"/>
<path d="M75.2792 100.916H69.5845V101.598H75.2792V100.916Z" fill="#F39C12"/>
<path d="M74.2023 99.0062L70.1755 103.033L70.6578 103.515L74.6845 99.4884L74.2023 99.0062Z" fill="#F39C12"/>
<path d="M70.6578 99.0014L70.1755 99.4836L74.2023 103.51L74.6845 103.028L70.6578 99.0014Z" fill="#F39C12"/>
<path d="M82.4403 98.4058H81.7583V104.1H82.4403V98.4058Z" fill="#F39C12"/>
<path d="M84.9501 100.916H79.2554V101.598H84.9501V100.916Z" fill="#F39C12"/>
<path d="M83.8778 99.0016L79.8511 103.028L80.3333 103.511L84.3601 99.4838L83.8778 99.0016Z" fill="#F39C12"/>
<path d="M80.3333 98.9968L79.8511 99.479L83.8778 103.506L84.3601 103.024L80.3333 98.9968Z" fill="#F39C12"/>
<path d="M92.111 98.4058H91.429V104.1H92.111V98.4058Z" fill="#F39C12"/>
<path d="M94.6207 100.916H88.926V101.598H94.6207V100.916Z" fill="#F39C12"/>
<path d="M93.5414 99.0086L89.5146 103.035L89.9969 103.518L94.0237 99.4909L93.5414 99.0086Z" fill="#F39C12"/>
<path d="M89.9969 99.0036L89.5146 99.4858L93.5414 103.513L94.0237 103.03L89.9969 99.0036Z" fill="#F39C12"/>
<path d="M101.782 98.4058H101.1V104.1H101.782V98.4058Z" fill="#F39C12"/>
<path d="M104.285 100.916H98.5901V101.598H104.285V100.916Z" fill="#F39C12"/>
<path d="M103.21 99.004L99.1831 103.031L99.6654 103.513L103.692 99.4862L103.21 99.004Z" fill="#F39C12"/>
<path d="M99.6654 98.9924L99.1831 99.4746L103.21 103.501L103.692 103.019L99.6654 98.9924Z" fill="#F39C12"/>
<path d="M111.453 98.4058H110.771V104.1H111.453V98.4058Z" fill="#F39C12"/>
<path d="M113.955 100.916H108.26V101.598H113.955V100.916Z" fill="#F39C12"/>
<path d="M112.879 99.0062L108.852 103.033L109.334 103.515L113.361 99.4884L112.879 99.0062Z" fill="#F39C12"/>
<path d="M109.334 98.9946L108.852 99.4768L112.879 103.504L113.361 103.021L109.334 98.9946Z" fill="#F39C12"/>
<path d="M121.117 98.4058H120.435V104.1H121.117V98.4058Z" fill="#F39C12"/>
<path d="M123.626 100.916H117.932V101.598H123.626V100.916Z" fill="#F39C12"/>
<path d="M122.554 99.0016L118.527 103.028L119.01 103.511L123.036 99.4838L122.554 99.0016Z" fill="#F39C12"/>
<path d="M119.004 98.9948L118.522 99.4771L122.549 103.504L123.031 103.022L119.004 98.9948Z" fill="#F39C12"/>
<path d="M64.1899 101.052C64.1913 102.582 63.7387 104.078 62.8894 105.351C62.0401 106.624 60.8323 107.616 59.4188 108.203C58.0054 108.789 56.4498 108.943 54.9489 108.644C53.4481 108.346 52.0694 107.61 50.9874 106.528C49.9054 105.446 49.1686 104.067 48.8704 102.566C48.5722 101.065 48.726 99.5095 49.3122 98.0961C49.8984 96.6826 50.8907 95.4748 52.1636 94.6255C53.4365 93.7762 54.9327 93.3236 56.4629 93.325C58.5117 93.3268 60.476 94.1414 61.9247 95.5902C63.3734 97.0389 64.1881 99.0032 64.1899 101.052Z" fill="#3398DB"/>
<path d="M59.8934 100.111H53.0256V105.485H59.8934V100.111Z" fill="white"/>
<path d="M59.2045 99.0334H58.5225V98.3923C58.5225 97.8497 58.307 97.3293 57.9233 96.9456C57.5396 96.5619 57.0192 96.3463 56.4765 96.3463C55.9339 96.3463 55.4135 96.5619 55.0298 96.9456C54.6461 97.3293 54.4305 97.8497 54.4305 98.3923V101.175H53.7485V98.3923C53.7485 97.6688 54.036 96.9749 54.5476 96.4633C55.0592 95.9517 55.753 95.6643 56.4765 95.6643C57.2 95.6643 57.8939 95.9517 58.4055 96.4633C58.9171 96.9749 59.2045 97.6688 59.2045 98.3923V99.0334Z" fill="white"/>
<path d="M56.7493 102.45L57.0357 103.814H55.8149L56.1082 102.45C56.0185 102.394 55.945 102.316 55.8948 102.223C55.8446 102.13 55.8195 102.026 55.8219 101.92C55.8244 101.815 55.8544 101.712 55.9089 101.621C55.9633 101.531 56.0405 101.456 56.1327 101.405C56.2248 101.353 56.3288 101.327 56.4344 101.328C56.54 101.329 56.6435 101.357 56.7347 101.41C56.8259 101.464 56.9016 101.54 56.9544 101.631C57.0072 101.723 57.0352 101.826 57.0357 101.932C57.0356 102.035 57.0092 102.137 56.9591 102.228C56.9091 102.318 56.8369 102.395 56.7493 102.45Z" fill="#3398DB"/>
<path d="M211.884 85.4614C211.884 85.4614 205.834 133.883 195.904 144.748C183.976 157.815 175.322 155.905 170.5 162.643C165.685 155.898 157.03 157.822 145.095 144.741C135.159 133.829 129.123 85.4546 129.123 85.4546C155.298 72.7558 170.5 58.5088 170.5 58.5088C170.971 58.9589 186.111 72.974 211.884 85.4614Z" fill="#3398DB"/>
<path opacity="0.2" d="M170.5 58.5224V162.643C165.685 155.898 157.03 157.822 145.095 144.741C135.159 133.829 129.123 85.4546 129.123 85.4546C155.298 72.7558 170.5 58.5088 170.5 58.5088V58.5224Z" fill="#151D26"/>
<path opacity="0.1" d="M211.884 85.4615C211.884 85.4615 205.834 133.883 195.904 144.748C183.976 157.815 175.322 155.905 170.5 162.643V58.5225C170.971 58.9589 186.111 72.974 211.884 85.4615Z" fill="#151D26"/>
<path d="M205.459 89.3421C205.459 89.3421 200.358 130.228 191.963 139.428C181.883 150.504 174.592 148.881 170.5 154.569C166.408 148.881 159.118 150.477 149.031 139.449C140.635 130.262 135.541 89.3421 135.541 89.3421C157.651 78.6211 170.5 66.5906 170.5 66.5906C170.5 66.5906 183.349 78.6211 205.459 89.3421Z" fill="#3398DB"/>
<path opacity="0.1" d="M170.752 66.8361V154.234C170.66 154.341 170.574 154.453 170.493 154.569C166.401 148.881 159.111 150.477 149.024 139.449C140.635 130.262 135.541 89.3421 135.541 89.3421C157.658 78.6211 170.5 66.5906 170.5 66.5906L170.752 66.8361Z" fill="#151D26"/>
<path d="M183.083 108.915H157.917V128.598H183.083V108.915Z" fill="white"/>
<path d="M180.566 104.946H178.002V102.62C178.002 100.631 177.212 98.7227 175.805 97.3158C174.398 95.9089 172.49 95.1185 170.5 95.1185C168.51 95.1185 166.602 95.9089 165.195 97.3158C163.788 98.7227 162.998 100.631 162.998 102.62V112.816H160.44V102.62C160.509 99.997 161.599 97.5039 163.479 95.6725C165.358 93.8411 167.879 92.8162 170.503 92.8162C173.128 92.8162 175.648 93.8411 177.528 95.6725C179.408 97.5039 180.498 99.997 180.566 102.62V104.946Z" fill="white"/>
<path d="M171.564 117.468L172.614 122.467H168.147L169.197 117.468C168.785 117.211 168.467 116.826 168.293 116.373C168.118 115.919 168.096 115.421 168.23 114.954C168.364 114.487 168.646 114.076 169.034 113.783C169.422 113.491 169.895 113.332 170.381 113.332C170.866 113.332 171.339 113.491 171.727 113.783C172.115 114.076 172.397 114.487 172.531 114.954C172.665 115.421 172.643 115.919 172.468 116.373C172.294 116.826 171.976 117.211 171.564 117.468Z" fill="#3398DB"/>
<path d="M109.979 199.021C116.54 227.57 130.112 261.765 135.895 267.344C143.22 274.369 191.703 287.252 194.124 287.511C200.112 288.118 215.416 247.655 209.04 246.734C199.328 245.329 160.733 240.767 158.612 238.591C156.491 236.415 141.521 217.538 126.204 196.307C115.64 181.644 105.914 181.31 109.979 199.021Z" fill="#EB9481"/>
<path d="M188.307 285.144C188.989 285.478 198.285 290.171 204.054 291.841C208.358 293.09 220.838 296.343 222.68 291.746C223.941 288.609 216.828 285.833 211.843 283.753C209.21 282.662 205.978 279.906 206.748 278.222C208.112 275.269 214.864 278.222 219.311 280.82C227.911 285.813 239.368 294.808 244.62 290.443C246.604 288.793 244.299 285.792 240.923 282.846C246.379 286.256 252.238 289.093 254.516 287.347C255.818 286.358 255.879 284.994 255.15 283.432C256.841 283.985 258.335 283.876 259.378 282.75C261.158 280.889 260.292 278.14 258.342 275.323C258.676 275.288 258.997 275.172 259.279 274.987C259.56 274.802 259.793 274.553 259.958 274.259C263.723 268.517 244.872 252.026 238.345 250.478C219.161 245.922 198.946 246.768 198.946 246.768C191.41 252.817 188.293 285.137 188.307 285.144Z" fill="#EB9481"/>
<path d="M216.522 267.487C221.087 268.203 225.449 269.881 229.316 272.411C234.179 275.623 237.404 279.381 241.49 283.166C241.592 283.262 241.442 283.432 241.333 283.33C239.389 281.536 231.335 274.771 229.254 273.236C225.488 270.403 221.127 268.462 216.501 267.562C216.453 267.555 216.467 267.48 216.522 267.487Z" fill="#263238"/>
<path d="M220.095 259.344C225.135 260.708 230.325 262.12 234.983 264.5C240.105 267.112 244.115 271.368 248.057 275.46C250.421 277.924 252.731 280.436 254.986 282.996C255.082 283.105 254.938 283.275 254.836 283.166C250.839 278.933 246.716 274.825 242.464 270.843C238.547 267.122 233.932 264.213 228.886 262.283C226.001 261.185 223.034 260.306 220.074 259.433C220.066 259.427 220.059 259.42 220.055 259.41C220.051 259.401 220.05 259.391 220.052 259.381C220.055 259.371 220.06 259.362 220.068 259.355C220.075 259.349 220.085 259.345 220.095 259.344Z" fill="#263238"/>
<path d="M225.483 252.224C230.379 253.233 234.656 254.093 238.993 256.718C244.735 260.19 250.28 266.048 252.224 268.128C254.386 270.42 256.432 272.8 258.478 275.173C258.56 275.275 258.396 275.419 258.307 275.323C253.65 270.071 248.656 265.128 243.358 260.524C240.872 258.284 238.054 256.443 235.003 255.068C231.908 253.852 228.713 252.905 225.455 252.238C225.455 252.238 225.455 252.224 225.483 252.224Z" fill="#263238"/>
<path d="M197.528 241.762L182.612 288.997C182.612 288.997 142.245 277.472 134.872 269.513C127.5 261.554 113.894 220.477 109.877 200.569C105.86 180.662 115.94 181.153 125.188 193.688C134.436 206.223 157.481 236.654 158.77 237.336C160.058 238.018 197.528 241.762 197.528 241.762Z" fill="#F39C12"/>
<path d="M178.745 268.026C180.546 262.454 182.401 256.903 183.996 251.263C184.904 248.064 185.831 244.866 186.724 241.653C186.759 241.531 186.554 241.456 186.513 241.578C184.467 247.096 182.421 252.634 180.668 258.24C178.916 263.846 177.081 269.39 175.376 274.996C174.414 278.181 173.548 281.387 172.771 284.633C172.771 284.694 172.859 284.735 172.887 284.674C175.09 279.204 176.924 273.619 178.745 268.026Z" fill="#263238"/>
<path opacity="0.1" d="M162.254 282.505L160.467 281.878C157.105 280.677 153.647 279.388 150.449 278.065C150.026 277.901 149.617 277.731 149.214 277.56C148.567 277.294 147.919 277.015 147.291 276.742L146.35 276.333L146.016 276.183L145.047 275.733C143.765 275.146 142.551 274.553 141.419 273.959L140.635 273.543C138.864 272.632 137.195 271.535 135.656 270.27C135.513 270.14 135.37 270.018 135.247 269.888C135.115 269.77 134.99 269.645 134.872 269.513C127.493 261.561 113.88 220.484 109.877 200.569C109.829 200.338 109.781 200.106 109.74 199.887V199.737C109.468 198.223 109.229 196.327 109.058 194.329C108.499 184.42 113.184 182.803 118.981 187.161C133.44 218.138 155.564 269.349 162.254 282.505Z" fill="#151D26"/>
<path d="M143.445 300.864H44.8142C44.8892 298.743 58.9725 236.477 70.1641 213.5C84.4861 184.045 91.9199 181.678 96.3393 180.082C101.993 178.036 112.059 179.059 114.453 180.184C117.181 181.446 125.788 196.552 128.884 207.574C135.091 229.766 144.836 299.514 143.445 300.864Z" fill="#F39C12"/>
<path d="M111.848 228.606C111.848 228.606 107.292 229.568 105.287 227.16C102.777 224.153 103.712 218.083 105.164 215.035C106.869 211.488 112.196 209.047 116.431 209.299C120.666 209.551 122.63 210.983 123.728 211.931C125.474 213.425 128.005 219.924 126.245 223.566C124.485 227.208 122.153 227.256 120.332 227.767C120.332 227.767 120.605 231.975 119.923 233.674C119.643 234.356 113.621 234.908 112.953 234.356C112.284 233.803 111.848 228.606 111.848 228.606Z" fill="white"/>
<path d="M114.63 234.608H114.46C114.46 234.396 114.412 234.178 114.378 233.926L114.276 232.998L114.18 232.064C114.148 231.75 114.121 231.437 114.098 231.123L114.057 230.652V230.188C114.057 229.875 114.057 229.561 114.057 229.24C114.057 229.561 114.132 229.868 114.173 230.175L114.296 231.109C114.337 231.416 114.371 231.73 114.412 232.043L114.514 232.978L114.576 233.926C114.576 234.144 114.61 234.369 114.63 234.608Z" fill="#263238"/>
<path d="M116.745 234.472H116.567C116.567 234.369 116.567 234.274 116.567 234.172L116.479 233.169L116.397 232.16C116.397 231.826 116.349 231.478 116.329 231.157L116.267 230.148V229.65C116.267 229.561 116.267 229.479 116.267 229.398V229.268V229.391L116.308 229.643C116.308 229.807 116.349 229.97 116.376 230.141C116.424 230.475 116.458 230.823 116.499 231.144C116.54 231.464 116.567 231.826 116.595 232.146L116.683 233.149L116.765 234.158L116.745 234.472Z" fill="#263238"/>
<path d="M118.729 234.172L118.565 234.206C118.565 234.015 118.552 233.824 118.524 233.633L118.443 232.644L118.299 230.666C118.252 229.984 118.204 229.357 118.122 228.702C118.163 228.859 118.204 229.023 118.231 229.186C118.258 229.35 118.293 229.514 118.32 229.671L118.388 230.162C118.388 230.325 118.436 230.496 118.456 230.659C118.477 230.823 118.49 230.98 118.511 231.151C118.531 231.321 118.511 231.478 118.559 231.642C118.559 231.969 118.62 232.324 118.64 232.63C118.661 232.937 118.681 233.312 118.709 233.619L118.729 234.172Z" fill="#263238"/>
<path d="M118.034 226.192C118.013 226.334 117.943 226.464 117.836 226.56C117.731 226.652 117.6 226.709 117.461 226.724C117.581 226.673 117.69 226.599 117.781 226.506C117.863 226.411 117.918 226.295 117.938 226.172C117.942 226.128 117.942 226.085 117.938 226.042C117.916 226.099 117.883 226.152 117.843 226.199C117.161 226.929 116.315 225.455 116.315 225.455C116.315 225.455 115.94 226.997 115.122 226.594C115.043 226.556 114.977 226.497 114.931 226.424C114.927 226.451 114.927 226.479 114.931 226.506C114.956 226.584 114.991 226.66 115.033 226.731C115.074 226.801 115.127 226.863 115.19 226.915C115.319 227.027 115.483 227.092 115.654 227.099C115.475 227.121 115.295 227.074 115.149 226.969C114.999 226.864 114.891 226.71 114.842 226.533C114.801 226.36 114.801 226.181 114.842 226.008V225.912C115.037 225.09 115.469 224.344 116.083 223.764C116.295 223.573 117.693 224.746 117.938 225.612C117.963 225.665 117.981 225.72 117.993 225.776C118.038 225.91 118.051 226.052 118.034 226.192Z" fill="#263238"/>
<path d="M116.103 226.574C116.057 226.668 115.986 226.748 115.899 226.806C115.81 226.867 115.706 226.9 115.599 226.901C115.546 226.905 115.494 226.905 115.442 226.901L115.299 226.847H115.449C115.496 226.854 115.544 226.854 115.592 226.847C115.683 226.839 115.77 226.806 115.844 226.751C115.997 226.638 116.115 226.485 116.185 226.308C116.176 226.401 116.149 226.492 116.103 226.574Z" fill="#263238"/>
<path d="M109.358 211.802C109.072 212.027 108.785 212.266 108.519 212.484C108.254 212.702 107.988 212.982 107.735 213.248C107.494 213.506 107.266 213.777 107.053 214.059C106.937 214.203 106.835 214.346 106.726 214.496L106.583 214.714C106.529 214.789 106.479 214.866 106.433 214.946C105.678 216.187 105.143 217.548 104.85 218.97C104.881 218.233 105.019 217.505 105.26 216.808C105.373 216.455 105.508 216.109 105.662 215.771C105.815 215.433 105.991 215.105 106.187 214.789C106.579 214.158 107.054 213.582 107.599 213.077C107.871 212.835 108.155 212.608 108.451 212.395C108.739 212.176 109.042 211.977 109.358 211.802Z" fill="#3398DB"/>
<path d="M107.899 213.875C108.039 213.598 108.216 213.341 108.424 213.111C108.633 212.883 108.861 212.673 109.106 212.484C109.349 212.293 109.607 212.122 109.877 211.973C110.013 211.898 110.157 211.836 110.293 211.775L110.723 211.611C110.6 211.7 110.463 211.775 110.341 211.857L110.15 211.979L109.959 212.109L109.775 212.232L109.591 212.368C109.461 212.45 109.345 212.545 109.229 212.634C108.99 212.825 108.765 213.016 108.547 213.221C108.329 213.425 108.104 213.643 107.899 213.875Z" fill="#3398DB"/>
<path d="M109.658 211.618C109.754 211.513 109.867 211.425 109.993 211.359C110.117 211.285 110.258 211.243 110.402 211.236C110.285 211.311 110.165 211.379 110.04 211.44C109.918 211.51 109.791 211.57 109.658 211.618Z" fill="#3398DB"/>
<path d="M109.161 219.366C109.904 219.209 113.321 220.048 113.191 223.13C113.062 226.213 111.664 227.222 110.184 227.277C109.643 227.297 109.104 227.205 108.601 227.006C108.098 226.807 107.641 226.506 107.261 226.121C106.881 225.736 106.584 225.276 106.391 224.771C106.198 224.265 106.112 223.725 106.139 223.185C106.167 220.382 107.653 219.693 109.161 219.366Z" fill="#3398DB"/>
<path d="M120.618 219.086C121.017 218.97 121.436 218.94 121.847 218.998C122.258 219.055 122.652 219.198 123.004 219.418C123.357 219.638 123.658 219.93 123.89 220.275C124.121 220.619 124.278 221.009 124.349 221.418C124.696 223.287 123.871 225.217 122.214 225.449C120.168 225.742 118.572 223.832 118.497 222.202C118.395 219.952 120.618 219.086 120.618 219.086Z" fill="#3398DB"/>
<path d="M124.431 222.952C124.368 223.338 124.248 223.713 124.076 224.064C123.99 224.24 123.887 224.406 123.769 224.562C123.646 224.716 123.507 224.855 123.353 224.978C123.043 225.207 122.683 225.359 122.303 225.421C122.668 225.331 123.005 225.153 123.285 224.903C123.557 224.649 123.767 224.337 123.899 223.989C123.984 223.768 124.048 223.54 124.09 223.307C123.856 223.792 123.487 224.198 123.027 224.478C122.567 224.757 122.036 224.898 121.498 224.883C120.925 224.881 120.361 224.734 119.862 224.453C119.929 224.522 120.002 224.586 120.08 224.644C120.195 224.737 120.321 224.818 120.455 224.883C120.587 224.952 120.727 225.007 120.871 225.046C121.165 225.119 121.469 225.145 121.771 225.121C121.466 225.172 121.155 225.172 120.85 225.121C120.695 225.094 120.542 225.053 120.393 224.998C120.245 224.943 120.104 224.872 119.971 224.787C119.71 224.612 119.48 224.395 119.289 224.146C119.189 224.018 119.098 223.883 119.016 223.744C118.932 223.605 118.861 223.459 118.804 223.307C118.583 222.887 118.468 222.418 118.47 221.943C118.47 220.245 119.582 218.335 121.805 218.479C122.603 218.575 123.332 218.975 123.84 219.597C124.349 220.219 124.597 221.013 124.533 221.814C124.547 222.011 124.547 222.209 124.533 222.407C124.508 222.59 124.474 222.772 124.431 222.952Z" fill="#263238"/>
<path d="M111.166 226.513C110.996 226.626 110.809 226.714 110.613 226.772C110.417 226.835 110.213 226.872 110.006 226.881C109.596 226.906 109.184 226.843 108.799 226.697C108.998 226.734 109.198 226.761 109.399 226.779C109.599 226.789 109.8 226.789 110 226.779C110.199 226.768 110.398 226.741 110.593 226.697L110.736 226.656L110.879 226.615C110.989 226.595 111.077 226.547 111.166 226.513Z" fill="#263238"/>
<path d="M113.109 224.174C113.054 224.595 112.951 225.009 112.803 225.408C112.648 225.808 112.416 226.174 112.121 226.486C111.973 226.638 111.808 226.773 111.629 226.888C111.451 226.995 111.261 227.082 111.063 227.147C111.447 226.994 111.785 226.745 112.045 226.424C112.294 226.1 112.479 225.732 112.591 225.34L112.652 225.115C112.336 225.515 111.944 225.849 111.498 226.098C111.052 226.346 110.562 226.504 110.055 226.562C109.548 226.621 109.034 226.578 108.544 226.437C108.053 226.297 107.595 226.06 107.196 225.742C107.274 225.88 107.361 226.012 107.456 226.138C107.556 226.266 107.668 226.384 107.79 226.492C107.912 226.602 108.042 226.702 108.179 226.792C108.464 226.963 108.779 227.081 109.106 227.14C108.767 227.116 108.435 227.026 108.131 226.874C107.976 226.801 107.83 226.712 107.694 226.608C107.558 226.506 107.43 226.392 107.312 226.267C107.075 226.014 106.874 225.729 106.712 225.422C106.63 225.265 106.562 225.108 106.494 224.944C106.43 224.787 106.377 224.625 106.337 224.46C106.131 223.829 106.057 223.163 106.119 222.503C106.269 220.361 107.906 219.209 109.911 219.277C110.593 219.277 113.171 219.795 113.184 223.076C113.182 223.304 113.166 223.531 113.137 223.758L113.109 224.174Z" fill="#263238"/>
<path d="M83.2038 188.682C66.945 202.895 25.2679 258.853 35.4638 270.87C45.6597 282.887 109.911 274.628 128.386 268.019C133.883 266.048 117.277 231.334 111.193 229.95C106.126 228.79 78.6754 238.134 78.0684 236.545C77.3864 234.751 82.8424 222.584 91.456 200.433C101.406 174.892 90.3853 182.401 83.2038 188.682Z" fill="#EB9481"/>
<path d="M138.323 222.039C151.281 221.555 154.637 223.403 165.33 217.217C172.341 213.125 177.954 215.887 173.46 223.028C166.115 234.704 149.59 238.823 143.452 238.605L138.323 222.039Z" fill="#EB9481"/>
<path d="M103.22 230.871C103.22 230.871 118.347 224.371 132.069 222.496C141.562 221.2 162.52 220.682 180.246 243.106C184.453 248.425 186.67 258.99 176.651 252.797C169.531 248.398 166.346 243.454 161.736 241.646C161.736 241.646 162.964 255.416 157.474 259.426C152.667 262.925 147.619 266.079 142.367 268.865C141.63 268.02 140.947 267.129 140.321 266.198C140.321 266.198 134.865 269.451 125.317 267.562L103.22 230.871Z" fill="#EB9481"/>
<path d="M141.324 222.707C145.518 225.435 154.282 231.457 159.799 238.864C165.889 247.089 175.41 264.582 169.293 269.015C164.805 272.268 160.583 265.912 160.583 265.912C160.583 265.912 162.991 273.966 158.299 276.019C154.023 277.888 151.049 272.773 151.049 272.773C151.049 272.773 151.67 277.915 147.203 278.911C141.828 280.125 141.406 269.151 134.927 265.68C133.44 264.903 141.324 222.707 141.324 222.707Z" fill="#EB9481"/>
<path d="M150.04 243.856C153.559 247.096 159.663 256.507 160.679 265.714C160.679 265.926 160.556 266.055 160.495 265.871C157.887 258.15 154.349 250.776 149.958 243.911C149.924 243.863 149.992 243.815 150.04 243.856Z" fill="#263238"/>
<path d="M141.904 250.246C144.632 253.356 150.511 263.334 151.227 272.704C151.227 272.916 151.083 273.032 151.029 272.848C148.833 265.007 145.756 257.441 141.856 250.294C141.856 250.281 141.861 250.269 141.87 250.26C141.879 250.251 141.891 250.246 141.904 250.246Z" fill="#263238"/>
<path d="M161.75 241.564C165.781 243.208 168.27 245.52 171.53 248.309C173.123 249.714 174.795 251.028 176.536 252.245C178.138 253.329 180.491 254.973 182.435 253.718C183.519 253.036 183.656 251.569 183.547 250.403C183.214 248.665 182.606 246.992 181.746 245.445C181.712 245.384 181.814 245.322 181.848 245.384C182.683 246.795 183.369 248.29 183.894 249.844C184.237 250.908 184.254 252.051 183.942 253.124C183.097 255.354 180.369 255.382 178.52 254.557C177.424 254.021 176.382 253.379 175.41 252.64C174.462 251.958 173.549 251.235 172.648 250.492C170.814 248.957 169.061 247.314 167.24 245.759C165.467 244.278 163.601 242.911 161.654 241.667C161.651 241.653 161.65 241.639 161.654 241.625C161.657 241.612 161.664 241.599 161.673 241.589C161.683 241.578 161.695 241.571 161.708 241.567C161.722 241.562 161.736 241.562 161.75 241.564Z" fill="#263238"/>
<path d="M168.965 257.06C168.126 254.584 163.311 244.102 161.654 241.653C161.65 241.641 161.65 241.627 161.654 241.615C161.658 241.602 161.666 241.592 161.677 241.584C161.687 241.576 161.7 241.572 161.713 241.573C161.726 241.573 161.739 241.577 161.75 241.585C164.675 244.995 169.047 253.657 169.995 256.391C170.943 259.126 171.98 262.529 171.686 265.407C171.243 269.752 168.276 270.277 167.199 270.386C165.911 270.482 164.628 270.136 163.564 269.404C162.328 268.46 161.298 267.274 160.536 265.919C160.536 265.857 160.59 265.782 160.631 265.844C161.961 267.706 164.287 269.649 166.68 269.581C167.207 269.581 167.728 269.477 168.214 269.275C168.7 269.072 169.14 268.775 169.511 268.401C170.253 267.425 170.626 266.216 170.561 264.991C170.609 262.263 169.818 259.604 168.965 257.06Z" fill="#263238"/>
<path d="M103.22 230.871L119.022 275.201C119.022 275.201 38.6623 284.838 33.2676 270.475C27.873 256.112 63.8281 205.685 79.1594 191.485C96.9255 175.042 98.3373 181.392 93.2018 197.044C87.8208 213.412 78.266 236.961 78.266 236.961L103.22 230.871Z" fill="#F39C12"/>
<path d="M53.2438 245.786C57.1508 243.641 61.2079 241.781 65.3834 240.221C69.5164 238.693 73.7562 237.471 78.0686 236.565C80.5238 236.027 82.9926 235.597 85.4683 235.16C85.4803 235.165 85.4907 235.172 85.4981 235.183C85.5055 235.193 85.5095 235.206 85.5095 235.218C85.5095 235.231 85.5055 235.244 85.4981 235.254C85.4907 235.264 85.4803 235.272 85.4683 235.276C81.1391 236.21 76.8672 237.391 72.6739 238.816C68.491 240.18 64.3399 241.63 60.2206 243.167C57.8882 244.033 55.5967 245.008 53.2915 245.95C53.196 245.997 53.1415 245.841 53.2438 245.786Z" fill="#263238"/>
<path d="M103.023 230.727C102.621 230.789 80.4146 235.706 79.6781 235.965C79.8008 235.645 84.8135 224.61 85.5569 223.007C85.6319 222.843 85.7001 222.68 85.7751 222.523C86.2389 221.841 86.7095 221.111 87.1391 220.388L88.8169 217.592C88.8169 217.592 88.8169 217.531 88.7691 217.558C88.1758 218.465 87.5756 219.365 86.9823 220.286C86.7027 220.702 86.4435 221.132 86.1843 221.561C86.6822 220.415 87.1664 219.27 87.6506 218.117C88.4213 216.276 89.1306 214.421 89.8399 212.552C89.8399 212.497 89.7717 212.463 89.7444 212.552C88.2644 215.764 86.689 218.936 85.2023 222.148C83.7155 225.36 78.0481 237.152 78.0822 237.152C78.1163 237.152 102.593 231.205 103.071 231.055C103.114 231.048 103.153 231.025 103.179 230.99C103.206 230.955 103.217 230.911 103.21 230.867C103.204 230.824 103.181 230.785 103.146 230.758C103.11 230.732 103.066 230.721 103.023 230.727Z" fill="#263238"/>
<path d="M101.679 258.437C99.9469 253.499 98.2692 248.541 96.3323 243.665C95.2479 240.896 94.1703 238.12 93.0587 235.358C93.0178 235.256 92.8336 235.311 92.8677 235.42C94.409 240.446 95.964 245.486 97.7372 250.424C99.5104 255.361 101.222 260.299 103.05 265.209C104.093 268.026 105.212 270.754 106.392 273.482C106.392 273.537 106.508 273.482 106.494 273.482C105.144 268.381 103.425 263.416 101.679 258.437Z" fill="#263238"/>
<path d="M119.97 275.931C119.288 274.567 118.511 272.575 117.795 271.225C117.611 270.863 117.345 270.911 117.488 271.279C117.965 272.521 118.327 273.898 118.797 275.167C117.672 275.276 116.547 275.358 115.421 275.48L111.514 275.896C108.972 276.156 106.421 276.383 103.862 276.578C98.692 277.001 93.5156 277.315 88.3324 277.52C77.9349 277.982 67.5202 277.903 57.1309 277.281C54.2324 277.097 51.3271 276.851 48.4354 276.517C45.581 276.235 42.7426 275.809 39.9309 275.242C39.8559 275.242 39.8286 275.351 39.9309 275.378C42.3286 276.141 44.7821 276.716 47.2692 277.097C49.8745 277.492 52.4911 277.811 55.119 278.052C60.3432 278.522 65.6014 278.734 70.846 278.734C81.2533 278.836 91.6742 278.481 102.047 277.717C104.962 277.499 107.869 277.249 110.77 276.967C112.23 276.824 113.696 276.681 115.156 276.51C116.615 276.34 120.08 276.162 119.97 275.931Z" fill="#263238"/>
<path d="M131.803 184.454C127.104 189.228 121.628 191.274 119.234 194.479C116.84 197.684 116.11 203.747 116.11 203.747C116.11 203.747 114.685 197.2 111.861 194.022C109.038 190.844 98.5352 181.889 98.542 178.145C98.5488 174.401 100.452 161.723 104.721 157.685C106.951 155.557 120.08 155.21 129.778 157.003C135.847 158.115 138.957 160.154 139.189 161.129C141.419 170.275 136.332 179.843 131.803 184.454Z" fill="#3398DB"/>
<path opacity="0.2" d="M131.803 184.454C127.104 189.228 121.628 191.274 119.234 194.479C116.84 197.684 116.11 203.747 116.11 203.747C116.11 203.747 114.685 197.2 111.861 194.022C109.038 190.844 98.5352 181.889 98.542 178.145C98.5488 174.401 100.452 161.723 104.721 157.685C106.951 155.557 120.08 155.21 129.778 157.003C135.847 158.115 138.957 160.154 139.189 161.129C141.419 170.275 136.332 179.843 131.803 184.454Z" fill="#151D26"/>
<path d="M104.721 157.658C100.451 161.75 98.5487 174.394 98.5419 178.118C98.5419 179.25 99.5035 180.846 100.929 182.653C98.2009 179.543 92.5812 174.374 91.6809 172.676C90.7807 170.977 98.7669 158.435 106.774 156.689C106.023 156.848 105.32 157.18 104.721 157.658Z" fill="#3398DB"/>
<path opacity="0.2" d="M104.721 157.658C100.451 161.75 98.5487 174.394 98.5419 178.118C98.5419 179.25 99.5035 180.846 100.929 182.653C98.2009 179.543 92.5812 174.374 91.6809 172.676C90.7807 170.977 98.7669 158.435 106.774 156.689C106.023 156.848 105.32 157.18 104.721 157.658Z" fill="#F39C12"/>
<path d="M114.344 204.395C108.315 205.227 99.0537 195.243 95.7528 187.557C95.5278 187.025 96.8031 181.821 98.0512 175.424C98.7945 171.537 99.5311 167.192 99.913 163.148C99.988 162.33 124.499 171.68 124.499 171.68C124.499 171.68 121.219 179.864 120.584 186.854C120.536 187.408 120.536 187.965 120.584 188.518C120.584 188.593 120.584 188.689 120.584 188.791C120.823 191.997 120.175 203.591 114.344 204.395Z" fill="#EB9481"/>
<path d="M101.454 163.434C101.966 170.329 104.619 187.12 118.02 188.716C118.877 188.822 119.742 188.857 120.605 188.818C120.619 188.726 120.619 188.631 120.605 188.539C120.56 187.987 120.56 187.433 120.605 186.881C121.239 179.871 124.526 171.7 124.526 171.7C124.526 171.7 106.822 164.955 101.454 163.434Z" fill="#263238"/>
<path d="M106.187 131.626C100.731 139.251 96.9939 165.31 101.202 172.812C107.299 183.724 121.396 189.262 131.674 180.996C141.631 172.982 145.921 138.93 140.84 131.694C133.351 121.028 114.235 120.359 106.187 131.626Z" fill="#EB9481"/>
<path d="M124.437 155.455C124.437 155.387 124.287 155.524 124.287 155.592C124.144 157.365 123.687 159.363 122.03 159.772C121.975 159.772 121.975 159.875 122.03 159.875C124.008 159.813 124.587 157.154 124.437 155.455Z" fill="#263238"/>
<path d="M123.067 153.45C120.257 152.925 119.404 158.585 122.01 159.076C124.615 159.567 125.42 153.88 123.067 153.45Z" fill="#263238"/>
<path d="M134.245 156.976C134.245 156.915 134.368 157.085 134.354 157.153C134.04 158.899 133.965 160.952 135.466 161.77C135.513 161.77 135.466 161.886 135.466 161.866C133.542 161.307 133.672 158.579 134.245 156.976Z" fill="#263238"/>
<path d="M136.086 155.38C138.937 155.592 138.309 161.28 135.67 161.089C133.031 160.898 133.672 155.21 136.086 155.38Z" fill="#263238"/>
<path d="M121.055 150.838C121.741 151.216 122.447 151.557 123.169 151.861C123.987 152.243 124.601 152.632 125.529 152.489C125.788 152.42 126.016 152.268 126.179 152.056C126.342 151.844 126.43 151.583 126.429 151.315C126.368 150.17 125.481 149.454 124.519 148.956C123.562 148.417 122.439 148.254 121.368 148.499C121.128 148.568 120.913 148.706 120.749 148.895C120.586 149.085 120.481 149.318 120.448 149.566C120.415 149.814 120.454 150.066 120.562 150.292C120.67 150.518 120.841 150.708 121.055 150.838Z" fill="#263238"/>
<path d="M139.305 151.643C138.568 151.375 137.846 151.068 137.143 150.722C136.318 150.354 135.622 150.149 135.097 149.358C134.978 149.118 134.941 148.846 134.993 148.583C135.045 148.32 135.182 148.082 135.383 147.906C136.291 147.224 137.429 147.401 138.418 147.796C139.449 148.155 140.31 148.884 140.833 149.842C140.943 150.068 140.984 150.32 140.953 150.568C140.922 150.817 140.819 151.051 140.657 151.242C140.495 151.433 140.281 151.573 140.041 151.644C139.801 151.715 139.545 151.715 139.305 151.643Z" fill="#263238"/>
<path d="M119.064 171.305C119.418 171.782 119.746 172.41 120.38 172.56C121.036 172.644 121.703 172.59 122.337 172.403C122.349 172.401 122.361 172.402 122.373 172.407C122.384 172.412 122.393 172.42 122.4 172.43C122.406 172.44 122.41 172.452 122.41 172.464C122.409 172.477 122.405 172.488 122.399 172.498C122.096 172.807 121.716 173.028 121.298 173.137C120.88 173.246 120.44 173.24 120.025 173.119C119.683 172.97 119.391 172.724 119.188 172.412C118.984 172.099 118.877 171.733 118.879 171.359C118.873 171.257 119.009 171.237 119.064 171.305Z" fill="#263238"/>
<path d="M121.696 166.333C122.035 167.095 122.529 167.778 123.147 168.338C123.764 168.898 124.492 169.323 125.283 169.586C125.968 169.829 126.685 169.972 127.411 170.009C127.55 170.022 127.689 170.022 127.827 170.009H128.216C128.312 170.005 128.405 169.97 128.479 169.908C128.553 169.846 128.604 169.762 128.625 169.668C128.632 169.609 128.632 169.55 128.625 169.491V169.334C128.864 167.97 129.041 165.924 129.041 165.924C129.498 166.244 131.844 167.752 131.912 167.042C132.438 161.15 133.031 154.596 132.308 148.628C132.308 148.585 132.291 148.543 132.26 148.513C132.229 148.482 132.188 148.465 132.144 148.465C132.101 148.465 132.059 148.482 132.029 148.513C131.998 148.543 131.981 148.585 131.981 148.628C131.251 154.268 131.517 160.004 130.869 165.678C130.051 165.117 129.158 164.674 128.216 164.362C128.018 164.362 127.943 168.372 127.786 168.972C127.791 168.992 127.791 169.014 127.786 169.034C125.474 168.979 123.872 168.038 121.894 166.19C121.764 166.081 121.607 166.176 121.696 166.333Z" fill="#263238"/>
<path d="M142.974 144.27C142.886 143.077 142.326 136.673 140.437 136.148C138.35 135.568 136.7 137.846 132.683 137.737C128.666 137.628 125.474 132.69 120.646 134.129C117.713 135.002 115.606 137.055 113.287 143.629C111.036 150.013 107.435 157.215 99.5513 157.631C100.199 147.687 102.832 135.22 106.139 130.59C114.187 119.316 133.276 120.223 140.765 130.89C142.313 133.092 143.063 138.589 142.974 144.27Z" fill="#263238"/>
<path d="M107.204 155.053C107.204 155.053 105.58 144.966 101.25 145.184C96.919 145.402 95.5959 158.258 98.8832 161.695C99.2751 162.165 99.7581 162.551 100.303 162.829C100.848 163.107 101.444 163.272 102.054 163.315C102.664 163.357 103.277 163.275 103.855 163.074C104.433 162.873 104.964 162.557 105.417 162.145L107.204 155.053Z" fill="#EB9481"/>
<path d="M100.936 148.881C100.874 148.84 100.813 148.928 100.861 148.976C103.125 151.479 103.343 154.807 103.07 158.019C102.736 156.567 101.87 155.448 99.9946 155.769C99.8991 155.769 99.9127 155.932 99.9946 155.953C100.566 156.036 101.097 156.293 101.516 156.69C101.934 157.087 102.22 157.604 102.334 158.169C102.516 159.118 102.596 160.082 102.573 161.047C102.573 161.361 103.104 161.45 103.145 161.109C103.149 161.084 103.149 161.059 103.145 161.034C105.028 157.481 104.639 151.104 100.936 148.881Z" fill="#263238"/>
<path d="M144.297 140.383C141.842 126.627 130.657 118.238 115.946 118.238C93.6246 118.238 75.8312 156.539 77.959 169.695C79.8891 181.596 90.651 184.836 92.356 186.2C96.3253 189.378 99.7012 195.427 104.039 200.372C107.633 204.464 116.997 205.753 116.997 205.753C117.133 203.652 116.744 203.454 122.003 197.773C127.813 191.492 135.261 188.75 138.752 183.785C145.982 173.494 146.445 152.454 144.297 140.383ZM131.803 184.454C127.104 189.228 121.627 191.274 119.234 194.479C116.84 197.684 116.11 203.747 116.11 203.747C116.11 203.747 114.685 197.2 111.861 194.022C109.904 191.819 104.202 186.793 100.949 182.68C98.1871 179.571 92.6152 174.415 91.715 172.723C90.8147 171.032 98.7805 158.517 106.774 156.744H106.808C111.404 155.503 121.812 155.516 129.811 156.996C135.881 158.108 138.991 160.147 139.223 161.122C141.419 170.275 136.331 179.843 131.803 184.454Z" fill="#F39C12"/>
<path d="M88.2917 184.058C88.8544 184.391 89.4483 184.667 90.0649 184.883C90.6791 185.127 91.2781 185.407 91.8586 185.722C92.4437 186.045 92.9847 186.441 93.4681 186.902C93.948 187.369 94.4033 187.861 94.8321 188.375C96.5303 190.373 98.1125 192.467 99.7425 194.513L102.177 197.589C102.989 198.605 103.8 199.635 104.68 200.562C106.56 202.351 108.833 203.676 111.316 204.429C110.009 204.217 108.739 203.82 107.545 203.25C106.324 202.693 105.208 201.932 104.244 200.999C102.47 199.056 100.797 197.023 99.231 194.909L94.457 188.675C94.0546 188.164 93.6523 187.639 93.2158 187.182C92.7631 186.726 92.2623 186.322 91.7222 185.975C91.176 185.622 90.6063 185.308 90.0172 185.033C89.4074 184.774 88.8286 184.447 88.2917 184.058Z" fill="#263238"/>
<path d="M118.879 201.272C119.746 199.893 120.754 198.609 121.887 197.439C122.453 196.859 123.039 196.286 123.66 195.761C124.277 195.222 124.949 194.749 125.665 194.35C124.567 195.557 123.496 196.743 122.385 197.91C121.275 199.09 120.105 200.213 118.879 201.272Z" fill="#263238"/>
<path d="M89.7852 186.609C90.7576 186.753 91.6878 187.105 92.5132 187.639C92.936 187.91 93.3271 188.228 93.6794 188.587C94.003 188.962 94.3015 189.359 94.5728 189.773C95.1302 190.552 95.7385 191.292 96.3937 191.99C96.7143 192.345 97.0757 192.672 97.4099 193.013C97.757 193.349 98.1286 193.659 98.5216 193.94C97.6333 193.518 96.8201 192.954 96.1141 192.269C95.3806 191.609 94.7219 190.871 94.15 190.067C93.9004 189.665 93.6247 189.28 93.3247 188.914C93.0075 188.566 92.6607 188.247 92.2881 187.959C91.9121 187.669 91.5104 187.413 91.0878 187.195C90.6695 186.966 90.2339 186.77 89.7852 186.609Z" fill="#263238"/>
<path d="M92.554 169.695C92.2711 170.431 92.0297 171.183 91.8311 171.946C91.6284 172.696 91.4645 173.457 91.34 174.224C91.3091 174.409 91.2908 174.596 91.2855 174.783C91.2795 174.945 91.3123 175.107 91.381 175.254C91.54 175.593 91.7442 175.91 91.988 176.195C92.4578 176.818 93.038 177.35 93.6998 177.763C92.9249 177.517 92.2302 177.067 91.6879 176.461C91.3903 176.167 91.1396 175.828 90.9445 175.458C90.8338 175.248 90.7797 175.013 90.7876 174.776C90.7894 174.566 90.8054 174.357 90.8354 174.149C90.9617 173.352 91.1697 172.57 91.456 171.816C91.7247 171.063 92.094 170.35 92.554 169.695Z" fill="#263238"/>
<path d="M139.189 161.095C140.077 162.106 140.721 163.308 141.072 164.608C141.283 165.242 141.44 165.896 141.59 166.544C141.665 166.872 141.719 167.226 141.781 167.533C141.85 167.883 141.87 168.241 141.842 168.597C141.667 169.935 141.323 171.246 140.819 172.498C140.359 173.745 139.814 174.96 139.189 176.133L140.315 172.335C140.707 171.1 140.99 169.834 141.16 168.549C141.173 167.918 141.105 167.288 140.956 166.674C140.846 166.026 140.703 165.392 140.56 164.751C140.417 164.11 140.239 163.489 140.021 162.868C139.823 162.244 139.543 161.647 139.189 161.095Z" fill="#263238"/>
<path opacity="0.2" d="M112.086 202.07C112.572 202.07 112.966 201.676 112.966 201.19C112.966 200.704 112.572 200.31 112.086 200.31C111.6 200.31 111.207 200.704 111.207 201.19C111.207 201.676 111.6 202.07 112.086 202.07Z" fill="#151D26"/>
<path d="M111.677 201.299C112.281 202.759 112.751 204.27 113.082 205.814C113.36 206.879 113.446 207.985 113.335 209.081C113.162 210.031 112.914 210.966 112.591 211.877C111.084 216.651 109.072 221.807 110.334 226.881C110.463 227.413 111.289 227.188 111.159 226.649C109.863 221.466 112.196 216.228 113.655 211.331C114.251 209.474 114.338 207.491 113.908 205.589C113.573 204.048 113.103 202.539 112.503 201.081C112.291 200.583 111.466 200.801 111.677 201.306V201.299Z" fill="#263238"/>
<path opacity="0.2" d="M119.616 200.106C119.617 200.282 119.566 200.454 119.469 200.601C119.372 200.748 119.234 200.862 119.072 200.93C118.91 200.998 118.731 201.016 118.558 200.982C118.385 200.948 118.227 200.864 118.102 200.739C117.978 200.615 117.893 200.456 117.859 200.284C117.825 200.111 117.844 199.932 117.912 199.77C117.98 199.608 118.094 199.469 118.241 199.372C118.388 199.276 118.56 199.225 118.736 199.226C118.969 199.228 119.192 199.321 119.356 199.486C119.521 199.65 119.614 199.873 119.616 200.106Z" fill="#151D26"/>
<path d="M118.32 200.304C118.115 203.609 118.496 206.924 119.445 210.097C120.201 212.229 120.812 214.409 121.273 216.624C121.703 218.915 121.914 221.398 121.048 223.628C120.85 224.139 121.675 224.364 121.873 223.853C122.685 221.807 122.555 219.481 122.248 217.319C121.858 214.999 121.267 212.717 120.482 210.499C119.435 207.21 118.991 203.758 119.173 200.31C119.173 199.765 118.341 199.765 118.32 200.31V200.304Z" fill="#263238"/>
<path d="M226.11 304.458H174.762V300.469L226.11 298.805V304.458Z" fill="#37474F"/>
<path d="M277.86 286.078H183.342L198.373 215.71H292.891L277.86 286.078Z" fill="#455A64"/>
<path d="M281.359 286.078H186.834L201.865 215.71H296.39L281.359 286.078Z" fill="#37474F"/>
<path d="M230.38 260.844H228.163L231.525 245.063H233.742L230.38 260.844Z" fill="#263238"/>
<path d="M234.751 260.844H232.534L235.897 245.063H238.113L234.751 260.844Z" fill="#263238"/>
<path d="M239.123 260.844H236.906L240.275 245.063H242.492L239.123 260.844Z" fill="#263238"/>
<path d="M243.501 260.844H241.285L244.647 245.063H246.863L243.501 260.844Z" fill="#263238"/>
<path d="M247.873 260.844H245.656L249.019 245.063H251.235L247.873 260.844Z" fill="#263238"/>
<path d="M252.245 260.844H250.028L253.397 245.063H255.614L252.245 260.844Z" fill="#263238"/>
<path d="M256.623 260.844H254.406L257.769 245.063H259.985L256.623 260.844Z" fill="#263238"/>
<path d="M254.625 304.458H208.133V300.844L254.625 299.343V304.458Z" fill="#455A64"/>
<path d="M267.262 304.452H242.301L227.27 265.018H252.231L267.262 304.452Z" fill="#455A64"/>
<path d="M271.374 304.452H246.413L231.382 265.018H256.343L271.374 304.452Z" fill="#263238"/>
<path d="M63.1394 286.078H92.3086L77.2773 215.71H48.1082L63.1394 286.078Z" fill="#455A64"/>
<path d="M59.6406 286.078H88.8166L73.7853 215.71H44.6094L59.6406 286.078Z" fill="#37474F"/>
<path d="M63.6169 260.845H64.0329L60.6638 245.063H60.2546L63.6169 260.845Z" fill="#263238"/>
<path d="M64.4965 260.844H64.9126L61.5503 245.063H61.1343L64.4965 260.844Z" fill="#263238"/>
<path d="M65.383 260.844H65.799L62.4299 245.063H62.0139L65.383 260.844Z" fill="#263238"/>
<path d="M66.2629 260.844H66.6789L63.3167 245.063H62.9006L66.2629 260.844Z" fill="#263238"/>
<path d="M67.1494 260.844H67.5586L64.1963 245.063H63.7803L67.1494 260.844Z" fill="#263238"/>
<path d="M68.0295 260.844H68.4455L65.0764 245.063H64.6672L68.0295 260.844Z" fill="#263238"/>
<path d="M68.9094 260.844H69.3254L65.9631 245.063H65.5471L68.9094 260.844Z" fill="#263238"/>
<path d="M69.7958 260.845H70.2119L66.8428 245.063H66.4336L69.7958 260.845Z" fill="#263238"/>
<path d="M59.0815 304.458H93.9727V300.844L59.0815 299.343V304.458Z" fill="#455A64"/>
<path d="M46.4441 304.452H59.8045L74.8426 265.019H61.4754L46.4441 304.452Z" fill="#455A64"/>
<path d="M46.4441 304.452H55.6988L70.7301 265.019H61.4754L46.4441 304.452Z" fill="#263238"/>
<path d="M169.818 304.492H135.923C133.031 304.492 137.212 296.261 147.762 293.103C158.313 289.945 173.126 301.403 169.818 304.492Z" fill="#37474F"/>
<path d="M156.505 304.493C156.513 302.59 157.038 300.725 158.026 299.098C158.516 298.277 159.133 297.538 159.854 296.909C160.568 296.288 161.391 295.805 162.282 295.483C161.543 296.021 160.858 296.629 160.236 297.298C159.621 297.954 159.081 298.677 158.626 299.453C158.158 300.229 157.752 301.04 157.412 301.881C157.062 302.734 156.759 303.606 156.505 304.493Z" fill="#263238"/>
<path d="M160.516 296.67C162.555 297.254 164.483 298.176 166.217 299.398C167.101 300.005 167.893 300.735 168.57 301.567C169.297 302.376 169.729 303.407 169.798 304.492C169.48 303.511 168.922 302.625 168.174 301.915C167.452 301.189 166.664 300.532 165.822 299.95C164.137 298.75 162.316 297.72 160.516 296.67Z" fill="#263238"/>
<path d="M317.901 218.479C317.39 223.352 315.536 227.987 312.545 231.868C309.554 235.748 305.544 238.722 300.961 240.457C296.379 242.192 291.405 242.619 286.594 241.693C281.783 240.766 277.324 238.521 273.714 235.208L260.524 237.145L267.139 225.708C265.622 221.984 264.973 217.964 265.242 213.952C265.511 209.94 266.692 206.043 268.694 202.556C270.696 199.069 273.467 196.084 276.795 193.829C280.124 191.573 283.923 190.107 287.904 189.54C291.885 188.973 295.942 189.322 299.768 190.559C303.594 191.796 307.087 193.889 309.983 196.679C312.878 199.47 315.099 202.883 316.477 206.66C317.855 210.438 318.353 214.48 317.935 218.479H317.901Z" fill="white"/>
<path d="M317.9 218.479C317.389 223.353 315.541 227.99 312.56 231.88C311.817 232.836 311.018 233.747 310.167 234.608C309.284 235.454 308.35 236.244 307.37 236.975C303.438 239.928 298.768 241.742 293.874 242.219C292.654 242.329 291.428 242.354 290.204 242.294C288.976 242.26 287.751 242.132 286.542 241.912C281.678 241.022 277.156 238.798 273.482 235.488L273.795 235.583L260.578 237.629L259.617 237.779L260.101 236.934L266.682 225.476V225.926C265.129 222.136 264.467 218.039 264.749 213.952C265.03 209.866 266.247 205.898 268.305 202.356C270.368 198.83 273.2 195.816 276.592 193.538C279.978 191.295 283.828 189.849 287.854 189.306C291.879 188.764 295.975 189.141 299.834 190.408C303.657 191.705 307.141 193.842 310.03 196.662C312.904 199.468 315.105 202.889 316.469 206.667C317.832 210.446 318.321 214.484 317.9 218.479ZM317.9 218.479C318.329 214.492 317.836 210.46 316.458 206.695C315.08 202.929 312.855 199.531 309.955 196.762C307.055 193.994 303.556 191.929 299.731 190.728C295.905 189.527 291.855 189.221 287.892 189.835C283.973 190.422 280.241 191.899 276.98 194.152C273.748 196.419 271.049 199.363 269.069 202.779C267.119 206.208 265.972 210.035 265.714 213.971C265.468 217.901 266.104 221.837 267.576 225.49L267.671 225.722L267.542 225.94L260.885 237.357L260.415 236.675L273.652 234.82H273.836L273.966 234.942C277.506 238.238 281.894 240.484 286.638 241.428C287.82 241.669 289.019 241.815 290.225 241.865C293.856 242.118 297.499 241.586 300.905 240.303C303.188 239.489 305.337 238.34 307.282 236.893C309.264 235.483 311.017 233.776 312.479 231.832C315.48 227.965 317.356 223.344 317.9 218.479Z" fill="#263238"/>
<path d="M291.589 198.462L274.198 228.593H308.987L291.589 198.462Z" fill="#3398DB"/>
<path d="M291.589 202.827L277.976 226.41H305.202L291.589 202.827Z" fill="white"/>
<path d="M290.211 209.654H292.966L292.782 219.816H290.395L290.211 209.654Z" fill="#3398DB"/>
<path d="M292.782 221.091H290.395V223.478H292.782V221.091Z" fill="#3398DB"/>
</svg>
