<svg width="341" height="341" viewBox="0 0 341 341" fill="none" xmlns="http://www.w3.org/2000/svg">
<path d="M170.466 303.934C250.238 303.934 314.906 298.273 314.906 291.29C314.906 284.307 250.238 278.646 170.466 278.646C90.6932 278.646 26.0249 284.307 26.0249 291.29C26.0249 298.273 90.6932 303.934 170.466 303.934Z" fill="#EBEBEB"/>
<path d="M24.1904 265.1L60.7661 264.936L97.3418 264.875L170.5 264.766L243.658 264.875L280.234 264.936L316.809 265.1L280.234 265.27L243.658 265.332L170.5 265.441L97.3418 265.332L60.7661 265.27L24.1904 265.1Z" fill="#263238"/>
<path d="M95.6233 213.951L97.1646 223.192L107.606 279.566H109.291L101.7 223.192L100.575 213.951H95.6233Z" fill="#DBDBDB"/>
<path d="M100.575 213.951H95.6233L97.1646 223.192H101.7L100.575 213.951Z" fill="#A6A6A6"/>
<path d="M62.8462 279.566H64.5307L74.9653 223.192L76.5067 213.951H71.5553L70.4369 223.192L62.8462 279.566Z" fill="#DBDBDB"/>
<path d="M71.5555 213.951L70.437 223.192H74.9655L76.5068 213.951H71.5555Z" fill="#A6A6A6"/>
<path d="M31.5356 279.566H33.2202L43.6548 223.192L45.1961 213.951H40.2516L39.1263 223.192L31.5356 279.566Z" fill="#DBDBDB"/>
<path d="M39.1262 223.192H43.6547L45.196 213.951H40.2515L39.1262 223.192Z" fill="#A6A6A6"/>
<path d="M34.2021 218.288H110.695V210.233H82.0581L72.4351 154.241H37.1211L34.2021 218.288Z" fill="#DBDBDB"/>
<path d="M34.2021 218.288H38.376L41.0903 154.241H37.1211L34.2021 218.288Z" fill="#A6A6A6"/>
<path d="M113.573 289.441C112.053 289.632 70.5392 279.948 69.1889 278.638C69.0252 278.495 70.9894 270.523 70.9894 270.523C71.6714 267.242 82.447 240.467 82.447 240.467L109.591 247.164L98.0921 271.982C98.0921 271.982 103.262 275.481 107.708 278.802C109.671 280.187 111.548 281.69 113.328 283.303C114.665 284.913 115.087 289.264 113.573 289.441Z" fill="#EB9481"/>
<path d="M113.567 289.441C112.053 289.632 70.5392 279.947 69.1889 278.638C69.0252 278.495 70.9894 270.522 70.9894 270.522C71.2076 269.445 72.5171 265.823 74.188 261.445L100.159 267.501L98.1125 271.982C98.1125 271.982 103.289 275.487 107.736 278.802C109.703 280.183 111.582 281.687 113.362 283.303C114.665 284.919 115.087 289.264 113.567 289.441Z" fill="#EBEBEB"/>
<path d="M113.689 289.557C112.121 289.721 70.2665 280.343 68.9025 278.972C68.3773 278.468 72.0874 264.985 72.1079 264.903L98.89 270.823L98.7809 271.28C98.7809 271.28 112.237 281.598 113.58 283.255C114.924 284.913 115.258 289.4 113.689 289.557Z" fill="#455A64"/>
<path d="M113.58 287.804C106.562 286.052 78.1161 279.62 71.0369 278.434C70.9755 278.434 70.9687 278.468 71.0369 278.481C77.9524 280.37 106.501 286.556 113.566 287.92C113.703 287.975 113.73 287.872 113.58 287.804Z" fill="#263238"/>
<path d="M100.936 271.143C98.2762 270.004 94.798 269.67 92.2201 271.143C92.1246 271.198 92.2201 271.341 92.3019 271.334C95.1468 271.07 98.0118 271.114 100.847 271.464C100.882 271.458 100.914 271.442 100.939 271.419C100.965 271.395 100.984 271.365 100.993 271.331C101.002 271.298 101.002 271.262 100.992 271.229C100.982 271.196 100.962 271.166 100.936 271.143Z" fill="#263238"/>
<path d="M102.661 272.8C100.002 271.661 96.5234 271.327 93.9454 272.8C93.8499 272.854 93.9454 272.998 94.0273 272.991C96.8721 272.727 99.7371 272.771 102.573 273.12C102.607 273.114 102.639 273.099 102.665 273.075C102.69 273.052 102.709 273.022 102.718 272.988C102.728 272.955 102.727 272.919 102.717 272.886C102.707 272.852 102.688 272.823 102.661 272.8Z" fill="#263238"/>
<path d="M104.394 274.457C101.734 273.318 98.2556 272.977 95.6776 274.457C95.5821 274.518 95.6776 274.655 95.7594 274.648C98.6047 274.39 101.469 274.436 104.305 274.784C104.341 274.779 104.374 274.764 104.402 274.74C104.429 274.716 104.448 274.685 104.458 274.65C104.467 274.615 104.466 274.578 104.455 274.544C104.443 274.509 104.422 274.479 104.394 274.457Z" fill="#263238"/>
<path d="M105.901 265.905C105.144 264.166 102.962 264.384 101.584 265.094C99.2438 266.361 97.2777 268.222 95.8824 270.488C95.8754 270.498 95.8708 270.509 95.8692 270.521C95.8675 270.533 95.8687 270.545 95.8727 270.557C95.8767 270.568 95.8834 270.578 95.8922 270.587C95.901 270.595 95.9117 270.601 95.9233 270.604C95.8892 270.816 96.0256 271.082 96.2848 271.047C98.7673 270.713 101.461 270.665 103.787 269.574C105.117 268.947 106.61 267.556 105.901 265.905ZM99.9403 269.772C98.7264 269.963 97.5056 270.099 96.2984 270.338C97.3808 269.254 98.519 268.228 99.7084 267.262C100.29 266.803 100.901 266.382 101.536 266.001C102.532 265.435 106.16 264.575 104.987 267.508C104.346 269.124 101.393 269.54 99.9403 269.772Z" fill="#263238"/>
<path d="M88.9873 268.183C91.0333 269.67 93.6999 270.229 96.0801 270.993C96.1343 271.005 96.1905 271.004 96.2443 270.99C96.298 270.976 96.3477 270.95 96.3895 270.914C96.4313 270.877 96.464 270.831 96.4848 270.78C96.5057 270.729 96.5143 270.673 96.5098 270.618C96.5218 270.618 96.5337 270.614 96.5442 270.609C96.5548 270.603 96.5638 270.594 96.5705 270.584C96.5772 270.574 96.5814 270.563 96.5827 270.551C96.584 270.539 96.5824 270.527 96.578 270.515C95.6202 268.032 94.0254 265.845 91.954 264.173C90.7332 263.218 88.6259 262.611 87.5619 264.173C86.498 265.735 87.7802 267.344 88.9873 268.183ZM88.1826 265.926C87.5619 262.829 90.9719 264.337 91.8449 265.073C92.4105 265.566 92.9415 266.097 93.434 266.662C94.4227 267.828 95.3514 269.044 96.2165 270.304C95.0708 269.847 93.8977 269.492 92.7315 269.083C91.3266 268.579 88.5236 267.631 88.1826 265.926Z" fill="#263238"/>
<path d="M100.213 271.048L71.2553 264.569C71.2553 264.569 95.1253 209.17 93.0247 206.367C91.9676 204.962 65.1446 204.553 56.6128 197.323C45.5303 187.939 52.9641 173.59 52.9641 173.59L82.9175 172.703C82.9175 172.703 82.556 178.964 83.7291 179.905C84.4997 180.532 120.189 183.533 124.11 195.591C128.898 210.309 100.213 271.048 100.213 271.048Z" fill="#263238"/>
<path d="M101.038 265.81C100.274 265.489 92.7996 263.368 91.1219 262.946C87.7528 262.079 84.3769 261.234 80.9874 260.436C79.221 260.02 75.4359 259.12 75.2108 259.14C75.1906 259.146 75.1729 259.158 75.1602 259.174C75.1475 259.191 75.1406 259.211 75.1406 259.232C75.1406 259.253 75.1475 259.273 75.1602 259.29C75.1729 259.307 75.1906 259.319 75.2108 259.324C78.5117 260.354 81.8535 261.254 85.1885 262.161C88.5235 263.068 99.9947 265.871 100.99 265.987C101.072 265.98 101.147 265.858 101.038 265.81Z" fill="#37474F"/>
<path d="M98.1467 203.918C97.4637 203.499 96.6835 203.264 95.8824 203.236L82.9244 201.061C78.8802 200.379 74.8154 199.778 70.7848 199.015C67.4498 198.374 64.0603 197.507 61.1754 195.7C58.3219 193.912 56.2137 191.15 55.242 187.925C54.3279 184.72 54.0682 181.364 54.4782 178.057C54.56 177.252 54.7033 176.447 54.8533 175.656C54.8533 175.643 54.8483 175.631 54.8393 175.622C54.8304 175.613 54.8182 175.608 54.8056 175.608C54.7929 175.608 54.7807 175.613 54.7718 175.622C54.7628 175.631 54.7578 175.643 54.7578 175.656C53.6666 181.794 53.5643 188.907 58.1678 193.797C60.4116 196.184 63.4874 197.582 66.6314 198.49C70.2252 199.403 73.8686 200.109 77.5434 200.604L90.5014 202.772C92.5474 203.113 94.6957 203.386 96.7622 203.816C97.1767 203.873 97.5667 204.045 97.8875 204.314C98.0376 204.53 98.1328 204.78 98.1649 205.041C98.197 205.303 98.165 205.568 98.0716 205.814C97.8602 206.837 97.5874 207.86 97.2942 208.842C94.9344 216.89 79.0029 255.321 78.5323 256.207C78.4846 256.296 78.6346 256.371 78.6824 256.282C82.6516 249.217 94.1911 219.536 96.8168 211.918C97.5079 209.981 98.0751 208.001 98.5149 205.992C98.6923 205.241 98.7809 204.423 98.1467 203.918Z" fill="#37474F"/>
<path d="M170.111 289.884C168.659 290.375 127.111 289.789 125.529 288.78C124.915 288.193 124.424 282.88 124.049 276.272L116.902 247.928L143.629 247.709L151.459 275.856C151.459 275.856 157.228 278.256 162.248 280.63C164.45 281.594 166.591 282.692 168.659 283.917C170.275 285.233 171.564 289.407 170.111 289.884Z" fill="#EB9481"/>
<path d="M170.964 289.918C169.463 290.416 126.572 290.205 124.942 289.161C124.322 288.779 123.988 282.532 123.797 274.982V274.744L151.465 274.566V275.037C151.465 275.037 167.833 282.45 169.518 283.787C171.202 285.124 172.464 289.427 170.964 289.918Z" fill="#455A64"/>
<path d="M170.5 288.254C163.271 288.042 134.095 287.865 126.927 288.206C126.872 288.206 126.872 288.247 126.927 288.254C134.088 288.615 163.271 288.554 170.5 288.37C170.636 288.37 170.636 288.254 170.5 288.254Z" fill="#263238"/>
<path d="M154.548 274.662C151.704 274.117 148.226 274.539 146.037 276.551C145.955 276.626 146.037 276.749 146.159 276.715C148.884 275.856 151.691 275.287 154.534 275.017C154.581 275.019 154.627 275.002 154.662 274.97C154.696 274.938 154.717 274.893 154.718 274.846C154.72 274.799 154.703 274.753 154.671 274.719C154.639 274.684 154.595 274.664 154.548 274.662Z" fill="#263238"/>
<path d="M156.594 275.903C153.75 275.365 150.272 275.781 148.09 277.792C148.001 277.874 148.09 277.99 148.205 277.963C150.929 277.101 153.736 276.532 156.58 276.265C156.623 276.258 156.662 276.237 156.69 276.205C156.719 276.173 156.735 276.133 156.737 276.09C156.738 276.047 156.725 276.005 156.699 275.971C156.673 275.937 156.636 275.913 156.594 275.903Z" fill="#263238"/>
<path d="M158.64 277.151C155.796 276.606 152.318 277.029 150.135 279.04C150.047 279.122 150.135 279.238 150.251 279.211C152.974 278.346 155.782 277.777 158.626 277.513C158.669 277.506 158.707 277.485 158.736 277.453C158.764 277.421 158.781 277.381 158.783 277.338C158.784 277.295 158.771 277.253 158.745 277.219C158.719 277.185 158.682 277.161 158.64 277.151Z" fill="#263238"/>
<path d="M158.279 268.483C157.167 266.942 155.08 267.617 153.886 268.612C151.872 270.35 150.35 272.587 149.474 275.098C149.469 275.11 149.468 275.122 149.469 275.134C149.47 275.146 149.475 275.157 149.481 275.167C149.488 275.177 149.497 275.186 149.508 275.191C149.518 275.197 149.53 275.2 149.542 275.201C149.539 275.256 149.549 275.312 149.572 275.362C149.594 275.413 149.629 275.458 149.672 275.493C149.715 275.527 149.767 275.551 149.821 275.562C149.876 275.573 149.932 275.571 149.985 275.555C152.338 274.703 154.964 274.075 156.983 272.52C158.163 271.613 159.329 269.942 158.279 268.483ZM153.286 273.53C152.141 273.98 150.981 274.369 149.876 274.86C150.742 273.598 151.547 272.302 152.536 271.129C153.003 270.556 153.509 270.016 154.05 269.513C154.903 268.742 158.258 267.126 157.747 270.236C157.433 271.954 154.657 272.991 153.286 273.53Z" fill="#263238"/>
<path d="M142.245 274.321C144.591 275.33 147.285 275.296 149.747 275.548C150.006 275.548 150.135 275.303 150.094 275.092C150.103 275.085 150.11 275.076 150.115 275.066C150.119 275.056 150.122 275.045 150.122 275.034C150.122 275.022 150.119 275.012 150.115 275.002C150.11 274.992 150.103 274.983 150.094 274.976C148.629 272.754 146.604 270.959 144.222 269.772C142.824 269.09 140.635 268.954 139.939 270.72C139.244 272.486 140.881 273.734 142.245 274.321ZM140.976 272.275C139.708 269.383 143.363 270.127 144.386 270.665C145.035 271.021 145.66 271.419 146.255 271.859C147.503 272.759 148.601 273.809 149.753 274.826C148.533 274.628 147.312 274.532 146.091 274.375C144.618 274.205 141.672 273.884 140.976 272.289V272.275Z" fill="#263238"/>
<path d="M154.077 274.846H122.89C122.89 274.846 109.536 221.882 107.204 218.861C104.053 214.844 59.975 214.933 50.5225 201.811C42.0316 190.033 49.1994 173.358 49.1994 173.358L82.5219 172.362C81.7702 175.938 80.7349 179.447 79.4257 182.858C79.4257 182.858 119.664 190.278 130.944 202.554C138.528 210.895 154.077 274.846 154.077 274.846Z" fill="#263238"/>
<path d="M85.25 180.573C84.2806 180.787 83.3331 181.091 82.4197 181.48C81.4649 181.842 80.5169 182.258 79.5962 182.708C77.7847 183.606 76.0226 184.601 74.3175 185.688C74.263 185.722 74.3175 185.797 74.3721 185.77C76.1726 184.829 78.0412 183.99 79.9099 183.185L82.6379 182.026C83.5682 181.672 84.4788 181.269 85.3659 180.819C85.475 180.73 85.4137 180.546 85.25 180.573Z" fill="#37474F"/>
<path d="M83.279 172.341C82.8971 173.862 82.5561 175.397 82.1264 176.904C81.9218 177.586 81.724 178.302 81.4444 178.95C81.2262 179.516 80.8852 180.164 80.2304 180.314C79.4734 180.457 79.262 179.809 79.3234 179.188C79.3848 178.568 79.5689 177.79 79.7053 177.108C79.8622 176.317 80.0258 175.526 80.1691 174.735C80.2373 174.339 80.3123 173.944 80.3805 173.548C80.3805 173.446 80.476 172.689 80.5305 172.471C80.5305 172.471 80.5305 172.505 80.5714 172.505C80.5823 172.505 80.5927 172.501 80.6004 172.493C80.608 172.485 80.6124 172.475 80.6124 172.464C80.6124 172.403 80.6124 172.396 80.6124 172.348C80.6023 172.341 80.5904 172.338 80.5783 172.338C80.5661 172.338 80.5543 172.341 80.5442 172.348C80.3941 172.423 80.3873 172.621 80.3396 172.771C80.2168 173.153 80.094 173.542 79.9781 173.93C79.7667 174.653 79.5621 175.383 79.3779 176.113C79.1938 176.842 79.0165 177.579 78.8323 178.316C78.6434 178.858 78.5918 179.439 78.6823 180.007C78.7502 180.277 78.904 180.517 79.1206 180.692C79.3371 180.866 79.6046 180.966 79.8826 180.975C79.8826 181.03 79.8212 181.078 79.8008 181.125C79.7326 181.275 79.6848 181.439 79.6303 181.589C79.5757 181.739 79.5212 181.903 79.4734 182.067C79.4531 182.142 79.4394 182.22 79.4325 182.298C79.4325 182.387 79.4325 182.476 79.4325 182.564C79.4296 182.593 79.4366 182.623 79.4523 182.647C79.4681 182.672 79.4917 182.69 79.5194 182.7C79.5471 182.709 79.5771 182.709 79.6047 182.7C79.6322 182.69 79.6557 182.671 79.6712 182.646C79.7121 182.571 79.7667 182.51 79.8144 182.435C79.8577 182.354 79.8942 182.269 79.9235 182.182C79.9713 182.026 80.019 181.876 80.0531 181.719C80.0872 181.562 80.1418 181.412 80.1691 181.255C80.1761 181.162 80.1761 181.068 80.1691 180.975C80.4881 180.95 80.7933 180.834 81.0488 180.641C81.4777 180.283 81.7949 179.81 81.9627 179.277C82.1878 178.643 82.3651 177.988 82.5492 177.34C83.0112 175.736 83.3352 174.096 83.5177 172.437C83.5654 172.225 83.3199 172.164 83.279 172.341Z" fill="#37474F"/>
<path d="M150.852 269.281C150.021 269.184 149.185 269.132 148.349 269.124C147.476 269.083 146.596 269.049 145.716 269.022C143.991 268.974 142.258 268.94 140.533 268.933C137.055 268.933 133.57 268.933 130.091 268.974C128.277 269.008 124.383 269.056 124.172 269.124C124.148 269.124 124.126 269.133 124.109 269.15C124.092 269.167 124.083 269.189 124.083 269.213C124.083 269.236 124.092 269.259 124.109 269.275C124.126 269.292 124.148 269.301 124.172 269.301C127.623 269.486 131.08 269.54 134.545 269.608C138.009 269.676 141.454 269.724 144.904 269.663C145.866 269.663 146.821 269.615 147.776 269.588C148.787 269.596 149.797 269.553 150.804 269.458C150.927 269.445 150.967 269.295 150.852 269.281Z" fill="#37474F"/>
<path d="M110.811 219.297C110.523 218.34 110.083 217.435 109.509 216.617C108.814 215.923 107.92 215.463 106.951 215.3C98.6378 213.023 90.0582 212 81.6014 210.404C77.4313 209.654 73.3111 208.65 69.264 207.396C65.1543 206.177 61.2272 204.41 57.5882 202.145C55.81 201.005 54.3374 199.448 53.2984 197.609C52.3265 195.84 51.6362 193.93 51.2524 191.949C50.3385 187.43 50.3385 182.773 51.2524 178.254C51.4778 177.128 51.7646 176.014 52.1117 174.919C52.1117 174.851 52.0231 174.824 52.0026 174.919C50.4381 179.275 49.797 183.908 50.1203 188.525C50.4272 192.542 51.3956 196.764 53.9872 199.942C55.3252 201.49 56.9453 202.77 58.7612 203.713C60.6611 204.758 62.6245 205.683 64.6401 206.482C68.5741 208.01 72.6246 209.218 76.7524 210.097C85.1887 211.965 93.8024 212.907 102.232 214.782C103.269 215.014 104.278 215.26 105.342 215.525C106.407 215.697 107.44 216.031 108.404 216.514C109.4 217.135 109.768 218.376 110.129 219.413C110.559 220.559 124.117 266.471 124.451 267.596C124.464 267.633 124.491 267.663 124.526 267.68C124.56 267.698 124.6 267.701 124.637 267.69C124.674 267.678 124.705 267.653 124.724 267.619C124.743 267.585 124.748 267.545 124.738 267.508C123.613 262.795 111.691 221.548 110.811 219.297Z" fill="#37474F"/>
<path d="M108.349 220.518C108.029 219.516 107.756 218.472 106.822 217.831C105.887 217.19 92.5405 215.437 91.0401 215.206C90.9719 215.206 90.9446 215.301 91.0401 215.315C92.3291 215.526 104.68 217.736 105.758 218.104C106.226 218.238 106.644 218.508 106.958 218.882C107.28 219.395 107.511 219.96 107.64 220.552C108.022 221.746 108.397 222.939 108.779 224.133C109.536 226.534 110.3 228.907 111.023 231.335C111.841 234.063 112.775 236.927 113.485 239.689C113.539 239.901 113.839 239.798 113.798 239.594C112.857 234.411 108.745 221.766 108.349 220.518Z" fill="#37474F"/>
<path d="M79.6166 182.94C85.7788 183.68 91.8693 184.928 97.826 186.67C103.828 188.353 109.7 190.47 115.394 193.006C118.586 194.438 121.682 196.041 124.745 197.726C124.806 197.76 124.745 197.848 124.69 197.814C119.163 194.959 113.453 192.471 107.599 190.367C101.791 188.248 95.8461 186.523 89.8057 185.204C86.3957 184.468 82.9857 183.895 79.5757 183.322C79.3234 183.308 79.3848 182.913 79.6166 182.94Z" fill="#37474F"/>
<path d="M78.539 144.175C81.6966 151.206 94.0613 173.856 101.638 175.192C106.61 176.065 126.463 173.344 129.703 168.488C131.114 166.381 128.018 152.12 125.386 152.802C122.753 153.484 106.862 156.212 104.878 155.735C102.893 155.257 87.5141 138.924 81.8398 134.934C72.0941 128.066 76.834 140.383 78.539 144.175Z" fill="#EB9481"/>
<path d="M119.35 152.038L120.625 173.541C120.625 173.541 104.939 177.047 98.1192 174.708C89.792 171.871 77.5296 146.166 75.8451 141.938C73.1171 135.002 73.7991 130.794 77.7069 131.803C79.2142 132.185 81.1988 133.365 83.6335 135.493C86.1842 137.709 100.82 152.106 105.458 154.821C107.96 156.341 119.35 152.038 119.35 152.038Z" fill="#3398DB"/>
<path opacity="0.6" d="M119.35 152.038L120.625 173.541C120.625 173.541 104.939 177.047 98.1192 174.708C89.792 171.871 77.5296 146.166 75.8451 141.938C73.1171 135.002 73.7991 130.794 77.7069 131.803C79.2142 132.185 81.1988 133.365 83.6335 135.493C86.1842 137.709 100.82 152.106 105.458 154.821C107.96 156.341 119.35 152.038 119.35 152.038Z" fill="black"/>
<path d="M116.561 172.792C116.274 169.621 115.585 156.594 115.626 153.771C115.626 153.58 115.756 153.532 115.776 153.737C116.861 163.217 116.561 169.648 116.683 172.771C116.683 172.853 116.567 172.874 116.561 172.792Z" fill="#263238"/>
<path opacity="0.6" d="M113.942 174.729C108.827 175.472 101.993 176.052 98.0579 174.729C89.7375 171.891 77.4752 146.187 75.7906 141.958C73.0626 135.023 73.7446 130.815 77.6525 131.831C77.7747 131.859 77.8953 131.893 78.0139 131.933L113.942 174.729Z" fill="black"/>
<path d="M88.9942 179.823C88.053 180.744 47.6172 184.951 47.3922 184.679C46.8602 183.949 54.4168 146.002 70.5802 132.929C73.431 130.623 78.1913 131.565 80.3464 132.976C81.424 133.658 84.4384 139.114 85.2568 143.963C86.0752 148.812 89.5875 179.243 88.9942 179.823Z" fill="#EBEBEB"/>
<path d="M71.685 131.98C71.685 131.98 76.0975 154.909 76.2407 155.85C76.3839 156.792 75.7429 182.312 75.7429 182.312L45.7349 186.022C45.7349 186.022 49.1449 173.344 49.3085 172.737C49.4722 172.13 55.8489 151.097 62.6826 141.665C68.9501 132.99 71.685 131.98 71.685 131.98Z" fill="#3398DB"/>
<path opacity="0.6" d="M71.685 131.98C71.685 131.98 76.0975 154.909 76.2407 155.85C76.3839 156.792 75.7429 182.312 75.7429 182.312L45.7349 186.022C45.7349 186.022 49.1449 173.344 49.3085 172.737C49.4722 172.13 55.8489 151.097 62.6826 141.665C68.9501 132.99 71.685 131.98 71.685 131.98Z" fill="black"/>
<path d="M81.0146 133.317C81.0146 133.317 84.0427 153.655 84.1314 154.937C84.22 156.219 86.5116 180.955 86.5116 180.955L90.2148 179.591C90.2148 179.591 88.1688 163.489 87.9028 162.091C87.6369 160.693 85.9387 145.723 85.2908 142.92C84.261 138.446 81.0146 133.317 81.0146 133.317Z" fill="#3398DB"/>
<path opacity="0.6" d="M81.0146 133.317C81.0146 133.317 84.0427 153.655 84.1314 154.937C84.22 156.219 86.5116 180.955 86.5116 180.955L90.2148 179.591C90.2148 179.591 88.1688 163.489 87.9028 162.091C87.6369 160.693 85.9387 145.723 85.2908 142.92C84.261 138.446 81.0146 133.317 81.0146 133.317Z" fill="black"/>
<path d="M117.734 173.187L92.8135 175.731L101.188 142.572L126.102 140.035L117.734 173.187Z" fill="#EBEBEB"/>
<path d="M127.172 145.887C128.577 148.547 131.946 151.793 132.315 154.003C132.424 154.543 132.356 155.104 132.12 155.601C131.884 156.099 131.493 156.507 131.005 156.765C131.005 156.765 133.263 157.781 133.256 159.84C133.256 160.898 131.558 161.825 131.558 161.825C132.059 162.082 132.479 162.473 132.772 162.955C133.064 163.436 133.218 163.99 133.215 164.553C133.12 166.006 131.435 166.715 131.435 166.715C131.435 166.715 132.744 168.365 132.172 169.818C131.012 172.771 118.477 173.283 116.356 168.747C115.367 166.633 118.402 166.701 118.402 166.701C118.402 166.701 114.003 165.576 113.833 162.991C113.662 160.407 117.638 160.707 117.638 160.707C117.638 160.707 113.389 159.581 113.485 156.887C113.58 154.084 117.509 155.06 117.509 155.06C117.509 155.06 114.644 153.286 115.19 151.24C116.083 147.83 121.532 151.841 124.26 151.077L125.59 146.473L127.172 145.887Z" fill="#EB9481"/>
<path d="M129.846 149.726C128.741 147.087 131.926 143.643 131.21 140.969C130.269 137.348 126.306 141.099 125.604 146.425L125.795 150.667L129.846 149.726Z" fill="#EB9481"/>
<path d="M131.189 166.858C131.198 166.858 131.207 166.862 131.214 166.868C131.22 166.875 131.224 166.883 131.224 166.892C131.224 166.901 131.22 166.91 131.214 166.916C131.207 166.923 131.198 166.926 131.189 166.926C126.946 168.164 122.425 168.078 118.231 166.681C118.102 166.633 118.122 166.401 118.272 166.422C122.534 167.197 126.886 167.344 131.189 166.858Z" fill="#263238"/>
<path d="M131.626 161.846C131.674 161.846 131.687 161.921 131.626 161.934C127.411 163.121 121.955 163.012 117.522 160.795C117.372 160.72 117.311 160.495 117.522 160.57C120.564 161.825 127.602 162.357 131.626 161.846Z" fill="#263238"/>
<path d="M117.304 154.766C121.641 156.724 126.17 157.106 130.869 156.812C130.93 156.812 130.93 156.894 130.869 156.908C128.605 157.672 125.59 157.542 123.251 157.235C121.074 156.998 118.998 156.194 117.229 154.903C117.133 154.862 117.181 154.719 117.304 154.766Z" fill="#263238"/>
<path d="M62.4711 140.492C50.4201 154.098 36.9165 176.972 42.8568 181.76C48.3128 186.132 67.8657 181.692 80.1553 176.734C82.4946 175.786 77.0591 154.91 74.4606 155.626C69.9731 156.867 62.8666 159.888 62.5802 159.977C61.8982 160.168 65.1445 152.052 69.1206 142.204C73.5604 131.224 69.3661 132.704 62.4711 140.492Z" fill="#EB9481"/>
<path d="M100.677 155.033C100.63 155.557 100.454 156.062 100.163 156.501C99.8725 156.941 99.4771 157.301 99.0126 157.549C99.8375 158.186 100.414 159.09 100.643 160.107C100.963 161.914 98.2692 163.21 98.2692 163.21C98.9888 164.046 99.4403 165.08 99.565 166.177C99.6946 167.936 97.1644 169.627 97.1644 169.627C97.4008 170.761 97.2217 171.943 96.6597 172.956C95.0434 175.595 79.4528 177.62 77.3455 177.805L73.5876 156.042C73.5876 156.042 86.8525 149.413 90.3989 149.836C93.3861 150.197 100.936 151.827 100.677 155.033Z" fill="#EB9481"/>
<path d="M98.9649 157.48C95.8823 156.335 92.5337 155.932 89.301 155.578C89.2889 155.582 89.2785 155.59 89.2711 155.6C89.2637 155.61 89.2598 155.623 89.2598 155.636C89.2598 155.648 89.2637 155.661 89.2711 155.671C89.2785 155.682 89.2889 155.689 89.301 155.694C92.5268 156.007 95.7391 157.187 98.9445 157.63C98.9644 157.633 98.9845 157.628 99.0005 157.616C99.0165 157.604 99.027 157.586 99.0297 157.566C99.0324 157.546 99.0271 157.526 99.015 157.51C99.0028 157.494 98.9848 157.483 98.9649 157.48Z" fill="#263238"/>
<path d="M98.208 162.957C97.4831 162.763 96.7353 162.666 95.9847 162.671C95.1936 162.623 94.3956 162.589 93.6045 162.568C92.0155 162.528 90.4264 162.521 88.8305 162.568C88.7555 162.568 88.7419 162.678 88.8305 162.678C90.4128 162.718 92.0018 162.787 93.6045 162.903C94.3956 162.957 95.1868 163.019 95.9779 163.087C96.7204 163.198 97.4727 163.228 98.2217 163.175C98.2438 163.166 98.2624 163.15 98.275 163.13C98.2876 163.109 98.2936 163.085 98.2921 163.061C98.2906 163.038 98.2817 163.015 98.2666 162.996C98.2516 162.977 98.2311 162.964 98.208 162.957Z" fill="#263238"/>
<path d="M97.0962 169.627C96.4283 169.457 95.7357 169.407 95.0502 169.477H92.8746C91.422 169.477 89.9761 169.43 88.5303 169.354C88.4553 169.354 88.4484 169.464 88.5303 169.47C90.0034 169.552 91.4697 169.655 92.9428 169.723L95.1048 169.818C95.7622 169.903 96.4296 169.871 97.0757 169.723C97.0757 169.723 97.1235 169.634 97.0962 169.627Z" fill="#263238"/>
<path d="M68.4113 134.484C59.6476 139.892 37.0938 171.728 41.2404 180.485C45.387 189.241 73.6695 179.598 73.6695 179.598L71.1666 155.817C71.1666 155.817 63.7328 159.997 63.4872 159.622C63.2417 159.247 67.5792 148.383 69.3388 143.936C71.0984 139.49 73.0762 131.626 68.4113 134.484Z" fill="#3398DB"/>
<path opacity="0.6" d="M68.4113 134.484C59.6476 139.892 37.0938 171.728 41.2404 180.485C45.387 189.241 73.6695 179.598 73.6695 179.598L71.1666 155.817C71.1666 155.817 63.7328 159.997 63.4872 159.622C63.2417 159.247 67.5792 148.383 69.3388 143.936C71.0984 139.49 73.0762 131.626 68.4113 134.484Z" fill="black"/>
<path d="M70.0892 178.254C69.564 175.11 67.8931 162.18 67.7158 159.356C67.7158 159.165 67.8249 159.111 67.8659 159.308C69.6595 168.686 69.8573 175.117 70.2119 178.227C70.246 178.302 70.1028 178.329 70.0892 178.254Z" fill="#263238"/>
<path d="M70.9962 155.837C70.1726 156.144 69.3725 156.511 68.6023 156.935C67.9203 157.29 67.2383 157.617 66.5154 157.999C65.0082 158.783 63.5146 159.602 62.0347 160.427C60.5547 161.252 59.0748 162.098 57.6153 162.964C56.1558 163.83 54.7509 164.778 53.2914 165.644C53.2232 165.685 53.2914 165.781 53.3596 165.74C54.8396 164.901 56.3809 164.158 57.8813 163.353L62.3007 160.952C63.767 160.168 65.2469 159.39 66.7132 158.599L68.8683 157.426C69.6567 157.037 70.4177 156.595 71.1462 156.103C71.164 156.077 71.1741 156.046 71.1755 156.014C71.1768 155.983 71.1692 155.951 71.1536 155.924C71.138 155.896 71.115 155.873 71.0872 155.858C71.0594 155.843 71.0278 155.835 70.9962 155.837Z" fill="#263238"/>
<path d="M68.5 149.01C68.043 149.59 67.5929 150.177 67.136 150.784C67.0541 150.9 66.9859 151.015 66.9041 151.125C67.02 150.818 67.136 150.504 67.2587 150.19C67.7104 149.112 68.102 148.01 68.4318 146.889C68.4318 146.842 68.3704 146.814 68.3431 146.889C67.7894 147.976 67.2931 149.092 66.8564 150.231C66.3926 151.329 65.922 152.42 65.4924 153.525C65.0627 154.63 64.5921 155.728 64.1693 156.84C63.7129 157.921 63.3345 159.033 63.0372 160.168C63.0367 160.181 63.0402 160.194 63.0474 160.204C63.0545 160.215 63.0649 160.223 63.0769 160.228C63.089 160.232 63.1022 160.233 63.1147 160.23C63.1271 160.226 63.1382 160.219 63.1463 160.209C63.7475 159.134 64.2651 158.014 64.6944 156.86C65.1514 155.762 65.581 154.644 66.0584 153.539C66.2426 153.075 66.4199 152.611 66.5904 152.175C66.6722 152.073 66.7472 151.963 66.8223 151.861C67.0337 151.575 67.2315 151.275 67.4292 150.968C67.8248 150.347 68.1999 149.706 68.5682 149.065C68.5477 149.01 68.5136 148.99 68.5 149.01Z" fill="#263238"/>
<path d="M73.7242 179.073C73.7242 178.916 73.6219 178.882 73.5946 179.073C73.5673 179.264 73.5946 179.339 73.5537 179.434C72.5921 179.693 69.0729 180.764 68.2136 181.023C66.4063 181.555 64.5922 182.026 62.7576 182.435C60.923 182.844 59.0612 183.192 57.1993 183.485C55.3375 183.778 53.4688 184.079 51.5933 184.201C51.5183 184.201 51.5251 184.317 51.5933 184.317C53.5029 184.215 55.4057 184.16 57.3084 183.942C59.2112 183.724 61.0253 183.417 62.8599 183.035C64.6945 182.653 66.5836 182.162 68.4114 181.61C69.3253 181.33 70.2323 181.023 71.1394 180.709C72.0179 180.453 72.868 180.108 73.6764 179.68C73.7073 179.662 73.7326 179.636 73.7495 179.605C73.7663 179.573 73.7741 179.538 73.7719 179.502L73.7242 179.073Z" fill="#263238"/>
<path d="M79.112 139.408C76.7796 139.912 72.8513 136.305 71.3236 133.406C71.2213 133.208 72.1761 125.345 72.1965 123.763C72.1965 123.442 82.0651 126.334 82.0651 126.334C81.4669 128.297 81.1119 130.326 81.008 132.376C81.008 132.608 81.3626 138.91 79.112 139.408Z" fill="#EB9481"/>
<path d="M82.0719 126.334C82.0719 126.382 81.9968 126.573 81.915 126.879C81.7718 127.411 81.5467 128.243 81.3626 129.253C81.1593 130.28 81.0429 131.323 81.0148 132.37C81.0148 132.445 81.0148 132.52 81.0148 132.588V132.622C81.0148 132.751 81.0148 132.922 81.0148 133.127C80.6935 133.165 80.3697 133.179 80.0463 133.167C74.6585 132.956 72.9535 126.307 72.4966 123.756L72.6671 123.79C72.9262 123.831 73.2672 123.913 73.6833 124.008L73.997 124.09C74.679 124.254 75.436 124.465 76.2544 124.677L77.066 124.902L78.7914 125.386L79.4734 125.584C79.719 125.645 79.9577 125.72 80.1554 125.781L80.476 125.87L80.6328 125.918L81.4444 126.156L81.84 126.266L82.0037 126.32L82.0719 126.334Z" fill="#263238"/>
<path d="M71.6099 111.957C70.2459 115.367 71.228 125.597 73.5263 128.086C76.8613 131.66 82.7402 132.472 85.891 128.373C88.9395 124.404 87.4187 111.057 84.8134 108.772C80.9874 105.41 73.6559 106.931 71.6099 111.957Z" fill="#EB9481"/>
<path d="M81.001 118.716C81.001 118.716 80.9464 118.757 80.9532 118.784C81.0555 119.466 81.0623 120.278 80.469 120.578C80.469 120.578 80.469 120.625 80.469 120.619C81.226 120.421 81.2124 119.35 81.001 118.716Z" fill="#263238"/>
<path d="M80.2986 118.068C79.1801 118.116 79.3574 120.353 80.394 120.312C81.4307 120.271 81.2329 118.027 80.2986 118.068Z" fill="#263238"/>
<path d="M85.0181 118.504C85.0181 118.504 85.0727 118.504 85.0727 118.559C85.1068 119.241 85.2636 120.046 85.9115 120.223V120.264C85.134 120.216 84.9363 119.166 85.0181 118.504Z" fill="#263238"/>
<path d="M85.5774 117.734C86.6823 117.556 86.9414 119.78 85.9252 119.943C84.9091 120.107 84.6499 117.877 85.5774 117.734Z" fill="#263238"/>
<path d="M79.3302 117.12C79.6303 117.018 79.8894 116.875 80.1759 116.745C80.4889 116.652 80.7638 116.461 80.9602 116.2C81.0034 116.105 81.0149 115.998 80.9928 115.896C80.9706 115.794 80.9161 115.702 80.8374 115.633C80.6569 115.526 80.4507 115.469 80.2407 115.469C80.0306 115.469 79.8244 115.526 79.6439 115.633C79.2441 115.786 78.914 116.079 78.7164 116.459C78.6835 116.546 78.6757 116.642 78.6939 116.733C78.712 116.825 78.7553 116.91 78.819 116.979C78.8827 117.048 78.9643 117.097 79.0546 117.122C79.1448 117.147 79.2403 117.146 79.3302 117.12Z" fill="#A6A6A6"/>
<path d="M86.348 116.541C86.0428 116.503 85.74 116.448 85.441 116.377C85.1147 116.366 84.8011 116.248 84.5476 116.043C84.486 115.959 84.4529 115.857 84.4529 115.753C84.4529 115.649 84.486 115.547 84.5476 115.463C84.6948 115.313 84.879 115.206 85.0815 115.151C85.284 115.095 85.4974 115.095 85.7001 115.149C86.1274 115.194 86.522 115.399 86.805 115.722C86.8651 115.801 86.9009 115.896 86.9078 115.996C86.9148 116.095 86.8927 116.194 86.8442 116.281C86.7957 116.368 86.7229 116.438 86.6348 116.485C86.5467 116.531 86.447 116.55 86.348 116.541Z" fill="#A6A6A6"/>
<path d="M80.8784 125.195C81.0558 125.345 81.2399 125.55 81.4922 125.556C81.7496 125.529 81.9982 125.448 82.222 125.318C82.222 125.318 82.2697 125.318 82.222 125.352C82.1337 125.495 82.0088 125.612 81.8602 125.692C81.7116 125.771 81.5445 125.809 81.3763 125.802C81.2319 125.776 81.0985 125.707 80.9929 125.605C80.8873 125.503 80.8143 125.372 80.783 125.229C80.8034 125.188 80.8512 125.174 80.8784 125.195Z" fill="#263238"/>
<path d="M81.4376 123.06C81.6349 123.32 81.8841 123.536 82.1694 123.695C82.4547 123.853 82.7699 123.951 83.0949 123.981C83.3776 124.022 83.6647 124.022 83.9474 123.981C84.0031 123.976 84.0581 123.965 84.111 123.947C84.1609 123.952 84.2112 123.952 84.2611 123.947C84.2965 123.936 84.3276 123.915 84.3497 123.885C84.3719 123.856 84.3838 123.82 84.3838 123.783C84.3877 123.76 84.3877 123.737 84.3838 123.715V123.653C84.3838 123.121 84.2406 122.289 84.2406 122.289C84.4452 122.371 85.475 122.733 85.4341 122.46C85.1776 120.06 84.6772 117.693 83.9405 115.394C83.9405 115.378 83.9341 115.363 83.9226 115.351C83.9111 115.339 83.8954 115.333 83.8792 115.333C83.8629 115.333 83.8473 115.339 83.8358 115.351C83.8243 115.363 83.8178 115.378 83.8178 115.394C84.0428 117.618 84.6566 119.78 84.9158 122.003C84.5499 121.866 84.1665 121.781 83.7769 121.751C83.7018 121.751 84.0292 123.306 84.0224 123.551C83.5885 123.629 83.1435 123.619 82.7135 123.522C82.2836 123.425 81.8775 123.242 81.5194 122.985C81.4444 122.958 81.3899 123.012 81.4376 123.06Z" fill="#263238"/>
<path d="M83.6132 123.708C83.35 124.113 82.9887 124.444 82.5629 124.67C82.325 124.782 82.0588 124.82 81.799 124.779C81.2398 124.677 81.1852 124.172 81.2466 123.729C81.2863 123.495 81.3526 123.266 81.4444 123.047C82.077 123.496 82.8378 123.728 83.6132 123.708Z" fill="#263238"/>
<path d="M82.5629 124.67C82.325 124.782 82.0588 124.82 81.799 124.779C81.2398 124.677 81.1852 124.172 81.2466 123.729C81.54 123.714 81.8297 123.799 82.0686 123.97C82.3075 124.141 82.4817 124.387 82.5629 124.67Z" fill="#FF9ABB"/>
<g opacity="0.2">
<path d="M82.2832 113.955C82.6622 113.986 83.0431 113.986 83.4221 113.955C83.804 113.955 84.1791 113.826 84.5679 113.805C85.2978 113.801 86.0229 113.925 86.7093 114.174C86.7707 114.174 86.7639 114.235 86.7093 114.215C85.9762 113.983 85.2022 113.908 84.4383 113.996C83.8217 114.123 83.1903 114.162 82.5628 114.112C81.1452 113.868 79.6867 114.078 78.3958 114.712C79.5881 114.081 80.941 113.818 82.2832 113.955Z" fill="black"/>
<path d="M82.2219 112.939C82.5799 112.975 82.9399 112.986 83.2995 112.973C83.6609 112.973 83.9815 112.844 84.3838 112.823C85.0812 112.822 85.7736 112.942 86.4298 113.178C86.4844 113.178 86.4776 113.232 86.4298 113.219C85.7342 112.998 84.9995 112.929 84.2747 113.014C83.6889 113.13 83.0899 113.165 82.4947 113.117C81.1532 112.885 79.7728 113.086 78.5527 113.689C79.676 113.086 80.9518 112.825 82.2219 112.939Z" fill="black"/>
</g>
<path d="M86.3888 112.871C82.8833 115.333 78.0002 111.725 78.0002 111.725C77.706 112.499 77.1702 113.157 76.4723 113.602C75.7745 114.046 74.9518 114.254 74.1265 114.194C74.1265 114.194 73.499 120.182 71.9168 120.182C69.5161 120.182 68.6841 112.053 69.4275 110.443C70.1709 108.834 72.2032 108.397 72.2032 108.397C72.4155 107.424 72.9911 106.567 73.8127 106.004C75.4427 104.728 81.1238 106.358 81.1238 106.358C81.442 105.599 81.9323 104.924 82.556 104.387C82.7058 104.254 82.8812 104.152 83.0715 104.088C83.2618 104.024 83.463 103.999 83.6631 104.015C83.8632 104.031 84.058 104.087 84.2358 104.181C84.4136 104.274 84.5706 104.402 84.6975 104.558C84.4022 105.003 84.211 105.509 84.1382 106.038C83.8722 107.79 85.3044 107.777 85.2703 106.188C85.2807 105.593 85.0774 105.015 84.6975 104.558C85.3795 103.514 86.5457 103.194 87.2481 103.712C88.5303 104.715 89.3419 110.832 86.3888 112.871Z" fill="#A6A6A6"/>
<path d="M79.6166 122.964C79.0144 122.938 78.4318 122.743 77.935 122.401C77.4382 122.06 77.0473 121.586 76.8067 121.033C76.566 120.481 76.4854 119.872 76.574 119.275C76.6626 118.679 76.9168 118.12 77.3076 117.661C77.6985 117.202 78.2104 116.862 78.7849 116.68C79.3595 116.498 79.9736 116.48 80.5575 116.63C81.1414 116.78 81.6715 117.09 82.0875 117.527C82.5035 117.963 82.7887 118.507 82.9106 119.097C83.0125 119.577 83.0028 120.075 82.8822 120.55C82.7616 121.026 82.5334 121.468 82.2152 121.841C81.8969 122.215 81.4971 122.511 81.0465 122.705C80.596 122.9 80.1068 122.989 79.6166 122.964ZM79.8825 116.963C79.6539 116.954 79.425 116.973 79.2005 117.017C78.505 117.16 77.8901 117.563 77.4814 118.144C77.0726 118.725 76.9007 119.439 77.0007 120.142C77.1007 120.845 77.4651 121.484 78.0196 121.927C78.5741 122.371 79.2769 122.587 79.9847 122.53C80.6926 122.473 81.3522 122.149 81.8291 121.623C82.306 121.097 82.5643 120.408 82.5512 119.698C82.5382 118.988 82.2548 118.31 81.759 117.802C81.2631 117.293 80.592 116.993 79.8825 116.963Z" fill="#455A64"/>
<path d="M86.9754 122.399C85.7478 122.337 84.6907 121.035 84.5679 119.357C84.4952 118.558 84.6766 117.756 85.0863 117.065C85.2441 116.761 85.4774 116.502 85.7639 116.313C86.0503 116.125 86.3804 116.013 86.7225 115.988C87.0647 115.963 87.4074 116.027 87.7179 116.173C88.0285 116.318 88.2965 116.541 88.4963 116.82C88.9989 117.444 89.2945 118.209 89.3419 119.009C89.4647 120.782 88.4963 122.296 87.18 122.419L86.9754 122.399ZM86.9208 116.404C86.8665 116.397 86.8115 116.397 86.7572 116.404C86.4835 116.435 86.2215 116.532 85.9934 116.686C85.7654 116.841 85.5782 117.048 85.4477 117.291C85.0897 117.91 84.9325 118.624 84.9976 119.337C85.1067 120.871 86.0752 122.065 87.1595 121.976C88.2439 121.887 89.0282 120.612 88.9191 119.057C88.8813 118.345 88.6213 117.663 88.1757 117.106C88.0278 116.908 87.8396 116.742 87.6233 116.621C87.4071 116.5 87.1677 116.426 86.9208 116.404Z" fill="#455A64"/>
<path d="M82.8289 119.48L82.5288 119.166C82.9857 118.723 84.0769 118.095 84.9158 118.873L84.6294 119.193C83.886 118.491 82.8698 119.439 82.8289 119.48Z" fill="#455A64"/>
<path d="M68.5887 121.328L68.1931 121.164C68.275 120.98 68.9911 119.357 69.939 119.118C70.887 118.88 76.6158 119.036 76.8613 119.036V119.466C75.1973 119.432 70.7233 119.371 70.0413 119.534C69.3593 119.698 68.7796 120.885 68.5887 121.328Z" fill="#455A64"/>
<path d="M73.1785 120.373C73.1785 120.373 71.1325 116.963 69.5639 117.645C67.9953 118.327 69.4343 123.217 71.1393 123.981C71.351 124.094 71.5833 124.163 71.8223 124.184C72.0613 124.205 72.3021 124.177 72.5302 124.103C72.7582 124.028 72.9689 123.908 73.1494 123.75C73.33 123.592 73.4767 123.399 73.5809 123.183L73.1785 120.373Z" fill="#EB9481"/>
<path d="M70.0005 119.057C70.0005 119.057 70.0005 119.091 70.0005 119.098C71.194 119.67 71.7669 120.85 72.142 122.051C72.0778 121.924 71.9872 121.812 71.8761 121.724C71.765 121.635 71.6362 121.572 71.4984 121.537C71.3605 121.503 71.2169 121.499 71.0773 121.525C70.9377 121.551 70.8054 121.607 70.6893 121.689C70.6893 121.689 70.6893 121.764 70.6893 121.757C70.9091 121.703 71.1404 121.717 71.3517 121.799C71.5629 121.881 71.7437 122.026 71.8692 122.214C72.0746 122.532 72.246 122.87 72.3807 123.224C72.4284 123.34 72.633 123.292 72.5989 123.162C72.7353 121.58 71.6646 119.35 70.0005 119.057Z" fill="#263238"/>
<path d="M81.0624 133.209L78.6959 139.128L71.378 131.626L69.332 134.02C69.332 134.02 76.493 145.867 76.5408 145.328L78.9687 140.254L82.4742 143.787L82.1877 134.921L81.0624 133.209Z" fill="#EBEBEB"/>
<path d="M82.5218 139.408C82.4264 137.941 82.3718 136.468 82.2081 135.009C82.2081 134.961 82.1263 134.934 82.1126 135.009C81.8194 136.42 82.2149 142.013 82.2081 143.356C82.0649 143.2 78.9618 140.246 78.9345 140.294C78.4094 141.099 76.6225 144.795 76.4998 145.13C75.3677 143.247 71.0438 136.414 69.6798 134.634C69.6389 134.579 69.557 134.634 69.5911 134.681C70.5868 136.673 76.3293 145.88 76.4111 145.853C77.3584 144.111 78.2144 142.322 78.9754 140.492C79.5006 141.174 82.631 144.475 82.6378 144.257C82.6856 142.639 82.6469 141.021 82.5218 139.408Z" fill="#263238"/>
<path d="M222.646 182.946H174.715V290.191H222.646V182.946Z" fill="#F39C12"/>
<path opacity="0.3" d="M222.646 182.946H174.715V290.191H222.646V182.946Z" fill="black"/>
<path d="M87.146 182.946H39.2151V290.191H87.146V182.946Z" fill="#F39C12"/>
<path d="M222.646 182.946H87.146V197.841H222.646V182.946Z" fill="#F39C12"/>
<path opacity="0.2" d="M222.646 182.946H87.146V197.841H222.646V182.946Z" fill="black"/>
<path opacity="0.1" d="M87.4529 190.394L104.353 190.264L121.246 190.223L155.046 190.135L188.846 190.223L205.746 190.264L222.646 190.394L205.746 190.517L188.846 190.564L155.046 190.646L121.246 190.564L104.353 190.517L87.4529 190.394Z" fill="black"/>
<path d="M93.5909 182.946H87.146V290.191H93.5909V182.946Z" fill="#F39C12"/>
<path opacity="0.2" d="M93.5909 182.946H87.146V290.191H93.5909V182.946Z" fill="black"/>
<path d="M222.646 182.946H216.201V290.191H222.646V182.946Z" fill="#F39C12"/>
<path opacity="0.2" d="M222.646 182.946H216.201V290.191H222.646V182.946Z" fill="black"/>
<path d="M150.831 181.188H111.603V182.947H150.831V181.188Z" fill="#455A64"/>
<path d="M150.831 181.188H131.087V182.947H150.831V181.188Z" fill="#263238"/>
<path d="M133.215 182.947H171.441L176.44 156.983H138.214L133.215 182.947Z" fill="#455A64"/>
<path d="M152.502 169.962C152.469 170.258 152.5 170.557 152.592 170.841C152.684 171.124 152.835 171.385 153.036 171.605C153.237 171.825 153.482 172 153.756 172.117C154.03 172.235 154.325 172.293 154.623 172.287C155.257 172.277 155.864 172.035 156.331 171.606C156.797 171.177 157.09 170.592 157.153 169.962C157.185 169.666 157.154 169.366 157.062 169.084C156.969 168.801 156.818 168.541 156.617 168.321C156.416 168.101 156.171 167.926 155.898 167.808C155.625 167.69 155.33 167.631 155.032 167.636C154.399 167.646 153.791 167.889 153.325 168.317C152.858 168.746 152.566 169.331 152.502 169.962Z" fill="#263238"/>
<path d="M248.691 213.95L247.15 223.191L236.709 279.565H235.031L242.622 223.191L243.74 213.95H248.691Z" fill="#DBDBDB"/>
<path d="M243.74 213.95H248.691L247.15 223.191H242.622L243.74 213.95Z" fill="#A6A6A6"/>
<path d="M281.468 279.565H279.791L269.349 223.191L267.808 213.95H272.759L273.878 223.191L281.468 279.565Z" fill="#DBDBDB"/>
<path d="M272.759 213.95L273.878 223.191H269.349L267.808 213.95H272.759Z" fill="#A6A6A6"/>
<path d="M312.779 279.565H311.101L300.66 223.191L299.118 213.95H304.07L305.188 223.191L312.779 279.565Z" fill="#DBDBDB"/>
<path d="M305.188 223.191H300.66L299.118 213.95H304.07L305.188 223.191Z" fill="#A6A6A6"/>
<path d="M310.112 218.287H233.626V210.233H262.256L271.879 154.241H307.193L310.112 218.287Z" fill="#DBDBDB"/>
<path d="M310.112 218.287H305.945L303.224 154.241H307.193L310.112 218.287Z" fill="#A6A6A6"/>
<path d="M187.236 271.722C188.648 272.547 232.139 281.645 234.015 280.943C234.731 280.677 236.422 274.423 238.257 266.805C238.652 265.154 239.048 263.456 239.443 261.724C242.021 250.498 244.497 238.536 244.497 238.536L215.423 232.398L211.168 255.75L210.233 260.878C210.233 260.878 192.024 264.848 190.046 265.836C188.068 266.825 185.818 270.897 187.236 271.722Z" fill="#D3766A"/>
<path d="M237.547 269.71C235.999 275.957 234.635 280.711 234.015 280.943C232.139 281.625 188.641 272.547 187.23 271.722C185.818 270.897 188.075 266.812 190.039 265.816C191.26 265.209 198.66 263.463 204.15 262.215C199.376 263.361 190.408 266.614 208.924 267.95C224.208 269.062 234.301 269.567 237.547 269.71Z" fill="#263238"/>
<path d="M226.486 293.942C228.061 294.379 272.439 292.087 274.076 290.935C274.696 290.498 272.991 272.684 272.527 270.966C270.952 265.162 263.457 247.682 263.457 247.682L233.763 249.128L245.957 277.574C245.957 277.574 229.364 286.051 227.7 287.511C226.035 288.97 224.91 293.533 226.486 293.942Z" fill="#D3766A"/>
<path d="M274.075 290.955C272.439 292.114 228.068 294.406 226.486 293.969C224.903 293.533 226.049 288.997 227.699 287.538C228.477 286.856 232.473 284.66 236.565 282.505C231.464 285.376 223.389 291.78 273.625 280.363C274.069 285.444 274.41 290.723 274.075 290.955Z" fill="#263238"/>
<path d="M295.306 206.203C286.44 216.058 256.746 208.249 254.973 212.198C253.404 215.655 273.687 271.184 273.687 271.184L241.237 274.682C241.237 274.682 213.221 213.357 223.232 195.639C228.641 186.091 252.476 189.882 266.88 188.137C271.218 187.611 273.257 178.664 273.257 178.664H298.955C298.955 178.664 305.434 194.943 295.306 206.203Z" fill="#37474F"/>
<path d="M232.276 190.148L259.556 210.997C268.606 210.806 288.411 213.943 295.354 206.223C305.468 194.963 298.982 178.677 298.982 178.677H273.257C273.257 178.677 271.211 187.625 266.88 188.15C256.787 189.357 242.049 187.85 232.276 190.148Z" fill="#263238"/>
<path d="M240.016 267.446C240.91 267.167 249.326 266.226 251.181 266.028C254.897 265.625 266.587 264.527 268.708 264.534C268.718 264.538 268.727 264.545 268.734 264.554C268.74 264.563 268.744 264.574 268.744 264.585C268.744 264.596 268.74 264.607 268.734 264.617C268.727 264.626 268.718 264.633 268.708 264.637C266.867 265.018 259.399 265.891 257.544 266.082C253.827 266.464 241.053 267.706 240.016 267.603C239.999 267.598 239.985 267.588 239.974 267.574C239.963 267.56 239.958 267.542 239.958 267.525C239.958 267.507 239.963 267.49 239.974 267.476C239.985 267.462 239.999 267.451 240.016 267.446Z" fill="#263238"/>
<path d="M251.058 208.944C253.145 207.908 268.96 208.419 280.309 207.355C284.005 207.014 287.715 206.223 290.539 203.802C293.003 201.584 294.761 198.691 295.593 195.482C296.684 191.601 296.575 187.557 296.384 183.588C296.343 182.612 296.275 181.63 296.213 180.655C296.213 180.601 296.309 180.587 296.315 180.655C297.175 187.768 297.836 195.714 293.212 201.879C291.162 204.592 288.241 206.518 284.94 207.335C278.12 209.135 252.361 208.699 251.454 209.381C250.369 210.213 267.01 260.858 267.337 261.827C267.399 262.004 267.078 262.127 267.003 261.949C265.359 258.028 249.237 209.851 251.058 208.944Z" fill="#263238"/>
<path d="M222.093 197.35C223.621 193.469 227.113 191.048 232.248 190.121C232.33 190.121 232.323 190.237 232.248 190.257C227.768 191.566 224.569 193.367 222.803 197.152C221.984 198.918 221.555 201.394 221.343 204.722C220.279 221.302 234.751 258.948 235.045 259.603C235.048 259.609 235.05 259.615 235.05 259.622C235.051 259.628 235.05 259.635 235.048 259.641C235.047 259.647 235.043 259.653 235.039 259.658C235.035 259.664 235.03 259.668 235.024 259.671C235.018 259.674 235.012 259.676 235.005 259.677C234.999 259.677 234.992 259.677 234.986 259.675C234.979 259.673 234.973 259.67 234.968 259.666C234.963 259.661 234.959 259.656 234.956 259.651C232.91 256.22 215.778 213.384 222.093 197.35Z" fill="#263238"/>
<path d="M210.363 254.243L234.915 259.467C234.915 259.467 215.533 201.613 224.637 194.145C227.161 192.099 232.664 191.355 239.205 194.179C248.964 198.394 260.265 206.994 270.918 210.138C280.895 213.084 292.742 210.376 296.834 205.889C305.4 196.464 298.955 178.65 298.955 178.65L263.614 177.32C263.614 177.32 264.146 177.749 262.454 179.25C262.454 179.25 241.687 174.537 232.658 180.055C216.385 189.998 210.363 254.243 210.363 254.243Z" fill="#37474F"/>
<path d="M283.712 180.73C283.712 180.714 283.719 180.698 283.73 180.686C283.742 180.675 283.757 180.668 283.774 180.668C283.79 180.668 283.805 180.675 283.817 180.686C283.828 180.698 283.835 180.714 283.835 180.73C283.807 182.057 283.91 183.385 284.142 184.692C284.417 185.932 285.034 187.071 285.922 187.979C287.859 189.944 290.634 190.612 293.178 191.389C293.308 191.43 293.287 191.669 293.137 191.642C290.321 191.212 287.354 190.496 285.294 188.382C284.346 187.409 283.711 186.173 283.473 184.835C283.214 183.468 283.296 182.058 283.712 180.73Z" fill="#263238"/>
<path d="M225.258 193.04C229.036 190.673 234.942 192.474 237.773 193.558C237.785 193.563 237.796 193.572 237.801 193.584C237.807 193.597 237.808 193.61 237.803 193.623C237.799 193.636 237.789 193.646 237.777 193.652C237.765 193.658 237.751 193.658 237.738 193.654C235.14 192.719 228.668 191.301 225.21 193.749C217.217 199.417 227.938 238.148 234.929 259.467C235.038 259.801 234.779 259.712 234.629 259.392C233.469 256.868 224.399 229.929 222.066 212.109C221.705 209.374 219.815 196.464 225.258 193.04Z" fill="#263238"/>
<path d="M213.159 247.709C213.903 247.709 220.273 249.073 221.671 249.407C224.48 250.041 230.987 251.726 232.501 252.306C232.542 252.306 232.501 252.401 232.501 252.401C231.041 252.265 227.652 251.515 226.254 251.194C223.451 250.512 213.848 248.234 213.146 247.859C213.057 247.825 213.091 247.709 213.159 247.709Z" fill="#263238"/>
<path d="M226.465 192.038C229.002 190.674 232.03 190.421 234.854 190.769C237.831 191.22 240.722 192.124 243.426 193.449C249.176 196.082 254.645 199.287 260.401 201.906C266.157 204.525 272.234 206.537 278.543 206.728C283.93 206.899 290.757 205.951 294.229 201.102C299.569 193.6 296.459 180.744 296.397 179.912C296.397 179.85 296.479 179.85 296.493 179.912C300.639 195.748 295.306 201.899 291.719 204.464C288.868 206.51 284.762 207.035 282.048 207.26C275.774 207.792 269.486 206.257 263.675 203.939C257.714 201.565 252.122 198.373 246.414 195.448C240.958 192.652 234.82 189.76 228.586 191.356C227.877 191.532 227.182 191.76 226.506 192.038C226.506 192.038 226.424 192.058 226.465 192.038Z" fill="#263238"/>
<path d="M263.757 136.755C263.661 144.7 263.702 152.87 264.827 160.747C265.707 166.885 268.517 171.837 274.982 173.071C280.984 174.21 289.441 173.753 294.29 169.579C296.554 167.642 297.257 165.017 296.97 162.118C296.581 158.094 292.414 136.134 291.16 129.28C290.403 125.106 289.652 120.878 288.159 116.881C285.022 108.486 280.814 108.745 280.227 108.595C279.709 108.295 276.408 106.999 271.879 108.663C270.694 109.097 269.614 109.776 268.708 110.655C267.802 111.533 267.091 112.593 266.621 113.764C263.614 120.714 263.845 129.314 263.757 136.755Z" fill="#263238"/>
<path d="M281.591 109.72C286.761 111.862 288.207 117.345 289.652 122.248C291.658 129.068 293.554 135.929 295.108 142.879C295.859 146.214 296.534 149.569 297.107 152.945C297.652 156.171 298.471 159.608 298.368 162.896C298.239 168.352 293.39 171.018 288.616 172C288.592 172.006 288.567 172.007 288.543 172.003C288.519 172 288.496 171.991 288.475 171.979C288.454 171.966 288.436 171.949 288.422 171.93C288.407 171.91 288.397 171.888 288.391 171.864C288.385 171.84 288.384 171.816 288.388 171.791C288.391 171.767 288.4 171.744 288.412 171.723C288.425 171.702 288.442 171.684 288.461 171.67C288.481 171.655 288.503 171.645 288.527 171.639C291.255 170.957 293.983 170.098 295.954 167.976C298.45 165.248 298 161.838 297.543 158.504C296.766 152.761 295.661 147.073 294.358 141.454C293.056 135.834 291.542 130.201 289.946 124.629C288.425 119.329 287.184 112.312 281.564 109.822C281.557 109.821 281.551 109.817 281.545 109.813C281.54 109.809 281.535 109.804 281.532 109.798C281.528 109.792 281.526 109.785 281.525 109.778C281.524 109.771 281.525 109.764 281.526 109.758C281.528 109.751 281.531 109.745 281.536 109.739C281.54 109.734 281.545 109.729 281.551 109.725C281.557 109.722 281.564 109.72 281.571 109.719C281.578 109.718 281.585 109.718 281.591 109.72Z" fill="#263238"/>
<path d="M264.548 119.657C265.325 115.47 267.276 111.337 271.613 109.945C266.048 111.991 264.943 118.211 264.418 123.388C263.864 128.844 263.513 134.311 263.368 139.79C263.218 145.061 263.184 150.367 263.518 155.626C263.873 161.307 265.134 166.585 268.701 171.128C268.713 171.147 268.718 171.17 268.714 171.192C268.711 171.215 268.699 171.235 268.682 171.25C268.665 171.265 268.643 171.273 268.62 171.273C268.597 171.273 268.575 171.265 268.558 171.25C265.087 167.608 263.784 162.432 263.286 157.556C262.769 151.094 262.678 144.606 263.013 138.132C263.252 132.028 263.423 125.686 264.548 119.657Z" fill="#263238"/>
<path d="M276.606 144.516C268.79 154.132 258.089 163.216 253.609 163.066C249.994 162.95 228.375 149.965 226.833 147.994C225.517 146.296 235.699 133.181 237.807 134.081C241.346 135.595 253.922 146.003 254.993 145.839C256.064 145.675 264.875 141.843 273.646 137.716C282.034 133.768 282.041 137.839 276.606 144.516Z" fill="#D3766A"/>
<path d="M229.227 149.794C227.495 148.812 219.931 143.656 218.145 141.713C216.358 139.769 211.632 133.918 212.961 132.403C214.291 130.889 215.812 132.499 215.812 132.499C215.812 132.499 214.21 129.703 215.683 128.298C217.156 126.893 219.447 129.478 219.447 129.478C219.447 129.478 218.008 126.484 219.577 125.195C221.145 123.906 222.987 126.879 222.987 126.879C222.987 126.879 221.548 124.206 223.287 123.681C225.387 123.06 227.488 128.291 229.609 130.262C230.093 130.705 240.044 138.616 240.044 138.616L229.227 149.794Z" fill="#D3766A"/>
<path d="M222.85 126.627C224.405 130.473 225.749 131.892 229.063 134.279C229.125 134.326 229.063 134.429 229.002 134.388C225.544 132.342 223.601 130.814 222.659 126.695C222.612 126.49 222.775 126.449 222.85 126.627Z" fill="#263238"/>
<path d="M219.324 129.171C221.289 133.024 222.734 134.572 226.022 137.355C226.069 137.395 226.022 137.477 225.96 137.443C222.509 135.008 220.6 133.44 219.14 129.327C219.079 129.116 219.236 128.993 219.324 129.171Z" fill="#263238"/>
<path d="M215.983 132.635C218.151 136.229 219.665 137.996 223.198 140.26C223.207 140.265 223.216 140.271 223.222 140.279C223.229 140.287 223.234 140.296 223.237 140.306C223.24 140.315 223.241 140.326 223.239 140.336C223.238 140.346 223.235 140.356 223.23 140.365C223.225 140.374 223.218 140.381 223.209 140.388C223.201 140.394 223.192 140.398 223.182 140.4C223.172 140.403 223.161 140.403 223.151 140.401C223.141 140.399 223.132 140.395 223.123 140.39C219.297 138.432 217.394 136.25 215.88 132.71C215.778 132.472 215.846 132.41 215.983 132.635Z" fill="#263238"/>
<path d="M243.365 138.596C243.365 138.596 241.694 133.672 240.48 131.673C239.266 129.675 232.01 123.885 230.666 125.379C228.941 127.315 232.473 131.482 234.472 133.297C234.472 133.297 230.462 137.764 232.351 141.303C234.24 144.843 243.365 138.596 243.365 138.596Z" fill="#D3766A"/>
<path d="M230.366 126.068C230.059 128.966 232.835 131.183 234.642 133.085C234.67 133.113 234.691 133.146 234.704 133.184C234.716 133.221 234.72 133.26 234.714 133.299C234.708 133.338 234.692 133.374 234.669 133.406C234.646 133.438 234.616 133.463 234.581 133.481C233.026 135.466 231.409 138.712 232.194 141.256C232.2 141.271 232.2 141.288 232.194 141.304C232.187 141.319 232.175 141.331 232.16 141.338C232.144 141.344 232.127 141.344 232.112 141.337C232.096 141.331 232.084 141.319 232.078 141.303C230.871 138.691 232.201 135.363 234.042 133.297C232.153 131.374 229.473 129.034 230.339 126.061C230.346 126.047 230.366 126.047 230.366 126.068Z" fill="#263238"/>
<path d="M245.09 138.179L231.655 154.813C231.655 154.813 249.503 164.402 254.161 163.529C258.819 162.656 264.562 158.619 276.128 145.361C285.288 134.865 278.045 134.776 272.329 137.641C267.665 139.98 255.818 145.327 254.877 144.911C253.936 144.495 245.09 138.179 245.09 138.179Z" fill="#3398DB"/>
<path d="M231.655 154.814C231.655 154.814 247.798 163.489 253.37 163.591C253.63 163.592 253.89 163.574 254.147 163.537C258.792 162.657 264.548 158.62 276.121 145.362C280.172 140.717 281.011 138.112 280.213 136.891C279.177 135.363 275.521 136.039 272.329 137.641C267.671 139.981 255.818 145.327 254.877 144.911C253.936 144.495 245.111 138.18 245.111 138.18L231.655 154.814Z" fill="#3398DB"/>
<path d="M247.948 141.433C246.127 144.011 244.19 146.507 242.199 148.935C241.223 150.142 240.248 151.342 239.225 152.508C238.202 153.675 237.029 154.868 235.972 156.089C235.924 156.144 235.836 156.089 235.883 156.021C236.893 154.773 237.82 153.45 238.802 152.181C239.784 150.913 240.732 149.767 241.708 148.56C243.692 146.111 245.697 143.663 247.764 141.276C247.774 141.264 247.787 141.254 247.801 141.247C247.815 141.239 247.83 141.235 247.846 141.234C247.862 141.233 247.878 141.234 247.893 141.239C247.908 141.244 247.922 141.252 247.934 141.262C247.946 141.273 247.956 141.285 247.964 141.299C247.971 141.313 247.975 141.329 247.976 141.345C247.978 141.361 247.976 141.376 247.971 141.392C247.966 141.407 247.958 141.421 247.948 141.433Z" fill="#263238"/>
<path d="M264.05 168.297L263.62 177.32C263.62 177.32 274.246 178.486 300.523 178.486C300.523 178.486 294.979 150.443 286.085 140.001C281.639 134.777 276.169 134.941 272.554 138.33C271.641 139.128 263.17 153.355 261.888 158.613C260.715 163.244 264.05 168.297 264.05 168.297Z" fill="#3398DB"/>
<path d="M274.3 141.249L272.118 147.994C271.395 150.267 270.713 152.541 270.072 154.814C269.472 157.092 268.708 159.383 269.172 161.634C269.567 163.932 270.428 166.126 271.702 168.079L271.757 168.168V168.263C271.675 169.845 271.538 171.428 271.436 173.037C271.334 174.647 271.177 176.202 271.02 177.811C271.02 176.22 271.02 174.628 271.02 173.037C271.061 171.448 271.068 169.859 271.136 168.263L271.184 168.447C269.831 166.427 268.903 164.153 268.456 161.764C268.255 160.55 268.288 159.309 268.551 158.108C268.797 156.935 269.11 155.782 269.445 154.637C270.127 152.352 270.904 150.108 271.702 147.871C272.5 145.634 273.393 143.445 274.3 141.249Z" fill="#263238"/>
<path d="M269.206 150.176C269.191 150.252 269.191 150.329 269.207 150.404C269.222 150.479 269.252 150.551 269.295 150.614C269.339 150.678 269.394 150.732 269.458 150.774C269.522 150.816 269.594 150.844 269.67 150.858C269.742 150.865 269.814 150.857 269.883 150.835C269.952 150.813 270.015 150.777 270.07 150.73C270.125 150.683 270.169 150.625 270.201 150.561C270.233 150.496 270.252 150.426 270.256 150.354C270.282 150.202 270.249 150.046 270.162 149.919C270.076 149.792 269.943 149.703 269.792 149.672C269.721 149.665 269.648 149.673 269.579 149.695C269.511 149.717 269.447 149.753 269.392 149.8C269.338 149.847 269.293 149.904 269.261 149.969C269.229 150.034 269.21 150.104 269.206 150.176Z" fill="#263238"/>
<path d="M267.112 156.778C267.088 156.93 267.122 157.085 267.208 157.212C267.295 157.338 267.426 157.427 267.576 157.46C267.648 157.468 267.722 157.461 267.791 157.439C267.861 157.417 267.925 157.382 267.98 157.335C268.036 157.288 268.081 157.23 268.114 157.165C268.146 157.099 268.165 157.028 268.169 156.956C268.197 156.804 268.164 156.647 268.078 156.519C267.991 156.392 267.857 156.303 267.706 156.274C267.633 156.267 267.56 156.275 267.491 156.297C267.422 156.319 267.358 156.355 267.303 156.401C267.248 156.448 267.202 156.506 267.17 156.571C267.137 156.635 267.117 156.706 267.112 156.778Z" fill="#263238"/>
<path d="M267.112 163.414C267.084 163.565 267.117 163.722 267.204 163.85C267.291 163.978 267.425 164.066 267.576 164.096C267.648 164.103 267.722 164.096 267.791 164.074C267.861 164.053 267.925 164.017 267.981 163.97C268.036 163.923 268.081 163.865 268.114 163.8C268.146 163.735 268.165 163.664 268.169 163.591C268.184 163.516 268.184 163.438 268.169 163.363C268.153 163.288 268.123 163.216 268.08 163.153C268.037 163.09 267.982 163.035 267.917 162.993C267.853 162.952 267.781 162.923 267.706 162.909C267.633 162.9 267.559 162.907 267.49 162.928C267.42 162.949 267.355 162.985 267.299 163.032C267.243 163.079 267.198 163.138 267.166 163.203C267.134 163.269 267.116 163.341 267.112 163.414Z" fill="#263238"/>
<path d="M269.206 168.808C269.19 168.884 269.19 168.961 269.205 169.037C269.22 169.112 269.25 169.184 269.293 169.248C269.336 169.311 269.392 169.366 269.457 169.407C269.521 169.449 269.594 169.477 269.67 169.49C269.742 169.498 269.815 169.49 269.884 169.469C269.953 169.447 270.017 169.412 270.072 169.364C270.127 169.317 270.171 169.259 270.203 169.194C270.235 169.129 270.253 169.058 270.256 168.985C270.271 168.91 270.271 168.833 270.255 168.758C270.24 168.682 270.21 168.611 270.167 168.548C270.124 168.484 270.068 168.43 270.004 168.388C269.94 168.346 269.868 168.317 269.793 168.303C269.721 168.297 269.648 168.305 269.579 168.327C269.511 168.349 269.447 168.385 269.392 168.432C269.338 168.479 269.293 168.536 269.261 168.601C269.229 168.666 269.21 168.736 269.206 168.808Z" fill="#263238"/>
<path d="M268.763 174.817C268.748 174.892 268.748 174.97 268.763 175.045C268.779 175.12 268.809 175.191 268.852 175.255C268.895 175.318 268.95 175.372 269.015 175.414C269.079 175.456 269.151 175.485 269.226 175.499C269.298 175.505 269.371 175.497 269.439 175.475C269.508 175.453 269.572 175.418 269.626 175.371C269.681 175.324 269.726 175.266 269.758 175.201C269.79 175.137 269.809 175.066 269.813 174.994C269.828 174.919 269.827 174.841 269.812 174.766C269.797 174.691 269.767 174.62 269.723 174.556C269.68 174.493 269.625 174.439 269.561 174.397C269.497 174.355 269.425 174.326 269.349 174.312C269.277 174.304 269.204 174.31 269.134 174.331C269.065 174.353 269 174.388 268.945 174.436C268.89 174.483 268.845 174.542 268.814 174.607C268.782 174.673 268.765 174.744 268.763 174.817Z" fill="#263238"/>
<path d="M267.296 146.8C266.403 148.308 265.571 149.849 264.753 151.397C264.957 150.667 265.196 149.944 265.435 149.228C265.435 149.174 265.366 149.14 265.339 149.194C264.924 150.058 264.634 150.976 264.48 151.922C264.214 152.427 263.948 152.925 263.689 153.429C263.184 154.446 262.666 155.475 262.263 156.505C261.86 157.566 261.63 158.685 261.581 159.82C261.581 159.874 261.677 159.888 261.684 159.82C261.874 158.673 262.233 157.561 262.748 156.519C263.204 155.475 263.716 154.473 264.214 153.429C265.285 151.24 266.342 149.044 267.344 146.828L267.296 146.8Z" fill="#263238"/>
<path d="M286.72 141.44C292.476 151.404 302.638 171.891 299.234 177.586C295.831 183.28 276.687 186.868 270.14 188.054C267.978 188.436 260.197 173.05 262.338 172.123C265.973 170.513 283.255 167.349 283.807 166.21C284.148 165.473 280.766 152.045 280.363 144.154C279.845 133.89 284.933 138.343 286.72 141.44Z" fill="#D3766A"/>
<path d="M264.227 171.482C264.227 171.482 257.407 172.43 253.015 173.255C250.553 173.719 246.4 174.885 244.749 176.051C242.274 177.797 233.039 186.677 235.147 188.962C237.05 191.008 244.013 182.394 244.013 182.394C244.013 182.394 236.218 190.489 238.966 192.556C241.714 194.622 248.289 183.826 248.289 183.826C248.289 183.826 240.466 192.317 243.638 194.002C246.038 195.277 252.545 185.818 252.545 185.818C252.545 185.818 245.868 193.17 248.282 194.581C250.942 196.15 257.496 187.802 257.496 187.802C264.227 190.367 268.49 188.832 271.388 187.386C272.118 187.038 264.227 171.482 264.227 171.482Z" fill="#D3766A"/>
<path d="M246.53 179.421C245.582 180.341 244.613 181.262 243.747 182.265C242.881 183.267 242.049 184.311 241.285 185.368C240.249 186.752 239.378 188.251 238.687 189.835C240.119 187.107 243.167 183.492 244.033 182.49C244.9 181.487 245.711 180.444 246.57 179.455C246.591 179.428 246.557 179.4 246.53 179.421Z" fill="#263238"/>
<path d="M250.199 182.483C249.032 183.71 247.832 184.883 246.727 186.159C245.622 187.434 244.681 188.73 243.672 190.066C243.59 190.176 243.672 190.182 243.754 190.066C244.824 188.764 245.909 187.645 246.993 186.356C248.078 185.067 249.101 183.737 250.226 182.496C250.246 182.489 250.212 182.462 250.199 182.483Z" fill="#263238"/>
<path d="M253.813 184.542C251.985 186.378 250.348 188.396 248.93 190.565C248.862 190.674 248.964 190.674 249.046 190.565C250.628 188.519 251.863 186.93 253.875 184.611C253.909 184.577 253.854 184.508 253.813 184.542Z" fill="#263238"/>
<path d="M263.614 171.182L277.417 188.232C277.417 188.232 297.4 183.649 300.244 176.836C303.088 170.022 293.424 150.865 288.125 142.933C282.825 135.002 279.422 135.199 280.043 144.297C280.602 152.434 283.617 165.521 283.303 165.964C282.989 166.408 263.614 171.182 263.614 171.182Z" fill="#3398DB"/>
<path d="M268.831 170.841C270.979 173.146 273.025 175.56 275.017 178.002C275.992 179.202 276.967 180.409 277.901 181.644C278.836 182.878 279.763 184.276 280.739 185.558C280.786 185.62 280.698 185.688 280.657 185.634C279.64 184.392 278.536 183.212 277.499 181.992C276.462 180.771 275.521 179.605 274.546 178.411C272.548 175.963 270.563 173.501 268.653 170.991C268.634 170.967 268.624 170.937 268.626 170.906C268.629 170.876 268.644 170.847 268.667 170.827C268.691 170.807 268.721 170.798 268.752 170.8C268.782 170.803 268.811 170.817 268.831 170.841Z" fill="#263238"/>
<path d="M263.573 171.182C265.114 171.059 283.439 166.36 283.46 166.353C283.48 166.346 282.573 160.536 282.376 159.438C281.987 157.201 281.55 154.964 281.066 152.74C281.066 152.693 280.964 152.693 280.971 152.74C281.08 154.104 281.23 155.468 281.407 156.791C281.202 156.212 280.984 155.625 280.725 155.059C280.725 155.005 280.623 155.059 280.636 155.059C280.943 156.205 281.318 157.337 281.639 158.469C281.687 158.762 281.714 159.063 281.762 159.363C281.946 160.488 282.144 161.613 282.362 162.725C282.464 163.277 282.887 165.412 282.989 165.985C280.555 166.462 264.957 170.493 263.539 171.038C263.498 171.066 263.518 171.182 263.573 171.182Z" fill="#263238"/>
<path d="M300.216 176.931C299.973 177.466 299.648 177.961 299.255 178.398C299.2 178.446 299.255 178.459 299.337 178.398C299.786 178.025 300.104 177.519 300.244 176.952C300.244 176.931 300.23 176.897 300.216 176.931Z" fill="#263238"/>
<path d="M280.595 137.403C280.486 138.085 277.567 142.77 274.457 142.859C273.441 142.859 273.039 137.328 273.039 137.328L272.916 136.925L271.197 131.271L277.615 126.429L278.549 125.781C278.549 125.781 278.918 127.357 279.361 129.328C279.361 129.416 279.402 129.505 279.422 129.607C279.443 129.71 279.477 129.819 279.497 129.928L279.702 130.814C279.75 131.046 279.797 131.265 279.838 131.496C279.879 131.728 279.934 131.974 279.981 132.178C280.304 133.904 280.509 135.649 280.595 137.403Z" fill="#D3766A"/>
<path d="M279.341 129.334C278.881 130.992 278.067 132.53 276.954 133.842C275.841 135.154 274.456 136.208 272.896 136.932L271.177 131.278L277.595 126.436L278.529 125.788C278.529 125.788 278.897 127.364 279.341 129.334Z" fill="#263238"/>
<path d="M262.85 121.819C261.554 132.103 267.569 134.033 269.786 134.313C271.798 134.565 278.686 135.159 281.039 125.065C283.392 114.972 278.993 111.118 274.437 110.3C269.881 109.481 264.139 111.527 262.85 121.819Z" fill="#D3766A"/>
<path d="M264.957 119.104C265.203 119.104 265.435 119.063 265.68 119.043C265.935 119.055 266.186 118.983 266.396 118.838C266.454 118.78 266.491 118.704 266.501 118.622C266.511 118.541 266.493 118.458 266.451 118.388C266.348 118.261 266.212 118.164 266.058 118.107C265.905 118.051 265.739 118.037 265.578 118.067C265.243 118.075 264.922 118.207 264.678 118.436C264.625 118.491 264.589 118.561 264.575 118.637C264.561 118.712 264.569 118.79 264.599 118.861C264.629 118.932 264.678 118.993 264.742 119.036C264.806 119.079 264.88 119.103 264.957 119.104Z" fill="#263238"/>
<path d="M271.777 120.032C271.545 119.97 271.317 119.893 271.095 119.8C270.833 119.757 270.593 119.627 270.413 119.432C270.372 119.361 270.355 119.278 270.366 119.196C270.377 119.115 270.415 119.039 270.475 118.982C270.604 118.882 270.758 118.82 270.921 118.802C271.083 118.784 271.247 118.811 271.395 118.879C271.72 118.963 272.001 119.168 272.18 119.452C272.214 119.517 272.23 119.589 272.226 119.662C272.222 119.735 272.198 119.806 272.156 119.866C272.115 119.926 272.057 119.973 271.99 120.002C271.923 120.032 271.85 120.042 271.777 120.032Z" fill="#263238"/>
<path d="M269.901 122.453C269.901 122.453 269.949 122.494 269.949 122.521C269.82 123.203 269.799 124.042 270.399 124.37C270.399 124.37 270.399 124.417 270.399 124.41C269.629 124.185 269.67 123.094 269.901 122.453Z" fill="#263238"/>
<path d="M270.638 121.812C271.777 121.887 271.538 124.171 270.475 124.096C269.411 124.021 269.677 121.743 270.638 121.812Z" fill="#263238"/>
<path d="M271.075 121.976C271.259 122.126 271.429 122.378 271.668 122.426C271.907 122.474 272.173 122.269 272.384 122.058H272.418C272.377 122.501 272.159 122.931 271.688 122.944C271.218 122.958 271.006 122.535 270.924 122.085C270.911 122.03 271 121.921 271.075 121.976Z" fill="#263238"/>
<path d="M265.98 121.853C265.98 121.853 265.919 121.853 265.919 121.908C265.871 122.59 265.701 123.422 265.032 123.592V123.633C265.857 123.599 266.076 122.528 265.98 121.853Z" fill="#263238"/>
<path d="M265.448 121.048C264.323 120.85 264.002 123.094 265.053 123.305C266.103 123.517 266.396 121.218 265.448 121.048Z" fill="#263238"/>
<path d="M264.957 121.137C264.759 121.232 264.548 121.423 264.337 121.409C264.125 121.396 263.934 121.116 263.811 120.864C263.811 120.864 263.777 120.864 263.771 120.864C263.696 121.293 263.771 121.764 264.187 121.907C264.603 122.05 264.869 121.703 265.046 121.287C265.08 121.225 265.032 121.096 264.957 121.137Z" fill="#263238"/>
<path d="M269.233 128.086C269.049 128.243 268.872 128.461 268.612 128.468C268.349 128.449 268.093 128.372 267.862 128.243C267.862 128.243 267.814 128.243 267.828 128.277C267.92 128.424 268.049 128.542 268.203 128.62C268.357 128.698 268.529 128.733 268.701 128.721C268.847 128.691 268.982 128.619 269.088 128.514C269.193 128.408 269.265 128.274 269.294 128.127C269.296 128.12 269.294 128.112 269.291 128.105C269.288 128.098 269.283 128.092 269.277 128.087C269.27 128.083 269.263 128.081 269.255 128.081C269.247 128.08 269.24 128.082 269.233 128.086Z" fill="#263238"/>
<path d="M266.587 125.188C266.452 125.693 266.343 126.206 266.26 126.722C266.26 126.77 266.369 126.804 266.539 126.838C266.957 126.966 267.401 126.976 267.824 126.869C268.247 126.762 268.633 126.542 268.94 126.231C268.981 126.184 268.94 126.129 268.872 126.149C268.189 126.508 267.409 126.635 266.648 126.511C266.648 126.368 267.167 124.751 267.092 124.738C266.702 124.728 266.312 124.769 265.932 124.86C266.43 122.685 267.296 120.612 267.746 118.436C267.746 118.361 267.651 118.32 267.624 118.388C266.647 120.58 265.893 122.865 265.373 125.208C265.298 125.488 266.376 125.249 266.587 125.188Z" fill="#263238"/>
<path d="M266.662 126.715C266.895 127.139 267.234 127.496 267.644 127.752C267.87 127.886 268.133 127.944 268.394 127.915C268.967 127.861 269.076 127.356 269.022 126.906C269 126.674 268.952 126.445 268.879 126.224C268.211 126.621 267.434 126.793 266.662 126.715Z" fill="#263238"/>
<path d="M267.644 127.752C267.87 127.887 268.133 127.944 268.394 127.916C268.967 127.861 269.076 127.357 269.022 126.907C268.731 126.873 268.437 126.938 268.187 127.091C267.937 127.245 267.746 127.477 267.644 127.752Z" fill="#FF9ABB"/>
<path d="M280.711 124.505C278.774 124.799 278.181 120.373 278.181 120.373C278.181 120.373 269.895 119.159 269.042 112.455C268.064 115.215 266.058 117.492 263.443 118.811C263.443 118.811 263.566 111.438 269.37 109.87C269.37 109.87 276.558 107.067 280.766 112.727C284.974 118.388 282.007 124.315 280.711 124.505Z" fill="#263238"/>
<path d="M269.001 111.964C268.925 113.002 269.074 114.044 269.438 115.019C269.788 116.015 270.34 116.928 271.061 117.699C271.24 117.892 271.429 118.074 271.627 118.245L271.92 118.504C272.023 118.586 272.132 118.661 272.241 118.736C272.459 118.879 272.671 119.036 272.889 119.173L273.571 119.534L273.919 119.705L274.287 119.834L275.017 120.093C275.521 120.223 276.026 120.325 276.531 120.421C276.053 120.223 275.562 120.08 275.098 119.882L274.416 119.561L274.075 119.404L273.748 119.214L273.1 118.825C272.896 118.688 272.698 118.532 272.5 118.381L272.2 118.156L271.927 117.904C271.738 117.741 271.56 117.566 271.395 117.379C270.714 116.648 270.163 115.806 269.765 114.89C269.562 114.428 269.395 113.952 269.267 113.464C269.135 112.973 269.046 112.471 269.001 111.964Z" fill="#263238"/>
<path d="M279.307 124.71C279.307 124.71 281.687 121.566 283.126 122.426C284.565 123.285 282.682 127.882 280.93 128.489C280.711 128.578 280.476 128.622 280.24 128.617C280.004 128.613 279.771 128.561 279.555 128.464C279.34 128.367 279.146 128.227 278.986 128.053C278.826 127.879 278.703 127.675 278.625 127.452L279.307 124.71Z" fill="#D3766A"/>
<path d="M282.553 123.742C282.553 123.742 282.587 123.776 282.553 123.783C281.325 124.226 280.65 125.324 280.159 126.47C280.233 126.352 280.332 126.251 280.449 126.174C280.566 126.098 280.698 126.048 280.836 126.028C280.974 126.008 281.115 126.018 281.249 126.058C281.383 126.098 281.507 126.166 281.611 126.259C281.646 126.259 281.611 126.327 281.577 126.32C281.367 126.247 281.139 126.239 280.925 126.299C280.71 126.359 280.519 126.483 280.377 126.654C280.143 126.942 279.941 127.256 279.777 127.589C279.716 127.698 279.518 127.63 279.565 127.507C279.62 125.938 280.895 123.831 282.553 123.742Z" fill="#263238"/>
<path d="M272.834 136.748L274.382 141.522L280.52 136.066L282.028 138.057C282.028 138.057 275.76 146.985 275.753 146.562L274.116 142.436L271.177 145.027L271.859 138.071L272.834 136.748Z" fill="#3398DB"/>
<path d="M271.341 141.542C271.491 140.396 271.614 139.237 271.818 138.132C271.818 138.091 271.893 138.078 271.9 138.132C272.057 139.257 271.443 143.629 271.375 144.686C271.498 144.577 274.103 142.422 274.103 142.456C274.478 143.138 275.678 146.125 275.753 146.391C276.749 144.973 280.923 139.401 282.069 138.071C282.103 138.071 282.164 138.071 282.137 138.119C281.243 139.626 275.842 146.985 275.774 146.985C275.126 145.564 274.554 144.109 274.062 142.627C273.097 143.615 272.068 144.538 270.979 145.389C271.029 144.101 271.15 142.817 271.341 141.542Z" fill="#263238"/>
<path d="M47.74 229.753C47.9032 226.933 48.3002 224.132 48.9266 221.378C49.4249 218.841 50.4444 216.435 51.9206 214.312C52.6078 213.344 53.481 212.522 54.4891 211.894C55.4973 211.266 56.6203 210.846 57.7926 210.657C60.091 210.37 62.2461 211.393 63.9306 212.846C66.0585 214.639 67.6953 217.013 69.223 219.311C70.9013 221.888 72.427 224.562 73.7924 227.318C73.8023 227.336 73.8047 227.357 73.7989 227.377C73.7931 227.397 73.7798 227.414 73.7617 227.424C73.7436 227.434 73.7223 227.436 73.7025 227.43C73.6826 227.424 73.6659 227.411 73.656 227.393C72.4703 225.056 71.1021 222.817 69.564 220.696C68.164 218.662 66.587 216.757 64.8513 215.001C63.2759 213.46 61.2708 212.021 58.9861 211.946C57.8652 211.957 56.7623 212.23 55.7654 212.742C54.7685 213.255 53.905 213.993 53.2437 214.899C51.716 216.863 50.9317 219.311 50.352 221.719C49.748 224.343 49.3535 227.011 49.1722 229.698C48.722 235.215 48.5993 240.774 48.4902 246.305C48.4447 249.419 48.422 252.543 48.422 255.675C48.422 257.264 48.422 258.847 48.422 260.449C48.4802 261.982 48.4187 263.516 48.2378 265.039C48.1833 265.346 47.6786 265.319 47.6308 265.039C47.4443 263.597 47.3736 262.142 47.4194 260.688C47.4194 259.188 47.4012 257.683 47.3649 256.173C47.3376 253.254 47.3262 250.331 47.3308 247.403C47.2967 241.503 47.3649 235.611 47.74 229.753Z" fill="#263238"/>
<path d="M55.6512 225.592C55.9445 224.03 56.4696 221.998 57.363 220.818C58.9589 218.642 60.6844 219.59 59.0885 221.998C57.9107 223.783 57.1443 225.807 56.8447 227.925C56.8447 227.925 59.5318 231.764 62.7713 233.653C62.6349 232.18 62.2189 229.909 62.5053 227.72C63.1259 222.98 65.9971 223.246 65.2879 227.038C64.7596 229.541 64.5306 232.098 64.6059 234.656C65.6894 235.357 66.8524 235.927 68.0704 236.354C67.8863 235.802 67.6885 235.147 67.4703 234.308C66.3177 230.059 69.148 228.736 69.2435 231.123C69.4232 233.162 69.7908 235.18 70.3415 237.152C71.8964 237.677 73.1854 238.032 73.9765 238.311C76.0177 239.068 77.842 240.314 79.2893 241.94C80.7684 240.608 81.9952 239.021 82.9107 237.254C81.9218 236.402 80.3532 235.133 78.1845 233.606C74.0925 230.728 75.5247 227.092 78.7574 229.35C81.0898 230.98 82.8971 234.001 83.7155 235.549C84.8206 232.85 85.4461 229.979 85.5637 227.065C82.3651 224.064 74.4471 219.877 76.8341 219.877C78.9824 219.877 83.7837 223.028 85.5501 224.242C85.5023 223.415 85.4112 222.59 85.2773 221.773C82.2628 219.795 72.4693 216.726 74.0311 215.839C75.7429 214.871 82.5766 218.036 84.643 219.038C84.2565 217.695 83.6454 216.427 82.8357 215.287C78.6687 209.708 71.1599 207.785 67.8795 208.856C65.5607 209.606 66.2427 215.485 65.7448 215.287C56.4628 211.516 52.2276 214.148 55.6512 225.592ZM78.4846 224.951C79.1666 224.153 82.2015 226.499 81.3149 227.781C80.4283 229.063 77.6321 225.974 78.4846 224.951ZM62.5121 219.931C63.3169 220.443 62.1302 223.416 60.889 222.516C59.8319 221.746 61.7005 219.413 62.5121 219.931Z" fill="#00CA00"/>
<path d="M63.733 220.845C64.149 220.013 64.5923 219.188 65.097 218.383C65.5388 217.593 66.0549 216.846 66.6383 216.153L66.2359 215.662C66.1814 215.601 66.2768 215.505 66.3382 215.573L66.7883 216.112C66.8195 216.128 66.8437 216.155 66.8565 216.187C67.4294 216.869 67.975 217.592 68.4933 218.315C69.4179 218.52 70.3289 218.782 71.2213 219.099C72.1352 219.406 73.0423 219.72 73.9493 220.095C74.0448 220.136 73.9971 220.286 73.9084 220.245C73.0286 219.856 72.1352 219.481 71.2213 219.174C70.3075 218.867 69.4822 218.656 68.6093 218.41C68.8889 218.813 69.1685 219.215 69.4413 219.624C71.0815 220.148 72.6778 220.8 74.2153 221.575C75.8317 222.346 77.3866 223.239 78.9348 224.132C78.9478 224.145 78.9562 224.162 78.9585 224.18C78.9608 224.199 78.9569 224.217 78.9475 224.233C78.938 224.249 78.9236 224.261 78.9064 224.267C78.8893 224.274 78.8704 224.274 78.8529 224.269C77.332 223.379 75.7658 222.568 74.1608 221.841C72.6604 221.159 71.1122 220.559 69.5982 219.89C73.4037 225.831 75.6816 232.678 78.7302 239.021C78.7779 239.109 78.6347 239.184 78.5938 239.096C77.6662 236.872 76.5887 234.703 75.5793 232.514C74.6654 230.55 73.7788 228.579 72.8513 226.615C72.5876 226.042 72.3148 225.469 72.0329 224.896C72.2034 228.068 72.1352 231.287 72.6535 234.444C72.6572 234.457 72.6579 234.469 72.6557 234.482C72.6535 234.495 72.6483 234.506 72.6407 234.517C72.6331 234.527 72.6232 234.535 72.6118 234.541C72.6004 234.547 72.5879 234.55 72.5751 234.55C72.5624 234.55 72.5498 234.547 72.5384 234.541C72.527 234.535 72.5171 234.527 72.5095 234.517C72.5019 234.506 72.4967 234.495 72.4945 234.482C72.4923 234.469 72.493 234.457 72.4967 234.444C72.2784 231.034 71.6783 227.727 71.7056 224.317C71.7056 224.317 71.7056 224.317 71.7056 224.276C71.0236 222.98 70.3416 221.698 69.6596 220.456C68.3979 223.423 67.0748 226.438 66.4883 229.623C66.4883 229.718 66.3109 229.677 66.3382 229.575C67.1907 226.383 67.9887 223.184 69.5232 220.231C68.717 218.888 67.824 217.598 66.8497 216.371C66.4269 217.162 65.8813 217.906 65.4039 218.656C64.9265 219.406 64.4695 220.136 64.0399 220.893C63.1031 222.497 62.3068 224.178 61.6597 225.919C61.6597 226.022 61.4687 225.967 61.5097 225.878C62.1644 224.18 62.9009 222.482 63.733 220.845Z" fill="#263238"/>
<path d="M33.7453 228.061C36.1868 225.613 39.024 222.4 42.7954 222.407C46.4373 222.407 49.1176 225.347 50.6589 228.368C52.2684 231.532 52.8481 235.113 53.2982 238.598C53.832 242.771 54.1553 246.968 54.2667 251.174C54.3349 253.506 54.3212 255.846 54.2667 258.178C54.2683 260.546 54.0882 262.91 53.7279 265.25C53.6597 265.626 53.0459 265.639 53.0459 265.25C52.9368 263.28 53.0459 261.309 53.0459 259.338C53.0459 257.367 53.0459 255.464 52.9572 253.527C52.814 249.612 52.5276 245.698 52.0706 241.803C51.6682 238.393 51.3477 234.908 50.3315 231.628C49.4108 228.661 47.6922 225.272 44.6914 223.969C40.5994 222.196 36.5892 225.442 33.9021 228.184C33.7998 228.232 33.6771 228.129 33.7453 228.061Z" fill="#263238"/>
<path d="M21.2988 233.53C21.2988 234.028 21.3466 234.526 21.3807 235.003C22.5555 234.129 23.9286 233.56 25.3772 233.346C28.8417 232.978 28.6235 235.617 26.3047 235.726C24.6684 235.744 23.0496 236.065 21.5307 236.674C22.0968 241.25 23.3585 244.926 23.5426 244.981C26.63 244.809 29.7017 244.424 32.736 243.828C31.8766 241.994 29.9193 239.552 30.915 239.354C31.9107 239.156 33.0088 241.332 33.5612 243.665C35.8249 243.23 38.0507 242.616 40.2175 241.83C38.6966 240.514 36.3437 238.87 37.244 238.168C38.1442 237.465 40.0129 239.784 41.1314 241.462C42.1516 241.045 43.118 240.507 44.0094 239.859C41.9634 236.838 36.9507 236.224 37.6054 234.048C38.2602 231.873 42.9387 234.887 45.0392 238.925C47.5081 236.367 48.231 232.746 47.9718 229.649C45.8235 229.397 41.6838 229.854 41.9839 228.285C42.284 226.717 45.2711 227.037 47.7195 227.938C47.4938 226.711 47.0052 225.548 46.2873 224.528C44.0163 221.622 37.1008 225.319 37.1008 225.319C37.1008 225.319 37.8441 218.369 35.2048 217.169C33.6839 216.487 31.0037 216.487 28.3098 218.069C29.8238 218.192 31.6448 218.669 32.4018 219.72C33.3429 221.084 31.863 221.766 30.9218 221.165C30.2398 220.729 29.0259 219.351 26.7889 219.174C25.8369 219.966 24.9972 220.883 24.2928 221.902C24.0405 222.257 23.8018 222.638 23.5631 223.048C24.8403 222.475 26.2281 222.192 27.6275 222.218C29.0269 222.244 30.4033 222.578 31.6584 223.198C34.6592 224.684 32.9815 227.801 30.4035 226.608C27.8256 225.414 25.3704 224.207 22.6355 224.896C21.6726 227.361 21.2246 229.998 21.3193 232.643C22.6566 231.669 24.1615 230.947 25.7591 230.516C28.7394 229.731 29.6397 231.511 26.3661 231.845C24.5793 232.053 22.8544 232.627 21.2988 233.53ZM24.9202 228.756C24.7156 227.794 26.8298 227.515 27.1845 228.299C27.4777 228.954 25.1248 229.711 24.9202 228.742V228.756ZM43.0069 234.103C43.2047 233.578 44.6232 234.178 44.4936 234.833C44.33 235.699 42.8159 234.608 43.0069 234.089V234.103ZM33.0224 237.513C34.0522 237.104 35.6617 239.661 34.5433 240.241C33.4248 240.821 32.1835 237.82 33.0224 237.479V237.513Z" fill="#00CA00"/>
<path d="M23.9722 244.456C25.5204 241.858 27.0549 239.253 28.6917 236.702C29.4487 235.515 30.2466 234.349 31.0719 233.21C30.9491 233.21 30.8195 233.142 30.7036 233.121L30.083 232.999C29.6056 232.917 29.1213 232.849 28.6439 232.801C28.1665 232.753 27.7369 232.733 27.2799 232.726C26.7922 232.696 26.3026 232.721 25.8205 232.801C25.7591 232.801 25.7523 232.719 25.8205 232.726C26.3047 232.726 26.8025 232.678 27.2936 232.671C27.7846 232.664 28.2347 232.671 28.7053 232.671C29.1759 232.671 29.5919 232.739 30.0284 232.808L30.7513 232.937C30.8945 232.937 31.0446 232.985 31.1878 233.026C32.0267 231.873 32.8996 230.734 33.8067 229.616C31.1186 228.3 28.254 227.381 25.3021 226.888C25.2544 226.888 25.3021 226.799 25.3021 226.806C28.2971 227.223 31.2082 228.106 33.9294 229.425L35.4639 227.665C36.03 226.983 36.6302 226.301 37.1348 225.619C37.1689 225.572 37.2371 225.619 37.203 225.667C36.5019 226.435 35.8439 227.241 35.2321 228.081C36.3398 228.856 37.3947 229.704 38.3897 230.618C39.4264 231.528 40.4334 232.473 41.411 233.456C41.4519 233.49 41.411 233.551 41.3564 233.517C40.388 232.548 39.3854 231.635 38.3352 230.789C37.2849 229.943 36.18 229.111 35.1298 228.252C34.8911 228.566 34.6524 228.886 34.4068 229.2L34.0454 229.677V229.711L32.8382 231.294C33.3095 231.975 33.7116 232.701 34.0386 233.462C34.3864 234.192 34.7206 234.949 34.9661 235.713C35.5237 237.298 35.9569 238.924 36.2619 240.576C36.2619 240.63 36.2005 240.651 36.1869 240.576C35.8569 238.946 35.3845 237.349 34.7751 235.802C34.475 235.011 34.1272 234.233 33.7726 233.462C33.4179 232.692 33.0906 232.098 32.7564 231.375C32.4086 231.839 32.0744 232.303 31.7198 232.739L31.4333 233.149C31.4429 233.159 31.4483 233.172 31.4483 233.186C31.4483 233.2 31.4429 233.214 31.4333 233.224C30.3694 234.717 29.3532 236.245 28.3643 237.786C28.4248 237.891 28.4707 238.003 28.5007 238.12C28.5621 238.311 28.6235 238.496 28.678 238.687C28.7872 239.068 28.8758 239.457 28.9508 239.846C29.0259 240.235 29.0668 240.582 29.1009 240.951C29.1084 241.371 29.1403 241.79 29.1964 242.206C29.1964 242.274 29.1077 242.274 29.1213 242.206C29.1498 241.812 29.1199 241.417 29.0327 241.033C28.9781 240.629 28.903 240.228 28.8076 239.832C28.7258 239.478 28.6303 239.15 28.528 238.775C28.4734 238.598 28.4121 238.421 28.3575 238.25C28.3029 238.08 28.2757 238.059 28.2484 237.964C27.7846 238.687 27.3277 239.416 26.8844 240.146L24.2109 244.511C24.0404 244.599 23.9245 244.531 23.9722 244.456Z" fill="#263238"/>
<path d="M47.9241 264.405C47.965 262.932 48.1969 261.452 48.3606 259.985C48.5242 258.519 48.6879 257.046 48.8448 255.573C49.0411 252.715 49.4192 249.872 49.9769 247.062C50.4748 244.644 51.6808 242.429 53.4415 240.698C54.3601 239.785 55.5631 239.212 56.8515 239.075C58.1433 239.041 59.4106 239.432 60.4592 240.187C61.6498 241.066 62.675 242.149 63.4873 243.386C64.3702 244.605 65.1612 245.888 65.8539 247.225C65.8539 247.273 65.7993 247.307 65.772 247.259C64.4605 245.03 62.7223 243.081 60.657 241.524C59.7391 240.762 58.6171 240.288 57.4312 240.16C56.8502 240.152 56.2737 240.261 55.7351 240.479C55.1964 240.696 54.7066 241.019 54.294 241.428C52.6488 243.014 51.5017 245.045 50.9931 247.273C50.3913 249.863 49.963 252.49 49.7109 255.136C49.5063 256.691 49.3085 258.253 49.1039 259.808C48.8993 261.363 48.7698 262.945 48.4219 264.473C48.4003 264.526 48.3615 264.571 48.3116 264.6C48.2617 264.629 48.2036 264.641 48.1465 264.633C48.0893 264.625 48.0364 264.598 47.9961 264.557C47.9558 264.516 47.9305 264.462 47.9241 264.405Z" fill="#263238"/>
<path d="M55.1669 252.974C55.6207 253.591 56.1604 254.14 56.7696 254.604C56.5241 253.172 56.2308 250.621 56.9606 249.257C58.0859 247.15 59.4158 248.2 58.7474 250.035C58.0747 251.69 57.7073 253.453 57.6631 255.238C59.1941 256.201 60.836 256.975 62.553 257.544C62.3687 256.718 62.3135 255.869 62.3893 255.027C62.6144 252.77 64.3398 252.817 63.8965 255.163C63.7308 256.063 63.6509 256.977 63.6578 257.891C66.1495 258.658 68.6963 259.233 71.2758 259.61C72.592 257.9 73.6554 256.01 74.4334 253.997C72.592 253.533 68.8751 253.431 68.9774 252.115C69.0797 250.348 72.6875 251.712 74.7881 252.995C75.2729 251.452 75.4897 249.837 75.4291 248.221C73.7761 247.755 72.0767 247.474 70.3619 247.382C66.5836 247.054 66.7677 244.913 69.5094 244.961C71.5554 244.995 74.0856 246.236 75.2996 246.877C74.5085 241.735 70.587 238.441 67.4429 238.311C62.1506 238.1 64.0329 244.681 64.0329 244.681C64.0329 244.681 60.4524 242.158 57.0697 242.226C53.687 242.294 51.5523 247.941 55.1669 252.974ZM69.2911 243.474C69.1752 242.731 71.5349 242.553 71.6577 243.474C71.7941 244.558 69.4139 244.21 69.2911 243.474ZM73.0899 251.194C73.0421 250.71 74.0583 250.621 74.2902 251.235C74.4403 251.617 73.1308 251.658 73.0899 251.18V251.194ZM60.3911 251.658C61.189 251.767 61.6391 254.618 60.2683 254.563C59.2248 254.488 59.7159 251.535 60.3911 251.658Z" fill="#00CA00"/>
<path d="M61.4961 254.795C61.6256 254.44 61.7416 254.079 61.8507 253.717C61.7484 254.086 61.6597 254.454 61.5915 254.822C61.5879 254.835 61.5794 254.846 61.5679 254.852C61.5564 254.858 61.5428 254.86 61.5302 254.856C61.5175 254.853 61.5068 254.844 61.5004 254.833C61.494 254.821 61.4924 254.808 61.4961 254.795Z" fill="#263238"/>
<path d="M62.8872 250.212C63.1395 249.482 63.4123 248.759 63.6988 248.043C63.8488 247.661 64.0057 247.279 64.1762 246.904C64.2983 246.57 64.4561 246.25 64.6467 245.949C64.4815 245.653 64.3379 245.346 64.2171 245.029C64.2171 245.029 64.2171 244.974 64.2648 245.029C64.6527 245.53 64.9973 246.064 65.2946 246.625C65.4447 246.877 65.5811 247.129 65.7311 247.382C66.0294 247.407 66.3256 247.453 66.6177 247.518C66.9314 247.572 67.252 247.641 67.5657 247.709L68.5069 247.927C68.8206 248.002 69.1275 248.104 69.448 248.159C69.5162 248.159 69.4889 248.282 69.448 248.255C69.1261 248.141 68.7953 248.054 68.4591 247.995L67.518 247.804C67.2111 247.763 66.9042 247.723 66.5973 247.695C66.2904 247.668 66.1335 247.661 65.9153 247.634C66.0448 247.859 66.1744 248.077 66.2972 248.316L66.3517 248.425C66.6093 248.417 66.8667 248.447 67.1156 248.514C67.3884 248.561 67.6612 248.609 67.9272 248.671C68.4796 248.793 69.032 248.923 69.5776 249.08C70.7165 249.393 71.8487 249.762 72.9876 250.13C73.049 250.13 72.9876 250.246 72.9467 250.225C71.8278 249.849 70.6895 249.532 69.5367 249.278L67.8658 248.93L67.0542 248.759C66.8399 248.725 66.628 248.677 66.4199 248.616C67.0065 249.694 67.5521 250.785 68.0567 251.903C69.1548 254.324 70.1027 256.827 71.0166 259.317C71.0166 259.378 70.9416 259.419 70.9211 259.357C70.0118 256.882 68.9597 254.461 67.7703 252.108L67.1292 250.819C67.1292 250.907 67.0883 250.996 67.0747 251.085C67.0201 251.378 66.9655 251.671 66.9178 251.965C66.8155 252.558 66.72 253.144 66.6314 253.738C66.3796 254.948 66.2358 256.178 66.2017 257.414C66.2017 257.489 66.0926 257.482 66.0994 257.414C66.1949 256.827 66.1949 256.213 66.2358 255.62C66.2767 255.027 66.3176 254.386 66.3858 253.765C66.454 253.144 66.5359 252.578 66.6314 251.992C66.6791 251.699 66.7337 251.399 66.7882 251.105C66.8039 250.883 66.8594 250.666 66.9519 250.464C66.645 249.844 66.3381 249.223 66.0244 248.602C65.7107 247.982 65.431 247.443 65.131 246.863L64.7286 246.127C64.6335 246.433 64.5149 246.732 64.3739 247.02C64.2444 247.354 64.108 247.702 63.9716 248.016C63.6647 248.752 63.385 249.503 63.0986 250.246C62.703 251.303 62.2597 252.387 61.9324 253.485C62.2529 252.381 62.5257 251.283 62.8872 250.212Z" fill="#263238"/>
<path d="M39.0854 261.541L39.4537 269.411L40.4153 289.7H61.3459L62.3007 269.411L62.6758 261.541H39.0854Z" fill="#37474F"/>
<path d="M39.0854 261.541L39.4537 269.411H62.3007L62.6758 261.541H39.0854Z" fill="#263238"/>
<path d="M37.5987 264.725H64.1626V258.362H37.5987V264.725Z" fill="#37474F"/>
<path d="M59.6545 289.7H55.9785V293.035H59.6545V289.7Z" fill="#37474F"/>
<path d="M59.6545 289.7H55.9785V291.364H59.6545V289.7Z" fill="#263238"/>
<path d="M45.7759 289.7H42.1067V293.035H45.7759V289.7Z" fill="#37474F"/>
<path d="M45.7759 289.7H42.1067V291.364H45.7759V289.7Z" fill="#263238"/>
<path d="M254.959 112.686C255.87 111.331 256.361 109.737 256.371 108.103C256.371 102.306 250.008 97.6074 242.158 97.6074C234.308 97.6074 227.945 102.306 227.945 108.103C227.945 113.9 234.301 118.606 242.158 118.606C245.647 118.662 249.069 117.648 251.965 115.701L256.862 116.949L254.959 112.686Z" fill="#FFFEFD"/>
<path d="M254.959 112.687C255.799 111.392 256.271 109.892 256.323 108.349C256.335 106.823 255.917 105.324 255.116 104.025C253.428 101.473 250.883 99.608 247.941 98.767C245.04 97.8526 241.96 97.656 238.966 98.1941C235.969 98.6581 233.185 100.026 230.987 102.116C229.924 103.159 229.128 104.443 228.668 105.86C228.217 107.274 228.195 108.791 228.606 110.218C229.045 111.642 229.822 112.938 230.871 113.996C231.928 115.067 233.16 115.95 234.513 116.608C235.874 117.27 237.319 117.74 238.809 118.006C240.3 118.294 241.821 118.401 243.338 118.327C246.389 118.219 249.352 117.275 251.904 115.599L251.965 115.558H252.033L256.916 116.874L256.821 116.99L254.959 112.687ZM254.959 112.687L256.937 116.915L257.005 117.065L256.841 117.024L251.924 115.851H252.054C249.478 117.634 246.459 118.668 243.331 118.838C240.201 119.07 237.064 118.494 234.219 117.167C232.794 116.486 231.497 115.563 230.386 114.439C229.253 113.312 228.415 111.923 227.945 110.395C227.488 108.848 227.502 107.201 227.986 105.662C228.482 104.144 229.341 102.77 230.489 101.659C232.788 99.4836 235.699 98.0671 238.83 97.6008C241.916 97.0513 245.092 97.2858 248.064 98.2828C249.546 98.7736 250.942 99.4914 252.204 100.411C253.476 101.316 254.544 102.478 255.341 103.821C256.135 105.169 256.522 106.719 256.454 108.283C256.386 109.847 255.867 111.357 254.959 112.632V112.687Z" fill="#263238"/>
<path d="M237.043 108.103C237.043 108.395 236.957 108.68 236.795 108.922C236.633 109.164 236.403 109.353 236.134 109.464C235.864 109.576 235.568 109.605 235.282 109.548C234.997 109.491 234.734 109.351 234.528 109.145C234.322 108.939 234.182 108.677 234.125 108.391C234.068 108.105 234.097 107.809 234.209 107.54C234.32 107.271 234.509 107.04 234.751 106.879C234.994 106.717 235.278 106.63 235.57 106.63C235.96 106.63 236.335 106.786 236.611 107.062C236.888 107.338 237.043 107.713 237.043 108.103Z" fill="#263238"/>
<path d="M243.631 108.103C243.631 108.395 243.544 108.68 243.383 108.922C243.221 109.164 242.991 109.353 242.721 109.464C242.452 109.576 242.156 109.605 241.87 109.548C241.585 109.491 241.322 109.351 241.116 109.145C240.91 108.939 240.77 108.677 240.713 108.391C240.656 108.105 240.685 107.809 240.797 107.54C240.908 107.271 241.097 107.04 241.339 106.879C241.582 106.717 241.866 106.63 242.158 106.63C242.548 106.63 242.923 106.786 243.199 107.062C243.476 107.338 243.631 107.713 243.631 108.103Z" fill="#263238"/>
<path d="M250.219 108.103C250.219 108.395 250.133 108.68 249.971 108.922C249.809 109.164 249.579 109.353 249.31 109.464C249.04 109.576 248.744 109.605 248.458 109.548C248.173 109.491 247.91 109.351 247.704 109.145C247.498 108.939 247.358 108.677 247.301 108.391C247.244 108.105 247.273 107.809 247.385 107.54C247.496 107.271 247.685 107.04 247.927 106.879C248.17 106.717 248.454 106.63 248.746 106.63C248.939 106.63 249.131 106.668 249.31 106.743C249.488 106.817 249.651 106.925 249.787 107.062C249.924 107.199 250.033 107.361 250.107 107.54C250.181 107.718 250.219 107.91 250.219 108.103Z" fill="#263238"/>
</svg>
